G04 #@! TF.GenerationSoftware,KiCad,Pcbnew,(5.1.4-0-10_14)*
G04 #@! TF.CreationDate,2020-05-16T17:54:32+09:00*
G04 #@! TF.ProjectId,scsiemu,73637369-656d-4752-9e6b-696361645f70,rev?*
G04 #@! TF.SameCoordinates,Original*
G04 #@! TF.FileFunction,Paste,Top*
G04 #@! TF.FilePolarity,Positive*
%FSLAX46Y46*%
G04 Gerber Fmt 4.6, Leading zero omitted, Abs format (unit mm)*
G04 Created by KiCad (PCBNEW (5.1.4-0-10_14)) date 2020-05-16 17:54:32*
%MOMM*%
%LPD*%
G04 APERTURE LIST*
%ADD10C,0.100000*%
%ADD11C,0.950000*%
%ADD12R,0.430000X0.760000*%
%ADD13R,0.760000X0.430000*%
%ADD14R,2.550000X0.400000*%
%ADD15R,2.000000X2.100000*%
%ADD16R,1.900000X3.000000*%
G04 APERTURE END LIST*
D10*
G36*
X138563779Y-82901144D02*
G01*
X138586834Y-82904563D01*
X138609443Y-82910227D01*
X138631387Y-82918079D01*
X138652457Y-82928044D01*
X138672448Y-82940026D01*
X138691168Y-82953910D01*
X138708438Y-82969562D01*
X138724090Y-82986832D01*
X138737974Y-83005552D01*
X138749956Y-83025543D01*
X138759921Y-83046613D01*
X138767773Y-83068557D01*
X138773437Y-83091166D01*
X138776856Y-83114221D01*
X138778000Y-83137500D01*
X138778000Y-83712500D01*
X138776856Y-83735779D01*
X138773437Y-83758834D01*
X138767773Y-83781443D01*
X138759921Y-83803387D01*
X138749956Y-83824457D01*
X138737974Y-83844448D01*
X138724090Y-83863168D01*
X138708438Y-83880438D01*
X138691168Y-83896090D01*
X138672448Y-83909974D01*
X138652457Y-83921956D01*
X138631387Y-83931921D01*
X138609443Y-83939773D01*
X138586834Y-83945437D01*
X138563779Y-83948856D01*
X138540500Y-83950000D01*
X138065500Y-83950000D01*
X138042221Y-83948856D01*
X138019166Y-83945437D01*
X137996557Y-83939773D01*
X137974613Y-83931921D01*
X137953543Y-83921956D01*
X137933552Y-83909974D01*
X137914832Y-83896090D01*
X137897562Y-83880438D01*
X137881910Y-83863168D01*
X137868026Y-83844448D01*
X137856044Y-83824457D01*
X137846079Y-83803387D01*
X137838227Y-83781443D01*
X137832563Y-83758834D01*
X137829144Y-83735779D01*
X137828000Y-83712500D01*
X137828000Y-83137500D01*
X137829144Y-83114221D01*
X137832563Y-83091166D01*
X137838227Y-83068557D01*
X137846079Y-83046613D01*
X137856044Y-83025543D01*
X137868026Y-83005552D01*
X137881910Y-82986832D01*
X137897562Y-82969562D01*
X137914832Y-82953910D01*
X137933552Y-82940026D01*
X137953543Y-82928044D01*
X137974613Y-82918079D01*
X137996557Y-82910227D01*
X138019166Y-82904563D01*
X138042221Y-82901144D01*
X138065500Y-82900000D01*
X138540500Y-82900000D01*
X138563779Y-82901144D01*
X138563779Y-82901144D01*
G37*
D11*
X138303000Y-83425000D03*
D10*
G36*
X138563779Y-81151144D02*
G01*
X138586834Y-81154563D01*
X138609443Y-81160227D01*
X138631387Y-81168079D01*
X138652457Y-81178044D01*
X138672448Y-81190026D01*
X138691168Y-81203910D01*
X138708438Y-81219562D01*
X138724090Y-81236832D01*
X138737974Y-81255552D01*
X138749956Y-81275543D01*
X138759921Y-81296613D01*
X138767773Y-81318557D01*
X138773437Y-81341166D01*
X138776856Y-81364221D01*
X138778000Y-81387500D01*
X138778000Y-81962500D01*
X138776856Y-81985779D01*
X138773437Y-82008834D01*
X138767773Y-82031443D01*
X138759921Y-82053387D01*
X138749956Y-82074457D01*
X138737974Y-82094448D01*
X138724090Y-82113168D01*
X138708438Y-82130438D01*
X138691168Y-82146090D01*
X138672448Y-82159974D01*
X138652457Y-82171956D01*
X138631387Y-82181921D01*
X138609443Y-82189773D01*
X138586834Y-82195437D01*
X138563779Y-82198856D01*
X138540500Y-82200000D01*
X138065500Y-82200000D01*
X138042221Y-82198856D01*
X138019166Y-82195437D01*
X137996557Y-82189773D01*
X137974613Y-82181921D01*
X137953543Y-82171956D01*
X137933552Y-82159974D01*
X137914832Y-82146090D01*
X137897562Y-82130438D01*
X137881910Y-82113168D01*
X137868026Y-82094448D01*
X137856044Y-82074457D01*
X137846079Y-82053387D01*
X137838227Y-82031443D01*
X137832563Y-82008834D01*
X137829144Y-81985779D01*
X137828000Y-81962500D01*
X137828000Y-81387500D01*
X137829144Y-81364221D01*
X137832563Y-81341166D01*
X137838227Y-81318557D01*
X137846079Y-81296613D01*
X137856044Y-81275543D01*
X137868026Y-81255552D01*
X137881910Y-81236832D01*
X137897562Y-81219562D01*
X137914832Y-81203910D01*
X137933552Y-81190026D01*
X137953543Y-81178044D01*
X137974613Y-81168079D01*
X137996557Y-81160227D01*
X138019166Y-81154563D01*
X138042221Y-81151144D01*
X138065500Y-81150000D01*
X138540500Y-81150000D01*
X138563779Y-81151144D01*
X138563779Y-81151144D01*
G37*
D11*
X138303000Y-81675000D03*
D12*
X135159500Y-88648000D03*
X135959500Y-88648000D03*
X130359500Y-88648000D03*
X131159500Y-88648000D03*
X131159500Y-90168000D03*
X130359500Y-90168000D03*
X135959500Y-90168000D03*
X135159500Y-90168000D03*
X131959500Y-88648000D03*
X134359500Y-88648000D03*
X134359500Y-90168000D03*
X131959500Y-90168000D03*
X133559500Y-88648000D03*
X133559500Y-90168000D03*
X132759500Y-88648000D03*
X132759500Y-90168000D03*
D13*
X157355000Y-94850000D03*
X158875000Y-94850000D03*
X157355000Y-95650000D03*
X158875000Y-95650000D03*
X157355000Y-94050000D03*
X157355000Y-96450000D03*
X158875000Y-96450000D03*
X158875000Y-94050000D03*
X157355000Y-97250000D03*
X157355000Y-98050000D03*
X157355000Y-92450000D03*
X157355000Y-93250000D03*
X158875000Y-93250000D03*
X158875000Y-92450000D03*
X158875000Y-98050000D03*
X158875000Y-97250000D03*
D12*
X122459500Y-88711500D03*
X123259500Y-88711500D03*
X117659500Y-88711500D03*
X118459500Y-88711500D03*
X118459500Y-90231500D03*
X117659500Y-90231500D03*
X123259500Y-90231500D03*
X122459500Y-90231500D03*
X119259500Y-88711500D03*
X121659500Y-88711500D03*
X121659500Y-90231500D03*
X119259500Y-90231500D03*
X120859500Y-88711500D03*
X120859500Y-90231500D03*
X120059500Y-88711500D03*
X120059500Y-90231500D03*
X146348500Y-90168000D03*
X146348500Y-88648000D03*
X147148500Y-90168000D03*
X147148500Y-88648000D03*
X145548500Y-90168000D03*
X147948500Y-90168000D03*
X147948500Y-88648000D03*
X145548500Y-88648000D03*
X148748500Y-90168000D03*
X149548500Y-90168000D03*
X143948500Y-90168000D03*
X144748500Y-90168000D03*
X144748500Y-88648000D03*
X143948500Y-88648000D03*
X149548500Y-88648000D03*
X148748500Y-88648000D03*
X133889500Y-81536000D03*
X134689500Y-81536000D03*
X129089500Y-81536000D03*
X129889500Y-81536000D03*
X129889500Y-83056000D03*
X129089500Y-83056000D03*
X134689500Y-83056000D03*
X133889500Y-83056000D03*
X130689500Y-81536000D03*
X133089500Y-81536000D03*
X133089500Y-83056000D03*
X130689500Y-83056000D03*
X132289500Y-81536000D03*
X132289500Y-83056000D03*
X131489500Y-81536000D03*
X131489500Y-83056000D03*
X131489500Y-86929500D03*
X131489500Y-85409500D03*
X132289500Y-86929500D03*
X132289500Y-85409500D03*
X130689500Y-86929500D03*
X133089500Y-86929500D03*
X133089500Y-85409500D03*
X130689500Y-85409500D03*
X133889500Y-86929500D03*
X134689500Y-86929500D03*
X129089500Y-86929500D03*
X129889500Y-86929500D03*
X129889500Y-85409500D03*
X129089500Y-85409500D03*
X134689500Y-85409500D03*
X133889500Y-85409500D03*
D13*
X162304000Y-94634000D03*
X160784000Y-94634000D03*
X162304000Y-93834000D03*
X160784000Y-93834000D03*
X162304000Y-95434000D03*
X162304000Y-93034000D03*
X160784000Y-93034000D03*
X160784000Y-95434000D03*
X162304000Y-92234000D03*
X162304000Y-91434000D03*
X162304000Y-97034000D03*
X162304000Y-96234000D03*
X160784000Y-96234000D03*
X160784000Y-97034000D03*
X160784000Y-91434000D03*
X160784000Y-92234000D03*
D12*
X117189500Y-86485000D03*
X116389500Y-86485000D03*
X121989500Y-86485000D03*
X121189500Y-86485000D03*
X121189500Y-84965000D03*
X121989500Y-84965000D03*
X116389500Y-84965000D03*
X117189500Y-84965000D03*
X120389500Y-86485000D03*
X117989500Y-86485000D03*
X117989500Y-84965000D03*
X120389500Y-84965000D03*
X118789500Y-86485000D03*
X118789500Y-84965000D03*
X119589500Y-86485000D03*
X119589500Y-84965000D03*
X119589500Y-81536000D03*
X119589500Y-83056000D03*
X118789500Y-81536000D03*
X118789500Y-83056000D03*
X120389500Y-81536000D03*
X117989500Y-81536000D03*
X117989500Y-83056000D03*
X120389500Y-83056000D03*
X117189500Y-81536000D03*
X116389500Y-81536000D03*
X121989500Y-81536000D03*
X121189500Y-81536000D03*
X121189500Y-83056000D03*
X121989500Y-83056000D03*
X116389500Y-83056000D03*
X117189500Y-83056000D03*
X145142000Y-83056000D03*
X145142000Y-81536000D03*
X145942000Y-83056000D03*
X145942000Y-81536000D03*
X144342000Y-83056000D03*
X146742000Y-83056000D03*
X146742000Y-81536000D03*
X144342000Y-81536000D03*
X147542000Y-83056000D03*
X148342000Y-83056000D03*
X142742000Y-83056000D03*
X143542000Y-83056000D03*
X143542000Y-81536000D03*
X142742000Y-81536000D03*
X148342000Y-81536000D03*
X147542000Y-81536000D03*
X147542000Y-85409500D03*
X148342000Y-85409500D03*
X142742000Y-85409500D03*
X143542000Y-85409500D03*
X143542000Y-86929500D03*
X142742000Y-86929500D03*
X148342000Y-86929500D03*
X147542000Y-86929500D03*
X144342000Y-85409500D03*
X146742000Y-85409500D03*
X146742000Y-86929500D03*
X144342000Y-86929500D03*
X145942000Y-85409500D03*
X145942000Y-86929500D03*
X145142000Y-85409500D03*
X145142000Y-86929500D03*
D14*
X107161000Y-93076000D03*
X107161000Y-92426000D03*
X107161000Y-95026000D03*
X107161000Y-94376000D03*
X107161000Y-93726000D03*
D15*
X106236000Y-96826000D03*
X106236000Y-90626000D03*
D16*
X103886000Y-88926000D03*
X103886000Y-98526000D03*
M02*
