M48
; DRILL file {KiCad (5.1.4-0-10_14)} date Saturday, May 16, 2020 at 05:54:39 PM
; FORMAT={3:3/ absolute / metric / suppress trailing zeros}
; #@! TF.CreationDate,2020-05-16T17:54:39+09:00
; #@! TF.GenerationSoftware,Kicad,Pcbnew,(5.1.4-0-10_14)
; #@! TF.FileFunction,Plated,1,2,PTH
FMAT,2
METRIC,LZ
T1C0.300
T2C0.400
T3C0.750
T4C0.850
T5C0.900
T6C1.000
T7C3.050
%
G90
G05
T1
X103632Y-104203
X109093Y-09568
X10922Y-083693
X109347Y-09887
X109918Y-09568
X110046Y-091821
X110046Y-094043
X110109Y-092964
X110681Y-103632
X11284Y-101473
X113856Y-086995
X113919Y-103886
X114046Y-097917
X11411Y-084265
X115062Y-088519
X115888Y-07874
X116268Y-095123
X116332Y-092519
X116396Y-083757
X116903Y-103696
X117221Y-084328
X117285Y-092519
X117983Y-072263
X118047Y-083693
X118554Y-092519
X118809Y-084328
X119317Y-101156
X119571Y-083693
X119761Y-08001
X119824Y-092456
X120015Y-09887
X120396Y-084328
X121031Y-08001
X121094Y-092456
X121222Y-083693
X122047Y-084392
X122047Y-101156
X122365Y-092583
X123381Y-086423
X123634Y-092456
X123952Y-09525
X124333Y-083947
X124523Y-085662
X124523Y-103315
X124841Y-070929
X124905Y-092456
X126301Y-098171
X126492Y-084836
X126556Y-09271
X127698Y-084646
X128016Y-083439
X128333Y-089726
X128715Y-092456
X128715Y-093663
X129476Y-084138
X129921Y-094806
X129985Y-092456
X130493Y-084138
X131255Y-092456
X131509Y-083693
X131509Y-084773
X132334Y-084201
X132525Y-092456
X133096Y-083693
X133795Y-092456
X133921Y-084264
X135064Y-092456
X13589Y-06985
X136334Y-083629
X136334Y-092456
X137605Y-092456
X137859Y-085852
X139891Y-085916
X139954Y-089599
X140017Y-083376
X141478Y-083376
X141542Y-080201
X142304Y-092456
X143065Y-084201
X143574Y-092456
X144336Y-083693
X144844Y-092456
X145161Y-084773
X145987Y-083693
X146114Y-092456
X146749Y-084773
X14713Y-097599
X147384Y-092456
X147574Y-083693
X148336Y-084773
X148654Y-092456
X14967Y-085852
X149924Y-092456
X150622Y-089662
X15113Y-072517
X151194Y-092456
X152972Y-080073
X153416Y-093789
X154559Y-092075
X154559Y-094615
X154623Y-093345
X154623Y-095885
X154623Y-097155
X154623Y-098425
X15475Y-090805
X155639Y-100838
X156464Y-08382
X157353Y-099631
X157798Y-091123
X160147Y-098108
X160592Y-089662
X160782Y-109283
X164148Y-095822
X164148Y-097092
X164211Y-089535
X164211Y-090996
X164211Y-093472
X164211Y-094615
X164274Y-092329
X164274Y-098425
X165481Y-101092
X16637Y-086487
T2
X103632Y-074473
X103886Y-087884
X103886Y-08998
X103886Y-097599
X103886Y-099441
X105664Y-096203
X1057Y-0912
X105791Y-099314
X106807Y-090043
X106807Y-097473
X117031Y-097409
X12446Y-088583
X129286Y-088583
X129603Y-100838
X132398Y-099251
X13462Y-101664
X135128Y-097917
X137033Y-088583
X137859Y-094488
X138748Y-095377
X13951Y-080836
X139891Y-093408
X139891Y-096266
X141478Y-096711
X142367Y-102172
X142684Y-088583
X143193Y-096747
X144018Y-102108
X14478Y-104076
X144843Y-080328
X147765Y-095441
X148272Y-102298
X150114Y-100774
X151638Y-100838
X152464Y-092519
X152908Y-099568
X15367Y-083503
X161481Y-102552
X16237Y-099949
T3
X108394Y-088773
X108394Y-090773
X105283Y-076264
X105283Y-078264
X105283Y-080264
T4
X11976Y-074371
X11976Y-078171
X12103Y-072471
X12103Y-076271
X1223Y-074371
X1223Y-078171
X12357Y-072471
X12357Y-076271
X12484Y-074371
X12484Y-078171
X12611Y-072471
X12611Y-076271
X12738Y-074371
X12738Y-078171
X12865Y-072471
X12865Y-076271
X12992Y-074371
X12992Y-078171
X13119Y-072471
X13119Y-076271
X13246Y-074371
X13246Y-078171
X13373Y-072471
X13373Y-076271
X135Y-074371
X135Y-078171
X13627Y-072471
X13627Y-076271
X13754Y-074371
X13754Y-078171
X13881Y-072471
X13881Y-076271
X14008Y-074371
X14008Y-078171
X14135Y-072471
X14135Y-076271
X14262Y-074371
X14262Y-078171
X14389Y-072471
X14389Y-076271
X14516Y-074371
X14516Y-078171
X14643Y-072471
X14643Y-076271
X1477Y-074371
X1477Y-078171
X14897Y-072471
X14897Y-076271
X15024Y-074371
X15024Y-078171
T5
X103949Y-102235
X10649Y-102235
T6
X110871Y-105727
X110871Y-108268
X113411Y-105727
X113411Y-108268
X115951Y-105727
X115951Y-108268
X118491Y-105727
X118491Y-108268
X121031Y-105727
X121031Y-108268
X123571Y-105727
X123571Y-108268
X126111Y-105727
X126111Y-108268
X128651Y-105727
X128651Y-108268
X131191Y-105727
X131191Y-108268
X133731Y-105727
X133731Y-108268
X136271Y-105727
X136271Y-108268
X138811Y-105727
X138811Y-108268
X141351Y-105727
X141351Y-108268
X143891Y-105727
X143891Y-108268
X146431Y-105727
X146431Y-108268
X148971Y-105727
X148971Y-108268
X151511Y-105727
X151511Y-108268
X154051Y-105727
X154051Y-108268
X156591Y-105727
X156591Y-108268
X159131Y-105727
X159131Y-108268
T7
G00X11176Y-076149
M15
G01X11176Y-074369
M16
G05
G00X15824Y-076149
M15
G01X15824Y-074369
M16
G05
T0
M30
