%TF.GenerationSoftware,KiCad,Pcbnew,(5.1.6-0-10_14)*%
%TF.CreationDate,2020-09-12T17:56:08+09:00*%
%TF.ProjectId,scsiemu,73637369-656d-4752-9e6b-696361645f70,rev?*%
%TF.SameCoordinates,Original*%
%TF.FileFunction,Soldermask,Bot*%
%TF.FilePolarity,Negative*%
%FSLAX46Y46*%
G04 Gerber Fmt 4.6, Leading zero omitted, Abs format (unit mm)*
G04 Created by KiCad (PCBNEW (5.1.6-0-10_14)) date 2020-09-12 17:56:08*
%MOMM*%
%LPD*%
G01*
G04 APERTURE LIST*
%ADD10C,0.900000*%
%ADD11C,0.100000*%
G04 APERTURE END LIST*
D10*
X120700800Y-123164600D02*
X126111000Y-128574800D01*
X120624600Y-66573400D02*
X120650000Y-123113800D01*
X191401700Y-75869800D02*
X189217300Y-75869800D01*
X189128400Y-74117200D02*
X189128400Y-75311000D01*
X187337700Y-72326500D02*
X189128400Y-74117200D01*
X161759900Y-72313800D02*
X187337700Y-72326500D01*
X160934400Y-71488300D02*
X161759900Y-72313800D01*
X134073900Y-71526400D02*
X160972500Y-71526400D01*
X129336800Y-66878200D02*
X134010400Y-71551800D01*
X114020600Y-66497200D02*
X120675400Y-66497200D01*
D11*
G36*
X207775331Y-131468211D02*
G01*
X208103092Y-131603974D01*
X208398070Y-131801072D01*
X208648928Y-132051930D01*
X208846026Y-132346908D01*
X208981789Y-132674669D01*
X209051000Y-133022616D01*
X209051000Y-133377384D01*
X208981789Y-133725331D01*
X208846026Y-134053092D01*
X208648928Y-134348070D01*
X208398070Y-134598928D01*
X208103092Y-134796026D01*
X207775331Y-134931789D01*
X207427384Y-135001000D01*
X207072616Y-135001000D01*
X206724669Y-134931789D01*
X206396908Y-134796026D01*
X206101930Y-134598928D01*
X205851072Y-134348070D01*
X205653974Y-134053092D01*
X205518211Y-133725331D01*
X205449000Y-133377384D01*
X205449000Y-133022616D01*
X205518211Y-132674669D01*
X205653974Y-132346908D01*
X205851072Y-132051930D01*
X206101930Y-131801072D01*
X206396908Y-131603974D01*
X206724669Y-131468211D01*
X207072616Y-131399000D01*
X207427384Y-131399000D01*
X207775331Y-131468211D01*
G37*
G36*
X112525331Y-131468211D02*
G01*
X112853092Y-131603974D01*
X113148070Y-131801072D01*
X113398928Y-132051930D01*
X113596026Y-132346908D01*
X113731789Y-132674669D01*
X113801000Y-133022616D01*
X113801000Y-133377384D01*
X113731789Y-133725331D01*
X113596026Y-134053092D01*
X113398928Y-134348070D01*
X113148070Y-134598928D01*
X112853092Y-134796026D01*
X112525331Y-134931789D01*
X112177384Y-135001000D01*
X111822616Y-135001000D01*
X111474669Y-134931789D01*
X111146908Y-134796026D01*
X110851930Y-134598928D01*
X110601072Y-134348070D01*
X110403974Y-134053092D01*
X110268211Y-133725331D01*
X110199000Y-133377384D01*
X110199000Y-133022616D01*
X110268211Y-132674669D01*
X110403974Y-132346908D01*
X110601072Y-132051930D01*
X110851930Y-131801072D01*
X111146908Y-131603974D01*
X111474669Y-131468211D01*
X111822616Y-131399000D01*
X112177384Y-131399000D01*
X112525331Y-131468211D01*
G37*
G36*
X196738549Y-125021116D02*
G01*
X196849734Y-125043232D01*
X197059203Y-125129997D01*
X197247720Y-125255960D01*
X197408040Y-125416280D01*
X197534003Y-125604797D01*
X197620768Y-125814266D01*
X197665000Y-126036636D01*
X197665000Y-126263364D01*
X197620768Y-126485734D01*
X197534003Y-126695203D01*
X197408040Y-126883720D01*
X197247720Y-127044040D01*
X197059203Y-127170003D01*
X196849734Y-127256768D01*
X196738549Y-127278884D01*
X196627365Y-127301000D01*
X196400635Y-127301000D01*
X196289451Y-127278884D01*
X196178266Y-127256768D01*
X195968797Y-127170003D01*
X195780280Y-127044040D01*
X195619960Y-126883720D01*
X195493997Y-126695203D01*
X195407232Y-126485734D01*
X195363000Y-126263364D01*
X195363000Y-126036636D01*
X195407232Y-125814266D01*
X195493997Y-125604797D01*
X195619960Y-125416280D01*
X195780280Y-125255960D01*
X195968797Y-125129997D01*
X196178266Y-125043232D01*
X196289451Y-125021116D01*
X196400635Y-124999000D01*
X196627365Y-124999000D01*
X196738549Y-125021116D01*
G37*
G36*
X138738549Y-125021116D02*
G01*
X138849734Y-125043232D01*
X139059203Y-125129997D01*
X139247720Y-125255960D01*
X139408040Y-125416280D01*
X139534003Y-125604797D01*
X139620768Y-125814266D01*
X139665000Y-126036636D01*
X139665000Y-126263364D01*
X139620768Y-126485734D01*
X139534003Y-126695203D01*
X139408040Y-126883720D01*
X139247720Y-127044040D01*
X139059203Y-127170003D01*
X138849734Y-127256768D01*
X138738549Y-127278884D01*
X138627365Y-127301000D01*
X138400635Y-127301000D01*
X138289451Y-127278884D01*
X138178266Y-127256768D01*
X137968797Y-127170003D01*
X137780280Y-127044040D01*
X137619960Y-126883720D01*
X137493997Y-126695203D01*
X137407232Y-126485734D01*
X137363000Y-126263364D01*
X137363000Y-126036636D01*
X137407232Y-125814266D01*
X137493997Y-125604797D01*
X137619960Y-125416280D01*
X137780280Y-125255960D01*
X137968797Y-125129997D01*
X138178266Y-125043232D01*
X138289451Y-125021116D01*
X138400635Y-124999000D01*
X138627365Y-124999000D01*
X138738549Y-125021116D01*
G37*
G36*
X207775331Y-99718211D02*
G01*
X208103092Y-99853974D01*
X208398070Y-100051072D01*
X208648928Y-100301930D01*
X208846026Y-100596908D01*
X208981789Y-100924669D01*
X209051000Y-101272616D01*
X209051000Y-101627384D01*
X208981789Y-101975331D01*
X208846026Y-102303092D01*
X208648928Y-102598070D01*
X208398070Y-102848928D01*
X208103092Y-103046026D01*
X207775331Y-103181789D01*
X207427384Y-103251000D01*
X207072616Y-103251000D01*
X206724669Y-103181789D01*
X206396908Y-103046026D01*
X206101930Y-102848928D01*
X205851072Y-102598070D01*
X205653974Y-102303092D01*
X205518211Y-101975331D01*
X205449000Y-101627384D01*
X205449000Y-101272616D01*
X205518211Y-100924669D01*
X205653974Y-100596908D01*
X205851072Y-100301930D01*
X206101930Y-100051072D01*
X206396908Y-99853974D01*
X206724669Y-99718211D01*
X207072616Y-99649000D01*
X207427384Y-99649000D01*
X207775331Y-99718211D01*
G37*
G36*
X112525331Y-99718211D02*
G01*
X112853092Y-99853974D01*
X113148070Y-100051072D01*
X113398928Y-100301930D01*
X113596026Y-100596908D01*
X113731789Y-100924669D01*
X113801000Y-101272616D01*
X113801000Y-101627384D01*
X113731789Y-101975331D01*
X113596026Y-102303092D01*
X113398928Y-102598070D01*
X113148070Y-102848928D01*
X112853092Y-103046026D01*
X112525331Y-103181789D01*
X112177384Y-103251000D01*
X111822616Y-103251000D01*
X111474669Y-103181789D01*
X111146908Y-103046026D01*
X110851930Y-102848928D01*
X110601072Y-102598070D01*
X110403974Y-102303092D01*
X110268211Y-101975331D01*
X110199000Y-101627384D01*
X110199000Y-101272616D01*
X110268211Y-100924669D01*
X110403974Y-100596908D01*
X110601072Y-100301930D01*
X110851930Y-100051072D01*
X111146908Y-99853974D01*
X111474669Y-99718211D01*
X111822616Y-99649000D01*
X112177384Y-99649000D01*
X112525331Y-99718211D01*
G37*
G36*
X138738549Y-99021116D02*
G01*
X138849734Y-99043232D01*
X139059203Y-99129997D01*
X139247720Y-99255960D01*
X139408040Y-99416280D01*
X139534003Y-99604797D01*
X139620768Y-99814266D01*
X139665000Y-100036636D01*
X139665000Y-100263364D01*
X139620768Y-100485734D01*
X139534003Y-100695203D01*
X139408040Y-100883720D01*
X139247720Y-101044040D01*
X139059203Y-101170003D01*
X138849734Y-101256768D01*
X138770060Y-101272616D01*
X138627365Y-101301000D01*
X138400635Y-101301000D01*
X138257940Y-101272616D01*
X138178266Y-101256768D01*
X137968797Y-101170003D01*
X137780280Y-101044040D01*
X137619960Y-100883720D01*
X137493997Y-100695203D01*
X137407232Y-100485734D01*
X137363000Y-100263364D01*
X137363000Y-100036636D01*
X137407232Y-99814266D01*
X137493997Y-99604797D01*
X137619960Y-99416280D01*
X137780280Y-99255960D01*
X137968797Y-99129997D01*
X138178266Y-99043232D01*
X138289451Y-99021116D01*
X138400635Y-98999000D01*
X138627365Y-98999000D01*
X138738549Y-99021116D01*
G37*
G36*
X196738549Y-99021116D02*
G01*
X196849734Y-99043232D01*
X197059203Y-99129997D01*
X197247720Y-99255960D01*
X197408040Y-99416280D01*
X197534003Y-99604797D01*
X197620768Y-99814266D01*
X197665000Y-100036636D01*
X197665000Y-100263364D01*
X197620768Y-100485734D01*
X197534003Y-100695203D01*
X197408040Y-100883720D01*
X197247720Y-101044040D01*
X197059203Y-101170003D01*
X196849734Y-101256768D01*
X196770060Y-101272616D01*
X196627365Y-101301000D01*
X196400635Y-101301000D01*
X196257940Y-101272616D01*
X196178266Y-101256768D01*
X195968797Y-101170003D01*
X195780280Y-101044040D01*
X195619960Y-100883720D01*
X195493997Y-100695203D01*
X195407232Y-100485734D01*
X195363000Y-100263364D01*
X195363000Y-100036636D01*
X195407232Y-99814266D01*
X195493997Y-99604797D01*
X195619960Y-99416280D01*
X195780280Y-99255960D01*
X195968797Y-99129997D01*
X196178266Y-99043232D01*
X196289451Y-99021116D01*
X196400635Y-98999000D01*
X196627365Y-98999000D01*
X196738549Y-99021116D01*
G37*
G36*
X171436512Y-77526427D02*
G01*
X171585812Y-77556124D01*
X171749784Y-77624044D01*
X171897354Y-77722647D01*
X172022853Y-77848146D01*
X172121456Y-77995716D01*
X172189376Y-78159688D01*
X172224000Y-78333759D01*
X172224000Y-78511241D01*
X172189376Y-78685312D01*
X172121456Y-78849284D01*
X172022853Y-78996854D01*
X171897354Y-79122353D01*
X171749784Y-79220956D01*
X171585812Y-79288876D01*
X171436512Y-79318573D01*
X171411742Y-79323500D01*
X171234258Y-79323500D01*
X171209488Y-79318573D01*
X171060188Y-79288876D01*
X170896216Y-79220956D01*
X170748646Y-79122353D01*
X170623147Y-78996854D01*
X170524544Y-78849284D01*
X170456624Y-78685312D01*
X170422000Y-78511241D01*
X170422000Y-78333759D01*
X170456624Y-78159688D01*
X170524544Y-77995716D01*
X170623147Y-77848146D01*
X170748646Y-77722647D01*
X170896216Y-77624044D01*
X171060188Y-77556124D01*
X171209488Y-77526427D01*
X171234258Y-77521500D01*
X171411742Y-77521500D01*
X171436512Y-77526427D01*
G37*
G36*
X168896512Y-77526427D02*
G01*
X169045812Y-77556124D01*
X169209784Y-77624044D01*
X169357354Y-77722647D01*
X169482853Y-77848146D01*
X169581456Y-77995716D01*
X169649376Y-78159688D01*
X169684000Y-78333759D01*
X169684000Y-78511241D01*
X169649376Y-78685312D01*
X169581456Y-78849284D01*
X169482853Y-78996854D01*
X169357354Y-79122353D01*
X169209784Y-79220956D01*
X169045812Y-79288876D01*
X168896512Y-79318573D01*
X168871742Y-79323500D01*
X168694258Y-79323500D01*
X168669488Y-79318573D01*
X168520188Y-79288876D01*
X168356216Y-79220956D01*
X168208646Y-79122353D01*
X168083147Y-78996854D01*
X167984544Y-78849284D01*
X167916624Y-78685312D01*
X167882000Y-78511241D01*
X167882000Y-78333759D01*
X167916624Y-78159688D01*
X167984544Y-77995716D01*
X168083147Y-77848146D01*
X168208646Y-77722647D01*
X168356216Y-77624044D01*
X168520188Y-77556124D01*
X168669488Y-77526427D01*
X168694258Y-77521500D01*
X168871742Y-77521500D01*
X168896512Y-77526427D01*
G37*
G36*
X166356512Y-77526427D02*
G01*
X166505812Y-77556124D01*
X166669784Y-77624044D01*
X166817354Y-77722647D01*
X166942853Y-77848146D01*
X167041456Y-77995716D01*
X167109376Y-78159688D01*
X167144000Y-78333759D01*
X167144000Y-78511241D01*
X167109376Y-78685312D01*
X167041456Y-78849284D01*
X166942853Y-78996854D01*
X166817354Y-79122353D01*
X166669784Y-79220956D01*
X166505812Y-79288876D01*
X166356512Y-79318573D01*
X166331742Y-79323500D01*
X166154258Y-79323500D01*
X166129488Y-79318573D01*
X165980188Y-79288876D01*
X165816216Y-79220956D01*
X165668646Y-79122353D01*
X165543147Y-78996854D01*
X165444544Y-78849284D01*
X165376624Y-78685312D01*
X165342000Y-78511241D01*
X165342000Y-78333759D01*
X165376624Y-78159688D01*
X165444544Y-77995716D01*
X165543147Y-77848146D01*
X165668646Y-77722647D01*
X165816216Y-77624044D01*
X165980188Y-77556124D01*
X166129488Y-77526427D01*
X166154258Y-77521500D01*
X166331742Y-77521500D01*
X166356512Y-77526427D01*
G37*
G36*
X163816512Y-77526427D02*
G01*
X163965812Y-77556124D01*
X164129784Y-77624044D01*
X164277354Y-77722647D01*
X164402853Y-77848146D01*
X164501456Y-77995716D01*
X164569376Y-78159688D01*
X164604000Y-78333759D01*
X164604000Y-78511241D01*
X164569376Y-78685312D01*
X164501456Y-78849284D01*
X164402853Y-78996854D01*
X164277354Y-79122353D01*
X164129784Y-79220956D01*
X163965812Y-79288876D01*
X163816512Y-79318573D01*
X163791742Y-79323500D01*
X163614258Y-79323500D01*
X163589488Y-79318573D01*
X163440188Y-79288876D01*
X163276216Y-79220956D01*
X163128646Y-79122353D01*
X163003147Y-78996854D01*
X162904544Y-78849284D01*
X162836624Y-78685312D01*
X162802000Y-78511241D01*
X162802000Y-78333759D01*
X162836624Y-78159688D01*
X162904544Y-77995716D01*
X163003147Y-77848146D01*
X163128646Y-77722647D01*
X163276216Y-77624044D01*
X163440188Y-77556124D01*
X163589488Y-77526427D01*
X163614258Y-77521500D01*
X163791742Y-77521500D01*
X163816512Y-77526427D01*
G37*
G36*
X161276512Y-77526427D02*
G01*
X161425812Y-77556124D01*
X161589784Y-77624044D01*
X161737354Y-77722647D01*
X161862853Y-77848146D01*
X161961456Y-77995716D01*
X162029376Y-78159688D01*
X162064000Y-78333759D01*
X162064000Y-78511241D01*
X162029376Y-78685312D01*
X161961456Y-78849284D01*
X161862853Y-78996854D01*
X161737354Y-79122353D01*
X161589784Y-79220956D01*
X161425812Y-79288876D01*
X161276512Y-79318573D01*
X161251742Y-79323500D01*
X161074258Y-79323500D01*
X161049488Y-79318573D01*
X160900188Y-79288876D01*
X160736216Y-79220956D01*
X160588646Y-79122353D01*
X160463147Y-78996854D01*
X160364544Y-78849284D01*
X160296624Y-78685312D01*
X160262000Y-78511241D01*
X160262000Y-78333759D01*
X160296624Y-78159688D01*
X160364544Y-77995716D01*
X160463147Y-77848146D01*
X160588646Y-77722647D01*
X160736216Y-77624044D01*
X160900188Y-77556124D01*
X161049488Y-77526427D01*
X161074258Y-77521500D01*
X161251742Y-77521500D01*
X161276512Y-77526427D01*
G37*
G36*
X158736512Y-77526427D02*
G01*
X158885812Y-77556124D01*
X159049784Y-77624044D01*
X159197354Y-77722647D01*
X159322853Y-77848146D01*
X159421456Y-77995716D01*
X159489376Y-78159688D01*
X159524000Y-78333759D01*
X159524000Y-78511241D01*
X159489376Y-78685312D01*
X159421456Y-78849284D01*
X159322853Y-78996854D01*
X159197354Y-79122353D01*
X159049784Y-79220956D01*
X158885812Y-79288876D01*
X158736512Y-79318573D01*
X158711742Y-79323500D01*
X158534258Y-79323500D01*
X158509488Y-79318573D01*
X158360188Y-79288876D01*
X158196216Y-79220956D01*
X158048646Y-79122353D01*
X157923147Y-78996854D01*
X157824544Y-78849284D01*
X157756624Y-78685312D01*
X157722000Y-78511241D01*
X157722000Y-78333759D01*
X157756624Y-78159688D01*
X157824544Y-77995716D01*
X157923147Y-77848146D01*
X158048646Y-77722647D01*
X158196216Y-77624044D01*
X158360188Y-77556124D01*
X158509488Y-77526427D01*
X158534258Y-77521500D01*
X158711742Y-77521500D01*
X158736512Y-77526427D01*
G37*
G36*
X156196512Y-77526427D02*
G01*
X156345812Y-77556124D01*
X156509784Y-77624044D01*
X156657354Y-77722647D01*
X156782853Y-77848146D01*
X156881456Y-77995716D01*
X156949376Y-78159688D01*
X156984000Y-78333759D01*
X156984000Y-78511241D01*
X156949376Y-78685312D01*
X156881456Y-78849284D01*
X156782853Y-78996854D01*
X156657354Y-79122353D01*
X156509784Y-79220956D01*
X156345812Y-79288876D01*
X156196512Y-79318573D01*
X156171742Y-79323500D01*
X155994258Y-79323500D01*
X155969488Y-79318573D01*
X155820188Y-79288876D01*
X155656216Y-79220956D01*
X155508646Y-79122353D01*
X155383147Y-78996854D01*
X155284544Y-78849284D01*
X155216624Y-78685312D01*
X155182000Y-78511241D01*
X155182000Y-78333759D01*
X155216624Y-78159688D01*
X155284544Y-77995716D01*
X155383147Y-77848146D01*
X155508646Y-77722647D01*
X155656216Y-77624044D01*
X155820188Y-77556124D01*
X155969488Y-77526427D01*
X155994258Y-77521500D01*
X156171742Y-77521500D01*
X156196512Y-77526427D01*
G37*
G36*
X153656512Y-77526427D02*
G01*
X153805812Y-77556124D01*
X153969784Y-77624044D01*
X154117354Y-77722647D01*
X154242853Y-77848146D01*
X154341456Y-77995716D01*
X154409376Y-78159688D01*
X154444000Y-78333759D01*
X154444000Y-78511241D01*
X154409376Y-78685312D01*
X154341456Y-78849284D01*
X154242853Y-78996854D01*
X154117354Y-79122353D01*
X153969784Y-79220956D01*
X153805812Y-79288876D01*
X153656512Y-79318573D01*
X153631742Y-79323500D01*
X153454258Y-79323500D01*
X153429488Y-79318573D01*
X153280188Y-79288876D01*
X153116216Y-79220956D01*
X152968646Y-79122353D01*
X152843147Y-78996854D01*
X152744544Y-78849284D01*
X152676624Y-78685312D01*
X152642000Y-78511241D01*
X152642000Y-78333759D01*
X152676624Y-78159688D01*
X152744544Y-77995716D01*
X152843147Y-77848146D01*
X152968646Y-77722647D01*
X153116216Y-77624044D01*
X153280188Y-77556124D01*
X153429488Y-77526427D01*
X153454258Y-77521500D01*
X153631742Y-77521500D01*
X153656512Y-77526427D01*
G37*
G36*
X151116512Y-77526427D02*
G01*
X151265812Y-77556124D01*
X151429784Y-77624044D01*
X151577354Y-77722647D01*
X151702853Y-77848146D01*
X151801456Y-77995716D01*
X151869376Y-78159688D01*
X151904000Y-78333759D01*
X151904000Y-78511241D01*
X151869376Y-78685312D01*
X151801456Y-78849284D01*
X151702853Y-78996854D01*
X151577354Y-79122353D01*
X151429784Y-79220956D01*
X151265812Y-79288876D01*
X151116512Y-79318573D01*
X151091742Y-79323500D01*
X150914258Y-79323500D01*
X150889488Y-79318573D01*
X150740188Y-79288876D01*
X150576216Y-79220956D01*
X150428646Y-79122353D01*
X150303147Y-78996854D01*
X150204544Y-78849284D01*
X150136624Y-78685312D01*
X150102000Y-78511241D01*
X150102000Y-78333759D01*
X150136624Y-78159688D01*
X150204544Y-77995716D01*
X150303147Y-77848146D01*
X150428646Y-77722647D01*
X150576216Y-77624044D01*
X150740188Y-77556124D01*
X150889488Y-77526427D01*
X150914258Y-77521500D01*
X151091742Y-77521500D01*
X151116512Y-77526427D01*
G37*
G36*
X148576512Y-77526427D02*
G01*
X148725812Y-77556124D01*
X148889784Y-77624044D01*
X149037354Y-77722647D01*
X149162853Y-77848146D01*
X149261456Y-77995716D01*
X149329376Y-78159688D01*
X149364000Y-78333759D01*
X149364000Y-78511241D01*
X149329376Y-78685312D01*
X149261456Y-78849284D01*
X149162853Y-78996854D01*
X149037354Y-79122353D01*
X148889784Y-79220956D01*
X148725812Y-79288876D01*
X148576512Y-79318573D01*
X148551742Y-79323500D01*
X148374258Y-79323500D01*
X148349488Y-79318573D01*
X148200188Y-79288876D01*
X148036216Y-79220956D01*
X147888646Y-79122353D01*
X147763147Y-78996854D01*
X147664544Y-78849284D01*
X147596624Y-78685312D01*
X147562000Y-78511241D01*
X147562000Y-78333759D01*
X147596624Y-78159688D01*
X147664544Y-77995716D01*
X147763147Y-77848146D01*
X147888646Y-77722647D01*
X148036216Y-77624044D01*
X148200188Y-77556124D01*
X148349488Y-77526427D01*
X148374258Y-77521500D01*
X148551742Y-77521500D01*
X148576512Y-77526427D01*
G37*
G36*
X146036512Y-77526427D02*
G01*
X146185812Y-77556124D01*
X146349784Y-77624044D01*
X146497354Y-77722647D01*
X146622853Y-77848146D01*
X146721456Y-77995716D01*
X146789376Y-78159688D01*
X146824000Y-78333759D01*
X146824000Y-78511241D01*
X146789376Y-78685312D01*
X146721456Y-78849284D01*
X146622853Y-78996854D01*
X146497354Y-79122353D01*
X146349784Y-79220956D01*
X146185812Y-79288876D01*
X146036512Y-79318573D01*
X146011742Y-79323500D01*
X145834258Y-79323500D01*
X145809488Y-79318573D01*
X145660188Y-79288876D01*
X145496216Y-79220956D01*
X145348646Y-79122353D01*
X145223147Y-78996854D01*
X145124544Y-78849284D01*
X145056624Y-78685312D01*
X145022000Y-78511241D01*
X145022000Y-78333759D01*
X145056624Y-78159688D01*
X145124544Y-77995716D01*
X145223147Y-77848146D01*
X145348646Y-77722647D01*
X145496216Y-77624044D01*
X145660188Y-77556124D01*
X145809488Y-77526427D01*
X145834258Y-77521500D01*
X146011742Y-77521500D01*
X146036512Y-77526427D01*
G37*
G36*
X143496512Y-77526427D02*
G01*
X143645812Y-77556124D01*
X143809784Y-77624044D01*
X143957354Y-77722647D01*
X144082853Y-77848146D01*
X144181456Y-77995716D01*
X144249376Y-78159688D01*
X144284000Y-78333759D01*
X144284000Y-78511241D01*
X144249376Y-78685312D01*
X144181456Y-78849284D01*
X144082853Y-78996854D01*
X143957354Y-79122353D01*
X143809784Y-79220956D01*
X143645812Y-79288876D01*
X143496512Y-79318573D01*
X143471742Y-79323500D01*
X143294258Y-79323500D01*
X143269488Y-79318573D01*
X143120188Y-79288876D01*
X142956216Y-79220956D01*
X142808646Y-79122353D01*
X142683147Y-78996854D01*
X142584544Y-78849284D01*
X142516624Y-78685312D01*
X142482000Y-78511241D01*
X142482000Y-78333759D01*
X142516624Y-78159688D01*
X142584544Y-77995716D01*
X142683147Y-77848146D01*
X142808646Y-77722647D01*
X142956216Y-77624044D01*
X143120188Y-77556124D01*
X143269488Y-77526427D01*
X143294258Y-77521500D01*
X143471742Y-77521500D01*
X143496512Y-77526427D01*
G37*
G36*
X192544000Y-79323500D02*
G01*
X190742000Y-79323500D01*
X190742000Y-77521500D01*
X192544000Y-77521500D01*
X192544000Y-79323500D01*
G37*
G36*
X189216512Y-77526427D02*
G01*
X189365812Y-77556124D01*
X189529784Y-77624044D01*
X189677354Y-77722647D01*
X189802853Y-77848146D01*
X189901456Y-77995716D01*
X189969376Y-78159688D01*
X190004000Y-78333759D01*
X190004000Y-78511241D01*
X189969376Y-78685312D01*
X189901456Y-78849284D01*
X189802853Y-78996854D01*
X189677354Y-79122353D01*
X189529784Y-79220956D01*
X189365812Y-79288876D01*
X189216512Y-79318573D01*
X189191742Y-79323500D01*
X189014258Y-79323500D01*
X188989488Y-79318573D01*
X188840188Y-79288876D01*
X188676216Y-79220956D01*
X188528646Y-79122353D01*
X188403147Y-78996854D01*
X188304544Y-78849284D01*
X188236624Y-78685312D01*
X188202000Y-78511241D01*
X188202000Y-78333759D01*
X188236624Y-78159688D01*
X188304544Y-77995716D01*
X188403147Y-77848146D01*
X188528646Y-77722647D01*
X188676216Y-77624044D01*
X188840188Y-77556124D01*
X188989488Y-77526427D01*
X189014258Y-77521500D01*
X189191742Y-77521500D01*
X189216512Y-77526427D01*
G37*
G36*
X173976512Y-77526427D02*
G01*
X174125812Y-77556124D01*
X174289784Y-77624044D01*
X174437354Y-77722647D01*
X174562853Y-77848146D01*
X174661456Y-77995716D01*
X174729376Y-78159688D01*
X174764000Y-78333759D01*
X174764000Y-78511241D01*
X174729376Y-78685312D01*
X174661456Y-78849284D01*
X174562853Y-78996854D01*
X174437354Y-79122353D01*
X174289784Y-79220956D01*
X174125812Y-79288876D01*
X173976512Y-79318573D01*
X173951742Y-79323500D01*
X173774258Y-79323500D01*
X173749488Y-79318573D01*
X173600188Y-79288876D01*
X173436216Y-79220956D01*
X173288646Y-79122353D01*
X173163147Y-78996854D01*
X173064544Y-78849284D01*
X172996624Y-78685312D01*
X172962000Y-78511241D01*
X172962000Y-78333759D01*
X172996624Y-78159688D01*
X173064544Y-77995716D01*
X173163147Y-77848146D01*
X173288646Y-77722647D01*
X173436216Y-77624044D01*
X173600188Y-77556124D01*
X173749488Y-77526427D01*
X173774258Y-77521500D01*
X173951742Y-77521500D01*
X173976512Y-77526427D01*
G37*
G36*
X176516512Y-77526427D02*
G01*
X176665812Y-77556124D01*
X176829784Y-77624044D01*
X176977354Y-77722647D01*
X177102853Y-77848146D01*
X177201456Y-77995716D01*
X177269376Y-78159688D01*
X177304000Y-78333759D01*
X177304000Y-78511241D01*
X177269376Y-78685312D01*
X177201456Y-78849284D01*
X177102853Y-78996854D01*
X176977354Y-79122353D01*
X176829784Y-79220956D01*
X176665812Y-79288876D01*
X176516512Y-79318573D01*
X176491742Y-79323500D01*
X176314258Y-79323500D01*
X176289488Y-79318573D01*
X176140188Y-79288876D01*
X175976216Y-79220956D01*
X175828646Y-79122353D01*
X175703147Y-78996854D01*
X175604544Y-78849284D01*
X175536624Y-78685312D01*
X175502000Y-78511241D01*
X175502000Y-78333759D01*
X175536624Y-78159688D01*
X175604544Y-77995716D01*
X175703147Y-77848146D01*
X175828646Y-77722647D01*
X175976216Y-77624044D01*
X176140188Y-77556124D01*
X176289488Y-77526427D01*
X176314258Y-77521500D01*
X176491742Y-77521500D01*
X176516512Y-77526427D01*
G37*
G36*
X179056512Y-77526427D02*
G01*
X179205812Y-77556124D01*
X179369784Y-77624044D01*
X179517354Y-77722647D01*
X179642853Y-77848146D01*
X179741456Y-77995716D01*
X179809376Y-78159688D01*
X179844000Y-78333759D01*
X179844000Y-78511241D01*
X179809376Y-78685312D01*
X179741456Y-78849284D01*
X179642853Y-78996854D01*
X179517354Y-79122353D01*
X179369784Y-79220956D01*
X179205812Y-79288876D01*
X179056512Y-79318573D01*
X179031742Y-79323500D01*
X178854258Y-79323500D01*
X178829488Y-79318573D01*
X178680188Y-79288876D01*
X178516216Y-79220956D01*
X178368646Y-79122353D01*
X178243147Y-78996854D01*
X178144544Y-78849284D01*
X178076624Y-78685312D01*
X178042000Y-78511241D01*
X178042000Y-78333759D01*
X178076624Y-78159688D01*
X178144544Y-77995716D01*
X178243147Y-77848146D01*
X178368646Y-77722647D01*
X178516216Y-77624044D01*
X178680188Y-77556124D01*
X178829488Y-77526427D01*
X178854258Y-77521500D01*
X179031742Y-77521500D01*
X179056512Y-77526427D01*
G37*
G36*
X181596512Y-77526427D02*
G01*
X181745812Y-77556124D01*
X181909784Y-77624044D01*
X182057354Y-77722647D01*
X182182853Y-77848146D01*
X182281456Y-77995716D01*
X182349376Y-78159688D01*
X182384000Y-78333759D01*
X182384000Y-78511241D01*
X182349376Y-78685312D01*
X182281456Y-78849284D01*
X182182853Y-78996854D01*
X182057354Y-79122353D01*
X181909784Y-79220956D01*
X181745812Y-79288876D01*
X181596512Y-79318573D01*
X181571742Y-79323500D01*
X181394258Y-79323500D01*
X181369488Y-79318573D01*
X181220188Y-79288876D01*
X181056216Y-79220956D01*
X180908646Y-79122353D01*
X180783147Y-78996854D01*
X180684544Y-78849284D01*
X180616624Y-78685312D01*
X180582000Y-78511241D01*
X180582000Y-78333759D01*
X180616624Y-78159688D01*
X180684544Y-77995716D01*
X180783147Y-77848146D01*
X180908646Y-77722647D01*
X181056216Y-77624044D01*
X181220188Y-77556124D01*
X181369488Y-77526427D01*
X181394258Y-77521500D01*
X181571742Y-77521500D01*
X181596512Y-77526427D01*
G37*
G36*
X184136512Y-77526427D02*
G01*
X184285812Y-77556124D01*
X184449784Y-77624044D01*
X184597354Y-77722647D01*
X184722853Y-77848146D01*
X184821456Y-77995716D01*
X184889376Y-78159688D01*
X184924000Y-78333759D01*
X184924000Y-78511241D01*
X184889376Y-78685312D01*
X184821456Y-78849284D01*
X184722853Y-78996854D01*
X184597354Y-79122353D01*
X184449784Y-79220956D01*
X184285812Y-79288876D01*
X184136512Y-79318573D01*
X184111742Y-79323500D01*
X183934258Y-79323500D01*
X183909488Y-79318573D01*
X183760188Y-79288876D01*
X183596216Y-79220956D01*
X183448646Y-79122353D01*
X183323147Y-78996854D01*
X183224544Y-78849284D01*
X183156624Y-78685312D01*
X183122000Y-78511241D01*
X183122000Y-78333759D01*
X183156624Y-78159688D01*
X183224544Y-77995716D01*
X183323147Y-77848146D01*
X183448646Y-77722647D01*
X183596216Y-77624044D01*
X183760188Y-77556124D01*
X183909488Y-77526427D01*
X183934258Y-77521500D01*
X184111742Y-77521500D01*
X184136512Y-77526427D01*
G37*
G36*
X186676512Y-77526427D02*
G01*
X186825812Y-77556124D01*
X186989784Y-77624044D01*
X187137354Y-77722647D01*
X187262853Y-77848146D01*
X187361456Y-77995716D01*
X187429376Y-78159688D01*
X187464000Y-78333759D01*
X187464000Y-78511241D01*
X187429376Y-78685312D01*
X187361456Y-78849284D01*
X187262853Y-78996854D01*
X187137354Y-79122353D01*
X186989784Y-79220956D01*
X186825812Y-79288876D01*
X186676512Y-79318573D01*
X186651742Y-79323500D01*
X186474258Y-79323500D01*
X186449488Y-79318573D01*
X186300188Y-79288876D01*
X186136216Y-79220956D01*
X185988646Y-79122353D01*
X185863147Y-78996854D01*
X185764544Y-78849284D01*
X185696624Y-78685312D01*
X185662000Y-78511241D01*
X185662000Y-78333759D01*
X185696624Y-78159688D01*
X185764544Y-77995716D01*
X185863147Y-77848146D01*
X185988646Y-77722647D01*
X186136216Y-77624044D01*
X186300188Y-77556124D01*
X186449488Y-77526427D01*
X186474258Y-77521500D01*
X186651742Y-77521500D01*
X186676512Y-77526427D01*
G37*
G36*
X196738549Y-76021116D02*
G01*
X196849734Y-76043232D01*
X197059203Y-76129997D01*
X197247720Y-76255960D01*
X197408040Y-76416280D01*
X197534003Y-76604797D01*
X197620768Y-76814266D01*
X197665000Y-77036636D01*
X197665000Y-77263364D01*
X197620768Y-77485734D01*
X197534003Y-77695203D01*
X197408040Y-77883720D01*
X197247720Y-78044040D01*
X197059203Y-78170003D01*
X196849734Y-78256768D01*
X196738549Y-78278884D01*
X196627365Y-78301000D01*
X196400635Y-78301000D01*
X196289451Y-78278884D01*
X196178266Y-78256768D01*
X195968797Y-78170003D01*
X195780280Y-78044040D01*
X195619960Y-77883720D01*
X195493997Y-77695203D01*
X195407232Y-77485734D01*
X195363000Y-77263364D01*
X195363000Y-77036636D01*
X195407232Y-76814266D01*
X195493997Y-76604797D01*
X195619960Y-76416280D01*
X195780280Y-76255960D01*
X195968797Y-76129997D01*
X196178266Y-76043232D01*
X196289451Y-76021116D01*
X196400635Y-75999000D01*
X196627365Y-75999000D01*
X196738549Y-76021116D01*
G37*
G36*
X138738549Y-76021116D02*
G01*
X138849734Y-76043232D01*
X139059203Y-76129997D01*
X139247720Y-76255960D01*
X139408040Y-76416280D01*
X139534003Y-76604797D01*
X139620768Y-76814266D01*
X139665000Y-77036636D01*
X139665000Y-77263364D01*
X139620768Y-77485734D01*
X139534003Y-77695203D01*
X139408040Y-77883720D01*
X139247720Y-78044040D01*
X139059203Y-78170003D01*
X138849734Y-78256768D01*
X138738549Y-78278884D01*
X138627365Y-78301000D01*
X138400635Y-78301000D01*
X138289451Y-78278884D01*
X138178266Y-78256768D01*
X137968797Y-78170003D01*
X137780280Y-78044040D01*
X137619960Y-77883720D01*
X137493997Y-77695203D01*
X137407232Y-77485734D01*
X137363000Y-77263364D01*
X137363000Y-77036636D01*
X137407232Y-76814266D01*
X137493997Y-76604797D01*
X137619960Y-76416280D01*
X137780280Y-76255960D01*
X137968797Y-76129997D01*
X138178266Y-76043232D01*
X138289451Y-76021116D01*
X138400635Y-75999000D01*
X138627365Y-75999000D01*
X138738549Y-76021116D01*
G37*
G36*
X143496512Y-74986427D02*
G01*
X143645812Y-75016124D01*
X143809784Y-75084044D01*
X143957354Y-75182647D01*
X144082853Y-75308146D01*
X144181456Y-75455716D01*
X144249376Y-75619688D01*
X144284000Y-75793759D01*
X144284000Y-75971241D01*
X144249376Y-76145312D01*
X144181456Y-76309284D01*
X144082853Y-76456854D01*
X143957354Y-76582353D01*
X143809784Y-76680956D01*
X143645812Y-76748876D01*
X143496512Y-76778573D01*
X143471742Y-76783500D01*
X143294258Y-76783500D01*
X143269488Y-76778573D01*
X143120188Y-76748876D01*
X142956216Y-76680956D01*
X142808646Y-76582353D01*
X142683147Y-76456854D01*
X142584544Y-76309284D01*
X142516624Y-76145312D01*
X142482000Y-75971241D01*
X142482000Y-75793759D01*
X142516624Y-75619688D01*
X142584544Y-75455716D01*
X142683147Y-75308146D01*
X142808646Y-75182647D01*
X142956216Y-75084044D01*
X143120188Y-75016124D01*
X143269488Y-74986427D01*
X143294258Y-74981500D01*
X143471742Y-74981500D01*
X143496512Y-74986427D01*
G37*
G36*
X158736512Y-74986427D02*
G01*
X158885812Y-75016124D01*
X159049784Y-75084044D01*
X159197354Y-75182647D01*
X159322853Y-75308146D01*
X159421456Y-75455716D01*
X159489376Y-75619688D01*
X159524000Y-75793759D01*
X159524000Y-75971241D01*
X159489376Y-76145312D01*
X159421456Y-76309284D01*
X159322853Y-76456854D01*
X159197354Y-76582353D01*
X159049784Y-76680956D01*
X158885812Y-76748876D01*
X158736512Y-76778573D01*
X158711742Y-76783500D01*
X158534258Y-76783500D01*
X158509488Y-76778573D01*
X158360188Y-76748876D01*
X158196216Y-76680956D01*
X158048646Y-76582353D01*
X157923147Y-76456854D01*
X157824544Y-76309284D01*
X157756624Y-76145312D01*
X157722000Y-75971241D01*
X157722000Y-75793759D01*
X157756624Y-75619688D01*
X157824544Y-75455716D01*
X157923147Y-75308146D01*
X158048646Y-75182647D01*
X158196216Y-75084044D01*
X158360188Y-75016124D01*
X158509488Y-74986427D01*
X158534258Y-74981500D01*
X158711742Y-74981500D01*
X158736512Y-74986427D01*
G37*
G36*
X191756512Y-74986427D02*
G01*
X191905812Y-75016124D01*
X192069784Y-75084044D01*
X192217354Y-75182647D01*
X192342853Y-75308146D01*
X192441456Y-75455716D01*
X192509376Y-75619688D01*
X192544000Y-75793759D01*
X192544000Y-75971241D01*
X192509376Y-76145312D01*
X192441456Y-76309284D01*
X192342853Y-76456854D01*
X192217354Y-76582353D01*
X192069784Y-76680956D01*
X191905812Y-76748876D01*
X191756512Y-76778573D01*
X191731742Y-76783500D01*
X191554258Y-76783500D01*
X191529488Y-76778573D01*
X191380188Y-76748876D01*
X191216216Y-76680956D01*
X191068646Y-76582353D01*
X190943147Y-76456854D01*
X190844544Y-76309284D01*
X190776624Y-76145312D01*
X190742000Y-75971241D01*
X190742000Y-75793759D01*
X190776624Y-75619688D01*
X190844544Y-75455716D01*
X190943147Y-75308146D01*
X191068646Y-75182647D01*
X191216216Y-75084044D01*
X191380188Y-75016124D01*
X191529488Y-74986427D01*
X191554258Y-74981500D01*
X191731742Y-74981500D01*
X191756512Y-74986427D01*
G37*
G36*
X146036512Y-74986427D02*
G01*
X146185812Y-75016124D01*
X146349784Y-75084044D01*
X146497354Y-75182647D01*
X146622853Y-75308146D01*
X146721456Y-75455716D01*
X146789376Y-75619688D01*
X146824000Y-75793759D01*
X146824000Y-75971241D01*
X146789376Y-76145312D01*
X146721456Y-76309284D01*
X146622853Y-76456854D01*
X146497354Y-76582353D01*
X146349784Y-76680956D01*
X146185812Y-76748876D01*
X146036512Y-76778573D01*
X146011742Y-76783500D01*
X145834258Y-76783500D01*
X145809488Y-76778573D01*
X145660188Y-76748876D01*
X145496216Y-76680956D01*
X145348646Y-76582353D01*
X145223147Y-76456854D01*
X145124544Y-76309284D01*
X145056624Y-76145312D01*
X145022000Y-75971241D01*
X145022000Y-75793759D01*
X145056624Y-75619688D01*
X145124544Y-75455716D01*
X145223147Y-75308146D01*
X145348646Y-75182647D01*
X145496216Y-75084044D01*
X145660188Y-75016124D01*
X145809488Y-74986427D01*
X145834258Y-74981500D01*
X146011742Y-74981500D01*
X146036512Y-74986427D01*
G37*
G36*
X189216512Y-74986427D02*
G01*
X189365812Y-75016124D01*
X189529784Y-75084044D01*
X189677354Y-75182647D01*
X189802853Y-75308146D01*
X189901456Y-75455716D01*
X189969376Y-75619688D01*
X190004000Y-75793759D01*
X190004000Y-75971241D01*
X189969376Y-76145312D01*
X189901456Y-76309284D01*
X189802853Y-76456854D01*
X189677354Y-76582353D01*
X189529784Y-76680956D01*
X189365812Y-76748876D01*
X189216512Y-76778573D01*
X189191742Y-76783500D01*
X189014258Y-76783500D01*
X188989488Y-76778573D01*
X188840188Y-76748876D01*
X188676216Y-76680956D01*
X188528646Y-76582353D01*
X188403147Y-76456854D01*
X188304544Y-76309284D01*
X188236624Y-76145312D01*
X188202000Y-75971241D01*
X188202000Y-75793759D01*
X188236624Y-75619688D01*
X188304544Y-75455716D01*
X188403147Y-75308146D01*
X188528646Y-75182647D01*
X188676216Y-75084044D01*
X188840188Y-75016124D01*
X188989488Y-74986427D01*
X189014258Y-74981500D01*
X189191742Y-74981500D01*
X189216512Y-74986427D01*
G37*
G36*
X148576512Y-74986427D02*
G01*
X148725812Y-75016124D01*
X148889784Y-75084044D01*
X149037354Y-75182647D01*
X149162853Y-75308146D01*
X149261456Y-75455716D01*
X149329376Y-75619688D01*
X149364000Y-75793759D01*
X149364000Y-75971241D01*
X149329376Y-76145312D01*
X149261456Y-76309284D01*
X149162853Y-76456854D01*
X149037354Y-76582353D01*
X148889784Y-76680956D01*
X148725812Y-76748876D01*
X148576512Y-76778573D01*
X148551742Y-76783500D01*
X148374258Y-76783500D01*
X148349488Y-76778573D01*
X148200188Y-76748876D01*
X148036216Y-76680956D01*
X147888646Y-76582353D01*
X147763147Y-76456854D01*
X147664544Y-76309284D01*
X147596624Y-76145312D01*
X147562000Y-75971241D01*
X147562000Y-75793759D01*
X147596624Y-75619688D01*
X147664544Y-75455716D01*
X147763147Y-75308146D01*
X147888646Y-75182647D01*
X148036216Y-75084044D01*
X148200188Y-75016124D01*
X148349488Y-74986427D01*
X148374258Y-74981500D01*
X148551742Y-74981500D01*
X148576512Y-74986427D01*
G37*
G36*
X186676512Y-74986427D02*
G01*
X186825812Y-75016124D01*
X186989784Y-75084044D01*
X187137354Y-75182647D01*
X187262853Y-75308146D01*
X187361456Y-75455716D01*
X187429376Y-75619688D01*
X187464000Y-75793759D01*
X187464000Y-75971241D01*
X187429376Y-76145312D01*
X187361456Y-76309284D01*
X187262853Y-76456854D01*
X187137354Y-76582353D01*
X186989784Y-76680956D01*
X186825812Y-76748876D01*
X186676512Y-76778573D01*
X186651742Y-76783500D01*
X186474258Y-76783500D01*
X186449488Y-76778573D01*
X186300188Y-76748876D01*
X186136216Y-76680956D01*
X185988646Y-76582353D01*
X185863147Y-76456854D01*
X185764544Y-76309284D01*
X185696624Y-76145312D01*
X185662000Y-75971241D01*
X185662000Y-75793759D01*
X185696624Y-75619688D01*
X185764544Y-75455716D01*
X185863147Y-75308146D01*
X185988646Y-75182647D01*
X186136216Y-75084044D01*
X186300188Y-75016124D01*
X186449488Y-74986427D01*
X186474258Y-74981500D01*
X186651742Y-74981500D01*
X186676512Y-74986427D01*
G37*
G36*
X151116512Y-74986427D02*
G01*
X151265812Y-75016124D01*
X151429784Y-75084044D01*
X151577354Y-75182647D01*
X151702853Y-75308146D01*
X151801456Y-75455716D01*
X151869376Y-75619688D01*
X151904000Y-75793759D01*
X151904000Y-75971241D01*
X151869376Y-76145312D01*
X151801456Y-76309284D01*
X151702853Y-76456854D01*
X151577354Y-76582353D01*
X151429784Y-76680956D01*
X151265812Y-76748876D01*
X151116512Y-76778573D01*
X151091742Y-76783500D01*
X150914258Y-76783500D01*
X150889488Y-76778573D01*
X150740188Y-76748876D01*
X150576216Y-76680956D01*
X150428646Y-76582353D01*
X150303147Y-76456854D01*
X150204544Y-76309284D01*
X150136624Y-76145312D01*
X150102000Y-75971241D01*
X150102000Y-75793759D01*
X150136624Y-75619688D01*
X150204544Y-75455716D01*
X150303147Y-75308146D01*
X150428646Y-75182647D01*
X150576216Y-75084044D01*
X150740188Y-75016124D01*
X150889488Y-74986427D01*
X150914258Y-74981500D01*
X151091742Y-74981500D01*
X151116512Y-74986427D01*
G37*
G36*
X184136512Y-74986427D02*
G01*
X184285812Y-75016124D01*
X184449784Y-75084044D01*
X184597354Y-75182647D01*
X184722853Y-75308146D01*
X184821456Y-75455716D01*
X184889376Y-75619688D01*
X184924000Y-75793759D01*
X184924000Y-75971241D01*
X184889376Y-76145312D01*
X184821456Y-76309284D01*
X184722853Y-76456854D01*
X184597354Y-76582353D01*
X184449784Y-76680956D01*
X184285812Y-76748876D01*
X184136512Y-76778573D01*
X184111742Y-76783500D01*
X183934258Y-76783500D01*
X183909488Y-76778573D01*
X183760188Y-76748876D01*
X183596216Y-76680956D01*
X183448646Y-76582353D01*
X183323147Y-76456854D01*
X183224544Y-76309284D01*
X183156624Y-76145312D01*
X183122000Y-75971241D01*
X183122000Y-75793759D01*
X183156624Y-75619688D01*
X183224544Y-75455716D01*
X183323147Y-75308146D01*
X183448646Y-75182647D01*
X183596216Y-75084044D01*
X183760188Y-75016124D01*
X183909488Y-74986427D01*
X183934258Y-74981500D01*
X184111742Y-74981500D01*
X184136512Y-74986427D01*
G37*
G36*
X153656512Y-74986427D02*
G01*
X153805812Y-75016124D01*
X153969784Y-75084044D01*
X154117354Y-75182647D01*
X154242853Y-75308146D01*
X154341456Y-75455716D01*
X154409376Y-75619688D01*
X154444000Y-75793759D01*
X154444000Y-75971241D01*
X154409376Y-76145312D01*
X154341456Y-76309284D01*
X154242853Y-76456854D01*
X154117354Y-76582353D01*
X153969784Y-76680956D01*
X153805812Y-76748876D01*
X153656512Y-76778573D01*
X153631742Y-76783500D01*
X153454258Y-76783500D01*
X153429488Y-76778573D01*
X153280188Y-76748876D01*
X153116216Y-76680956D01*
X152968646Y-76582353D01*
X152843147Y-76456854D01*
X152744544Y-76309284D01*
X152676624Y-76145312D01*
X152642000Y-75971241D01*
X152642000Y-75793759D01*
X152676624Y-75619688D01*
X152744544Y-75455716D01*
X152843147Y-75308146D01*
X152968646Y-75182647D01*
X153116216Y-75084044D01*
X153280188Y-75016124D01*
X153429488Y-74986427D01*
X153454258Y-74981500D01*
X153631742Y-74981500D01*
X153656512Y-74986427D01*
G37*
G36*
X181596512Y-74986427D02*
G01*
X181745812Y-75016124D01*
X181909784Y-75084044D01*
X182057354Y-75182647D01*
X182182853Y-75308146D01*
X182281456Y-75455716D01*
X182349376Y-75619688D01*
X182384000Y-75793759D01*
X182384000Y-75971241D01*
X182349376Y-76145312D01*
X182281456Y-76309284D01*
X182182853Y-76456854D01*
X182057354Y-76582353D01*
X181909784Y-76680956D01*
X181745812Y-76748876D01*
X181596512Y-76778573D01*
X181571742Y-76783500D01*
X181394258Y-76783500D01*
X181369488Y-76778573D01*
X181220188Y-76748876D01*
X181056216Y-76680956D01*
X180908646Y-76582353D01*
X180783147Y-76456854D01*
X180684544Y-76309284D01*
X180616624Y-76145312D01*
X180582000Y-75971241D01*
X180582000Y-75793759D01*
X180616624Y-75619688D01*
X180684544Y-75455716D01*
X180783147Y-75308146D01*
X180908646Y-75182647D01*
X181056216Y-75084044D01*
X181220188Y-75016124D01*
X181369488Y-74986427D01*
X181394258Y-74981500D01*
X181571742Y-74981500D01*
X181596512Y-74986427D01*
G37*
G36*
X156196512Y-74986427D02*
G01*
X156345812Y-75016124D01*
X156509784Y-75084044D01*
X156657354Y-75182647D01*
X156782853Y-75308146D01*
X156881456Y-75455716D01*
X156949376Y-75619688D01*
X156984000Y-75793759D01*
X156984000Y-75971241D01*
X156949376Y-76145312D01*
X156881456Y-76309284D01*
X156782853Y-76456854D01*
X156657354Y-76582353D01*
X156509784Y-76680956D01*
X156345812Y-76748876D01*
X156196512Y-76778573D01*
X156171742Y-76783500D01*
X155994258Y-76783500D01*
X155969488Y-76778573D01*
X155820188Y-76748876D01*
X155656216Y-76680956D01*
X155508646Y-76582353D01*
X155383147Y-76456854D01*
X155284544Y-76309284D01*
X155216624Y-76145312D01*
X155182000Y-75971241D01*
X155182000Y-75793759D01*
X155216624Y-75619688D01*
X155284544Y-75455716D01*
X155383147Y-75308146D01*
X155508646Y-75182647D01*
X155656216Y-75084044D01*
X155820188Y-75016124D01*
X155969488Y-74986427D01*
X155994258Y-74981500D01*
X156171742Y-74981500D01*
X156196512Y-74986427D01*
G37*
G36*
X179056512Y-74986427D02*
G01*
X179205812Y-75016124D01*
X179369784Y-75084044D01*
X179517354Y-75182647D01*
X179642853Y-75308146D01*
X179741456Y-75455716D01*
X179809376Y-75619688D01*
X179844000Y-75793759D01*
X179844000Y-75971241D01*
X179809376Y-76145312D01*
X179741456Y-76309284D01*
X179642853Y-76456854D01*
X179517354Y-76582353D01*
X179369784Y-76680956D01*
X179205812Y-76748876D01*
X179056512Y-76778573D01*
X179031742Y-76783500D01*
X178854258Y-76783500D01*
X178829488Y-76778573D01*
X178680188Y-76748876D01*
X178516216Y-76680956D01*
X178368646Y-76582353D01*
X178243147Y-76456854D01*
X178144544Y-76309284D01*
X178076624Y-76145312D01*
X178042000Y-75971241D01*
X178042000Y-75793759D01*
X178076624Y-75619688D01*
X178144544Y-75455716D01*
X178243147Y-75308146D01*
X178368646Y-75182647D01*
X178516216Y-75084044D01*
X178680188Y-75016124D01*
X178829488Y-74986427D01*
X178854258Y-74981500D01*
X179031742Y-74981500D01*
X179056512Y-74986427D01*
G37*
G36*
X176516512Y-74986427D02*
G01*
X176665812Y-75016124D01*
X176829784Y-75084044D01*
X176977354Y-75182647D01*
X177102853Y-75308146D01*
X177201456Y-75455716D01*
X177269376Y-75619688D01*
X177304000Y-75793759D01*
X177304000Y-75971241D01*
X177269376Y-76145312D01*
X177201456Y-76309284D01*
X177102853Y-76456854D01*
X176977354Y-76582353D01*
X176829784Y-76680956D01*
X176665812Y-76748876D01*
X176516512Y-76778573D01*
X176491742Y-76783500D01*
X176314258Y-76783500D01*
X176289488Y-76778573D01*
X176140188Y-76748876D01*
X175976216Y-76680956D01*
X175828646Y-76582353D01*
X175703147Y-76456854D01*
X175604544Y-76309284D01*
X175536624Y-76145312D01*
X175502000Y-75971241D01*
X175502000Y-75793759D01*
X175536624Y-75619688D01*
X175604544Y-75455716D01*
X175703147Y-75308146D01*
X175828646Y-75182647D01*
X175976216Y-75084044D01*
X176140188Y-75016124D01*
X176289488Y-74986427D01*
X176314258Y-74981500D01*
X176491742Y-74981500D01*
X176516512Y-74986427D01*
G37*
G36*
X161276512Y-74986427D02*
G01*
X161425812Y-75016124D01*
X161589784Y-75084044D01*
X161737354Y-75182647D01*
X161862853Y-75308146D01*
X161961456Y-75455716D01*
X162029376Y-75619688D01*
X162064000Y-75793759D01*
X162064000Y-75971241D01*
X162029376Y-76145312D01*
X161961456Y-76309284D01*
X161862853Y-76456854D01*
X161737354Y-76582353D01*
X161589784Y-76680956D01*
X161425812Y-76748876D01*
X161276512Y-76778573D01*
X161251742Y-76783500D01*
X161074258Y-76783500D01*
X161049488Y-76778573D01*
X160900188Y-76748876D01*
X160736216Y-76680956D01*
X160588646Y-76582353D01*
X160463147Y-76456854D01*
X160364544Y-76309284D01*
X160296624Y-76145312D01*
X160262000Y-75971241D01*
X160262000Y-75793759D01*
X160296624Y-75619688D01*
X160364544Y-75455716D01*
X160463147Y-75308146D01*
X160588646Y-75182647D01*
X160736216Y-75084044D01*
X160900188Y-75016124D01*
X161049488Y-74986427D01*
X161074258Y-74981500D01*
X161251742Y-74981500D01*
X161276512Y-74986427D01*
G37*
G36*
X173976512Y-74986427D02*
G01*
X174125812Y-75016124D01*
X174289784Y-75084044D01*
X174437354Y-75182647D01*
X174562853Y-75308146D01*
X174661456Y-75455716D01*
X174729376Y-75619688D01*
X174764000Y-75793759D01*
X174764000Y-75971241D01*
X174729376Y-76145312D01*
X174661456Y-76309284D01*
X174562853Y-76456854D01*
X174437354Y-76582353D01*
X174289784Y-76680956D01*
X174125812Y-76748876D01*
X173976512Y-76778573D01*
X173951742Y-76783500D01*
X173774258Y-76783500D01*
X173749488Y-76778573D01*
X173600188Y-76748876D01*
X173436216Y-76680956D01*
X173288646Y-76582353D01*
X173163147Y-76456854D01*
X173064544Y-76309284D01*
X172996624Y-76145312D01*
X172962000Y-75971241D01*
X172962000Y-75793759D01*
X172996624Y-75619688D01*
X173064544Y-75455716D01*
X173163147Y-75308146D01*
X173288646Y-75182647D01*
X173436216Y-75084044D01*
X173600188Y-75016124D01*
X173749488Y-74986427D01*
X173774258Y-74981500D01*
X173951742Y-74981500D01*
X173976512Y-74986427D01*
G37*
G36*
X163816512Y-74986427D02*
G01*
X163965812Y-75016124D01*
X164129784Y-75084044D01*
X164277354Y-75182647D01*
X164402853Y-75308146D01*
X164501456Y-75455716D01*
X164569376Y-75619688D01*
X164604000Y-75793759D01*
X164604000Y-75971241D01*
X164569376Y-76145312D01*
X164501456Y-76309284D01*
X164402853Y-76456854D01*
X164277354Y-76582353D01*
X164129784Y-76680956D01*
X163965812Y-76748876D01*
X163816512Y-76778573D01*
X163791742Y-76783500D01*
X163614258Y-76783500D01*
X163589488Y-76778573D01*
X163440188Y-76748876D01*
X163276216Y-76680956D01*
X163128646Y-76582353D01*
X163003147Y-76456854D01*
X162904544Y-76309284D01*
X162836624Y-76145312D01*
X162802000Y-75971241D01*
X162802000Y-75793759D01*
X162836624Y-75619688D01*
X162904544Y-75455716D01*
X163003147Y-75308146D01*
X163128646Y-75182647D01*
X163276216Y-75084044D01*
X163440188Y-75016124D01*
X163589488Y-74986427D01*
X163614258Y-74981500D01*
X163791742Y-74981500D01*
X163816512Y-74986427D01*
G37*
G36*
X171436512Y-74986427D02*
G01*
X171585812Y-75016124D01*
X171749784Y-75084044D01*
X171897354Y-75182647D01*
X172022853Y-75308146D01*
X172121456Y-75455716D01*
X172189376Y-75619688D01*
X172224000Y-75793759D01*
X172224000Y-75971241D01*
X172189376Y-76145312D01*
X172121456Y-76309284D01*
X172022853Y-76456854D01*
X171897354Y-76582353D01*
X171749784Y-76680956D01*
X171585812Y-76748876D01*
X171436512Y-76778573D01*
X171411742Y-76783500D01*
X171234258Y-76783500D01*
X171209488Y-76778573D01*
X171060188Y-76748876D01*
X170896216Y-76680956D01*
X170748646Y-76582353D01*
X170623147Y-76456854D01*
X170524544Y-76309284D01*
X170456624Y-76145312D01*
X170422000Y-75971241D01*
X170422000Y-75793759D01*
X170456624Y-75619688D01*
X170524544Y-75455716D01*
X170623147Y-75308146D01*
X170748646Y-75182647D01*
X170896216Y-75084044D01*
X171060188Y-75016124D01*
X171209488Y-74986427D01*
X171234258Y-74981500D01*
X171411742Y-74981500D01*
X171436512Y-74986427D01*
G37*
G36*
X166356512Y-74986427D02*
G01*
X166505812Y-75016124D01*
X166669784Y-75084044D01*
X166817354Y-75182647D01*
X166942853Y-75308146D01*
X167041456Y-75455716D01*
X167109376Y-75619688D01*
X167144000Y-75793759D01*
X167144000Y-75971241D01*
X167109376Y-76145312D01*
X167041456Y-76309284D01*
X166942853Y-76456854D01*
X166817354Y-76582353D01*
X166669784Y-76680956D01*
X166505812Y-76748876D01*
X166356512Y-76778573D01*
X166331742Y-76783500D01*
X166154258Y-76783500D01*
X166129488Y-76778573D01*
X165980188Y-76748876D01*
X165816216Y-76680956D01*
X165668646Y-76582353D01*
X165543147Y-76456854D01*
X165444544Y-76309284D01*
X165376624Y-76145312D01*
X165342000Y-75971241D01*
X165342000Y-75793759D01*
X165376624Y-75619688D01*
X165444544Y-75455716D01*
X165543147Y-75308146D01*
X165668646Y-75182647D01*
X165816216Y-75084044D01*
X165980188Y-75016124D01*
X166129488Y-74986427D01*
X166154258Y-74981500D01*
X166331742Y-74981500D01*
X166356512Y-74986427D01*
G37*
G36*
X168896512Y-74986427D02*
G01*
X169045812Y-75016124D01*
X169209784Y-75084044D01*
X169357354Y-75182647D01*
X169482853Y-75308146D01*
X169581456Y-75455716D01*
X169649376Y-75619688D01*
X169684000Y-75793759D01*
X169684000Y-75971241D01*
X169649376Y-76145312D01*
X169581456Y-76309284D01*
X169482853Y-76456854D01*
X169357354Y-76582353D01*
X169209784Y-76680956D01*
X169045812Y-76748876D01*
X168896512Y-76778573D01*
X168871742Y-76783500D01*
X168694258Y-76783500D01*
X168669488Y-76778573D01*
X168520188Y-76748876D01*
X168356216Y-76680956D01*
X168208646Y-76582353D01*
X168083147Y-76456854D01*
X167984544Y-76309284D01*
X167916624Y-76145312D01*
X167882000Y-75971241D01*
X167882000Y-75793759D01*
X167916624Y-75619688D01*
X167984544Y-75455716D01*
X168083147Y-75308146D01*
X168208646Y-75182647D01*
X168356216Y-75084044D01*
X168520188Y-75016124D01*
X168669488Y-74986427D01*
X168694258Y-74981500D01*
X168871742Y-74981500D01*
X168896512Y-74986427D01*
G37*
G36*
X187394170Y-68623803D02*
G01*
X187405875Y-68627354D01*
X187416665Y-68633121D01*
X187430688Y-68644630D01*
X187439704Y-68653645D01*
X187460078Y-68667259D01*
X187482717Y-68676635D01*
X187506751Y-68681415D01*
X187531255Y-68681415D01*
X187555288Y-68676634D01*
X187577926Y-68667256D01*
X187598301Y-68653642D01*
X187607317Y-68644626D01*
X187621335Y-68633121D01*
X187632125Y-68627354D01*
X187643830Y-68623803D01*
X187662138Y-68622000D01*
X188025862Y-68622000D01*
X188044170Y-68623803D01*
X188055875Y-68627354D01*
X188066665Y-68633121D01*
X188080688Y-68644630D01*
X188089704Y-68653645D01*
X188110078Y-68667259D01*
X188132717Y-68676635D01*
X188156751Y-68681415D01*
X188181255Y-68681415D01*
X188205288Y-68676634D01*
X188227926Y-68667256D01*
X188248301Y-68653642D01*
X188257317Y-68644626D01*
X188271335Y-68633121D01*
X188282125Y-68627354D01*
X188293830Y-68623803D01*
X188312138Y-68622000D01*
X188675862Y-68622000D01*
X188694170Y-68623803D01*
X188705875Y-68627354D01*
X188716665Y-68633121D01*
X188730688Y-68644630D01*
X188739704Y-68653645D01*
X188760078Y-68667259D01*
X188782717Y-68676635D01*
X188806751Y-68681415D01*
X188831255Y-68681415D01*
X188855288Y-68676634D01*
X188877926Y-68667256D01*
X188898301Y-68653642D01*
X188907317Y-68644626D01*
X188921335Y-68633121D01*
X188932125Y-68627354D01*
X188943830Y-68623803D01*
X188962138Y-68622000D01*
X189325862Y-68622000D01*
X189344170Y-68623803D01*
X189355875Y-68627354D01*
X189366665Y-68633121D01*
X189380688Y-68644630D01*
X189389704Y-68653645D01*
X189410078Y-68667259D01*
X189432717Y-68676635D01*
X189456751Y-68681415D01*
X189481255Y-68681415D01*
X189505288Y-68676634D01*
X189527926Y-68667256D01*
X189548301Y-68653642D01*
X189557317Y-68644626D01*
X189571335Y-68633121D01*
X189582125Y-68627354D01*
X189593830Y-68623803D01*
X189612138Y-68622000D01*
X189975862Y-68622000D01*
X189994170Y-68623803D01*
X190005875Y-68627354D01*
X190016665Y-68633121D01*
X190030688Y-68644630D01*
X190039704Y-68653645D01*
X190060078Y-68667259D01*
X190082717Y-68676635D01*
X190106751Y-68681415D01*
X190131255Y-68681415D01*
X190155288Y-68676634D01*
X190177926Y-68667256D01*
X190198301Y-68653642D01*
X190207317Y-68644626D01*
X190221335Y-68633121D01*
X190232125Y-68627354D01*
X190243830Y-68623803D01*
X190262138Y-68622000D01*
X190625862Y-68622000D01*
X190644170Y-68623803D01*
X190655875Y-68627354D01*
X190666665Y-68633121D01*
X190680688Y-68644630D01*
X190689704Y-68653645D01*
X190710078Y-68667259D01*
X190732717Y-68676635D01*
X190756751Y-68681415D01*
X190781255Y-68681415D01*
X190805288Y-68676634D01*
X190827926Y-68667256D01*
X190848301Y-68653642D01*
X190857317Y-68644626D01*
X190871335Y-68633121D01*
X190882125Y-68627354D01*
X190893830Y-68623803D01*
X190912138Y-68622000D01*
X191275862Y-68622000D01*
X191294170Y-68623803D01*
X191305875Y-68627354D01*
X191316665Y-68633121D01*
X191330688Y-68644630D01*
X191339704Y-68653645D01*
X191360078Y-68667259D01*
X191382717Y-68676635D01*
X191406751Y-68681415D01*
X191431255Y-68681415D01*
X191455288Y-68676634D01*
X191477926Y-68667256D01*
X191498301Y-68653642D01*
X191507317Y-68644626D01*
X191521335Y-68633121D01*
X191532125Y-68627354D01*
X191543830Y-68623803D01*
X191562138Y-68622000D01*
X191925862Y-68622000D01*
X191944170Y-68623803D01*
X191955875Y-68627354D01*
X191966665Y-68633121D01*
X191980688Y-68644630D01*
X191989704Y-68653645D01*
X192010078Y-68667259D01*
X192032717Y-68676635D01*
X192056751Y-68681415D01*
X192081255Y-68681415D01*
X192105288Y-68676634D01*
X192127926Y-68667256D01*
X192148301Y-68653642D01*
X192157317Y-68644626D01*
X192171335Y-68633121D01*
X192182125Y-68627354D01*
X192193830Y-68623803D01*
X192212138Y-68622000D01*
X192575862Y-68622000D01*
X192594170Y-68623803D01*
X192605875Y-68627354D01*
X192616665Y-68633121D01*
X192630688Y-68644630D01*
X192639704Y-68653645D01*
X192660078Y-68667259D01*
X192682717Y-68676635D01*
X192706751Y-68681415D01*
X192731255Y-68681415D01*
X192755288Y-68676634D01*
X192777926Y-68667256D01*
X192798301Y-68653642D01*
X192807317Y-68644626D01*
X192821335Y-68633121D01*
X192832125Y-68627354D01*
X192843830Y-68623803D01*
X192862138Y-68622000D01*
X193225862Y-68622000D01*
X193244170Y-68623803D01*
X193255875Y-68627354D01*
X193266665Y-68633121D01*
X193276119Y-68640881D01*
X193283879Y-68650335D01*
X193289646Y-68661125D01*
X193293197Y-68672830D01*
X193295000Y-68691138D01*
X193295000Y-70129862D01*
X193293197Y-70148170D01*
X193289646Y-70159875D01*
X193283879Y-70170665D01*
X193276119Y-70180119D01*
X193266665Y-70187879D01*
X193255875Y-70193646D01*
X193244170Y-70197197D01*
X193225862Y-70199000D01*
X192862138Y-70199000D01*
X192843830Y-70197197D01*
X192832125Y-70193646D01*
X192821335Y-70187879D01*
X192807312Y-70176370D01*
X192798296Y-70167355D01*
X192777922Y-70153741D01*
X192755283Y-70144365D01*
X192731249Y-70139585D01*
X192706745Y-70139585D01*
X192682712Y-70144366D01*
X192660074Y-70153744D01*
X192639699Y-70167358D01*
X192630683Y-70176374D01*
X192616665Y-70187879D01*
X192605875Y-70193646D01*
X192594170Y-70197197D01*
X192575862Y-70199000D01*
X192212138Y-70199000D01*
X192193830Y-70197197D01*
X192182125Y-70193646D01*
X192171335Y-70187879D01*
X192157312Y-70176370D01*
X192148296Y-70167355D01*
X192127922Y-70153741D01*
X192105283Y-70144365D01*
X192081249Y-70139585D01*
X192056745Y-70139585D01*
X192032712Y-70144366D01*
X192010074Y-70153744D01*
X191989699Y-70167358D01*
X191980683Y-70176374D01*
X191966665Y-70187879D01*
X191955875Y-70193646D01*
X191944170Y-70197197D01*
X191925862Y-70199000D01*
X191562138Y-70199000D01*
X191543830Y-70197197D01*
X191532125Y-70193646D01*
X191521335Y-70187879D01*
X191507312Y-70176370D01*
X191498296Y-70167355D01*
X191477922Y-70153741D01*
X191455283Y-70144365D01*
X191431249Y-70139585D01*
X191406745Y-70139585D01*
X191382712Y-70144366D01*
X191360074Y-70153744D01*
X191339699Y-70167358D01*
X191330683Y-70176374D01*
X191316665Y-70187879D01*
X191305875Y-70193646D01*
X191294170Y-70197197D01*
X191275862Y-70199000D01*
X190912138Y-70199000D01*
X190893830Y-70197197D01*
X190882125Y-70193646D01*
X190871335Y-70187879D01*
X190857312Y-70176370D01*
X190848296Y-70167355D01*
X190827922Y-70153741D01*
X190805283Y-70144365D01*
X190781249Y-70139585D01*
X190756745Y-70139585D01*
X190732712Y-70144366D01*
X190710074Y-70153744D01*
X190689699Y-70167358D01*
X190680683Y-70176374D01*
X190666665Y-70187879D01*
X190655875Y-70193646D01*
X190644170Y-70197197D01*
X190625862Y-70199000D01*
X190262138Y-70199000D01*
X190243830Y-70197197D01*
X190232125Y-70193646D01*
X190221335Y-70187879D01*
X190207312Y-70176370D01*
X190198296Y-70167355D01*
X190177922Y-70153741D01*
X190155283Y-70144365D01*
X190131249Y-70139585D01*
X190106745Y-70139585D01*
X190082712Y-70144366D01*
X190060074Y-70153744D01*
X190039699Y-70167358D01*
X190030683Y-70176374D01*
X190016665Y-70187879D01*
X190005875Y-70193646D01*
X189994170Y-70197197D01*
X189975862Y-70199000D01*
X189612138Y-70199000D01*
X189593830Y-70197197D01*
X189582125Y-70193646D01*
X189571335Y-70187879D01*
X189557312Y-70176370D01*
X189548296Y-70167355D01*
X189527922Y-70153741D01*
X189505283Y-70144365D01*
X189481249Y-70139585D01*
X189456745Y-70139585D01*
X189432712Y-70144366D01*
X189410074Y-70153744D01*
X189389699Y-70167358D01*
X189380683Y-70176374D01*
X189366665Y-70187879D01*
X189355875Y-70193646D01*
X189344170Y-70197197D01*
X189325862Y-70199000D01*
X188962138Y-70199000D01*
X188943830Y-70197197D01*
X188932125Y-70193646D01*
X188921335Y-70187879D01*
X188907312Y-70176370D01*
X188898296Y-70167355D01*
X188877922Y-70153741D01*
X188855283Y-70144365D01*
X188831249Y-70139585D01*
X188806745Y-70139585D01*
X188782712Y-70144366D01*
X188760074Y-70153744D01*
X188739699Y-70167358D01*
X188730683Y-70176374D01*
X188716665Y-70187879D01*
X188705875Y-70193646D01*
X188694170Y-70197197D01*
X188675862Y-70199000D01*
X188312138Y-70199000D01*
X188293830Y-70197197D01*
X188282125Y-70193646D01*
X188271335Y-70187879D01*
X188257312Y-70176370D01*
X188248296Y-70167355D01*
X188227922Y-70153741D01*
X188205283Y-70144365D01*
X188181249Y-70139585D01*
X188156745Y-70139585D01*
X188132712Y-70144366D01*
X188110074Y-70153744D01*
X188089699Y-70167358D01*
X188080683Y-70176374D01*
X188066665Y-70187879D01*
X188055875Y-70193646D01*
X188044170Y-70197197D01*
X188025862Y-70199000D01*
X187662138Y-70199000D01*
X187643830Y-70197197D01*
X187632125Y-70193646D01*
X187621335Y-70187879D01*
X187607312Y-70176370D01*
X187598296Y-70167355D01*
X187577922Y-70153741D01*
X187555283Y-70144365D01*
X187531249Y-70139585D01*
X187506745Y-70139585D01*
X187482712Y-70144366D01*
X187460074Y-70153744D01*
X187439699Y-70167358D01*
X187430683Y-70176374D01*
X187416665Y-70187879D01*
X187405875Y-70193646D01*
X187394170Y-70197197D01*
X187375862Y-70199000D01*
X187012138Y-70199000D01*
X186993830Y-70197197D01*
X186982125Y-70193646D01*
X186971335Y-70187879D01*
X186961881Y-70180119D01*
X186954121Y-70170665D01*
X186948354Y-70159875D01*
X186944803Y-70148170D01*
X186943000Y-70129862D01*
X186943000Y-68691138D01*
X186944803Y-68672830D01*
X186948354Y-68661125D01*
X186954121Y-68650335D01*
X186961881Y-68640881D01*
X186971335Y-68633121D01*
X186982125Y-68627354D01*
X186993830Y-68623803D01*
X187012138Y-68622000D01*
X187375862Y-68622000D01*
X187394170Y-68623803D01*
G37*
G36*
X169166627Y-67821037D02*
G01*
X169336466Y-67872557D01*
X169492991Y-67956222D01*
X169528729Y-67985552D01*
X169630186Y-68068814D01*
X169713448Y-68170271D01*
X169742778Y-68206009D01*
X169826443Y-68362534D01*
X169877963Y-68532374D01*
X169877963Y-68532376D01*
X169888874Y-68643151D01*
X169891000Y-68664743D01*
X169891000Y-69003258D01*
X169877963Y-69135627D01*
X169826443Y-69305466D01*
X169742778Y-69461991D01*
X169713448Y-69497729D01*
X169630186Y-69599186D01*
X169492989Y-69711779D01*
X169336467Y-69795442D01*
X169336465Y-69795443D01*
X169166626Y-69846963D01*
X168990000Y-69864359D01*
X168813373Y-69846963D01*
X168643534Y-69795443D01*
X168487009Y-69711778D01*
X168444750Y-69677097D01*
X168349814Y-69599186D01*
X168237221Y-69461989D01*
X168153558Y-69305467D01*
X168153557Y-69305465D01*
X168102037Y-69135626D01*
X168089000Y-69003257D01*
X168089000Y-68664742D01*
X168102037Y-68532373D01*
X168153557Y-68362534D01*
X168237222Y-68206009D01*
X168349815Y-68068815D01*
X168487010Y-67956222D01*
X168643535Y-67872557D01*
X168813374Y-67821037D01*
X168990000Y-67803641D01*
X169166627Y-67821037D01*
G37*
G36*
X161666627Y-67821037D02*
G01*
X161836466Y-67872557D01*
X161992991Y-67956222D01*
X162028729Y-67985552D01*
X162130186Y-68068814D01*
X162213448Y-68170271D01*
X162242778Y-68206009D01*
X162326443Y-68362534D01*
X162377963Y-68532374D01*
X162377963Y-68532376D01*
X162388874Y-68643151D01*
X162391000Y-68664743D01*
X162391000Y-69003258D01*
X162377963Y-69135627D01*
X162326443Y-69305466D01*
X162242778Y-69461991D01*
X162213448Y-69497729D01*
X162130186Y-69599186D01*
X161992989Y-69711779D01*
X161836467Y-69795442D01*
X161836465Y-69795443D01*
X161666626Y-69846963D01*
X161490000Y-69864359D01*
X161313373Y-69846963D01*
X161143534Y-69795443D01*
X160987009Y-69711778D01*
X160944750Y-69677097D01*
X160849814Y-69599186D01*
X160737221Y-69461989D01*
X160653558Y-69305467D01*
X160653557Y-69305465D01*
X160602037Y-69135626D01*
X160589000Y-69003257D01*
X160589000Y-68664742D01*
X160602037Y-68532373D01*
X160653557Y-68362534D01*
X160737222Y-68206009D01*
X160849815Y-68068815D01*
X160987010Y-67956222D01*
X161143535Y-67872557D01*
X161313374Y-67821037D01*
X161490000Y-67803641D01*
X161666627Y-67821037D01*
G37*
G36*
X164166627Y-67821037D02*
G01*
X164336466Y-67872557D01*
X164492991Y-67956222D01*
X164528729Y-67985552D01*
X164630186Y-68068814D01*
X164713448Y-68170271D01*
X164742778Y-68206009D01*
X164826443Y-68362534D01*
X164877963Y-68532374D01*
X164877963Y-68532376D01*
X164888874Y-68643151D01*
X164891000Y-68664743D01*
X164891000Y-69003258D01*
X164877963Y-69135627D01*
X164826443Y-69305466D01*
X164742778Y-69461991D01*
X164713448Y-69497729D01*
X164630186Y-69599186D01*
X164492989Y-69711779D01*
X164336467Y-69795442D01*
X164336465Y-69795443D01*
X164166626Y-69846963D01*
X163990000Y-69864359D01*
X163813373Y-69846963D01*
X163643534Y-69795443D01*
X163487009Y-69711778D01*
X163444750Y-69677097D01*
X163349814Y-69599186D01*
X163237221Y-69461989D01*
X163153558Y-69305467D01*
X163153557Y-69305465D01*
X163102037Y-69135626D01*
X163089000Y-69003257D01*
X163089000Y-68664742D01*
X163102037Y-68532373D01*
X163153557Y-68362534D01*
X163237222Y-68206009D01*
X163349815Y-68068815D01*
X163487010Y-67956222D01*
X163643535Y-67872557D01*
X163813374Y-67821037D01*
X163990000Y-67803641D01*
X164166627Y-67821037D01*
G37*
G36*
X171666627Y-67821037D02*
G01*
X171836466Y-67872557D01*
X171992991Y-67956222D01*
X172028729Y-67985552D01*
X172130186Y-68068814D01*
X172213448Y-68170271D01*
X172242778Y-68206009D01*
X172326443Y-68362534D01*
X172377963Y-68532374D01*
X172377963Y-68532376D01*
X172388874Y-68643151D01*
X172391000Y-68664743D01*
X172391000Y-69003258D01*
X172377963Y-69135627D01*
X172326443Y-69305466D01*
X172242778Y-69461991D01*
X172213448Y-69497729D01*
X172130186Y-69599186D01*
X171992989Y-69711779D01*
X171836467Y-69795442D01*
X171836465Y-69795443D01*
X171666626Y-69846963D01*
X171490000Y-69864359D01*
X171313373Y-69846963D01*
X171143534Y-69795443D01*
X170987009Y-69711778D01*
X170944750Y-69677097D01*
X170849814Y-69599186D01*
X170737221Y-69461989D01*
X170653558Y-69305467D01*
X170653557Y-69305465D01*
X170602037Y-69135626D01*
X170589000Y-69003257D01*
X170589000Y-68664742D01*
X170602037Y-68532373D01*
X170653557Y-68362534D01*
X170737222Y-68206009D01*
X170849815Y-68068815D01*
X170987010Y-67956222D01*
X171143535Y-67872557D01*
X171313374Y-67821037D01*
X171490000Y-67803641D01*
X171666627Y-67821037D01*
G37*
G36*
X166666627Y-67821037D02*
G01*
X166836466Y-67872557D01*
X166992991Y-67956222D01*
X167028729Y-67985552D01*
X167130186Y-68068814D01*
X167213448Y-68170271D01*
X167242778Y-68206009D01*
X167326443Y-68362534D01*
X167377963Y-68532374D01*
X167377963Y-68532376D01*
X167388874Y-68643151D01*
X167391000Y-68664743D01*
X167391000Y-69003258D01*
X167377963Y-69135627D01*
X167326443Y-69305466D01*
X167242778Y-69461991D01*
X167213448Y-69497729D01*
X167130186Y-69599186D01*
X166992989Y-69711779D01*
X166836467Y-69795442D01*
X166836465Y-69795443D01*
X166666626Y-69846963D01*
X166490000Y-69864359D01*
X166313373Y-69846963D01*
X166143534Y-69795443D01*
X165987009Y-69711778D01*
X165944750Y-69677097D01*
X165849814Y-69599186D01*
X165737221Y-69461989D01*
X165653558Y-69305467D01*
X165653557Y-69305465D01*
X165602037Y-69135626D01*
X165589000Y-69003257D01*
X165589000Y-68664742D01*
X165602037Y-68532373D01*
X165653557Y-68362534D01*
X165737222Y-68206009D01*
X165849815Y-68068815D01*
X165987010Y-67956222D01*
X166143535Y-67872557D01*
X166313374Y-67821037D01*
X166490000Y-67803641D01*
X166666627Y-67821037D01*
G37*
G36*
X174748600Y-67811989D02*
G01*
X174781652Y-67822015D01*
X174812103Y-67838292D01*
X174838799Y-67860201D01*
X174860708Y-67886897D01*
X174876985Y-67917348D01*
X174887011Y-67950400D01*
X174891000Y-67990903D01*
X174891000Y-69677097D01*
X174887011Y-69717600D01*
X174876985Y-69750652D01*
X174860708Y-69781103D01*
X174838799Y-69807799D01*
X174812103Y-69829708D01*
X174781652Y-69845985D01*
X174748600Y-69856011D01*
X174708097Y-69860000D01*
X173271903Y-69860000D01*
X173231400Y-69856011D01*
X173198348Y-69845985D01*
X173167897Y-69829708D01*
X173141201Y-69807799D01*
X173119292Y-69781103D01*
X173103015Y-69750652D01*
X173092989Y-69717600D01*
X173089000Y-69677097D01*
X173089000Y-67990903D01*
X173092989Y-67950400D01*
X173103015Y-67917348D01*
X173119292Y-67886897D01*
X173141201Y-67860201D01*
X173167897Y-67838292D01*
X173198348Y-67822015D01*
X173231400Y-67811989D01*
X173271903Y-67808000D01*
X174708097Y-67808000D01*
X174748600Y-67811989D01*
G37*
G36*
X114306442Y-65613518D02*
G01*
X114372627Y-65620037D01*
X114542466Y-65671557D01*
X114698991Y-65755222D01*
X114734729Y-65784552D01*
X114836186Y-65867814D01*
X114919448Y-65969271D01*
X114948778Y-66005009D01*
X115032443Y-66161534D01*
X115083963Y-66331373D01*
X115101359Y-66508000D01*
X115083963Y-66684627D01*
X115032443Y-66854466D01*
X114948778Y-67010991D01*
X114919448Y-67046729D01*
X114836186Y-67148186D01*
X114734729Y-67231448D01*
X114698991Y-67260778D01*
X114542466Y-67344443D01*
X114372627Y-67395963D01*
X114306442Y-67402482D01*
X114240260Y-67409000D01*
X113851740Y-67409000D01*
X113785558Y-67402482D01*
X113719373Y-67395963D01*
X113549534Y-67344443D01*
X113393009Y-67260778D01*
X113357271Y-67231448D01*
X113255814Y-67148186D01*
X113172552Y-67046729D01*
X113143222Y-67010991D01*
X113059557Y-66854466D01*
X113008037Y-66684627D01*
X112990641Y-66508000D01*
X113008037Y-66331373D01*
X113059557Y-66161534D01*
X113143222Y-66005009D01*
X113172552Y-65969271D01*
X113255814Y-65867814D01*
X113357271Y-65784552D01*
X113393009Y-65755222D01*
X113549534Y-65671557D01*
X113719373Y-65620037D01*
X113785558Y-65613518D01*
X113851740Y-65607000D01*
X114240260Y-65607000D01*
X114306442Y-65613518D01*
G37*
G36*
X120910442Y-65613518D02*
G01*
X120976627Y-65620037D01*
X121146466Y-65671557D01*
X121302991Y-65755222D01*
X121338729Y-65784552D01*
X121440186Y-65867814D01*
X121523448Y-65969271D01*
X121552778Y-66005009D01*
X121636443Y-66161534D01*
X121687963Y-66331373D01*
X121705359Y-66508000D01*
X121687963Y-66684627D01*
X121636443Y-66854466D01*
X121552778Y-67010991D01*
X121523448Y-67046729D01*
X121440186Y-67148186D01*
X121338729Y-67231448D01*
X121302991Y-67260778D01*
X121146466Y-67344443D01*
X120976627Y-67395963D01*
X120910442Y-67402482D01*
X120844260Y-67409000D01*
X120455740Y-67409000D01*
X120389558Y-67402482D01*
X120323373Y-67395963D01*
X120153534Y-67344443D01*
X119997009Y-67260778D01*
X119961271Y-67231448D01*
X119859814Y-67148186D01*
X119776552Y-67046729D01*
X119747222Y-67010991D01*
X119663557Y-66854466D01*
X119612037Y-66684627D01*
X119594641Y-66508000D01*
X119612037Y-66331373D01*
X119663557Y-66161534D01*
X119747222Y-66005009D01*
X119776552Y-65969271D01*
X119859814Y-65867814D01*
X119961271Y-65784552D01*
X119997009Y-65755222D01*
X120153534Y-65671557D01*
X120323373Y-65620037D01*
X120389558Y-65613518D01*
X120455740Y-65607000D01*
X120844260Y-65607000D01*
X120910442Y-65613518D01*
G37*
G36*
X185996562Y-63086181D02*
G01*
X186031481Y-63096774D01*
X186063663Y-63113976D01*
X186091873Y-63137127D01*
X186115024Y-63165337D01*
X186132226Y-63197519D01*
X186142819Y-63232438D01*
X186147000Y-63274895D01*
X186147000Y-64741105D01*
X186142819Y-64783562D01*
X186132226Y-64818481D01*
X186115024Y-64850663D01*
X186091873Y-64878873D01*
X186063663Y-64902024D01*
X186031481Y-64919226D01*
X185996562Y-64929819D01*
X185954105Y-64934000D01*
X184812895Y-64934000D01*
X184770438Y-64929819D01*
X184735519Y-64919226D01*
X184703337Y-64902024D01*
X184675127Y-64878873D01*
X184651976Y-64850663D01*
X184634774Y-64818481D01*
X184624181Y-64783562D01*
X184620000Y-64741105D01*
X184620000Y-63274895D01*
X184624181Y-63232438D01*
X184634774Y-63197519D01*
X184651976Y-63165337D01*
X184675127Y-63137127D01*
X184703337Y-63113976D01*
X184735519Y-63096774D01*
X184770438Y-63086181D01*
X184812895Y-63082000D01*
X185954105Y-63082000D01*
X185996562Y-63086181D01*
G37*
G36*
X183021562Y-63086181D02*
G01*
X183056481Y-63096774D01*
X183088663Y-63113976D01*
X183116873Y-63137127D01*
X183140024Y-63165337D01*
X183157226Y-63197519D01*
X183167819Y-63232438D01*
X183172000Y-63274895D01*
X183172000Y-64741105D01*
X183167819Y-64783562D01*
X183157226Y-64818481D01*
X183140024Y-64850663D01*
X183116873Y-64878873D01*
X183088663Y-64902024D01*
X183056481Y-64919226D01*
X183021562Y-64929819D01*
X182979105Y-64934000D01*
X181837895Y-64934000D01*
X181795438Y-64929819D01*
X181760519Y-64919226D01*
X181728337Y-64902024D01*
X181700127Y-64878873D01*
X181676976Y-64850663D01*
X181659774Y-64818481D01*
X181649181Y-64783562D01*
X181645000Y-64741105D01*
X181645000Y-63274895D01*
X181649181Y-63232438D01*
X181659774Y-63197519D01*
X181676976Y-63165337D01*
X181700127Y-63137127D01*
X181728337Y-63113976D01*
X181760519Y-63096774D01*
X181795438Y-63086181D01*
X181837895Y-63082000D01*
X182979105Y-63082000D01*
X183021562Y-63086181D01*
G37*
G36*
X114954600Y-63110989D02*
G01*
X114987652Y-63121015D01*
X115018103Y-63137292D01*
X115044799Y-63159201D01*
X115066708Y-63185897D01*
X115082985Y-63216348D01*
X115093011Y-63249400D01*
X115097000Y-63289903D01*
X115097000Y-64726097D01*
X115093011Y-64766600D01*
X115082985Y-64799652D01*
X115066708Y-64830103D01*
X115044799Y-64856799D01*
X115018103Y-64878708D01*
X114987652Y-64894985D01*
X114954600Y-64905011D01*
X114914097Y-64909000D01*
X113177903Y-64909000D01*
X113137400Y-64905011D01*
X113104348Y-64894985D01*
X113073897Y-64878708D01*
X113047201Y-64856799D01*
X113025292Y-64830103D01*
X113009015Y-64799652D01*
X112998989Y-64766600D01*
X112995000Y-64726097D01*
X112995000Y-63289903D01*
X112998989Y-63249400D01*
X113009015Y-63216348D01*
X113025292Y-63185897D01*
X113047201Y-63159201D01*
X113073897Y-63137292D01*
X113104348Y-63121015D01*
X113137400Y-63110989D01*
X113177903Y-63107000D01*
X114914097Y-63107000D01*
X114954600Y-63110989D01*
G37*
G36*
X121558600Y-63110989D02*
G01*
X121591652Y-63121015D01*
X121622103Y-63137292D01*
X121648799Y-63159201D01*
X121670708Y-63185897D01*
X121686985Y-63216348D01*
X121697011Y-63249400D01*
X121701000Y-63289903D01*
X121701000Y-64726097D01*
X121697011Y-64766600D01*
X121686985Y-64799652D01*
X121670708Y-64830103D01*
X121648799Y-64856799D01*
X121622103Y-64878708D01*
X121591652Y-64894985D01*
X121558600Y-64905011D01*
X121518097Y-64909000D01*
X119781903Y-64909000D01*
X119741400Y-64905011D01*
X119708348Y-64894985D01*
X119677897Y-64878708D01*
X119651201Y-64856799D01*
X119629292Y-64830103D01*
X119613015Y-64799652D01*
X119602989Y-64766600D01*
X119599000Y-64726097D01*
X119599000Y-63289903D01*
X119602989Y-63249400D01*
X119613015Y-63216348D01*
X119629292Y-63185897D01*
X119651201Y-63159201D01*
X119677897Y-63137292D01*
X119708348Y-63121015D01*
X119741400Y-63110989D01*
X119781903Y-63107000D01*
X121518097Y-63107000D01*
X121558600Y-63110989D01*
G37*
G36*
X187394170Y-62898803D02*
G01*
X187405875Y-62902354D01*
X187416665Y-62908121D01*
X187430688Y-62919630D01*
X187439704Y-62928645D01*
X187460078Y-62942259D01*
X187482717Y-62951635D01*
X187506751Y-62956415D01*
X187531255Y-62956415D01*
X187555288Y-62951634D01*
X187577926Y-62942256D01*
X187598301Y-62928642D01*
X187607317Y-62919626D01*
X187621335Y-62908121D01*
X187632125Y-62902354D01*
X187643830Y-62898803D01*
X187662138Y-62897000D01*
X188025862Y-62897000D01*
X188044170Y-62898803D01*
X188055875Y-62902354D01*
X188066665Y-62908121D01*
X188080688Y-62919630D01*
X188089704Y-62928645D01*
X188110078Y-62942259D01*
X188132717Y-62951635D01*
X188156751Y-62956415D01*
X188181255Y-62956415D01*
X188205288Y-62951634D01*
X188227926Y-62942256D01*
X188248301Y-62928642D01*
X188257317Y-62919626D01*
X188271335Y-62908121D01*
X188282125Y-62902354D01*
X188293830Y-62898803D01*
X188312138Y-62897000D01*
X188675862Y-62897000D01*
X188694170Y-62898803D01*
X188705875Y-62902354D01*
X188716665Y-62908121D01*
X188730688Y-62919630D01*
X188739704Y-62928645D01*
X188760078Y-62942259D01*
X188782717Y-62951635D01*
X188806751Y-62956415D01*
X188831255Y-62956415D01*
X188855288Y-62951634D01*
X188877926Y-62942256D01*
X188898301Y-62928642D01*
X188907317Y-62919626D01*
X188921335Y-62908121D01*
X188932125Y-62902354D01*
X188943830Y-62898803D01*
X188962138Y-62897000D01*
X189325862Y-62897000D01*
X189344170Y-62898803D01*
X189355875Y-62902354D01*
X189366665Y-62908121D01*
X189380688Y-62919630D01*
X189389704Y-62928645D01*
X189410078Y-62942259D01*
X189432717Y-62951635D01*
X189456751Y-62956415D01*
X189481255Y-62956415D01*
X189505288Y-62951634D01*
X189527926Y-62942256D01*
X189548301Y-62928642D01*
X189557317Y-62919626D01*
X189571335Y-62908121D01*
X189582125Y-62902354D01*
X189593830Y-62898803D01*
X189612138Y-62897000D01*
X189975862Y-62897000D01*
X189994170Y-62898803D01*
X190005875Y-62902354D01*
X190016665Y-62908121D01*
X190030688Y-62919630D01*
X190039704Y-62928645D01*
X190060078Y-62942259D01*
X190082717Y-62951635D01*
X190106751Y-62956415D01*
X190131255Y-62956415D01*
X190155288Y-62951634D01*
X190177926Y-62942256D01*
X190198301Y-62928642D01*
X190207317Y-62919626D01*
X190221335Y-62908121D01*
X190232125Y-62902354D01*
X190243830Y-62898803D01*
X190262138Y-62897000D01*
X190625862Y-62897000D01*
X190644170Y-62898803D01*
X190655875Y-62902354D01*
X190666665Y-62908121D01*
X190680688Y-62919630D01*
X190689704Y-62928645D01*
X190710078Y-62942259D01*
X190732717Y-62951635D01*
X190756751Y-62956415D01*
X190781255Y-62956415D01*
X190805288Y-62951634D01*
X190827926Y-62942256D01*
X190848301Y-62928642D01*
X190857317Y-62919626D01*
X190871335Y-62908121D01*
X190882125Y-62902354D01*
X190893830Y-62898803D01*
X190912138Y-62897000D01*
X191275862Y-62897000D01*
X191294170Y-62898803D01*
X191305875Y-62902354D01*
X191316665Y-62908121D01*
X191330688Y-62919630D01*
X191339704Y-62928645D01*
X191360078Y-62942259D01*
X191382717Y-62951635D01*
X191406751Y-62956415D01*
X191431255Y-62956415D01*
X191455288Y-62951634D01*
X191477926Y-62942256D01*
X191498301Y-62928642D01*
X191507317Y-62919626D01*
X191521335Y-62908121D01*
X191532125Y-62902354D01*
X191543830Y-62898803D01*
X191562138Y-62897000D01*
X191925862Y-62897000D01*
X191944170Y-62898803D01*
X191955875Y-62902354D01*
X191966665Y-62908121D01*
X191980688Y-62919630D01*
X191989704Y-62928645D01*
X192010078Y-62942259D01*
X192032717Y-62951635D01*
X192056751Y-62956415D01*
X192081255Y-62956415D01*
X192105288Y-62951634D01*
X192127926Y-62942256D01*
X192148301Y-62928642D01*
X192157317Y-62919626D01*
X192171335Y-62908121D01*
X192182125Y-62902354D01*
X192193830Y-62898803D01*
X192212138Y-62897000D01*
X192575862Y-62897000D01*
X192594170Y-62898803D01*
X192605875Y-62902354D01*
X192616665Y-62908121D01*
X192630688Y-62919630D01*
X192639704Y-62928645D01*
X192660078Y-62942259D01*
X192682717Y-62951635D01*
X192706751Y-62956415D01*
X192731255Y-62956415D01*
X192755288Y-62951634D01*
X192777926Y-62942256D01*
X192798301Y-62928642D01*
X192807317Y-62919626D01*
X192821335Y-62908121D01*
X192832125Y-62902354D01*
X192843830Y-62898803D01*
X192862138Y-62897000D01*
X193225862Y-62897000D01*
X193244170Y-62898803D01*
X193255875Y-62902354D01*
X193266665Y-62908121D01*
X193276119Y-62915881D01*
X193283879Y-62925335D01*
X193289646Y-62936125D01*
X193293197Y-62947830D01*
X193295000Y-62966138D01*
X193295000Y-64404862D01*
X193293197Y-64423170D01*
X193289646Y-64434875D01*
X193283879Y-64445665D01*
X193276119Y-64455119D01*
X193266665Y-64462879D01*
X193255875Y-64468646D01*
X193244170Y-64472197D01*
X193225862Y-64474000D01*
X192862138Y-64474000D01*
X192843830Y-64472197D01*
X192832125Y-64468646D01*
X192821335Y-64462879D01*
X192807312Y-64451370D01*
X192798296Y-64442355D01*
X192777922Y-64428741D01*
X192755283Y-64419365D01*
X192731249Y-64414585D01*
X192706745Y-64414585D01*
X192682712Y-64419366D01*
X192660074Y-64428744D01*
X192639699Y-64442358D01*
X192630683Y-64451374D01*
X192616665Y-64462879D01*
X192605875Y-64468646D01*
X192594170Y-64472197D01*
X192575862Y-64474000D01*
X192212138Y-64474000D01*
X192193830Y-64472197D01*
X192182125Y-64468646D01*
X192171335Y-64462879D01*
X192157312Y-64451370D01*
X192148296Y-64442355D01*
X192127922Y-64428741D01*
X192105283Y-64419365D01*
X192081249Y-64414585D01*
X192056745Y-64414585D01*
X192032712Y-64419366D01*
X192010074Y-64428744D01*
X191989699Y-64442358D01*
X191980683Y-64451374D01*
X191966665Y-64462879D01*
X191955875Y-64468646D01*
X191944170Y-64472197D01*
X191925862Y-64474000D01*
X191562138Y-64474000D01*
X191543830Y-64472197D01*
X191532125Y-64468646D01*
X191521335Y-64462879D01*
X191507312Y-64451370D01*
X191498296Y-64442355D01*
X191477922Y-64428741D01*
X191455283Y-64419365D01*
X191431249Y-64414585D01*
X191406745Y-64414585D01*
X191382712Y-64419366D01*
X191360074Y-64428744D01*
X191339699Y-64442358D01*
X191330683Y-64451374D01*
X191316665Y-64462879D01*
X191305875Y-64468646D01*
X191294170Y-64472197D01*
X191275862Y-64474000D01*
X190912138Y-64474000D01*
X190893830Y-64472197D01*
X190882125Y-64468646D01*
X190871335Y-64462879D01*
X190857312Y-64451370D01*
X190848296Y-64442355D01*
X190827922Y-64428741D01*
X190805283Y-64419365D01*
X190781249Y-64414585D01*
X190756745Y-64414585D01*
X190732712Y-64419366D01*
X190710074Y-64428744D01*
X190689699Y-64442358D01*
X190680683Y-64451374D01*
X190666665Y-64462879D01*
X190655875Y-64468646D01*
X190644170Y-64472197D01*
X190625862Y-64474000D01*
X190262138Y-64474000D01*
X190243830Y-64472197D01*
X190232125Y-64468646D01*
X190221335Y-64462879D01*
X190207312Y-64451370D01*
X190198296Y-64442355D01*
X190177922Y-64428741D01*
X190155283Y-64419365D01*
X190131249Y-64414585D01*
X190106745Y-64414585D01*
X190082712Y-64419366D01*
X190060074Y-64428744D01*
X190039699Y-64442358D01*
X190030683Y-64451374D01*
X190016665Y-64462879D01*
X190005875Y-64468646D01*
X189994170Y-64472197D01*
X189975862Y-64474000D01*
X189612138Y-64474000D01*
X189593830Y-64472197D01*
X189582125Y-64468646D01*
X189571335Y-64462879D01*
X189557312Y-64451370D01*
X189548296Y-64442355D01*
X189527922Y-64428741D01*
X189505283Y-64419365D01*
X189481249Y-64414585D01*
X189456745Y-64414585D01*
X189432712Y-64419366D01*
X189410074Y-64428744D01*
X189389699Y-64442358D01*
X189380683Y-64451374D01*
X189366665Y-64462879D01*
X189355875Y-64468646D01*
X189344170Y-64472197D01*
X189325862Y-64474000D01*
X188962138Y-64474000D01*
X188943830Y-64472197D01*
X188932125Y-64468646D01*
X188921335Y-64462879D01*
X188907312Y-64451370D01*
X188898296Y-64442355D01*
X188877922Y-64428741D01*
X188855283Y-64419365D01*
X188831249Y-64414585D01*
X188806745Y-64414585D01*
X188782712Y-64419366D01*
X188760074Y-64428744D01*
X188739699Y-64442358D01*
X188730683Y-64451374D01*
X188716665Y-64462879D01*
X188705875Y-64468646D01*
X188694170Y-64472197D01*
X188675862Y-64474000D01*
X188312138Y-64474000D01*
X188293830Y-64472197D01*
X188282125Y-64468646D01*
X188271335Y-64462879D01*
X188257312Y-64451370D01*
X188248296Y-64442355D01*
X188227922Y-64428741D01*
X188205283Y-64419365D01*
X188181249Y-64414585D01*
X188156745Y-64414585D01*
X188132712Y-64419366D01*
X188110074Y-64428744D01*
X188089699Y-64442358D01*
X188080683Y-64451374D01*
X188066665Y-64462879D01*
X188055875Y-64468646D01*
X188044170Y-64472197D01*
X188025862Y-64474000D01*
X187662138Y-64474000D01*
X187643830Y-64472197D01*
X187632125Y-64468646D01*
X187621335Y-64462879D01*
X187607312Y-64451370D01*
X187598296Y-64442355D01*
X187577922Y-64428741D01*
X187555283Y-64419365D01*
X187531249Y-64414585D01*
X187506745Y-64414585D01*
X187482712Y-64419366D01*
X187460074Y-64428744D01*
X187439699Y-64442358D01*
X187430683Y-64451374D01*
X187416665Y-64462879D01*
X187405875Y-64468646D01*
X187394170Y-64472197D01*
X187375862Y-64474000D01*
X187012138Y-64474000D01*
X186993830Y-64472197D01*
X186982125Y-64468646D01*
X186971335Y-64462879D01*
X186961881Y-64455119D01*
X186954121Y-64445665D01*
X186948354Y-64434875D01*
X186944803Y-64423170D01*
X186943000Y-64404862D01*
X186943000Y-62966138D01*
X186944803Y-62947830D01*
X186948354Y-62936125D01*
X186954121Y-62925335D01*
X186961881Y-62915881D01*
X186971335Y-62908121D01*
X186982125Y-62902354D01*
X186993830Y-62898803D01*
X187012138Y-62897000D01*
X187375862Y-62897000D01*
X187394170Y-62898803D01*
G37*
G36*
X207775331Y-55268211D02*
G01*
X208103092Y-55403974D01*
X208398070Y-55601072D01*
X208648928Y-55851930D01*
X208846026Y-56146908D01*
X208981789Y-56474669D01*
X209051000Y-56822616D01*
X209051000Y-57177384D01*
X208981789Y-57525331D01*
X208846026Y-57853092D01*
X208648928Y-58148070D01*
X208398070Y-58398928D01*
X208103092Y-58596026D01*
X207775331Y-58731789D01*
X207427384Y-58801000D01*
X207072616Y-58801000D01*
X206724669Y-58731789D01*
X206396908Y-58596026D01*
X206101930Y-58398928D01*
X205851072Y-58148070D01*
X205653974Y-57853092D01*
X205518211Y-57525331D01*
X205449000Y-57177384D01*
X205449000Y-56822616D01*
X205518211Y-56474669D01*
X205653974Y-56146908D01*
X205851072Y-55851930D01*
X206101930Y-55601072D01*
X206396908Y-55403974D01*
X206724669Y-55268211D01*
X207072616Y-55199000D01*
X207427384Y-55199000D01*
X207775331Y-55268211D01*
G37*
G36*
X112525331Y-55268211D02*
G01*
X112853092Y-55403974D01*
X113148070Y-55601072D01*
X113398928Y-55851930D01*
X113596026Y-56146908D01*
X113731789Y-56474669D01*
X113801000Y-56822616D01*
X113801000Y-57177384D01*
X113731789Y-57525331D01*
X113596026Y-57853092D01*
X113398928Y-58148070D01*
X113148070Y-58398928D01*
X112853092Y-58596026D01*
X112525331Y-58731789D01*
X112177384Y-58801000D01*
X111822616Y-58801000D01*
X111474669Y-58731789D01*
X111146908Y-58596026D01*
X110851930Y-58398928D01*
X110601072Y-58148070D01*
X110403974Y-57853092D01*
X110268211Y-57525331D01*
X110199000Y-57177384D01*
X110199000Y-56822616D01*
X110268211Y-56474669D01*
X110403974Y-56146908D01*
X110601072Y-55851930D01*
X110851930Y-55601072D01*
X111146908Y-55403974D01*
X111474669Y-55268211D01*
X111822616Y-55199000D01*
X112177384Y-55199000D01*
X112525331Y-55268211D01*
G37*
G36*
X146236570Y-47930603D02*
G01*
X146248275Y-47934154D01*
X146259065Y-47939921D01*
X146268519Y-47947681D01*
X146276279Y-47957135D01*
X146282046Y-47967925D01*
X146285597Y-47979630D01*
X146287400Y-47997938D01*
X146287400Y-48361662D01*
X146285597Y-48379970D01*
X146282046Y-48391675D01*
X146276279Y-48402465D01*
X146264770Y-48416488D01*
X146255755Y-48425504D01*
X146242141Y-48445878D01*
X146232765Y-48468517D01*
X146227985Y-48492551D01*
X146227985Y-48517055D01*
X146232766Y-48541088D01*
X146242144Y-48563726D01*
X146255758Y-48584101D01*
X146264774Y-48593117D01*
X146276279Y-48607135D01*
X146282046Y-48617925D01*
X146285597Y-48629630D01*
X146287400Y-48647938D01*
X146287400Y-49011662D01*
X146285597Y-49029970D01*
X146282046Y-49041675D01*
X146276279Y-49052465D01*
X146264770Y-49066488D01*
X146255755Y-49075504D01*
X146242141Y-49095878D01*
X146232765Y-49118517D01*
X146227985Y-49142551D01*
X146227985Y-49167055D01*
X146232766Y-49191088D01*
X146242144Y-49213726D01*
X146255758Y-49234101D01*
X146264774Y-49243117D01*
X146276279Y-49257135D01*
X146282046Y-49267925D01*
X146285597Y-49279630D01*
X146287400Y-49297938D01*
X146287400Y-49661662D01*
X146285597Y-49679970D01*
X146282046Y-49691675D01*
X146276279Y-49702465D01*
X146264770Y-49716488D01*
X146255755Y-49725504D01*
X146242141Y-49745878D01*
X146232765Y-49768517D01*
X146227985Y-49792551D01*
X146227985Y-49817055D01*
X146232766Y-49841088D01*
X146242144Y-49863726D01*
X146255758Y-49884101D01*
X146264774Y-49893117D01*
X146276279Y-49907135D01*
X146282046Y-49917925D01*
X146285597Y-49929630D01*
X146287400Y-49947938D01*
X146287400Y-50311662D01*
X146285597Y-50329970D01*
X146282046Y-50341675D01*
X146276279Y-50352465D01*
X146264770Y-50366488D01*
X146255755Y-50375504D01*
X146242141Y-50395878D01*
X146232765Y-50418517D01*
X146227985Y-50442551D01*
X146227985Y-50467055D01*
X146232766Y-50491088D01*
X146242144Y-50513726D01*
X146255758Y-50534101D01*
X146264774Y-50543117D01*
X146276279Y-50557135D01*
X146282046Y-50567925D01*
X146285597Y-50579630D01*
X146287400Y-50597938D01*
X146287400Y-50961662D01*
X146285597Y-50979970D01*
X146282046Y-50991675D01*
X146276279Y-51002465D01*
X146264770Y-51016488D01*
X146255755Y-51025504D01*
X146242141Y-51045878D01*
X146232765Y-51068517D01*
X146227985Y-51092551D01*
X146227985Y-51117055D01*
X146232766Y-51141088D01*
X146242144Y-51163726D01*
X146255758Y-51184101D01*
X146264774Y-51193117D01*
X146276279Y-51207135D01*
X146282046Y-51217925D01*
X146285597Y-51229630D01*
X146287400Y-51247938D01*
X146287400Y-51611662D01*
X146285597Y-51629970D01*
X146282046Y-51641675D01*
X146276279Y-51652465D01*
X146264770Y-51666488D01*
X146255755Y-51675504D01*
X146242141Y-51695878D01*
X146232765Y-51718517D01*
X146227985Y-51742551D01*
X146227985Y-51767055D01*
X146232766Y-51791088D01*
X146242144Y-51813726D01*
X146255758Y-51834101D01*
X146264774Y-51843117D01*
X146276279Y-51857135D01*
X146282046Y-51867925D01*
X146285597Y-51879630D01*
X146287400Y-51897938D01*
X146287400Y-52261662D01*
X146285597Y-52279970D01*
X146282046Y-52291675D01*
X146276279Y-52302465D01*
X146264770Y-52316488D01*
X146255755Y-52325504D01*
X146242141Y-52345878D01*
X146232765Y-52368517D01*
X146227985Y-52392551D01*
X146227985Y-52417055D01*
X146232766Y-52441088D01*
X146242144Y-52463726D01*
X146255758Y-52484101D01*
X146264774Y-52493117D01*
X146276279Y-52507135D01*
X146282046Y-52517925D01*
X146285597Y-52529630D01*
X146287400Y-52547938D01*
X146287400Y-52911662D01*
X146285597Y-52929970D01*
X146282046Y-52941675D01*
X146276279Y-52952465D01*
X146264770Y-52966488D01*
X146255755Y-52975504D01*
X146242141Y-52995878D01*
X146232765Y-53018517D01*
X146227985Y-53042551D01*
X146227985Y-53067055D01*
X146232766Y-53091088D01*
X146242144Y-53113726D01*
X146255758Y-53134101D01*
X146264774Y-53143117D01*
X146276279Y-53157135D01*
X146282046Y-53167925D01*
X146285597Y-53179630D01*
X146287400Y-53197938D01*
X146287400Y-53561662D01*
X146285597Y-53579970D01*
X146282046Y-53591675D01*
X146276279Y-53602465D01*
X146264770Y-53616488D01*
X146255755Y-53625504D01*
X146242141Y-53645878D01*
X146232765Y-53668517D01*
X146227985Y-53692551D01*
X146227985Y-53717055D01*
X146232766Y-53741088D01*
X146242144Y-53763726D01*
X146255758Y-53784101D01*
X146264774Y-53793117D01*
X146276279Y-53807135D01*
X146282046Y-53817925D01*
X146285597Y-53829630D01*
X146287400Y-53847938D01*
X146287400Y-54211662D01*
X146285597Y-54229970D01*
X146282046Y-54241675D01*
X146276279Y-54252465D01*
X146268519Y-54261919D01*
X146259065Y-54269679D01*
X146248275Y-54275446D01*
X146236570Y-54278997D01*
X146218262Y-54280800D01*
X144779538Y-54280800D01*
X144761230Y-54278997D01*
X144749525Y-54275446D01*
X144738735Y-54269679D01*
X144729281Y-54261919D01*
X144721521Y-54252465D01*
X144715754Y-54241675D01*
X144712203Y-54229970D01*
X144710400Y-54211662D01*
X144710400Y-53847938D01*
X144712203Y-53829630D01*
X144715754Y-53817925D01*
X144721521Y-53807135D01*
X144733030Y-53793112D01*
X144742045Y-53784096D01*
X144755659Y-53763722D01*
X144765035Y-53741083D01*
X144769815Y-53717049D01*
X144769815Y-53692545D01*
X144765034Y-53668512D01*
X144755656Y-53645874D01*
X144742042Y-53625499D01*
X144733026Y-53616483D01*
X144721521Y-53602465D01*
X144715754Y-53591675D01*
X144712203Y-53579970D01*
X144710400Y-53561662D01*
X144710400Y-53197938D01*
X144712203Y-53179630D01*
X144715754Y-53167925D01*
X144721521Y-53157135D01*
X144733030Y-53143112D01*
X144742045Y-53134096D01*
X144755659Y-53113722D01*
X144765035Y-53091083D01*
X144769815Y-53067049D01*
X144769815Y-53042545D01*
X144765034Y-53018512D01*
X144755656Y-52995874D01*
X144742042Y-52975499D01*
X144733026Y-52966483D01*
X144721521Y-52952465D01*
X144715754Y-52941675D01*
X144712203Y-52929970D01*
X144710400Y-52911662D01*
X144710400Y-52547938D01*
X144712203Y-52529630D01*
X144715754Y-52517925D01*
X144721521Y-52507135D01*
X144733030Y-52493112D01*
X144742045Y-52484096D01*
X144755659Y-52463722D01*
X144765035Y-52441083D01*
X144769815Y-52417049D01*
X144769815Y-52392545D01*
X144765034Y-52368512D01*
X144755656Y-52345874D01*
X144742042Y-52325499D01*
X144733026Y-52316483D01*
X144721521Y-52302465D01*
X144715754Y-52291675D01*
X144712203Y-52279970D01*
X144710400Y-52261662D01*
X144710400Y-51897938D01*
X144712203Y-51879630D01*
X144715754Y-51867925D01*
X144721521Y-51857135D01*
X144733030Y-51843112D01*
X144742045Y-51834096D01*
X144755659Y-51813722D01*
X144765035Y-51791083D01*
X144769815Y-51767049D01*
X144769815Y-51742545D01*
X144765034Y-51718512D01*
X144755656Y-51695874D01*
X144742042Y-51675499D01*
X144733026Y-51666483D01*
X144721521Y-51652465D01*
X144715754Y-51641675D01*
X144712203Y-51629970D01*
X144710400Y-51611662D01*
X144710400Y-51247938D01*
X144712203Y-51229630D01*
X144715754Y-51217925D01*
X144721521Y-51207135D01*
X144733030Y-51193112D01*
X144742045Y-51184096D01*
X144755659Y-51163722D01*
X144765035Y-51141083D01*
X144769815Y-51117049D01*
X144769815Y-51092545D01*
X144765034Y-51068512D01*
X144755656Y-51045874D01*
X144742042Y-51025499D01*
X144733026Y-51016483D01*
X144721521Y-51002465D01*
X144715754Y-50991675D01*
X144712203Y-50979970D01*
X144710400Y-50961662D01*
X144710400Y-50597938D01*
X144712203Y-50579630D01*
X144715754Y-50567925D01*
X144721521Y-50557135D01*
X144733030Y-50543112D01*
X144742045Y-50534096D01*
X144755659Y-50513722D01*
X144765035Y-50491083D01*
X144769815Y-50467049D01*
X144769815Y-50442545D01*
X144765034Y-50418512D01*
X144755656Y-50395874D01*
X144742042Y-50375499D01*
X144733026Y-50366483D01*
X144721521Y-50352465D01*
X144715754Y-50341675D01*
X144712203Y-50329970D01*
X144710400Y-50311662D01*
X144710400Y-49947938D01*
X144712203Y-49929630D01*
X144715754Y-49917925D01*
X144721521Y-49907135D01*
X144733030Y-49893112D01*
X144742045Y-49884096D01*
X144755659Y-49863722D01*
X144765035Y-49841083D01*
X144769815Y-49817049D01*
X144769815Y-49792545D01*
X144765034Y-49768512D01*
X144755656Y-49745874D01*
X144742042Y-49725499D01*
X144733026Y-49716483D01*
X144721521Y-49702465D01*
X144715754Y-49691675D01*
X144712203Y-49679970D01*
X144710400Y-49661662D01*
X144710400Y-49297938D01*
X144712203Y-49279630D01*
X144715754Y-49267925D01*
X144721521Y-49257135D01*
X144733030Y-49243112D01*
X144742045Y-49234096D01*
X144755659Y-49213722D01*
X144765035Y-49191083D01*
X144769815Y-49167049D01*
X144769815Y-49142545D01*
X144765034Y-49118512D01*
X144755656Y-49095874D01*
X144742042Y-49075499D01*
X144733026Y-49066483D01*
X144721521Y-49052465D01*
X144715754Y-49041675D01*
X144712203Y-49029970D01*
X144710400Y-49011662D01*
X144710400Y-48647938D01*
X144712203Y-48629630D01*
X144715754Y-48617925D01*
X144721521Y-48607135D01*
X144733030Y-48593112D01*
X144742045Y-48584096D01*
X144755659Y-48563722D01*
X144765035Y-48541083D01*
X144769815Y-48517049D01*
X144769815Y-48492545D01*
X144765034Y-48468512D01*
X144755656Y-48445874D01*
X144742042Y-48425499D01*
X144733026Y-48416483D01*
X144721521Y-48402465D01*
X144715754Y-48391675D01*
X144712203Y-48379970D01*
X144710400Y-48361662D01*
X144710400Y-47997938D01*
X144712203Y-47979630D01*
X144715754Y-47967925D01*
X144721521Y-47957135D01*
X144729281Y-47947681D01*
X144738735Y-47939921D01*
X144749525Y-47934154D01*
X144761230Y-47930603D01*
X144779538Y-47928800D01*
X146218262Y-47928800D01*
X146236570Y-47930603D01*
G37*
G36*
X151961570Y-47930603D02*
G01*
X151973275Y-47934154D01*
X151984065Y-47939921D01*
X151993519Y-47947681D01*
X152001279Y-47957135D01*
X152007046Y-47967925D01*
X152010597Y-47979630D01*
X152012400Y-47997938D01*
X152012400Y-48361662D01*
X152010597Y-48379970D01*
X152007046Y-48391675D01*
X152001279Y-48402465D01*
X151989770Y-48416488D01*
X151980755Y-48425504D01*
X151967141Y-48445878D01*
X151957765Y-48468517D01*
X151952985Y-48492551D01*
X151952985Y-48517055D01*
X151957766Y-48541088D01*
X151967144Y-48563726D01*
X151980758Y-48584101D01*
X151989774Y-48593117D01*
X152001279Y-48607135D01*
X152007046Y-48617925D01*
X152010597Y-48629630D01*
X152012400Y-48647938D01*
X152012400Y-49011662D01*
X152010597Y-49029970D01*
X152007046Y-49041675D01*
X152001279Y-49052465D01*
X151989770Y-49066488D01*
X151980755Y-49075504D01*
X151967141Y-49095878D01*
X151957765Y-49118517D01*
X151952985Y-49142551D01*
X151952985Y-49167055D01*
X151957766Y-49191088D01*
X151967144Y-49213726D01*
X151980758Y-49234101D01*
X151989774Y-49243117D01*
X152001279Y-49257135D01*
X152007046Y-49267925D01*
X152010597Y-49279630D01*
X152012400Y-49297938D01*
X152012400Y-49661662D01*
X152010597Y-49679970D01*
X152007046Y-49691675D01*
X152001279Y-49702465D01*
X151989770Y-49716488D01*
X151980755Y-49725504D01*
X151967141Y-49745878D01*
X151957765Y-49768517D01*
X151952985Y-49792551D01*
X151952985Y-49817055D01*
X151957766Y-49841088D01*
X151967144Y-49863726D01*
X151980758Y-49884101D01*
X151989774Y-49893117D01*
X152001279Y-49907135D01*
X152007046Y-49917925D01*
X152010597Y-49929630D01*
X152012400Y-49947938D01*
X152012400Y-50311662D01*
X152010597Y-50329970D01*
X152007046Y-50341675D01*
X152001279Y-50352465D01*
X151989770Y-50366488D01*
X151980755Y-50375504D01*
X151967141Y-50395878D01*
X151957765Y-50418517D01*
X151952985Y-50442551D01*
X151952985Y-50467055D01*
X151957766Y-50491088D01*
X151967144Y-50513726D01*
X151980758Y-50534101D01*
X151989774Y-50543117D01*
X152001279Y-50557135D01*
X152007046Y-50567925D01*
X152010597Y-50579630D01*
X152012400Y-50597938D01*
X152012400Y-50961662D01*
X152010597Y-50979970D01*
X152007046Y-50991675D01*
X152001279Y-51002465D01*
X151989770Y-51016488D01*
X151980755Y-51025504D01*
X151967141Y-51045878D01*
X151957765Y-51068517D01*
X151952985Y-51092551D01*
X151952985Y-51117055D01*
X151957766Y-51141088D01*
X151967144Y-51163726D01*
X151980758Y-51184101D01*
X151989774Y-51193117D01*
X152001279Y-51207135D01*
X152007046Y-51217925D01*
X152010597Y-51229630D01*
X152012400Y-51247938D01*
X152012400Y-51611662D01*
X152010597Y-51629970D01*
X152007046Y-51641675D01*
X152001279Y-51652465D01*
X151989770Y-51666488D01*
X151980755Y-51675504D01*
X151967141Y-51695878D01*
X151957765Y-51718517D01*
X151952985Y-51742551D01*
X151952985Y-51767055D01*
X151957766Y-51791088D01*
X151967144Y-51813726D01*
X151980758Y-51834101D01*
X151989774Y-51843117D01*
X152001279Y-51857135D01*
X152007046Y-51867925D01*
X152010597Y-51879630D01*
X152012400Y-51897938D01*
X152012400Y-52261662D01*
X152010597Y-52279970D01*
X152007046Y-52291675D01*
X152001279Y-52302465D01*
X151989770Y-52316488D01*
X151980755Y-52325504D01*
X151967141Y-52345878D01*
X151957765Y-52368517D01*
X151952985Y-52392551D01*
X151952985Y-52417055D01*
X151957766Y-52441088D01*
X151967144Y-52463726D01*
X151980758Y-52484101D01*
X151989774Y-52493117D01*
X152001279Y-52507135D01*
X152007046Y-52517925D01*
X152010597Y-52529630D01*
X152012400Y-52547938D01*
X152012400Y-52911662D01*
X152010597Y-52929970D01*
X152007046Y-52941675D01*
X152001279Y-52952465D01*
X151989770Y-52966488D01*
X151980755Y-52975504D01*
X151967141Y-52995878D01*
X151957765Y-53018517D01*
X151952985Y-53042551D01*
X151952985Y-53067055D01*
X151957766Y-53091088D01*
X151967144Y-53113726D01*
X151980758Y-53134101D01*
X151989774Y-53143117D01*
X152001279Y-53157135D01*
X152007046Y-53167925D01*
X152010597Y-53179630D01*
X152012400Y-53197938D01*
X152012400Y-53561662D01*
X152010597Y-53579970D01*
X152007046Y-53591675D01*
X152001279Y-53602465D01*
X151989770Y-53616488D01*
X151980755Y-53625504D01*
X151967141Y-53645878D01*
X151957765Y-53668517D01*
X151952985Y-53692551D01*
X151952985Y-53717055D01*
X151957766Y-53741088D01*
X151967144Y-53763726D01*
X151980758Y-53784101D01*
X151989774Y-53793117D01*
X152001279Y-53807135D01*
X152007046Y-53817925D01*
X152010597Y-53829630D01*
X152012400Y-53847938D01*
X152012400Y-54211662D01*
X152010597Y-54229970D01*
X152007046Y-54241675D01*
X152001279Y-54252465D01*
X151993519Y-54261919D01*
X151984065Y-54269679D01*
X151973275Y-54275446D01*
X151961570Y-54278997D01*
X151943262Y-54280800D01*
X150504538Y-54280800D01*
X150486230Y-54278997D01*
X150474525Y-54275446D01*
X150463735Y-54269679D01*
X150454281Y-54261919D01*
X150446521Y-54252465D01*
X150440754Y-54241675D01*
X150437203Y-54229970D01*
X150435400Y-54211662D01*
X150435400Y-53847938D01*
X150437203Y-53829630D01*
X150440754Y-53817925D01*
X150446521Y-53807135D01*
X150458030Y-53793112D01*
X150467045Y-53784096D01*
X150480659Y-53763722D01*
X150490035Y-53741083D01*
X150494815Y-53717049D01*
X150494815Y-53692545D01*
X150490034Y-53668512D01*
X150480656Y-53645874D01*
X150467042Y-53625499D01*
X150458026Y-53616483D01*
X150446521Y-53602465D01*
X150440754Y-53591675D01*
X150437203Y-53579970D01*
X150435400Y-53561662D01*
X150435400Y-53197938D01*
X150437203Y-53179630D01*
X150440754Y-53167925D01*
X150446521Y-53157135D01*
X150458030Y-53143112D01*
X150467045Y-53134096D01*
X150480659Y-53113722D01*
X150490035Y-53091083D01*
X150494815Y-53067049D01*
X150494815Y-53042545D01*
X150490034Y-53018512D01*
X150480656Y-52995874D01*
X150467042Y-52975499D01*
X150458026Y-52966483D01*
X150446521Y-52952465D01*
X150440754Y-52941675D01*
X150437203Y-52929970D01*
X150435400Y-52911662D01*
X150435400Y-52547938D01*
X150437203Y-52529630D01*
X150440754Y-52517925D01*
X150446521Y-52507135D01*
X150458030Y-52493112D01*
X150467045Y-52484096D01*
X150480659Y-52463722D01*
X150490035Y-52441083D01*
X150494815Y-52417049D01*
X150494815Y-52392545D01*
X150490034Y-52368512D01*
X150480656Y-52345874D01*
X150467042Y-52325499D01*
X150458026Y-52316483D01*
X150446521Y-52302465D01*
X150440754Y-52291675D01*
X150437203Y-52279970D01*
X150435400Y-52261662D01*
X150435400Y-51897938D01*
X150437203Y-51879630D01*
X150440754Y-51867925D01*
X150446521Y-51857135D01*
X150458030Y-51843112D01*
X150467045Y-51834096D01*
X150480659Y-51813722D01*
X150490035Y-51791083D01*
X150494815Y-51767049D01*
X150494815Y-51742545D01*
X150490034Y-51718512D01*
X150480656Y-51695874D01*
X150467042Y-51675499D01*
X150458026Y-51666483D01*
X150446521Y-51652465D01*
X150440754Y-51641675D01*
X150437203Y-51629970D01*
X150435400Y-51611662D01*
X150435400Y-51247938D01*
X150437203Y-51229630D01*
X150440754Y-51217925D01*
X150446521Y-51207135D01*
X150458030Y-51193112D01*
X150467045Y-51184096D01*
X150480659Y-51163722D01*
X150490035Y-51141083D01*
X150494815Y-51117049D01*
X150494815Y-51092545D01*
X150490034Y-51068512D01*
X150480656Y-51045874D01*
X150467042Y-51025499D01*
X150458026Y-51016483D01*
X150446521Y-51002465D01*
X150440754Y-50991675D01*
X150437203Y-50979970D01*
X150435400Y-50961662D01*
X150435400Y-50597938D01*
X150437203Y-50579630D01*
X150440754Y-50567925D01*
X150446521Y-50557135D01*
X150458030Y-50543112D01*
X150467045Y-50534096D01*
X150480659Y-50513722D01*
X150490035Y-50491083D01*
X150494815Y-50467049D01*
X150494815Y-50442545D01*
X150490034Y-50418512D01*
X150480656Y-50395874D01*
X150467042Y-50375499D01*
X150458026Y-50366483D01*
X150446521Y-50352465D01*
X150440754Y-50341675D01*
X150437203Y-50329970D01*
X150435400Y-50311662D01*
X150435400Y-49947938D01*
X150437203Y-49929630D01*
X150440754Y-49917925D01*
X150446521Y-49907135D01*
X150458030Y-49893112D01*
X150467045Y-49884096D01*
X150480659Y-49863722D01*
X150490035Y-49841083D01*
X150494815Y-49817049D01*
X150494815Y-49792545D01*
X150490034Y-49768512D01*
X150480656Y-49745874D01*
X150467042Y-49725499D01*
X150458026Y-49716483D01*
X150446521Y-49702465D01*
X150440754Y-49691675D01*
X150437203Y-49679970D01*
X150435400Y-49661662D01*
X150435400Y-49297938D01*
X150437203Y-49279630D01*
X150440754Y-49267925D01*
X150446521Y-49257135D01*
X150458030Y-49243112D01*
X150467045Y-49234096D01*
X150480659Y-49213722D01*
X150490035Y-49191083D01*
X150494815Y-49167049D01*
X150494815Y-49142545D01*
X150490034Y-49118512D01*
X150480656Y-49095874D01*
X150467042Y-49075499D01*
X150458026Y-49066483D01*
X150446521Y-49052465D01*
X150440754Y-49041675D01*
X150437203Y-49029970D01*
X150435400Y-49011662D01*
X150435400Y-48647938D01*
X150437203Y-48629630D01*
X150440754Y-48617925D01*
X150446521Y-48607135D01*
X150458030Y-48593112D01*
X150467045Y-48584096D01*
X150480659Y-48563722D01*
X150490035Y-48541083D01*
X150494815Y-48517049D01*
X150494815Y-48492545D01*
X150490034Y-48468512D01*
X150480656Y-48445874D01*
X150467042Y-48425499D01*
X150458026Y-48416483D01*
X150446521Y-48402465D01*
X150440754Y-48391675D01*
X150437203Y-48379970D01*
X150435400Y-48361662D01*
X150435400Y-47997938D01*
X150437203Y-47979630D01*
X150440754Y-47967925D01*
X150446521Y-47957135D01*
X150454281Y-47947681D01*
X150463735Y-47939921D01*
X150474525Y-47934154D01*
X150486230Y-47930603D01*
X150504538Y-47928800D01*
X151943262Y-47928800D01*
X151961570Y-47930603D01*
G37*
G36*
X117247512Y-48887927D02*
G01*
X117396812Y-48917624D01*
X117560784Y-48985544D01*
X117708354Y-49084147D01*
X117833853Y-49209646D01*
X117932456Y-49357216D01*
X118000376Y-49521188D01*
X118026659Y-49653327D01*
X118035000Y-49695258D01*
X118035000Y-49872742D01*
X118031895Y-49888353D01*
X118000376Y-50046812D01*
X117932456Y-50210784D01*
X117833853Y-50358354D01*
X117708354Y-50483853D01*
X117560784Y-50582456D01*
X117396812Y-50650376D01*
X117247512Y-50680073D01*
X117222742Y-50685000D01*
X117045258Y-50685000D01*
X117020488Y-50680073D01*
X116871188Y-50650376D01*
X116707216Y-50582456D01*
X116559646Y-50483853D01*
X116434147Y-50358354D01*
X116335544Y-50210784D01*
X116267624Y-50046812D01*
X116236105Y-49888353D01*
X116233000Y-49872742D01*
X116233000Y-49695258D01*
X116241341Y-49653327D01*
X116267624Y-49521188D01*
X116335544Y-49357216D01*
X116434147Y-49209646D01*
X116559646Y-49084147D01*
X116707216Y-48985544D01*
X116871188Y-48917624D01*
X117020488Y-48887927D01*
X117045258Y-48883000D01*
X117222742Y-48883000D01*
X117247512Y-48887927D01*
G37*
G36*
X114747512Y-48887927D02*
G01*
X114896812Y-48917624D01*
X115060784Y-48985544D01*
X115208354Y-49084147D01*
X115333853Y-49209646D01*
X115432456Y-49357216D01*
X115500376Y-49521188D01*
X115526659Y-49653327D01*
X115535000Y-49695258D01*
X115535000Y-49872742D01*
X115531895Y-49888353D01*
X115500376Y-50046812D01*
X115432456Y-50210784D01*
X115333853Y-50358354D01*
X115208354Y-50483853D01*
X115060784Y-50582456D01*
X114896812Y-50650376D01*
X114747512Y-50680073D01*
X114722742Y-50685000D01*
X114545258Y-50685000D01*
X114520488Y-50680073D01*
X114371188Y-50650376D01*
X114207216Y-50582456D01*
X114059646Y-50483853D01*
X113934147Y-50358354D01*
X113835544Y-50210784D01*
X113767624Y-50046812D01*
X113736105Y-49888353D01*
X113733000Y-49872742D01*
X113733000Y-49695258D01*
X113741341Y-49653327D01*
X113767624Y-49521188D01*
X113835544Y-49357216D01*
X113934147Y-49209646D01*
X114059646Y-49084147D01*
X114207216Y-48985544D01*
X114371188Y-48917624D01*
X114520488Y-48887927D01*
X114545258Y-48883000D01*
X114722742Y-48883000D01*
X114747512Y-48887927D01*
G37*
G36*
X112722578Y-48891048D02*
G01*
X112795249Y-48913093D01*
X112862225Y-48948892D01*
X112920930Y-48997070D01*
X112969108Y-49055775D01*
X113004907Y-49122751D01*
X113026952Y-49195422D01*
X113035000Y-49277140D01*
X113035000Y-50290860D01*
X113026952Y-50372578D01*
X113004907Y-50445249D01*
X112969108Y-50512225D01*
X112920930Y-50570930D01*
X112862225Y-50619108D01*
X112795249Y-50654907D01*
X112722578Y-50676952D01*
X112640860Y-50685000D01*
X111627140Y-50685000D01*
X111545422Y-50676952D01*
X111472751Y-50654907D01*
X111405775Y-50619108D01*
X111347070Y-50570930D01*
X111298892Y-50512225D01*
X111263093Y-50445249D01*
X111241048Y-50372578D01*
X111233000Y-50290860D01*
X111233000Y-49277140D01*
X111241048Y-49195422D01*
X111263093Y-49122751D01*
X111298892Y-49055775D01*
X111347070Y-48997070D01*
X111405775Y-48948892D01*
X111472751Y-48913093D01*
X111545422Y-48891048D01*
X111627140Y-48883000D01*
X112640860Y-48883000D01*
X112722578Y-48891048D01*
G37*
G36*
X119747512Y-48887927D02*
G01*
X119896812Y-48917624D01*
X120060784Y-48985544D01*
X120208354Y-49084147D01*
X120333853Y-49209646D01*
X120432456Y-49357216D01*
X120500376Y-49521188D01*
X120526659Y-49653327D01*
X120535000Y-49695258D01*
X120535000Y-49872742D01*
X120531895Y-49888353D01*
X120500376Y-50046812D01*
X120432456Y-50210784D01*
X120333853Y-50358354D01*
X120208354Y-50483853D01*
X120060784Y-50582456D01*
X119896812Y-50650376D01*
X119747512Y-50680073D01*
X119722742Y-50685000D01*
X119545258Y-50685000D01*
X119520488Y-50680073D01*
X119371188Y-50650376D01*
X119207216Y-50582456D01*
X119059646Y-50483853D01*
X118934147Y-50358354D01*
X118835544Y-50210784D01*
X118767624Y-50046812D01*
X118736105Y-49888353D01*
X118733000Y-49872742D01*
X118733000Y-49695258D01*
X118741341Y-49653327D01*
X118767624Y-49521188D01*
X118835544Y-49357216D01*
X118934147Y-49209646D01*
X119059646Y-49084147D01*
X119207216Y-48985544D01*
X119371188Y-48917624D01*
X119520488Y-48887927D01*
X119545258Y-48883000D01*
X119722742Y-48883000D01*
X119747512Y-48887927D01*
G37*
G36*
X151655762Y-45496681D02*
G01*
X151690681Y-45507274D01*
X151722863Y-45524476D01*
X151751073Y-45547627D01*
X151774224Y-45575837D01*
X151791426Y-45608019D01*
X151802019Y-45642938D01*
X151806200Y-45685395D01*
X151806200Y-47151605D01*
X151802019Y-47194062D01*
X151791426Y-47228981D01*
X151774224Y-47261163D01*
X151751073Y-47289373D01*
X151722863Y-47312524D01*
X151690681Y-47329726D01*
X151655762Y-47340319D01*
X151613305Y-47344500D01*
X150472095Y-47344500D01*
X150429638Y-47340319D01*
X150394719Y-47329726D01*
X150362537Y-47312524D01*
X150334327Y-47289373D01*
X150311176Y-47261163D01*
X150293974Y-47228981D01*
X150283381Y-47194062D01*
X150279200Y-47151605D01*
X150279200Y-45685395D01*
X150283381Y-45642938D01*
X150293974Y-45608019D01*
X150311176Y-45575837D01*
X150334327Y-45547627D01*
X150362537Y-45524476D01*
X150394719Y-45507274D01*
X150429638Y-45496681D01*
X150472095Y-45492500D01*
X151613305Y-45492500D01*
X151655762Y-45496681D01*
G37*
G36*
X148680762Y-45496681D02*
G01*
X148715681Y-45507274D01*
X148747863Y-45524476D01*
X148776073Y-45547627D01*
X148799224Y-45575837D01*
X148816426Y-45608019D01*
X148827019Y-45642938D01*
X148831200Y-45685395D01*
X148831200Y-47151605D01*
X148827019Y-47194062D01*
X148816426Y-47228981D01*
X148799224Y-47261163D01*
X148776073Y-47289373D01*
X148747863Y-47312524D01*
X148715681Y-47329726D01*
X148680762Y-47340319D01*
X148638305Y-47344500D01*
X147497095Y-47344500D01*
X147454638Y-47340319D01*
X147419719Y-47329726D01*
X147387537Y-47312524D01*
X147359327Y-47289373D01*
X147336176Y-47261163D01*
X147318974Y-47228981D01*
X147308381Y-47194062D01*
X147304200Y-47151605D01*
X147304200Y-45685395D01*
X147308381Y-45642938D01*
X147318974Y-45608019D01*
X147336176Y-45575837D01*
X147359327Y-45547627D01*
X147387537Y-45524476D01*
X147419719Y-45507274D01*
X147454638Y-45496681D01*
X147497095Y-45492500D01*
X148638305Y-45492500D01*
X148680762Y-45496681D01*
G37*
G36*
X125137241Y-44197760D02*
G01*
X125401305Y-44307139D01*
X125638958Y-44465934D01*
X125841066Y-44668042D01*
X125999861Y-44905695D01*
X126109240Y-45169759D01*
X126165000Y-45450088D01*
X126165000Y-45735912D01*
X126109240Y-46016241D01*
X125999861Y-46280305D01*
X125841066Y-46517958D01*
X125638958Y-46720066D01*
X125401305Y-46878861D01*
X125137241Y-46988240D01*
X124856912Y-47044000D01*
X124571088Y-47044000D01*
X124290759Y-46988240D01*
X124026695Y-46878861D01*
X123789042Y-46720066D01*
X123586934Y-46517958D01*
X123428139Y-46280305D01*
X123318760Y-46016241D01*
X123263000Y-45735912D01*
X123263000Y-45450088D01*
X123318760Y-45169759D01*
X123428139Y-44905695D01*
X123586934Y-44668042D01*
X123789042Y-44465934D01*
X124026695Y-44307139D01*
X124290759Y-44197760D01*
X124571088Y-44142000D01*
X124856912Y-44142000D01*
X125137241Y-44197760D01*
G37*
G36*
X114977241Y-44197760D02*
G01*
X115241305Y-44307139D01*
X115478958Y-44465934D01*
X115681066Y-44668042D01*
X115839861Y-44905695D01*
X115949240Y-45169759D01*
X116005000Y-45450088D01*
X116005000Y-45735912D01*
X115949240Y-46016241D01*
X115839861Y-46280305D01*
X115681066Y-46517958D01*
X115478958Y-46720066D01*
X115241305Y-46878861D01*
X114977241Y-46988240D01*
X114696912Y-47044000D01*
X114411088Y-47044000D01*
X114130759Y-46988240D01*
X113866695Y-46878861D01*
X113629042Y-46720066D01*
X113426934Y-46517958D01*
X113268139Y-46280305D01*
X113158760Y-46016241D01*
X113103000Y-45735912D01*
X113103000Y-45450088D01*
X113158760Y-45169759D01*
X113268139Y-44905695D01*
X113426934Y-44668042D01*
X113629042Y-44465934D01*
X113866695Y-44307139D01*
X114130759Y-44197760D01*
X114411088Y-44142000D01*
X114696912Y-44142000D01*
X114977241Y-44197760D01*
G37*
G36*
X130217241Y-44197760D02*
G01*
X130481305Y-44307139D01*
X130718958Y-44465934D01*
X130921066Y-44668042D01*
X131079861Y-44905695D01*
X131189240Y-45169759D01*
X131245000Y-45450088D01*
X131245000Y-45735912D01*
X131189240Y-46016241D01*
X131079861Y-46280305D01*
X130921066Y-46517958D01*
X130718958Y-46720066D01*
X130481305Y-46878861D01*
X130217241Y-46988240D01*
X129936912Y-47044000D01*
X129651088Y-47044000D01*
X129370759Y-46988240D01*
X129106695Y-46878861D01*
X128869042Y-46720066D01*
X128666934Y-46517958D01*
X128508139Y-46280305D01*
X128398760Y-46016241D01*
X128343000Y-45735912D01*
X128343000Y-45450088D01*
X128398760Y-45169759D01*
X128508139Y-44905695D01*
X128666934Y-44668042D01*
X128869042Y-44465934D01*
X129106695Y-44307139D01*
X129370759Y-44197760D01*
X129651088Y-44142000D01*
X129936912Y-44142000D01*
X130217241Y-44197760D01*
G37*
G36*
X120057241Y-44197760D02*
G01*
X120321305Y-44307139D01*
X120558958Y-44465934D01*
X120761066Y-44668042D01*
X120919861Y-44905695D01*
X121029240Y-45169759D01*
X121085000Y-45450088D01*
X121085000Y-45735912D01*
X121029240Y-46016241D01*
X120919861Y-46280305D01*
X120761066Y-46517958D01*
X120558958Y-46720066D01*
X120321305Y-46878861D01*
X120057241Y-46988240D01*
X119776912Y-47044000D01*
X119491088Y-47044000D01*
X119210759Y-46988240D01*
X118946695Y-46878861D01*
X118709042Y-46720066D01*
X118506934Y-46517958D01*
X118348139Y-46280305D01*
X118238760Y-46016241D01*
X118183000Y-45735912D01*
X118183000Y-45450088D01*
X118238760Y-45169759D01*
X118348139Y-44905695D01*
X118506934Y-44668042D01*
X118709042Y-44465934D01*
X118946695Y-44307139D01*
X119210759Y-44197760D01*
X119491088Y-44142000D01*
X119776912Y-44142000D01*
X120057241Y-44197760D01*
G37*
G36*
X199503512Y-43299927D02*
G01*
X199652812Y-43329624D01*
X199816784Y-43397544D01*
X199964354Y-43496147D01*
X200089853Y-43621646D01*
X200188456Y-43769216D01*
X200256376Y-43933188D01*
X200291000Y-44107259D01*
X200291000Y-44284741D01*
X200256376Y-44458812D01*
X200188456Y-44622784D01*
X200089853Y-44770354D01*
X199964354Y-44895853D01*
X199816784Y-44994456D01*
X199652812Y-45062376D01*
X199503512Y-45092073D01*
X199478742Y-45097000D01*
X199301258Y-45097000D01*
X199276488Y-45092073D01*
X199127188Y-45062376D01*
X198963216Y-44994456D01*
X198815646Y-44895853D01*
X198690147Y-44770354D01*
X198591544Y-44622784D01*
X198523624Y-44458812D01*
X198489000Y-44284741D01*
X198489000Y-44107259D01*
X198523624Y-43933188D01*
X198591544Y-43769216D01*
X198690147Y-43621646D01*
X198815646Y-43496147D01*
X198963216Y-43397544D01*
X199127188Y-43329624D01*
X199276488Y-43299927D01*
X199301258Y-43295000D01*
X199478742Y-43295000D01*
X199503512Y-43299927D01*
G37*
G36*
X196963512Y-43299927D02*
G01*
X197112812Y-43329624D01*
X197276784Y-43397544D01*
X197424354Y-43496147D01*
X197549853Y-43621646D01*
X197648456Y-43769216D01*
X197716376Y-43933188D01*
X197751000Y-44107259D01*
X197751000Y-44284741D01*
X197716376Y-44458812D01*
X197648456Y-44622784D01*
X197549853Y-44770354D01*
X197424354Y-44895853D01*
X197276784Y-44994456D01*
X197112812Y-45062376D01*
X196963512Y-45092073D01*
X196938742Y-45097000D01*
X196761258Y-45097000D01*
X196736488Y-45092073D01*
X196587188Y-45062376D01*
X196423216Y-44994456D01*
X196275646Y-44895853D01*
X196150147Y-44770354D01*
X196051544Y-44622784D01*
X195983624Y-44458812D01*
X195949000Y-44284741D01*
X195949000Y-44107259D01*
X195983624Y-43933188D01*
X196051544Y-43769216D01*
X196150147Y-43621646D01*
X196275646Y-43496147D01*
X196423216Y-43397544D01*
X196587188Y-43329624D01*
X196736488Y-43299927D01*
X196761258Y-43295000D01*
X196938742Y-43295000D01*
X196963512Y-43299927D01*
G37*
G36*
X202043512Y-43299927D02*
G01*
X202192812Y-43329624D01*
X202356784Y-43397544D01*
X202504354Y-43496147D01*
X202629853Y-43621646D01*
X202728456Y-43769216D01*
X202796376Y-43933188D01*
X202831000Y-44107259D01*
X202831000Y-44284741D01*
X202796376Y-44458812D01*
X202728456Y-44622784D01*
X202629853Y-44770354D01*
X202504354Y-44895853D01*
X202356784Y-44994456D01*
X202192812Y-45062376D01*
X202043512Y-45092073D01*
X202018742Y-45097000D01*
X201841258Y-45097000D01*
X201816488Y-45092073D01*
X201667188Y-45062376D01*
X201503216Y-44994456D01*
X201355646Y-44895853D01*
X201230147Y-44770354D01*
X201131544Y-44622784D01*
X201063624Y-44458812D01*
X201029000Y-44284741D01*
X201029000Y-44107259D01*
X201063624Y-43933188D01*
X201131544Y-43769216D01*
X201230147Y-43621646D01*
X201355646Y-43496147D01*
X201503216Y-43397544D01*
X201667188Y-43329624D01*
X201816488Y-43299927D01*
X201841258Y-43295000D01*
X202018742Y-43295000D01*
X202043512Y-43299927D01*
G37*
G36*
X194423512Y-43299927D02*
G01*
X194572812Y-43329624D01*
X194736784Y-43397544D01*
X194884354Y-43496147D01*
X195009853Y-43621646D01*
X195108456Y-43769216D01*
X195176376Y-43933188D01*
X195211000Y-44107259D01*
X195211000Y-44284741D01*
X195176376Y-44458812D01*
X195108456Y-44622784D01*
X195009853Y-44770354D01*
X194884354Y-44895853D01*
X194736784Y-44994456D01*
X194572812Y-45062376D01*
X194423512Y-45092073D01*
X194398742Y-45097000D01*
X194221258Y-45097000D01*
X194196488Y-45092073D01*
X194047188Y-45062376D01*
X193883216Y-44994456D01*
X193735646Y-44895853D01*
X193610147Y-44770354D01*
X193511544Y-44622784D01*
X193443624Y-44458812D01*
X193409000Y-44284741D01*
X193409000Y-44107259D01*
X193443624Y-43933188D01*
X193511544Y-43769216D01*
X193610147Y-43621646D01*
X193735646Y-43496147D01*
X193883216Y-43397544D01*
X194047188Y-43329624D01*
X194196488Y-43299927D01*
X194221258Y-43295000D01*
X194398742Y-43295000D01*
X194423512Y-43299927D01*
G37*
G36*
X191883512Y-43299927D02*
G01*
X192032812Y-43329624D01*
X192196784Y-43397544D01*
X192344354Y-43496147D01*
X192469853Y-43621646D01*
X192568456Y-43769216D01*
X192636376Y-43933188D01*
X192671000Y-44107259D01*
X192671000Y-44284741D01*
X192636376Y-44458812D01*
X192568456Y-44622784D01*
X192469853Y-44770354D01*
X192344354Y-44895853D01*
X192196784Y-44994456D01*
X192032812Y-45062376D01*
X191883512Y-45092073D01*
X191858742Y-45097000D01*
X191681258Y-45097000D01*
X191656488Y-45092073D01*
X191507188Y-45062376D01*
X191343216Y-44994456D01*
X191195646Y-44895853D01*
X191070147Y-44770354D01*
X190971544Y-44622784D01*
X190903624Y-44458812D01*
X190869000Y-44284741D01*
X190869000Y-44107259D01*
X190903624Y-43933188D01*
X190971544Y-43769216D01*
X191070147Y-43621646D01*
X191195646Y-43496147D01*
X191343216Y-43397544D01*
X191507188Y-43329624D01*
X191656488Y-43299927D01*
X191681258Y-43295000D01*
X191858742Y-43295000D01*
X191883512Y-43299927D01*
G37*
G36*
X189343512Y-43299927D02*
G01*
X189492812Y-43329624D01*
X189656784Y-43397544D01*
X189804354Y-43496147D01*
X189929853Y-43621646D01*
X190028456Y-43769216D01*
X190096376Y-43933188D01*
X190131000Y-44107259D01*
X190131000Y-44284741D01*
X190096376Y-44458812D01*
X190028456Y-44622784D01*
X189929853Y-44770354D01*
X189804354Y-44895853D01*
X189656784Y-44994456D01*
X189492812Y-45062376D01*
X189343512Y-45092073D01*
X189318742Y-45097000D01*
X189141258Y-45097000D01*
X189116488Y-45092073D01*
X188967188Y-45062376D01*
X188803216Y-44994456D01*
X188655646Y-44895853D01*
X188530147Y-44770354D01*
X188431544Y-44622784D01*
X188363624Y-44458812D01*
X188329000Y-44284741D01*
X188329000Y-44107259D01*
X188363624Y-43933188D01*
X188431544Y-43769216D01*
X188530147Y-43621646D01*
X188655646Y-43496147D01*
X188803216Y-43397544D01*
X188967188Y-43329624D01*
X189116488Y-43299927D01*
X189141258Y-43295000D01*
X189318742Y-43295000D01*
X189343512Y-43299927D01*
G37*
G36*
X186803512Y-43299927D02*
G01*
X186952812Y-43329624D01*
X187116784Y-43397544D01*
X187264354Y-43496147D01*
X187389853Y-43621646D01*
X187488456Y-43769216D01*
X187556376Y-43933188D01*
X187591000Y-44107259D01*
X187591000Y-44284741D01*
X187556376Y-44458812D01*
X187488456Y-44622784D01*
X187389853Y-44770354D01*
X187264354Y-44895853D01*
X187116784Y-44994456D01*
X186952812Y-45062376D01*
X186803512Y-45092073D01*
X186778742Y-45097000D01*
X186601258Y-45097000D01*
X186576488Y-45092073D01*
X186427188Y-45062376D01*
X186263216Y-44994456D01*
X186115646Y-44895853D01*
X185990147Y-44770354D01*
X185891544Y-44622784D01*
X185823624Y-44458812D01*
X185789000Y-44284741D01*
X185789000Y-44107259D01*
X185823624Y-43933188D01*
X185891544Y-43769216D01*
X185990147Y-43621646D01*
X186115646Y-43496147D01*
X186263216Y-43397544D01*
X186427188Y-43329624D01*
X186576488Y-43299927D01*
X186601258Y-43295000D01*
X186778742Y-43295000D01*
X186803512Y-43299927D01*
G37*
G36*
X184263512Y-43299927D02*
G01*
X184412812Y-43329624D01*
X184576784Y-43397544D01*
X184724354Y-43496147D01*
X184849853Y-43621646D01*
X184948456Y-43769216D01*
X185016376Y-43933188D01*
X185051000Y-44107259D01*
X185051000Y-44284741D01*
X185016376Y-44458812D01*
X184948456Y-44622784D01*
X184849853Y-44770354D01*
X184724354Y-44895853D01*
X184576784Y-44994456D01*
X184412812Y-45062376D01*
X184263512Y-45092073D01*
X184238742Y-45097000D01*
X184061258Y-45097000D01*
X184036488Y-45092073D01*
X183887188Y-45062376D01*
X183723216Y-44994456D01*
X183575646Y-44895853D01*
X183450147Y-44770354D01*
X183351544Y-44622784D01*
X183283624Y-44458812D01*
X183249000Y-44284741D01*
X183249000Y-44107259D01*
X183283624Y-43933188D01*
X183351544Y-43769216D01*
X183450147Y-43621646D01*
X183575646Y-43496147D01*
X183723216Y-43397544D01*
X183887188Y-43329624D01*
X184036488Y-43299927D01*
X184061258Y-43295000D01*
X184238742Y-43295000D01*
X184263512Y-43299927D01*
G37*
G36*
X181723512Y-43299927D02*
G01*
X181872812Y-43329624D01*
X182036784Y-43397544D01*
X182184354Y-43496147D01*
X182309853Y-43621646D01*
X182408456Y-43769216D01*
X182476376Y-43933188D01*
X182511000Y-44107259D01*
X182511000Y-44284741D01*
X182476376Y-44458812D01*
X182408456Y-44622784D01*
X182309853Y-44770354D01*
X182184354Y-44895853D01*
X182036784Y-44994456D01*
X181872812Y-45062376D01*
X181723512Y-45092073D01*
X181698742Y-45097000D01*
X181521258Y-45097000D01*
X181496488Y-45092073D01*
X181347188Y-45062376D01*
X181183216Y-44994456D01*
X181035646Y-44895853D01*
X180910147Y-44770354D01*
X180811544Y-44622784D01*
X180743624Y-44458812D01*
X180709000Y-44284741D01*
X180709000Y-44107259D01*
X180743624Y-43933188D01*
X180811544Y-43769216D01*
X180910147Y-43621646D01*
X181035646Y-43496147D01*
X181183216Y-43397544D01*
X181347188Y-43329624D01*
X181496488Y-43299927D01*
X181521258Y-43295000D01*
X181698742Y-43295000D01*
X181723512Y-43299927D01*
G37*
G36*
X179183512Y-43299927D02*
G01*
X179332812Y-43329624D01*
X179496784Y-43397544D01*
X179644354Y-43496147D01*
X179769853Y-43621646D01*
X179868456Y-43769216D01*
X179936376Y-43933188D01*
X179971000Y-44107259D01*
X179971000Y-44284741D01*
X179936376Y-44458812D01*
X179868456Y-44622784D01*
X179769853Y-44770354D01*
X179644354Y-44895853D01*
X179496784Y-44994456D01*
X179332812Y-45062376D01*
X179183512Y-45092073D01*
X179158742Y-45097000D01*
X178981258Y-45097000D01*
X178956488Y-45092073D01*
X178807188Y-45062376D01*
X178643216Y-44994456D01*
X178495646Y-44895853D01*
X178370147Y-44770354D01*
X178271544Y-44622784D01*
X178203624Y-44458812D01*
X178169000Y-44284741D01*
X178169000Y-44107259D01*
X178203624Y-43933188D01*
X178271544Y-43769216D01*
X178370147Y-43621646D01*
X178495646Y-43496147D01*
X178643216Y-43397544D01*
X178807188Y-43329624D01*
X178956488Y-43299927D01*
X178981258Y-43295000D01*
X179158742Y-43295000D01*
X179183512Y-43299927D01*
G37*
G36*
X176643512Y-43299927D02*
G01*
X176792812Y-43329624D01*
X176956784Y-43397544D01*
X177104354Y-43496147D01*
X177229853Y-43621646D01*
X177328456Y-43769216D01*
X177396376Y-43933188D01*
X177431000Y-44107259D01*
X177431000Y-44284741D01*
X177396376Y-44458812D01*
X177328456Y-44622784D01*
X177229853Y-44770354D01*
X177104354Y-44895853D01*
X176956784Y-44994456D01*
X176792812Y-45062376D01*
X176643512Y-45092073D01*
X176618742Y-45097000D01*
X176441258Y-45097000D01*
X176416488Y-45092073D01*
X176267188Y-45062376D01*
X176103216Y-44994456D01*
X175955646Y-44895853D01*
X175830147Y-44770354D01*
X175731544Y-44622784D01*
X175663624Y-44458812D01*
X175629000Y-44284741D01*
X175629000Y-44107259D01*
X175663624Y-43933188D01*
X175731544Y-43769216D01*
X175830147Y-43621646D01*
X175955646Y-43496147D01*
X176103216Y-43397544D01*
X176267188Y-43329624D01*
X176416488Y-43299927D01*
X176441258Y-43295000D01*
X176618742Y-43295000D01*
X176643512Y-43299927D01*
G37*
G36*
X174103512Y-43299927D02*
G01*
X174252812Y-43329624D01*
X174416784Y-43397544D01*
X174564354Y-43496147D01*
X174689853Y-43621646D01*
X174788456Y-43769216D01*
X174856376Y-43933188D01*
X174891000Y-44107259D01*
X174891000Y-44284741D01*
X174856376Y-44458812D01*
X174788456Y-44622784D01*
X174689853Y-44770354D01*
X174564354Y-44895853D01*
X174416784Y-44994456D01*
X174252812Y-45062376D01*
X174103512Y-45092073D01*
X174078742Y-45097000D01*
X173901258Y-45097000D01*
X173876488Y-45092073D01*
X173727188Y-45062376D01*
X173563216Y-44994456D01*
X173415646Y-44895853D01*
X173290147Y-44770354D01*
X173191544Y-44622784D01*
X173123624Y-44458812D01*
X173089000Y-44284741D01*
X173089000Y-44107259D01*
X173123624Y-43933188D01*
X173191544Y-43769216D01*
X173290147Y-43621646D01*
X173415646Y-43496147D01*
X173563216Y-43397544D01*
X173727188Y-43329624D01*
X173876488Y-43299927D01*
X173901258Y-43295000D01*
X174078742Y-43295000D01*
X174103512Y-43299927D01*
G37*
G36*
X171563512Y-43299927D02*
G01*
X171712812Y-43329624D01*
X171876784Y-43397544D01*
X172024354Y-43496147D01*
X172149853Y-43621646D01*
X172248456Y-43769216D01*
X172316376Y-43933188D01*
X172351000Y-44107259D01*
X172351000Y-44284741D01*
X172316376Y-44458812D01*
X172248456Y-44622784D01*
X172149853Y-44770354D01*
X172024354Y-44895853D01*
X171876784Y-44994456D01*
X171712812Y-45062376D01*
X171563512Y-45092073D01*
X171538742Y-45097000D01*
X171361258Y-45097000D01*
X171336488Y-45092073D01*
X171187188Y-45062376D01*
X171023216Y-44994456D01*
X170875646Y-44895853D01*
X170750147Y-44770354D01*
X170651544Y-44622784D01*
X170583624Y-44458812D01*
X170549000Y-44284741D01*
X170549000Y-44107259D01*
X170583624Y-43933188D01*
X170651544Y-43769216D01*
X170750147Y-43621646D01*
X170875646Y-43496147D01*
X171023216Y-43397544D01*
X171187188Y-43329624D01*
X171336488Y-43299927D01*
X171361258Y-43295000D01*
X171538742Y-43295000D01*
X171563512Y-43299927D01*
G37*
G36*
X141871000Y-45097000D02*
G01*
X140069000Y-45097000D01*
X140069000Y-43295000D01*
X141871000Y-43295000D01*
X141871000Y-45097000D01*
G37*
G36*
X166483512Y-43299927D02*
G01*
X166632812Y-43329624D01*
X166796784Y-43397544D01*
X166944354Y-43496147D01*
X167069853Y-43621646D01*
X167168456Y-43769216D01*
X167236376Y-43933188D01*
X167271000Y-44107259D01*
X167271000Y-44284741D01*
X167236376Y-44458812D01*
X167168456Y-44622784D01*
X167069853Y-44770354D01*
X166944354Y-44895853D01*
X166796784Y-44994456D01*
X166632812Y-45062376D01*
X166483512Y-45092073D01*
X166458742Y-45097000D01*
X166281258Y-45097000D01*
X166256488Y-45092073D01*
X166107188Y-45062376D01*
X165943216Y-44994456D01*
X165795646Y-44895853D01*
X165670147Y-44770354D01*
X165571544Y-44622784D01*
X165503624Y-44458812D01*
X165469000Y-44284741D01*
X165469000Y-44107259D01*
X165503624Y-43933188D01*
X165571544Y-43769216D01*
X165670147Y-43621646D01*
X165795646Y-43496147D01*
X165943216Y-43397544D01*
X166107188Y-43329624D01*
X166256488Y-43299927D01*
X166281258Y-43295000D01*
X166458742Y-43295000D01*
X166483512Y-43299927D01*
G37*
G36*
X163943512Y-43299927D02*
G01*
X164092812Y-43329624D01*
X164256784Y-43397544D01*
X164404354Y-43496147D01*
X164529853Y-43621646D01*
X164628456Y-43769216D01*
X164696376Y-43933188D01*
X164731000Y-44107259D01*
X164731000Y-44284741D01*
X164696376Y-44458812D01*
X164628456Y-44622784D01*
X164529853Y-44770354D01*
X164404354Y-44895853D01*
X164256784Y-44994456D01*
X164092812Y-45062376D01*
X163943512Y-45092073D01*
X163918742Y-45097000D01*
X163741258Y-45097000D01*
X163716488Y-45092073D01*
X163567188Y-45062376D01*
X163403216Y-44994456D01*
X163255646Y-44895853D01*
X163130147Y-44770354D01*
X163031544Y-44622784D01*
X162963624Y-44458812D01*
X162929000Y-44284741D01*
X162929000Y-44107259D01*
X162963624Y-43933188D01*
X163031544Y-43769216D01*
X163130147Y-43621646D01*
X163255646Y-43496147D01*
X163403216Y-43397544D01*
X163567188Y-43329624D01*
X163716488Y-43299927D01*
X163741258Y-43295000D01*
X163918742Y-43295000D01*
X163943512Y-43299927D01*
G37*
G36*
X161403512Y-43299927D02*
G01*
X161552812Y-43329624D01*
X161716784Y-43397544D01*
X161864354Y-43496147D01*
X161989853Y-43621646D01*
X162088456Y-43769216D01*
X162156376Y-43933188D01*
X162191000Y-44107259D01*
X162191000Y-44284741D01*
X162156376Y-44458812D01*
X162088456Y-44622784D01*
X161989853Y-44770354D01*
X161864354Y-44895853D01*
X161716784Y-44994456D01*
X161552812Y-45062376D01*
X161403512Y-45092073D01*
X161378742Y-45097000D01*
X161201258Y-45097000D01*
X161176488Y-45092073D01*
X161027188Y-45062376D01*
X160863216Y-44994456D01*
X160715646Y-44895853D01*
X160590147Y-44770354D01*
X160491544Y-44622784D01*
X160423624Y-44458812D01*
X160389000Y-44284741D01*
X160389000Y-44107259D01*
X160423624Y-43933188D01*
X160491544Y-43769216D01*
X160590147Y-43621646D01*
X160715646Y-43496147D01*
X160863216Y-43397544D01*
X161027188Y-43329624D01*
X161176488Y-43299927D01*
X161201258Y-43295000D01*
X161378742Y-43295000D01*
X161403512Y-43299927D01*
G37*
G36*
X169023512Y-43299927D02*
G01*
X169172812Y-43329624D01*
X169336784Y-43397544D01*
X169484354Y-43496147D01*
X169609853Y-43621646D01*
X169708456Y-43769216D01*
X169776376Y-43933188D01*
X169811000Y-44107259D01*
X169811000Y-44284741D01*
X169776376Y-44458812D01*
X169708456Y-44622784D01*
X169609853Y-44770354D01*
X169484354Y-44895853D01*
X169336784Y-44994456D01*
X169172812Y-45062376D01*
X169023512Y-45092073D01*
X168998742Y-45097000D01*
X168821258Y-45097000D01*
X168796488Y-45092073D01*
X168647188Y-45062376D01*
X168483216Y-44994456D01*
X168335646Y-44895853D01*
X168210147Y-44770354D01*
X168111544Y-44622784D01*
X168043624Y-44458812D01*
X168009000Y-44284741D01*
X168009000Y-44107259D01*
X168043624Y-43933188D01*
X168111544Y-43769216D01*
X168210147Y-43621646D01*
X168335646Y-43496147D01*
X168483216Y-43397544D01*
X168647188Y-43329624D01*
X168796488Y-43299927D01*
X168821258Y-43295000D01*
X168998742Y-43295000D01*
X169023512Y-43299927D01*
G37*
G36*
X158863512Y-43299927D02*
G01*
X159012812Y-43329624D01*
X159176784Y-43397544D01*
X159324354Y-43496147D01*
X159449853Y-43621646D01*
X159548456Y-43769216D01*
X159616376Y-43933188D01*
X159651000Y-44107259D01*
X159651000Y-44284741D01*
X159616376Y-44458812D01*
X159548456Y-44622784D01*
X159449853Y-44770354D01*
X159324354Y-44895853D01*
X159176784Y-44994456D01*
X159012812Y-45062376D01*
X158863512Y-45092073D01*
X158838742Y-45097000D01*
X158661258Y-45097000D01*
X158636488Y-45092073D01*
X158487188Y-45062376D01*
X158323216Y-44994456D01*
X158175646Y-44895853D01*
X158050147Y-44770354D01*
X157951544Y-44622784D01*
X157883624Y-44458812D01*
X157849000Y-44284741D01*
X157849000Y-44107259D01*
X157883624Y-43933188D01*
X157951544Y-43769216D01*
X158050147Y-43621646D01*
X158175646Y-43496147D01*
X158323216Y-43397544D01*
X158487188Y-43329624D01*
X158636488Y-43299927D01*
X158661258Y-43295000D01*
X158838742Y-43295000D01*
X158863512Y-43299927D01*
G37*
G36*
X156323512Y-43299927D02*
G01*
X156472812Y-43329624D01*
X156636784Y-43397544D01*
X156784354Y-43496147D01*
X156909853Y-43621646D01*
X157008456Y-43769216D01*
X157076376Y-43933188D01*
X157111000Y-44107259D01*
X157111000Y-44284741D01*
X157076376Y-44458812D01*
X157008456Y-44622784D01*
X156909853Y-44770354D01*
X156784354Y-44895853D01*
X156636784Y-44994456D01*
X156472812Y-45062376D01*
X156323512Y-45092073D01*
X156298742Y-45097000D01*
X156121258Y-45097000D01*
X156096488Y-45092073D01*
X155947188Y-45062376D01*
X155783216Y-44994456D01*
X155635646Y-44895853D01*
X155510147Y-44770354D01*
X155411544Y-44622784D01*
X155343624Y-44458812D01*
X155309000Y-44284741D01*
X155309000Y-44107259D01*
X155343624Y-43933188D01*
X155411544Y-43769216D01*
X155510147Y-43621646D01*
X155635646Y-43496147D01*
X155783216Y-43397544D01*
X155947188Y-43329624D01*
X156096488Y-43299927D01*
X156121258Y-43295000D01*
X156298742Y-43295000D01*
X156323512Y-43299927D01*
G37*
G36*
X153783512Y-43299927D02*
G01*
X153932812Y-43329624D01*
X154096784Y-43397544D01*
X154244354Y-43496147D01*
X154369853Y-43621646D01*
X154468456Y-43769216D01*
X154536376Y-43933188D01*
X154571000Y-44107259D01*
X154571000Y-44284741D01*
X154536376Y-44458812D01*
X154468456Y-44622784D01*
X154369853Y-44770354D01*
X154244354Y-44895853D01*
X154096784Y-44994456D01*
X153932812Y-45062376D01*
X153783512Y-45092073D01*
X153758742Y-45097000D01*
X153581258Y-45097000D01*
X153556488Y-45092073D01*
X153407188Y-45062376D01*
X153243216Y-44994456D01*
X153095646Y-44895853D01*
X152970147Y-44770354D01*
X152871544Y-44622784D01*
X152803624Y-44458812D01*
X152769000Y-44284741D01*
X152769000Y-44107259D01*
X152803624Y-43933188D01*
X152871544Y-43769216D01*
X152970147Y-43621646D01*
X153095646Y-43496147D01*
X153243216Y-43397544D01*
X153407188Y-43329624D01*
X153556488Y-43299927D01*
X153581258Y-43295000D01*
X153758742Y-43295000D01*
X153783512Y-43299927D01*
G37*
G36*
X151243512Y-43299927D02*
G01*
X151392812Y-43329624D01*
X151556784Y-43397544D01*
X151704354Y-43496147D01*
X151829853Y-43621646D01*
X151928456Y-43769216D01*
X151996376Y-43933188D01*
X152031000Y-44107259D01*
X152031000Y-44284741D01*
X151996376Y-44458812D01*
X151928456Y-44622784D01*
X151829853Y-44770354D01*
X151704354Y-44895853D01*
X151556784Y-44994456D01*
X151392812Y-45062376D01*
X151243512Y-45092073D01*
X151218742Y-45097000D01*
X151041258Y-45097000D01*
X151016488Y-45092073D01*
X150867188Y-45062376D01*
X150703216Y-44994456D01*
X150555646Y-44895853D01*
X150430147Y-44770354D01*
X150331544Y-44622784D01*
X150263624Y-44458812D01*
X150229000Y-44284741D01*
X150229000Y-44107259D01*
X150263624Y-43933188D01*
X150331544Y-43769216D01*
X150430147Y-43621646D01*
X150555646Y-43496147D01*
X150703216Y-43397544D01*
X150867188Y-43329624D01*
X151016488Y-43299927D01*
X151041258Y-43295000D01*
X151218742Y-43295000D01*
X151243512Y-43299927D01*
G37*
G36*
X148703512Y-43299927D02*
G01*
X148852812Y-43329624D01*
X149016784Y-43397544D01*
X149164354Y-43496147D01*
X149289853Y-43621646D01*
X149388456Y-43769216D01*
X149456376Y-43933188D01*
X149491000Y-44107259D01*
X149491000Y-44284741D01*
X149456376Y-44458812D01*
X149388456Y-44622784D01*
X149289853Y-44770354D01*
X149164354Y-44895853D01*
X149016784Y-44994456D01*
X148852812Y-45062376D01*
X148703512Y-45092073D01*
X148678742Y-45097000D01*
X148501258Y-45097000D01*
X148476488Y-45092073D01*
X148327188Y-45062376D01*
X148163216Y-44994456D01*
X148015646Y-44895853D01*
X147890147Y-44770354D01*
X147791544Y-44622784D01*
X147723624Y-44458812D01*
X147689000Y-44284741D01*
X147689000Y-44107259D01*
X147723624Y-43933188D01*
X147791544Y-43769216D01*
X147890147Y-43621646D01*
X148015646Y-43496147D01*
X148163216Y-43397544D01*
X148327188Y-43329624D01*
X148476488Y-43299927D01*
X148501258Y-43295000D01*
X148678742Y-43295000D01*
X148703512Y-43299927D01*
G37*
G36*
X146163512Y-43299927D02*
G01*
X146312812Y-43329624D01*
X146476784Y-43397544D01*
X146624354Y-43496147D01*
X146749853Y-43621646D01*
X146848456Y-43769216D01*
X146916376Y-43933188D01*
X146951000Y-44107259D01*
X146951000Y-44284741D01*
X146916376Y-44458812D01*
X146848456Y-44622784D01*
X146749853Y-44770354D01*
X146624354Y-44895853D01*
X146476784Y-44994456D01*
X146312812Y-45062376D01*
X146163512Y-45092073D01*
X146138742Y-45097000D01*
X145961258Y-45097000D01*
X145936488Y-45092073D01*
X145787188Y-45062376D01*
X145623216Y-44994456D01*
X145475646Y-44895853D01*
X145350147Y-44770354D01*
X145251544Y-44622784D01*
X145183624Y-44458812D01*
X145149000Y-44284741D01*
X145149000Y-44107259D01*
X145183624Y-43933188D01*
X145251544Y-43769216D01*
X145350147Y-43621646D01*
X145475646Y-43496147D01*
X145623216Y-43397544D01*
X145787188Y-43329624D01*
X145936488Y-43299927D01*
X145961258Y-43295000D01*
X146138742Y-43295000D01*
X146163512Y-43299927D01*
G37*
G36*
X143623512Y-43299927D02*
G01*
X143772812Y-43329624D01*
X143936784Y-43397544D01*
X144084354Y-43496147D01*
X144209853Y-43621646D01*
X144308456Y-43769216D01*
X144376376Y-43933188D01*
X144411000Y-44107259D01*
X144411000Y-44284741D01*
X144376376Y-44458812D01*
X144308456Y-44622784D01*
X144209853Y-44770354D01*
X144084354Y-44895853D01*
X143936784Y-44994456D01*
X143772812Y-45062376D01*
X143623512Y-45092073D01*
X143598742Y-45097000D01*
X143421258Y-45097000D01*
X143396488Y-45092073D01*
X143247188Y-45062376D01*
X143083216Y-44994456D01*
X142935646Y-44895853D01*
X142810147Y-44770354D01*
X142711544Y-44622784D01*
X142643624Y-44458812D01*
X142609000Y-44284741D01*
X142609000Y-44107259D01*
X142643624Y-43933188D01*
X142711544Y-43769216D01*
X142810147Y-43621646D01*
X142935646Y-43496147D01*
X143083216Y-43397544D01*
X143247188Y-43329624D01*
X143396488Y-43299927D01*
X143421258Y-43295000D01*
X143598742Y-43295000D01*
X143623512Y-43299927D01*
G37*
G36*
X132591714Y-41757382D02*
G01*
X132719322Y-41782765D01*
X132860148Y-41841097D01*
X132959727Y-41882344D01*
X132959728Y-41882345D01*
X133176089Y-42026912D01*
X133360088Y-42210911D01*
X133373079Y-42230354D01*
X133504656Y-42427273D01*
X133515915Y-42454456D01*
X133604235Y-42667678D01*
X133655000Y-42922893D01*
X133655000Y-43183107D01*
X133604235Y-43438322D01*
X133545903Y-43579148D01*
X133504656Y-43678727D01*
X133504655Y-43678728D01*
X133360088Y-43895089D01*
X133176089Y-44079088D01*
X133081934Y-44142000D01*
X132959727Y-44223656D01*
X132860148Y-44264903D01*
X132719322Y-44323235D01*
X132591715Y-44348617D01*
X132464109Y-44374000D01*
X132203891Y-44374000D01*
X132076286Y-44348618D01*
X131948678Y-44323235D01*
X131807852Y-44264903D01*
X131708273Y-44223656D01*
X131586066Y-44142000D01*
X131491911Y-44079088D01*
X131307912Y-43895089D01*
X131163345Y-43678728D01*
X131163344Y-43678727D01*
X131122097Y-43579148D01*
X131063765Y-43438322D01*
X131013000Y-43183107D01*
X131013000Y-42922893D01*
X131063765Y-42667678D01*
X131152085Y-42454456D01*
X131163344Y-42427273D01*
X131294921Y-42230354D01*
X131307912Y-42210911D01*
X131491911Y-42026912D01*
X131708272Y-41882345D01*
X131708273Y-41882344D01*
X131807852Y-41841097D01*
X131948678Y-41782765D01*
X132076286Y-41757382D01*
X132203891Y-41732000D01*
X132464109Y-41732000D01*
X132591714Y-41757382D01*
G37*
G36*
X112271714Y-41757382D02*
G01*
X112399322Y-41782765D01*
X112540148Y-41841097D01*
X112639727Y-41882344D01*
X112639728Y-41882345D01*
X112856089Y-42026912D01*
X113040088Y-42210911D01*
X113053079Y-42230354D01*
X113184656Y-42427273D01*
X113195915Y-42454456D01*
X113284235Y-42667678D01*
X113335000Y-42922893D01*
X113335000Y-43183107D01*
X113284235Y-43438322D01*
X113225903Y-43579148D01*
X113184656Y-43678727D01*
X113184655Y-43678728D01*
X113040088Y-43895089D01*
X112856089Y-44079088D01*
X112761934Y-44142000D01*
X112639727Y-44223656D01*
X112540148Y-44264903D01*
X112399322Y-44323235D01*
X112271715Y-44348617D01*
X112144109Y-44374000D01*
X111883891Y-44374000D01*
X111756286Y-44348618D01*
X111628678Y-44323235D01*
X111487852Y-44264903D01*
X111388273Y-44223656D01*
X111266066Y-44142000D01*
X111171911Y-44079088D01*
X110987912Y-43895089D01*
X110843345Y-43678728D01*
X110843344Y-43678727D01*
X110802097Y-43579148D01*
X110743765Y-43438322D01*
X110693000Y-43183107D01*
X110693000Y-42922893D01*
X110743765Y-42667678D01*
X110832085Y-42454456D01*
X110843344Y-42427273D01*
X110974921Y-42230354D01*
X110987912Y-42210911D01*
X111171911Y-42026912D01*
X111388272Y-41882345D01*
X111388273Y-41882344D01*
X111487852Y-41841097D01*
X111628678Y-41782765D01*
X111756286Y-41757382D01*
X111883891Y-41732000D01*
X112144109Y-41732000D01*
X112271714Y-41757382D01*
G37*
G36*
X153783512Y-40759927D02*
G01*
X153932812Y-40789624D01*
X154096784Y-40857544D01*
X154244354Y-40956147D01*
X154369853Y-41081646D01*
X154468456Y-41229216D01*
X154536376Y-41393188D01*
X154571000Y-41567259D01*
X154571000Y-41744741D01*
X154536376Y-41918812D01*
X154468456Y-42082784D01*
X154369853Y-42230354D01*
X154244354Y-42355853D01*
X154096784Y-42454456D01*
X153932812Y-42522376D01*
X153783512Y-42552073D01*
X153758742Y-42557000D01*
X153581258Y-42557000D01*
X153556488Y-42552073D01*
X153407188Y-42522376D01*
X153243216Y-42454456D01*
X153095646Y-42355853D01*
X152970147Y-42230354D01*
X152871544Y-42082784D01*
X152803624Y-41918812D01*
X152769000Y-41744741D01*
X152769000Y-41567259D01*
X152803624Y-41393188D01*
X152871544Y-41229216D01*
X152970147Y-41081646D01*
X153095646Y-40956147D01*
X153243216Y-40857544D01*
X153407188Y-40789624D01*
X153556488Y-40759927D01*
X153581258Y-40755000D01*
X153758742Y-40755000D01*
X153783512Y-40759927D01*
G37*
G36*
X156323512Y-40759927D02*
G01*
X156472812Y-40789624D01*
X156636784Y-40857544D01*
X156784354Y-40956147D01*
X156909853Y-41081646D01*
X157008456Y-41229216D01*
X157076376Y-41393188D01*
X157111000Y-41567259D01*
X157111000Y-41744741D01*
X157076376Y-41918812D01*
X157008456Y-42082784D01*
X156909853Y-42230354D01*
X156784354Y-42355853D01*
X156636784Y-42454456D01*
X156472812Y-42522376D01*
X156323512Y-42552073D01*
X156298742Y-42557000D01*
X156121258Y-42557000D01*
X156096488Y-42552073D01*
X155947188Y-42522376D01*
X155783216Y-42454456D01*
X155635646Y-42355853D01*
X155510147Y-42230354D01*
X155411544Y-42082784D01*
X155343624Y-41918812D01*
X155309000Y-41744741D01*
X155309000Y-41567259D01*
X155343624Y-41393188D01*
X155411544Y-41229216D01*
X155510147Y-41081646D01*
X155635646Y-40956147D01*
X155783216Y-40857544D01*
X155947188Y-40789624D01*
X156096488Y-40759927D01*
X156121258Y-40755000D01*
X156298742Y-40755000D01*
X156323512Y-40759927D01*
G37*
G36*
X158863512Y-40759927D02*
G01*
X159012812Y-40789624D01*
X159176784Y-40857544D01*
X159324354Y-40956147D01*
X159449853Y-41081646D01*
X159548456Y-41229216D01*
X159616376Y-41393188D01*
X159651000Y-41567259D01*
X159651000Y-41744741D01*
X159616376Y-41918812D01*
X159548456Y-42082784D01*
X159449853Y-42230354D01*
X159324354Y-42355853D01*
X159176784Y-42454456D01*
X159012812Y-42522376D01*
X158863512Y-42552073D01*
X158838742Y-42557000D01*
X158661258Y-42557000D01*
X158636488Y-42552073D01*
X158487188Y-42522376D01*
X158323216Y-42454456D01*
X158175646Y-42355853D01*
X158050147Y-42230354D01*
X157951544Y-42082784D01*
X157883624Y-41918812D01*
X157849000Y-41744741D01*
X157849000Y-41567259D01*
X157883624Y-41393188D01*
X157951544Y-41229216D01*
X158050147Y-41081646D01*
X158175646Y-40956147D01*
X158323216Y-40857544D01*
X158487188Y-40789624D01*
X158636488Y-40759927D01*
X158661258Y-40755000D01*
X158838742Y-40755000D01*
X158863512Y-40759927D01*
G37*
G36*
X161403512Y-40759927D02*
G01*
X161552812Y-40789624D01*
X161716784Y-40857544D01*
X161864354Y-40956147D01*
X161989853Y-41081646D01*
X162088456Y-41229216D01*
X162156376Y-41393188D01*
X162191000Y-41567259D01*
X162191000Y-41744741D01*
X162156376Y-41918812D01*
X162088456Y-42082784D01*
X161989853Y-42230354D01*
X161864354Y-42355853D01*
X161716784Y-42454456D01*
X161552812Y-42522376D01*
X161403512Y-42552073D01*
X161378742Y-42557000D01*
X161201258Y-42557000D01*
X161176488Y-42552073D01*
X161027188Y-42522376D01*
X160863216Y-42454456D01*
X160715646Y-42355853D01*
X160590147Y-42230354D01*
X160491544Y-42082784D01*
X160423624Y-41918812D01*
X160389000Y-41744741D01*
X160389000Y-41567259D01*
X160423624Y-41393188D01*
X160491544Y-41229216D01*
X160590147Y-41081646D01*
X160715646Y-40956147D01*
X160863216Y-40857544D01*
X161027188Y-40789624D01*
X161176488Y-40759927D01*
X161201258Y-40755000D01*
X161378742Y-40755000D01*
X161403512Y-40759927D01*
G37*
G36*
X163943512Y-40759927D02*
G01*
X164092812Y-40789624D01*
X164256784Y-40857544D01*
X164404354Y-40956147D01*
X164529853Y-41081646D01*
X164628456Y-41229216D01*
X164696376Y-41393188D01*
X164731000Y-41567259D01*
X164731000Y-41744741D01*
X164696376Y-41918812D01*
X164628456Y-42082784D01*
X164529853Y-42230354D01*
X164404354Y-42355853D01*
X164256784Y-42454456D01*
X164092812Y-42522376D01*
X163943512Y-42552073D01*
X163918742Y-42557000D01*
X163741258Y-42557000D01*
X163716488Y-42552073D01*
X163567188Y-42522376D01*
X163403216Y-42454456D01*
X163255646Y-42355853D01*
X163130147Y-42230354D01*
X163031544Y-42082784D01*
X162963624Y-41918812D01*
X162929000Y-41744741D01*
X162929000Y-41567259D01*
X162963624Y-41393188D01*
X163031544Y-41229216D01*
X163130147Y-41081646D01*
X163255646Y-40956147D01*
X163403216Y-40857544D01*
X163567188Y-40789624D01*
X163716488Y-40759927D01*
X163741258Y-40755000D01*
X163918742Y-40755000D01*
X163943512Y-40759927D01*
G37*
G36*
X166483512Y-40759927D02*
G01*
X166632812Y-40789624D01*
X166796784Y-40857544D01*
X166944354Y-40956147D01*
X167069853Y-41081646D01*
X167168456Y-41229216D01*
X167236376Y-41393188D01*
X167271000Y-41567259D01*
X167271000Y-41744741D01*
X167236376Y-41918812D01*
X167168456Y-42082784D01*
X167069853Y-42230354D01*
X166944354Y-42355853D01*
X166796784Y-42454456D01*
X166632812Y-42522376D01*
X166483512Y-42552073D01*
X166458742Y-42557000D01*
X166281258Y-42557000D01*
X166256488Y-42552073D01*
X166107188Y-42522376D01*
X165943216Y-42454456D01*
X165795646Y-42355853D01*
X165670147Y-42230354D01*
X165571544Y-42082784D01*
X165503624Y-41918812D01*
X165469000Y-41744741D01*
X165469000Y-41567259D01*
X165503624Y-41393188D01*
X165571544Y-41229216D01*
X165670147Y-41081646D01*
X165795646Y-40956147D01*
X165943216Y-40857544D01*
X166107188Y-40789624D01*
X166256488Y-40759927D01*
X166281258Y-40755000D01*
X166458742Y-40755000D01*
X166483512Y-40759927D01*
G37*
G36*
X169023512Y-40759927D02*
G01*
X169172812Y-40789624D01*
X169336784Y-40857544D01*
X169484354Y-40956147D01*
X169609853Y-41081646D01*
X169708456Y-41229216D01*
X169776376Y-41393188D01*
X169811000Y-41567259D01*
X169811000Y-41744741D01*
X169776376Y-41918812D01*
X169708456Y-42082784D01*
X169609853Y-42230354D01*
X169484354Y-42355853D01*
X169336784Y-42454456D01*
X169172812Y-42522376D01*
X169023512Y-42552073D01*
X168998742Y-42557000D01*
X168821258Y-42557000D01*
X168796488Y-42552073D01*
X168647188Y-42522376D01*
X168483216Y-42454456D01*
X168335646Y-42355853D01*
X168210147Y-42230354D01*
X168111544Y-42082784D01*
X168043624Y-41918812D01*
X168009000Y-41744741D01*
X168009000Y-41567259D01*
X168043624Y-41393188D01*
X168111544Y-41229216D01*
X168210147Y-41081646D01*
X168335646Y-40956147D01*
X168483216Y-40857544D01*
X168647188Y-40789624D01*
X168796488Y-40759927D01*
X168821258Y-40755000D01*
X168998742Y-40755000D01*
X169023512Y-40759927D01*
G37*
G36*
X171563512Y-40759927D02*
G01*
X171712812Y-40789624D01*
X171876784Y-40857544D01*
X172024354Y-40956147D01*
X172149853Y-41081646D01*
X172248456Y-41229216D01*
X172316376Y-41393188D01*
X172351000Y-41567259D01*
X172351000Y-41744741D01*
X172316376Y-41918812D01*
X172248456Y-42082784D01*
X172149853Y-42230354D01*
X172024354Y-42355853D01*
X171876784Y-42454456D01*
X171712812Y-42522376D01*
X171563512Y-42552073D01*
X171538742Y-42557000D01*
X171361258Y-42557000D01*
X171336488Y-42552073D01*
X171187188Y-42522376D01*
X171023216Y-42454456D01*
X170875646Y-42355853D01*
X170750147Y-42230354D01*
X170651544Y-42082784D01*
X170583624Y-41918812D01*
X170549000Y-41744741D01*
X170549000Y-41567259D01*
X170583624Y-41393188D01*
X170651544Y-41229216D01*
X170750147Y-41081646D01*
X170875646Y-40956147D01*
X171023216Y-40857544D01*
X171187188Y-40789624D01*
X171336488Y-40759927D01*
X171361258Y-40755000D01*
X171538742Y-40755000D01*
X171563512Y-40759927D01*
G37*
G36*
X174103512Y-40759927D02*
G01*
X174252812Y-40789624D01*
X174416784Y-40857544D01*
X174564354Y-40956147D01*
X174689853Y-41081646D01*
X174788456Y-41229216D01*
X174856376Y-41393188D01*
X174891000Y-41567259D01*
X174891000Y-41744741D01*
X174856376Y-41918812D01*
X174788456Y-42082784D01*
X174689853Y-42230354D01*
X174564354Y-42355853D01*
X174416784Y-42454456D01*
X174252812Y-42522376D01*
X174103512Y-42552073D01*
X174078742Y-42557000D01*
X173901258Y-42557000D01*
X173876488Y-42552073D01*
X173727188Y-42522376D01*
X173563216Y-42454456D01*
X173415646Y-42355853D01*
X173290147Y-42230354D01*
X173191544Y-42082784D01*
X173123624Y-41918812D01*
X173089000Y-41744741D01*
X173089000Y-41567259D01*
X173123624Y-41393188D01*
X173191544Y-41229216D01*
X173290147Y-41081646D01*
X173415646Y-40956147D01*
X173563216Y-40857544D01*
X173727188Y-40789624D01*
X173876488Y-40759927D01*
X173901258Y-40755000D01*
X174078742Y-40755000D01*
X174103512Y-40759927D01*
G37*
G36*
X176643512Y-40759927D02*
G01*
X176792812Y-40789624D01*
X176956784Y-40857544D01*
X177104354Y-40956147D01*
X177229853Y-41081646D01*
X177328456Y-41229216D01*
X177396376Y-41393188D01*
X177431000Y-41567259D01*
X177431000Y-41744741D01*
X177396376Y-41918812D01*
X177328456Y-42082784D01*
X177229853Y-42230354D01*
X177104354Y-42355853D01*
X176956784Y-42454456D01*
X176792812Y-42522376D01*
X176643512Y-42552073D01*
X176618742Y-42557000D01*
X176441258Y-42557000D01*
X176416488Y-42552073D01*
X176267188Y-42522376D01*
X176103216Y-42454456D01*
X175955646Y-42355853D01*
X175830147Y-42230354D01*
X175731544Y-42082784D01*
X175663624Y-41918812D01*
X175629000Y-41744741D01*
X175629000Y-41567259D01*
X175663624Y-41393188D01*
X175731544Y-41229216D01*
X175830147Y-41081646D01*
X175955646Y-40956147D01*
X176103216Y-40857544D01*
X176267188Y-40789624D01*
X176416488Y-40759927D01*
X176441258Y-40755000D01*
X176618742Y-40755000D01*
X176643512Y-40759927D01*
G37*
G36*
X179183512Y-40759927D02*
G01*
X179332812Y-40789624D01*
X179496784Y-40857544D01*
X179644354Y-40956147D01*
X179769853Y-41081646D01*
X179868456Y-41229216D01*
X179936376Y-41393188D01*
X179971000Y-41567259D01*
X179971000Y-41744741D01*
X179936376Y-41918812D01*
X179868456Y-42082784D01*
X179769853Y-42230354D01*
X179644354Y-42355853D01*
X179496784Y-42454456D01*
X179332812Y-42522376D01*
X179183512Y-42552073D01*
X179158742Y-42557000D01*
X178981258Y-42557000D01*
X178956488Y-42552073D01*
X178807188Y-42522376D01*
X178643216Y-42454456D01*
X178495646Y-42355853D01*
X178370147Y-42230354D01*
X178271544Y-42082784D01*
X178203624Y-41918812D01*
X178169000Y-41744741D01*
X178169000Y-41567259D01*
X178203624Y-41393188D01*
X178271544Y-41229216D01*
X178370147Y-41081646D01*
X178495646Y-40956147D01*
X178643216Y-40857544D01*
X178807188Y-40789624D01*
X178956488Y-40759927D01*
X178981258Y-40755000D01*
X179158742Y-40755000D01*
X179183512Y-40759927D01*
G37*
G36*
X181723512Y-40759927D02*
G01*
X181872812Y-40789624D01*
X182036784Y-40857544D01*
X182184354Y-40956147D01*
X182309853Y-41081646D01*
X182408456Y-41229216D01*
X182476376Y-41393188D01*
X182511000Y-41567259D01*
X182511000Y-41744741D01*
X182476376Y-41918812D01*
X182408456Y-42082784D01*
X182309853Y-42230354D01*
X182184354Y-42355853D01*
X182036784Y-42454456D01*
X181872812Y-42522376D01*
X181723512Y-42552073D01*
X181698742Y-42557000D01*
X181521258Y-42557000D01*
X181496488Y-42552073D01*
X181347188Y-42522376D01*
X181183216Y-42454456D01*
X181035646Y-42355853D01*
X180910147Y-42230354D01*
X180811544Y-42082784D01*
X180743624Y-41918812D01*
X180709000Y-41744741D01*
X180709000Y-41567259D01*
X180743624Y-41393188D01*
X180811544Y-41229216D01*
X180910147Y-41081646D01*
X181035646Y-40956147D01*
X181183216Y-40857544D01*
X181347188Y-40789624D01*
X181496488Y-40759927D01*
X181521258Y-40755000D01*
X181698742Y-40755000D01*
X181723512Y-40759927D01*
G37*
G36*
X184263512Y-40759927D02*
G01*
X184412812Y-40789624D01*
X184576784Y-40857544D01*
X184724354Y-40956147D01*
X184849853Y-41081646D01*
X184948456Y-41229216D01*
X185016376Y-41393188D01*
X185051000Y-41567259D01*
X185051000Y-41744741D01*
X185016376Y-41918812D01*
X184948456Y-42082784D01*
X184849853Y-42230354D01*
X184724354Y-42355853D01*
X184576784Y-42454456D01*
X184412812Y-42522376D01*
X184263512Y-42552073D01*
X184238742Y-42557000D01*
X184061258Y-42557000D01*
X184036488Y-42552073D01*
X183887188Y-42522376D01*
X183723216Y-42454456D01*
X183575646Y-42355853D01*
X183450147Y-42230354D01*
X183351544Y-42082784D01*
X183283624Y-41918812D01*
X183249000Y-41744741D01*
X183249000Y-41567259D01*
X183283624Y-41393188D01*
X183351544Y-41229216D01*
X183450147Y-41081646D01*
X183575646Y-40956147D01*
X183723216Y-40857544D01*
X183887188Y-40789624D01*
X184036488Y-40759927D01*
X184061258Y-40755000D01*
X184238742Y-40755000D01*
X184263512Y-40759927D01*
G37*
G36*
X186803512Y-40759927D02*
G01*
X186952812Y-40789624D01*
X187116784Y-40857544D01*
X187264354Y-40956147D01*
X187389853Y-41081646D01*
X187488456Y-41229216D01*
X187556376Y-41393188D01*
X187591000Y-41567259D01*
X187591000Y-41744741D01*
X187556376Y-41918812D01*
X187488456Y-42082784D01*
X187389853Y-42230354D01*
X187264354Y-42355853D01*
X187116784Y-42454456D01*
X186952812Y-42522376D01*
X186803512Y-42552073D01*
X186778742Y-42557000D01*
X186601258Y-42557000D01*
X186576488Y-42552073D01*
X186427188Y-42522376D01*
X186263216Y-42454456D01*
X186115646Y-42355853D01*
X185990147Y-42230354D01*
X185891544Y-42082784D01*
X185823624Y-41918812D01*
X185789000Y-41744741D01*
X185789000Y-41567259D01*
X185823624Y-41393188D01*
X185891544Y-41229216D01*
X185990147Y-41081646D01*
X186115646Y-40956147D01*
X186263216Y-40857544D01*
X186427188Y-40789624D01*
X186576488Y-40759927D01*
X186601258Y-40755000D01*
X186778742Y-40755000D01*
X186803512Y-40759927D01*
G37*
G36*
X189343512Y-40759927D02*
G01*
X189492812Y-40789624D01*
X189656784Y-40857544D01*
X189804354Y-40956147D01*
X189929853Y-41081646D01*
X190028456Y-41229216D01*
X190096376Y-41393188D01*
X190131000Y-41567259D01*
X190131000Y-41744741D01*
X190096376Y-41918812D01*
X190028456Y-42082784D01*
X189929853Y-42230354D01*
X189804354Y-42355853D01*
X189656784Y-42454456D01*
X189492812Y-42522376D01*
X189343512Y-42552073D01*
X189318742Y-42557000D01*
X189141258Y-42557000D01*
X189116488Y-42552073D01*
X188967188Y-42522376D01*
X188803216Y-42454456D01*
X188655646Y-42355853D01*
X188530147Y-42230354D01*
X188431544Y-42082784D01*
X188363624Y-41918812D01*
X188329000Y-41744741D01*
X188329000Y-41567259D01*
X188363624Y-41393188D01*
X188431544Y-41229216D01*
X188530147Y-41081646D01*
X188655646Y-40956147D01*
X188803216Y-40857544D01*
X188967188Y-40789624D01*
X189116488Y-40759927D01*
X189141258Y-40755000D01*
X189318742Y-40755000D01*
X189343512Y-40759927D01*
G37*
G36*
X191883512Y-40759927D02*
G01*
X192032812Y-40789624D01*
X192196784Y-40857544D01*
X192344354Y-40956147D01*
X192469853Y-41081646D01*
X192568456Y-41229216D01*
X192636376Y-41393188D01*
X192671000Y-41567259D01*
X192671000Y-41744741D01*
X192636376Y-41918812D01*
X192568456Y-42082784D01*
X192469853Y-42230354D01*
X192344354Y-42355853D01*
X192196784Y-42454456D01*
X192032812Y-42522376D01*
X191883512Y-42552073D01*
X191858742Y-42557000D01*
X191681258Y-42557000D01*
X191656488Y-42552073D01*
X191507188Y-42522376D01*
X191343216Y-42454456D01*
X191195646Y-42355853D01*
X191070147Y-42230354D01*
X190971544Y-42082784D01*
X190903624Y-41918812D01*
X190869000Y-41744741D01*
X190869000Y-41567259D01*
X190903624Y-41393188D01*
X190971544Y-41229216D01*
X191070147Y-41081646D01*
X191195646Y-40956147D01*
X191343216Y-40857544D01*
X191507188Y-40789624D01*
X191656488Y-40759927D01*
X191681258Y-40755000D01*
X191858742Y-40755000D01*
X191883512Y-40759927D01*
G37*
G36*
X194423512Y-40759927D02*
G01*
X194572812Y-40789624D01*
X194736784Y-40857544D01*
X194884354Y-40956147D01*
X195009853Y-41081646D01*
X195108456Y-41229216D01*
X195176376Y-41393188D01*
X195211000Y-41567259D01*
X195211000Y-41744741D01*
X195176376Y-41918812D01*
X195108456Y-42082784D01*
X195009853Y-42230354D01*
X194884354Y-42355853D01*
X194736784Y-42454456D01*
X194572812Y-42522376D01*
X194423512Y-42552073D01*
X194398742Y-42557000D01*
X194221258Y-42557000D01*
X194196488Y-42552073D01*
X194047188Y-42522376D01*
X193883216Y-42454456D01*
X193735646Y-42355853D01*
X193610147Y-42230354D01*
X193511544Y-42082784D01*
X193443624Y-41918812D01*
X193409000Y-41744741D01*
X193409000Y-41567259D01*
X193443624Y-41393188D01*
X193511544Y-41229216D01*
X193610147Y-41081646D01*
X193735646Y-40956147D01*
X193883216Y-40857544D01*
X194047188Y-40789624D01*
X194196488Y-40759927D01*
X194221258Y-40755000D01*
X194398742Y-40755000D01*
X194423512Y-40759927D01*
G37*
G36*
X196963512Y-40759927D02*
G01*
X197112812Y-40789624D01*
X197276784Y-40857544D01*
X197424354Y-40956147D01*
X197549853Y-41081646D01*
X197648456Y-41229216D01*
X197716376Y-41393188D01*
X197751000Y-41567259D01*
X197751000Y-41744741D01*
X197716376Y-41918812D01*
X197648456Y-42082784D01*
X197549853Y-42230354D01*
X197424354Y-42355853D01*
X197276784Y-42454456D01*
X197112812Y-42522376D01*
X196963512Y-42552073D01*
X196938742Y-42557000D01*
X196761258Y-42557000D01*
X196736488Y-42552073D01*
X196587188Y-42522376D01*
X196423216Y-42454456D01*
X196275646Y-42355853D01*
X196150147Y-42230354D01*
X196051544Y-42082784D01*
X195983624Y-41918812D01*
X195949000Y-41744741D01*
X195949000Y-41567259D01*
X195983624Y-41393188D01*
X196051544Y-41229216D01*
X196150147Y-41081646D01*
X196275646Y-40956147D01*
X196423216Y-40857544D01*
X196587188Y-40789624D01*
X196736488Y-40759927D01*
X196761258Y-40755000D01*
X196938742Y-40755000D01*
X196963512Y-40759927D01*
G37*
G36*
X199503512Y-40759927D02*
G01*
X199652812Y-40789624D01*
X199816784Y-40857544D01*
X199964354Y-40956147D01*
X200089853Y-41081646D01*
X200188456Y-41229216D01*
X200256376Y-41393188D01*
X200291000Y-41567259D01*
X200291000Y-41744741D01*
X200256376Y-41918812D01*
X200188456Y-42082784D01*
X200089853Y-42230354D01*
X199964354Y-42355853D01*
X199816784Y-42454456D01*
X199652812Y-42522376D01*
X199503512Y-42552073D01*
X199478742Y-42557000D01*
X199301258Y-42557000D01*
X199276488Y-42552073D01*
X199127188Y-42522376D01*
X198963216Y-42454456D01*
X198815646Y-42355853D01*
X198690147Y-42230354D01*
X198591544Y-42082784D01*
X198523624Y-41918812D01*
X198489000Y-41744741D01*
X198489000Y-41567259D01*
X198523624Y-41393188D01*
X198591544Y-41229216D01*
X198690147Y-41081646D01*
X198815646Y-40956147D01*
X198963216Y-40857544D01*
X199127188Y-40789624D01*
X199276488Y-40759927D01*
X199301258Y-40755000D01*
X199478742Y-40755000D01*
X199503512Y-40759927D01*
G37*
G36*
X202043512Y-40759927D02*
G01*
X202192812Y-40789624D01*
X202356784Y-40857544D01*
X202504354Y-40956147D01*
X202629853Y-41081646D01*
X202728456Y-41229216D01*
X202796376Y-41393188D01*
X202831000Y-41567259D01*
X202831000Y-41744741D01*
X202796376Y-41918812D01*
X202728456Y-42082784D01*
X202629853Y-42230354D01*
X202504354Y-42355853D01*
X202356784Y-42454456D01*
X202192812Y-42522376D01*
X202043512Y-42552073D01*
X202018742Y-42557000D01*
X201841258Y-42557000D01*
X201816488Y-42552073D01*
X201667188Y-42522376D01*
X201503216Y-42454456D01*
X201355646Y-42355853D01*
X201230147Y-42230354D01*
X201131544Y-42082784D01*
X201063624Y-41918812D01*
X201029000Y-41744741D01*
X201029000Y-41567259D01*
X201063624Y-41393188D01*
X201131544Y-41229216D01*
X201230147Y-41081646D01*
X201355646Y-40956147D01*
X201503216Y-40857544D01*
X201667188Y-40789624D01*
X201816488Y-40759927D01*
X201841258Y-40755000D01*
X202018742Y-40755000D01*
X202043512Y-40759927D01*
G37*
G36*
X151243512Y-40759927D02*
G01*
X151392812Y-40789624D01*
X151556784Y-40857544D01*
X151704354Y-40956147D01*
X151829853Y-41081646D01*
X151928456Y-41229216D01*
X151996376Y-41393188D01*
X152031000Y-41567259D01*
X152031000Y-41744741D01*
X151996376Y-41918812D01*
X151928456Y-42082784D01*
X151829853Y-42230354D01*
X151704354Y-42355853D01*
X151556784Y-42454456D01*
X151392812Y-42522376D01*
X151243512Y-42552073D01*
X151218742Y-42557000D01*
X151041258Y-42557000D01*
X151016488Y-42552073D01*
X150867188Y-42522376D01*
X150703216Y-42454456D01*
X150555646Y-42355853D01*
X150430147Y-42230354D01*
X150331544Y-42082784D01*
X150263624Y-41918812D01*
X150229000Y-41744741D01*
X150229000Y-41567259D01*
X150263624Y-41393188D01*
X150331544Y-41229216D01*
X150430147Y-41081646D01*
X150555646Y-40956147D01*
X150703216Y-40857544D01*
X150867188Y-40789624D01*
X151016488Y-40759927D01*
X151041258Y-40755000D01*
X151218742Y-40755000D01*
X151243512Y-40759927D01*
G37*
G36*
X148703512Y-40759927D02*
G01*
X148852812Y-40789624D01*
X149016784Y-40857544D01*
X149164354Y-40956147D01*
X149289853Y-41081646D01*
X149388456Y-41229216D01*
X149456376Y-41393188D01*
X149491000Y-41567259D01*
X149491000Y-41744741D01*
X149456376Y-41918812D01*
X149388456Y-42082784D01*
X149289853Y-42230354D01*
X149164354Y-42355853D01*
X149016784Y-42454456D01*
X148852812Y-42522376D01*
X148703512Y-42552073D01*
X148678742Y-42557000D01*
X148501258Y-42557000D01*
X148476488Y-42552073D01*
X148327188Y-42522376D01*
X148163216Y-42454456D01*
X148015646Y-42355853D01*
X147890147Y-42230354D01*
X147791544Y-42082784D01*
X147723624Y-41918812D01*
X147689000Y-41744741D01*
X147689000Y-41567259D01*
X147723624Y-41393188D01*
X147791544Y-41229216D01*
X147890147Y-41081646D01*
X148015646Y-40956147D01*
X148163216Y-40857544D01*
X148327188Y-40789624D01*
X148476488Y-40759927D01*
X148501258Y-40755000D01*
X148678742Y-40755000D01*
X148703512Y-40759927D01*
G37*
G36*
X146163512Y-40759927D02*
G01*
X146312812Y-40789624D01*
X146476784Y-40857544D01*
X146624354Y-40956147D01*
X146749853Y-41081646D01*
X146848456Y-41229216D01*
X146916376Y-41393188D01*
X146951000Y-41567259D01*
X146951000Y-41744741D01*
X146916376Y-41918812D01*
X146848456Y-42082784D01*
X146749853Y-42230354D01*
X146624354Y-42355853D01*
X146476784Y-42454456D01*
X146312812Y-42522376D01*
X146163512Y-42552073D01*
X146138742Y-42557000D01*
X145961258Y-42557000D01*
X145936488Y-42552073D01*
X145787188Y-42522376D01*
X145623216Y-42454456D01*
X145475646Y-42355853D01*
X145350147Y-42230354D01*
X145251544Y-42082784D01*
X145183624Y-41918812D01*
X145149000Y-41744741D01*
X145149000Y-41567259D01*
X145183624Y-41393188D01*
X145251544Y-41229216D01*
X145350147Y-41081646D01*
X145475646Y-40956147D01*
X145623216Y-40857544D01*
X145787188Y-40789624D01*
X145936488Y-40759927D01*
X145961258Y-40755000D01*
X146138742Y-40755000D01*
X146163512Y-40759927D01*
G37*
G36*
X143623512Y-40759927D02*
G01*
X143772812Y-40789624D01*
X143936784Y-40857544D01*
X144084354Y-40956147D01*
X144209853Y-41081646D01*
X144308456Y-41229216D01*
X144376376Y-41393188D01*
X144411000Y-41567259D01*
X144411000Y-41744741D01*
X144376376Y-41918812D01*
X144308456Y-42082784D01*
X144209853Y-42230354D01*
X144084354Y-42355853D01*
X143936784Y-42454456D01*
X143772812Y-42522376D01*
X143623512Y-42552073D01*
X143598742Y-42557000D01*
X143421258Y-42557000D01*
X143396488Y-42552073D01*
X143247188Y-42522376D01*
X143083216Y-42454456D01*
X142935646Y-42355853D01*
X142810147Y-42230354D01*
X142711544Y-42082784D01*
X142643624Y-41918812D01*
X142609000Y-41744741D01*
X142609000Y-41567259D01*
X142643624Y-41393188D01*
X142711544Y-41229216D01*
X142810147Y-41081646D01*
X142935646Y-40956147D01*
X143083216Y-40857544D01*
X143247188Y-40789624D01*
X143396488Y-40759927D01*
X143421258Y-40755000D01*
X143598742Y-40755000D01*
X143623512Y-40759927D01*
G37*
G36*
X141083512Y-40759927D02*
G01*
X141232812Y-40789624D01*
X141396784Y-40857544D01*
X141544354Y-40956147D01*
X141669853Y-41081646D01*
X141768456Y-41229216D01*
X141836376Y-41393188D01*
X141871000Y-41567259D01*
X141871000Y-41744741D01*
X141836376Y-41918812D01*
X141768456Y-42082784D01*
X141669853Y-42230354D01*
X141544354Y-42355853D01*
X141396784Y-42454456D01*
X141232812Y-42522376D01*
X141083512Y-42552073D01*
X141058742Y-42557000D01*
X140881258Y-42557000D01*
X140856488Y-42552073D01*
X140707188Y-42522376D01*
X140543216Y-42454456D01*
X140395646Y-42355853D01*
X140270147Y-42230354D01*
X140171544Y-42082784D01*
X140103624Y-41918812D01*
X140069000Y-41744741D01*
X140069000Y-41567259D01*
X140103624Y-41393188D01*
X140171544Y-41229216D01*
X140270147Y-41081646D01*
X140395646Y-40956147D01*
X140543216Y-40857544D01*
X140707188Y-40789624D01*
X140856488Y-40759927D01*
X140881258Y-40755000D01*
X141058742Y-40755000D01*
X141083512Y-40759927D01*
G37*
G36*
X117692254Y-33460818D02*
G01*
X118065511Y-33615426D01*
X118065513Y-33615427D01*
X118401436Y-33839884D01*
X118687116Y-34125564D01*
X118911574Y-34461489D01*
X119066182Y-34834746D01*
X119145000Y-35230993D01*
X119145000Y-35635007D01*
X119066182Y-36031254D01*
X118911574Y-36404511D01*
X118911573Y-36404513D01*
X118687116Y-36740436D01*
X118401436Y-37026116D01*
X118065513Y-37250573D01*
X118065512Y-37250574D01*
X118065511Y-37250574D01*
X117692254Y-37405182D01*
X117296007Y-37484000D01*
X116891993Y-37484000D01*
X116495746Y-37405182D01*
X116122489Y-37250574D01*
X116122488Y-37250574D01*
X116122487Y-37250573D01*
X115786564Y-37026116D01*
X115500884Y-36740436D01*
X115276427Y-36404513D01*
X115276426Y-36404511D01*
X115121818Y-36031254D01*
X115043000Y-35635007D01*
X115043000Y-35230993D01*
X115121818Y-34834746D01*
X115276426Y-34461489D01*
X115500884Y-34125564D01*
X115786564Y-33839884D01*
X116122487Y-33615427D01*
X116122489Y-33615426D01*
X116495746Y-33460818D01*
X116891993Y-33382000D01*
X117296007Y-33382000D01*
X117692254Y-33460818D01*
G37*
G36*
X127852254Y-33460818D02*
G01*
X128225511Y-33615426D01*
X128225513Y-33615427D01*
X128561436Y-33839884D01*
X128847116Y-34125564D01*
X129071574Y-34461489D01*
X129226182Y-34834746D01*
X129305000Y-35230993D01*
X129305000Y-35635007D01*
X129226182Y-36031254D01*
X129071574Y-36404511D01*
X129071573Y-36404513D01*
X128847116Y-36740436D01*
X128561436Y-37026116D01*
X128225513Y-37250573D01*
X128225512Y-37250574D01*
X128225511Y-37250574D01*
X127852254Y-37405182D01*
X127456007Y-37484000D01*
X127051993Y-37484000D01*
X126655746Y-37405182D01*
X126282489Y-37250574D01*
X126282488Y-37250574D01*
X126282487Y-37250573D01*
X125946564Y-37026116D01*
X125660884Y-36740436D01*
X125436427Y-36404513D01*
X125436426Y-36404511D01*
X125281818Y-36031254D01*
X125203000Y-35635007D01*
X125203000Y-35230993D01*
X125281818Y-34834746D01*
X125436426Y-34461489D01*
X125660884Y-34125564D01*
X125946564Y-33839884D01*
X126282487Y-33615427D01*
X126282489Y-33615426D01*
X126655746Y-33460818D01*
X127051993Y-33382000D01*
X127456007Y-33382000D01*
X127852254Y-33460818D01*
G37*
M02*
