G04 #@! TF.GenerationSoftware,KiCad,Pcbnew,(5.1.4-0-10_14)*
G04 #@! TF.CreationDate,2020-05-16T17:54:32+09:00*
G04 #@! TF.ProjectId,scsiemu,73637369-656d-4752-9e6b-696361645f70,rev?*
G04 #@! TF.SameCoordinates,Original*
G04 #@! TF.FileFunction,Soldermask,Bot*
G04 #@! TF.FilePolarity,Negative*
%FSLAX46Y46*%
G04 Gerber Fmt 4.6, Leading zero omitted, Abs format (unit mm)*
G04 Created by KiCad (PCBNEW (5.1.4-0-10_14)) date 2020-05-16 17:54:32*
%MOMM*%
%LPD*%
G04 APERTURE LIST*
%ADD10C,1.100000*%
%ADD11C,0.100000*%
G04 APERTURE END LIST*
D10*
X110045500Y-91630500D02*
X110045500Y-94297500D01*
D11*
G36*
X159241443Y-107373019D02*
G01*
X159307627Y-107379537D01*
X159477466Y-107431057D01*
X159633991Y-107514722D01*
X159669729Y-107544052D01*
X159771186Y-107627314D01*
X159854448Y-107728771D01*
X159883778Y-107764509D01*
X159967443Y-107921034D01*
X160018963Y-108090873D01*
X160036359Y-108267500D01*
X160018963Y-108444127D01*
X159967443Y-108613966D01*
X159883778Y-108770491D01*
X159854448Y-108806229D01*
X159771186Y-108907686D01*
X159669729Y-108990948D01*
X159633991Y-109020278D01*
X159477466Y-109103943D01*
X159307627Y-109155463D01*
X159241442Y-109161982D01*
X159175260Y-109168500D01*
X159086740Y-109168500D01*
X159020558Y-109161982D01*
X158954373Y-109155463D01*
X158784534Y-109103943D01*
X158628009Y-109020278D01*
X158592271Y-108990948D01*
X158490814Y-108907686D01*
X158407552Y-108806229D01*
X158378222Y-108770491D01*
X158294557Y-108613966D01*
X158243037Y-108444127D01*
X158225641Y-108267500D01*
X158243037Y-108090873D01*
X158294557Y-107921034D01*
X158378222Y-107764509D01*
X158407552Y-107728771D01*
X158490814Y-107627314D01*
X158592271Y-107544052D01*
X158628009Y-107514722D01*
X158784534Y-107431057D01*
X158954373Y-107379537D01*
X159020557Y-107373019D01*
X159086740Y-107366500D01*
X159175260Y-107366500D01*
X159241443Y-107373019D01*
X159241443Y-107373019D01*
G37*
G36*
X156701443Y-107373019D02*
G01*
X156767627Y-107379537D01*
X156937466Y-107431057D01*
X157093991Y-107514722D01*
X157129729Y-107544052D01*
X157231186Y-107627314D01*
X157314448Y-107728771D01*
X157343778Y-107764509D01*
X157427443Y-107921034D01*
X157478963Y-108090873D01*
X157496359Y-108267500D01*
X157478963Y-108444127D01*
X157427443Y-108613966D01*
X157343778Y-108770491D01*
X157314448Y-108806229D01*
X157231186Y-108907686D01*
X157129729Y-108990948D01*
X157093991Y-109020278D01*
X156937466Y-109103943D01*
X156767627Y-109155463D01*
X156701442Y-109161982D01*
X156635260Y-109168500D01*
X156546740Y-109168500D01*
X156480558Y-109161982D01*
X156414373Y-109155463D01*
X156244534Y-109103943D01*
X156088009Y-109020278D01*
X156052271Y-108990948D01*
X155950814Y-108907686D01*
X155867552Y-108806229D01*
X155838222Y-108770491D01*
X155754557Y-108613966D01*
X155703037Y-108444127D01*
X155685641Y-108267500D01*
X155703037Y-108090873D01*
X155754557Y-107921034D01*
X155838222Y-107764509D01*
X155867552Y-107728771D01*
X155950814Y-107627314D01*
X156052271Y-107544052D01*
X156088009Y-107514722D01*
X156244534Y-107431057D01*
X156414373Y-107379537D01*
X156480557Y-107373019D01*
X156546740Y-107366500D01*
X156635260Y-107366500D01*
X156701443Y-107373019D01*
X156701443Y-107373019D01*
G37*
G36*
X154161443Y-107373019D02*
G01*
X154227627Y-107379537D01*
X154397466Y-107431057D01*
X154553991Y-107514722D01*
X154589729Y-107544052D01*
X154691186Y-107627314D01*
X154774448Y-107728771D01*
X154803778Y-107764509D01*
X154887443Y-107921034D01*
X154938963Y-108090873D01*
X154956359Y-108267500D01*
X154938963Y-108444127D01*
X154887443Y-108613966D01*
X154803778Y-108770491D01*
X154774448Y-108806229D01*
X154691186Y-108907686D01*
X154589729Y-108990948D01*
X154553991Y-109020278D01*
X154397466Y-109103943D01*
X154227627Y-109155463D01*
X154161442Y-109161982D01*
X154095260Y-109168500D01*
X154006740Y-109168500D01*
X153940558Y-109161982D01*
X153874373Y-109155463D01*
X153704534Y-109103943D01*
X153548009Y-109020278D01*
X153512271Y-108990948D01*
X153410814Y-108907686D01*
X153327552Y-108806229D01*
X153298222Y-108770491D01*
X153214557Y-108613966D01*
X153163037Y-108444127D01*
X153145641Y-108267500D01*
X153163037Y-108090873D01*
X153214557Y-107921034D01*
X153298222Y-107764509D01*
X153327552Y-107728771D01*
X153410814Y-107627314D01*
X153512271Y-107544052D01*
X153548009Y-107514722D01*
X153704534Y-107431057D01*
X153874373Y-107379537D01*
X153940557Y-107373019D01*
X154006740Y-107366500D01*
X154095260Y-107366500D01*
X154161443Y-107373019D01*
X154161443Y-107373019D01*
G37*
G36*
X151621443Y-107373019D02*
G01*
X151687627Y-107379537D01*
X151857466Y-107431057D01*
X152013991Y-107514722D01*
X152049729Y-107544052D01*
X152151186Y-107627314D01*
X152234448Y-107728771D01*
X152263778Y-107764509D01*
X152347443Y-107921034D01*
X152398963Y-108090873D01*
X152416359Y-108267500D01*
X152398963Y-108444127D01*
X152347443Y-108613966D01*
X152263778Y-108770491D01*
X152234448Y-108806229D01*
X152151186Y-108907686D01*
X152049729Y-108990948D01*
X152013991Y-109020278D01*
X151857466Y-109103943D01*
X151687627Y-109155463D01*
X151621442Y-109161982D01*
X151555260Y-109168500D01*
X151466740Y-109168500D01*
X151400558Y-109161982D01*
X151334373Y-109155463D01*
X151164534Y-109103943D01*
X151008009Y-109020278D01*
X150972271Y-108990948D01*
X150870814Y-108907686D01*
X150787552Y-108806229D01*
X150758222Y-108770491D01*
X150674557Y-108613966D01*
X150623037Y-108444127D01*
X150605641Y-108267500D01*
X150623037Y-108090873D01*
X150674557Y-107921034D01*
X150758222Y-107764509D01*
X150787552Y-107728771D01*
X150870814Y-107627314D01*
X150972271Y-107544052D01*
X151008009Y-107514722D01*
X151164534Y-107431057D01*
X151334373Y-107379537D01*
X151400557Y-107373019D01*
X151466740Y-107366500D01*
X151555260Y-107366500D01*
X151621443Y-107373019D01*
X151621443Y-107373019D01*
G37*
G36*
X149081443Y-107373019D02*
G01*
X149147627Y-107379537D01*
X149317466Y-107431057D01*
X149473991Y-107514722D01*
X149509729Y-107544052D01*
X149611186Y-107627314D01*
X149694448Y-107728771D01*
X149723778Y-107764509D01*
X149807443Y-107921034D01*
X149858963Y-108090873D01*
X149876359Y-108267500D01*
X149858963Y-108444127D01*
X149807443Y-108613966D01*
X149723778Y-108770491D01*
X149694448Y-108806229D01*
X149611186Y-108907686D01*
X149509729Y-108990948D01*
X149473991Y-109020278D01*
X149317466Y-109103943D01*
X149147627Y-109155463D01*
X149081442Y-109161982D01*
X149015260Y-109168500D01*
X148926740Y-109168500D01*
X148860558Y-109161982D01*
X148794373Y-109155463D01*
X148624534Y-109103943D01*
X148468009Y-109020278D01*
X148432271Y-108990948D01*
X148330814Y-108907686D01*
X148247552Y-108806229D01*
X148218222Y-108770491D01*
X148134557Y-108613966D01*
X148083037Y-108444127D01*
X148065641Y-108267500D01*
X148083037Y-108090873D01*
X148134557Y-107921034D01*
X148218222Y-107764509D01*
X148247552Y-107728771D01*
X148330814Y-107627314D01*
X148432271Y-107544052D01*
X148468009Y-107514722D01*
X148624534Y-107431057D01*
X148794373Y-107379537D01*
X148860557Y-107373019D01*
X148926740Y-107366500D01*
X149015260Y-107366500D01*
X149081443Y-107373019D01*
X149081443Y-107373019D01*
G37*
G36*
X146541443Y-107373019D02*
G01*
X146607627Y-107379537D01*
X146777466Y-107431057D01*
X146933991Y-107514722D01*
X146969729Y-107544052D01*
X147071186Y-107627314D01*
X147154448Y-107728771D01*
X147183778Y-107764509D01*
X147267443Y-107921034D01*
X147318963Y-108090873D01*
X147336359Y-108267500D01*
X147318963Y-108444127D01*
X147267443Y-108613966D01*
X147183778Y-108770491D01*
X147154448Y-108806229D01*
X147071186Y-108907686D01*
X146969729Y-108990948D01*
X146933991Y-109020278D01*
X146777466Y-109103943D01*
X146607627Y-109155463D01*
X146541442Y-109161982D01*
X146475260Y-109168500D01*
X146386740Y-109168500D01*
X146320558Y-109161982D01*
X146254373Y-109155463D01*
X146084534Y-109103943D01*
X145928009Y-109020278D01*
X145892271Y-108990948D01*
X145790814Y-108907686D01*
X145707552Y-108806229D01*
X145678222Y-108770491D01*
X145594557Y-108613966D01*
X145543037Y-108444127D01*
X145525641Y-108267500D01*
X145543037Y-108090873D01*
X145594557Y-107921034D01*
X145678222Y-107764509D01*
X145707552Y-107728771D01*
X145790814Y-107627314D01*
X145892271Y-107544052D01*
X145928009Y-107514722D01*
X146084534Y-107431057D01*
X146254373Y-107379537D01*
X146320557Y-107373019D01*
X146386740Y-107366500D01*
X146475260Y-107366500D01*
X146541443Y-107373019D01*
X146541443Y-107373019D01*
G37*
G36*
X144001443Y-107373019D02*
G01*
X144067627Y-107379537D01*
X144237466Y-107431057D01*
X144393991Y-107514722D01*
X144429729Y-107544052D01*
X144531186Y-107627314D01*
X144614448Y-107728771D01*
X144643778Y-107764509D01*
X144727443Y-107921034D01*
X144778963Y-108090873D01*
X144796359Y-108267500D01*
X144778963Y-108444127D01*
X144727443Y-108613966D01*
X144643778Y-108770491D01*
X144614448Y-108806229D01*
X144531186Y-108907686D01*
X144429729Y-108990948D01*
X144393991Y-109020278D01*
X144237466Y-109103943D01*
X144067627Y-109155463D01*
X144001442Y-109161982D01*
X143935260Y-109168500D01*
X143846740Y-109168500D01*
X143780558Y-109161982D01*
X143714373Y-109155463D01*
X143544534Y-109103943D01*
X143388009Y-109020278D01*
X143352271Y-108990948D01*
X143250814Y-108907686D01*
X143167552Y-108806229D01*
X143138222Y-108770491D01*
X143054557Y-108613966D01*
X143003037Y-108444127D01*
X142985641Y-108267500D01*
X143003037Y-108090873D01*
X143054557Y-107921034D01*
X143138222Y-107764509D01*
X143167552Y-107728771D01*
X143250814Y-107627314D01*
X143352271Y-107544052D01*
X143388009Y-107514722D01*
X143544534Y-107431057D01*
X143714373Y-107379537D01*
X143780557Y-107373019D01*
X143846740Y-107366500D01*
X143935260Y-107366500D01*
X144001443Y-107373019D01*
X144001443Y-107373019D01*
G37*
G36*
X141461443Y-107373019D02*
G01*
X141527627Y-107379537D01*
X141697466Y-107431057D01*
X141853991Y-107514722D01*
X141889729Y-107544052D01*
X141991186Y-107627314D01*
X142074448Y-107728771D01*
X142103778Y-107764509D01*
X142187443Y-107921034D01*
X142238963Y-108090873D01*
X142256359Y-108267500D01*
X142238963Y-108444127D01*
X142187443Y-108613966D01*
X142103778Y-108770491D01*
X142074448Y-108806229D01*
X141991186Y-108907686D01*
X141889729Y-108990948D01*
X141853991Y-109020278D01*
X141697466Y-109103943D01*
X141527627Y-109155463D01*
X141461442Y-109161982D01*
X141395260Y-109168500D01*
X141306740Y-109168500D01*
X141240558Y-109161982D01*
X141174373Y-109155463D01*
X141004534Y-109103943D01*
X140848009Y-109020278D01*
X140812271Y-108990948D01*
X140710814Y-108907686D01*
X140627552Y-108806229D01*
X140598222Y-108770491D01*
X140514557Y-108613966D01*
X140463037Y-108444127D01*
X140445641Y-108267500D01*
X140463037Y-108090873D01*
X140514557Y-107921034D01*
X140598222Y-107764509D01*
X140627552Y-107728771D01*
X140710814Y-107627314D01*
X140812271Y-107544052D01*
X140848009Y-107514722D01*
X141004534Y-107431057D01*
X141174373Y-107379537D01*
X141240557Y-107373019D01*
X141306740Y-107366500D01*
X141395260Y-107366500D01*
X141461443Y-107373019D01*
X141461443Y-107373019D01*
G37*
G36*
X138921443Y-107373019D02*
G01*
X138987627Y-107379537D01*
X139157466Y-107431057D01*
X139313991Y-107514722D01*
X139349729Y-107544052D01*
X139451186Y-107627314D01*
X139534448Y-107728771D01*
X139563778Y-107764509D01*
X139647443Y-107921034D01*
X139698963Y-108090873D01*
X139716359Y-108267500D01*
X139698963Y-108444127D01*
X139647443Y-108613966D01*
X139563778Y-108770491D01*
X139534448Y-108806229D01*
X139451186Y-108907686D01*
X139349729Y-108990948D01*
X139313991Y-109020278D01*
X139157466Y-109103943D01*
X138987627Y-109155463D01*
X138921442Y-109161982D01*
X138855260Y-109168500D01*
X138766740Y-109168500D01*
X138700558Y-109161982D01*
X138634373Y-109155463D01*
X138464534Y-109103943D01*
X138308009Y-109020278D01*
X138272271Y-108990948D01*
X138170814Y-108907686D01*
X138087552Y-108806229D01*
X138058222Y-108770491D01*
X137974557Y-108613966D01*
X137923037Y-108444127D01*
X137905641Y-108267500D01*
X137923037Y-108090873D01*
X137974557Y-107921034D01*
X138058222Y-107764509D01*
X138087552Y-107728771D01*
X138170814Y-107627314D01*
X138272271Y-107544052D01*
X138308009Y-107514722D01*
X138464534Y-107431057D01*
X138634373Y-107379537D01*
X138700557Y-107373019D01*
X138766740Y-107366500D01*
X138855260Y-107366500D01*
X138921443Y-107373019D01*
X138921443Y-107373019D01*
G37*
G36*
X136381443Y-107373019D02*
G01*
X136447627Y-107379537D01*
X136617466Y-107431057D01*
X136773991Y-107514722D01*
X136809729Y-107544052D01*
X136911186Y-107627314D01*
X136994448Y-107728771D01*
X137023778Y-107764509D01*
X137107443Y-107921034D01*
X137158963Y-108090873D01*
X137176359Y-108267500D01*
X137158963Y-108444127D01*
X137107443Y-108613966D01*
X137023778Y-108770491D01*
X136994448Y-108806229D01*
X136911186Y-108907686D01*
X136809729Y-108990948D01*
X136773991Y-109020278D01*
X136617466Y-109103943D01*
X136447627Y-109155463D01*
X136381442Y-109161982D01*
X136315260Y-109168500D01*
X136226740Y-109168500D01*
X136160558Y-109161982D01*
X136094373Y-109155463D01*
X135924534Y-109103943D01*
X135768009Y-109020278D01*
X135732271Y-108990948D01*
X135630814Y-108907686D01*
X135547552Y-108806229D01*
X135518222Y-108770491D01*
X135434557Y-108613966D01*
X135383037Y-108444127D01*
X135365641Y-108267500D01*
X135383037Y-108090873D01*
X135434557Y-107921034D01*
X135518222Y-107764509D01*
X135547552Y-107728771D01*
X135630814Y-107627314D01*
X135732271Y-107544052D01*
X135768009Y-107514722D01*
X135924534Y-107431057D01*
X136094373Y-107379537D01*
X136160557Y-107373019D01*
X136226740Y-107366500D01*
X136315260Y-107366500D01*
X136381443Y-107373019D01*
X136381443Y-107373019D01*
G37*
G36*
X133841443Y-107373019D02*
G01*
X133907627Y-107379537D01*
X134077466Y-107431057D01*
X134233991Y-107514722D01*
X134269729Y-107544052D01*
X134371186Y-107627314D01*
X134454448Y-107728771D01*
X134483778Y-107764509D01*
X134567443Y-107921034D01*
X134618963Y-108090873D01*
X134636359Y-108267500D01*
X134618963Y-108444127D01*
X134567443Y-108613966D01*
X134483778Y-108770491D01*
X134454448Y-108806229D01*
X134371186Y-108907686D01*
X134269729Y-108990948D01*
X134233991Y-109020278D01*
X134077466Y-109103943D01*
X133907627Y-109155463D01*
X133841442Y-109161982D01*
X133775260Y-109168500D01*
X133686740Y-109168500D01*
X133620558Y-109161982D01*
X133554373Y-109155463D01*
X133384534Y-109103943D01*
X133228009Y-109020278D01*
X133192271Y-108990948D01*
X133090814Y-108907686D01*
X133007552Y-108806229D01*
X132978222Y-108770491D01*
X132894557Y-108613966D01*
X132843037Y-108444127D01*
X132825641Y-108267500D01*
X132843037Y-108090873D01*
X132894557Y-107921034D01*
X132978222Y-107764509D01*
X133007552Y-107728771D01*
X133090814Y-107627314D01*
X133192271Y-107544052D01*
X133228009Y-107514722D01*
X133384534Y-107431057D01*
X133554373Y-107379537D01*
X133620557Y-107373019D01*
X133686740Y-107366500D01*
X133775260Y-107366500D01*
X133841443Y-107373019D01*
X133841443Y-107373019D01*
G37*
G36*
X131301443Y-107373019D02*
G01*
X131367627Y-107379537D01*
X131537466Y-107431057D01*
X131693991Y-107514722D01*
X131729729Y-107544052D01*
X131831186Y-107627314D01*
X131914448Y-107728771D01*
X131943778Y-107764509D01*
X132027443Y-107921034D01*
X132078963Y-108090873D01*
X132096359Y-108267500D01*
X132078963Y-108444127D01*
X132027443Y-108613966D01*
X131943778Y-108770491D01*
X131914448Y-108806229D01*
X131831186Y-108907686D01*
X131729729Y-108990948D01*
X131693991Y-109020278D01*
X131537466Y-109103943D01*
X131367627Y-109155463D01*
X131301442Y-109161982D01*
X131235260Y-109168500D01*
X131146740Y-109168500D01*
X131080558Y-109161982D01*
X131014373Y-109155463D01*
X130844534Y-109103943D01*
X130688009Y-109020278D01*
X130652271Y-108990948D01*
X130550814Y-108907686D01*
X130467552Y-108806229D01*
X130438222Y-108770491D01*
X130354557Y-108613966D01*
X130303037Y-108444127D01*
X130285641Y-108267500D01*
X130303037Y-108090873D01*
X130354557Y-107921034D01*
X130438222Y-107764509D01*
X130467552Y-107728771D01*
X130550814Y-107627314D01*
X130652271Y-107544052D01*
X130688009Y-107514722D01*
X130844534Y-107431057D01*
X131014373Y-107379537D01*
X131080557Y-107373019D01*
X131146740Y-107366500D01*
X131235260Y-107366500D01*
X131301443Y-107373019D01*
X131301443Y-107373019D01*
G37*
G36*
X128761443Y-107373019D02*
G01*
X128827627Y-107379537D01*
X128997466Y-107431057D01*
X129153991Y-107514722D01*
X129189729Y-107544052D01*
X129291186Y-107627314D01*
X129374448Y-107728771D01*
X129403778Y-107764509D01*
X129487443Y-107921034D01*
X129538963Y-108090873D01*
X129556359Y-108267500D01*
X129538963Y-108444127D01*
X129487443Y-108613966D01*
X129403778Y-108770491D01*
X129374448Y-108806229D01*
X129291186Y-108907686D01*
X129189729Y-108990948D01*
X129153991Y-109020278D01*
X128997466Y-109103943D01*
X128827627Y-109155463D01*
X128761442Y-109161982D01*
X128695260Y-109168500D01*
X128606740Y-109168500D01*
X128540558Y-109161982D01*
X128474373Y-109155463D01*
X128304534Y-109103943D01*
X128148009Y-109020278D01*
X128112271Y-108990948D01*
X128010814Y-108907686D01*
X127927552Y-108806229D01*
X127898222Y-108770491D01*
X127814557Y-108613966D01*
X127763037Y-108444127D01*
X127745641Y-108267500D01*
X127763037Y-108090873D01*
X127814557Y-107921034D01*
X127898222Y-107764509D01*
X127927552Y-107728771D01*
X128010814Y-107627314D01*
X128112271Y-107544052D01*
X128148009Y-107514722D01*
X128304534Y-107431057D01*
X128474373Y-107379537D01*
X128540557Y-107373019D01*
X128606740Y-107366500D01*
X128695260Y-107366500D01*
X128761443Y-107373019D01*
X128761443Y-107373019D01*
G37*
G36*
X126221443Y-107373019D02*
G01*
X126287627Y-107379537D01*
X126457466Y-107431057D01*
X126613991Y-107514722D01*
X126649729Y-107544052D01*
X126751186Y-107627314D01*
X126834448Y-107728771D01*
X126863778Y-107764509D01*
X126947443Y-107921034D01*
X126998963Y-108090873D01*
X127016359Y-108267500D01*
X126998963Y-108444127D01*
X126947443Y-108613966D01*
X126863778Y-108770491D01*
X126834448Y-108806229D01*
X126751186Y-108907686D01*
X126649729Y-108990948D01*
X126613991Y-109020278D01*
X126457466Y-109103943D01*
X126287627Y-109155463D01*
X126221442Y-109161982D01*
X126155260Y-109168500D01*
X126066740Y-109168500D01*
X126000558Y-109161982D01*
X125934373Y-109155463D01*
X125764534Y-109103943D01*
X125608009Y-109020278D01*
X125572271Y-108990948D01*
X125470814Y-108907686D01*
X125387552Y-108806229D01*
X125358222Y-108770491D01*
X125274557Y-108613966D01*
X125223037Y-108444127D01*
X125205641Y-108267500D01*
X125223037Y-108090873D01*
X125274557Y-107921034D01*
X125358222Y-107764509D01*
X125387552Y-107728771D01*
X125470814Y-107627314D01*
X125572271Y-107544052D01*
X125608009Y-107514722D01*
X125764534Y-107431057D01*
X125934373Y-107379537D01*
X126000557Y-107373019D01*
X126066740Y-107366500D01*
X126155260Y-107366500D01*
X126221443Y-107373019D01*
X126221443Y-107373019D01*
G37*
G36*
X123681443Y-107373019D02*
G01*
X123747627Y-107379537D01*
X123917466Y-107431057D01*
X124073991Y-107514722D01*
X124109729Y-107544052D01*
X124211186Y-107627314D01*
X124294448Y-107728771D01*
X124323778Y-107764509D01*
X124407443Y-107921034D01*
X124458963Y-108090873D01*
X124476359Y-108267500D01*
X124458963Y-108444127D01*
X124407443Y-108613966D01*
X124323778Y-108770491D01*
X124294448Y-108806229D01*
X124211186Y-108907686D01*
X124109729Y-108990948D01*
X124073991Y-109020278D01*
X123917466Y-109103943D01*
X123747627Y-109155463D01*
X123681442Y-109161982D01*
X123615260Y-109168500D01*
X123526740Y-109168500D01*
X123460558Y-109161982D01*
X123394373Y-109155463D01*
X123224534Y-109103943D01*
X123068009Y-109020278D01*
X123032271Y-108990948D01*
X122930814Y-108907686D01*
X122847552Y-108806229D01*
X122818222Y-108770491D01*
X122734557Y-108613966D01*
X122683037Y-108444127D01*
X122665641Y-108267500D01*
X122683037Y-108090873D01*
X122734557Y-107921034D01*
X122818222Y-107764509D01*
X122847552Y-107728771D01*
X122930814Y-107627314D01*
X123032271Y-107544052D01*
X123068009Y-107514722D01*
X123224534Y-107431057D01*
X123394373Y-107379537D01*
X123460557Y-107373019D01*
X123526740Y-107366500D01*
X123615260Y-107366500D01*
X123681443Y-107373019D01*
X123681443Y-107373019D01*
G37*
G36*
X121141443Y-107373019D02*
G01*
X121207627Y-107379537D01*
X121377466Y-107431057D01*
X121533991Y-107514722D01*
X121569729Y-107544052D01*
X121671186Y-107627314D01*
X121754448Y-107728771D01*
X121783778Y-107764509D01*
X121867443Y-107921034D01*
X121918963Y-108090873D01*
X121936359Y-108267500D01*
X121918963Y-108444127D01*
X121867443Y-108613966D01*
X121783778Y-108770491D01*
X121754448Y-108806229D01*
X121671186Y-108907686D01*
X121569729Y-108990948D01*
X121533991Y-109020278D01*
X121377466Y-109103943D01*
X121207627Y-109155463D01*
X121141442Y-109161982D01*
X121075260Y-109168500D01*
X120986740Y-109168500D01*
X120920558Y-109161982D01*
X120854373Y-109155463D01*
X120684534Y-109103943D01*
X120528009Y-109020278D01*
X120492271Y-108990948D01*
X120390814Y-108907686D01*
X120307552Y-108806229D01*
X120278222Y-108770491D01*
X120194557Y-108613966D01*
X120143037Y-108444127D01*
X120125641Y-108267500D01*
X120143037Y-108090873D01*
X120194557Y-107921034D01*
X120278222Y-107764509D01*
X120307552Y-107728771D01*
X120390814Y-107627314D01*
X120492271Y-107544052D01*
X120528009Y-107514722D01*
X120684534Y-107431057D01*
X120854373Y-107379537D01*
X120920557Y-107373019D01*
X120986740Y-107366500D01*
X121075260Y-107366500D01*
X121141443Y-107373019D01*
X121141443Y-107373019D01*
G37*
G36*
X118601443Y-107373019D02*
G01*
X118667627Y-107379537D01*
X118837466Y-107431057D01*
X118993991Y-107514722D01*
X119029729Y-107544052D01*
X119131186Y-107627314D01*
X119214448Y-107728771D01*
X119243778Y-107764509D01*
X119327443Y-107921034D01*
X119378963Y-108090873D01*
X119396359Y-108267500D01*
X119378963Y-108444127D01*
X119327443Y-108613966D01*
X119243778Y-108770491D01*
X119214448Y-108806229D01*
X119131186Y-108907686D01*
X119029729Y-108990948D01*
X118993991Y-109020278D01*
X118837466Y-109103943D01*
X118667627Y-109155463D01*
X118601442Y-109161982D01*
X118535260Y-109168500D01*
X118446740Y-109168500D01*
X118380558Y-109161982D01*
X118314373Y-109155463D01*
X118144534Y-109103943D01*
X117988009Y-109020278D01*
X117952271Y-108990948D01*
X117850814Y-108907686D01*
X117767552Y-108806229D01*
X117738222Y-108770491D01*
X117654557Y-108613966D01*
X117603037Y-108444127D01*
X117585641Y-108267500D01*
X117603037Y-108090873D01*
X117654557Y-107921034D01*
X117738222Y-107764509D01*
X117767552Y-107728771D01*
X117850814Y-107627314D01*
X117952271Y-107544052D01*
X117988009Y-107514722D01*
X118144534Y-107431057D01*
X118314373Y-107379537D01*
X118380557Y-107373019D01*
X118446740Y-107366500D01*
X118535260Y-107366500D01*
X118601443Y-107373019D01*
X118601443Y-107373019D01*
G37*
G36*
X116061443Y-107373019D02*
G01*
X116127627Y-107379537D01*
X116297466Y-107431057D01*
X116453991Y-107514722D01*
X116489729Y-107544052D01*
X116591186Y-107627314D01*
X116674448Y-107728771D01*
X116703778Y-107764509D01*
X116787443Y-107921034D01*
X116838963Y-108090873D01*
X116856359Y-108267500D01*
X116838963Y-108444127D01*
X116787443Y-108613966D01*
X116703778Y-108770491D01*
X116674448Y-108806229D01*
X116591186Y-108907686D01*
X116489729Y-108990948D01*
X116453991Y-109020278D01*
X116297466Y-109103943D01*
X116127627Y-109155463D01*
X116061442Y-109161982D01*
X115995260Y-109168500D01*
X115906740Y-109168500D01*
X115840558Y-109161982D01*
X115774373Y-109155463D01*
X115604534Y-109103943D01*
X115448009Y-109020278D01*
X115412271Y-108990948D01*
X115310814Y-108907686D01*
X115227552Y-108806229D01*
X115198222Y-108770491D01*
X115114557Y-108613966D01*
X115063037Y-108444127D01*
X115045641Y-108267500D01*
X115063037Y-108090873D01*
X115114557Y-107921034D01*
X115198222Y-107764509D01*
X115227552Y-107728771D01*
X115310814Y-107627314D01*
X115412271Y-107544052D01*
X115448009Y-107514722D01*
X115604534Y-107431057D01*
X115774373Y-107379537D01*
X115840557Y-107373019D01*
X115906740Y-107366500D01*
X115995260Y-107366500D01*
X116061443Y-107373019D01*
X116061443Y-107373019D01*
G37*
G36*
X113521443Y-107373019D02*
G01*
X113587627Y-107379537D01*
X113757466Y-107431057D01*
X113913991Y-107514722D01*
X113949729Y-107544052D01*
X114051186Y-107627314D01*
X114134448Y-107728771D01*
X114163778Y-107764509D01*
X114247443Y-107921034D01*
X114298963Y-108090873D01*
X114316359Y-108267500D01*
X114298963Y-108444127D01*
X114247443Y-108613966D01*
X114163778Y-108770491D01*
X114134448Y-108806229D01*
X114051186Y-108907686D01*
X113949729Y-108990948D01*
X113913991Y-109020278D01*
X113757466Y-109103943D01*
X113587627Y-109155463D01*
X113521442Y-109161982D01*
X113455260Y-109168500D01*
X113366740Y-109168500D01*
X113300558Y-109161982D01*
X113234373Y-109155463D01*
X113064534Y-109103943D01*
X112908009Y-109020278D01*
X112872271Y-108990948D01*
X112770814Y-108907686D01*
X112687552Y-108806229D01*
X112658222Y-108770491D01*
X112574557Y-108613966D01*
X112523037Y-108444127D01*
X112505641Y-108267500D01*
X112523037Y-108090873D01*
X112574557Y-107921034D01*
X112658222Y-107764509D01*
X112687552Y-107728771D01*
X112770814Y-107627314D01*
X112872271Y-107544052D01*
X112908009Y-107514722D01*
X113064534Y-107431057D01*
X113234373Y-107379537D01*
X113300557Y-107373019D01*
X113366740Y-107366500D01*
X113455260Y-107366500D01*
X113521443Y-107373019D01*
X113521443Y-107373019D01*
G37*
G36*
X110981443Y-107373019D02*
G01*
X111047627Y-107379537D01*
X111217466Y-107431057D01*
X111373991Y-107514722D01*
X111409729Y-107544052D01*
X111511186Y-107627314D01*
X111594448Y-107728771D01*
X111623778Y-107764509D01*
X111707443Y-107921034D01*
X111758963Y-108090873D01*
X111776359Y-108267500D01*
X111758963Y-108444127D01*
X111707443Y-108613966D01*
X111623778Y-108770491D01*
X111594448Y-108806229D01*
X111511186Y-108907686D01*
X111409729Y-108990948D01*
X111373991Y-109020278D01*
X111217466Y-109103943D01*
X111047627Y-109155463D01*
X110981442Y-109161982D01*
X110915260Y-109168500D01*
X110826740Y-109168500D01*
X110760558Y-109161982D01*
X110694373Y-109155463D01*
X110524534Y-109103943D01*
X110368009Y-109020278D01*
X110332271Y-108990948D01*
X110230814Y-108907686D01*
X110147552Y-108806229D01*
X110118222Y-108770491D01*
X110034557Y-108613966D01*
X109983037Y-108444127D01*
X109965641Y-108267500D01*
X109983037Y-108090873D01*
X110034557Y-107921034D01*
X110118222Y-107764509D01*
X110147552Y-107728771D01*
X110230814Y-107627314D01*
X110332271Y-107544052D01*
X110368009Y-107514722D01*
X110524534Y-107431057D01*
X110694373Y-107379537D01*
X110760557Y-107373019D01*
X110826740Y-107366500D01*
X110915260Y-107366500D01*
X110981443Y-107373019D01*
X110981443Y-107373019D01*
G37*
G36*
X106224549Y-105871116D02*
G01*
X106335734Y-105893232D01*
X106545203Y-105979997D01*
X106733720Y-106105960D01*
X106894040Y-106266280D01*
X107020003Y-106454797D01*
X107106768Y-106664266D01*
X107151000Y-106886636D01*
X107151000Y-107113364D01*
X107106768Y-107335734D01*
X107020003Y-107545203D01*
X106894040Y-107733720D01*
X106733720Y-107894040D01*
X106545203Y-108020003D01*
X106335734Y-108106768D01*
X106224549Y-108128884D01*
X106113365Y-108151000D01*
X105886635Y-108151000D01*
X105775451Y-108128884D01*
X105664266Y-108106768D01*
X105454797Y-108020003D01*
X105266280Y-107894040D01*
X105105960Y-107733720D01*
X104979997Y-107545203D01*
X104893232Y-107335734D01*
X104849000Y-107113364D01*
X104849000Y-106886636D01*
X104893232Y-106664266D01*
X104979997Y-106454797D01*
X105105960Y-106266280D01*
X105266280Y-106105960D01*
X105454797Y-105979997D01*
X105664266Y-105893232D01*
X105775451Y-105871116D01*
X105886635Y-105849000D01*
X106113365Y-105849000D01*
X106224549Y-105871116D01*
X106224549Y-105871116D01*
G37*
G36*
X164224549Y-105871116D02*
G01*
X164335734Y-105893232D01*
X164545203Y-105979997D01*
X164733720Y-106105960D01*
X164894040Y-106266280D01*
X165020003Y-106454797D01*
X165106768Y-106664266D01*
X165151000Y-106886636D01*
X165151000Y-107113364D01*
X165106768Y-107335734D01*
X165020003Y-107545203D01*
X164894040Y-107733720D01*
X164733720Y-107894040D01*
X164545203Y-108020003D01*
X164335734Y-108106768D01*
X164224549Y-108128884D01*
X164113365Y-108151000D01*
X163886635Y-108151000D01*
X163775451Y-108128884D01*
X163664266Y-108106768D01*
X163454797Y-108020003D01*
X163266280Y-107894040D01*
X163105960Y-107733720D01*
X162979997Y-107545203D01*
X162893232Y-107335734D01*
X162849000Y-107113364D01*
X162849000Y-106886636D01*
X162893232Y-106664266D01*
X162979997Y-106454797D01*
X163105960Y-106266280D01*
X163266280Y-106105960D01*
X163454797Y-105979997D01*
X163664266Y-105893232D01*
X163775451Y-105871116D01*
X163886635Y-105849000D01*
X164113365Y-105849000D01*
X164224549Y-105871116D01*
X164224549Y-105871116D01*
G37*
G36*
X116061442Y-104833018D02*
G01*
X116127627Y-104839537D01*
X116297466Y-104891057D01*
X116453991Y-104974722D01*
X116489729Y-105004052D01*
X116591186Y-105087314D01*
X116674448Y-105188771D01*
X116703778Y-105224509D01*
X116787443Y-105381034D01*
X116838963Y-105550873D01*
X116856359Y-105727500D01*
X116838963Y-105904127D01*
X116787443Y-106073966D01*
X116703778Y-106230491D01*
X116674448Y-106266229D01*
X116591186Y-106367686D01*
X116489729Y-106450948D01*
X116453991Y-106480278D01*
X116297466Y-106563943D01*
X116127627Y-106615463D01*
X116061442Y-106621982D01*
X115995260Y-106628500D01*
X115906740Y-106628500D01*
X115840558Y-106621982D01*
X115774373Y-106615463D01*
X115604534Y-106563943D01*
X115448009Y-106480278D01*
X115412271Y-106450948D01*
X115310814Y-106367686D01*
X115227552Y-106266229D01*
X115198222Y-106230491D01*
X115114557Y-106073966D01*
X115063037Y-105904127D01*
X115045641Y-105727500D01*
X115063037Y-105550873D01*
X115114557Y-105381034D01*
X115198222Y-105224509D01*
X115227552Y-105188771D01*
X115310814Y-105087314D01*
X115412271Y-105004052D01*
X115448009Y-104974722D01*
X115604534Y-104891057D01*
X115774373Y-104839537D01*
X115840557Y-104833019D01*
X115906740Y-104826500D01*
X115995260Y-104826500D01*
X116061442Y-104833018D01*
X116061442Y-104833018D01*
G37*
G36*
X118601442Y-104833018D02*
G01*
X118667627Y-104839537D01*
X118837466Y-104891057D01*
X118993991Y-104974722D01*
X119029729Y-105004052D01*
X119131186Y-105087314D01*
X119214448Y-105188771D01*
X119243778Y-105224509D01*
X119327443Y-105381034D01*
X119378963Y-105550873D01*
X119396359Y-105727500D01*
X119378963Y-105904127D01*
X119327443Y-106073966D01*
X119243778Y-106230491D01*
X119214448Y-106266229D01*
X119131186Y-106367686D01*
X119029729Y-106450948D01*
X118993991Y-106480278D01*
X118837466Y-106563943D01*
X118667627Y-106615463D01*
X118601442Y-106621982D01*
X118535260Y-106628500D01*
X118446740Y-106628500D01*
X118380558Y-106621982D01*
X118314373Y-106615463D01*
X118144534Y-106563943D01*
X117988009Y-106480278D01*
X117952271Y-106450948D01*
X117850814Y-106367686D01*
X117767552Y-106266229D01*
X117738222Y-106230491D01*
X117654557Y-106073966D01*
X117603037Y-105904127D01*
X117585641Y-105727500D01*
X117603037Y-105550873D01*
X117654557Y-105381034D01*
X117738222Y-105224509D01*
X117767552Y-105188771D01*
X117850814Y-105087314D01*
X117952271Y-105004052D01*
X117988009Y-104974722D01*
X118144534Y-104891057D01*
X118314373Y-104839537D01*
X118380557Y-104833019D01*
X118446740Y-104826500D01*
X118535260Y-104826500D01*
X118601442Y-104833018D01*
X118601442Y-104833018D01*
G37*
G36*
X111772000Y-106628500D02*
G01*
X109970000Y-106628500D01*
X109970000Y-104826500D01*
X111772000Y-104826500D01*
X111772000Y-106628500D01*
X111772000Y-106628500D01*
G37*
G36*
X159241442Y-104833018D02*
G01*
X159307627Y-104839537D01*
X159477466Y-104891057D01*
X159633991Y-104974722D01*
X159669729Y-105004052D01*
X159771186Y-105087314D01*
X159854448Y-105188771D01*
X159883778Y-105224509D01*
X159967443Y-105381034D01*
X160018963Y-105550873D01*
X160036359Y-105727500D01*
X160018963Y-105904127D01*
X159967443Y-106073966D01*
X159883778Y-106230491D01*
X159854448Y-106266229D01*
X159771186Y-106367686D01*
X159669729Y-106450948D01*
X159633991Y-106480278D01*
X159477466Y-106563943D01*
X159307627Y-106615463D01*
X159241442Y-106621982D01*
X159175260Y-106628500D01*
X159086740Y-106628500D01*
X159020558Y-106621982D01*
X158954373Y-106615463D01*
X158784534Y-106563943D01*
X158628009Y-106480278D01*
X158592271Y-106450948D01*
X158490814Y-106367686D01*
X158407552Y-106266229D01*
X158378222Y-106230491D01*
X158294557Y-106073966D01*
X158243037Y-105904127D01*
X158225641Y-105727500D01*
X158243037Y-105550873D01*
X158294557Y-105381034D01*
X158378222Y-105224509D01*
X158407552Y-105188771D01*
X158490814Y-105087314D01*
X158592271Y-105004052D01*
X158628009Y-104974722D01*
X158784534Y-104891057D01*
X158954373Y-104839537D01*
X159020557Y-104833019D01*
X159086740Y-104826500D01*
X159175260Y-104826500D01*
X159241442Y-104833018D01*
X159241442Y-104833018D01*
G37*
G36*
X156701442Y-104833018D02*
G01*
X156767627Y-104839537D01*
X156937466Y-104891057D01*
X157093991Y-104974722D01*
X157129729Y-105004052D01*
X157231186Y-105087314D01*
X157314448Y-105188771D01*
X157343778Y-105224509D01*
X157427443Y-105381034D01*
X157478963Y-105550873D01*
X157496359Y-105727500D01*
X157478963Y-105904127D01*
X157427443Y-106073966D01*
X157343778Y-106230491D01*
X157314448Y-106266229D01*
X157231186Y-106367686D01*
X157129729Y-106450948D01*
X157093991Y-106480278D01*
X156937466Y-106563943D01*
X156767627Y-106615463D01*
X156701442Y-106621982D01*
X156635260Y-106628500D01*
X156546740Y-106628500D01*
X156480558Y-106621982D01*
X156414373Y-106615463D01*
X156244534Y-106563943D01*
X156088009Y-106480278D01*
X156052271Y-106450948D01*
X155950814Y-106367686D01*
X155867552Y-106266229D01*
X155838222Y-106230491D01*
X155754557Y-106073966D01*
X155703037Y-105904127D01*
X155685641Y-105727500D01*
X155703037Y-105550873D01*
X155754557Y-105381034D01*
X155838222Y-105224509D01*
X155867552Y-105188771D01*
X155950814Y-105087314D01*
X156052271Y-105004052D01*
X156088009Y-104974722D01*
X156244534Y-104891057D01*
X156414373Y-104839537D01*
X156480557Y-104833019D01*
X156546740Y-104826500D01*
X156635260Y-104826500D01*
X156701442Y-104833018D01*
X156701442Y-104833018D01*
G37*
G36*
X113521442Y-104833018D02*
G01*
X113587627Y-104839537D01*
X113757466Y-104891057D01*
X113913991Y-104974722D01*
X113949729Y-105004052D01*
X114051186Y-105087314D01*
X114134448Y-105188771D01*
X114163778Y-105224509D01*
X114247443Y-105381034D01*
X114298963Y-105550873D01*
X114316359Y-105727500D01*
X114298963Y-105904127D01*
X114247443Y-106073966D01*
X114163778Y-106230491D01*
X114134448Y-106266229D01*
X114051186Y-106367686D01*
X113949729Y-106450948D01*
X113913991Y-106480278D01*
X113757466Y-106563943D01*
X113587627Y-106615463D01*
X113521442Y-106621982D01*
X113455260Y-106628500D01*
X113366740Y-106628500D01*
X113300558Y-106621982D01*
X113234373Y-106615463D01*
X113064534Y-106563943D01*
X112908009Y-106480278D01*
X112872271Y-106450948D01*
X112770814Y-106367686D01*
X112687552Y-106266229D01*
X112658222Y-106230491D01*
X112574557Y-106073966D01*
X112523037Y-105904127D01*
X112505641Y-105727500D01*
X112523037Y-105550873D01*
X112574557Y-105381034D01*
X112658222Y-105224509D01*
X112687552Y-105188771D01*
X112770814Y-105087314D01*
X112872271Y-105004052D01*
X112908009Y-104974722D01*
X113064534Y-104891057D01*
X113234373Y-104839537D01*
X113300557Y-104833019D01*
X113366740Y-104826500D01*
X113455260Y-104826500D01*
X113521442Y-104833018D01*
X113521442Y-104833018D01*
G37*
G36*
X121141442Y-104833018D02*
G01*
X121207627Y-104839537D01*
X121377466Y-104891057D01*
X121533991Y-104974722D01*
X121569729Y-105004052D01*
X121671186Y-105087314D01*
X121754448Y-105188771D01*
X121783778Y-105224509D01*
X121867443Y-105381034D01*
X121918963Y-105550873D01*
X121936359Y-105727500D01*
X121918963Y-105904127D01*
X121867443Y-106073966D01*
X121783778Y-106230491D01*
X121754448Y-106266229D01*
X121671186Y-106367686D01*
X121569729Y-106450948D01*
X121533991Y-106480278D01*
X121377466Y-106563943D01*
X121207627Y-106615463D01*
X121141442Y-106621982D01*
X121075260Y-106628500D01*
X120986740Y-106628500D01*
X120920558Y-106621982D01*
X120854373Y-106615463D01*
X120684534Y-106563943D01*
X120528009Y-106480278D01*
X120492271Y-106450948D01*
X120390814Y-106367686D01*
X120307552Y-106266229D01*
X120278222Y-106230491D01*
X120194557Y-106073966D01*
X120143037Y-105904127D01*
X120125641Y-105727500D01*
X120143037Y-105550873D01*
X120194557Y-105381034D01*
X120278222Y-105224509D01*
X120307552Y-105188771D01*
X120390814Y-105087314D01*
X120492271Y-105004052D01*
X120528009Y-104974722D01*
X120684534Y-104891057D01*
X120854373Y-104839537D01*
X120920557Y-104833019D01*
X120986740Y-104826500D01*
X121075260Y-104826500D01*
X121141442Y-104833018D01*
X121141442Y-104833018D01*
G37*
G36*
X154161442Y-104833018D02*
G01*
X154227627Y-104839537D01*
X154397466Y-104891057D01*
X154553991Y-104974722D01*
X154589729Y-105004052D01*
X154691186Y-105087314D01*
X154774448Y-105188771D01*
X154803778Y-105224509D01*
X154887443Y-105381034D01*
X154938963Y-105550873D01*
X154956359Y-105727500D01*
X154938963Y-105904127D01*
X154887443Y-106073966D01*
X154803778Y-106230491D01*
X154774448Y-106266229D01*
X154691186Y-106367686D01*
X154589729Y-106450948D01*
X154553991Y-106480278D01*
X154397466Y-106563943D01*
X154227627Y-106615463D01*
X154161442Y-106621982D01*
X154095260Y-106628500D01*
X154006740Y-106628500D01*
X153940558Y-106621982D01*
X153874373Y-106615463D01*
X153704534Y-106563943D01*
X153548009Y-106480278D01*
X153512271Y-106450948D01*
X153410814Y-106367686D01*
X153327552Y-106266229D01*
X153298222Y-106230491D01*
X153214557Y-106073966D01*
X153163037Y-105904127D01*
X153145641Y-105727500D01*
X153163037Y-105550873D01*
X153214557Y-105381034D01*
X153298222Y-105224509D01*
X153327552Y-105188771D01*
X153410814Y-105087314D01*
X153512271Y-105004052D01*
X153548009Y-104974722D01*
X153704534Y-104891057D01*
X153874373Y-104839537D01*
X153940557Y-104833019D01*
X154006740Y-104826500D01*
X154095260Y-104826500D01*
X154161442Y-104833018D01*
X154161442Y-104833018D01*
G37*
G36*
X123681442Y-104833018D02*
G01*
X123747627Y-104839537D01*
X123917466Y-104891057D01*
X124073991Y-104974722D01*
X124109729Y-105004052D01*
X124211186Y-105087314D01*
X124294448Y-105188771D01*
X124323778Y-105224509D01*
X124407443Y-105381034D01*
X124458963Y-105550873D01*
X124476359Y-105727500D01*
X124458963Y-105904127D01*
X124407443Y-106073966D01*
X124323778Y-106230491D01*
X124294448Y-106266229D01*
X124211186Y-106367686D01*
X124109729Y-106450948D01*
X124073991Y-106480278D01*
X123917466Y-106563943D01*
X123747627Y-106615463D01*
X123681442Y-106621982D01*
X123615260Y-106628500D01*
X123526740Y-106628500D01*
X123460558Y-106621982D01*
X123394373Y-106615463D01*
X123224534Y-106563943D01*
X123068009Y-106480278D01*
X123032271Y-106450948D01*
X122930814Y-106367686D01*
X122847552Y-106266229D01*
X122818222Y-106230491D01*
X122734557Y-106073966D01*
X122683037Y-105904127D01*
X122665641Y-105727500D01*
X122683037Y-105550873D01*
X122734557Y-105381034D01*
X122818222Y-105224509D01*
X122847552Y-105188771D01*
X122930814Y-105087314D01*
X123032271Y-105004052D01*
X123068009Y-104974722D01*
X123224534Y-104891057D01*
X123394373Y-104839537D01*
X123460557Y-104833019D01*
X123526740Y-104826500D01*
X123615260Y-104826500D01*
X123681442Y-104833018D01*
X123681442Y-104833018D01*
G37*
G36*
X151621442Y-104833018D02*
G01*
X151687627Y-104839537D01*
X151857466Y-104891057D01*
X152013991Y-104974722D01*
X152049729Y-105004052D01*
X152151186Y-105087314D01*
X152234448Y-105188771D01*
X152263778Y-105224509D01*
X152347443Y-105381034D01*
X152398963Y-105550873D01*
X152416359Y-105727500D01*
X152398963Y-105904127D01*
X152347443Y-106073966D01*
X152263778Y-106230491D01*
X152234448Y-106266229D01*
X152151186Y-106367686D01*
X152049729Y-106450948D01*
X152013991Y-106480278D01*
X151857466Y-106563943D01*
X151687627Y-106615463D01*
X151621442Y-106621982D01*
X151555260Y-106628500D01*
X151466740Y-106628500D01*
X151400558Y-106621982D01*
X151334373Y-106615463D01*
X151164534Y-106563943D01*
X151008009Y-106480278D01*
X150972271Y-106450948D01*
X150870814Y-106367686D01*
X150787552Y-106266229D01*
X150758222Y-106230491D01*
X150674557Y-106073966D01*
X150623037Y-105904127D01*
X150605641Y-105727500D01*
X150623037Y-105550873D01*
X150674557Y-105381034D01*
X150758222Y-105224509D01*
X150787552Y-105188771D01*
X150870814Y-105087314D01*
X150972271Y-105004052D01*
X151008009Y-104974722D01*
X151164534Y-104891057D01*
X151334373Y-104839537D01*
X151400557Y-104833019D01*
X151466740Y-104826500D01*
X151555260Y-104826500D01*
X151621442Y-104833018D01*
X151621442Y-104833018D01*
G37*
G36*
X126221442Y-104833018D02*
G01*
X126287627Y-104839537D01*
X126457466Y-104891057D01*
X126613991Y-104974722D01*
X126649729Y-105004052D01*
X126751186Y-105087314D01*
X126834448Y-105188771D01*
X126863778Y-105224509D01*
X126947443Y-105381034D01*
X126998963Y-105550873D01*
X127016359Y-105727500D01*
X126998963Y-105904127D01*
X126947443Y-106073966D01*
X126863778Y-106230491D01*
X126834448Y-106266229D01*
X126751186Y-106367686D01*
X126649729Y-106450948D01*
X126613991Y-106480278D01*
X126457466Y-106563943D01*
X126287627Y-106615463D01*
X126221442Y-106621982D01*
X126155260Y-106628500D01*
X126066740Y-106628500D01*
X126000558Y-106621982D01*
X125934373Y-106615463D01*
X125764534Y-106563943D01*
X125608009Y-106480278D01*
X125572271Y-106450948D01*
X125470814Y-106367686D01*
X125387552Y-106266229D01*
X125358222Y-106230491D01*
X125274557Y-106073966D01*
X125223037Y-105904127D01*
X125205641Y-105727500D01*
X125223037Y-105550873D01*
X125274557Y-105381034D01*
X125358222Y-105224509D01*
X125387552Y-105188771D01*
X125470814Y-105087314D01*
X125572271Y-105004052D01*
X125608009Y-104974722D01*
X125764534Y-104891057D01*
X125934373Y-104839537D01*
X126000557Y-104833019D01*
X126066740Y-104826500D01*
X126155260Y-104826500D01*
X126221442Y-104833018D01*
X126221442Y-104833018D01*
G37*
G36*
X149081442Y-104833018D02*
G01*
X149147627Y-104839537D01*
X149317466Y-104891057D01*
X149473991Y-104974722D01*
X149509729Y-105004052D01*
X149611186Y-105087314D01*
X149694448Y-105188771D01*
X149723778Y-105224509D01*
X149807443Y-105381034D01*
X149858963Y-105550873D01*
X149876359Y-105727500D01*
X149858963Y-105904127D01*
X149807443Y-106073966D01*
X149723778Y-106230491D01*
X149694448Y-106266229D01*
X149611186Y-106367686D01*
X149509729Y-106450948D01*
X149473991Y-106480278D01*
X149317466Y-106563943D01*
X149147627Y-106615463D01*
X149081442Y-106621982D01*
X149015260Y-106628500D01*
X148926740Y-106628500D01*
X148860558Y-106621982D01*
X148794373Y-106615463D01*
X148624534Y-106563943D01*
X148468009Y-106480278D01*
X148432271Y-106450948D01*
X148330814Y-106367686D01*
X148247552Y-106266229D01*
X148218222Y-106230491D01*
X148134557Y-106073966D01*
X148083037Y-105904127D01*
X148065641Y-105727500D01*
X148083037Y-105550873D01*
X148134557Y-105381034D01*
X148218222Y-105224509D01*
X148247552Y-105188771D01*
X148330814Y-105087314D01*
X148432271Y-105004052D01*
X148468009Y-104974722D01*
X148624534Y-104891057D01*
X148794373Y-104839537D01*
X148860557Y-104833019D01*
X148926740Y-104826500D01*
X149015260Y-104826500D01*
X149081442Y-104833018D01*
X149081442Y-104833018D01*
G37*
G36*
X128761442Y-104833018D02*
G01*
X128827627Y-104839537D01*
X128997466Y-104891057D01*
X129153991Y-104974722D01*
X129189729Y-105004052D01*
X129291186Y-105087314D01*
X129374448Y-105188771D01*
X129403778Y-105224509D01*
X129487443Y-105381034D01*
X129538963Y-105550873D01*
X129556359Y-105727500D01*
X129538963Y-105904127D01*
X129487443Y-106073966D01*
X129403778Y-106230491D01*
X129374448Y-106266229D01*
X129291186Y-106367686D01*
X129189729Y-106450948D01*
X129153991Y-106480278D01*
X128997466Y-106563943D01*
X128827627Y-106615463D01*
X128761442Y-106621982D01*
X128695260Y-106628500D01*
X128606740Y-106628500D01*
X128540558Y-106621982D01*
X128474373Y-106615463D01*
X128304534Y-106563943D01*
X128148009Y-106480278D01*
X128112271Y-106450948D01*
X128010814Y-106367686D01*
X127927552Y-106266229D01*
X127898222Y-106230491D01*
X127814557Y-106073966D01*
X127763037Y-105904127D01*
X127745641Y-105727500D01*
X127763037Y-105550873D01*
X127814557Y-105381034D01*
X127898222Y-105224509D01*
X127927552Y-105188771D01*
X128010814Y-105087314D01*
X128112271Y-105004052D01*
X128148009Y-104974722D01*
X128304534Y-104891057D01*
X128474373Y-104839537D01*
X128540557Y-104833019D01*
X128606740Y-104826500D01*
X128695260Y-104826500D01*
X128761442Y-104833018D01*
X128761442Y-104833018D01*
G37*
G36*
X146541442Y-104833018D02*
G01*
X146607627Y-104839537D01*
X146777466Y-104891057D01*
X146933991Y-104974722D01*
X146969729Y-105004052D01*
X147071186Y-105087314D01*
X147154448Y-105188771D01*
X147183778Y-105224509D01*
X147267443Y-105381034D01*
X147318963Y-105550873D01*
X147336359Y-105727500D01*
X147318963Y-105904127D01*
X147267443Y-106073966D01*
X147183778Y-106230491D01*
X147154448Y-106266229D01*
X147071186Y-106367686D01*
X146969729Y-106450948D01*
X146933991Y-106480278D01*
X146777466Y-106563943D01*
X146607627Y-106615463D01*
X146541442Y-106621982D01*
X146475260Y-106628500D01*
X146386740Y-106628500D01*
X146320558Y-106621982D01*
X146254373Y-106615463D01*
X146084534Y-106563943D01*
X145928009Y-106480278D01*
X145892271Y-106450948D01*
X145790814Y-106367686D01*
X145707552Y-106266229D01*
X145678222Y-106230491D01*
X145594557Y-106073966D01*
X145543037Y-105904127D01*
X145525641Y-105727500D01*
X145543037Y-105550873D01*
X145594557Y-105381034D01*
X145678222Y-105224509D01*
X145707552Y-105188771D01*
X145790814Y-105087314D01*
X145892271Y-105004052D01*
X145928009Y-104974722D01*
X146084534Y-104891057D01*
X146254373Y-104839537D01*
X146320557Y-104833019D01*
X146386740Y-104826500D01*
X146475260Y-104826500D01*
X146541442Y-104833018D01*
X146541442Y-104833018D01*
G37*
G36*
X131301442Y-104833018D02*
G01*
X131367627Y-104839537D01*
X131537466Y-104891057D01*
X131693991Y-104974722D01*
X131729729Y-105004052D01*
X131831186Y-105087314D01*
X131914448Y-105188771D01*
X131943778Y-105224509D01*
X132027443Y-105381034D01*
X132078963Y-105550873D01*
X132096359Y-105727500D01*
X132078963Y-105904127D01*
X132027443Y-106073966D01*
X131943778Y-106230491D01*
X131914448Y-106266229D01*
X131831186Y-106367686D01*
X131729729Y-106450948D01*
X131693991Y-106480278D01*
X131537466Y-106563943D01*
X131367627Y-106615463D01*
X131301442Y-106621982D01*
X131235260Y-106628500D01*
X131146740Y-106628500D01*
X131080558Y-106621982D01*
X131014373Y-106615463D01*
X130844534Y-106563943D01*
X130688009Y-106480278D01*
X130652271Y-106450948D01*
X130550814Y-106367686D01*
X130467552Y-106266229D01*
X130438222Y-106230491D01*
X130354557Y-106073966D01*
X130303037Y-105904127D01*
X130285641Y-105727500D01*
X130303037Y-105550873D01*
X130354557Y-105381034D01*
X130438222Y-105224509D01*
X130467552Y-105188771D01*
X130550814Y-105087314D01*
X130652271Y-105004052D01*
X130688009Y-104974722D01*
X130844534Y-104891057D01*
X131014373Y-104839537D01*
X131080557Y-104833019D01*
X131146740Y-104826500D01*
X131235260Y-104826500D01*
X131301442Y-104833018D01*
X131301442Y-104833018D01*
G37*
G36*
X144001442Y-104833018D02*
G01*
X144067627Y-104839537D01*
X144237466Y-104891057D01*
X144393991Y-104974722D01*
X144429729Y-105004052D01*
X144531186Y-105087314D01*
X144614448Y-105188771D01*
X144643778Y-105224509D01*
X144727443Y-105381034D01*
X144778963Y-105550873D01*
X144796359Y-105727500D01*
X144778963Y-105904127D01*
X144727443Y-106073966D01*
X144643778Y-106230491D01*
X144614448Y-106266229D01*
X144531186Y-106367686D01*
X144429729Y-106450948D01*
X144393991Y-106480278D01*
X144237466Y-106563943D01*
X144067627Y-106615463D01*
X144001442Y-106621982D01*
X143935260Y-106628500D01*
X143846740Y-106628500D01*
X143780558Y-106621982D01*
X143714373Y-106615463D01*
X143544534Y-106563943D01*
X143388009Y-106480278D01*
X143352271Y-106450948D01*
X143250814Y-106367686D01*
X143167552Y-106266229D01*
X143138222Y-106230491D01*
X143054557Y-106073966D01*
X143003037Y-105904127D01*
X142985641Y-105727500D01*
X143003037Y-105550873D01*
X143054557Y-105381034D01*
X143138222Y-105224509D01*
X143167552Y-105188771D01*
X143250814Y-105087314D01*
X143352271Y-105004052D01*
X143388009Y-104974722D01*
X143544534Y-104891057D01*
X143714373Y-104839537D01*
X143780557Y-104833019D01*
X143846740Y-104826500D01*
X143935260Y-104826500D01*
X144001442Y-104833018D01*
X144001442Y-104833018D01*
G37*
G36*
X133841442Y-104833018D02*
G01*
X133907627Y-104839537D01*
X134077466Y-104891057D01*
X134233991Y-104974722D01*
X134269729Y-105004052D01*
X134371186Y-105087314D01*
X134454448Y-105188771D01*
X134483778Y-105224509D01*
X134567443Y-105381034D01*
X134618963Y-105550873D01*
X134636359Y-105727500D01*
X134618963Y-105904127D01*
X134567443Y-106073966D01*
X134483778Y-106230491D01*
X134454448Y-106266229D01*
X134371186Y-106367686D01*
X134269729Y-106450948D01*
X134233991Y-106480278D01*
X134077466Y-106563943D01*
X133907627Y-106615463D01*
X133841442Y-106621982D01*
X133775260Y-106628500D01*
X133686740Y-106628500D01*
X133620558Y-106621982D01*
X133554373Y-106615463D01*
X133384534Y-106563943D01*
X133228009Y-106480278D01*
X133192271Y-106450948D01*
X133090814Y-106367686D01*
X133007552Y-106266229D01*
X132978222Y-106230491D01*
X132894557Y-106073966D01*
X132843037Y-105904127D01*
X132825641Y-105727500D01*
X132843037Y-105550873D01*
X132894557Y-105381034D01*
X132978222Y-105224509D01*
X133007552Y-105188771D01*
X133090814Y-105087314D01*
X133192271Y-105004052D01*
X133228009Y-104974722D01*
X133384534Y-104891057D01*
X133554373Y-104839537D01*
X133620557Y-104833019D01*
X133686740Y-104826500D01*
X133775260Y-104826500D01*
X133841442Y-104833018D01*
X133841442Y-104833018D01*
G37*
G36*
X141461442Y-104833018D02*
G01*
X141527627Y-104839537D01*
X141697466Y-104891057D01*
X141853991Y-104974722D01*
X141889729Y-105004052D01*
X141991186Y-105087314D01*
X142074448Y-105188771D01*
X142103778Y-105224509D01*
X142187443Y-105381034D01*
X142238963Y-105550873D01*
X142256359Y-105727500D01*
X142238963Y-105904127D01*
X142187443Y-106073966D01*
X142103778Y-106230491D01*
X142074448Y-106266229D01*
X141991186Y-106367686D01*
X141889729Y-106450948D01*
X141853991Y-106480278D01*
X141697466Y-106563943D01*
X141527627Y-106615463D01*
X141461442Y-106621982D01*
X141395260Y-106628500D01*
X141306740Y-106628500D01*
X141240558Y-106621982D01*
X141174373Y-106615463D01*
X141004534Y-106563943D01*
X140848009Y-106480278D01*
X140812271Y-106450948D01*
X140710814Y-106367686D01*
X140627552Y-106266229D01*
X140598222Y-106230491D01*
X140514557Y-106073966D01*
X140463037Y-105904127D01*
X140445641Y-105727500D01*
X140463037Y-105550873D01*
X140514557Y-105381034D01*
X140598222Y-105224509D01*
X140627552Y-105188771D01*
X140710814Y-105087314D01*
X140812271Y-105004052D01*
X140848009Y-104974722D01*
X141004534Y-104891057D01*
X141174373Y-104839537D01*
X141240557Y-104833019D01*
X141306740Y-104826500D01*
X141395260Y-104826500D01*
X141461442Y-104833018D01*
X141461442Y-104833018D01*
G37*
G36*
X136381442Y-104833018D02*
G01*
X136447627Y-104839537D01*
X136617466Y-104891057D01*
X136773991Y-104974722D01*
X136809729Y-105004052D01*
X136911186Y-105087314D01*
X136994448Y-105188771D01*
X137023778Y-105224509D01*
X137107443Y-105381034D01*
X137158963Y-105550873D01*
X137176359Y-105727500D01*
X137158963Y-105904127D01*
X137107443Y-106073966D01*
X137023778Y-106230491D01*
X136994448Y-106266229D01*
X136911186Y-106367686D01*
X136809729Y-106450948D01*
X136773991Y-106480278D01*
X136617466Y-106563943D01*
X136447627Y-106615463D01*
X136381442Y-106621982D01*
X136315260Y-106628500D01*
X136226740Y-106628500D01*
X136160558Y-106621982D01*
X136094373Y-106615463D01*
X135924534Y-106563943D01*
X135768009Y-106480278D01*
X135732271Y-106450948D01*
X135630814Y-106367686D01*
X135547552Y-106266229D01*
X135518222Y-106230491D01*
X135434557Y-106073966D01*
X135383037Y-105904127D01*
X135365641Y-105727500D01*
X135383037Y-105550873D01*
X135434557Y-105381034D01*
X135518222Y-105224509D01*
X135547552Y-105188771D01*
X135630814Y-105087314D01*
X135732271Y-105004052D01*
X135768009Y-104974722D01*
X135924534Y-104891057D01*
X136094373Y-104839537D01*
X136160557Y-104833019D01*
X136226740Y-104826500D01*
X136315260Y-104826500D01*
X136381442Y-104833018D01*
X136381442Y-104833018D01*
G37*
G36*
X138921442Y-104833018D02*
G01*
X138987627Y-104839537D01*
X139157466Y-104891057D01*
X139313991Y-104974722D01*
X139349729Y-105004052D01*
X139451186Y-105087314D01*
X139534448Y-105188771D01*
X139563778Y-105224509D01*
X139647443Y-105381034D01*
X139698963Y-105550873D01*
X139716359Y-105727500D01*
X139698963Y-105904127D01*
X139647443Y-106073966D01*
X139563778Y-106230491D01*
X139534448Y-106266229D01*
X139451186Y-106367686D01*
X139349729Y-106450948D01*
X139313991Y-106480278D01*
X139157466Y-106563943D01*
X138987627Y-106615463D01*
X138921442Y-106621982D01*
X138855260Y-106628500D01*
X138766740Y-106628500D01*
X138700558Y-106621982D01*
X138634373Y-106615463D01*
X138464534Y-106563943D01*
X138308009Y-106480278D01*
X138272271Y-106450948D01*
X138170814Y-106367686D01*
X138087552Y-106266229D01*
X138058222Y-106230491D01*
X137974557Y-106073966D01*
X137923037Y-105904127D01*
X137905641Y-105727500D01*
X137923037Y-105550873D01*
X137974557Y-105381034D01*
X138058222Y-105224509D01*
X138087552Y-105188771D01*
X138170814Y-105087314D01*
X138272271Y-105004052D01*
X138308009Y-104974722D01*
X138464534Y-104891057D01*
X138634373Y-104839537D01*
X138700557Y-104833019D01*
X138766740Y-104826500D01*
X138855260Y-104826500D01*
X138921442Y-104833018D01*
X138921442Y-104833018D01*
G37*
G36*
X104900500Y-103186000D02*
G01*
X102998500Y-103186000D01*
X102998500Y-101284000D01*
X104900500Y-101284000D01*
X104900500Y-103186000D01*
X104900500Y-103186000D01*
G37*
G36*
X106766895Y-101320546D02*
G01*
X106939966Y-101392234D01*
X106939967Y-101392235D01*
X107095727Y-101496310D01*
X107228190Y-101628773D01*
X107228191Y-101628775D01*
X107332266Y-101784534D01*
X107403954Y-101957605D01*
X107440500Y-102141333D01*
X107440500Y-102328667D01*
X107403954Y-102512395D01*
X107332266Y-102685466D01*
X107332265Y-102685467D01*
X107228190Y-102841227D01*
X107095727Y-102973690D01*
X107017318Y-103026081D01*
X106939966Y-103077766D01*
X106766895Y-103149454D01*
X106583167Y-103186000D01*
X106395833Y-103186000D01*
X106212105Y-103149454D01*
X106039034Y-103077766D01*
X105961682Y-103026081D01*
X105883273Y-102973690D01*
X105750810Y-102841227D01*
X105646735Y-102685467D01*
X105646734Y-102685466D01*
X105575046Y-102512395D01*
X105538500Y-102328667D01*
X105538500Y-102141333D01*
X105575046Y-101957605D01*
X105646734Y-101784534D01*
X105750809Y-101628775D01*
X105750810Y-101628773D01*
X105883273Y-101496310D01*
X106039033Y-101392235D01*
X106039034Y-101392234D01*
X106212105Y-101320546D01*
X106395833Y-101284000D01*
X106583167Y-101284000D01*
X106766895Y-101320546D01*
X106766895Y-101320546D01*
G37*
G36*
X115871730Y-100680086D02*
G01*
X115923297Y-100695729D01*
X115970822Y-100721132D01*
X116012481Y-100755319D01*
X116046668Y-100796978D01*
X116072071Y-100844503D01*
X116087714Y-100896070D01*
X116093600Y-100955838D01*
X116093600Y-101794562D01*
X116087714Y-101854330D01*
X116072071Y-101905897D01*
X116046668Y-101953422D01*
X116012481Y-101995081D01*
X115970822Y-102029268D01*
X115923297Y-102054671D01*
X115871730Y-102070314D01*
X115811962Y-102076200D01*
X115023238Y-102076200D01*
X114963470Y-102070314D01*
X114911903Y-102054671D01*
X114864378Y-102029268D01*
X114822719Y-101995081D01*
X114788532Y-101953422D01*
X114763129Y-101905897D01*
X114747486Y-101854330D01*
X114741600Y-101794562D01*
X114741600Y-100955838D01*
X114747486Y-100896070D01*
X114763129Y-100844503D01*
X114788532Y-100796978D01*
X114822719Y-100755319D01*
X114864378Y-100721132D01*
X114911903Y-100695729D01*
X114963470Y-100680086D01*
X115023238Y-100674200D01*
X115811962Y-100674200D01*
X115871730Y-100680086D01*
X115871730Y-100680086D01*
G37*
G36*
X108883899Y-99935445D02*
G01*
X108921395Y-99946820D01*
X108955954Y-99965292D01*
X108986247Y-99990153D01*
X109011108Y-100020446D01*
X109029580Y-100055005D01*
X109040955Y-100092501D01*
X109045400Y-100137638D01*
X109045400Y-100776362D01*
X109040955Y-100821499D01*
X109029580Y-100858995D01*
X109011108Y-100893554D01*
X108986247Y-100923847D01*
X108955954Y-100948708D01*
X108921395Y-100967180D01*
X108883899Y-100978555D01*
X108838762Y-100983000D01*
X108100038Y-100983000D01*
X108054901Y-100978555D01*
X108017405Y-100967180D01*
X107982846Y-100948708D01*
X107952553Y-100923847D01*
X107927692Y-100893554D01*
X107909220Y-100858995D01*
X107897845Y-100821499D01*
X107893400Y-100776362D01*
X107893400Y-100137638D01*
X107897845Y-100092501D01*
X107909220Y-100055005D01*
X107927692Y-100020446D01*
X107952553Y-99990153D01*
X107982846Y-99965292D01*
X108017405Y-99946820D01*
X108054901Y-99935445D01*
X108100038Y-99931000D01*
X108838762Y-99931000D01*
X108883899Y-99935445D01*
X108883899Y-99935445D01*
G37*
G36*
X107133899Y-99935445D02*
G01*
X107171395Y-99946820D01*
X107205954Y-99965292D01*
X107236247Y-99990153D01*
X107261108Y-100020446D01*
X107279580Y-100055005D01*
X107290955Y-100092501D01*
X107295400Y-100137638D01*
X107295400Y-100776362D01*
X107290955Y-100821499D01*
X107279580Y-100858995D01*
X107261108Y-100893554D01*
X107236247Y-100923847D01*
X107205954Y-100948708D01*
X107171395Y-100967180D01*
X107133899Y-100978555D01*
X107088762Y-100983000D01*
X106350038Y-100983000D01*
X106304901Y-100978555D01*
X106267405Y-100967180D01*
X106232846Y-100948708D01*
X106202553Y-100923847D01*
X106177692Y-100893554D01*
X106159220Y-100858995D01*
X106147845Y-100821499D01*
X106143400Y-100776362D01*
X106143400Y-100137638D01*
X106147845Y-100092501D01*
X106159220Y-100055005D01*
X106177692Y-100020446D01*
X106202553Y-99990153D01*
X106232846Y-99965292D01*
X106267405Y-99946820D01*
X106304901Y-99935445D01*
X106350038Y-99931000D01*
X107088762Y-99931000D01*
X107133899Y-99935445D01*
X107133899Y-99935445D01*
G37*
G36*
X115017770Y-99776003D02*
G01*
X115029475Y-99779554D01*
X115040265Y-99785321D01*
X115049719Y-99793081D01*
X115057479Y-99802535D01*
X115063246Y-99813325D01*
X115066797Y-99825030D01*
X115068600Y-99843338D01*
X115068600Y-100207062D01*
X115066797Y-100225370D01*
X115063246Y-100237075D01*
X115057479Y-100247865D01*
X115049719Y-100257319D01*
X115040265Y-100265079D01*
X115029475Y-100270846D01*
X115017770Y-100274397D01*
X114999462Y-100276200D01*
X113835738Y-100276200D01*
X113817430Y-100274397D01*
X113805725Y-100270846D01*
X113794935Y-100265079D01*
X113785481Y-100257319D01*
X113777721Y-100247865D01*
X113771954Y-100237075D01*
X113768403Y-100225370D01*
X113766600Y-100207062D01*
X113766600Y-99843338D01*
X113768403Y-99825030D01*
X113771954Y-99813325D01*
X113777721Y-99802535D01*
X113785481Y-99793081D01*
X113794935Y-99785321D01*
X113805725Y-99779554D01*
X113817430Y-99776003D01*
X113835738Y-99774200D01*
X114999462Y-99774200D01*
X115017770Y-99776003D01*
X115017770Y-99776003D01*
G37*
G36*
X117017770Y-99776003D02*
G01*
X117029475Y-99779554D01*
X117040265Y-99785321D01*
X117049719Y-99793081D01*
X117057479Y-99802535D01*
X117063246Y-99813325D01*
X117066797Y-99825030D01*
X117068600Y-99843338D01*
X117068600Y-100207062D01*
X117066797Y-100225370D01*
X117063246Y-100237075D01*
X117057479Y-100247865D01*
X117049719Y-100257319D01*
X117040265Y-100265079D01*
X117029475Y-100270846D01*
X117017770Y-100274397D01*
X116999462Y-100276200D01*
X115835738Y-100276200D01*
X115817430Y-100274397D01*
X115805725Y-100270846D01*
X115794935Y-100265079D01*
X115785481Y-100257319D01*
X115777721Y-100247865D01*
X115771954Y-100237075D01*
X115768403Y-100225370D01*
X115766600Y-100207062D01*
X115766600Y-99843338D01*
X115768403Y-99825030D01*
X115771954Y-99813325D01*
X115777721Y-99802535D01*
X115785481Y-99793081D01*
X115794935Y-99785321D01*
X115805725Y-99779554D01*
X115817430Y-99776003D01*
X115835738Y-99774200D01*
X116999462Y-99774200D01*
X117017770Y-99776003D01*
X117017770Y-99776003D01*
G37*
G36*
X166269500Y-100046000D02*
G01*
X164667500Y-100046000D01*
X164667500Y-99344000D01*
X166269500Y-99344000D01*
X166269500Y-100046000D01*
X166269500Y-100046000D01*
G37*
G36*
X156769500Y-100046000D02*
G01*
X155167500Y-100046000D01*
X155167500Y-99344000D01*
X156769500Y-99344000D01*
X156769500Y-100046000D01*
X156769500Y-100046000D01*
G37*
G36*
X115871730Y-97980086D02*
G01*
X115923297Y-97995729D01*
X115970822Y-98021132D01*
X116012481Y-98055319D01*
X116046668Y-98096978D01*
X116072071Y-98144503D01*
X116087714Y-98196070D01*
X116093600Y-98255838D01*
X116093600Y-99094562D01*
X116087714Y-99154330D01*
X116072071Y-99205897D01*
X116046668Y-99253422D01*
X116012481Y-99295081D01*
X115970822Y-99329268D01*
X115923297Y-99354671D01*
X115871730Y-99370314D01*
X115811962Y-99376200D01*
X115023238Y-99376200D01*
X114963470Y-99370314D01*
X114911903Y-99354671D01*
X114864378Y-99329268D01*
X114822719Y-99295081D01*
X114788532Y-99253422D01*
X114763129Y-99205897D01*
X114747486Y-99154330D01*
X114741600Y-99094562D01*
X114741600Y-98255838D01*
X114747486Y-98196070D01*
X114763129Y-98144503D01*
X114788532Y-98096978D01*
X114822719Y-98055319D01*
X114864378Y-98021132D01*
X114911903Y-97995729D01*
X114963470Y-97980086D01*
X115023238Y-97974200D01*
X115811962Y-97974200D01*
X115871730Y-97980086D01*
X115871730Y-97980086D01*
G37*
G36*
X166269500Y-98776000D02*
G01*
X164667500Y-98776000D01*
X164667500Y-98074000D01*
X166269500Y-98074000D01*
X166269500Y-98776000D01*
X166269500Y-98776000D01*
G37*
G36*
X156769500Y-98776000D02*
G01*
X155167500Y-98776000D01*
X155167500Y-98074000D01*
X156769500Y-98074000D01*
X156769500Y-98776000D01*
X156769500Y-98776000D01*
G37*
G36*
X110123562Y-95852181D02*
G01*
X110158481Y-95862774D01*
X110190663Y-95879976D01*
X110218873Y-95903127D01*
X110242024Y-95931337D01*
X110259226Y-95963519D01*
X110269819Y-95998438D01*
X110274000Y-96040895D01*
X110274000Y-97507105D01*
X110269819Y-97549562D01*
X110259226Y-97584481D01*
X110242024Y-97616663D01*
X110218873Y-97644873D01*
X110190663Y-97668024D01*
X110158481Y-97685226D01*
X110123562Y-97695819D01*
X110081105Y-97700000D01*
X108939895Y-97700000D01*
X108897438Y-97695819D01*
X108862519Y-97685226D01*
X108830337Y-97668024D01*
X108802127Y-97644873D01*
X108778976Y-97616663D01*
X108761774Y-97584481D01*
X108751181Y-97549562D01*
X108747000Y-97507105D01*
X108747000Y-96040895D01*
X108751181Y-95998438D01*
X108761774Y-95963519D01*
X108778976Y-95931337D01*
X108802127Y-95903127D01*
X108830337Y-95879976D01*
X108862519Y-95862774D01*
X108897438Y-95852181D01*
X108939895Y-95848000D01*
X110081105Y-95848000D01*
X110123562Y-95852181D01*
X110123562Y-95852181D01*
G37*
G36*
X113098562Y-95852181D02*
G01*
X113133481Y-95862774D01*
X113165663Y-95879976D01*
X113193873Y-95903127D01*
X113217024Y-95931337D01*
X113234226Y-95963519D01*
X113244819Y-95998438D01*
X113249000Y-96040895D01*
X113249000Y-97507105D01*
X113244819Y-97549562D01*
X113234226Y-97584481D01*
X113217024Y-97616663D01*
X113193873Y-97644873D01*
X113165663Y-97668024D01*
X113133481Y-97685226D01*
X113098562Y-97695819D01*
X113056105Y-97700000D01*
X111914895Y-97700000D01*
X111872438Y-97695819D01*
X111837519Y-97685226D01*
X111805337Y-97668024D01*
X111777127Y-97644873D01*
X111753976Y-97616663D01*
X111736774Y-97584481D01*
X111726181Y-97549562D01*
X111722000Y-97507105D01*
X111722000Y-96040895D01*
X111726181Y-95998438D01*
X111736774Y-95963519D01*
X111753976Y-95931337D01*
X111777127Y-95903127D01*
X111805337Y-95879976D01*
X111837519Y-95862774D01*
X111872438Y-95852181D01*
X111914895Y-95848000D01*
X113056105Y-95848000D01*
X113098562Y-95852181D01*
X113098562Y-95852181D01*
G37*
G36*
X156769500Y-97506000D02*
G01*
X155167500Y-97506000D01*
X155167500Y-96804000D01*
X156769500Y-96804000D01*
X156769500Y-97506000D01*
X156769500Y-97506000D01*
G37*
G36*
X166269500Y-97506000D02*
G01*
X164667500Y-97506000D01*
X164667500Y-96804000D01*
X166269500Y-96804000D01*
X166269500Y-97506000D01*
X166269500Y-97506000D01*
G37*
G36*
X115108999Y-95870945D02*
G01*
X115146495Y-95882320D01*
X115181054Y-95900792D01*
X115211347Y-95925653D01*
X115236208Y-95955946D01*
X115254680Y-95990505D01*
X115266055Y-96028001D01*
X115270500Y-96073138D01*
X115270500Y-96811862D01*
X115266055Y-96856999D01*
X115254680Y-96894495D01*
X115236208Y-96929054D01*
X115211347Y-96959347D01*
X115181054Y-96984208D01*
X115146495Y-97002680D01*
X115108999Y-97014055D01*
X115063862Y-97018500D01*
X114425138Y-97018500D01*
X114380001Y-97014055D01*
X114342505Y-97002680D01*
X114307946Y-96984208D01*
X114277653Y-96959347D01*
X114252792Y-96929054D01*
X114234320Y-96894495D01*
X114222945Y-96856999D01*
X114218500Y-96811862D01*
X114218500Y-96073138D01*
X114222945Y-96028001D01*
X114234320Y-95990505D01*
X114252792Y-95955946D01*
X114277653Y-95925653D01*
X114307946Y-95900792D01*
X114342505Y-95882320D01*
X114380001Y-95870945D01*
X114425138Y-95866500D01*
X115063862Y-95866500D01*
X115108999Y-95870945D01*
X115108999Y-95870945D01*
G37*
G36*
X156769500Y-96236000D02*
G01*
X155167500Y-96236000D01*
X155167500Y-95534000D01*
X156769500Y-95534000D01*
X156769500Y-96236000D01*
X156769500Y-96236000D01*
G37*
G36*
X166269500Y-96236000D02*
G01*
X164667500Y-96236000D01*
X164667500Y-95534000D01*
X166269500Y-95534000D01*
X166269500Y-96236000D01*
X166269500Y-96236000D01*
G37*
G36*
X115108999Y-94120945D02*
G01*
X115146495Y-94132320D01*
X115181054Y-94150792D01*
X115211347Y-94175653D01*
X115236208Y-94205946D01*
X115254680Y-94240505D01*
X115266055Y-94278001D01*
X115270500Y-94323138D01*
X115270500Y-95061862D01*
X115266055Y-95106999D01*
X115254680Y-95144495D01*
X115236208Y-95179054D01*
X115211347Y-95209347D01*
X115181054Y-95234208D01*
X115146495Y-95252680D01*
X115108999Y-95264055D01*
X115063862Y-95268500D01*
X114425138Y-95268500D01*
X114380001Y-95264055D01*
X114342505Y-95252680D01*
X114307946Y-95234208D01*
X114277653Y-95209347D01*
X114252792Y-95179054D01*
X114234320Y-95144495D01*
X114222945Y-95106999D01*
X114218500Y-95061862D01*
X114218500Y-94323138D01*
X114222945Y-94278001D01*
X114234320Y-94240505D01*
X114252792Y-94205946D01*
X114277653Y-94175653D01*
X114307946Y-94150792D01*
X114342505Y-94132320D01*
X114380001Y-94120945D01*
X114425138Y-94116500D01*
X115063862Y-94116500D01*
X115108999Y-94120945D01*
X115108999Y-94120945D01*
G37*
G36*
X156769500Y-94966000D02*
G01*
X155167500Y-94966000D01*
X155167500Y-94264000D01*
X156769500Y-94264000D01*
X156769500Y-94966000D01*
X156769500Y-94966000D01*
G37*
G36*
X166269500Y-94966000D02*
G01*
X164667500Y-94966000D01*
X164667500Y-94264000D01*
X166269500Y-94264000D01*
X166269500Y-94966000D01*
X166269500Y-94966000D01*
G37*
G36*
X156769500Y-93696000D02*
G01*
X155167500Y-93696000D01*
X155167500Y-92994000D01*
X156769500Y-92994000D01*
X156769500Y-93696000D01*
X156769500Y-93696000D01*
G37*
G36*
X166269500Y-93696000D02*
G01*
X164667500Y-93696000D01*
X164667500Y-92994000D01*
X166269500Y-92994000D01*
X166269500Y-93696000D01*
X166269500Y-93696000D01*
G37*
G36*
X166269500Y-92426000D02*
G01*
X164667500Y-92426000D01*
X164667500Y-91724000D01*
X166269500Y-91724000D01*
X166269500Y-92426000D01*
X166269500Y-92426000D01*
G37*
G36*
X156769500Y-92426000D02*
G01*
X155167500Y-92426000D01*
X155167500Y-91724000D01*
X156769500Y-91724000D01*
X156769500Y-92426000D01*
X156769500Y-92426000D01*
G37*
G36*
X113825500Y-92165000D02*
G01*
X113123500Y-92165000D01*
X113123500Y-90563000D01*
X113825500Y-90563000D01*
X113825500Y-92165000D01*
X113825500Y-92165000D01*
G37*
G36*
X121445500Y-92165000D02*
G01*
X120743500Y-92165000D01*
X120743500Y-90563000D01*
X121445500Y-90563000D01*
X121445500Y-92165000D01*
X121445500Y-92165000D01*
G37*
G36*
X147734500Y-92165000D02*
G01*
X147032500Y-92165000D01*
X147032500Y-90563000D01*
X147734500Y-90563000D01*
X147734500Y-92165000D01*
X147734500Y-92165000D01*
G37*
G36*
X146464500Y-92165000D02*
G01*
X145762500Y-92165000D01*
X145762500Y-90563000D01*
X146464500Y-90563000D01*
X146464500Y-92165000D01*
X146464500Y-92165000D01*
G37*
G36*
X131605500Y-92165000D02*
G01*
X130903500Y-92165000D01*
X130903500Y-90563000D01*
X131605500Y-90563000D01*
X131605500Y-92165000D01*
X131605500Y-92165000D01*
G37*
G36*
X130335500Y-92165000D02*
G01*
X129633500Y-92165000D01*
X129633500Y-90563000D01*
X130335500Y-90563000D01*
X130335500Y-92165000D01*
X130335500Y-92165000D01*
G37*
G36*
X129065500Y-92165000D02*
G01*
X128363500Y-92165000D01*
X128363500Y-90563000D01*
X129065500Y-90563000D01*
X129065500Y-92165000D01*
X129065500Y-92165000D01*
G37*
G36*
X127795500Y-92165000D02*
G01*
X127093500Y-92165000D01*
X127093500Y-90563000D01*
X127795500Y-90563000D01*
X127795500Y-92165000D01*
X127795500Y-92165000D01*
G37*
G36*
X125255500Y-92165000D02*
G01*
X124553500Y-92165000D01*
X124553500Y-90563000D01*
X125255500Y-90563000D01*
X125255500Y-92165000D01*
X125255500Y-92165000D01*
G37*
G36*
X123985500Y-92165000D02*
G01*
X123283500Y-92165000D01*
X123283500Y-90563000D01*
X123985500Y-90563000D01*
X123985500Y-92165000D01*
X123985500Y-92165000D01*
G37*
G36*
X122715500Y-92165000D02*
G01*
X122013500Y-92165000D01*
X122013500Y-90563000D01*
X122715500Y-90563000D01*
X122715500Y-92165000D01*
X122715500Y-92165000D01*
G37*
G36*
X152814500Y-92165000D02*
G01*
X152112500Y-92165000D01*
X152112500Y-90563000D01*
X152814500Y-90563000D01*
X152814500Y-92165000D01*
X152814500Y-92165000D01*
G37*
G36*
X151544500Y-92165000D02*
G01*
X150842500Y-92165000D01*
X150842500Y-90563000D01*
X151544500Y-90563000D01*
X151544500Y-92165000D01*
X151544500Y-92165000D01*
G37*
G36*
X120175500Y-92165000D02*
G01*
X119473500Y-92165000D01*
X119473500Y-90563000D01*
X120175500Y-90563000D01*
X120175500Y-92165000D01*
X120175500Y-92165000D01*
G37*
G36*
X150274500Y-92165000D02*
G01*
X149572500Y-92165000D01*
X149572500Y-90563000D01*
X150274500Y-90563000D01*
X150274500Y-92165000D01*
X150274500Y-92165000D01*
G37*
G36*
X149004500Y-92165000D02*
G01*
X148302500Y-92165000D01*
X148302500Y-90563000D01*
X149004500Y-90563000D01*
X149004500Y-92165000D01*
X149004500Y-92165000D01*
G37*
G36*
X145194500Y-92165000D02*
G01*
X144492500Y-92165000D01*
X144492500Y-90563000D01*
X145194500Y-90563000D01*
X145194500Y-92165000D01*
X145194500Y-92165000D01*
G37*
G36*
X143924500Y-92165000D02*
G01*
X143222500Y-92165000D01*
X143222500Y-90563000D01*
X143924500Y-90563000D01*
X143924500Y-92165000D01*
X143924500Y-92165000D01*
G37*
G36*
X142654500Y-92165000D02*
G01*
X141952500Y-92165000D01*
X141952500Y-90563000D01*
X142654500Y-90563000D01*
X142654500Y-92165000D01*
X142654500Y-92165000D01*
G37*
G36*
X141384500Y-92165000D02*
G01*
X140682500Y-92165000D01*
X140682500Y-90563000D01*
X141384500Y-90563000D01*
X141384500Y-92165000D01*
X141384500Y-92165000D01*
G37*
G36*
X139225500Y-92165000D02*
G01*
X138523500Y-92165000D01*
X138523500Y-90563000D01*
X139225500Y-90563000D01*
X139225500Y-92165000D01*
X139225500Y-92165000D01*
G37*
G36*
X137955500Y-92165000D02*
G01*
X137253500Y-92165000D01*
X137253500Y-90563000D01*
X137955500Y-90563000D01*
X137955500Y-92165000D01*
X137955500Y-92165000D01*
G37*
G36*
X136685500Y-92165000D02*
G01*
X135983500Y-92165000D01*
X135983500Y-90563000D01*
X136685500Y-90563000D01*
X136685500Y-92165000D01*
X136685500Y-92165000D01*
G37*
G36*
X118905500Y-92165000D02*
G01*
X118203500Y-92165000D01*
X118203500Y-90563000D01*
X118905500Y-90563000D01*
X118905500Y-92165000D01*
X118905500Y-92165000D01*
G37*
G36*
X117635500Y-92165000D02*
G01*
X116933500Y-92165000D01*
X116933500Y-90563000D01*
X117635500Y-90563000D01*
X117635500Y-92165000D01*
X117635500Y-92165000D01*
G37*
G36*
X116365500Y-92165000D02*
G01*
X115663500Y-92165000D01*
X115663500Y-90563000D01*
X116365500Y-90563000D01*
X116365500Y-92165000D01*
X116365500Y-92165000D01*
G37*
G36*
X135415500Y-92165000D02*
G01*
X134713500Y-92165000D01*
X134713500Y-90563000D01*
X135415500Y-90563000D01*
X135415500Y-92165000D01*
X135415500Y-92165000D01*
G37*
G36*
X134145500Y-92165000D02*
G01*
X133443500Y-92165000D01*
X133443500Y-90563000D01*
X134145500Y-90563000D01*
X134145500Y-92165000D01*
X134145500Y-92165000D01*
G37*
G36*
X132875500Y-92165000D02*
G01*
X132173500Y-92165000D01*
X132173500Y-90563000D01*
X132875500Y-90563000D01*
X132875500Y-92165000D01*
X132875500Y-92165000D01*
G37*
G36*
X115095500Y-92165000D02*
G01*
X114393500Y-92165000D01*
X114393500Y-90563000D01*
X115095500Y-90563000D01*
X115095500Y-92165000D01*
X115095500Y-92165000D01*
G37*
G36*
X108733355Y-90125140D02*
G01*
X108797118Y-90131420D01*
X108887904Y-90158960D01*
X108919836Y-90168646D01*
X109032925Y-90229094D01*
X109132054Y-90310446D01*
X109213406Y-90409575D01*
X109273854Y-90522664D01*
X109273855Y-90522668D01*
X109311080Y-90645382D01*
X109323649Y-90773000D01*
X109311080Y-90900618D01*
X109283540Y-90991404D01*
X109273854Y-91023336D01*
X109213406Y-91136425D01*
X109132054Y-91235554D01*
X109032925Y-91316906D01*
X108919836Y-91377354D01*
X108887904Y-91387040D01*
X108797118Y-91414580D01*
X108733355Y-91420860D01*
X108701474Y-91424000D01*
X108087526Y-91424000D01*
X108055645Y-91420860D01*
X107991882Y-91414580D01*
X107901096Y-91387040D01*
X107869164Y-91377354D01*
X107756075Y-91316906D01*
X107656946Y-91235554D01*
X107575594Y-91136425D01*
X107515146Y-91023336D01*
X107505460Y-90991404D01*
X107477920Y-90900618D01*
X107465351Y-90773000D01*
X107477920Y-90645382D01*
X107515145Y-90522668D01*
X107515146Y-90522664D01*
X107575594Y-90409575D01*
X107656946Y-90310446D01*
X107756075Y-90229094D01*
X107869164Y-90168646D01*
X107901096Y-90158960D01*
X107991882Y-90131420D01*
X108055645Y-90125140D01*
X108087526Y-90122000D01*
X108701474Y-90122000D01*
X108733355Y-90125140D01*
X108733355Y-90125140D01*
G37*
G36*
X166269500Y-91156000D02*
G01*
X164667500Y-91156000D01*
X164667500Y-90454000D01*
X166269500Y-90454000D01*
X166269500Y-91156000D01*
X166269500Y-91156000D01*
G37*
G36*
X156769500Y-91156000D02*
G01*
X155167500Y-91156000D01*
X155167500Y-90454000D01*
X156769500Y-90454000D01*
X156769500Y-91156000D01*
X156769500Y-91156000D01*
G37*
G36*
X166269500Y-89886000D02*
G01*
X164667500Y-89886000D01*
X164667500Y-89184000D01*
X166269500Y-89184000D01*
X166269500Y-89886000D01*
X166269500Y-89886000D01*
G37*
G36*
X156769500Y-89886000D02*
G01*
X155167500Y-89886000D01*
X155167500Y-89184000D01*
X156769500Y-89184000D01*
X156769500Y-89886000D01*
X156769500Y-89886000D01*
G37*
G36*
X109160742Y-88126404D02*
G01*
X109197837Y-88137657D01*
X109232015Y-88155925D01*
X109261981Y-88180519D01*
X109286575Y-88210485D01*
X109304843Y-88244663D01*
X109316096Y-88281758D01*
X109320500Y-88326474D01*
X109320500Y-89219526D01*
X109316096Y-89264242D01*
X109304843Y-89301337D01*
X109286575Y-89335515D01*
X109261981Y-89365481D01*
X109232015Y-89390075D01*
X109197837Y-89408343D01*
X109160742Y-89419596D01*
X109116026Y-89424000D01*
X107672974Y-89424000D01*
X107628258Y-89419596D01*
X107591163Y-89408343D01*
X107556985Y-89390075D01*
X107527019Y-89365481D01*
X107502425Y-89335515D01*
X107484157Y-89301337D01*
X107472904Y-89264242D01*
X107468500Y-89219526D01*
X107468500Y-88326474D01*
X107472904Y-88281758D01*
X107484157Y-88244663D01*
X107502425Y-88210485D01*
X107527019Y-88180519D01*
X107556985Y-88155925D01*
X107591163Y-88137657D01*
X107628258Y-88126404D01*
X107672974Y-88122000D01*
X109116026Y-88122000D01*
X109160742Y-88126404D01*
X109160742Y-88126404D01*
G37*
G36*
X166269500Y-88616000D02*
G01*
X164667500Y-88616000D01*
X164667500Y-87914000D01*
X166269500Y-87914000D01*
X166269500Y-88616000D01*
X166269500Y-88616000D01*
G37*
G36*
X156769500Y-88616000D02*
G01*
X155167500Y-88616000D01*
X155167500Y-87914000D01*
X156769500Y-87914000D01*
X156769500Y-88616000D01*
X156769500Y-88616000D01*
G37*
G36*
X111007630Y-87078386D02*
G01*
X111059197Y-87094029D01*
X111106722Y-87119432D01*
X111148381Y-87153619D01*
X111182568Y-87195278D01*
X111207971Y-87242803D01*
X111223614Y-87294370D01*
X111229500Y-87354138D01*
X111229500Y-88192862D01*
X111223614Y-88252630D01*
X111207971Y-88304197D01*
X111182568Y-88351722D01*
X111148381Y-88393381D01*
X111106722Y-88427568D01*
X111059197Y-88452971D01*
X111007630Y-88468614D01*
X110947862Y-88474500D01*
X110159138Y-88474500D01*
X110099370Y-88468614D01*
X110047803Y-88452971D01*
X110000278Y-88427568D01*
X109958619Y-88393381D01*
X109924432Y-88351722D01*
X109899029Y-88304197D01*
X109883386Y-88252630D01*
X109877500Y-88192862D01*
X109877500Y-87354138D01*
X109883386Y-87294370D01*
X109899029Y-87242803D01*
X109924432Y-87195278D01*
X109958619Y-87153619D01*
X110000278Y-87119432D01*
X110047803Y-87094029D01*
X110099370Y-87078386D01*
X110159138Y-87072500D01*
X110947862Y-87072500D01*
X111007630Y-87078386D01*
X111007630Y-87078386D01*
G37*
G36*
X110153670Y-86174303D02*
G01*
X110165375Y-86177854D01*
X110176165Y-86183621D01*
X110185619Y-86191381D01*
X110193379Y-86200835D01*
X110199146Y-86211625D01*
X110202697Y-86223330D01*
X110204500Y-86241638D01*
X110204500Y-86605362D01*
X110202697Y-86623670D01*
X110199146Y-86635375D01*
X110193379Y-86646165D01*
X110185619Y-86655619D01*
X110176165Y-86663379D01*
X110165375Y-86669146D01*
X110153670Y-86672697D01*
X110135362Y-86674500D01*
X108971638Y-86674500D01*
X108953330Y-86672697D01*
X108941625Y-86669146D01*
X108930835Y-86663379D01*
X108921381Y-86655619D01*
X108913621Y-86646165D01*
X108907854Y-86635375D01*
X108904303Y-86623670D01*
X108902500Y-86605362D01*
X108902500Y-86241638D01*
X108904303Y-86223330D01*
X108907854Y-86211625D01*
X108913621Y-86200835D01*
X108921381Y-86191381D01*
X108930835Y-86183621D01*
X108941625Y-86177854D01*
X108953330Y-86174303D01*
X108971638Y-86172500D01*
X110135362Y-86172500D01*
X110153670Y-86174303D01*
X110153670Y-86174303D01*
G37*
G36*
X112153670Y-86174303D02*
G01*
X112165375Y-86177854D01*
X112176165Y-86183621D01*
X112185619Y-86191381D01*
X112193379Y-86200835D01*
X112199146Y-86211625D01*
X112202697Y-86223330D01*
X112204500Y-86241638D01*
X112204500Y-86605362D01*
X112202697Y-86623670D01*
X112199146Y-86635375D01*
X112193379Y-86646165D01*
X112185619Y-86655619D01*
X112176165Y-86663379D01*
X112165375Y-86669146D01*
X112153670Y-86672697D01*
X112135362Y-86674500D01*
X110971638Y-86674500D01*
X110953330Y-86672697D01*
X110941625Y-86669146D01*
X110930835Y-86663379D01*
X110921381Y-86655619D01*
X110913621Y-86646165D01*
X110907854Y-86635375D01*
X110904303Y-86623670D01*
X110902500Y-86605362D01*
X110902500Y-86241638D01*
X110904303Y-86223330D01*
X110907854Y-86211625D01*
X110913621Y-86200835D01*
X110921381Y-86191381D01*
X110930835Y-86183621D01*
X110941625Y-86177854D01*
X110953330Y-86174303D01*
X110971638Y-86172500D01*
X112135362Y-86172500D01*
X112153670Y-86174303D01*
X112153670Y-86174303D01*
G37*
G36*
X158705999Y-85520945D02*
G01*
X158743495Y-85532320D01*
X158778054Y-85550792D01*
X158808347Y-85575653D01*
X158833208Y-85605946D01*
X158851680Y-85640505D01*
X158863055Y-85678001D01*
X158867500Y-85723138D01*
X158867500Y-86361862D01*
X158863055Y-86406999D01*
X158851680Y-86444495D01*
X158833208Y-86479054D01*
X158808347Y-86509347D01*
X158778054Y-86534208D01*
X158743495Y-86552680D01*
X158705999Y-86564055D01*
X158660862Y-86568500D01*
X157922138Y-86568500D01*
X157877001Y-86564055D01*
X157839505Y-86552680D01*
X157804946Y-86534208D01*
X157774653Y-86509347D01*
X157749792Y-86479054D01*
X157731320Y-86444495D01*
X157719945Y-86406999D01*
X157715500Y-86361862D01*
X157715500Y-85723138D01*
X157719945Y-85678001D01*
X157731320Y-85640505D01*
X157749792Y-85605946D01*
X157774653Y-85575653D01*
X157804946Y-85550792D01*
X157839505Y-85532320D01*
X157877001Y-85520945D01*
X157922138Y-85516500D01*
X158660862Y-85516500D01*
X158705999Y-85520945D01*
X158705999Y-85520945D01*
G37*
G36*
X156955999Y-85520945D02*
G01*
X156993495Y-85532320D01*
X157028054Y-85550792D01*
X157058347Y-85575653D01*
X157083208Y-85605946D01*
X157101680Y-85640505D01*
X157113055Y-85678001D01*
X157117500Y-85723138D01*
X157117500Y-86361862D01*
X157113055Y-86406999D01*
X157101680Y-86444495D01*
X157083208Y-86479054D01*
X157058347Y-86509347D01*
X157028054Y-86534208D01*
X156993495Y-86552680D01*
X156955999Y-86564055D01*
X156910862Y-86568500D01*
X156172138Y-86568500D01*
X156127001Y-86564055D01*
X156089505Y-86552680D01*
X156054946Y-86534208D01*
X156024653Y-86509347D01*
X155999792Y-86479054D01*
X155981320Y-86444495D01*
X155969945Y-86406999D01*
X155965500Y-86361862D01*
X155965500Y-85723138D01*
X155969945Y-85678001D01*
X155981320Y-85640505D01*
X155999792Y-85605946D01*
X156024653Y-85575653D01*
X156054946Y-85550792D01*
X156089505Y-85532320D01*
X156127001Y-85520945D01*
X156172138Y-85516500D01*
X156910862Y-85516500D01*
X156955999Y-85520945D01*
X156955999Y-85520945D01*
G37*
G36*
X111007630Y-84378386D02*
G01*
X111059197Y-84394029D01*
X111106722Y-84419432D01*
X111148381Y-84453619D01*
X111182568Y-84495278D01*
X111207971Y-84542803D01*
X111223614Y-84594370D01*
X111229500Y-84654138D01*
X111229500Y-85492862D01*
X111223614Y-85552630D01*
X111207971Y-85604197D01*
X111182568Y-85651722D01*
X111148381Y-85693381D01*
X111106722Y-85727568D01*
X111059197Y-85752971D01*
X111007630Y-85768614D01*
X110947862Y-85774500D01*
X110159138Y-85774500D01*
X110099370Y-85768614D01*
X110047803Y-85752971D01*
X110000278Y-85727568D01*
X109958619Y-85693381D01*
X109924432Y-85651722D01*
X109899029Y-85604197D01*
X109883386Y-85552630D01*
X109877500Y-85492862D01*
X109877500Y-84654138D01*
X109883386Y-84594370D01*
X109899029Y-84542803D01*
X109924432Y-84495278D01*
X109958619Y-84453619D01*
X110000278Y-84419432D01*
X110047803Y-84394029D01*
X110099370Y-84378386D01*
X110159138Y-84372500D01*
X110947862Y-84372500D01*
X111007630Y-84378386D01*
X111007630Y-84378386D01*
G37*
G36*
X106224549Y-82871116D02*
G01*
X106335734Y-82893232D01*
X106545203Y-82979997D01*
X106733720Y-83105960D01*
X106894040Y-83266280D01*
X107020003Y-83454797D01*
X107020004Y-83454799D01*
X107106768Y-83664267D01*
X107144994Y-83856439D01*
X107151000Y-83886636D01*
X107151000Y-84113364D01*
X107106768Y-84335734D01*
X107020003Y-84545203D01*
X106894040Y-84733720D01*
X106733720Y-84894040D01*
X106545203Y-85020003D01*
X106335734Y-85106768D01*
X106224549Y-85128884D01*
X106113365Y-85151000D01*
X105886635Y-85151000D01*
X105775451Y-85128884D01*
X105664266Y-85106768D01*
X105454797Y-85020003D01*
X105266280Y-84894040D01*
X105105960Y-84733720D01*
X104979997Y-84545203D01*
X104893232Y-84335734D01*
X104849000Y-84113364D01*
X104849000Y-83886636D01*
X104855007Y-83856439D01*
X104893232Y-83664267D01*
X104979996Y-83454799D01*
X104979997Y-83454797D01*
X105105960Y-83266280D01*
X105266280Y-83105960D01*
X105454797Y-82979997D01*
X105664266Y-82893232D01*
X105775451Y-82871116D01*
X105886635Y-82849000D01*
X106113365Y-82849000D01*
X106224549Y-82871116D01*
X106224549Y-82871116D01*
G37*
G36*
X164224549Y-82871116D02*
G01*
X164335734Y-82893232D01*
X164545203Y-82979997D01*
X164733720Y-83105960D01*
X164894040Y-83266280D01*
X165020003Y-83454797D01*
X165020004Y-83454799D01*
X165106768Y-83664267D01*
X165144994Y-83856439D01*
X165151000Y-83886636D01*
X165151000Y-84113364D01*
X165106768Y-84335734D01*
X165020003Y-84545203D01*
X164894040Y-84733720D01*
X164733720Y-84894040D01*
X164545203Y-85020003D01*
X164335734Y-85106768D01*
X164224549Y-85128884D01*
X164113365Y-85151000D01*
X163886635Y-85151000D01*
X163775451Y-85128884D01*
X163664266Y-85106768D01*
X163454797Y-85020003D01*
X163266280Y-84894040D01*
X163105960Y-84733720D01*
X162979997Y-84545203D01*
X162893232Y-84335734D01*
X162849000Y-84113364D01*
X162849000Y-83886636D01*
X162855007Y-83856439D01*
X162893232Y-83664267D01*
X162979996Y-83454799D01*
X162979997Y-83454797D01*
X163105960Y-83266280D01*
X163266280Y-83105960D01*
X163454797Y-82979997D01*
X163664266Y-82893232D01*
X163775451Y-82871116D01*
X163886635Y-82849000D01*
X164113365Y-82849000D01*
X164224549Y-82871116D01*
X164224549Y-82871116D01*
G37*
G36*
X111837062Y-82452681D02*
G01*
X111871981Y-82463274D01*
X111904163Y-82480476D01*
X111932373Y-82503627D01*
X111955524Y-82531837D01*
X111972726Y-82564019D01*
X111983319Y-82598938D01*
X111987500Y-82641395D01*
X111987500Y-83782605D01*
X111983319Y-83825062D01*
X111972726Y-83859981D01*
X111955524Y-83892163D01*
X111932373Y-83920373D01*
X111904163Y-83943524D01*
X111871981Y-83960726D01*
X111837062Y-83971319D01*
X111794605Y-83975500D01*
X110328395Y-83975500D01*
X110285938Y-83971319D01*
X110251019Y-83960726D01*
X110218837Y-83943524D01*
X110190627Y-83920373D01*
X110167476Y-83892163D01*
X110150274Y-83859981D01*
X110139681Y-83825062D01*
X110135500Y-83782605D01*
X110135500Y-82641395D01*
X110139681Y-82598938D01*
X110150274Y-82564019D01*
X110167476Y-82531837D01*
X110190627Y-82503627D01*
X110218837Y-82480476D01*
X110251019Y-82463274D01*
X110285938Y-82452681D01*
X110328395Y-82448500D01*
X111794605Y-82448500D01*
X111837062Y-82452681D01*
X111837062Y-82452681D01*
G37*
G36*
X120175500Y-82665000D02*
G01*
X119473500Y-82665000D01*
X119473500Y-81063000D01*
X120175500Y-81063000D01*
X120175500Y-82665000D01*
X120175500Y-82665000D01*
G37*
G36*
X118905500Y-82665000D02*
G01*
X118203500Y-82665000D01*
X118203500Y-81063000D01*
X118905500Y-81063000D01*
X118905500Y-82665000D01*
X118905500Y-82665000D01*
G37*
G36*
X117635500Y-82665000D02*
G01*
X116933500Y-82665000D01*
X116933500Y-81063000D01*
X117635500Y-81063000D01*
X117635500Y-82665000D01*
X117635500Y-82665000D01*
G37*
G36*
X116365500Y-82665000D02*
G01*
X115663500Y-82665000D01*
X115663500Y-81063000D01*
X116365500Y-81063000D01*
X116365500Y-82665000D01*
X116365500Y-82665000D01*
G37*
G36*
X115095500Y-82665000D02*
G01*
X114393500Y-82665000D01*
X114393500Y-81063000D01*
X115095500Y-81063000D01*
X115095500Y-82665000D01*
X115095500Y-82665000D01*
G37*
G36*
X113825500Y-82665000D02*
G01*
X113123500Y-82665000D01*
X113123500Y-81063000D01*
X113825500Y-81063000D01*
X113825500Y-82665000D01*
X113825500Y-82665000D01*
G37*
G36*
X121445500Y-82665000D02*
G01*
X120743500Y-82665000D01*
X120743500Y-81063000D01*
X121445500Y-81063000D01*
X121445500Y-82665000D01*
X121445500Y-82665000D01*
G37*
G36*
X122715500Y-82665000D02*
G01*
X122013500Y-82665000D01*
X122013500Y-81063000D01*
X122715500Y-81063000D01*
X122715500Y-82665000D01*
X122715500Y-82665000D01*
G37*
G36*
X123985500Y-82665000D02*
G01*
X123283500Y-82665000D01*
X123283500Y-81063000D01*
X123985500Y-81063000D01*
X123985500Y-82665000D01*
X123985500Y-82665000D01*
G37*
G36*
X125255500Y-82665000D02*
G01*
X124553500Y-82665000D01*
X124553500Y-81063000D01*
X125255500Y-81063000D01*
X125255500Y-82665000D01*
X125255500Y-82665000D01*
G37*
G36*
X141384500Y-82665000D02*
G01*
X140682500Y-82665000D01*
X140682500Y-81063000D01*
X141384500Y-81063000D01*
X141384500Y-82665000D01*
X141384500Y-82665000D01*
G37*
G36*
X142654500Y-82665000D02*
G01*
X141952500Y-82665000D01*
X141952500Y-81063000D01*
X142654500Y-81063000D01*
X142654500Y-82665000D01*
X142654500Y-82665000D01*
G37*
G36*
X143924500Y-82665000D02*
G01*
X143222500Y-82665000D01*
X143222500Y-81063000D01*
X143924500Y-81063000D01*
X143924500Y-82665000D01*
X143924500Y-82665000D01*
G37*
G36*
X145194500Y-82665000D02*
G01*
X144492500Y-82665000D01*
X144492500Y-81063000D01*
X145194500Y-81063000D01*
X145194500Y-82665000D01*
X145194500Y-82665000D01*
G37*
G36*
X146464500Y-82665000D02*
G01*
X145762500Y-82665000D01*
X145762500Y-81063000D01*
X146464500Y-81063000D01*
X146464500Y-82665000D01*
X146464500Y-82665000D01*
G37*
G36*
X147734500Y-82665000D02*
G01*
X147032500Y-82665000D01*
X147032500Y-81063000D01*
X147734500Y-81063000D01*
X147734500Y-82665000D01*
X147734500Y-82665000D01*
G37*
G36*
X149004500Y-82665000D02*
G01*
X148302500Y-82665000D01*
X148302500Y-81063000D01*
X149004500Y-81063000D01*
X149004500Y-82665000D01*
X149004500Y-82665000D01*
G37*
G36*
X150274500Y-82665000D02*
G01*
X149572500Y-82665000D01*
X149572500Y-81063000D01*
X150274500Y-81063000D01*
X150274500Y-82665000D01*
X150274500Y-82665000D01*
G37*
G36*
X151544500Y-82665000D02*
G01*
X150842500Y-82665000D01*
X150842500Y-81063000D01*
X151544500Y-81063000D01*
X151544500Y-82665000D01*
X151544500Y-82665000D01*
G37*
G36*
X152814500Y-82665000D02*
G01*
X152112500Y-82665000D01*
X152112500Y-81063000D01*
X152814500Y-81063000D01*
X152814500Y-82665000D01*
X152814500Y-82665000D01*
G37*
G36*
X139225500Y-82665000D02*
G01*
X138523500Y-82665000D01*
X138523500Y-81063000D01*
X139225500Y-81063000D01*
X139225500Y-82665000D01*
X139225500Y-82665000D01*
G37*
G36*
X137955500Y-82665000D02*
G01*
X137253500Y-82665000D01*
X137253500Y-81063000D01*
X137955500Y-81063000D01*
X137955500Y-82665000D01*
X137955500Y-82665000D01*
G37*
G36*
X136685500Y-82665000D02*
G01*
X135983500Y-82665000D01*
X135983500Y-81063000D01*
X136685500Y-81063000D01*
X136685500Y-82665000D01*
X136685500Y-82665000D01*
G37*
G36*
X135415500Y-82665000D02*
G01*
X134713500Y-82665000D01*
X134713500Y-81063000D01*
X135415500Y-81063000D01*
X135415500Y-82665000D01*
X135415500Y-82665000D01*
G37*
G36*
X134145500Y-82665000D02*
G01*
X133443500Y-82665000D01*
X133443500Y-81063000D01*
X134145500Y-81063000D01*
X134145500Y-82665000D01*
X134145500Y-82665000D01*
G37*
G36*
X132875500Y-82665000D02*
G01*
X132173500Y-82665000D01*
X132173500Y-81063000D01*
X132875500Y-81063000D01*
X132875500Y-82665000D01*
X132875500Y-82665000D01*
G37*
G36*
X131605500Y-82665000D02*
G01*
X130903500Y-82665000D01*
X130903500Y-81063000D01*
X131605500Y-81063000D01*
X131605500Y-82665000D01*
X131605500Y-82665000D01*
G37*
G36*
X130335500Y-82665000D02*
G01*
X129633500Y-82665000D01*
X129633500Y-81063000D01*
X130335500Y-81063000D01*
X130335500Y-82665000D01*
X130335500Y-82665000D01*
G37*
G36*
X129065500Y-82665000D02*
G01*
X128363500Y-82665000D01*
X128363500Y-81063000D01*
X129065500Y-81063000D01*
X129065500Y-82665000D01*
X129065500Y-82665000D01*
G37*
G36*
X127795500Y-82665000D02*
G01*
X127093500Y-82665000D01*
X127093500Y-81063000D01*
X127795500Y-81063000D01*
X127795500Y-82665000D01*
X127795500Y-82665000D01*
G37*
G36*
X156737499Y-81139445D02*
G01*
X156774995Y-81150820D01*
X156809554Y-81169292D01*
X156839847Y-81194153D01*
X156864708Y-81224446D01*
X156883180Y-81259005D01*
X156894555Y-81296501D01*
X156899000Y-81341638D01*
X156899000Y-81980362D01*
X156894555Y-82025499D01*
X156883180Y-82062995D01*
X156864708Y-82097554D01*
X156839847Y-82127847D01*
X156809554Y-82152708D01*
X156774995Y-82171180D01*
X156737499Y-82182555D01*
X156692362Y-82187000D01*
X155953638Y-82187000D01*
X155908501Y-82182555D01*
X155871005Y-82171180D01*
X155836446Y-82152708D01*
X155806153Y-82127847D01*
X155781292Y-82097554D01*
X155762820Y-82062995D01*
X155751445Y-82025499D01*
X155747000Y-81980362D01*
X155747000Y-81341638D01*
X155751445Y-81296501D01*
X155762820Y-81259005D01*
X155781292Y-81224446D01*
X155806153Y-81194153D01*
X155836446Y-81169292D01*
X155871005Y-81150820D01*
X155908501Y-81139445D01*
X155953638Y-81135000D01*
X156692362Y-81135000D01*
X156737499Y-81139445D01*
X156737499Y-81139445D01*
G37*
G36*
X154987499Y-81139445D02*
G01*
X155024995Y-81150820D01*
X155059554Y-81169292D01*
X155089847Y-81194153D01*
X155114708Y-81224446D01*
X155133180Y-81259005D01*
X155144555Y-81296501D01*
X155149000Y-81341638D01*
X155149000Y-81980362D01*
X155144555Y-82025499D01*
X155133180Y-82062995D01*
X155114708Y-82097554D01*
X155089847Y-82127847D01*
X155059554Y-82152708D01*
X155024995Y-82171180D01*
X154987499Y-82182555D01*
X154942362Y-82187000D01*
X154203638Y-82187000D01*
X154158501Y-82182555D01*
X154121005Y-82171180D01*
X154086446Y-82152708D01*
X154056153Y-82127847D01*
X154031292Y-82097554D01*
X154012820Y-82062995D01*
X154001445Y-82025499D01*
X153997000Y-81980362D01*
X153997000Y-81341638D01*
X154001445Y-81296501D01*
X154012820Y-81259005D01*
X154031292Y-81224446D01*
X154056153Y-81194153D01*
X154086446Y-81169292D01*
X154121005Y-81150820D01*
X154158501Y-81139445D01*
X154203638Y-81135000D01*
X154942362Y-81135000D01*
X154987499Y-81139445D01*
X154987499Y-81139445D01*
G37*
G36*
X111837062Y-79477681D02*
G01*
X111871981Y-79488274D01*
X111904163Y-79505476D01*
X111932373Y-79528627D01*
X111955524Y-79556837D01*
X111972726Y-79589019D01*
X111983319Y-79623938D01*
X111987500Y-79666395D01*
X111987500Y-80807605D01*
X111983319Y-80850062D01*
X111972726Y-80884981D01*
X111955524Y-80917163D01*
X111932373Y-80945373D01*
X111904163Y-80968524D01*
X111871981Y-80985726D01*
X111837062Y-80996319D01*
X111794605Y-81000500D01*
X110328395Y-81000500D01*
X110285938Y-80996319D01*
X110251019Y-80985726D01*
X110218837Y-80968524D01*
X110190627Y-80945373D01*
X110167476Y-80917163D01*
X110150274Y-80884981D01*
X110139681Y-80850062D01*
X110135500Y-80807605D01*
X110135500Y-79666395D01*
X110139681Y-79623938D01*
X110150274Y-79589019D01*
X110167476Y-79556837D01*
X110190627Y-79528627D01*
X110218837Y-79505476D01*
X110251019Y-79488274D01*
X110285938Y-79477681D01*
X110328395Y-79473500D01*
X111794605Y-79473500D01*
X111837062Y-79477681D01*
X111837062Y-79477681D01*
G37*
G36*
X105621855Y-79615640D02*
G01*
X105685618Y-79621920D01*
X105776404Y-79649460D01*
X105808336Y-79659146D01*
X105921425Y-79719594D01*
X106020554Y-79800946D01*
X106101906Y-79900075D01*
X106162354Y-80013164D01*
X106162355Y-80013168D01*
X106199580Y-80135882D01*
X106212149Y-80263500D01*
X106199580Y-80391118D01*
X106172040Y-80481904D01*
X106162354Y-80513836D01*
X106101906Y-80626925D01*
X106020554Y-80726054D01*
X105921425Y-80807406D01*
X105808336Y-80867854D01*
X105776404Y-80877540D01*
X105685618Y-80905080D01*
X105621855Y-80911360D01*
X105589974Y-80914500D01*
X104976026Y-80914500D01*
X104944145Y-80911360D01*
X104880382Y-80905080D01*
X104789596Y-80877540D01*
X104757664Y-80867854D01*
X104644575Y-80807406D01*
X104545446Y-80726054D01*
X104464094Y-80626925D01*
X104403646Y-80513836D01*
X104393960Y-80481904D01*
X104366420Y-80391118D01*
X104353851Y-80263500D01*
X104366420Y-80135882D01*
X104403645Y-80013168D01*
X104403646Y-80013164D01*
X104464094Y-79900075D01*
X104545446Y-79800946D01*
X104644575Y-79719594D01*
X104757664Y-79659146D01*
X104789596Y-79649460D01*
X104880382Y-79621920D01*
X104944145Y-79615640D01*
X104976026Y-79612500D01*
X105589974Y-79612500D01*
X105621855Y-79615640D01*
X105621855Y-79615640D01*
G37*
G36*
X147919059Y-77449060D02*
G01*
X148055732Y-77505672D01*
X148178735Y-77587860D01*
X148283340Y-77692465D01*
X148355825Y-77800947D01*
X148365529Y-77815470D01*
X148422140Y-77952141D01*
X148451000Y-78097232D01*
X148451000Y-78245168D01*
X148441443Y-78293214D01*
X148422140Y-78390259D01*
X148365528Y-78526932D01*
X148283340Y-78649935D01*
X148178735Y-78754540D01*
X148055732Y-78836728D01*
X148055731Y-78836729D01*
X148055730Y-78836729D01*
X147919059Y-78893340D01*
X147773968Y-78922200D01*
X147626032Y-78922200D01*
X147480941Y-78893340D01*
X147344270Y-78836729D01*
X147344269Y-78836729D01*
X147344268Y-78836728D01*
X147221265Y-78754540D01*
X147116660Y-78649935D01*
X147034472Y-78526932D01*
X146977860Y-78390259D01*
X146958557Y-78293214D01*
X146949000Y-78245168D01*
X146949000Y-78097232D01*
X146977860Y-77952141D01*
X147034471Y-77815470D01*
X147044175Y-77800947D01*
X147116660Y-77692465D01*
X147221265Y-77587860D01*
X147344268Y-77505672D01*
X147480941Y-77449060D01*
X147626032Y-77420200D01*
X147773968Y-77420200D01*
X147919059Y-77449060D01*
X147919059Y-77449060D01*
G37*
G36*
X135219059Y-77449060D02*
G01*
X135355732Y-77505672D01*
X135478735Y-77587860D01*
X135583340Y-77692465D01*
X135655825Y-77800947D01*
X135665529Y-77815470D01*
X135722140Y-77952141D01*
X135751000Y-78097232D01*
X135751000Y-78245168D01*
X135741443Y-78293214D01*
X135722140Y-78390259D01*
X135665528Y-78526932D01*
X135583340Y-78649935D01*
X135478735Y-78754540D01*
X135355732Y-78836728D01*
X135355731Y-78836729D01*
X135355730Y-78836729D01*
X135219059Y-78893340D01*
X135073968Y-78922200D01*
X134926032Y-78922200D01*
X134780941Y-78893340D01*
X134644270Y-78836729D01*
X134644269Y-78836729D01*
X134644268Y-78836728D01*
X134521265Y-78754540D01*
X134416660Y-78649935D01*
X134334472Y-78526932D01*
X134277860Y-78390259D01*
X134258557Y-78293214D01*
X134249000Y-78245168D01*
X134249000Y-78097232D01*
X134277860Y-77952141D01*
X134334471Y-77815470D01*
X134344175Y-77800947D01*
X134416660Y-77692465D01*
X134521265Y-77587860D01*
X134644268Y-77505672D01*
X134780941Y-77449060D01*
X134926032Y-77420200D01*
X135073968Y-77420200D01*
X135219059Y-77449060D01*
X135219059Y-77449060D01*
G37*
G36*
X132679059Y-77449060D02*
G01*
X132815732Y-77505672D01*
X132938735Y-77587860D01*
X133043340Y-77692465D01*
X133115825Y-77800947D01*
X133125529Y-77815470D01*
X133182140Y-77952141D01*
X133211000Y-78097232D01*
X133211000Y-78245168D01*
X133201443Y-78293214D01*
X133182140Y-78390259D01*
X133125528Y-78526932D01*
X133043340Y-78649935D01*
X132938735Y-78754540D01*
X132815732Y-78836728D01*
X132815731Y-78836729D01*
X132815730Y-78836729D01*
X132679059Y-78893340D01*
X132533968Y-78922200D01*
X132386032Y-78922200D01*
X132240941Y-78893340D01*
X132104270Y-78836729D01*
X132104269Y-78836729D01*
X132104268Y-78836728D01*
X131981265Y-78754540D01*
X131876660Y-78649935D01*
X131794472Y-78526932D01*
X131737860Y-78390259D01*
X131718557Y-78293214D01*
X131709000Y-78245168D01*
X131709000Y-78097232D01*
X131737860Y-77952141D01*
X131794471Y-77815470D01*
X131804175Y-77800947D01*
X131876660Y-77692465D01*
X131981265Y-77587860D01*
X132104268Y-77505672D01*
X132240941Y-77449060D01*
X132386032Y-77420200D01*
X132533968Y-77420200D01*
X132679059Y-77449060D01*
X132679059Y-77449060D01*
G37*
G36*
X130139059Y-77449060D02*
G01*
X130275732Y-77505672D01*
X130398735Y-77587860D01*
X130503340Y-77692465D01*
X130575825Y-77800947D01*
X130585529Y-77815470D01*
X130642140Y-77952141D01*
X130671000Y-78097232D01*
X130671000Y-78245168D01*
X130661443Y-78293214D01*
X130642140Y-78390259D01*
X130585528Y-78526932D01*
X130503340Y-78649935D01*
X130398735Y-78754540D01*
X130275732Y-78836728D01*
X130275731Y-78836729D01*
X130275730Y-78836729D01*
X130139059Y-78893340D01*
X129993968Y-78922200D01*
X129846032Y-78922200D01*
X129700941Y-78893340D01*
X129564270Y-78836729D01*
X129564269Y-78836729D01*
X129564268Y-78836728D01*
X129441265Y-78754540D01*
X129336660Y-78649935D01*
X129254472Y-78526932D01*
X129197860Y-78390259D01*
X129178557Y-78293214D01*
X129169000Y-78245168D01*
X129169000Y-78097232D01*
X129197860Y-77952141D01*
X129254471Y-77815470D01*
X129264175Y-77800947D01*
X129336660Y-77692465D01*
X129441265Y-77587860D01*
X129564268Y-77505672D01*
X129700941Y-77449060D01*
X129846032Y-77420200D01*
X129993968Y-77420200D01*
X130139059Y-77449060D01*
X130139059Y-77449060D01*
G37*
G36*
X127599059Y-77449060D02*
G01*
X127735732Y-77505672D01*
X127858735Y-77587860D01*
X127963340Y-77692465D01*
X128035825Y-77800947D01*
X128045529Y-77815470D01*
X128102140Y-77952141D01*
X128131000Y-78097232D01*
X128131000Y-78245168D01*
X128121443Y-78293214D01*
X128102140Y-78390259D01*
X128045528Y-78526932D01*
X127963340Y-78649935D01*
X127858735Y-78754540D01*
X127735732Y-78836728D01*
X127735731Y-78836729D01*
X127735730Y-78836729D01*
X127599059Y-78893340D01*
X127453968Y-78922200D01*
X127306032Y-78922200D01*
X127160941Y-78893340D01*
X127024270Y-78836729D01*
X127024269Y-78836729D01*
X127024268Y-78836728D01*
X126901265Y-78754540D01*
X126796660Y-78649935D01*
X126714472Y-78526932D01*
X126657860Y-78390259D01*
X126638557Y-78293214D01*
X126629000Y-78245168D01*
X126629000Y-78097232D01*
X126657860Y-77952141D01*
X126714471Y-77815470D01*
X126724175Y-77800947D01*
X126796660Y-77692465D01*
X126901265Y-77587860D01*
X127024268Y-77505672D01*
X127160941Y-77449060D01*
X127306032Y-77420200D01*
X127453968Y-77420200D01*
X127599059Y-77449060D01*
X127599059Y-77449060D01*
G37*
G36*
X125059059Y-77449060D02*
G01*
X125195732Y-77505672D01*
X125318735Y-77587860D01*
X125423340Y-77692465D01*
X125495825Y-77800947D01*
X125505529Y-77815470D01*
X125562140Y-77952141D01*
X125591000Y-78097232D01*
X125591000Y-78245168D01*
X125581443Y-78293214D01*
X125562140Y-78390259D01*
X125505528Y-78526932D01*
X125423340Y-78649935D01*
X125318735Y-78754540D01*
X125195732Y-78836728D01*
X125195731Y-78836729D01*
X125195730Y-78836729D01*
X125059059Y-78893340D01*
X124913968Y-78922200D01*
X124766032Y-78922200D01*
X124620941Y-78893340D01*
X124484270Y-78836729D01*
X124484269Y-78836729D01*
X124484268Y-78836728D01*
X124361265Y-78754540D01*
X124256660Y-78649935D01*
X124174472Y-78526932D01*
X124117860Y-78390259D01*
X124098557Y-78293214D01*
X124089000Y-78245168D01*
X124089000Y-78097232D01*
X124117860Y-77952141D01*
X124174471Y-77815470D01*
X124184175Y-77800947D01*
X124256660Y-77692465D01*
X124361265Y-77587860D01*
X124484268Y-77505672D01*
X124620941Y-77449060D01*
X124766032Y-77420200D01*
X124913968Y-77420200D01*
X125059059Y-77449060D01*
X125059059Y-77449060D01*
G37*
G36*
X122519059Y-77449060D02*
G01*
X122655732Y-77505672D01*
X122778735Y-77587860D01*
X122883340Y-77692465D01*
X122955825Y-77800947D01*
X122965529Y-77815470D01*
X123022140Y-77952141D01*
X123051000Y-78097232D01*
X123051000Y-78245168D01*
X123041443Y-78293214D01*
X123022140Y-78390259D01*
X122965528Y-78526932D01*
X122883340Y-78649935D01*
X122778735Y-78754540D01*
X122655732Y-78836728D01*
X122655731Y-78836729D01*
X122655730Y-78836729D01*
X122519059Y-78893340D01*
X122373968Y-78922200D01*
X122226032Y-78922200D01*
X122080941Y-78893340D01*
X121944270Y-78836729D01*
X121944269Y-78836729D01*
X121944268Y-78836728D01*
X121821265Y-78754540D01*
X121716660Y-78649935D01*
X121634472Y-78526932D01*
X121577860Y-78390259D01*
X121558557Y-78293214D01*
X121549000Y-78245168D01*
X121549000Y-78097232D01*
X121577860Y-77952141D01*
X121634471Y-77815470D01*
X121644175Y-77800947D01*
X121716660Y-77692465D01*
X121821265Y-77587860D01*
X121944268Y-77505672D01*
X122080941Y-77449060D01*
X122226032Y-77420200D01*
X122373968Y-77420200D01*
X122519059Y-77449060D01*
X122519059Y-77449060D01*
G37*
G36*
X119979059Y-77449060D02*
G01*
X120115732Y-77505672D01*
X120238735Y-77587860D01*
X120343340Y-77692465D01*
X120415825Y-77800947D01*
X120425529Y-77815470D01*
X120482140Y-77952141D01*
X120511000Y-78097232D01*
X120511000Y-78245168D01*
X120501443Y-78293214D01*
X120482140Y-78390259D01*
X120425528Y-78526932D01*
X120343340Y-78649935D01*
X120238735Y-78754540D01*
X120115732Y-78836728D01*
X120115731Y-78836729D01*
X120115730Y-78836729D01*
X119979059Y-78893340D01*
X119833968Y-78922200D01*
X119686032Y-78922200D01*
X119540941Y-78893340D01*
X119404270Y-78836729D01*
X119404269Y-78836729D01*
X119404268Y-78836728D01*
X119281265Y-78754540D01*
X119176660Y-78649935D01*
X119094472Y-78526932D01*
X119037860Y-78390259D01*
X119018557Y-78293214D01*
X119009000Y-78245168D01*
X119009000Y-78097232D01*
X119037860Y-77952141D01*
X119094471Y-77815470D01*
X119104175Y-77800947D01*
X119176660Y-77692465D01*
X119281265Y-77587860D01*
X119404268Y-77505672D01*
X119540941Y-77449060D01*
X119686032Y-77420200D01*
X119833968Y-77420200D01*
X119979059Y-77449060D01*
X119979059Y-77449060D01*
G37*
G36*
X140299059Y-77449060D02*
G01*
X140435732Y-77505672D01*
X140558735Y-77587860D01*
X140663340Y-77692465D01*
X140735825Y-77800947D01*
X140745529Y-77815470D01*
X140802140Y-77952141D01*
X140831000Y-78097232D01*
X140831000Y-78245168D01*
X140821443Y-78293214D01*
X140802140Y-78390259D01*
X140745528Y-78526932D01*
X140663340Y-78649935D01*
X140558735Y-78754540D01*
X140435732Y-78836728D01*
X140435731Y-78836729D01*
X140435730Y-78836729D01*
X140299059Y-78893340D01*
X140153968Y-78922200D01*
X140006032Y-78922200D01*
X139860941Y-78893340D01*
X139724270Y-78836729D01*
X139724269Y-78836729D01*
X139724268Y-78836728D01*
X139601265Y-78754540D01*
X139496660Y-78649935D01*
X139414472Y-78526932D01*
X139357860Y-78390259D01*
X139338557Y-78293214D01*
X139329000Y-78245168D01*
X139329000Y-78097232D01*
X139357860Y-77952141D01*
X139414471Y-77815470D01*
X139424175Y-77800947D01*
X139496660Y-77692465D01*
X139601265Y-77587860D01*
X139724268Y-77505672D01*
X139860941Y-77449060D01*
X140006032Y-77420200D01*
X140153968Y-77420200D01*
X140299059Y-77449060D01*
X140299059Y-77449060D01*
G37*
G36*
X142839059Y-77449060D02*
G01*
X142975732Y-77505672D01*
X143098735Y-77587860D01*
X143203340Y-77692465D01*
X143275825Y-77800947D01*
X143285529Y-77815470D01*
X143342140Y-77952141D01*
X143371000Y-78097232D01*
X143371000Y-78245168D01*
X143361443Y-78293214D01*
X143342140Y-78390259D01*
X143285528Y-78526932D01*
X143203340Y-78649935D01*
X143098735Y-78754540D01*
X142975732Y-78836728D01*
X142975731Y-78836729D01*
X142975730Y-78836729D01*
X142839059Y-78893340D01*
X142693968Y-78922200D01*
X142546032Y-78922200D01*
X142400941Y-78893340D01*
X142264270Y-78836729D01*
X142264269Y-78836729D01*
X142264268Y-78836728D01*
X142141265Y-78754540D01*
X142036660Y-78649935D01*
X141954472Y-78526932D01*
X141897860Y-78390259D01*
X141878557Y-78293214D01*
X141869000Y-78245168D01*
X141869000Y-78097232D01*
X141897860Y-77952141D01*
X141954471Y-77815470D01*
X141964175Y-77800947D01*
X142036660Y-77692465D01*
X142141265Y-77587860D01*
X142264268Y-77505672D01*
X142400941Y-77449060D01*
X142546032Y-77420200D01*
X142693968Y-77420200D01*
X142839059Y-77449060D01*
X142839059Y-77449060D01*
G37*
G36*
X145379059Y-77449060D02*
G01*
X145515732Y-77505672D01*
X145638735Y-77587860D01*
X145743340Y-77692465D01*
X145815825Y-77800947D01*
X145825529Y-77815470D01*
X145882140Y-77952141D01*
X145911000Y-78097232D01*
X145911000Y-78245168D01*
X145901443Y-78293214D01*
X145882140Y-78390259D01*
X145825528Y-78526932D01*
X145743340Y-78649935D01*
X145638735Y-78754540D01*
X145515732Y-78836728D01*
X145515731Y-78836729D01*
X145515730Y-78836729D01*
X145379059Y-78893340D01*
X145233968Y-78922200D01*
X145086032Y-78922200D01*
X144940941Y-78893340D01*
X144804270Y-78836729D01*
X144804269Y-78836729D01*
X144804268Y-78836728D01*
X144681265Y-78754540D01*
X144576660Y-78649935D01*
X144494472Y-78526932D01*
X144437860Y-78390259D01*
X144418557Y-78293214D01*
X144409000Y-78245168D01*
X144409000Y-78097232D01*
X144437860Y-77952141D01*
X144494471Y-77815470D01*
X144504175Y-77800947D01*
X144576660Y-77692465D01*
X144681265Y-77587860D01*
X144804268Y-77505672D01*
X144940941Y-77449060D01*
X145086032Y-77420200D01*
X145233968Y-77420200D01*
X145379059Y-77449060D01*
X145379059Y-77449060D01*
G37*
G36*
X150459059Y-77449060D02*
G01*
X150595732Y-77505672D01*
X150718735Y-77587860D01*
X150823340Y-77692465D01*
X150895825Y-77800947D01*
X150905529Y-77815470D01*
X150962140Y-77952141D01*
X150991000Y-78097232D01*
X150991000Y-78245168D01*
X150981443Y-78293214D01*
X150962140Y-78390259D01*
X150905528Y-78526932D01*
X150823340Y-78649935D01*
X150718735Y-78754540D01*
X150595732Y-78836728D01*
X150595731Y-78836729D01*
X150595730Y-78836729D01*
X150459059Y-78893340D01*
X150313968Y-78922200D01*
X150166032Y-78922200D01*
X150020941Y-78893340D01*
X149884270Y-78836729D01*
X149884269Y-78836729D01*
X149884268Y-78836728D01*
X149761265Y-78754540D01*
X149656660Y-78649935D01*
X149574472Y-78526932D01*
X149517860Y-78390259D01*
X149498557Y-78293214D01*
X149489000Y-78245168D01*
X149489000Y-78097232D01*
X149517860Y-77952141D01*
X149574471Y-77815470D01*
X149584175Y-77800947D01*
X149656660Y-77692465D01*
X149761265Y-77587860D01*
X149884268Y-77505672D01*
X150020941Y-77449060D01*
X150166032Y-77420200D01*
X150313968Y-77420200D01*
X150459059Y-77449060D01*
X150459059Y-77449060D01*
G37*
G36*
X137759059Y-77449060D02*
G01*
X137895732Y-77505672D01*
X138018735Y-77587860D01*
X138123340Y-77692465D01*
X138195825Y-77800947D01*
X138205529Y-77815470D01*
X138262140Y-77952141D01*
X138291000Y-78097232D01*
X138291000Y-78245168D01*
X138281443Y-78293214D01*
X138262140Y-78390259D01*
X138205528Y-78526932D01*
X138123340Y-78649935D01*
X138018735Y-78754540D01*
X137895732Y-78836728D01*
X137895731Y-78836729D01*
X137895730Y-78836729D01*
X137759059Y-78893340D01*
X137613968Y-78922200D01*
X137466032Y-78922200D01*
X137320941Y-78893340D01*
X137184270Y-78836729D01*
X137184269Y-78836729D01*
X137184268Y-78836728D01*
X137061265Y-78754540D01*
X136956660Y-78649935D01*
X136874472Y-78526932D01*
X136817860Y-78390259D01*
X136798557Y-78293214D01*
X136789000Y-78245168D01*
X136789000Y-78097232D01*
X136817860Y-77952141D01*
X136874471Y-77815470D01*
X136884175Y-77800947D01*
X136956660Y-77692465D01*
X137061265Y-77587860D01*
X137184268Y-77505672D01*
X137320941Y-77449060D01*
X137466032Y-77420200D01*
X137613968Y-77420200D01*
X137759059Y-77449060D01*
X137759059Y-77449060D01*
G37*
G36*
X105621855Y-77615640D02*
G01*
X105685618Y-77621920D01*
X105776404Y-77649460D01*
X105808336Y-77659146D01*
X105921425Y-77719594D01*
X106020554Y-77800946D01*
X106101906Y-77900075D01*
X106162354Y-78013164D01*
X106162355Y-78013168D01*
X106199580Y-78135882D01*
X106212149Y-78263500D01*
X106199580Y-78391118D01*
X106172040Y-78481904D01*
X106162354Y-78513836D01*
X106101906Y-78626925D01*
X106020554Y-78726054D01*
X105921425Y-78807406D01*
X105808336Y-78867854D01*
X105776404Y-78877540D01*
X105685618Y-78905080D01*
X105621855Y-78911360D01*
X105589974Y-78914500D01*
X104976026Y-78914500D01*
X104944145Y-78911360D01*
X104880382Y-78905080D01*
X104789596Y-78877540D01*
X104757664Y-78867854D01*
X104644575Y-78807406D01*
X104545446Y-78726054D01*
X104464094Y-78626925D01*
X104403646Y-78513836D01*
X104393960Y-78481904D01*
X104366420Y-78391118D01*
X104353851Y-78263500D01*
X104366420Y-78135882D01*
X104403645Y-78013168D01*
X104403646Y-78013164D01*
X104464094Y-77900075D01*
X104545446Y-77800946D01*
X104644575Y-77719594D01*
X104757664Y-77659146D01*
X104789596Y-77649460D01*
X104880382Y-77621920D01*
X104944145Y-77615640D01*
X104976026Y-77612500D01*
X105589974Y-77612500D01*
X105621855Y-77615640D01*
X105621855Y-77615640D01*
G37*
G36*
X158666569Y-72224185D02*
G01*
X159076751Y-72348613D01*
X159384402Y-72513056D01*
X159454770Y-72550668D01*
X159786109Y-72822591D01*
X160058032Y-73153930D01*
X160058034Y-73153934D01*
X160260087Y-73531949D01*
X160384515Y-73942131D01*
X160416000Y-74261806D01*
X160416000Y-76255595D01*
X160384515Y-76575269D01*
X160260087Y-76985451D01*
X160255870Y-76993340D01*
X160058032Y-77363470D01*
X159786109Y-77694809D01*
X159454770Y-77966732D01*
X159213155Y-78095877D01*
X159076750Y-78168787D01*
X158666568Y-78293215D01*
X158240000Y-78335228D01*
X157813431Y-78293215D01*
X157403249Y-78168787D01*
X157025234Y-77966734D01*
X157025230Y-77966732D01*
X156693891Y-77694809D01*
X156421968Y-77363470D01*
X156292823Y-77121855D01*
X156219913Y-76985450D01*
X156095485Y-76575268D01*
X156064000Y-76255594D01*
X156064000Y-74261805D01*
X156095485Y-73942131D01*
X156219913Y-73531949D01*
X156421967Y-73153934D01*
X156421969Y-73153930D01*
X156693892Y-72822591D01*
X157025231Y-72550668D01*
X157095599Y-72513056D01*
X157403250Y-72348613D01*
X157813432Y-72224185D01*
X158240000Y-72182172D01*
X158666569Y-72224185D01*
X158666569Y-72224185D01*
G37*
G36*
X112186569Y-72224185D02*
G01*
X112596751Y-72348613D01*
X112904402Y-72513056D01*
X112974770Y-72550668D01*
X113306109Y-72822591D01*
X113578032Y-73153930D01*
X113578034Y-73153934D01*
X113780087Y-73531949D01*
X113904515Y-73942131D01*
X113936000Y-74261806D01*
X113936000Y-76255595D01*
X113904515Y-76575269D01*
X113780087Y-76985451D01*
X113775870Y-76993340D01*
X113578032Y-77363470D01*
X113306109Y-77694809D01*
X112974770Y-77966732D01*
X112733155Y-78095877D01*
X112596750Y-78168787D01*
X112186568Y-78293215D01*
X111760000Y-78335228D01*
X111333431Y-78293215D01*
X110923249Y-78168787D01*
X110545234Y-77966734D01*
X110545230Y-77966732D01*
X110213891Y-77694809D01*
X109941968Y-77363470D01*
X109812823Y-77121855D01*
X109739913Y-76985450D01*
X109615485Y-76575268D01*
X109584000Y-76255594D01*
X109584000Y-74261805D01*
X109615485Y-73942131D01*
X109739913Y-73531949D01*
X109941967Y-73153934D01*
X109941969Y-73153930D01*
X110213892Y-72822591D01*
X110545231Y-72550668D01*
X110615599Y-72513056D01*
X110923250Y-72348613D01*
X111333432Y-72224185D01*
X111760000Y-72182172D01*
X112186569Y-72224185D01*
X112186569Y-72224185D01*
G37*
G36*
X131409059Y-75549060D02*
G01*
X131545732Y-75605672D01*
X131668735Y-75687860D01*
X131773340Y-75792465D01*
X131855528Y-75915468D01*
X131912140Y-76052141D01*
X131941000Y-76197233D01*
X131941000Y-76345167D01*
X131912140Y-76490259D01*
X131855528Y-76626932D01*
X131773340Y-76749935D01*
X131668735Y-76854540D01*
X131545732Y-76936728D01*
X131545731Y-76936729D01*
X131545730Y-76936729D01*
X131409059Y-76993340D01*
X131263968Y-77022200D01*
X131116032Y-77022200D01*
X130970941Y-76993340D01*
X130834270Y-76936729D01*
X130834269Y-76936729D01*
X130834268Y-76936728D01*
X130711265Y-76854540D01*
X130606660Y-76749935D01*
X130524472Y-76626932D01*
X130467860Y-76490259D01*
X130439000Y-76345167D01*
X130439000Y-76197233D01*
X130467860Y-76052141D01*
X130524472Y-75915468D01*
X130606660Y-75792465D01*
X130711265Y-75687860D01*
X130834268Y-75605672D01*
X130970941Y-75549060D01*
X131116032Y-75520200D01*
X131263968Y-75520200D01*
X131409059Y-75549060D01*
X131409059Y-75549060D01*
G37*
G36*
X133949059Y-75549060D02*
G01*
X134085732Y-75605672D01*
X134208735Y-75687860D01*
X134313340Y-75792465D01*
X134395528Y-75915468D01*
X134452140Y-76052141D01*
X134481000Y-76197233D01*
X134481000Y-76345167D01*
X134452140Y-76490259D01*
X134395528Y-76626932D01*
X134313340Y-76749935D01*
X134208735Y-76854540D01*
X134085732Y-76936728D01*
X134085731Y-76936729D01*
X134085730Y-76936729D01*
X133949059Y-76993340D01*
X133803968Y-77022200D01*
X133656032Y-77022200D01*
X133510941Y-76993340D01*
X133374270Y-76936729D01*
X133374269Y-76936729D01*
X133374268Y-76936728D01*
X133251265Y-76854540D01*
X133146660Y-76749935D01*
X133064472Y-76626932D01*
X133007860Y-76490259D01*
X132979000Y-76345167D01*
X132979000Y-76197233D01*
X133007860Y-76052141D01*
X133064472Y-75915468D01*
X133146660Y-75792465D01*
X133251265Y-75687860D01*
X133374268Y-75605672D01*
X133510941Y-75549060D01*
X133656032Y-75520200D01*
X133803968Y-75520200D01*
X133949059Y-75549060D01*
X133949059Y-75549060D01*
G37*
G36*
X121249059Y-75549060D02*
G01*
X121385732Y-75605672D01*
X121508735Y-75687860D01*
X121613340Y-75792465D01*
X121695528Y-75915468D01*
X121752140Y-76052141D01*
X121781000Y-76197233D01*
X121781000Y-76345167D01*
X121752140Y-76490259D01*
X121695528Y-76626932D01*
X121613340Y-76749935D01*
X121508735Y-76854540D01*
X121385732Y-76936728D01*
X121385731Y-76936729D01*
X121385730Y-76936729D01*
X121249059Y-76993340D01*
X121103968Y-77022200D01*
X120956032Y-77022200D01*
X120810941Y-76993340D01*
X120674270Y-76936729D01*
X120674269Y-76936729D01*
X120674268Y-76936728D01*
X120551265Y-76854540D01*
X120446660Y-76749935D01*
X120364472Y-76626932D01*
X120307860Y-76490259D01*
X120279000Y-76345167D01*
X120279000Y-76197233D01*
X120307860Y-76052141D01*
X120364472Y-75915468D01*
X120446660Y-75792465D01*
X120551265Y-75687860D01*
X120674268Y-75605672D01*
X120810941Y-75549060D01*
X120956032Y-75520200D01*
X121103968Y-75520200D01*
X121249059Y-75549060D01*
X121249059Y-75549060D01*
G37*
G36*
X146649059Y-75549060D02*
G01*
X146785732Y-75605672D01*
X146908735Y-75687860D01*
X147013340Y-75792465D01*
X147095528Y-75915468D01*
X147152140Y-76052141D01*
X147181000Y-76197233D01*
X147181000Y-76345167D01*
X147152140Y-76490259D01*
X147095528Y-76626932D01*
X147013340Y-76749935D01*
X146908735Y-76854540D01*
X146785732Y-76936728D01*
X146785731Y-76936729D01*
X146785730Y-76936729D01*
X146649059Y-76993340D01*
X146503968Y-77022200D01*
X146356032Y-77022200D01*
X146210941Y-76993340D01*
X146074270Y-76936729D01*
X146074269Y-76936729D01*
X146074268Y-76936728D01*
X145951265Y-76854540D01*
X145846660Y-76749935D01*
X145764472Y-76626932D01*
X145707860Y-76490259D01*
X145679000Y-76345167D01*
X145679000Y-76197233D01*
X145707860Y-76052141D01*
X145764472Y-75915468D01*
X145846660Y-75792465D01*
X145951265Y-75687860D01*
X146074268Y-75605672D01*
X146210941Y-75549060D01*
X146356032Y-75520200D01*
X146503968Y-75520200D01*
X146649059Y-75549060D01*
X146649059Y-75549060D01*
G37*
G36*
X144109059Y-75549060D02*
G01*
X144245732Y-75605672D01*
X144368735Y-75687860D01*
X144473340Y-75792465D01*
X144555528Y-75915468D01*
X144612140Y-76052141D01*
X144641000Y-76197233D01*
X144641000Y-76345167D01*
X144612140Y-76490259D01*
X144555528Y-76626932D01*
X144473340Y-76749935D01*
X144368735Y-76854540D01*
X144245732Y-76936728D01*
X144245731Y-76936729D01*
X144245730Y-76936729D01*
X144109059Y-76993340D01*
X143963968Y-77022200D01*
X143816032Y-77022200D01*
X143670941Y-76993340D01*
X143534270Y-76936729D01*
X143534269Y-76936729D01*
X143534268Y-76936728D01*
X143411265Y-76854540D01*
X143306660Y-76749935D01*
X143224472Y-76626932D01*
X143167860Y-76490259D01*
X143139000Y-76345167D01*
X143139000Y-76197233D01*
X143167860Y-76052141D01*
X143224472Y-75915468D01*
X143306660Y-75792465D01*
X143411265Y-75687860D01*
X143534268Y-75605672D01*
X143670941Y-75549060D01*
X143816032Y-75520200D01*
X143963968Y-75520200D01*
X144109059Y-75549060D01*
X144109059Y-75549060D01*
G37*
G36*
X141569059Y-75549060D02*
G01*
X141705732Y-75605672D01*
X141828735Y-75687860D01*
X141933340Y-75792465D01*
X142015528Y-75915468D01*
X142072140Y-76052141D01*
X142101000Y-76197233D01*
X142101000Y-76345167D01*
X142072140Y-76490259D01*
X142015528Y-76626932D01*
X141933340Y-76749935D01*
X141828735Y-76854540D01*
X141705732Y-76936728D01*
X141705731Y-76936729D01*
X141705730Y-76936729D01*
X141569059Y-76993340D01*
X141423968Y-77022200D01*
X141276032Y-77022200D01*
X141130941Y-76993340D01*
X140994270Y-76936729D01*
X140994269Y-76936729D01*
X140994268Y-76936728D01*
X140871265Y-76854540D01*
X140766660Y-76749935D01*
X140684472Y-76626932D01*
X140627860Y-76490259D01*
X140599000Y-76345167D01*
X140599000Y-76197233D01*
X140627860Y-76052141D01*
X140684472Y-75915468D01*
X140766660Y-75792465D01*
X140871265Y-75687860D01*
X140994268Y-75605672D01*
X141130941Y-75549060D01*
X141276032Y-75520200D01*
X141423968Y-75520200D01*
X141569059Y-75549060D01*
X141569059Y-75549060D01*
G37*
G36*
X139029059Y-75549060D02*
G01*
X139165732Y-75605672D01*
X139288735Y-75687860D01*
X139393340Y-75792465D01*
X139475528Y-75915468D01*
X139532140Y-76052141D01*
X139561000Y-76197233D01*
X139561000Y-76345167D01*
X139532140Y-76490259D01*
X139475528Y-76626932D01*
X139393340Y-76749935D01*
X139288735Y-76854540D01*
X139165732Y-76936728D01*
X139165731Y-76936729D01*
X139165730Y-76936729D01*
X139029059Y-76993340D01*
X138883968Y-77022200D01*
X138736032Y-77022200D01*
X138590941Y-76993340D01*
X138454270Y-76936729D01*
X138454269Y-76936729D01*
X138454268Y-76936728D01*
X138331265Y-76854540D01*
X138226660Y-76749935D01*
X138144472Y-76626932D01*
X138087860Y-76490259D01*
X138059000Y-76345167D01*
X138059000Y-76197233D01*
X138087860Y-76052141D01*
X138144472Y-75915468D01*
X138226660Y-75792465D01*
X138331265Y-75687860D01*
X138454268Y-75605672D01*
X138590941Y-75549060D01*
X138736032Y-75520200D01*
X138883968Y-75520200D01*
X139029059Y-75549060D01*
X139029059Y-75549060D01*
G37*
G36*
X136489059Y-75549060D02*
G01*
X136625732Y-75605672D01*
X136748735Y-75687860D01*
X136853340Y-75792465D01*
X136935528Y-75915468D01*
X136992140Y-76052141D01*
X137021000Y-76197233D01*
X137021000Y-76345167D01*
X136992140Y-76490259D01*
X136935528Y-76626932D01*
X136853340Y-76749935D01*
X136748735Y-76854540D01*
X136625732Y-76936728D01*
X136625731Y-76936729D01*
X136625730Y-76936729D01*
X136489059Y-76993340D01*
X136343968Y-77022200D01*
X136196032Y-77022200D01*
X136050941Y-76993340D01*
X135914270Y-76936729D01*
X135914269Y-76936729D01*
X135914268Y-76936728D01*
X135791265Y-76854540D01*
X135686660Y-76749935D01*
X135604472Y-76626932D01*
X135547860Y-76490259D01*
X135519000Y-76345167D01*
X135519000Y-76197233D01*
X135547860Y-76052141D01*
X135604472Y-75915468D01*
X135686660Y-75792465D01*
X135791265Y-75687860D01*
X135914268Y-75605672D01*
X136050941Y-75549060D01*
X136196032Y-75520200D01*
X136343968Y-75520200D01*
X136489059Y-75549060D01*
X136489059Y-75549060D01*
G37*
G36*
X123789059Y-75549060D02*
G01*
X123925732Y-75605672D01*
X124048735Y-75687860D01*
X124153340Y-75792465D01*
X124235528Y-75915468D01*
X124292140Y-76052141D01*
X124321000Y-76197233D01*
X124321000Y-76345167D01*
X124292140Y-76490259D01*
X124235528Y-76626932D01*
X124153340Y-76749935D01*
X124048735Y-76854540D01*
X123925732Y-76936728D01*
X123925731Y-76936729D01*
X123925730Y-76936729D01*
X123789059Y-76993340D01*
X123643968Y-77022200D01*
X123496032Y-77022200D01*
X123350941Y-76993340D01*
X123214270Y-76936729D01*
X123214269Y-76936729D01*
X123214268Y-76936728D01*
X123091265Y-76854540D01*
X122986660Y-76749935D01*
X122904472Y-76626932D01*
X122847860Y-76490259D01*
X122819000Y-76345167D01*
X122819000Y-76197233D01*
X122847860Y-76052141D01*
X122904472Y-75915468D01*
X122986660Y-75792465D01*
X123091265Y-75687860D01*
X123214268Y-75605672D01*
X123350941Y-75549060D01*
X123496032Y-75520200D01*
X123643968Y-75520200D01*
X123789059Y-75549060D01*
X123789059Y-75549060D01*
G37*
G36*
X126329059Y-75549060D02*
G01*
X126465732Y-75605672D01*
X126588735Y-75687860D01*
X126693340Y-75792465D01*
X126775528Y-75915468D01*
X126832140Y-76052141D01*
X126861000Y-76197233D01*
X126861000Y-76345167D01*
X126832140Y-76490259D01*
X126775528Y-76626932D01*
X126693340Y-76749935D01*
X126588735Y-76854540D01*
X126465732Y-76936728D01*
X126465731Y-76936729D01*
X126465730Y-76936729D01*
X126329059Y-76993340D01*
X126183968Y-77022200D01*
X126036032Y-77022200D01*
X125890941Y-76993340D01*
X125754270Y-76936729D01*
X125754269Y-76936729D01*
X125754268Y-76936728D01*
X125631265Y-76854540D01*
X125526660Y-76749935D01*
X125444472Y-76626932D01*
X125387860Y-76490259D01*
X125359000Y-76345167D01*
X125359000Y-76197233D01*
X125387860Y-76052141D01*
X125444472Y-75915468D01*
X125526660Y-75792465D01*
X125631265Y-75687860D01*
X125754268Y-75605672D01*
X125890941Y-75549060D01*
X126036032Y-75520200D01*
X126183968Y-75520200D01*
X126329059Y-75549060D01*
X126329059Y-75549060D01*
G37*
G36*
X128869059Y-75549060D02*
G01*
X129005732Y-75605672D01*
X129128735Y-75687860D01*
X129233340Y-75792465D01*
X129315528Y-75915468D01*
X129372140Y-76052141D01*
X129401000Y-76197233D01*
X129401000Y-76345167D01*
X129372140Y-76490259D01*
X129315528Y-76626932D01*
X129233340Y-76749935D01*
X129128735Y-76854540D01*
X129005732Y-76936728D01*
X129005731Y-76936729D01*
X129005730Y-76936729D01*
X128869059Y-76993340D01*
X128723968Y-77022200D01*
X128576032Y-77022200D01*
X128430941Y-76993340D01*
X128294270Y-76936729D01*
X128294269Y-76936729D01*
X128294268Y-76936728D01*
X128171265Y-76854540D01*
X128066660Y-76749935D01*
X127984472Y-76626932D01*
X127927860Y-76490259D01*
X127899000Y-76345167D01*
X127899000Y-76197233D01*
X127927860Y-76052141D01*
X127984472Y-75915468D01*
X128066660Y-75792465D01*
X128171265Y-75687860D01*
X128294268Y-75605672D01*
X128430941Y-75549060D01*
X128576032Y-75520200D01*
X128723968Y-75520200D01*
X128869059Y-75549060D01*
X128869059Y-75549060D01*
G37*
G36*
X149189059Y-75549060D02*
G01*
X149325732Y-75605672D01*
X149448735Y-75687860D01*
X149553340Y-75792465D01*
X149635528Y-75915468D01*
X149692140Y-76052141D01*
X149721000Y-76197233D01*
X149721000Y-76345167D01*
X149692140Y-76490259D01*
X149635528Y-76626932D01*
X149553340Y-76749935D01*
X149448735Y-76854540D01*
X149325732Y-76936728D01*
X149325731Y-76936729D01*
X149325730Y-76936729D01*
X149189059Y-76993340D01*
X149043968Y-77022200D01*
X148896032Y-77022200D01*
X148750941Y-76993340D01*
X148614270Y-76936729D01*
X148614269Y-76936729D01*
X148614268Y-76936728D01*
X148491265Y-76854540D01*
X148386660Y-76749935D01*
X148304472Y-76626932D01*
X148247860Y-76490259D01*
X148219000Y-76345167D01*
X148219000Y-76197233D01*
X148247860Y-76052141D01*
X148304472Y-75915468D01*
X148386660Y-75792465D01*
X148491265Y-75687860D01*
X148614268Y-75605672D01*
X148750941Y-75549060D01*
X148896032Y-75520200D01*
X149043968Y-75520200D01*
X149189059Y-75549060D01*
X149189059Y-75549060D01*
G37*
G36*
X106049242Y-75616904D02*
G01*
X106086337Y-75628157D01*
X106120515Y-75646425D01*
X106150481Y-75671019D01*
X106175075Y-75700985D01*
X106193343Y-75735163D01*
X106204596Y-75772258D01*
X106209000Y-75816974D01*
X106209000Y-76710026D01*
X106204596Y-76754742D01*
X106193343Y-76791837D01*
X106175075Y-76826015D01*
X106150481Y-76855981D01*
X106120515Y-76880575D01*
X106086337Y-76898843D01*
X106049242Y-76910096D01*
X106004526Y-76914500D01*
X104561474Y-76914500D01*
X104516758Y-76910096D01*
X104479663Y-76898843D01*
X104445485Y-76880575D01*
X104415519Y-76855981D01*
X104390925Y-76826015D01*
X104372657Y-76791837D01*
X104361404Y-76754742D01*
X104357000Y-76710026D01*
X104357000Y-75816974D01*
X104361404Y-75772258D01*
X104372657Y-75735163D01*
X104390925Y-75700985D01*
X104415519Y-75671019D01*
X104445485Y-75646425D01*
X104479663Y-75628157D01*
X104516758Y-75616904D01*
X104561474Y-75612500D01*
X106004526Y-75612500D01*
X106049242Y-75616904D01*
X106049242Y-75616904D01*
G37*
G36*
X125059059Y-73649060D02*
G01*
X125195732Y-73705672D01*
X125318735Y-73787860D01*
X125423340Y-73892465D01*
X125505528Y-74015468D01*
X125562140Y-74152141D01*
X125591000Y-74297233D01*
X125591000Y-74445167D01*
X125562140Y-74590259D01*
X125505528Y-74726932D01*
X125423340Y-74849935D01*
X125318735Y-74954540D01*
X125195732Y-75036728D01*
X125195731Y-75036729D01*
X125195730Y-75036729D01*
X125059059Y-75093340D01*
X124913968Y-75122200D01*
X124766032Y-75122200D01*
X124620941Y-75093340D01*
X124484270Y-75036729D01*
X124484269Y-75036729D01*
X124484268Y-75036728D01*
X124361265Y-74954540D01*
X124256660Y-74849935D01*
X124174472Y-74726932D01*
X124117860Y-74590259D01*
X124089000Y-74445167D01*
X124089000Y-74297233D01*
X124117860Y-74152141D01*
X124174472Y-74015468D01*
X124256660Y-73892465D01*
X124361265Y-73787860D01*
X124484268Y-73705672D01*
X124620941Y-73649060D01*
X124766032Y-73620200D01*
X124913968Y-73620200D01*
X125059059Y-73649060D01*
X125059059Y-73649060D01*
G37*
G36*
X122519059Y-73649060D02*
G01*
X122655732Y-73705672D01*
X122778735Y-73787860D01*
X122883340Y-73892465D01*
X122965528Y-74015468D01*
X123022140Y-74152141D01*
X123051000Y-74297233D01*
X123051000Y-74445167D01*
X123022140Y-74590259D01*
X122965528Y-74726932D01*
X122883340Y-74849935D01*
X122778735Y-74954540D01*
X122655732Y-75036728D01*
X122655731Y-75036729D01*
X122655730Y-75036729D01*
X122519059Y-75093340D01*
X122373968Y-75122200D01*
X122226032Y-75122200D01*
X122080941Y-75093340D01*
X121944270Y-75036729D01*
X121944269Y-75036729D01*
X121944268Y-75036728D01*
X121821265Y-74954540D01*
X121716660Y-74849935D01*
X121634472Y-74726932D01*
X121577860Y-74590259D01*
X121549000Y-74445167D01*
X121549000Y-74297233D01*
X121577860Y-74152141D01*
X121634472Y-74015468D01*
X121716660Y-73892465D01*
X121821265Y-73787860D01*
X121944268Y-73705672D01*
X122080941Y-73649060D01*
X122226032Y-73620200D01*
X122373968Y-73620200D01*
X122519059Y-73649060D01*
X122519059Y-73649060D01*
G37*
G36*
X119979059Y-73649060D02*
G01*
X120115732Y-73705672D01*
X120238735Y-73787860D01*
X120343340Y-73892465D01*
X120425528Y-74015468D01*
X120482140Y-74152141D01*
X120511000Y-74297233D01*
X120511000Y-74445167D01*
X120482140Y-74590259D01*
X120425528Y-74726932D01*
X120343340Y-74849935D01*
X120238735Y-74954540D01*
X120115732Y-75036728D01*
X120115731Y-75036729D01*
X120115730Y-75036729D01*
X119979059Y-75093340D01*
X119833968Y-75122200D01*
X119686032Y-75122200D01*
X119540941Y-75093340D01*
X119404270Y-75036729D01*
X119404269Y-75036729D01*
X119404268Y-75036728D01*
X119281265Y-74954540D01*
X119176660Y-74849935D01*
X119094472Y-74726932D01*
X119037860Y-74590259D01*
X119009000Y-74445167D01*
X119009000Y-74297233D01*
X119037860Y-74152141D01*
X119094472Y-74015468D01*
X119176660Y-73892465D01*
X119281265Y-73787860D01*
X119404268Y-73705672D01*
X119540941Y-73649060D01*
X119686032Y-73620200D01*
X119833968Y-73620200D01*
X119979059Y-73649060D01*
X119979059Y-73649060D01*
G37*
G36*
X127599059Y-73649060D02*
G01*
X127735732Y-73705672D01*
X127858735Y-73787860D01*
X127963340Y-73892465D01*
X128045528Y-74015468D01*
X128102140Y-74152141D01*
X128131000Y-74297233D01*
X128131000Y-74445167D01*
X128102140Y-74590259D01*
X128045528Y-74726932D01*
X127963340Y-74849935D01*
X127858735Y-74954540D01*
X127735732Y-75036728D01*
X127735731Y-75036729D01*
X127735730Y-75036729D01*
X127599059Y-75093340D01*
X127453968Y-75122200D01*
X127306032Y-75122200D01*
X127160941Y-75093340D01*
X127024270Y-75036729D01*
X127024269Y-75036729D01*
X127024268Y-75036728D01*
X126901265Y-74954540D01*
X126796660Y-74849935D01*
X126714472Y-74726932D01*
X126657860Y-74590259D01*
X126629000Y-74445167D01*
X126629000Y-74297233D01*
X126657860Y-74152141D01*
X126714472Y-74015468D01*
X126796660Y-73892465D01*
X126901265Y-73787860D01*
X127024268Y-73705672D01*
X127160941Y-73649060D01*
X127306032Y-73620200D01*
X127453968Y-73620200D01*
X127599059Y-73649060D01*
X127599059Y-73649060D01*
G37*
G36*
X150459059Y-73649060D02*
G01*
X150595732Y-73705672D01*
X150718735Y-73787860D01*
X150823340Y-73892465D01*
X150905528Y-74015468D01*
X150962140Y-74152141D01*
X150991000Y-74297233D01*
X150991000Y-74445167D01*
X150962140Y-74590259D01*
X150905528Y-74726932D01*
X150823340Y-74849935D01*
X150718735Y-74954540D01*
X150595732Y-75036728D01*
X150595731Y-75036729D01*
X150595730Y-75036729D01*
X150459059Y-75093340D01*
X150313968Y-75122200D01*
X150166032Y-75122200D01*
X150020941Y-75093340D01*
X149884270Y-75036729D01*
X149884269Y-75036729D01*
X149884268Y-75036728D01*
X149761265Y-74954540D01*
X149656660Y-74849935D01*
X149574472Y-74726932D01*
X149517860Y-74590259D01*
X149489000Y-74445167D01*
X149489000Y-74297233D01*
X149517860Y-74152141D01*
X149574472Y-74015468D01*
X149656660Y-73892465D01*
X149761265Y-73787860D01*
X149884268Y-73705672D01*
X150020941Y-73649060D01*
X150166032Y-73620200D01*
X150313968Y-73620200D01*
X150459059Y-73649060D01*
X150459059Y-73649060D01*
G37*
G36*
X130139059Y-73649060D02*
G01*
X130275732Y-73705672D01*
X130398735Y-73787860D01*
X130503340Y-73892465D01*
X130585528Y-74015468D01*
X130642140Y-74152141D01*
X130671000Y-74297233D01*
X130671000Y-74445167D01*
X130642140Y-74590259D01*
X130585528Y-74726932D01*
X130503340Y-74849935D01*
X130398735Y-74954540D01*
X130275732Y-75036728D01*
X130275731Y-75036729D01*
X130275730Y-75036729D01*
X130139059Y-75093340D01*
X129993968Y-75122200D01*
X129846032Y-75122200D01*
X129700941Y-75093340D01*
X129564270Y-75036729D01*
X129564269Y-75036729D01*
X129564268Y-75036728D01*
X129441265Y-74954540D01*
X129336660Y-74849935D01*
X129254472Y-74726932D01*
X129197860Y-74590259D01*
X129169000Y-74445167D01*
X129169000Y-74297233D01*
X129197860Y-74152141D01*
X129254472Y-74015468D01*
X129336660Y-73892465D01*
X129441265Y-73787860D01*
X129564268Y-73705672D01*
X129700941Y-73649060D01*
X129846032Y-73620200D01*
X129993968Y-73620200D01*
X130139059Y-73649060D01*
X130139059Y-73649060D01*
G37*
G36*
X137759059Y-73649060D02*
G01*
X137895732Y-73705672D01*
X138018735Y-73787860D01*
X138123340Y-73892465D01*
X138205528Y-74015468D01*
X138262140Y-74152141D01*
X138291000Y-74297233D01*
X138291000Y-74445167D01*
X138262140Y-74590259D01*
X138205528Y-74726932D01*
X138123340Y-74849935D01*
X138018735Y-74954540D01*
X137895732Y-75036728D01*
X137895731Y-75036729D01*
X137895730Y-75036729D01*
X137759059Y-75093340D01*
X137613968Y-75122200D01*
X137466032Y-75122200D01*
X137320941Y-75093340D01*
X137184270Y-75036729D01*
X137184269Y-75036729D01*
X137184268Y-75036728D01*
X137061265Y-74954540D01*
X136956660Y-74849935D01*
X136874472Y-74726932D01*
X136817860Y-74590259D01*
X136789000Y-74445167D01*
X136789000Y-74297233D01*
X136817860Y-74152141D01*
X136874472Y-74015468D01*
X136956660Y-73892465D01*
X137061265Y-73787860D01*
X137184268Y-73705672D01*
X137320941Y-73649060D01*
X137466032Y-73620200D01*
X137613968Y-73620200D01*
X137759059Y-73649060D01*
X137759059Y-73649060D01*
G37*
G36*
X140299059Y-73649060D02*
G01*
X140435732Y-73705672D01*
X140558735Y-73787860D01*
X140663340Y-73892465D01*
X140745528Y-74015468D01*
X140802140Y-74152141D01*
X140831000Y-74297233D01*
X140831000Y-74445167D01*
X140802140Y-74590259D01*
X140745528Y-74726932D01*
X140663340Y-74849935D01*
X140558735Y-74954540D01*
X140435732Y-75036728D01*
X140435731Y-75036729D01*
X140435730Y-75036729D01*
X140299059Y-75093340D01*
X140153968Y-75122200D01*
X140006032Y-75122200D01*
X139860941Y-75093340D01*
X139724270Y-75036729D01*
X139724269Y-75036729D01*
X139724268Y-75036728D01*
X139601265Y-74954540D01*
X139496660Y-74849935D01*
X139414472Y-74726932D01*
X139357860Y-74590259D01*
X139329000Y-74445167D01*
X139329000Y-74297233D01*
X139357860Y-74152141D01*
X139414472Y-74015468D01*
X139496660Y-73892465D01*
X139601265Y-73787860D01*
X139724268Y-73705672D01*
X139860941Y-73649060D01*
X140006032Y-73620200D01*
X140153968Y-73620200D01*
X140299059Y-73649060D01*
X140299059Y-73649060D01*
G37*
G36*
X142839059Y-73649060D02*
G01*
X142975732Y-73705672D01*
X143098735Y-73787860D01*
X143203340Y-73892465D01*
X143285528Y-74015468D01*
X143342140Y-74152141D01*
X143371000Y-74297233D01*
X143371000Y-74445167D01*
X143342140Y-74590259D01*
X143285528Y-74726932D01*
X143203340Y-74849935D01*
X143098735Y-74954540D01*
X142975732Y-75036728D01*
X142975731Y-75036729D01*
X142975730Y-75036729D01*
X142839059Y-75093340D01*
X142693968Y-75122200D01*
X142546032Y-75122200D01*
X142400941Y-75093340D01*
X142264270Y-75036729D01*
X142264269Y-75036729D01*
X142264268Y-75036728D01*
X142141265Y-74954540D01*
X142036660Y-74849935D01*
X141954472Y-74726932D01*
X141897860Y-74590259D01*
X141869000Y-74445167D01*
X141869000Y-74297233D01*
X141897860Y-74152141D01*
X141954472Y-74015468D01*
X142036660Y-73892465D01*
X142141265Y-73787860D01*
X142264268Y-73705672D01*
X142400941Y-73649060D01*
X142546032Y-73620200D01*
X142693968Y-73620200D01*
X142839059Y-73649060D01*
X142839059Y-73649060D01*
G37*
G36*
X145379059Y-73649060D02*
G01*
X145515732Y-73705672D01*
X145638735Y-73787860D01*
X145743340Y-73892465D01*
X145825528Y-74015468D01*
X145882140Y-74152141D01*
X145911000Y-74297233D01*
X145911000Y-74445167D01*
X145882140Y-74590259D01*
X145825528Y-74726932D01*
X145743340Y-74849935D01*
X145638735Y-74954540D01*
X145515732Y-75036728D01*
X145515731Y-75036729D01*
X145515730Y-75036729D01*
X145379059Y-75093340D01*
X145233968Y-75122200D01*
X145086032Y-75122200D01*
X144940941Y-75093340D01*
X144804270Y-75036729D01*
X144804269Y-75036729D01*
X144804268Y-75036728D01*
X144681265Y-74954540D01*
X144576660Y-74849935D01*
X144494472Y-74726932D01*
X144437860Y-74590259D01*
X144409000Y-74445167D01*
X144409000Y-74297233D01*
X144437860Y-74152141D01*
X144494472Y-74015468D01*
X144576660Y-73892465D01*
X144681265Y-73787860D01*
X144804268Y-73705672D01*
X144940941Y-73649060D01*
X145086032Y-73620200D01*
X145233968Y-73620200D01*
X145379059Y-73649060D01*
X145379059Y-73649060D01*
G37*
G36*
X147919059Y-73649060D02*
G01*
X148055732Y-73705672D01*
X148178735Y-73787860D01*
X148283340Y-73892465D01*
X148365528Y-74015468D01*
X148422140Y-74152141D01*
X148451000Y-74297233D01*
X148451000Y-74445167D01*
X148422140Y-74590259D01*
X148365528Y-74726932D01*
X148283340Y-74849935D01*
X148178735Y-74954540D01*
X148055732Y-75036728D01*
X148055731Y-75036729D01*
X148055730Y-75036729D01*
X147919059Y-75093340D01*
X147773968Y-75122200D01*
X147626032Y-75122200D01*
X147480941Y-75093340D01*
X147344270Y-75036729D01*
X147344269Y-75036729D01*
X147344268Y-75036728D01*
X147221265Y-74954540D01*
X147116660Y-74849935D01*
X147034472Y-74726932D01*
X146977860Y-74590259D01*
X146949000Y-74445167D01*
X146949000Y-74297233D01*
X146977860Y-74152141D01*
X147034472Y-74015468D01*
X147116660Y-73892465D01*
X147221265Y-73787860D01*
X147344268Y-73705672D01*
X147480941Y-73649060D01*
X147626032Y-73620200D01*
X147773968Y-73620200D01*
X147919059Y-73649060D01*
X147919059Y-73649060D01*
G37*
G36*
X132679059Y-73649060D02*
G01*
X132815732Y-73705672D01*
X132938735Y-73787860D01*
X133043340Y-73892465D01*
X133125528Y-74015468D01*
X133182140Y-74152141D01*
X133211000Y-74297233D01*
X133211000Y-74445167D01*
X133182140Y-74590259D01*
X133125528Y-74726932D01*
X133043340Y-74849935D01*
X132938735Y-74954540D01*
X132815732Y-75036728D01*
X132815731Y-75036729D01*
X132815730Y-75036729D01*
X132679059Y-75093340D01*
X132533968Y-75122200D01*
X132386032Y-75122200D01*
X132240941Y-75093340D01*
X132104270Y-75036729D01*
X132104269Y-75036729D01*
X132104268Y-75036728D01*
X131981265Y-74954540D01*
X131876660Y-74849935D01*
X131794472Y-74726932D01*
X131737860Y-74590259D01*
X131709000Y-74445167D01*
X131709000Y-74297233D01*
X131737860Y-74152141D01*
X131794472Y-74015468D01*
X131876660Y-73892465D01*
X131981265Y-73787860D01*
X132104268Y-73705672D01*
X132240941Y-73649060D01*
X132386032Y-73620200D01*
X132533968Y-73620200D01*
X132679059Y-73649060D01*
X132679059Y-73649060D01*
G37*
G36*
X135219059Y-73649060D02*
G01*
X135355732Y-73705672D01*
X135478735Y-73787860D01*
X135583340Y-73892465D01*
X135665528Y-74015468D01*
X135722140Y-74152141D01*
X135751000Y-74297233D01*
X135751000Y-74445167D01*
X135722140Y-74590259D01*
X135665528Y-74726932D01*
X135583340Y-74849935D01*
X135478735Y-74954540D01*
X135355732Y-75036728D01*
X135355731Y-75036729D01*
X135355730Y-75036729D01*
X135219059Y-75093340D01*
X135073968Y-75122200D01*
X134926032Y-75122200D01*
X134780941Y-75093340D01*
X134644270Y-75036729D01*
X134644269Y-75036729D01*
X134644268Y-75036728D01*
X134521265Y-74954540D01*
X134416660Y-74849935D01*
X134334472Y-74726932D01*
X134277860Y-74590259D01*
X134249000Y-74445167D01*
X134249000Y-74297233D01*
X134277860Y-74152141D01*
X134334472Y-74015468D01*
X134416660Y-73892465D01*
X134521265Y-73787860D01*
X134644268Y-73705672D01*
X134780941Y-73649060D01*
X134926032Y-73620200D01*
X135073968Y-73620200D01*
X135219059Y-73649060D01*
X135219059Y-73649060D01*
G37*
G36*
X149189059Y-71749060D02*
G01*
X149325732Y-71805672D01*
X149448735Y-71887860D01*
X149553340Y-71992465D01*
X149635528Y-72115468D01*
X149692140Y-72252141D01*
X149721000Y-72397233D01*
X149721000Y-72545167D01*
X149692140Y-72690259D01*
X149635528Y-72826932D01*
X149553340Y-72949935D01*
X149448735Y-73054540D01*
X149325732Y-73136728D01*
X149325731Y-73136729D01*
X149325730Y-73136729D01*
X149189059Y-73193340D01*
X149043968Y-73222200D01*
X148896032Y-73222200D01*
X148750941Y-73193340D01*
X148614270Y-73136729D01*
X148614269Y-73136729D01*
X148614268Y-73136728D01*
X148491265Y-73054540D01*
X148386660Y-72949935D01*
X148304472Y-72826932D01*
X148247860Y-72690259D01*
X148219000Y-72545167D01*
X148219000Y-72397233D01*
X148247860Y-72252141D01*
X148304472Y-72115468D01*
X148386660Y-71992465D01*
X148491265Y-71887860D01*
X148614268Y-71805672D01*
X148750941Y-71749060D01*
X148896032Y-71720200D01*
X149043968Y-71720200D01*
X149189059Y-71749060D01*
X149189059Y-71749060D01*
G37*
G36*
X146649059Y-71749060D02*
G01*
X146785732Y-71805672D01*
X146908735Y-71887860D01*
X147013340Y-71992465D01*
X147095528Y-72115468D01*
X147152140Y-72252141D01*
X147181000Y-72397233D01*
X147181000Y-72545167D01*
X147152140Y-72690259D01*
X147095528Y-72826932D01*
X147013340Y-72949935D01*
X146908735Y-73054540D01*
X146785732Y-73136728D01*
X146785731Y-73136729D01*
X146785730Y-73136729D01*
X146649059Y-73193340D01*
X146503968Y-73222200D01*
X146356032Y-73222200D01*
X146210941Y-73193340D01*
X146074270Y-73136729D01*
X146074269Y-73136729D01*
X146074268Y-73136728D01*
X145951265Y-73054540D01*
X145846660Y-72949935D01*
X145764472Y-72826932D01*
X145707860Y-72690259D01*
X145679000Y-72545167D01*
X145679000Y-72397233D01*
X145707860Y-72252141D01*
X145764472Y-72115468D01*
X145846660Y-71992465D01*
X145951265Y-71887860D01*
X146074268Y-71805672D01*
X146210941Y-71749060D01*
X146356032Y-71720200D01*
X146503968Y-71720200D01*
X146649059Y-71749060D01*
X146649059Y-71749060D01*
G37*
G36*
X139029059Y-71749060D02*
G01*
X139165732Y-71805672D01*
X139288735Y-71887860D01*
X139393340Y-71992465D01*
X139475528Y-72115468D01*
X139532140Y-72252141D01*
X139561000Y-72397233D01*
X139561000Y-72545167D01*
X139532140Y-72690259D01*
X139475528Y-72826932D01*
X139393340Y-72949935D01*
X139288735Y-73054540D01*
X139165732Y-73136728D01*
X139165731Y-73136729D01*
X139165730Y-73136729D01*
X139029059Y-73193340D01*
X138883968Y-73222200D01*
X138736032Y-73222200D01*
X138590941Y-73193340D01*
X138454270Y-73136729D01*
X138454269Y-73136729D01*
X138454268Y-73136728D01*
X138331265Y-73054540D01*
X138226660Y-72949935D01*
X138144472Y-72826932D01*
X138087860Y-72690259D01*
X138059000Y-72545167D01*
X138059000Y-72397233D01*
X138087860Y-72252141D01*
X138144472Y-72115468D01*
X138226660Y-71992465D01*
X138331265Y-71887860D01*
X138454268Y-71805672D01*
X138590941Y-71749060D01*
X138736032Y-71720200D01*
X138883968Y-71720200D01*
X139029059Y-71749060D01*
X139029059Y-71749060D01*
G37*
G36*
X141569059Y-71749060D02*
G01*
X141705732Y-71805672D01*
X141828735Y-71887860D01*
X141933340Y-71992465D01*
X142015528Y-72115468D01*
X142072140Y-72252141D01*
X142101000Y-72397233D01*
X142101000Y-72545167D01*
X142072140Y-72690259D01*
X142015528Y-72826932D01*
X141933340Y-72949935D01*
X141828735Y-73054540D01*
X141705732Y-73136728D01*
X141705731Y-73136729D01*
X141705730Y-73136729D01*
X141569059Y-73193340D01*
X141423968Y-73222200D01*
X141276032Y-73222200D01*
X141130941Y-73193340D01*
X140994270Y-73136729D01*
X140994269Y-73136729D01*
X140994268Y-73136728D01*
X140871265Y-73054540D01*
X140766660Y-72949935D01*
X140684472Y-72826932D01*
X140627860Y-72690259D01*
X140599000Y-72545167D01*
X140599000Y-72397233D01*
X140627860Y-72252141D01*
X140684472Y-72115468D01*
X140766660Y-71992465D01*
X140871265Y-71887860D01*
X140994268Y-71805672D01*
X141130941Y-71749060D01*
X141276032Y-71720200D01*
X141423968Y-71720200D01*
X141569059Y-71749060D01*
X141569059Y-71749060D01*
G37*
G36*
X136489059Y-71749060D02*
G01*
X136625732Y-71805672D01*
X136748735Y-71887860D01*
X136853340Y-71992465D01*
X136935528Y-72115468D01*
X136992140Y-72252141D01*
X137021000Y-72397233D01*
X137021000Y-72545167D01*
X136992140Y-72690259D01*
X136935528Y-72826932D01*
X136853340Y-72949935D01*
X136748735Y-73054540D01*
X136625732Y-73136728D01*
X136625731Y-73136729D01*
X136625730Y-73136729D01*
X136489059Y-73193340D01*
X136343968Y-73222200D01*
X136196032Y-73222200D01*
X136050941Y-73193340D01*
X135914270Y-73136729D01*
X135914269Y-73136729D01*
X135914268Y-73136728D01*
X135791265Y-73054540D01*
X135686660Y-72949935D01*
X135604472Y-72826932D01*
X135547860Y-72690259D01*
X135519000Y-72545167D01*
X135519000Y-72397233D01*
X135547860Y-72252141D01*
X135604472Y-72115468D01*
X135686660Y-71992465D01*
X135791265Y-71887860D01*
X135914268Y-71805672D01*
X136050941Y-71749060D01*
X136196032Y-71720200D01*
X136343968Y-71720200D01*
X136489059Y-71749060D01*
X136489059Y-71749060D01*
G37*
G36*
X133949059Y-71749060D02*
G01*
X134085732Y-71805672D01*
X134208735Y-71887860D01*
X134313340Y-71992465D01*
X134395528Y-72115468D01*
X134452140Y-72252141D01*
X134481000Y-72397233D01*
X134481000Y-72545167D01*
X134452140Y-72690259D01*
X134395528Y-72826932D01*
X134313340Y-72949935D01*
X134208735Y-73054540D01*
X134085732Y-73136728D01*
X134085731Y-73136729D01*
X134085730Y-73136729D01*
X133949059Y-73193340D01*
X133803968Y-73222200D01*
X133656032Y-73222200D01*
X133510941Y-73193340D01*
X133374270Y-73136729D01*
X133374269Y-73136729D01*
X133374268Y-73136728D01*
X133251265Y-73054540D01*
X133146660Y-72949935D01*
X133064472Y-72826932D01*
X133007860Y-72690259D01*
X132979000Y-72545167D01*
X132979000Y-72397233D01*
X133007860Y-72252141D01*
X133064472Y-72115468D01*
X133146660Y-71992465D01*
X133251265Y-71887860D01*
X133374268Y-71805672D01*
X133510941Y-71749060D01*
X133656032Y-71720200D01*
X133803968Y-71720200D01*
X133949059Y-71749060D01*
X133949059Y-71749060D01*
G37*
G36*
X131409059Y-71749060D02*
G01*
X131545732Y-71805672D01*
X131668735Y-71887860D01*
X131773340Y-71992465D01*
X131855528Y-72115468D01*
X131912140Y-72252141D01*
X131941000Y-72397233D01*
X131941000Y-72545167D01*
X131912140Y-72690259D01*
X131855528Y-72826932D01*
X131773340Y-72949935D01*
X131668735Y-73054540D01*
X131545732Y-73136728D01*
X131545731Y-73136729D01*
X131545730Y-73136729D01*
X131409059Y-73193340D01*
X131263968Y-73222200D01*
X131116032Y-73222200D01*
X130970941Y-73193340D01*
X130834270Y-73136729D01*
X130834269Y-73136729D01*
X130834268Y-73136728D01*
X130711265Y-73054540D01*
X130606660Y-72949935D01*
X130524472Y-72826932D01*
X130467860Y-72690259D01*
X130439000Y-72545167D01*
X130439000Y-72397233D01*
X130467860Y-72252141D01*
X130524472Y-72115468D01*
X130606660Y-71992465D01*
X130711265Y-71887860D01*
X130834268Y-71805672D01*
X130970941Y-71749060D01*
X131116032Y-71720200D01*
X131263968Y-71720200D01*
X131409059Y-71749060D01*
X131409059Y-71749060D01*
G37*
G36*
X128869059Y-71749060D02*
G01*
X129005732Y-71805672D01*
X129128735Y-71887860D01*
X129233340Y-71992465D01*
X129315528Y-72115468D01*
X129372140Y-72252141D01*
X129401000Y-72397233D01*
X129401000Y-72545167D01*
X129372140Y-72690259D01*
X129315528Y-72826932D01*
X129233340Y-72949935D01*
X129128735Y-73054540D01*
X129005732Y-73136728D01*
X129005731Y-73136729D01*
X129005730Y-73136729D01*
X128869059Y-73193340D01*
X128723968Y-73222200D01*
X128576032Y-73222200D01*
X128430941Y-73193340D01*
X128294270Y-73136729D01*
X128294269Y-73136729D01*
X128294268Y-73136728D01*
X128171265Y-73054540D01*
X128066660Y-72949935D01*
X127984472Y-72826932D01*
X127927860Y-72690259D01*
X127899000Y-72545167D01*
X127899000Y-72397233D01*
X127927860Y-72252141D01*
X127984472Y-72115468D01*
X128066660Y-71992465D01*
X128171265Y-71887860D01*
X128294268Y-71805672D01*
X128430941Y-71749060D01*
X128576032Y-71720200D01*
X128723968Y-71720200D01*
X128869059Y-71749060D01*
X128869059Y-71749060D01*
G37*
G36*
X126329059Y-71749060D02*
G01*
X126465732Y-71805672D01*
X126588735Y-71887860D01*
X126693340Y-71992465D01*
X126775528Y-72115468D01*
X126832140Y-72252141D01*
X126861000Y-72397233D01*
X126861000Y-72545167D01*
X126832140Y-72690259D01*
X126775528Y-72826932D01*
X126693340Y-72949935D01*
X126588735Y-73054540D01*
X126465732Y-73136728D01*
X126465731Y-73136729D01*
X126465730Y-73136729D01*
X126329059Y-73193340D01*
X126183968Y-73222200D01*
X126036032Y-73222200D01*
X125890941Y-73193340D01*
X125754270Y-73136729D01*
X125754269Y-73136729D01*
X125754268Y-73136728D01*
X125631265Y-73054540D01*
X125526660Y-72949935D01*
X125444472Y-72826932D01*
X125387860Y-72690259D01*
X125359000Y-72545167D01*
X125359000Y-72397233D01*
X125387860Y-72252141D01*
X125444472Y-72115468D01*
X125526660Y-71992465D01*
X125631265Y-71887860D01*
X125754268Y-71805672D01*
X125890941Y-71749060D01*
X126036032Y-71720200D01*
X126183968Y-71720200D01*
X126329059Y-71749060D01*
X126329059Y-71749060D01*
G37*
G36*
X123789059Y-71749060D02*
G01*
X123925732Y-71805672D01*
X124048735Y-71887860D01*
X124153340Y-71992465D01*
X124235528Y-72115468D01*
X124292140Y-72252141D01*
X124321000Y-72397233D01*
X124321000Y-72545167D01*
X124292140Y-72690259D01*
X124235528Y-72826932D01*
X124153340Y-72949935D01*
X124048735Y-73054540D01*
X123925732Y-73136728D01*
X123925731Y-73136729D01*
X123925730Y-73136729D01*
X123789059Y-73193340D01*
X123643968Y-73222200D01*
X123496032Y-73222200D01*
X123350941Y-73193340D01*
X123214270Y-73136729D01*
X123214269Y-73136729D01*
X123214268Y-73136728D01*
X123091265Y-73054540D01*
X122986660Y-72949935D01*
X122904472Y-72826932D01*
X122847860Y-72690259D01*
X122819000Y-72545167D01*
X122819000Y-72397233D01*
X122847860Y-72252141D01*
X122904472Y-72115468D01*
X122986660Y-71992465D01*
X123091265Y-71887860D01*
X123214268Y-71805672D01*
X123350941Y-71749060D01*
X123496032Y-71720200D01*
X123643968Y-71720200D01*
X123789059Y-71749060D01*
X123789059Y-71749060D01*
G37*
G36*
X121249059Y-71749060D02*
G01*
X121385732Y-71805672D01*
X121508735Y-71887860D01*
X121613340Y-71992465D01*
X121695528Y-72115468D01*
X121752140Y-72252141D01*
X121781000Y-72397233D01*
X121781000Y-72545167D01*
X121752140Y-72690259D01*
X121695528Y-72826932D01*
X121613340Y-72949935D01*
X121508735Y-73054540D01*
X121385732Y-73136728D01*
X121385731Y-73136729D01*
X121385730Y-73136729D01*
X121249059Y-73193340D01*
X121103968Y-73222200D01*
X120956032Y-73222200D01*
X120810941Y-73193340D01*
X120674270Y-73136729D01*
X120674269Y-73136729D01*
X120674268Y-73136728D01*
X120551265Y-73054540D01*
X120446660Y-72949935D01*
X120364472Y-72826932D01*
X120307860Y-72690259D01*
X120279000Y-72545167D01*
X120279000Y-72397233D01*
X120307860Y-72252141D01*
X120364472Y-72115468D01*
X120446660Y-71992465D01*
X120551265Y-71887860D01*
X120674268Y-71805672D01*
X120810941Y-71749060D01*
X120956032Y-71720200D01*
X121103968Y-71720200D01*
X121249059Y-71749060D01*
X121249059Y-71749060D01*
G37*
G36*
X144109059Y-71749060D02*
G01*
X144245732Y-71805672D01*
X144368735Y-71887860D01*
X144473340Y-71992465D01*
X144555528Y-72115468D01*
X144612140Y-72252141D01*
X144641000Y-72397233D01*
X144641000Y-72545167D01*
X144612140Y-72690259D01*
X144555528Y-72826932D01*
X144473340Y-72949935D01*
X144368735Y-73054540D01*
X144245732Y-73136728D01*
X144245731Y-73136729D01*
X144245730Y-73136729D01*
X144109059Y-73193340D01*
X143963968Y-73222200D01*
X143816032Y-73222200D01*
X143670941Y-73193340D01*
X143534270Y-73136729D01*
X143534269Y-73136729D01*
X143534268Y-73136728D01*
X143411265Y-73054540D01*
X143306660Y-72949935D01*
X143224472Y-72826932D01*
X143167860Y-72690259D01*
X143139000Y-72545167D01*
X143139000Y-72397233D01*
X143167860Y-72252141D01*
X143224472Y-72115468D01*
X143306660Y-71992465D01*
X143411265Y-71887860D01*
X143534268Y-71805672D01*
X143670941Y-71749060D01*
X143816032Y-71720200D01*
X143963968Y-71720200D01*
X144109059Y-71749060D01*
X144109059Y-71749060D01*
G37*
G36*
X165224549Y-70271116D02*
G01*
X165335734Y-70293232D01*
X165545203Y-70379997D01*
X165733720Y-70505960D01*
X165894040Y-70666280D01*
X166020003Y-70854797D01*
X166106768Y-71064266D01*
X166122982Y-71145778D01*
X166145176Y-71257354D01*
X166151000Y-71286636D01*
X166151000Y-71513364D01*
X166106768Y-71735734D01*
X166020003Y-71945203D01*
X165894040Y-72133720D01*
X165733720Y-72294040D01*
X165545203Y-72420003D01*
X165335734Y-72506768D01*
X165224549Y-72528884D01*
X165113365Y-72551000D01*
X164886635Y-72551000D01*
X164775451Y-72528884D01*
X164664266Y-72506768D01*
X164454797Y-72420003D01*
X164266280Y-72294040D01*
X164105960Y-72133720D01*
X163979997Y-71945203D01*
X163893232Y-71735734D01*
X163849000Y-71513364D01*
X163849000Y-71286636D01*
X163854825Y-71257354D01*
X163877018Y-71145778D01*
X163893232Y-71064266D01*
X163979997Y-70854797D01*
X164105960Y-70666280D01*
X164266280Y-70505960D01*
X164454797Y-70379997D01*
X164664266Y-70293232D01*
X164775451Y-70271116D01*
X164886635Y-70249000D01*
X165113365Y-70249000D01*
X165224549Y-70271116D01*
X165224549Y-70271116D01*
G37*
G36*
X105224549Y-70271116D02*
G01*
X105335734Y-70293232D01*
X105545203Y-70379997D01*
X105733720Y-70505960D01*
X105894040Y-70666280D01*
X106020003Y-70854797D01*
X106106768Y-71064266D01*
X106122982Y-71145778D01*
X106145176Y-71257354D01*
X106151000Y-71286636D01*
X106151000Y-71513364D01*
X106106768Y-71735734D01*
X106020003Y-71945203D01*
X105894040Y-72133720D01*
X105733720Y-72294040D01*
X105545203Y-72420003D01*
X105335734Y-72506768D01*
X105224549Y-72528884D01*
X105113365Y-72551000D01*
X104886635Y-72551000D01*
X104775451Y-72528884D01*
X104664266Y-72506768D01*
X104454797Y-72420003D01*
X104266280Y-72294040D01*
X104105960Y-72133720D01*
X103979997Y-71945203D01*
X103893232Y-71735734D01*
X103849000Y-71513364D01*
X103849000Y-71286636D01*
X103854825Y-71257354D01*
X103877018Y-71145778D01*
X103893232Y-71064266D01*
X103979997Y-70854797D01*
X104105960Y-70666280D01*
X104266280Y-70505960D01*
X104454797Y-70379997D01*
X104664266Y-70293232D01*
X104775451Y-70271116D01*
X104886635Y-70249000D01*
X105113365Y-70249000D01*
X105224549Y-70271116D01*
X105224549Y-70271116D01*
G37*
G36*
X118300562Y-69626681D02*
G01*
X118335481Y-69637274D01*
X118367663Y-69654476D01*
X118395873Y-69677627D01*
X118419024Y-69705837D01*
X118436226Y-69738019D01*
X118446819Y-69772938D01*
X118451000Y-69815395D01*
X118451000Y-71281605D01*
X118446819Y-71324062D01*
X118436226Y-71358981D01*
X118419024Y-71391163D01*
X118395873Y-71419373D01*
X118367663Y-71442524D01*
X118335481Y-71459726D01*
X118300562Y-71470319D01*
X118258105Y-71474500D01*
X117116895Y-71474500D01*
X117074438Y-71470319D01*
X117039519Y-71459726D01*
X117007337Y-71442524D01*
X116979127Y-71419373D01*
X116955976Y-71391163D01*
X116938774Y-71358981D01*
X116928181Y-71324062D01*
X116924000Y-71281605D01*
X116924000Y-69815395D01*
X116928181Y-69772938D01*
X116938774Y-69738019D01*
X116955976Y-69705837D01*
X116979127Y-69677627D01*
X117007337Y-69654476D01*
X117039519Y-69637274D01*
X117074438Y-69626681D01*
X117116895Y-69622500D01*
X118258105Y-69622500D01*
X118300562Y-69626681D01*
X118300562Y-69626681D01*
G37*
G36*
X115325562Y-69626681D02*
G01*
X115360481Y-69637274D01*
X115392663Y-69654476D01*
X115420873Y-69677627D01*
X115444024Y-69705837D01*
X115461226Y-69738019D01*
X115471819Y-69772938D01*
X115476000Y-69815395D01*
X115476000Y-71281605D01*
X115471819Y-71324062D01*
X115461226Y-71358981D01*
X115444024Y-71391163D01*
X115420873Y-71419373D01*
X115392663Y-71442524D01*
X115360481Y-71459726D01*
X115325562Y-71470319D01*
X115283105Y-71474500D01*
X114141895Y-71474500D01*
X114099438Y-71470319D01*
X114064519Y-71459726D01*
X114032337Y-71442524D01*
X114004127Y-71419373D01*
X113980976Y-71391163D01*
X113963774Y-71358981D01*
X113953181Y-71324062D01*
X113949000Y-71281605D01*
X113949000Y-69815395D01*
X113953181Y-69772938D01*
X113963774Y-69738019D01*
X113980976Y-69705837D01*
X114004127Y-69677627D01*
X114032337Y-69654476D01*
X114064519Y-69637274D01*
X114099438Y-69626681D01*
X114141895Y-69622500D01*
X115283105Y-69622500D01*
X115325562Y-69626681D01*
X115325562Y-69626681D01*
G37*
G36*
X113300692Y-69966646D02*
G01*
X113349914Y-69981578D01*
X113395278Y-70005826D01*
X113435042Y-70038458D01*
X113467674Y-70078222D01*
X113491922Y-70123586D01*
X113506854Y-70172808D01*
X113512500Y-70230140D01*
X113512500Y-70993860D01*
X113506854Y-71051192D01*
X113491922Y-71100414D01*
X113467674Y-71145778D01*
X113435042Y-71185542D01*
X113395278Y-71218174D01*
X113349914Y-71242422D01*
X113300692Y-71257354D01*
X113243360Y-71263000D01*
X112179640Y-71263000D01*
X112122308Y-71257354D01*
X112073086Y-71242422D01*
X112027722Y-71218174D01*
X111987958Y-71185542D01*
X111955326Y-71145778D01*
X111931078Y-71100414D01*
X111916146Y-71051192D01*
X111910500Y-70993860D01*
X111910500Y-70230140D01*
X111916146Y-70172808D01*
X111931078Y-70123586D01*
X111955326Y-70078222D01*
X111987958Y-70038458D01*
X112027722Y-70005826D01*
X112073086Y-69981578D01*
X112122308Y-69966646D01*
X112179640Y-69961000D01*
X113243360Y-69961000D01*
X113300692Y-69966646D01*
X113300692Y-69966646D01*
G37*
G36*
X110000692Y-69966646D02*
G01*
X110049914Y-69981578D01*
X110095278Y-70005826D01*
X110135042Y-70038458D01*
X110167674Y-70078222D01*
X110191922Y-70123586D01*
X110206854Y-70172808D01*
X110212500Y-70230140D01*
X110212500Y-70993860D01*
X110206854Y-71051192D01*
X110191922Y-71100414D01*
X110167674Y-71145778D01*
X110135042Y-71185542D01*
X110095278Y-71218174D01*
X110049914Y-71242422D01*
X110000692Y-71257354D01*
X109943360Y-71263000D01*
X108879640Y-71263000D01*
X108822308Y-71257354D01*
X108773086Y-71242422D01*
X108727722Y-71218174D01*
X108687958Y-71185542D01*
X108655326Y-71145778D01*
X108631078Y-71100414D01*
X108616146Y-71051192D01*
X108610500Y-70993860D01*
X108610500Y-70230140D01*
X108616146Y-70172808D01*
X108631078Y-70123586D01*
X108655326Y-70078222D01*
X108687958Y-70038458D01*
X108727722Y-70005826D01*
X108773086Y-69981578D01*
X108822308Y-69966646D01*
X108879640Y-69961000D01*
X109943360Y-69961000D01*
X110000692Y-69966646D01*
X110000692Y-69966646D01*
G37*
M02*
