%TF.GenerationSoftware,KiCad,Pcbnew,(5.1.7-0-10_14)*%
%TF.CreationDate,2021-04-19T00:34:31+09:00*%
%TF.ProjectId,scsiemu,73637369-656d-4752-9e6b-696361645f70,rev?*%
%TF.SameCoordinates,Original*%
%TF.FileFunction,Profile,NP*%
%FSLAX46Y46*%
G04 Gerber Fmt 4.6, Leading zero omitted, Abs format (unit mm)*
G04 Created by KiCad (PCBNEW (5.1.7-0-10_14)) date 2021-04-19 00:34:31*
%MOMM*%
%LPD*%
G01*
G04 APERTURE LIST*
%TA.AperFunction,Profile*%
%ADD10C,0.150000*%
%TD*%
G04 APERTURE END LIST*
D10*
X209625000Y-103200000D02*
X209625000Y-131450000D01*
X207250000Y-99700000D02*
X207250000Y-103200000D01*
X209625000Y-103200000D02*
X207250000Y-103200000D01*
X109625000Y-103200000D02*
X109625000Y-131450000D01*
X209625000Y-99700000D02*
X207250000Y-99700000D01*
X112064800Y-99700000D02*
X112064800Y-103200000D01*
X112064800Y-103200000D02*
X109625000Y-103200000D01*
X112064800Y-99700000D02*
X109625000Y-99700000D01*
X209625000Y-58750000D02*
X209625000Y-99700000D01*
X207250000Y-55250000D02*
X207250000Y-58750000D01*
X207250000Y-58750000D02*
X209625000Y-58750000D01*
X207250000Y-55250000D02*
X209625000Y-55250000D01*
X209625000Y-136906000D02*
X209625000Y-134950000D01*
X207250000Y-131450000D02*
X207250000Y-134950000D01*
X207250000Y-134950000D02*
X209625000Y-134950000D01*
X207250000Y-131450000D02*
X209625000Y-131450000D01*
X112000000Y-134950000D02*
X112000000Y-131450000D01*
X109625000Y-136906000D02*
X109625000Y-134950000D01*
X112000000Y-134950000D02*
X109625000Y-134950000D01*
X112000000Y-131450000D02*
X109625000Y-131450000D01*
X127812800Y-136652000D02*
X127812800Y-136906000D01*
X122123200Y-136652000D02*
X122123200Y-136906000D01*
X109625000Y-136906000D02*
X122123200Y-136906000D01*
X122123200Y-136652000D02*
X127812800Y-136652000D01*
X109625000Y-58750000D02*
X109625000Y-99700000D01*
X112000000Y-58750000D02*
X112000000Y-55250000D01*
X112000000Y-58750000D02*
X109625000Y-58750000D01*
X112000000Y-55250000D02*
X109625000Y-55250000D01*
X109625000Y-37906000D02*
X209625000Y-37906000D01*
X209625000Y-55250000D02*
X209625000Y-37906000D01*
X109625000Y-55250000D02*
X109625000Y-37906000D01*
X127812800Y-136906000D02*
X209625000Y-136906000D01*
M02*
