%TF.GenerationSoftware,KiCad,Pcbnew,(5.1.6-0-10_14)*%
%TF.CreationDate,2020-09-12T17:56:08+09:00*%
%TF.ProjectId,scsiemu,73637369-656d-4752-9e6b-696361645f70,rev?*%
%TF.SameCoordinates,Original*%
%TF.FileFunction,Legend,Top*%
%TF.FilePolarity,Positive*%
%FSLAX46Y46*%
G04 Gerber Fmt 4.6, Leading zero omitted, Abs format (unit mm)*
G04 Created by KiCad (PCBNEW (5.1.6-0-10_14)) date 2020-09-12 17:56:08*
%MOMM*%
%LPD*%
G01*
G04 APERTURE LIST*
%ADD10C,0.150000*%
%ADD11C,0.200000*%
%ADD12C,0.300000*%
%ADD13C,0.120000*%
%ADD14C,0.100000*%
%ADD15C,1.000000*%
%ADD16C,0.500000*%
%ADD17C,1.100000*%
%ADD18C,0.900000*%
%ADD19C,3.602000*%
%ADD20C,2.902000*%
%ADD21C,2.642000*%
%ADD22C,4.102000*%
%ADD23C,2.302000*%
%ADD24O,1.802000X1.802000*%
%ADD25R,1.802000X1.802000*%
%ADD26C,1.802000*%
%ADD27O,1.802000X2.052000*%
%ADD28O,2.102000X1.802000*%
%ADD29R,1.602000X0.702000*%
%ADD30R,0.862000X0.532000*%
%ADD31R,0.502000X2.652000*%
%ADD32R,2.202000X2.102000*%
%ADD33R,3.102000X2.002000*%
G04 APERTURE END LIST*
D10*
X115500000Y-101450000D02*
G75*
G03*
X115500000Y-101450000I-3500000J0D01*
G01*
X210750000Y-101450000D02*
G75*
G03*
X210750000Y-101450000I-3500000J0D01*
G01*
X198514000Y-126150000D02*
G75*
G03*
X198514000Y-126150000I-2000000J0D01*
G01*
X140514000Y-126150000D02*
G75*
G03*
X140514000Y-126150000I-2000000J0D01*
G01*
X140514000Y-100150000D02*
G75*
G03*
X140514000Y-100150000I-2000000J0D01*
G01*
X198514000Y-100150000D02*
G75*
G03*
X198514000Y-100150000I-2000000J0D01*
G01*
X198514000Y-77150000D02*
G75*
G03*
X198514000Y-77150000I-2000000J0D01*
G01*
X140514000Y-77150000D02*
G75*
G03*
X140514000Y-77150000I-2000000J0D01*
G01*
X115500000Y-133200000D02*
G75*
G03*
X115500000Y-133200000I-3500000J0D01*
G01*
X210750000Y-133200000D02*
G75*
G03*
X210750000Y-133200000I-3500000J0D01*
G01*
X210750000Y-57000000D02*
G75*
G03*
X210750000Y-57000000I-3500000J0D01*
G01*
X115500000Y-57000000D02*
G75*
G03*
X115500000Y-57000000I-3500000J0D01*
G01*
X123316076Y-49772866D02*
X123792266Y-49772866D01*
X123220838Y-50058580D02*
X123554171Y-49058580D01*
X123887504Y-50058580D01*
X124077980Y-49058580D02*
X124649409Y-49058580D01*
X124363695Y-50058580D02*
X124363695Y-49058580D01*
X124887504Y-49058580D02*
X125554171Y-50058580D01*
X125554171Y-49058580D02*
X124887504Y-50058580D01*
X126697028Y-50058580D02*
X126697028Y-49058580D01*
X127077980Y-49058580D01*
X127173219Y-49106200D01*
X127220838Y-49153819D01*
X127268457Y-49249057D01*
X127268457Y-49391914D01*
X127220838Y-49487152D01*
X127173219Y-49534771D01*
X127077980Y-49582390D01*
X126697028Y-49582390D01*
X127887504Y-49058580D02*
X128077980Y-49058580D01*
X128173219Y-49106200D01*
X128268457Y-49201438D01*
X128316076Y-49391914D01*
X128316076Y-49725247D01*
X128268457Y-49915723D01*
X128173219Y-50010961D01*
X128077980Y-50058580D01*
X127887504Y-50058580D01*
X127792266Y-50010961D01*
X127697028Y-49915723D01*
X127649409Y-49725247D01*
X127649409Y-49391914D01*
X127697028Y-49201438D01*
X127792266Y-49106200D01*
X127887504Y-49058580D01*
X128649409Y-49058580D02*
X128887504Y-50058580D01*
X129077980Y-49344295D01*
X129268457Y-50058580D01*
X129506552Y-49058580D01*
X129887504Y-49534771D02*
X130220838Y-49534771D01*
X130363695Y-50058580D02*
X129887504Y-50058580D01*
X129887504Y-49058580D01*
X130363695Y-49058580D01*
X131363695Y-50058580D02*
X131030361Y-49582390D01*
X130792266Y-50058580D02*
X130792266Y-49058580D01*
X131173219Y-49058580D01*
X131268457Y-49106200D01*
X131316076Y-49153819D01*
X131363695Y-49249057D01*
X131363695Y-49391914D01*
X131316076Y-49487152D01*
X131268457Y-49534771D01*
X131173219Y-49582390D01*
X130792266Y-49582390D01*
X133030361Y-49058580D02*
X132554171Y-49058580D01*
X132506552Y-49534771D01*
X132554171Y-49487152D01*
X132649409Y-49439533D01*
X132887504Y-49439533D01*
X132982742Y-49487152D01*
X133030361Y-49534771D01*
X133077980Y-49630009D01*
X133077980Y-49868104D01*
X133030361Y-49963342D01*
X132982742Y-50010961D01*
X132887504Y-50058580D01*
X132649409Y-50058580D01*
X132554171Y-50010961D01*
X132506552Y-49963342D01*
X133363695Y-49058580D02*
X133697028Y-50058580D01*
X134030361Y-49058580D01*
D11*
X200014000Y-100650000D02*
G75*
G02*
X197014000Y-103650000I-3000000J0D01*
G01*
X138014000Y-103650000D02*
G75*
G02*
X135014000Y-100650000I0J3000000D01*
G01*
D12*
X182804966Y-135315223D02*
X183090680Y-135410461D01*
X183566871Y-135410461D01*
X183757347Y-135315223D01*
X183852585Y-135219985D01*
X183947823Y-135029509D01*
X183947823Y-134839033D01*
X183852585Y-134648557D01*
X183757347Y-134553319D01*
X183566871Y-134458080D01*
X183185919Y-134362842D01*
X182995442Y-134267604D01*
X182900204Y-134172366D01*
X182804966Y-133981890D01*
X182804966Y-133791414D01*
X182900204Y-133600938D01*
X182995442Y-133505700D01*
X183185919Y-133410461D01*
X183662109Y-133410461D01*
X183947823Y-133505700D01*
X185947823Y-135219985D02*
X185852585Y-135315223D01*
X185566871Y-135410461D01*
X185376395Y-135410461D01*
X185090680Y-135315223D01*
X184900204Y-135124747D01*
X184804966Y-134934271D01*
X184709728Y-134553319D01*
X184709728Y-134267604D01*
X184804966Y-133886652D01*
X184900204Y-133696176D01*
X185090680Y-133505700D01*
X185376395Y-133410461D01*
X185566871Y-133410461D01*
X185852585Y-133505700D01*
X185947823Y-133600938D01*
X186709728Y-135315223D02*
X186995442Y-135410461D01*
X187471633Y-135410461D01*
X187662109Y-135315223D01*
X187757347Y-135219985D01*
X187852585Y-135029509D01*
X187852585Y-134839033D01*
X187757347Y-134648557D01*
X187662109Y-134553319D01*
X187471633Y-134458080D01*
X187090680Y-134362842D01*
X186900204Y-134267604D01*
X186804966Y-134172366D01*
X186709728Y-133981890D01*
X186709728Y-133791414D01*
X186804966Y-133600938D01*
X186900204Y-133505700D01*
X187090680Y-133410461D01*
X187566871Y-133410461D01*
X187852585Y-133505700D01*
X188709728Y-135410461D02*
X188709728Y-133410461D01*
X191947823Y-135315223D02*
X191757347Y-135410461D01*
X191376395Y-135410461D01*
X191185919Y-135315223D01*
X191090680Y-135124747D01*
X191090680Y-134362842D01*
X191185919Y-134172366D01*
X191376395Y-134077128D01*
X191757347Y-134077128D01*
X191947823Y-134172366D01*
X192043061Y-134362842D01*
X192043061Y-134553319D01*
X191090680Y-134743795D01*
X192900204Y-135410461D02*
X192900204Y-134077128D01*
X192900204Y-134267604D02*
X192995442Y-134172366D01*
X193185919Y-134077128D01*
X193471633Y-134077128D01*
X193662109Y-134172366D01*
X193757347Y-134362842D01*
X193757347Y-135410461D01*
X193757347Y-134362842D02*
X193852585Y-134172366D01*
X194043061Y-134077128D01*
X194328776Y-134077128D01*
X194519252Y-134172366D01*
X194614490Y-134362842D01*
X194614490Y-135410461D01*
X196424014Y-134077128D02*
X196424014Y-135410461D01*
X195566871Y-134077128D02*
X195566871Y-135124747D01*
X195662109Y-135315223D01*
X195852585Y-135410461D01*
X196138300Y-135410461D01*
X196328776Y-135315223D01*
X196424014Y-135219985D01*
X198709728Y-134077128D02*
X199185919Y-135410461D01*
X199662109Y-134077128D01*
X200328776Y-133600938D02*
X200424014Y-133505700D01*
X200614490Y-133410461D01*
X201090680Y-133410461D01*
X201281157Y-133505700D01*
X201376395Y-133600938D01*
X201471633Y-133791414D01*
X201471633Y-133981890D01*
X201376395Y-134267604D01*
X200233538Y-135410461D01*
X201471633Y-135410461D01*
D11*
X138014000Y-103650000D02*
X197014000Y-103650000D01*
X194214714Y-79928980D02*
X193643285Y-79928980D01*
X193929000Y-79928980D02*
X193929000Y-78928980D01*
X193833761Y-79071838D01*
X193738523Y-79167076D01*
X193643285Y-79214695D01*
D13*
%TO.C,R4*%
X127531400Y-52736933D02*
X127531400Y-53079467D01*
X128551400Y-52736933D02*
X128551400Y-53079467D01*
%TO.C,LED1*%
X129694000Y-51248200D02*
X129694000Y-53708200D01*
X131164000Y-51248200D02*
X129694000Y-51248200D01*
X131164000Y-53708200D02*
X131164000Y-51248200D01*
D11*
%TO.C,J8*%
X133807200Y-33333000D02*
X110540800Y-33333000D01*
X134874000Y-45593000D02*
X109474000Y-45593000D01*
X134874000Y-43053000D02*
X109474000Y-43053000D01*
X109474000Y-45593000D02*
X109474000Y-43053000D01*
X134874000Y-43053000D02*
X134874000Y-45593000D01*
X133807200Y-33333000D02*
X133807200Y-43053000D01*
X110540800Y-33333000D02*
X110540800Y-43053000D01*
D13*
%TO.C,U6*%
X168084500Y-60622500D02*
X170034500Y-60622500D01*
X168084500Y-60622500D02*
X166134500Y-60622500D01*
X168084500Y-50502500D02*
X170034500Y-50502500D01*
X168084500Y-50502500D02*
X164634500Y-50502500D01*
%TO.C,U5*%
X181610000Y-51582000D02*
X179660000Y-51582000D01*
X181610000Y-51582000D02*
X183560000Y-51582000D01*
X181610000Y-61702000D02*
X179660000Y-61702000D01*
X181610000Y-61702000D02*
X185060000Y-61702000D01*
%TO.C,C9*%
X172654500Y-50793467D02*
X172654500Y-50450933D01*
X173674500Y-50793467D02*
X173674500Y-50450933D01*
%TO.C,C8*%
X166691900Y-48379464D02*
X166691900Y-47175336D01*
X168511900Y-48379464D02*
X168511900Y-47175336D01*
%TO.C,C7*%
X176913000Y-61423733D02*
X176913000Y-61766267D01*
X175893000Y-61423733D02*
X175893000Y-61766267D01*
%TO.C,C6*%
X177575800Y-49090664D02*
X177575800Y-47886536D01*
X179395800Y-49090664D02*
X179395800Y-47886536D01*
%TO.C,J2*%
X139640000Y-40216000D02*
X203260000Y-40216000D01*
X203260000Y-40216000D02*
X203260000Y-37556000D01*
X203260000Y-37556000D02*
X139640000Y-37556000D01*
X139640000Y-37556000D02*
X139640000Y-40216000D01*
X140590000Y-37556000D02*
X140590000Y-31556000D01*
X140590000Y-31556000D02*
X141350000Y-31556000D01*
X141350000Y-31556000D02*
X141350000Y-37556000D01*
X140650000Y-37556000D02*
X140650000Y-31556000D01*
X140770000Y-37556000D02*
X140770000Y-31556000D01*
X140890000Y-37556000D02*
X140890000Y-31556000D01*
X141010000Y-37556000D02*
X141010000Y-31556000D01*
X141130000Y-37556000D02*
X141130000Y-31556000D01*
X141250000Y-37556000D02*
X141250000Y-31556000D01*
X140590000Y-40613071D02*
X140590000Y-40216000D01*
X141350000Y-40613071D02*
X141350000Y-40216000D01*
X140590000Y-43086000D02*
X140590000Y-42698929D01*
X141350000Y-43086000D02*
X141350000Y-42698929D01*
X142240000Y-40216000D02*
X142240000Y-37556000D01*
X143130000Y-37556000D02*
X143130000Y-31556000D01*
X143130000Y-31556000D02*
X143890000Y-31556000D01*
X143890000Y-31556000D02*
X143890000Y-37556000D01*
X143130000Y-40613071D02*
X143130000Y-40216000D01*
X143890000Y-40613071D02*
X143890000Y-40216000D01*
X143130000Y-43153071D02*
X143130000Y-42698929D01*
X143890000Y-43153071D02*
X143890000Y-42698929D01*
X144780000Y-40216000D02*
X144780000Y-37556000D01*
X145670000Y-37556000D02*
X145670000Y-31556000D01*
X145670000Y-31556000D02*
X146430000Y-31556000D01*
X146430000Y-31556000D02*
X146430000Y-37556000D01*
X145670000Y-40613071D02*
X145670000Y-40216000D01*
X146430000Y-40613071D02*
X146430000Y-40216000D01*
X145670000Y-43153071D02*
X145670000Y-42698929D01*
X146430000Y-43153071D02*
X146430000Y-42698929D01*
X147320000Y-40216000D02*
X147320000Y-37556000D01*
X148210000Y-37556000D02*
X148210000Y-31556000D01*
X148210000Y-31556000D02*
X148970000Y-31556000D01*
X148970000Y-31556000D02*
X148970000Y-37556000D01*
X148210000Y-40613071D02*
X148210000Y-40216000D01*
X148970000Y-40613071D02*
X148970000Y-40216000D01*
X148210000Y-43153071D02*
X148210000Y-42698929D01*
X148970000Y-43153071D02*
X148970000Y-42698929D01*
X149860000Y-40216000D02*
X149860000Y-37556000D01*
X150750000Y-37556000D02*
X150750000Y-31556000D01*
X150750000Y-31556000D02*
X151510000Y-31556000D01*
X151510000Y-31556000D02*
X151510000Y-37556000D01*
X150750000Y-40613071D02*
X150750000Y-40216000D01*
X151510000Y-40613071D02*
X151510000Y-40216000D01*
X150750000Y-43153071D02*
X150750000Y-42698929D01*
X151510000Y-43153071D02*
X151510000Y-42698929D01*
X152400000Y-40216000D02*
X152400000Y-37556000D01*
X153290000Y-37556000D02*
X153290000Y-31556000D01*
X153290000Y-31556000D02*
X154050000Y-31556000D01*
X154050000Y-31556000D02*
X154050000Y-37556000D01*
X153290000Y-40613071D02*
X153290000Y-40216000D01*
X154050000Y-40613071D02*
X154050000Y-40216000D01*
X153290000Y-43153071D02*
X153290000Y-42698929D01*
X154050000Y-43153071D02*
X154050000Y-42698929D01*
X154940000Y-40216000D02*
X154940000Y-37556000D01*
X155830000Y-37556000D02*
X155830000Y-31556000D01*
X155830000Y-31556000D02*
X156590000Y-31556000D01*
X156590000Y-31556000D02*
X156590000Y-37556000D01*
X155830000Y-40613071D02*
X155830000Y-40216000D01*
X156590000Y-40613071D02*
X156590000Y-40216000D01*
X155830000Y-43153071D02*
X155830000Y-42698929D01*
X156590000Y-43153071D02*
X156590000Y-42698929D01*
X157480000Y-40216000D02*
X157480000Y-37556000D01*
X158370000Y-37556000D02*
X158370000Y-31556000D01*
X158370000Y-31556000D02*
X159130000Y-31556000D01*
X159130000Y-31556000D02*
X159130000Y-37556000D01*
X158370000Y-40613071D02*
X158370000Y-40216000D01*
X159130000Y-40613071D02*
X159130000Y-40216000D01*
X158370000Y-43153071D02*
X158370000Y-42698929D01*
X159130000Y-43153071D02*
X159130000Y-42698929D01*
X160020000Y-40216000D02*
X160020000Y-37556000D01*
X160910000Y-37556000D02*
X160910000Y-31556000D01*
X160910000Y-31556000D02*
X161670000Y-31556000D01*
X161670000Y-31556000D02*
X161670000Y-37556000D01*
X160910000Y-40613071D02*
X160910000Y-40216000D01*
X161670000Y-40613071D02*
X161670000Y-40216000D01*
X160910000Y-43153071D02*
X160910000Y-42698929D01*
X161670000Y-43153071D02*
X161670000Y-42698929D01*
X162560000Y-40216000D02*
X162560000Y-37556000D01*
X163450000Y-37556000D02*
X163450000Y-31556000D01*
X163450000Y-31556000D02*
X164210000Y-31556000D01*
X164210000Y-31556000D02*
X164210000Y-37556000D01*
X163450000Y-40613071D02*
X163450000Y-40216000D01*
X164210000Y-40613071D02*
X164210000Y-40216000D01*
X163450000Y-43153071D02*
X163450000Y-42698929D01*
X164210000Y-43153071D02*
X164210000Y-42698929D01*
X165100000Y-40216000D02*
X165100000Y-37556000D01*
X165990000Y-37556000D02*
X165990000Y-31556000D01*
X165990000Y-31556000D02*
X166750000Y-31556000D01*
X166750000Y-31556000D02*
X166750000Y-37556000D01*
X165990000Y-40613071D02*
X165990000Y-40216000D01*
X166750000Y-40613071D02*
X166750000Y-40216000D01*
X165990000Y-43153071D02*
X165990000Y-42698929D01*
X166750000Y-43153071D02*
X166750000Y-42698929D01*
X167640000Y-40216000D02*
X167640000Y-37556000D01*
X168530000Y-37556000D02*
X168530000Y-31556000D01*
X168530000Y-31556000D02*
X169290000Y-31556000D01*
X169290000Y-31556000D02*
X169290000Y-37556000D01*
X168530000Y-40613071D02*
X168530000Y-40216000D01*
X169290000Y-40613071D02*
X169290000Y-40216000D01*
X168530000Y-43153071D02*
X168530000Y-42698929D01*
X169290000Y-43153071D02*
X169290000Y-42698929D01*
X170180000Y-40216000D02*
X170180000Y-37556000D01*
X171070000Y-37556000D02*
X171070000Y-31556000D01*
X171070000Y-31556000D02*
X171830000Y-31556000D01*
X171830000Y-31556000D02*
X171830000Y-37556000D01*
X171070000Y-40613071D02*
X171070000Y-40216000D01*
X171830000Y-40613071D02*
X171830000Y-40216000D01*
X171070000Y-43153071D02*
X171070000Y-42698929D01*
X171830000Y-43153071D02*
X171830000Y-42698929D01*
X172720000Y-40216000D02*
X172720000Y-37556000D01*
X173610000Y-37556000D02*
X173610000Y-31556000D01*
X173610000Y-31556000D02*
X174370000Y-31556000D01*
X174370000Y-31556000D02*
X174370000Y-37556000D01*
X173610000Y-40613071D02*
X173610000Y-40216000D01*
X174370000Y-40613071D02*
X174370000Y-40216000D01*
X173610000Y-43153071D02*
X173610000Y-42698929D01*
X174370000Y-43153071D02*
X174370000Y-42698929D01*
X175260000Y-40216000D02*
X175260000Y-37556000D01*
X176150000Y-37556000D02*
X176150000Y-31556000D01*
X176150000Y-31556000D02*
X176910000Y-31556000D01*
X176910000Y-31556000D02*
X176910000Y-37556000D01*
X176150000Y-40613071D02*
X176150000Y-40216000D01*
X176910000Y-40613071D02*
X176910000Y-40216000D01*
X176150000Y-43153071D02*
X176150000Y-42698929D01*
X176910000Y-43153071D02*
X176910000Y-42698929D01*
X177800000Y-40216000D02*
X177800000Y-37556000D01*
X178690000Y-37556000D02*
X178690000Y-31556000D01*
X178690000Y-31556000D02*
X179450000Y-31556000D01*
X179450000Y-31556000D02*
X179450000Y-37556000D01*
X178690000Y-40613071D02*
X178690000Y-40216000D01*
X179450000Y-40613071D02*
X179450000Y-40216000D01*
X178690000Y-43153071D02*
X178690000Y-42698929D01*
X179450000Y-43153071D02*
X179450000Y-42698929D01*
X180340000Y-40216000D02*
X180340000Y-37556000D01*
X181230000Y-37556000D02*
X181230000Y-31556000D01*
X181230000Y-31556000D02*
X181990000Y-31556000D01*
X181990000Y-31556000D02*
X181990000Y-37556000D01*
X181230000Y-40613071D02*
X181230000Y-40216000D01*
X181990000Y-40613071D02*
X181990000Y-40216000D01*
X181230000Y-43153071D02*
X181230000Y-42698929D01*
X181990000Y-43153071D02*
X181990000Y-42698929D01*
X182880000Y-40216000D02*
X182880000Y-37556000D01*
X183770000Y-37556000D02*
X183770000Y-31556000D01*
X183770000Y-31556000D02*
X184530000Y-31556000D01*
X184530000Y-31556000D02*
X184530000Y-37556000D01*
X183770000Y-40613071D02*
X183770000Y-40216000D01*
X184530000Y-40613071D02*
X184530000Y-40216000D01*
X183770000Y-43153071D02*
X183770000Y-42698929D01*
X184530000Y-43153071D02*
X184530000Y-42698929D01*
X185420000Y-40216000D02*
X185420000Y-37556000D01*
X186310000Y-37556000D02*
X186310000Y-31556000D01*
X186310000Y-31556000D02*
X187070000Y-31556000D01*
X187070000Y-31556000D02*
X187070000Y-37556000D01*
X186310000Y-40613071D02*
X186310000Y-40216000D01*
X187070000Y-40613071D02*
X187070000Y-40216000D01*
X186310000Y-43153071D02*
X186310000Y-42698929D01*
X187070000Y-43153071D02*
X187070000Y-42698929D01*
X187960000Y-40216000D02*
X187960000Y-37556000D01*
X188850000Y-37556000D02*
X188850000Y-31556000D01*
X188850000Y-31556000D02*
X189610000Y-31556000D01*
X189610000Y-31556000D02*
X189610000Y-37556000D01*
X188850000Y-40613071D02*
X188850000Y-40216000D01*
X189610000Y-40613071D02*
X189610000Y-40216000D01*
X188850000Y-43153071D02*
X188850000Y-42698929D01*
X189610000Y-43153071D02*
X189610000Y-42698929D01*
X190500000Y-40216000D02*
X190500000Y-37556000D01*
X191390000Y-37556000D02*
X191390000Y-31556000D01*
X191390000Y-31556000D02*
X192150000Y-31556000D01*
X192150000Y-31556000D02*
X192150000Y-37556000D01*
X191390000Y-40613071D02*
X191390000Y-40216000D01*
X192150000Y-40613071D02*
X192150000Y-40216000D01*
X191390000Y-43153071D02*
X191390000Y-42698929D01*
X192150000Y-43153071D02*
X192150000Y-42698929D01*
X193040000Y-40216000D02*
X193040000Y-37556000D01*
X193930000Y-37556000D02*
X193930000Y-31556000D01*
X193930000Y-31556000D02*
X194690000Y-31556000D01*
X194690000Y-31556000D02*
X194690000Y-37556000D01*
X193930000Y-40613071D02*
X193930000Y-40216000D01*
X194690000Y-40613071D02*
X194690000Y-40216000D01*
X193930000Y-43153071D02*
X193930000Y-42698929D01*
X194690000Y-43153071D02*
X194690000Y-42698929D01*
X195580000Y-40216000D02*
X195580000Y-37556000D01*
X196470000Y-37556000D02*
X196470000Y-31556000D01*
X196470000Y-31556000D02*
X197230000Y-31556000D01*
X197230000Y-31556000D02*
X197230000Y-37556000D01*
X196470000Y-40613071D02*
X196470000Y-40216000D01*
X197230000Y-40613071D02*
X197230000Y-40216000D01*
X196470000Y-43153071D02*
X196470000Y-42698929D01*
X197230000Y-43153071D02*
X197230000Y-42698929D01*
X198120000Y-40216000D02*
X198120000Y-37556000D01*
X199010000Y-37556000D02*
X199010000Y-31556000D01*
X199010000Y-31556000D02*
X199770000Y-31556000D01*
X199770000Y-31556000D02*
X199770000Y-37556000D01*
X199010000Y-40613071D02*
X199010000Y-40216000D01*
X199770000Y-40613071D02*
X199770000Y-40216000D01*
X199010000Y-43153071D02*
X199010000Y-42698929D01*
X199770000Y-43153071D02*
X199770000Y-42698929D01*
X200660000Y-40216000D02*
X200660000Y-37556000D01*
X201550000Y-37556000D02*
X201550000Y-31556000D01*
X201550000Y-31556000D02*
X202310000Y-31556000D01*
X202310000Y-31556000D02*
X202310000Y-37556000D01*
X201550000Y-40613071D02*
X201550000Y-40216000D01*
X202310000Y-40613071D02*
X202310000Y-40216000D01*
X201550000Y-43153071D02*
X201550000Y-42698929D01*
X202310000Y-43153071D02*
X202310000Y-42698929D01*
X140970000Y-45466000D02*
X139700000Y-45466000D01*
X139700000Y-45466000D02*
X139700000Y-44196000D01*
D11*
%TO.C,J6*%
X110884000Y-45984000D02*
X120884000Y-45984000D01*
X110884000Y-38484000D02*
X120884000Y-38484000D01*
X110884000Y-51984000D02*
X120884000Y-51984000D01*
X110884000Y-51984000D02*
X110884000Y-38484000D01*
X120884000Y-51984000D02*
X120884000Y-38484000D01*
X117084000Y-45974000D02*
X117084000Y-40784000D01*
X114684000Y-45974000D02*
X114684000Y-40784000D01*
X114684000Y-40784000D02*
X117084000Y-40784000D01*
X110884000Y-47584000D02*
X120884000Y-47584000D01*
D13*
%TO.C,D2*%
X117391200Y-56175400D02*
X117391200Y-58175400D01*
X117841200Y-56175400D02*
X117841200Y-56425400D01*
X117391200Y-58175400D02*
X121741200Y-58175400D01*
X117391200Y-56175400D02*
X121741200Y-56175400D01*
X117841200Y-57925400D02*
X117841200Y-58175400D01*
%TO.C,D1*%
X137753600Y-48303200D02*
X135753600Y-48303200D01*
X137753600Y-48753200D02*
X137503600Y-48753200D01*
X135753600Y-48303200D02*
X135753600Y-52653200D01*
X137753600Y-48303200D02*
X137753600Y-52653200D01*
X136003600Y-48753200D02*
X135753600Y-48753200D01*
%TO.C,R3*%
X125596467Y-58320400D02*
X125253933Y-58320400D01*
X125596467Y-57300400D02*
X125253933Y-57300400D01*
%TO.C,R2*%
X125177733Y-59434000D02*
X125520267Y-59434000D01*
X125177733Y-60454000D02*
X125520267Y-60454000D01*
%TO.C,LED2*%
X181735400Y-69303800D02*
X181735400Y-66843800D01*
X181735400Y-66843800D02*
X180265400Y-66843800D01*
X180265400Y-66843800D02*
X180265400Y-69303800D01*
%TO.C,J7*%
X176550000Y-71294000D02*
X176550000Y-65324000D01*
X176550000Y-65324000D02*
X158930000Y-65324000D01*
X158930000Y-65324000D02*
X158930000Y-71294000D01*
X158930000Y-71294000D02*
X176550000Y-71294000D01*
X173240000Y-71284000D02*
X173240000Y-70534000D01*
X173240000Y-70534000D02*
X162240000Y-70534000D01*
X162240000Y-70534000D02*
X162240000Y-71284000D01*
X162240000Y-71284000D02*
X173240000Y-71284000D01*
X176540000Y-71284000D02*
X176540000Y-70534000D01*
X176540000Y-70534000D02*
X174740000Y-70534000D01*
X174740000Y-70534000D02*
X174740000Y-71284000D01*
X174740000Y-71284000D02*
X176540000Y-71284000D01*
X160740000Y-71284000D02*
X160740000Y-70534000D01*
X160740000Y-70534000D02*
X158940000Y-70534000D01*
X158940000Y-70534000D02*
X158940000Y-71284000D01*
X158940000Y-71284000D02*
X160740000Y-71284000D01*
X176540000Y-69034000D02*
X175790000Y-69034000D01*
X175790000Y-69034000D02*
X175790000Y-66084000D01*
X175790000Y-66084000D02*
X167740000Y-66084000D01*
X158940000Y-69034000D02*
X159690000Y-69034000D01*
X159690000Y-69034000D02*
X159690000Y-66084000D01*
X159690000Y-66084000D02*
X167740000Y-66084000D01*
X175590000Y-71584000D02*
X176840000Y-71584000D01*
X176840000Y-71584000D02*
X176840000Y-70334000D01*
%TO.C,J5*%
X116506000Y-61448000D02*
X110536000Y-61448000D01*
X110536000Y-61448000D02*
X110536000Y-69068000D01*
X110536000Y-69068000D02*
X116506000Y-69068000D01*
X116506000Y-69068000D02*
X116506000Y-61448000D01*
X116496000Y-64758000D02*
X115746000Y-64758000D01*
X115746000Y-64758000D02*
X115746000Y-65758000D01*
X115746000Y-65758000D02*
X116496000Y-65758000D01*
X116496000Y-65758000D02*
X116496000Y-64758000D01*
X116496000Y-61458000D02*
X115746000Y-61458000D01*
X115746000Y-61458000D02*
X115746000Y-63258000D01*
X115746000Y-63258000D02*
X116496000Y-63258000D01*
X116496000Y-63258000D02*
X116496000Y-61458000D01*
X116496000Y-67258000D02*
X115746000Y-67258000D01*
X115746000Y-67258000D02*
X115746000Y-69058000D01*
X115746000Y-69058000D02*
X116496000Y-69058000D01*
X116496000Y-69058000D02*
X116496000Y-67258000D01*
X114246000Y-61458000D02*
X114246000Y-62208000D01*
X114246000Y-62208000D02*
X111296000Y-62208000D01*
X111296000Y-62208000D02*
X111296000Y-65258000D01*
X114246000Y-69058000D02*
X114246000Y-68308000D01*
X114246000Y-68308000D02*
X111296000Y-68308000D01*
X111296000Y-68308000D02*
X111296000Y-65258000D01*
X116796000Y-62408000D02*
X116796000Y-61158000D01*
X116796000Y-61158000D02*
X115546000Y-61158000D01*
%TO.C,J4*%
X123110000Y-61448000D02*
X117140000Y-61448000D01*
X117140000Y-61448000D02*
X117140000Y-69068000D01*
X117140000Y-69068000D02*
X123110000Y-69068000D01*
X123110000Y-69068000D02*
X123110000Y-61448000D01*
X123100000Y-64758000D02*
X122350000Y-64758000D01*
X122350000Y-64758000D02*
X122350000Y-65758000D01*
X122350000Y-65758000D02*
X123100000Y-65758000D01*
X123100000Y-65758000D02*
X123100000Y-64758000D01*
X123100000Y-61458000D02*
X122350000Y-61458000D01*
X122350000Y-61458000D02*
X122350000Y-63258000D01*
X122350000Y-63258000D02*
X123100000Y-63258000D01*
X123100000Y-63258000D02*
X123100000Y-61458000D01*
X123100000Y-67258000D02*
X122350000Y-67258000D01*
X122350000Y-67258000D02*
X122350000Y-69058000D01*
X122350000Y-69058000D02*
X123100000Y-69058000D01*
X123100000Y-69058000D02*
X123100000Y-67258000D01*
X120850000Y-61458000D02*
X120850000Y-62208000D01*
X120850000Y-62208000D02*
X117900000Y-62208000D01*
X117900000Y-62208000D02*
X117900000Y-65258000D01*
X120850000Y-69058000D02*
X120850000Y-68308000D01*
X120850000Y-68308000D02*
X117900000Y-68308000D01*
X117900000Y-68308000D02*
X117900000Y-65258000D01*
X123400000Y-62408000D02*
X123400000Y-61158000D01*
X123400000Y-61158000D02*
X122150000Y-61158000D01*
%TO.C,U4*%
X138224000Y-97208000D02*
X144224000Y-97208000D01*
X136224000Y-84148000D02*
X141224000Y-84148000D01*
%TO.C,C1*%
X198630000Y-108121267D02*
X198630000Y-107778733D01*
X197610000Y-108121267D02*
X197610000Y-107778733D01*
%TO.C,C2*%
X190752000Y-91865267D02*
X190752000Y-91522733D01*
X191772000Y-91865267D02*
X191772000Y-91522733D01*
%TO.C,C3*%
X148846000Y-104057267D02*
X148846000Y-103714733D01*
X147826000Y-104057267D02*
X147826000Y-103714733D01*
%TO.C,C4*%
X148846000Y-85426733D02*
X148846000Y-85769267D01*
X147826000Y-85426733D02*
X147826000Y-85769267D01*
%TO.C,F1*%
X135919800Y-44533736D02*
X135919800Y-45737864D01*
X137739800Y-44533736D02*
X137739800Y-45737864D01*
D10*
%TO.C,FL1*%
X192670000Y-82558000D02*
X192670000Y-81858000D01*
X190870000Y-81858000D02*
X190870000Y-82558000D01*
X192670000Y-84258000D02*
X192670000Y-83558000D01*
X190870000Y-84258000D02*
X190870000Y-83558000D01*
%TO.C,FL2*%
X137407800Y-81192800D02*
X138107800Y-81192800D01*
X137407800Y-82992800D02*
X138107800Y-82992800D01*
X139807800Y-81192800D02*
X139107800Y-81192800D01*
X139107800Y-82992800D02*
X139807800Y-82992800D01*
D13*
%TO.C,J1*%
X192973000Y-78422500D02*
X192973000Y-79752500D01*
X192973000Y-79752500D02*
X191643000Y-79752500D01*
X192973000Y-77152500D02*
X190373000Y-77152500D01*
X190373000Y-77152500D02*
X190373000Y-79752500D01*
X190373000Y-79752500D02*
X142053000Y-79752500D01*
X142053000Y-74552500D02*
X142053000Y-79752500D01*
X192973000Y-74552500D02*
X142053000Y-74552500D01*
X192973000Y-74552500D02*
X192973000Y-77152500D01*
%TO.C,R1*%
X179986400Y-64382467D02*
X179986400Y-64039933D01*
X178966400Y-64382467D02*
X178966400Y-64039933D01*
%TO.C,RN1*%
X172128000Y-98046000D02*
X174328000Y-98046000D01*
X172128000Y-104646000D02*
X174328000Y-104646000D01*
%TO.C,RN2*%
X152103000Y-108129800D02*
X149903000Y-108129800D01*
X152103000Y-114729800D02*
X149903000Y-114729800D01*
%TO.C,RN3*%
X154516000Y-94740000D02*
X152316000Y-94740000D01*
X154516000Y-88140000D02*
X152316000Y-88140000D01*
%TO.C,RN4*%
X174668000Y-119378000D02*
X176868000Y-119378000D01*
X174668000Y-112778000D02*
X176868000Y-112778000D01*
%TO.C,U1*%
X188294000Y-110056000D02*
X193294000Y-110056000D01*
X190294000Y-123116000D02*
X196294000Y-123116000D01*
%TO.C,U2*%
X183436000Y-106606000D02*
X189436000Y-106606000D01*
X181436000Y-93546000D02*
X186436000Y-93546000D01*
%TO.C,U3*%
X136478000Y-103960000D02*
X141478000Y-103960000D01*
X138478000Y-117020000D02*
X144478000Y-117020000D01*
%TO.C,F2*%
X127119464Y-65815800D02*
X125915336Y-65815800D01*
X127119464Y-67635800D02*
X125915336Y-67635800D01*
D14*
%TO.C,J3*%
X123018000Y-136959000D02*
X123018000Y-135079000D01*
X122168000Y-136959000D02*
X122168000Y-135079000D01*
X122168000Y-135079000D02*
X123018000Y-135079000D01*
X126918000Y-136959000D02*
X126918000Y-135079000D01*
X127768000Y-136959000D02*
X127768000Y-135079000D01*
X126918000Y-135079000D02*
X127768000Y-135079000D01*
X122168000Y-136759000D02*
X123018000Y-136759000D01*
X126918000Y-136759000D02*
X127768000Y-136759000D01*
X122168000Y-136939000D02*
X123018000Y-136939000D01*
X122168000Y-136849000D02*
X123018000Y-136849000D01*
X126918000Y-136849000D02*
X127768000Y-136849000D01*
X126918000Y-136939000D02*
X127768000Y-136939000D01*
X122168000Y-136959000D02*
X123018000Y-136959000D01*
X126918000Y-136959000D02*
X127768000Y-136959000D01*
D13*
%TO.C,C5*%
X153157600Y-103751464D02*
X153157600Y-102547336D01*
X151337600Y-103751464D02*
X151337600Y-102547336D01*
%TO.C,R4*%
D10*
X127045980Y-53176466D02*
X126569790Y-53509800D01*
X127045980Y-53747895D02*
X126045980Y-53747895D01*
X126045980Y-53366942D01*
X126093600Y-53271704D01*
X126141219Y-53224085D01*
X126236457Y-53176466D01*
X126379314Y-53176466D01*
X126474552Y-53224085D01*
X126522171Y-53271704D01*
X126569790Y-53366942D01*
X126569790Y-53747895D01*
X126379314Y-52319323D02*
X127045980Y-52319323D01*
X125998361Y-52557419D02*
X126712647Y-52795514D01*
X126712647Y-52176466D01*
%TO.C,LED1*%
X132633980Y-56748038D02*
X132633980Y-57224228D01*
X131633980Y-57224228D01*
X132110171Y-56414704D02*
X132110171Y-56081371D01*
X132633980Y-55938514D02*
X132633980Y-56414704D01*
X131633980Y-56414704D01*
X131633980Y-55938514D01*
X132633980Y-55509942D02*
X131633980Y-55509942D01*
X131633980Y-55271847D01*
X131681600Y-55128990D01*
X131776838Y-55033752D01*
X131872076Y-54986133D01*
X132062552Y-54938514D01*
X132205409Y-54938514D01*
X132395885Y-54986133D01*
X132491123Y-55033752D01*
X132586361Y-55128990D01*
X132633980Y-55271847D01*
X132633980Y-55509942D01*
X132633980Y-53748038D02*
X131633980Y-53748038D01*
X131633980Y-53367085D01*
X131681600Y-53271847D01*
X131729219Y-53224228D01*
X131824457Y-53176609D01*
X131967314Y-53176609D01*
X132062552Y-53224228D01*
X132110171Y-53271847D01*
X132157790Y-53367085D01*
X132157790Y-53748038D01*
X131633980Y-52843276D02*
X132633980Y-52605180D01*
X131919695Y-52414704D01*
X132633980Y-52224228D01*
X131633980Y-51986133D01*
X132633980Y-51033752D02*
X132157790Y-51367085D01*
X132633980Y-51605180D02*
X131633980Y-51605180D01*
X131633980Y-51224228D01*
X131681600Y-51128990D01*
X131729219Y-51081371D01*
X131824457Y-51033752D01*
X131967314Y-51033752D01*
X132062552Y-51081371D01*
X132110171Y-51128990D01*
X132157790Y-51224228D01*
X132157790Y-51605180D01*
%TO.C,J8*%
X129232066Y-41667180D02*
X129232066Y-42381466D01*
X129184447Y-42524323D01*
X129089209Y-42619561D01*
X128946352Y-42667180D01*
X128851114Y-42667180D01*
X129851114Y-42095752D02*
X129755876Y-42048133D01*
X129708257Y-42000514D01*
X129660638Y-41905276D01*
X129660638Y-41857657D01*
X129708257Y-41762419D01*
X129755876Y-41714800D01*
X129851114Y-41667180D01*
X130041590Y-41667180D01*
X130136828Y-41714800D01*
X130184447Y-41762419D01*
X130232066Y-41857657D01*
X130232066Y-41905276D01*
X130184447Y-42000514D01*
X130136828Y-42048133D01*
X130041590Y-42095752D01*
X129851114Y-42095752D01*
X129755876Y-42143371D01*
X129708257Y-42190990D01*
X129660638Y-42286228D01*
X129660638Y-42476704D01*
X129708257Y-42571942D01*
X129755876Y-42619561D01*
X129851114Y-42667180D01*
X130041590Y-42667180D01*
X130136828Y-42619561D01*
X130184447Y-42571942D01*
X130232066Y-42476704D01*
X130232066Y-42286228D01*
X130184447Y-42190990D01*
X130136828Y-42143371D01*
X130041590Y-42095752D01*
%TO.C,U6*%
X169240295Y-48944280D02*
X169240295Y-49753804D01*
X169287914Y-49849042D01*
X169335533Y-49896661D01*
X169430771Y-49944280D01*
X169621247Y-49944280D01*
X169716485Y-49896661D01*
X169764104Y-49849042D01*
X169811723Y-49753804D01*
X169811723Y-48944280D01*
X170716485Y-48944280D02*
X170526009Y-48944280D01*
X170430771Y-48991900D01*
X170383152Y-49039519D01*
X170287914Y-49182376D01*
X170240295Y-49372852D01*
X170240295Y-49753804D01*
X170287914Y-49849042D01*
X170335533Y-49896661D01*
X170430771Y-49944280D01*
X170621247Y-49944280D01*
X170716485Y-49896661D01*
X170764104Y-49849042D01*
X170811723Y-49753804D01*
X170811723Y-49515709D01*
X170764104Y-49420471D01*
X170716485Y-49372852D01*
X170621247Y-49325233D01*
X170430771Y-49325233D01*
X170335533Y-49372852D01*
X170287914Y-49420471D01*
X170240295Y-49515709D01*
%TO.C,U5*%
X185634380Y-60604304D02*
X186443904Y-60604304D01*
X186539142Y-60556685D01*
X186586761Y-60509066D01*
X186634380Y-60413828D01*
X186634380Y-60223352D01*
X186586761Y-60128114D01*
X186539142Y-60080495D01*
X186443904Y-60032876D01*
X185634380Y-60032876D01*
X185634380Y-59080495D02*
X185634380Y-59556685D01*
X186110571Y-59604304D01*
X186062952Y-59556685D01*
X186015333Y-59461447D01*
X186015333Y-59223352D01*
X186062952Y-59128114D01*
X186110571Y-59080495D01*
X186205809Y-59032876D01*
X186443904Y-59032876D01*
X186539142Y-59080495D01*
X186586761Y-59128114D01*
X186634380Y-59223352D01*
X186634380Y-59461447D01*
X186586761Y-59556685D01*
X186539142Y-59604304D01*
%TO.C,C9*%
X175071042Y-51525466D02*
X175118661Y-51573085D01*
X175166280Y-51715942D01*
X175166280Y-51811180D01*
X175118661Y-51954038D01*
X175023423Y-52049276D01*
X174928185Y-52096895D01*
X174737709Y-52144514D01*
X174594852Y-52144514D01*
X174404376Y-52096895D01*
X174309138Y-52049276D01*
X174213900Y-51954038D01*
X174166280Y-51811180D01*
X174166280Y-51715942D01*
X174213900Y-51573085D01*
X174261519Y-51525466D01*
X175166280Y-51049276D02*
X175166280Y-50858800D01*
X175118661Y-50763561D01*
X175071042Y-50715942D01*
X174928185Y-50620704D01*
X174737709Y-50573085D01*
X174356757Y-50573085D01*
X174261519Y-50620704D01*
X174213900Y-50668323D01*
X174166280Y-50763561D01*
X174166280Y-50954038D01*
X174213900Y-51049276D01*
X174261519Y-51096895D01*
X174356757Y-51144514D01*
X174594852Y-51144514D01*
X174690090Y-51096895D01*
X174737709Y-51049276D01*
X174785328Y-50954038D01*
X174785328Y-50763561D01*
X174737709Y-50668323D01*
X174690090Y-50620704D01*
X174594852Y-50573085D01*
%TO.C,C8*%
X166139042Y-47944066D02*
X166186661Y-47991685D01*
X166234280Y-48134542D01*
X166234280Y-48229780D01*
X166186661Y-48372638D01*
X166091423Y-48467876D01*
X165996185Y-48515495D01*
X165805709Y-48563114D01*
X165662852Y-48563114D01*
X165472376Y-48515495D01*
X165377138Y-48467876D01*
X165281900Y-48372638D01*
X165234280Y-48229780D01*
X165234280Y-48134542D01*
X165281900Y-47991685D01*
X165329519Y-47944066D01*
X165662852Y-47372638D02*
X165615233Y-47467876D01*
X165567614Y-47515495D01*
X165472376Y-47563114D01*
X165424757Y-47563114D01*
X165329519Y-47515495D01*
X165281900Y-47467876D01*
X165234280Y-47372638D01*
X165234280Y-47182161D01*
X165281900Y-47086923D01*
X165329519Y-47039304D01*
X165424757Y-46991685D01*
X165472376Y-46991685D01*
X165567614Y-47039304D01*
X165615233Y-47086923D01*
X165662852Y-47182161D01*
X165662852Y-47372638D01*
X165710471Y-47467876D01*
X165758090Y-47515495D01*
X165853328Y-47563114D01*
X166043804Y-47563114D01*
X166139042Y-47515495D01*
X166186661Y-47467876D01*
X166234280Y-47372638D01*
X166234280Y-47182161D01*
X166186661Y-47086923D01*
X166139042Y-47039304D01*
X166043804Y-46991685D01*
X165853328Y-46991685D01*
X165758090Y-47039304D01*
X165710471Y-47086923D01*
X165662852Y-47182161D01*
%TO.C,C7*%
X175439342Y-61634666D02*
X175486961Y-61682285D01*
X175534580Y-61825142D01*
X175534580Y-61920380D01*
X175486961Y-62063238D01*
X175391723Y-62158476D01*
X175296485Y-62206095D01*
X175106009Y-62253714D01*
X174963152Y-62253714D01*
X174772676Y-62206095D01*
X174677438Y-62158476D01*
X174582200Y-62063238D01*
X174534580Y-61920380D01*
X174534580Y-61825142D01*
X174582200Y-61682285D01*
X174629819Y-61634666D01*
X174534580Y-61301333D02*
X174534580Y-60634666D01*
X175534580Y-61063238D01*
%TO.C,C6*%
X177022942Y-48655266D02*
X177070561Y-48702885D01*
X177118180Y-48845742D01*
X177118180Y-48940980D01*
X177070561Y-49083838D01*
X176975323Y-49179076D01*
X176880085Y-49226695D01*
X176689609Y-49274314D01*
X176546752Y-49274314D01*
X176356276Y-49226695D01*
X176261038Y-49179076D01*
X176165800Y-49083838D01*
X176118180Y-48940980D01*
X176118180Y-48845742D01*
X176165800Y-48702885D01*
X176213419Y-48655266D01*
X176118180Y-47798123D02*
X176118180Y-47988600D01*
X176165800Y-48083838D01*
X176213419Y-48131457D01*
X176356276Y-48226695D01*
X176546752Y-48274314D01*
X176927704Y-48274314D01*
X177022942Y-48226695D01*
X177070561Y-48179076D01*
X177118180Y-48083838D01*
X177118180Y-47893361D01*
X177070561Y-47798123D01*
X177022942Y-47750504D01*
X176927704Y-47702885D01*
X176689609Y-47702885D01*
X176594371Y-47750504D01*
X176546752Y-47798123D01*
X176499133Y-47893361D01*
X176499133Y-48083838D01*
X176546752Y-48179076D01*
X176594371Y-48226695D01*
X176689609Y-48274314D01*
%TO.C,J2*%
X140384280Y-47120133D02*
X141098566Y-47120133D01*
X141241423Y-47167752D01*
X141336661Y-47262990D01*
X141384280Y-47405847D01*
X141384280Y-47501085D01*
X140479519Y-46691561D02*
X140431900Y-46643942D01*
X140384280Y-46548704D01*
X140384280Y-46310609D01*
X140431900Y-46215371D01*
X140479519Y-46167752D01*
X140574757Y-46120133D01*
X140669995Y-46120133D01*
X140812852Y-46167752D01*
X141384280Y-46739180D01*
X141384280Y-46120133D01*
%TO.C,J6*%
X121423180Y-50295133D02*
X122137466Y-50295133D01*
X122280323Y-50342752D01*
X122375561Y-50437990D01*
X122423180Y-50580847D01*
X122423180Y-50676085D01*
X121423180Y-49390371D02*
X121423180Y-49580847D01*
X121470800Y-49676085D01*
X121518419Y-49723704D01*
X121661276Y-49818942D01*
X121851752Y-49866561D01*
X122232704Y-49866561D01*
X122327942Y-49818942D01*
X122375561Y-49771323D01*
X122423180Y-49676085D01*
X122423180Y-49485609D01*
X122375561Y-49390371D01*
X122327942Y-49342752D01*
X122232704Y-49295133D01*
X121994609Y-49295133D01*
X121899371Y-49342752D01*
X121851752Y-49390371D01*
X121804133Y-49485609D01*
X121804133Y-49676085D01*
X121851752Y-49771323D01*
X121899371Y-49818942D01*
X121994609Y-49866561D01*
%TO.C,D2*%
X117829104Y-55875180D02*
X117829104Y-54875180D01*
X118067200Y-54875180D01*
X118210057Y-54922800D01*
X118305295Y-55018038D01*
X118352914Y-55113276D01*
X118400533Y-55303752D01*
X118400533Y-55446609D01*
X118352914Y-55637085D01*
X118305295Y-55732323D01*
X118210057Y-55827561D01*
X118067200Y-55875180D01*
X117829104Y-55875180D01*
X118781485Y-54970419D02*
X118829104Y-54922800D01*
X118924342Y-54875180D01*
X119162438Y-54875180D01*
X119257676Y-54922800D01*
X119305295Y-54970419D01*
X119352914Y-55065657D01*
X119352914Y-55160895D01*
X119305295Y-55303752D01*
X118733866Y-55875180D01*
X119352914Y-55875180D01*
%TO.C,D1*%
X139669780Y-51563495D02*
X138669780Y-51563495D01*
X138669780Y-51325400D01*
X138717400Y-51182542D01*
X138812638Y-51087304D01*
X138907876Y-51039685D01*
X139098352Y-50992066D01*
X139241209Y-50992066D01*
X139431685Y-51039685D01*
X139526923Y-51087304D01*
X139622161Y-51182542D01*
X139669780Y-51325400D01*
X139669780Y-51563495D01*
X139669780Y-50039685D02*
X139669780Y-50611114D01*
X139669780Y-50325400D02*
X138669780Y-50325400D01*
X138812638Y-50420638D01*
X138907876Y-50515876D01*
X138955495Y-50611114D01*
%TO.C,R3*%
X125207733Y-56814980D02*
X124874400Y-56338790D01*
X124636304Y-56814980D02*
X124636304Y-55814980D01*
X125017257Y-55814980D01*
X125112495Y-55862600D01*
X125160114Y-55910219D01*
X125207733Y-56005457D01*
X125207733Y-56148314D01*
X125160114Y-56243552D01*
X125112495Y-56291171D01*
X125017257Y-56338790D01*
X124636304Y-56338790D01*
X125541066Y-55814980D02*
X126160114Y-55814980D01*
X125826780Y-56195933D01*
X125969638Y-56195933D01*
X126064876Y-56243552D01*
X126112495Y-56291171D01*
X126160114Y-56386409D01*
X126160114Y-56624504D01*
X126112495Y-56719742D01*
X126064876Y-56767361D01*
X125969638Y-56814980D01*
X125683923Y-56814980D01*
X125588685Y-56767361D01*
X125541066Y-56719742D01*
%TO.C,R2*%
X125207733Y-61844180D02*
X124874400Y-61367990D01*
X124636304Y-61844180D02*
X124636304Y-60844180D01*
X125017257Y-60844180D01*
X125112495Y-60891800D01*
X125160114Y-60939419D01*
X125207733Y-61034657D01*
X125207733Y-61177514D01*
X125160114Y-61272752D01*
X125112495Y-61320371D01*
X125017257Y-61367990D01*
X124636304Y-61367990D01*
X125588685Y-60939419D02*
X125636304Y-60891800D01*
X125731542Y-60844180D01*
X125969638Y-60844180D01*
X126064876Y-60891800D01*
X126112495Y-60939419D01*
X126160114Y-61034657D01*
X126160114Y-61129895D01*
X126112495Y-61272752D01*
X125541066Y-61844180D01*
X126160114Y-61844180D01*
%TO.C,LED2*%
X183306980Y-70659333D02*
X183306980Y-71135523D01*
X182306980Y-71135523D01*
X182783171Y-70326000D02*
X182783171Y-69992666D01*
X183306980Y-69849809D02*
X183306980Y-70326000D01*
X182306980Y-70326000D01*
X182306980Y-69849809D01*
X183306980Y-69421238D02*
X182306980Y-69421238D01*
X182306980Y-69183142D01*
X182354600Y-69040285D01*
X182449838Y-68945047D01*
X182545076Y-68897428D01*
X182735552Y-68849809D01*
X182878409Y-68849809D01*
X183068885Y-68897428D01*
X183164123Y-68945047D01*
X183259361Y-69040285D01*
X183306980Y-69183142D01*
X183306980Y-69421238D01*
X183021266Y-67706952D02*
X183021266Y-67230761D01*
X183306980Y-67802190D02*
X182306980Y-67468857D01*
X183306980Y-67135523D01*
X183211742Y-66230761D02*
X183259361Y-66278380D01*
X183306980Y-66421238D01*
X183306980Y-66516476D01*
X183259361Y-66659333D01*
X183164123Y-66754571D01*
X183068885Y-66802190D01*
X182878409Y-66849809D01*
X182735552Y-66849809D01*
X182545076Y-66802190D01*
X182449838Y-66754571D01*
X182354600Y-66659333D01*
X182306980Y-66516476D01*
X182306980Y-66421238D01*
X182354600Y-66278380D01*
X182402219Y-66230761D01*
X182306980Y-65945047D02*
X182306980Y-65373619D01*
X183306980Y-65659333D02*
X182306980Y-65659333D01*
%TO.C,J7*%
X167406666Y-71836380D02*
X167406666Y-72550666D01*
X167359047Y-72693523D01*
X167263809Y-72788761D01*
X167120952Y-72836380D01*
X167025714Y-72836380D01*
X167787619Y-71836380D02*
X168454285Y-71836380D01*
X168025714Y-72836380D01*
X165240000Y-64686380D02*
X165240000Y-63686380D01*
X165668571Y-63781619D02*
X165716190Y-63734000D01*
X165811428Y-63686380D01*
X166049523Y-63686380D01*
X166144761Y-63734000D01*
X166192380Y-63781619D01*
X166240000Y-63876857D01*
X166240000Y-63972095D01*
X166192380Y-64114952D01*
X165620952Y-64686380D01*
X166240000Y-64686380D01*
X167240000Y-64591142D02*
X167192380Y-64638761D01*
X167049523Y-64686380D01*
X166954285Y-64686380D01*
X166811428Y-64638761D01*
X166716190Y-64543523D01*
X166668571Y-64448285D01*
X166620952Y-64257809D01*
X166620952Y-64114952D01*
X166668571Y-63924476D01*
X166716190Y-63829238D01*
X166811428Y-63734000D01*
X166954285Y-63686380D01*
X167049523Y-63686380D01*
X167192380Y-63734000D01*
X167240000Y-63781619D01*
X168430476Y-64162571D02*
X168763809Y-64162571D01*
X168906666Y-64686380D02*
X168430476Y-64686380D01*
X168430476Y-63686380D01*
X168906666Y-63686380D01*
X169240000Y-64686380D02*
X169763809Y-64019714D01*
X169240000Y-64019714D02*
X169763809Y-64686380D01*
X170001904Y-64019714D02*
X170382857Y-64019714D01*
X170144761Y-63686380D02*
X170144761Y-64543523D01*
X170192380Y-64638761D01*
X170287619Y-64686380D01*
X170382857Y-64686380D01*
%TO.C,J5*%
X115225580Y-60531333D02*
X115939866Y-60531333D01*
X116082723Y-60578952D01*
X116177961Y-60674190D01*
X116225580Y-60817047D01*
X116225580Y-60912285D01*
X115225580Y-59578952D02*
X115225580Y-60055142D01*
X115701771Y-60102761D01*
X115654152Y-60055142D01*
X115606533Y-59959904D01*
X115606533Y-59721809D01*
X115654152Y-59626571D01*
X115701771Y-59578952D01*
X115797009Y-59531333D01*
X116035104Y-59531333D01*
X116130342Y-59578952D01*
X116177961Y-59626571D01*
X116225580Y-59721809D01*
X116225580Y-59959904D01*
X116177961Y-60055142D01*
X116130342Y-60102761D01*
X112304961Y-70429380D02*
X112304961Y-69429380D01*
X112685914Y-69429380D01*
X112781152Y-69477000D01*
X112828771Y-69524619D01*
X112876390Y-69619857D01*
X112876390Y-69762714D01*
X112828771Y-69857952D01*
X112781152Y-69905571D01*
X112685914Y-69953190D01*
X112304961Y-69953190D01*
X113495438Y-69429380D02*
X113685914Y-69429380D01*
X113781152Y-69477000D01*
X113876390Y-69572238D01*
X113924009Y-69762714D01*
X113924009Y-70096047D01*
X113876390Y-70286523D01*
X113781152Y-70381761D01*
X113685914Y-70429380D01*
X113495438Y-70429380D01*
X113400200Y-70381761D01*
X113304961Y-70286523D01*
X113257342Y-70096047D01*
X113257342Y-69762714D01*
X113304961Y-69572238D01*
X113400200Y-69477000D01*
X113495438Y-69429380D01*
X114257342Y-69429380D02*
X114495438Y-70429380D01*
X114685914Y-69715095D01*
X114876390Y-70429380D01*
X115114485Y-69429380D01*
X115495438Y-69905571D02*
X115828771Y-69905571D01*
X115971628Y-70429380D02*
X115495438Y-70429380D01*
X115495438Y-69429380D01*
X115971628Y-69429380D01*
X116971628Y-70429380D02*
X116638295Y-69953190D01*
X116400200Y-70429380D02*
X116400200Y-69429380D01*
X116781152Y-69429380D01*
X116876390Y-69477000D01*
X116924009Y-69524619D01*
X116971628Y-69619857D01*
X116971628Y-69762714D01*
X116924009Y-69857952D01*
X116876390Y-69905571D01*
X116781152Y-69953190D01*
X116400200Y-69953190D01*
X118638295Y-69429380D02*
X118162104Y-69429380D01*
X118114485Y-69905571D01*
X118162104Y-69857952D01*
X118257342Y-69810333D01*
X118495438Y-69810333D01*
X118590676Y-69857952D01*
X118638295Y-69905571D01*
X118685914Y-70000809D01*
X118685914Y-70238904D01*
X118638295Y-70334142D01*
X118590676Y-70381761D01*
X118495438Y-70429380D01*
X118257342Y-70429380D01*
X118162104Y-70381761D01*
X118114485Y-70334142D01*
X118971628Y-69429380D02*
X119304961Y-70429380D01*
X119638295Y-69429380D01*
%TO.C,J4*%
X120178580Y-60632933D02*
X120892866Y-60632933D01*
X121035723Y-60680552D01*
X121130961Y-60775790D01*
X121178580Y-60918647D01*
X121178580Y-61013885D01*
X120511914Y-59728171D02*
X121178580Y-59728171D01*
X120130961Y-59966266D02*
X120845247Y-60204361D01*
X120845247Y-59585314D01*
%TO.C,U4*%
X134543895Y-83094580D02*
X134543895Y-83904104D01*
X134591514Y-83999342D01*
X134639133Y-84046961D01*
X134734371Y-84094580D01*
X134924847Y-84094580D01*
X135020085Y-84046961D01*
X135067704Y-83999342D01*
X135115323Y-83904104D01*
X135115323Y-83094580D01*
X136020085Y-83427914D02*
X136020085Y-84094580D01*
X135781990Y-83046961D02*
X135543895Y-83761247D01*
X136162942Y-83761247D01*
%TO.C,C1*%
X197047142Y-108116666D02*
X197094761Y-108164285D01*
X197142380Y-108307142D01*
X197142380Y-108402380D01*
X197094761Y-108545238D01*
X196999523Y-108640476D01*
X196904285Y-108688095D01*
X196713809Y-108735714D01*
X196570952Y-108735714D01*
X196380476Y-108688095D01*
X196285238Y-108640476D01*
X196190000Y-108545238D01*
X196142380Y-108402380D01*
X196142380Y-108307142D01*
X196190000Y-108164285D01*
X196237619Y-108116666D01*
X197142380Y-107164285D02*
X197142380Y-107735714D01*
X197142380Y-107450000D02*
X196142380Y-107450000D01*
X196285238Y-107545238D01*
X196380476Y-107640476D01*
X196428095Y-107735714D01*
%TO.C,C2*%
X190189142Y-91860666D02*
X190236761Y-91908285D01*
X190284380Y-92051142D01*
X190284380Y-92146380D01*
X190236761Y-92289238D01*
X190141523Y-92384476D01*
X190046285Y-92432095D01*
X189855809Y-92479714D01*
X189712952Y-92479714D01*
X189522476Y-92432095D01*
X189427238Y-92384476D01*
X189332000Y-92289238D01*
X189284380Y-92146380D01*
X189284380Y-92051142D01*
X189332000Y-91908285D01*
X189379619Y-91860666D01*
X189379619Y-91479714D02*
X189332000Y-91432095D01*
X189284380Y-91336857D01*
X189284380Y-91098761D01*
X189332000Y-91003523D01*
X189379619Y-90955904D01*
X189474857Y-90908285D01*
X189570095Y-90908285D01*
X189712952Y-90955904D01*
X190284380Y-91527333D01*
X190284380Y-90908285D01*
%TO.C,C3*%
X150217142Y-102579466D02*
X150264761Y-102627085D01*
X150312380Y-102769942D01*
X150312380Y-102865180D01*
X150264761Y-103008038D01*
X150169523Y-103103276D01*
X150074285Y-103150895D01*
X149883809Y-103198514D01*
X149740952Y-103198514D01*
X149550476Y-103150895D01*
X149455238Y-103103276D01*
X149360000Y-103008038D01*
X149312380Y-102865180D01*
X149312380Y-102769942D01*
X149360000Y-102627085D01*
X149407619Y-102579466D01*
X149312380Y-102246133D02*
X149312380Y-101627085D01*
X149693333Y-101960419D01*
X149693333Y-101817561D01*
X149740952Y-101722323D01*
X149788571Y-101674704D01*
X149883809Y-101627085D01*
X150121904Y-101627085D01*
X150217142Y-101674704D01*
X150264761Y-101722323D01*
X150312380Y-101817561D01*
X150312380Y-102103276D01*
X150264761Y-102198514D01*
X150217142Y-102246133D01*
%TO.C,C4*%
X150229842Y-85002666D02*
X150277461Y-85050285D01*
X150325080Y-85193142D01*
X150325080Y-85288380D01*
X150277461Y-85431238D01*
X150182223Y-85526476D01*
X150086985Y-85574095D01*
X149896509Y-85621714D01*
X149753652Y-85621714D01*
X149563176Y-85574095D01*
X149467938Y-85526476D01*
X149372700Y-85431238D01*
X149325080Y-85288380D01*
X149325080Y-85193142D01*
X149372700Y-85050285D01*
X149420319Y-85002666D01*
X149658414Y-84145523D02*
X150325080Y-84145523D01*
X149277461Y-84383619D02*
X149991747Y-84621714D01*
X149991747Y-84002666D01*
%TO.C,F1*%
X138637971Y-47221733D02*
X138637971Y-47555066D01*
X139161780Y-47555066D02*
X138161780Y-47555066D01*
X138161780Y-47078876D01*
X139161780Y-46174114D02*
X139161780Y-46745542D01*
X139161780Y-46459828D02*
X138161780Y-46459828D01*
X138304638Y-46555066D01*
X138399876Y-46650304D01*
X138447495Y-46745542D01*
%TO.C,FL1*%
X194683071Y-83859595D02*
X194683071Y-84192928D01*
X195206880Y-84192928D02*
X194206880Y-84192928D01*
X194206880Y-83716738D01*
X195206880Y-82859595D02*
X195206880Y-83335785D01*
X194206880Y-83335785D01*
X195206880Y-82002452D02*
X195206880Y-82573880D01*
X195206880Y-82288166D02*
X194206880Y-82288166D01*
X194349738Y-82383404D01*
X194444976Y-82478642D01*
X194492595Y-82573880D01*
%TO.C,FL2*%
X134262904Y-80776771D02*
X133929571Y-80776771D01*
X133929571Y-81300580D02*
X133929571Y-80300580D01*
X134405761Y-80300580D01*
X135262904Y-81300580D02*
X134786714Y-81300580D01*
X134786714Y-80300580D01*
X135548619Y-80395819D02*
X135596238Y-80348200D01*
X135691476Y-80300580D01*
X135929571Y-80300580D01*
X136024809Y-80348200D01*
X136072428Y-80395819D01*
X136120047Y-80491057D01*
X136120047Y-80586295D01*
X136072428Y-80729152D01*
X135501000Y-81300580D01*
X136120047Y-81300580D01*
%TO.C,J1*%
X192822580Y-73688533D02*
X193536866Y-73688533D01*
X193679723Y-73736152D01*
X193774961Y-73831390D01*
X193822580Y-73974247D01*
X193822580Y-74069485D01*
X193822580Y-72688533D02*
X193822580Y-73259961D01*
X193822580Y-72974247D02*
X192822580Y-72974247D01*
X192965438Y-73069485D01*
X193060676Y-73164723D01*
X193108295Y-73259961D01*
X165490685Y-81859380D02*
X165157352Y-81383190D01*
X164919257Y-81859380D02*
X164919257Y-80859380D01*
X165300209Y-80859380D01*
X165395447Y-80907000D01*
X165443066Y-80954619D01*
X165490685Y-81049857D01*
X165490685Y-81192714D01*
X165443066Y-81287952D01*
X165395447Y-81335571D01*
X165300209Y-81383190D01*
X164919257Y-81383190D01*
X166347828Y-81859380D02*
X166347828Y-81335571D01*
X166300209Y-81240333D01*
X166204971Y-81192714D01*
X166014495Y-81192714D01*
X165919257Y-81240333D01*
X166347828Y-81811761D02*
X166252590Y-81859380D01*
X166014495Y-81859380D01*
X165919257Y-81811761D01*
X165871638Y-81716523D01*
X165871638Y-81621285D01*
X165919257Y-81526047D01*
X166014495Y-81478428D01*
X166252590Y-81478428D01*
X166347828Y-81430809D01*
X166776400Y-81811761D02*
X166871638Y-81859380D01*
X167062114Y-81859380D01*
X167157352Y-81811761D01*
X167204971Y-81716523D01*
X167204971Y-81668904D01*
X167157352Y-81573666D01*
X167062114Y-81526047D01*
X166919257Y-81526047D01*
X166824019Y-81478428D01*
X166776400Y-81383190D01*
X166776400Y-81335571D01*
X166824019Y-81240333D01*
X166919257Y-81192714D01*
X167062114Y-81192714D01*
X167157352Y-81240333D01*
X167633542Y-81859380D02*
X167633542Y-80859380D01*
X168014495Y-80859380D01*
X168109733Y-80907000D01*
X168157352Y-80954619D01*
X168204971Y-81049857D01*
X168204971Y-81192714D01*
X168157352Y-81287952D01*
X168109733Y-81335571D01*
X168014495Y-81383190D01*
X167633542Y-81383190D01*
X168633542Y-81859380D02*
X168633542Y-81192714D01*
X168633542Y-80859380D02*
X168585923Y-80907000D01*
X168633542Y-80954619D01*
X168681161Y-80907000D01*
X168633542Y-80859380D01*
X168633542Y-80954619D01*
%TO.C,R1*%
X178531780Y-64479466D02*
X178055590Y-64812800D01*
X178531780Y-65050895D02*
X177531780Y-65050895D01*
X177531780Y-64669942D01*
X177579400Y-64574704D01*
X177627019Y-64527085D01*
X177722257Y-64479466D01*
X177865114Y-64479466D01*
X177960352Y-64527085D01*
X178007971Y-64574704D01*
X178055590Y-64669942D01*
X178055590Y-65050895D01*
X178531780Y-63527085D02*
X178531780Y-64098514D01*
X178531780Y-63812800D02*
X177531780Y-63812800D01*
X177674638Y-63908038D01*
X177769876Y-64003276D01*
X177817495Y-64098514D01*
%TO.C,RN1*%
X172181923Y-97099380D02*
X171848590Y-96623190D01*
X171610495Y-97099380D02*
X171610495Y-96099380D01*
X171991447Y-96099380D01*
X172086685Y-96147000D01*
X172134304Y-96194619D01*
X172181923Y-96289857D01*
X172181923Y-96432714D01*
X172134304Y-96527952D01*
X172086685Y-96575571D01*
X171991447Y-96623190D01*
X171610495Y-96623190D01*
X172610495Y-97099380D02*
X172610495Y-96099380D01*
X173181923Y-97099380D01*
X173181923Y-96099380D01*
X174181923Y-97099380D02*
X173610495Y-97099380D01*
X173896209Y-97099380D02*
X173896209Y-96099380D01*
X173800971Y-96242238D01*
X173705733Y-96337476D01*
X173610495Y-96385095D01*
%TO.C,RN2*%
X150242523Y-107662180D02*
X149909190Y-107185990D01*
X149671095Y-107662180D02*
X149671095Y-106662180D01*
X150052047Y-106662180D01*
X150147285Y-106709800D01*
X150194904Y-106757419D01*
X150242523Y-106852657D01*
X150242523Y-106995514D01*
X150194904Y-107090752D01*
X150147285Y-107138371D01*
X150052047Y-107185990D01*
X149671095Y-107185990D01*
X150671095Y-107662180D02*
X150671095Y-106662180D01*
X151242523Y-107662180D01*
X151242523Y-106662180D01*
X151671095Y-106757419D02*
X151718714Y-106709800D01*
X151813952Y-106662180D01*
X152052047Y-106662180D01*
X152147285Y-106709800D01*
X152194904Y-106757419D01*
X152242523Y-106852657D01*
X152242523Y-106947895D01*
X152194904Y-107090752D01*
X151623476Y-107662180D01*
X152242523Y-107662180D01*
%TO.C,RN3*%
X152763623Y-96324680D02*
X152430290Y-95848490D01*
X152192195Y-96324680D02*
X152192195Y-95324680D01*
X152573147Y-95324680D01*
X152668385Y-95372300D01*
X152716004Y-95419919D01*
X152763623Y-95515157D01*
X152763623Y-95658014D01*
X152716004Y-95753252D01*
X152668385Y-95800871D01*
X152573147Y-95848490D01*
X152192195Y-95848490D01*
X153192195Y-96324680D02*
X153192195Y-95324680D01*
X153763623Y-96324680D01*
X153763623Y-95324680D01*
X154144576Y-95324680D02*
X154763623Y-95324680D01*
X154430290Y-95705633D01*
X154573147Y-95705633D01*
X154668385Y-95753252D01*
X154716004Y-95800871D01*
X154763623Y-95896109D01*
X154763623Y-96134204D01*
X154716004Y-96229442D01*
X154668385Y-96277061D01*
X154573147Y-96324680D01*
X154287433Y-96324680D01*
X154192195Y-96277061D01*
X154144576Y-96229442D01*
%TO.C,RN4*%
X175331523Y-112098080D02*
X174998190Y-111621890D01*
X174760095Y-112098080D02*
X174760095Y-111098080D01*
X175141047Y-111098080D01*
X175236285Y-111145700D01*
X175283904Y-111193319D01*
X175331523Y-111288557D01*
X175331523Y-111431414D01*
X175283904Y-111526652D01*
X175236285Y-111574271D01*
X175141047Y-111621890D01*
X174760095Y-111621890D01*
X175760095Y-112098080D02*
X175760095Y-111098080D01*
X176331523Y-112098080D01*
X176331523Y-111098080D01*
X177236285Y-111431414D02*
X177236285Y-112098080D01*
X176998190Y-111050461D02*
X176760095Y-111764747D01*
X177379142Y-111764747D01*
%TO.C,U1*%
X185928095Y-109231180D02*
X185928095Y-110040704D01*
X185975714Y-110135942D01*
X186023333Y-110183561D01*
X186118571Y-110231180D01*
X186309047Y-110231180D01*
X186404285Y-110183561D01*
X186451904Y-110135942D01*
X186499523Y-110040704D01*
X186499523Y-109231180D01*
X187499523Y-110231180D02*
X186928095Y-110231180D01*
X187213809Y-110231180D02*
X187213809Y-109231180D01*
X187118571Y-109374038D01*
X187023333Y-109469276D01*
X186928095Y-109516895D01*
%TO.C,U2*%
X180060695Y-92162380D02*
X180060695Y-92971904D01*
X180108314Y-93067142D01*
X180155933Y-93114761D01*
X180251171Y-93162380D01*
X180441647Y-93162380D01*
X180536885Y-93114761D01*
X180584504Y-93067142D01*
X180632123Y-92971904D01*
X180632123Y-92162380D01*
X181060695Y-92257619D02*
X181108314Y-92210000D01*
X181203552Y-92162380D01*
X181441647Y-92162380D01*
X181536885Y-92210000D01*
X181584504Y-92257619D01*
X181632123Y-92352857D01*
X181632123Y-92448095D01*
X181584504Y-92590952D01*
X181013076Y-93162380D01*
X181632123Y-93162380D01*
%TO.C,U3*%
X133781895Y-102754180D02*
X133781895Y-103563704D01*
X133829514Y-103658942D01*
X133877133Y-103706561D01*
X133972371Y-103754180D01*
X134162847Y-103754180D01*
X134258085Y-103706561D01*
X134305704Y-103658942D01*
X134353323Y-103563704D01*
X134353323Y-102754180D01*
X134734276Y-102754180D02*
X135353323Y-102754180D01*
X135019990Y-103135133D01*
X135162847Y-103135133D01*
X135258085Y-103182752D01*
X135305704Y-103230371D01*
X135353323Y-103325609D01*
X135353323Y-103563704D01*
X135305704Y-103658942D01*
X135258085Y-103706561D01*
X135162847Y-103754180D01*
X134877133Y-103754180D01*
X134781895Y-103706561D01*
X134734276Y-103658942D01*
%TO.C,F2*%
X127428666Y-64723971D02*
X127095333Y-64723971D01*
X127095333Y-65247780D02*
X127095333Y-64247780D01*
X127571523Y-64247780D01*
X127904857Y-64343019D02*
X127952476Y-64295400D01*
X128047714Y-64247780D01*
X128285809Y-64247780D01*
X128381047Y-64295400D01*
X128428666Y-64343019D01*
X128476285Y-64438257D01*
X128476285Y-64533495D01*
X128428666Y-64676352D01*
X127857238Y-65247780D01*
X128476285Y-65247780D01*
%TO.C,J3*%
X128000166Y-129119380D02*
X128000166Y-129833666D01*
X127952547Y-129976523D01*
X127857309Y-130071761D01*
X127714452Y-130119380D01*
X127619214Y-130119380D01*
X128381119Y-129119380D02*
X129000166Y-129119380D01*
X128666833Y-129500333D01*
X128809690Y-129500333D01*
X128904928Y-129547952D01*
X128952547Y-129595571D01*
X129000166Y-129690809D01*
X129000166Y-129928904D01*
X128952547Y-130024142D01*
X128904928Y-130071761D01*
X128809690Y-130119380D01*
X128523976Y-130119380D01*
X128428738Y-130071761D01*
X128381119Y-130024142D01*
X125552723Y-126655580D02*
X125552723Y-127465104D01*
X125600342Y-127560342D01*
X125647961Y-127607961D01*
X125743200Y-127655580D01*
X125933676Y-127655580D01*
X126028914Y-127607961D01*
X126076533Y-127560342D01*
X126124152Y-127465104D01*
X126124152Y-126655580D01*
X126552723Y-127607961D02*
X126695580Y-127655580D01*
X126933676Y-127655580D01*
X127028914Y-127607961D01*
X127076533Y-127560342D01*
X127124152Y-127465104D01*
X127124152Y-127369866D01*
X127076533Y-127274628D01*
X127028914Y-127227009D01*
X126933676Y-127179390D01*
X126743200Y-127131771D01*
X126647961Y-127084152D01*
X126600342Y-127036533D01*
X126552723Y-126941295D01*
X126552723Y-126846057D01*
X126600342Y-126750819D01*
X126647961Y-126703200D01*
X126743200Y-126655580D01*
X126981295Y-126655580D01*
X127124152Y-126703200D01*
X127886057Y-127131771D02*
X128028914Y-127179390D01*
X128076533Y-127227009D01*
X128124152Y-127322247D01*
X128124152Y-127465104D01*
X128076533Y-127560342D01*
X128028914Y-127607961D01*
X127933676Y-127655580D01*
X127552723Y-127655580D01*
X127552723Y-126655580D01*
X127886057Y-126655580D01*
X127981295Y-126703200D01*
X128028914Y-126750819D01*
X128076533Y-126846057D01*
X128076533Y-126941295D01*
X128028914Y-127036533D01*
X127981295Y-127084152D01*
X127886057Y-127131771D01*
X127552723Y-127131771D01*
X128314628Y-127750819D02*
X129076533Y-127750819D01*
X129314628Y-127655580D02*
X129314628Y-126655580D01*
X129695580Y-126655580D01*
X129790819Y-126703200D01*
X129838438Y-126750819D01*
X129886057Y-126846057D01*
X129886057Y-126988914D01*
X129838438Y-127084152D01*
X129790819Y-127131771D01*
X129695580Y-127179390D01*
X129314628Y-127179390D01*
X130505104Y-126655580D02*
X130695580Y-126655580D01*
X130790819Y-126703200D01*
X130886057Y-126798438D01*
X130933676Y-126988914D01*
X130933676Y-127322247D01*
X130886057Y-127512723D01*
X130790819Y-127607961D01*
X130695580Y-127655580D01*
X130505104Y-127655580D01*
X130409866Y-127607961D01*
X130314628Y-127512723D01*
X130267009Y-127322247D01*
X130267009Y-126988914D01*
X130314628Y-126798438D01*
X130409866Y-126703200D01*
X130505104Y-126655580D01*
X131267009Y-126655580D02*
X131505104Y-127655580D01*
X131695580Y-126941295D01*
X131886057Y-127655580D01*
X132124152Y-126655580D01*
X132505104Y-127131771D02*
X132838438Y-127131771D01*
X132981295Y-127655580D02*
X132505104Y-127655580D01*
X132505104Y-126655580D01*
X132981295Y-126655580D01*
X133981295Y-127655580D02*
X133647961Y-127179390D01*
X133409866Y-127655580D02*
X133409866Y-126655580D01*
X133790819Y-126655580D01*
X133886057Y-126703200D01*
X133933676Y-126750819D01*
X133981295Y-126846057D01*
X133981295Y-126988914D01*
X133933676Y-127084152D01*
X133886057Y-127131771D01*
X133790819Y-127179390D01*
X133409866Y-127179390D01*
%TO.C,C5*%
X154509742Y-102757266D02*
X154557361Y-102804885D01*
X154604980Y-102947742D01*
X154604980Y-103042980D01*
X154557361Y-103185838D01*
X154462123Y-103281076D01*
X154366885Y-103328695D01*
X154176409Y-103376314D01*
X154033552Y-103376314D01*
X153843076Y-103328695D01*
X153747838Y-103281076D01*
X153652600Y-103185838D01*
X153604980Y-103042980D01*
X153604980Y-102947742D01*
X153652600Y-102804885D01*
X153700219Y-102757266D01*
X153604980Y-101852504D02*
X153604980Y-102328695D01*
X154081171Y-102376314D01*
X154033552Y-102328695D01*
X153985933Y-102233457D01*
X153985933Y-101995361D01*
X154033552Y-101900123D01*
X154081171Y-101852504D01*
X154176409Y-101804885D01*
X154414504Y-101804885D01*
X154509742Y-101852504D01*
X154557361Y-101900123D01*
X154604980Y-101995361D01*
X154604980Y-102233457D01*
X154557361Y-102328695D01*
X154509742Y-102376314D01*
%TD*%
%LPC*%
D15*
X126085600Y-128549400D02*
X126161800Y-128625600D01*
D16*
X126263400Y-131673600D02*
X126263400Y-128651000D01*
X123672600Y-131648200D02*
X123672600Y-129209800D01*
D17*
X129209800Y-66751200D02*
X130479800Y-68021200D01*
X128016000Y-66675000D02*
X129260600Y-66675000D01*
D18*
X124841000Y-66700400D02*
X120929400Y-66700400D01*
X118922800Y-66484500D02*
X120535700Y-66484500D01*
X117970300Y-65532000D02*
X118922800Y-66484500D01*
X117970300Y-61722000D02*
X117970300Y-65532000D01*
X118427500Y-61264800D02*
X117970300Y-61722000D01*
X118427500Y-57175400D02*
X118427500Y-61264800D01*
X121729500Y-54686200D02*
X121729500Y-57099200D01*
X119849900Y-52806600D02*
X121729500Y-54686200D01*
X113690400Y-52806600D02*
X119849900Y-52806600D01*
X112102900Y-51219100D02*
X113690400Y-52806600D01*
X112115600Y-49606200D02*
X112115600Y-51219100D01*
D19*
%TO.C,MH12*%
X207250000Y-101450000D03*
%TD*%
%TO.C,MH11*%
X112000000Y-101450000D03*
%TD*%
%TO.C,R4*%
G36*
G01*
X127778400Y-53207200D02*
X128304400Y-53207200D01*
G75*
G02*
X128567400Y-53470200I0J-263000D01*
G01*
X128567400Y-54096200D01*
G75*
G02*
X128304400Y-54359200I-263000J0D01*
G01*
X127778400Y-54359200D01*
G75*
G02*
X127515400Y-54096200I0J263000D01*
G01*
X127515400Y-53470200D01*
G75*
G02*
X127778400Y-53207200I263000J0D01*
G01*
G37*
G36*
G01*
X127778400Y-51457200D02*
X128304400Y-51457200D01*
G75*
G02*
X128567400Y-51720200I0J-263000D01*
G01*
X128567400Y-52346200D01*
G75*
G02*
X128304400Y-52609200I-263000J0D01*
G01*
X127778400Y-52609200D01*
G75*
G02*
X127515400Y-52346200I0J263000D01*
G01*
X127515400Y-51720200D01*
G75*
G02*
X127778400Y-51457200I263000J0D01*
G01*
G37*
%TD*%
%TO.C,LED1*%
G36*
G01*
X130166000Y-53207200D02*
X130692000Y-53207200D01*
G75*
G02*
X130955000Y-53470200I0J-263000D01*
G01*
X130955000Y-54096200D01*
G75*
G02*
X130692000Y-54359200I-263000J0D01*
G01*
X130166000Y-54359200D01*
G75*
G02*
X129903000Y-54096200I0J263000D01*
G01*
X129903000Y-53470200D01*
G75*
G02*
X130166000Y-53207200I263000J0D01*
G01*
G37*
G36*
G01*
X130166000Y-51457200D02*
X130692000Y-51457200D01*
G75*
G02*
X130955000Y-51720200I0J-263000D01*
G01*
X130955000Y-52346200D01*
G75*
G02*
X130692000Y-52609200I-263000J0D01*
G01*
X130166000Y-52609200D01*
G75*
G02*
X129903000Y-52346200I0J263000D01*
G01*
X129903000Y-51720200D01*
G75*
G02*
X130166000Y-51457200I263000J0D01*
G01*
G37*
%TD*%
D20*
%TO.C,J8*%
X114554000Y-45593000D03*
X119634000Y-45593000D03*
X124714000Y-45593000D03*
X129794000Y-45593000D03*
D21*
X112014000Y-43053000D03*
X132334000Y-43053000D03*
D22*
X117094000Y-35433000D03*
X127254000Y-35433000D03*
%TD*%
%TO.C,U6*%
G36*
G01*
X169533500Y-51293000D02*
X169533500Y-50942000D01*
G75*
G02*
X169709000Y-50766500I175500J0D01*
G01*
X171410000Y-50766500D01*
G75*
G02*
X171585500Y-50942000I0J-175500D01*
G01*
X171585500Y-51293000D01*
G75*
G02*
X171410000Y-51468500I-175500J0D01*
G01*
X169709000Y-51468500D01*
G75*
G02*
X169533500Y-51293000I0J175500D01*
G01*
G37*
G36*
G01*
X169533500Y-52563000D02*
X169533500Y-52212000D01*
G75*
G02*
X169709000Y-52036500I175500J0D01*
G01*
X171410000Y-52036500D01*
G75*
G02*
X171585500Y-52212000I0J-175500D01*
G01*
X171585500Y-52563000D01*
G75*
G02*
X171410000Y-52738500I-175500J0D01*
G01*
X169709000Y-52738500D01*
G75*
G02*
X169533500Y-52563000I0J175500D01*
G01*
G37*
G36*
G01*
X169533500Y-53833000D02*
X169533500Y-53482000D01*
G75*
G02*
X169709000Y-53306500I175500J0D01*
G01*
X171410000Y-53306500D01*
G75*
G02*
X171585500Y-53482000I0J-175500D01*
G01*
X171585500Y-53833000D01*
G75*
G02*
X171410000Y-54008500I-175500J0D01*
G01*
X169709000Y-54008500D01*
G75*
G02*
X169533500Y-53833000I0J175500D01*
G01*
G37*
G36*
G01*
X169533500Y-55103000D02*
X169533500Y-54752000D01*
G75*
G02*
X169709000Y-54576500I175500J0D01*
G01*
X171410000Y-54576500D01*
G75*
G02*
X171585500Y-54752000I0J-175500D01*
G01*
X171585500Y-55103000D01*
G75*
G02*
X171410000Y-55278500I-175500J0D01*
G01*
X169709000Y-55278500D01*
G75*
G02*
X169533500Y-55103000I0J175500D01*
G01*
G37*
G36*
G01*
X169533500Y-56373000D02*
X169533500Y-56022000D01*
G75*
G02*
X169709000Y-55846500I175500J0D01*
G01*
X171410000Y-55846500D01*
G75*
G02*
X171585500Y-56022000I0J-175500D01*
G01*
X171585500Y-56373000D01*
G75*
G02*
X171410000Y-56548500I-175500J0D01*
G01*
X169709000Y-56548500D01*
G75*
G02*
X169533500Y-56373000I0J175500D01*
G01*
G37*
G36*
G01*
X169533500Y-57643000D02*
X169533500Y-57292000D01*
G75*
G02*
X169709000Y-57116500I175500J0D01*
G01*
X171410000Y-57116500D01*
G75*
G02*
X171585500Y-57292000I0J-175500D01*
G01*
X171585500Y-57643000D01*
G75*
G02*
X171410000Y-57818500I-175500J0D01*
G01*
X169709000Y-57818500D01*
G75*
G02*
X169533500Y-57643000I0J175500D01*
G01*
G37*
G36*
G01*
X169533500Y-58913000D02*
X169533500Y-58562000D01*
G75*
G02*
X169709000Y-58386500I175500J0D01*
G01*
X171410000Y-58386500D01*
G75*
G02*
X171585500Y-58562000I0J-175500D01*
G01*
X171585500Y-58913000D01*
G75*
G02*
X171410000Y-59088500I-175500J0D01*
G01*
X169709000Y-59088500D01*
G75*
G02*
X169533500Y-58913000I0J175500D01*
G01*
G37*
G36*
G01*
X169533500Y-60183000D02*
X169533500Y-59832000D01*
G75*
G02*
X169709000Y-59656500I175500J0D01*
G01*
X171410000Y-59656500D01*
G75*
G02*
X171585500Y-59832000I0J-175500D01*
G01*
X171585500Y-60183000D01*
G75*
G02*
X171410000Y-60358500I-175500J0D01*
G01*
X169709000Y-60358500D01*
G75*
G02*
X169533500Y-60183000I0J175500D01*
G01*
G37*
G36*
G01*
X164583500Y-60183000D02*
X164583500Y-59832000D01*
G75*
G02*
X164759000Y-59656500I175500J0D01*
G01*
X166460000Y-59656500D01*
G75*
G02*
X166635500Y-59832000I0J-175500D01*
G01*
X166635500Y-60183000D01*
G75*
G02*
X166460000Y-60358500I-175500J0D01*
G01*
X164759000Y-60358500D01*
G75*
G02*
X164583500Y-60183000I0J175500D01*
G01*
G37*
G36*
G01*
X164583500Y-58913000D02*
X164583500Y-58562000D01*
G75*
G02*
X164759000Y-58386500I175500J0D01*
G01*
X166460000Y-58386500D01*
G75*
G02*
X166635500Y-58562000I0J-175500D01*
G01*
X166635500Y-58913000D01*
G75*
G02*
X166460000Y-59088500I-175500J0D01*
G01*
X164759000Y-59088500D01*
G75*
G02*
X164583500Y-58913000I0J175500D01*
G01*
G37*
G36*
G01*
X164583500Y-57643000D02*
X164583500Y-57292000D01*
G75*
G02*
X164759000Y-57116500I175500J0D01*
G01*
X166460000Y-57116500D01*
G75*
G02*
X166635500Y-57292000I0J-175500D01*
G01*
X166635500Y-57643000D01*
G75*
G02*
X166460000Y-57818500I-175500J0D01*
G01*
X164759000Y-57818500D01*
G75*
G02*
X164583500Y-57643000I0J175500D01*
G01*
G37*
G36*
G01*
X164583500Y-56373000D02*
X164583500Y-56022000D01*
G75*
G02*
X164759000Y-55846500I175500J0D01*
G01*
X166460000Y-55846500D01*
G75*
G02*
X166635500Y-56022000I0J-175500D01*
G01*
X166635500Y-56373000D01*
G75*
G02*
X166460000Y-56548500I-175500J0D01*
G01*
X164759000Y-56548500D01*
G75*
G02*
X164583500Y-56373000I0J175500D01*
G01*
G37*
G36*
G01*
X164583500Y-55103000D02*
X164583500Y-54752000D01*
G75*
G02*
X164759000Y-54576500I175500J0D01*
G01*
X166460000Y-54576500D01*
G75*
G02*
X166635500Y-54752000I0J-175500D01*
G01*
X166635500Y-55103000D01*
G75*
G02*
X166460000Y-55278500I-175500J0D01*
G01*
X164759000Y-55278500D01*
G75*
G02*
X164583500Y-55103000I0J175500D01*
G01*
G37*
G36*
G01*
X164583500Y-53833000D02*
X164583500Y-53482000D01*
G75*
G02*
X164759000Y-53306500I175500J0D01*
G01*
X166460000Y-53306500D01*
G75*
G02*
X166635500Y-53482000I0J-175500D01*
G01*
X166635500Y-53833000D01*
G75*
G02*
X166460000Y-54008500I-175500J0D01*
G01*
X164759000Y-54008500D01*
G75*
G02*
X164583500Y-53833000I0J175500D01*
G01*
G37*
G36*
G01*
X164583500Y-52563000D02*
X164583500Y-52212000D01*
G75*
G02*
X164759000Y-52036500I175500J0D01*
G01*
X166460000Y-52036500D01*
G75*
G02*
X166635500Y-52212000I0J-175500D01*
G01*
X166635500Y-52563000D01*
G75*
G02*
X166460000Y-52738500I-175500J0D01*
G01*
X164759000Y-52738500D01*
G75*
G02*
X164583500Y-52563000I0J175500D01*
G01*
G37*
G36*
G01*
X164583500Y-51293000D02*
X164583500Y-50942000D01*
G75*
G02*
X164759000Y-50766500I175500J0D01*
G01*
X166460000Y-50766500D01*
G75*
G02*
X166635500Y-50942000I0J-175500D01*
G01*
X166635500Y-51293000D01*
G75*
G02*
X166460000Y-51468500I-175500J0D01*
G01*
X164759000Y-51468500D01*
G75*
G02*
X164583500Y-51293000I0J175500D01*
G01*
G37*
%TD*%
%TO.C,U5*%
G36*
G01*
X180161000Y-60911500D02*
X180161000Y-61262500D01*
G75*
G02*
X179985500Y-61438000I-175500J0D01*
G01*
X178284500Y-61438000D01*
G75*
G02*
X178109000Y-61262500I0J175500D01*
G01*
X178109000Y-60911500D01*
G75*
G02*
X178284500Y-60736000I175500J0D01*
G01*
X179985500Y-60736000D01*
G75*
G02*
X180161000Y-60911500I0J-175500D01*
G01*
G37*
G36*
G01*
X180161000Y-59641500D02*
X180161000Y-59992500D01*
G75*
G02*
X179985500Y-60168000I-175500J0D01*
G01*
X178284500Y-60168000D01*
G75*
G02*
X178109000Y-59992500I0J175500D01*
G01*
X178109000Y-59641500D01*
G75*
G02*
X178284500Y-59466000I175500J0D01*
G01*
X179985500Y-59466000D01*
G75*
G02*
X180161000Y-59641500I0J-175500D01*
G01*
G37*
G36*
G01*
X180161000Y-58371500D02*
X180161000Y-58722500D01*
G75*
G02*
X179985500Y-58898000I-175500J0D01*
G01*
X178284500Y-58898000D01*
G75*
G02*
X178109000Y-58722500I0J175500D01*
G01*
X178109000Y-58371500D01*
G75*
G02*
X178284500Y-58196000I175500J0D01*
G01*
X179985500Y-58196000D01*
G75*
G02*
X180161000Y-58371500I0J-175500D01*
G01*
G37*
G36*
G01*
X180161000Y-57101500D02*
X180161000Y-57452500D01*
G75*
G02*
X179985500Y-57628000I-175500J0D01*
G01*
X178284500Y-57628000D01*
G75*
G02*
X178109000Y-57452500I0J175500D01*
G01*
X178109000Y-57101500D01*
G75*
G02*
X178284500Y-56926000I175500J0D01*
G01*
X179985500Y-56926000D01*
G75*
G02*
X180161000Y-57101500I0J-175500D01*
G01*
G37*
G36*
G01*
X180161000Y-55831500D02*
X180161000Y-56182500D01*
G75*
G02*
X179985500Y-56358000I-175500J0D01*
G01*
X178284500Y-56358000D01*
G75*
G02*
X178109000Y-56182500I0J175500D01*
G01*
X178109000Y-55831500D01*
G75*
G02*
X178284500Y-55656000I175500J0D01*
G01*
X179985500Y-55656000D01*
G75*
G02*
X180161000Y-55831500I0J-175500D01*
G01*
G37*
G36*
G01*
X180161000Y-54561500D02*
X180161000Y-54912500D01*
G75*
G02*
X179985500Y-55088000I-175500J0D01*
G01*
X178284500Y-55088000D01*
G75*
G02*
X178109000Y-54912500I0J175500D01*
G01*
X178109000Y-54561500D01*
G75*
G02*
X178284500Y-54386000I175500J0D01*
G01*
X179985500Y-54386000D01*
G75*
G02*
X180161000Y-54561500I0J-175500D01*
G01*
G37*
G36*
G01*
X180161000Y-53291500D02*
X180161000Y-53642500D01*
G75*
G02*
X179985500Y-53818000I-175500J0D01*
G01*
X178284500Y-53818000D01*
G75*
G02*
X178109000Y-53642500I0J175500D01*
G01*
X178109000Y-53291500D01*
G75*
G02*
X178284500Y-53116000I175500J0D01*
G01*
X179985500Y-53116000D01*
G75*
G02*
X180161000Y-53291500I0J-175500D01*
G01*
G37*
G36*
G01*
X180161000Y-52021500D02*
X180161000Y-52372500D01*
G75*
G02*
X179985500Y-52548000I-175500J0D01*
G01*
X178284500Y-52548000D01*
G75*
G02*
X178109000Y-52372500I0J175500D01*
G01*
X178109000Y-52021500D01*
G75*
G02*
X178284500Y-51846000I175500J0D01*
G01*
X179985500Y-51846000D01*
G75*
G02*
X180161000Y-52021500I0J-175500D01*
G01*
G37*
G36*
G01*
X185111000Y-52021500D02*
X185111000Y-52372500D01*
G75*
G02*
X184935500Y-52548000I-175500J0D01*
G01*
X183234500Y-52548000D01*
G75*
G02*
X183059000Y-52372500I0J175500D01*
G01*
X183059000Y-52021500D01*
G75*
G02*
X183234500Y-51846000I175500J0D01*
G01*
X184935500Y-51846000D01*
G75*
G02*
X185111000Y-52021500I0J-175500D01*
G01*
G37*
G36*
G01*
X185111000Y-53291500D02*
X185111000Y-53642500D01*
G75*
G02*
X184935500Y-53818000I-175500J0D01*
G01*
X183234500Y-53818000D01*
G75*
G02*
X183059000Y-53642500I0J175500D01*
G01*
X183059000Y-53291500D01*
G75*
G02*
X183234500Y-53116000I175500J0D01*
G01*
X184935500Y-53116000D01*
G75*
G02*
X185111000Y-53291500I0J-175500D01*
G01*
G37*
G36*
G01*
X185111000Y-54561500D02*
X185111000Y-54912500D01*
G75*
G02*
X184935500Y-55088000I-175500J0D01*
G01*
X183234500Y-55088000D01*
G75*
G02*
X183059000Y-54912500I0J175500D01*
G01*
X183059000Y-54561500D01*
G75*
G02*
X183234500Y-54386000I175500J0D01*
G01*
X184935500Y-54386000D01*
G75*
G02*
X185111000Y-54561500I0J-175500D01*
G01*
G37*
G36*
G01*
X185111000Y-55831500D02*
X185111000Y-56182500D01*
G75*
G02*
X184935500Y-56358000I-175500J0D01*
G01*
X183234500Y-56358000D01*
G75*
G02*
X183059000Y-56182500I0J175500D01*
G01*
X183059000Y-55831500D01*
G75*
G02*
X183234500Y-55656000I175500J0D01*
G01*
X184935500Y-55656000D01*
G75*
G02*
X185111000Y-55831500I0J-175500D01*
G01*
G37*
G36*
G01*
X185111000Y-57101500D02*
X185111000Y-57452500D01*
G75*
G02*
X184935500Y-57628000I-175500J0D01*
G01*
X183234500Y-57628000D01*
G75*
G02*
X183059000Y-57452500I0J175500D01*
G01*
X183059000Y-57101500D01*
G75*
G02*
X183234500Y-56926000I175500J0D01*
G01*
X184935500Y-56926000D01*
G75*
G02*
X185111000Y-57101500I0J-175500D01*
G01*
G37*
G36*
G01*
X185111000Y-58371500D02*
X185111000Y-58722500D01*
G75*
G02*
X184935500Y-58898000I-175500J0D01*
G01*
X183234500Y-58898000D01*
G75*
G02*
X183059000Y-58722500I0J175500D01*
G01*
X183059000Y-58371500D01*
G75*
G02*
X183234500Y-58196000I175500J0D01*
G01*
X184935500Y-58196000D01*
G75*
G02*
X185111000Y-58371500I0J-175500D01*
G01*
G37*
G36*
G01*
X185111000Y-59641500D02*
X185111000Y-59992500D01*
G75*
G02*
X184935500Y-60168000I-175500J0D01*
G01*
X183234500Y-60168000D01*
G75*
G02*
X183059000Y-59992500I0J175500D01*
G01*
X183059000Y-59641500D01*
G75*
G02*
X183234500Y-59466000I175500J0D01*
G01*
X184935500Y-59466000D01*
G75*
G02*
X185111000Y-59641500I0J-175500D01*
G01*
G37*
G36*
G01*
X185111000Y-60911500D02*
X185111000Y-61262500D01*
G75*
G02*
X184935500Y-61438000I-175500J0D01*
G01*
X183234500Y-61438000D01*
G75*
G02*
X183059000Y-61262500I0J175500D01*
G01*
X183059000Y-60911500D01*
G75*
G02*
X183234500Y-60736000I175500J0D01*
G01*
X184935500Y-60736000D01*
G75*
G02*
X185111000Y-60911500I0J-175500D01*
G01*
G37*
%TD*%
%TO.C,C9*%
G36*
G01*
X173427500Y-50323200D02*
X172901500Y-50323200D01*
G75*
G02*
X172638500Y-50060200I0J263000D01*
G01*
X172638500Y-49434200D01*
G75*
G02*
X172901500Y-49171200I263000J0D01*
G01*
X173427500Y-49171200D01*
G75*
G02*
X173690500Y-49434200I0J-263000D01*
G01*
X173690500Y-50060200D01*
G75*
G02*
X173427500Y-50323200I-263000J0D01*
G01*
G37*
G36*
G01*
X173427500Y-52073200D02*
X172901500Y-52073200D01*
G75*
G02*
X172638500Y-51810200I0J263000D01*
G01*
X172638500Y-51184200D01*
G75*
G02*
X172901500Y-50921200I263000J0D01*
G01*
X173427500Y-50921200D01*
G75*
G02*
X173690500Y-51184200I0J-263000D01*
G01*
X173690500Y-51810200D01*
G75*
G02*
X173427500Y-52073200I-263000J0D01*
G01*
G37*
%TD*%
%TO.C,C8*%
G36*
G01*
X168260005Y-47053400D02*
X166943795Y-47053400D01*
G75*
G02*
X166675900Y-46785505I0J267895D01*
G01*
X166675900Y-45794295D01*
G75*
G02*
X166943795Y-45526400I267895J0D01*
G01*
X168260005Y-45526400D01*
G75*
G02*
X168527900Y-45794295I0J-267895D01*
G01*
X168527900Y-46785505D01*
G75*
G02*
X168260005Y-47053400I-267895J0D01*
G01*
G37*
G36*
G01*
X168260005Y-50028400D02*
X166943795Y-50028400D01*
G75*
G02*
X166675900Y-49760505I0J267895D01*
G01*
X166675900Y-48769295D01*
G75*
G02*
X166943795Y-48501400I267895J0D01*
G01*
X168260005Y-48501400D01*
G75*
G02*
X168527900Y-48769295I0J-267895D01*
G01*
X168527900Y-49760505D01*
G75*
G02*
X168260005Y-50028400I-267895J0D01*
G01*
G37*
%TD*%
%TO.C,C7*%
G36*
G01*
X176140000Y-61894000D02*
X176666000Y-61894000D01*
G75*
G02*
X176929000Y-62157000I0J-263000D01*
G01*
X176929000Y-62783000D01*
G75*
G02*
X176666000Y-63046000I-263000J0D01*
G01*
X176140000Y-63046000D01*
G75*
G02*
X175877000Y-62783000I0J263000D01*
G01*
X175877000Y-62157000D01*
G75*
G02*
X176140000Y-61894000I263000J0D01*
G01*
G37*
G36*
G01*
X176140000Y-60144000D02*
X176666000Y-60144000D01*
G75*
G02*
X176929000Y-60407000I0J-263000D01*
G01*
X176929000Y-61033000D01*
G75*
G02*
X176666000Y-61296000I-263000J0D01*
G01*
X176140000Y-61296000D01*
G75*
G02*
X175877000Y-61033000I0J263000D01*
G01*
X175877000Y-60407000D01*
G75*
G02*
X176140000Y-60144000I263000J0D01*
G01*
G37*
%TD*%
%TO.C,C6*%
G36*
G01*
X179143905Y-47764600D02*
X177827695Y-47764600D01*
G75*
G02*
X177559800Y-47496705I0J267895D01*
G01*
X177559800Y-46505495D01*
G75*
G02*
X177827695Y-46237600I267895J0D01*
G01*
X179143905Y-46237600D01*
G75*
G02*
X179411800Y-46505495I0J-267895D01*
G01*
X179411800Y-47496705D01*
G75*
G02*
X179143905Y-47764600I-267895J0D01*
G01*
G37*
G36*
G01*
X179143905Y-50739600D02*
X177827695Y-50739600D01*
G75*
G02*
X177559800Y-50471705I0J267895D01*
G01*
X177559800Y-49480495D01*
G75*
G02*
X177827695Y-49212600I267895J0D01*
G01*
X179143905Y-49212600D01*
G75*
G02*
X179411800Y-49480495I0J-267895D01*
G01*
X179411800Y-50471705D01*
G75*
G02*
X179143905Y-50739600I-267895J0D01*
G01*
G37*
%TD*%
D23*
%TO.C,MH10*%
X138514000Y-126150000D03*
%TD*%
%TO.C,MH9*%
X196514000Y-126150000D03*
%TD*%
D24*
%TO.C,J2*%
X201930000Y-41656000D03*
X201930000Y-44196000D03*
X199390000Y-41656000D03*
X199390000Y-44196000D03*
X196850000Y-41656000D03*
X196850000Y-44196000D03*
X194310000Y-41656000D03*
X194310000Y-44196000D03*
X191770000Y-41656000D03*
X191770000Y-44196000D03*
X189230000Y-41656000D03*
X189230000Y-44196000D03*
X186690000Y-41656000D03*
X186690000Y-44196000D03*
X184150000Y-41656000D03*
X184150000Y-44196000D03*
X181610000Y-41656000D03*
X181610000Y-44196000D03*
X179070000Y-41656000D03*
X179070000Y-44196000D03*
X176530000Y-41656000D03*
X176530000Y-44196000D03*
X173990000Y-41656000D03*
X173990000Y-44196000D03*
X171450000Y-41656000D03*
X171450000Y-44196000D03*
X168910000Y-41656000D03*
X168910000Y-44196000D03*
X166370000Y-41656000D03*
X166370000Y-44196000D03*
X163830000Y-41656000D03*
X163830000Y-44196000D03*
X161290000Y-41656000D03*
X161290000Y-44196000D03*
X158750000Y-41656000D03*
X158750000Y-44196000D03*
X156210000Y-41656000D03*
X156210000Y-44196000D03*
X153670000Y-41656000D03*
X153670000Y-44196000D03*
X151130000Y-41656000D03*
X151130000Y-44196000D03*
X148590000Y-41656000D03*
X148590000Y-44196000D03*
X146050000Y-41656000D03*
X146050000Y-44196000D03*
X143510000Y-41656000D03*
X143510000Y-44196000D03*
X140970000Y-41656000D03*
D25*
X140970000Y-44196000D03*
%TD*%
D19*
%TO.C,MH8*%
X207250000Y-133200000D03*
%TD*%
%TO.C,MH7*%
X207250000Y-57000000D03*
%TD*%
%TO.C,MH6*%
X112000000Y-133200000D03*
%TD*%
%TO.C,MH5*%
X112000000Y-57000000D03*
%TD*%
D26*
%TO.C,J6*%
X119634000Y-49784000D03*
X117134000Y-49784000D03*
X114634000Y-49784000D03*
G36*
G01*
X112584500Y-50685000D02*
X111683500Y-50685000D01*
G75*
G02*
X111233000Y-50234500I0J450500D01*
G01*
X111233000Y-49333500D01*
G75*
G02*
X111683500Y-48883000I450500J0D01*
G01*
X112584500Y-48883000D01*
G75*
G02*
X113035000Y-49333500I0J-450500D01*
G01*
X113035000Y-50234500D01*
G75*
G02*
X112584500Y-50685000I-450500J0D01*
G01*
G37*
%TD*%
%TO.C,D2*%
G36*
G01*
X120940200Y-57500900D02*
X120940200Y-56849900D01*
G75*
G02*
X121265700Y-56524400I325500J0D01*
G01*
X122216700Y-56524400D01*
G75*
G02*
X122542200Y-56849900I0J-325500D01*
G01*
X122542200Y-57500900D01*
G75*
G02*
X122216700Y-57826400I-325500J0D01*
G01*
X121265700Y-57826400D01*
G75*
G02*
X120940200Y-57500900I0J325500D01*
G01*
G37*
G36*
G01*
X117640200Y-57500900D02*
X117640200Y-56849900D01*
G75*
G02*
X117965700Y-56524400I325500J0D01*
G01*
X118916700Y-56524400D01*
G75*
G02*
X119242200Y-56849900I0J-325500D01*
G01*
X119242200Y-57500900D01*
G75*
G02*
X118916700Y-57826400I-325500J0D01*
G01*
X117965700Y-57826400D01*
G75*
G02*
X117640200Y-57500900I0J325500D01*
G01*
G37*
%TD*%
%TO.C,D1*%
G36*
G01*
X136428100Y-51852200D02*
X137079100Y-51852200D01*
G75*
G02*
X137404600Y-52177700I0J-325500D01*
G01*
X137404600Y-53128700D01*
G75*
G02*
X137079100Y-53454200I-325500J0D01*
G01*
X136428100Y-53454200D01*
G75*
G02*
X136102600Y-53128700I0J325500D01*
G01*
X136102600Y-52177700D01*
G75*
G02*
X136428100Y-51852200I325500J0D01*
G01*
G37*
G36*
G01*
X136428100Y-48552200D02*
X137079100Y-48552200D01*
G75*
G02*
X137404600Y-48877700I0J-325500D01*
G01*
X137404600Y-49828700D01*
G75*
G02*
X137079100Y-50154200I-325500J0D01*
G01*
X136428100Y-50154200D01*
G75*
G02*
X136102600Y-49828700I0J325500D01*
G01*
X136102600Y-48877700D01*
G75*
G02*
X136428100Y-48552200I325500J0D01*
G01*
G37*
%TD*%
%TO.C,R3*%
G36*
G01*
X125126200Y-57547400D02*
X125126200Y-58073400D01*
G75*
G02*
X124863200Y-58336400I-263000J0D01*
G01*
X124237200Y-58336400D01*
G75*
G02*
X123974200Y-58073400I0J263000D01*
G01*
X123974200Y-57547400D01*
G75*
G02*
X124237200Y-57284400I263000J0D01*
G01*
X124863200Y-57284400D01*
G75*
G02*
X125126200Y-57547400I0J-263000D01*
G01*
G37*
G36*
G01*
X126876200Y-57547400D02*
X126876200Y-58073400D01*
G75*
G02*
X126613200Y-58336400I-263000J0D01*
G01*
X125987200Y-58336400D01*
G75*
G02*
X125724200Y-58073400I0J263000D01*
G01*
X125724200Y-57547400D01*
G75*
G02*
X125987200Y-57284400I263000J0D01*
G01*
X126613200Y-57284400D01*
G75*
G02*
X126876200Y-57547400I0J-263000D01*
G01*
G37*
%TD*%
%TO.C,R2*%
G36*
G01*
X125648000Y-60207000D02*
X125648000Y-59681000D01*
G75*
G02*
X125911000Y-59418000I263000J0D01*
G01*
X126537000Y-59418000D01*
G75*
G02*
X126800000Y-59681000I0J-263000D01*
G01*
X126800000Y-60207000D01*
G75*
G02*
X126537000Y-60470000I-263000J0D01*
G01*
X125911000Y-60470000D01*
G75*
G02*
X125648000Y-60207000I0J263000D01*
G01*
G37*
G36*
G01*
X123898000Y-60207000D02*
X123898000Y-59681000D01*
G75*
G02*
X124161000Y-59418000I263000J0D01*
G01*
X124787000Y-59418000D01*
G75*
G02*
X125050000Y-59681000I0J-263000D01*
G01*
X125050000Y-60207000D01*
G75*
G02*
X124787000Y-60470000I-263000J0D01*
G01*
X124161000Y-60470000D01*
G75*
G02*
X123898000Y-60207000I0J263000D01*
G01*
G37*
%TD*%
D23*
%TO.C,MH4*%
X196514000Y-100150000D03*
%TD*%
%TO.C,MH3*%
X196514000Y-77150000D03*
%TD*%
%TO.C,MH2*%
X138514000Y-77150000D03*
%TD*%
%TO.C,LED2*%
G36*
G01*
X180737400Y-68802800D02*
X181263400Y-68802800D01*
G75*
G02*
X181526400Y-69065800I0J-263000D01*
G01*
X181526400Y-69691800D01*
G75*
G02*
X181263400Y-69954800I-263000J0D01*
G01*
X180737400Y-69954800D01*
G75*
G02*
X180474400Y-69691800I0J263000D01*
G01*
X180474400Y-69065800D01*
G75*
G02*
X180737400Y-68802800I263000J0D01*
G01*
G37*
G36*
G01*
X180737400Y-67052800D02*
X181263400Y-67052800D01*
G75*
G02*
X181526400Y-67315800I0J-263000D01*
G01*
X181526400Y-67941800D01*
G75*
G02*
X181263400Y-68204800I-263000J0D01*
G01*
X180737400Y-68204800D01*
G75*
G02*
X180474400Y-67941800I0J263000D01*
G01*
X180474400Y-67315800D01*
G75*
G02*
X180737400Y-67052800I263000J0D01*
G01*
G37*
%TD*%
D27*
%TO.C,J7*%
X161490000Y-68834000D03*
X163990000Y-68834000D03*
X166490000Y-68834000D03*
X168990000Y-68834000D03*
X171490000Y-68834000D03*
G36*
G01*
X174891000Y-68073000D02*
X174891000Y-69595000D01*
G75*
G02*
X174626000Y-69860000I-265000J0D01*
G01*
X173354000Y-69860000D01*
G75*
G02*
X173089000Y-69595000I0J265000D01*
G01*
X173089000Y-68073000D01*
G75*
G02*
X173354000Y-67808000I265000J0D01*
G01*
X174626000Y-67808000D01*
G75*
G02*
X174891000Y-68073000I0J-265000D01*
G01*
G37*
%TD*%
D28*
%TO.C,J5*%
X114046000Y-66508000D03*
G36*
G01*
X113260000Y-63107000D02*
X114832000Y-63107000D01*
G75*
G02*
X115097000Y-63372000I0J-265000D01*
G01*
X115097000Y-64644000D01*
G75*
G02*
X114832000Y-64909000I-265000J0D01*
G01*
X113260000Y-64909000D01*
G75*
G02*
X112995000Y-64644000I0J265000D01*
G01*
X112995000Y-63372000D01*
G75*
G02*
X113260000Y-63107000I265000J0D01*
G01*
G37*
%TD*%
%TO.C,J4*%
X120650000Y-66508000D03*
G36*
G01*
X119864000Y-63107000D02*
X121436000Y-63107000D01*
G75*
G02*
X121701000Y-63372000I0J-265000D01*
G01*
X121701000Y-64644000D01*
G75*
G02*
X121436000Y-64909000I-265000J0D01*
G01*
X119864000Y-64909000D01*
G75*
G02*
X119599000Y-64644000I0J265000D01*
G01*
X119599000Y-63372000D01*
G75*
G02*
X119864000Y-63107000I265000J0D01*
G01*
G37*
%TD*%
D23*
%TO.C,MH1*%
X138514000Y-100150000D03*
%TD*%
D29*
%TO.C,U4*%
X145974000Y-84963000D03*
X145974000Y-86233000D03*
X145974000Y-87503000D03*
X145974000Y-88773000D03*
X145974000Y-90043000D03*
X145974000Y-91313000D03*
X145974000Y-92583000D03*
X145974000Y-93853000D03*
X145974000Y-95123000D03*
X145974000Y-96393000D03*
X136474000Y-96393000D03*
X136474000Y-95123000D03*
X136474000Y-93853000D03*
X136474000Y-92583000D03*
X136474000Y-84963000D03*
X136474000Y-86233000D03*
X136474000Y-87503000D03*
X136474000Y-88773000D03*
X136474000Y-90043000D03*
X136474000Y-91313000D03*
%TD*%
%TO.C,C1*%
G36*
G01*
X198383000Y-109401000D02*
X197857000Y-109401000D01*
G75*
G02*
X197594000Y-109138000I0J263000D01*
G01*
X197594000Y-108512000D01*
G75*
G02*
X197857000Y-108249000I263000J0D01*
G01*
X198383000Y-108249000D01*
G75*
G02*
X198646000Y-108512000I0J-263000D01*
G01*
X198646000Y-109138000D01*
G75*
G02*
X198383000Y-109401000I-263000J0D01*
G01*
G37*
G36*
G01*
X198383000Y-107651000D02*
X197857000Y-107651000D01*
G75*
G02*
X197594000Y-107388000I0J263000D01*
G01*
X197594000Y-106762000D01*
G75*
G02*
X197857000Y-106499000I263000J0D01*
G01*
X198383000Y-106499000D01*
G75*
G02*
X198646000Y-106762000I0J-263000D01*
G01*
X198646000Y-107388000D01*
G75*
G02*
X198383000Y-107651000I-263000J0D01*
G01*
G37*
%TD*%
%TO.C,C2*%
G36*
G01*
X191525000Y-91395000D02*
X190999000Y-91395000D01*
G75*
G02*
X190736000Y-91132000I0J263000D01*
G01*
X190736000Y-90506000D01*
G75*
G02*
X190999000Y-90243000I263000J0D01*
G01*
X191525000Y-90243000D01*
G75*
G02*
X191788000Y-90506000I0J-263000D01*
G01*
X191788000Y-91132000D01*
G75*
G02*
X191525000Y-91395000I-263000J0D01*
G01*
G37*
G36*
G01*
X191525000Y-93145000D02*
X190999000Y-93145000D01*
G75*
G02*
X190736000Y-92882000I0J263000D01*
G01*
X190736000Y-92256000D01*
G75*
G02*
X190999000Y-91993000I263000J0D01*
G01*
X191525000Y-91993000D01*
G75*
G02*
X191788000Y-92256000I0J-263000D01*
G01*
X191788000Y-92882000D01*
G75*
G02*
X191525000Y-93145000I-263000J0D01*
G01*
G37*
%TD*%
%TO.C,C3*%
G36*
G01*
X148599000Y-105337000D02*
X148073000Y-105337000D01*
G75*
G02*
X147810000Y-105074000I0J263000D01*
G01*
X147810000Y-104448000D01*
G75*
G02*
X148073000Y-104185000I263000J0D01*
G01*
X148599000Y-104185000D01*
G75*
G02*
X148862000Y-104448000I0J-263000D01*
G01*
X148862000Y-105074000D01*
G75*
G02*
X148599000Y-105337000I-263000J0D01*
G01*
G37*
G36*
G01*
X148599000Y-103587000D02*
X148073000Y-103587000D01*
G75*
G02*
X147810000Y-103324000I0J263000D01*
G01*
X147810000Y-102698000D01*
G75*
G02*
X148073000Y-102435000I263000J0D01*
G01*
X148599000Y-102435000D01*
G75*
G02*
X148862000Y-102698000I0J-263000D01*
G01*
X148862000Y-103324000D01*
G75*
G02*
X148599000Y-103587000I-263000J0D01*
G01*
G37*
%TD*%
%TO.C,C4*%
G36*
G01*
X148073000Y-85897000D02*
X148599000Y-85897000D01*
G75*
G02*
X148862000Y-86160000I0J-263000D01*
G01*
X148862000Y-86786000D01*
G75*
G02*
X148599000Y-87049000I-263000J0D01*
G01*
X148073000Y-87049000D01*
G75*
G02*
X147810000Y-86786000I0J263000D01*
G01*
X147810000Y-86160000D01*
G75*
G02*
X148073000Y-85897000I263000J0D01*
G01*
G37*
G36*
G01*
X148073000Y-84147000D02*
X148599000Y-84147000D01*
G75*
G02*
X148862000Y-84410000I0J-263000D01*
G01*
X148862000Y-85036000D01*
G75*
G02*
X148599000Y-85299000I-263000J0D01*
G01*
X148073000Y-85299000D01*
G75*
G02*
X147810000Y-85036000I0J263000D01*
G01*
X147810000Y-84410000D01*
G75*
G02*
X148073000Y-84147000I263000J0D01*
G01*
G37*
%TD*%
%TO.C,F1*%
G36*
G01*
X136171695Y-42884800D02*
X137487905Y-42884800D01*
G75*
G02*
X137755800Y-43152695I0J-267895D01*
G01*
X137755800Y-44143905D01*
G75*
G02*
X137487905Y-44411800I-267895J0D01*
G01*
X136171695Y-44411800D01*
G75*
G02*
X135903800Y-44143905I0J267895D01*
G01*
X135903800Y-43152695D01*
G75*
G02*
X136171695Y-42884800I267895J0D01*
G01*
G37*
G36*
G01*
X136171695Y-45859800D02*
X137487905Y-45859800D01*
G75*
G02*
X137755800Y-46127695I0J-267895D01*
G01*
X137755800Y-47118905D01*
G75*
G02*
X137487905Y-47386800I-267895J0D01*
G01*
X136171695Y-47386800D01*
G75*
G02*
X135903800Y-47118905I0J267895D01*
G01*
X135903800Y-46127695D01*
G75*
G02*
X136171695Y-45859800I267895J0D01*
G01*
G37*
%TD*%
%TO.C,FL1*%
G36*
G01*
X190244500Y-82807000D02*
X191295500Y-82807000D01*
G75*
G02*
X191421000Y-82932500I0J-125500D01*
G01*
X191421000Y-83183500D01*
G75*
G02*
X191295500Y-83309000I-125500J0D01*
G01*
X190244500Y-83309000D01*
G75*
G02*
X190119000Y-83183500I0J125500D01*
G01*
X190119000Y-82932500D01*
G75*
G02*
X190244500Y-82807000I125500J0D01*
G01*
G37*
G36*
G01*
X191432000Y-81007000D02*
X192108000Y-81007000D01*
G75*
G02*
X192446000Y-81345000I0J-338000D01*
G01*
X192446000Y-82071000D01*
G75*
G02*
X192108000Y-82409000I-338000J0D01*
G01*
X191432000Y-82409000D01*
G75*
G02*
X191094000Y-82071000I0J338000D01*
G01*
X191094000Y-81345000D01*
G75*
G02*
X191432000Y-81007000I338000J0D01*
G01*
G37*
G36*
G01*
X191432000Y-83707000D02*
X192108000Y-83707000D01*
G75*
G02*
X192446000Y-84045000I0J-338000D01*
G01*
X192446000Y-84771000D01*
G75*
G02*
X192108000Y-85109000I-338000J0D01*
G01*
X191432000Y-85109000D01*
G75*
G02*
X191094000Y-84771000I0J338000D01*
G01*
X191094000Y-84045000D01*
G75*
G02*
X191432000Y-83707000I338000J0D01*
G01*
G37*
G36*
G01*
X192244500Y-82807000D02*
X193295500Y-82807000D01*
G75*
G02*
X193421000Y-82932500I0J-125500D01*
G01*
X193421000Y-83183500D01*
G75*
G02*
X193295500Y-83309000I-125500J0D01*
G01*
X192244500Y-83309000D01*
G75*
G02*
X192119000Y-83183500I0J125500D01*
G01*
X192119000Y-82932500D01*
G75*
G02*
X192244500Y-82807000I125500J0D01*
G01*
G37*
%TD*%
%TO.C,FL2*%
G36*
G01*
X138858800Y-82567300D02*
X138858800Y-83618300D01*
G75*
G02*
X138733300Y-83743800I-125500J0D01*
G01*
X138482300Y-83743800D01*
G75*
G02*
X138356800Y-83618300I0J125500D01*
G01*
X138356800Y-82567300D01*
G75*
G02*
X138482300Y-82441800I125500J0D01*
G01*
X138733300Y-82441800D01*
G75*
G02*
X138858800Y-82567300I0J-125500D01*
G01*
G37*
G36*
G01*
X137958800Y-81754800D02*
X137958800Y-82430800D01*
G75*
G02*
X137620800Y-82768800I-338000J0D01*
G01*
X136894800Y-82768800D01*
G75*
G02*
X136556800Y-82430800I0J338000D01*
G01*
X136556800Y-81754800D01*
G75*
G02*
X136894800Y-81416800I338000J0D01*
G01*
X137620800Y-81416800D01*
G75*
G02*
X137958800Y-81754800I0J-338000D01*
G01*
G37*
G36*
G01*
X140658800Y-81754800D02*
X140658800Y-82430800D01*
G75*
G02*
X140320800Y-82768800I-338000J0D01*
G01*
X139594800Y-82768800D01*
G75*
G02*
X139256800Y-82430800I0J338000D01*
G01*
X139256800Y-81754800D01*
G75*
G02*
X139594800Y-81416800I338000J0D01*
G01*
X140320800Y-81416800D01*
G75*
G02*
X140658800Y-81754800I0J-338000D01*
G01*
G37*
G36*
G01*
X138858800Y-80567300D02*
X138858800Y-81618300D01*
G75*
G02*
X138733300Y-81743800I-125500J0D01*
G01*
X138482300Y-81743800D01*
G75*
G02*
X138356800Y-81618300I0J125500D01*
G01*
X138356800Y-80567300D01*
G75*
G02*
X138482300Y-80441800I125500J0D01*
G01*
X138733300Y-80441800D01*
G75*
G02*
X138858800Y-80567300I0J-125500D01*
G01*
G37*
%TD*%
D25*
%TO.C,J1*%
X191643000Y-78422500D03*
D24*
X191643000Y-75882500D03*
X189103000Y-78422500D03*
X189103000Y-75882500D03*
X186563000Y-78422500D03*
X186563000Y-75882500D03*
X184023000Y-78422500D03*
X184023000Y-75882500D03*
X181483000Y-78422500D03*
X181483000Y-75882500D03*
X178943000Y-78422500D03*
X178943000Y-75882500D03*
X176403000Y-78422500D03*
X176403000Y-75882500D03*
X173863000Y-78422500D03*
X173863000Y-75882500D03*
X171323000Y-78422500D03*
X171323000Y-75882500D03*
X168783000Y-78422500D03*
X168783000Y-75882500D03*
X166243000Y-78422500D03*
X166243000Y-75882500D03*
X163703000Y-78422500D03*
X163703000Y-75882500D03*
X161163000Y-78422500D03*
X161163000Y-75882500D03*
X158623000Y-78422500D03*
X158623000Y-75882500D03*
X156083000Y-78422500D03*
X156083000Y-75882500D03*
X153543000Y-78422500D03*
X153543000Y-75882500D03*
X151003000Y-78422500D03*
X151003000Y-75882500D03*
X148463000Y-78422500D03*
X148463000Y-75882500D03*
X145923000Y-78422500D03*
X145923000Y-75882500D03*
X143383000Y-78422500D03*
X143383000Y-75882500D03*
%TD*%
%TO.C,R1*%
G36*
G01*
X179739400Y-65662200D02*
X179213400Y-65662200D01*
G75*
G02*
X178950400Y-65399200I0J263000D01*
G01*
X178950400Y-64773200D01*
G75*
G02*
X179213400Y-64510200I263000J0D01*
G01*
X179739400Y-64510200D01*
G75*
G02*
X180002400Y-64773200I0J-263000D01*
G01*
X180002400Y-65399200D01*
G75*
G02*
X179739400Y-65662200I-263000J0D01*
G01*
G37*
G36*
G01*
X179739400Y-63912200D02*
X179213400Y-63912200D01*
G75*
G02*
X178950400Y-63649200I0J263000D01*
G01*
X178950400Y-63023200D01*
G75*
G02*
X179213400Y-62760200I263000J0D01*
G01*
X179739400Y-62760200D01*
G75*
G02*
X180002400Y-63023200I0J-263000D01*
G01*
X180002400Y-63649200D01*
G75*
G02*
X179739400Y-63912200I-263000J0D01*
G01*
G37*
%TD*%
D30*
%TO.C,RN1*%
X172468000Y-99346000D03*
X172468000Y-98546000D03*
X172468000Y-104146000D03*
X172468000Y-103346000D03*
X173988000Y-103346000D03*
X173988000Y-104146000D03*
X173988000Y-98546000D03*
X173988000Y-99346000D03*
X172468000Y-102546000D03*
X172468000Y-100146000D03*
X173988000Y-100146000D03*
X173988000Y-102546000D03*
X172468000Y-100946000D03*
X173988000Y-100946000D03*
X172468000Y-101746000D03*
X173988000Y-101746000D03*
%TD*%
%TO.C,RN2*%
X150243000Y-111029800D03*
X151763000Y-111029800D03*
X150243000Y-111829800D03*
X151763000Y-111829800D03*
X150243000Y-110229800D03*
X150243000Y-112629800D03*
X151763000Y-112629800D03*
X151763000Y-110229800D03*
X150243000Y-113429800D03*
X150243000Y-114229800D03*
X150243000Y-108629800D03*
X150243000Y-109429800D03*
X151763000Y-109429800D03*
X151763000Y-108629800D03*
X151763000Y-114229800D03*
X151763000Y-113429800D03*
%TD*%
%TO.C,RN3*%
X154176000Y-93440000D03*
X154176000Y-94240000D03*
X154176000Y-88640000D03*
X154176000Y-89440000D03*
X152656000Y-89440000D03*
X152656000Y-88640000D03*
X152656000Y-94240000D03*
X152656000Y-93440000D03*
X154176000Y-90240000D03*
X154176000Y-92640000D03*
X152656000Y-92640000D03*
X152656000Y-90240000D03*
X154176000Y-91840000D03*
X152656000Y-91840000D03*
X154176000Y-91040000D03*
X152656000Y-91040000D03*
%TD*%
%TO.C,RN4*%
X176528000Y-116478000D03*
X175008000Y-116478000D03*
X176528000Y-115678000D03*
X175008000Y-115678000D03*
X176528000Y-117278000D03*
X176528000Y-114878000D03*
X175008000Y-114878000D03*
X175008000Y-117278000D03*
X176528000Y-114078000D03*
X176528000Y-113278000D03*
X176528000Y-118878000D03*
X176528000Y-118078000D03*
X175008000Y-118078000D03*
X175008000Y-118878000D03*
X175008000Y-113278000D03*
X175008000Y-114078000D03*
%TD*%
D29*
%TO.C,U1*%
X188544000Y-117221000D03*
X188544000Y-115951000D03*
X188544000Y-114681000D03*
X188544000Y-113411000D03*
X188544000Y-112141000D03*
X188544000Y-110871000D03*
X188544000Y-118491000D03*
X188544000Y-119761000D03*
X188544000Y-121031000D03*
X188544000Y-122301000D03*
X198044000Y-122301000D03*
X198044000Y-121031000D03*
X198044000Y-119761000D03*
X198044000Y-118491000D03*
X198044000Y-117221000D03*
X198044000Y-115951000D03*
X198044000Y-114681000D03*
X198044000Y-113411000D03*
X198044000Y-112141000D03*
X198044000Y-110871000D03*
%TD*%
%TO.C,U2*%
X191186000Y-94361000D03*
X191186000Y-95631000D03*
X191186000Y-96901000D03*
X191186000Y-98171000D03*
X191186000Y-99441000D03*
X191186000Y-100711000D03*
X191186000Y-101981000D03*
X191186000Y-103251000D03*
X191186000Y-104521000D03*
X191186000Y-105791000D03*
X181686000Y-105791000D03*
X181686000Y-104521000D03*
X181686000Y-103251000D03*
X181686000Y-101981000D03*
X181686000Y-94361000D03*
X181686000Y-95631000D03*
X181686000Y-96901000D03*
X181686000Y-98171000D03*
X181686000Y-99441000D03*
X181686000Y-100711000D03*
%TD*%
%TO.C,U3*%
X136728000Y-111125000D03*
X136728000Y-109855000D03*
X136728000Y-108585000D03*
X136728000Y-107315000D03*
X136728000Y-106045000D03*
X136728000Y-104775000D03*
X136728000Y-112395000D03*
X136728000Y-113665000D03*
X136728000Y-114935000D03*
X136728000Y-116205000D03*
X146228000Y-116205000D03*
X146228000Y-114935000D03*
X146228000Y-113665000D03*
X146228000Y-112395000D03*
X146228000Y-111125000D03*
X146228000Y-109855000D03*
X146228000Y-108585000D03*
X146228000Y-107315000D03*
X146228000Y-106045000D03*
X146228000Y-104775000D03*
%TD*%
%TO.C,F2*%
G36*
G01*
X128768400Y-66067695D02*
X128768400Y-67383905D01*
G75*
G02*
X128500505Y-67651800I-267895J0D01*
G01*
X127509295Y-67651800D01*
G75*
G02*
X127241400Y-67383905I0J267895D01*
G01*
X127241400Y-66067695D01*
G75*
G02*
X127509295Y-65799800I267895J0D01*
G01*
X128500505Y-65799800D01*
G75*
G02*
X128768400Y-66067695I0J-267895D01*
G01*
G37*
G36*
G01*
X125793400Y-66067695D02*
X125793400Y-67383905D01*
G75*
G02*
X125525505Y-67651800I-267895J0D01*
G01*
X124534295Y-67651800D01*
G75*
G02*
X124266400Y-67383905I0J267895D01*
G01*
X124266400Y-66067695D01*
G75*
G02*
X124534295Y-65799800I267895J0D01*
G01*
X125525505Y-65799800D01*
G75*
G02*
X125793400Y-66067695I0J-267895D01*
G01*
G37*
%TD*%
D31*
%TO.C,J3*%
X124318000Y-132234000D03*
X123668000Y-132234000D03*
X126268000Y-132234000D03*
X125618000Y-132234000D03*
X124968000Y-132234000D03*
D32*
X128068000Y-133159000D03*
X121868000Y-133159000D03*
D33*
X120168000Y-135509000D03*
X129768000Y-135509000D03*
%TD*%
%TO.C,C5*%
G36*
G01*
X152905705Y-105400400D02*
X151589495Y-105400400D01*
G75*
G02*
X151321600Y-105132505I0J267895D01*
G01*
X151321600Y-104141295D01*
G75*
G02*
X151589495Y-103873400I267895J0D01*
G01*
X152905705Y-103873400D01*
G75*
G02*
X153173600Y-104141295I0J-267895D01*
G01*
X153173600Y-105132505D01*
G75*
G02*
X152905705Y-105400400I-267895J0D01*
G01*
G37*
G36*
G01*
X152905705Y-102425400D02*
X151589495Y-102425400D01*
G75*
G02*
X151321600Y-102157505I0J267895D01*
G01*
X151321600Y-101166295D01*
G75*
G02*
X151589495Y-100898400I267895J0D01*
G01*
X152905705Y-100898400D01*
G75*
G02*
X153173600Y-101166295I0J-267895D01*
G01*
X153173600Y-102157505D01*
G75*
G02*
X152905705Y-102425400I-267895J0D01*
G01*
G37*
%TD*%
M02*
