G04 #@! TF.GenerationSoftware,KiCad,Pcbnew,(5.1.4-0-10_14)*
G04 #@! TF.CreationDate,2020-05-16T17:54:32+09:00*
G04 #@! TF.ProjectId,scsiemu,73637369-656d-4752-9e6b-696361645f70,rev?*
G04 #@! TF.SameCoordinates,Original*
G04 #@! TF.FileFunction,Paste,Bot*
G04 #@! TF.FilePolarity,Positive*
%FSLAX46Y46*%
G04 Gerber Fmt 4.6, Leading zero omitted, Abs format (unit mm)*
G04 Created by KiCad (PCBNEW (5.1.4-0-10_14)) date 2020-05-16 17:54:32*
%MOMM*%
%LPD*%
G04 APERTURE LIST*
%ADD10R,0.600000X1.500000*%
%ADD11C,0.100000*%
%ADD12C,0.950000*%
%ADD13C,1.200000*%
%ADD14C,1.425000*%
%ADD15C,0.400000*%
%ADD16C,1.250000*%
%ADD17R,1.500000X0.600000*%
G04 APERTURE END LIST*
D10*
X113474500Y-91364000D03*
X114744500Y-91364000D03*
X116014500Y-91364000D03*
X117284500Y-91364000D03*
X118554500Y-91364000D03*
X119824500Y-91364000D03*
X121094500Y-91364000D03*
X122364500Y-91364000D03*
X123634500Y-91364000D03*
X124904500Y-91364000D03*
X124904500Y-81864000D03*
X123634500Y-81864000D03*
X122364500Y-81864000D03*
X121094500Y-81864000D03*
X113474500Y-81864000D03*
X114744500Y-81864000D03*
X116014500Y-81864000D03*
X117284500Y-81864000D03*
X118554500Y-81864000D03*
X119824500Y-81864000D03*
D11*
G36*
X154883779Y-81187144D02*
G01*
X154906834Y-81190563D01*
X154929443Y-81196227D01*
X154951387Y-81204079D01*
X154972457Y-81214044D01*
X154992448Y-81226026D01*
X155011168Y-81239910D01*
X155028438Y-81255562D01*
X155044090Y-81272832D01*
X155057974Y-81291552D01*
X155069956Y-81311543D01*
X155079921Y-81332613D01*
X155087773Y-81354557D01*
X155093437Y-81377166D01*
X155096856Y-81400221D01*
X155098000Y-81423500D01*
X155098000Y-81898500D01*
X155096856Y-81921779D01*
X155093437Y-81944834D01*
X155087773Y-81967443D01*
X155079921Y-81989387D01*
X155069956Y-82010457D01*
X155057974Y-82030448D01*
X155044090Y-82049168D01*
X155028438Y-82066438D01*
X155011168Y-82082090D01*
X154992448Y-82095974D01*
X154972457Y-82107956D01*
X154951387Y-82117921D01*
X154929443Y-82125773D01*
X154906834Y-82131437D01*
X154883779Y-82134856D01*
X154860500Y-82136000D01*
X154285500Y-82136000D01*
X154262221Y-82134856D01*
X154239166Y-82131437D01*
X154216557Y-82125773D01*
X154194613Y-82117921D01*
X154173543Y-82107956D01*
X154153552Y-82095974D01*
X154134832Y-82082090D01*
X154117562Y-82066438D01*
X154101910Y-82049168D01*
X154088026Y-82030448D01*
X154076044Y-82010457D01*
X154066079Y-81989387D01*
X154058227Y-81967443D01*
X154052563Y-81944834D01*
X154049144Y-81921779D01*
X154048000Y-81898500D01*
X154048000Y-81423500D01*
X154049144Y-81400221D01*
X154052563Y-81377166D01*
X154058227Y-81354557D01*
X154066079Y-81332613D01*
X154076044Y-81311543D01*
X154088026Y-81291552D01*
X154101910Y-81272832D01*
X154117562Y-81255562D01*
X154134832Y-81239910D01*
X154153552Y-81226026D01*
X154173543Y-81214044D01*
X154194613Y-81204079D01*
X154216557Y-81196227D01*
X154239166Y-81190563D01*
X154262221Y-81187144D01*
X154285500Y-81186000D01*
X154860500Y-81186000D01*
X154883779Y-81187144D01*
X154883779Y-81187144D01*
G37*
D12*
X154573000Y-81661000D03*
D11*
G36*
X156633779Y-81187144D02*
G01*
X156656834Y-81190563D01*
X156679443Y-81196227D01*
X156701387Y-81204079D01*
X156722457Y-81214044D01*
X156742448Y-81226026D01*
X156761168Y-81239910D01*
X156778438Y-81255562D01*
X156794090Y-81272832D01*
X156807974Y-81291552D01*
X156819956Y-81311543D01*
X156829921Y-81332613D01*
X156837773Y-81354557D01*
X156843437Y-81377166D01*
X156846856Y-81400221D01*
X156848000Y-81423500D01*
X156848000Y-81898500D01*
X156846856Y-81921779D01*
X156843437Y-81944834D01*
X156837773Y-81967443D01*
X156829921Y-81989387D01*
X156819956Y-82010457D01*
X156807974Y-82030448D01*
X156794090Y-82049168D01*
X156778438Y-82066438D01*
X156761168Y-82082090D01*
X156742448Y-82095974D01*
X156722457Y-82107956D01*
X156701387Y-82117921D01*
X156679443Y-82125773D01*
X156656834Y-82131437D01*
X156633779Y-82134856D01*
X156610500Y-82136000D01*
X156035500Y-82136000D01*
X156012221Y-82134856D01*
X155989166Y-82131437D01*
X155966557Y-82125773D01*
X155944613Y-82117921D01*
X155923543Y-82107956D01*
X155903552Y-82095974D01*
X155884832Y-82082090D01*
X155867562Y-82066438D01*
X155851910Y-82049168D01*
X155838026Y-82030448D01*
X155826044Y-82010457D01*
X155816079Y-81989387D01*
X155808227Y-81967443D01*
X155802563Y-81944834D01*
X155799144Y-81921779D01*
X155798000Y-81898500D01*
X155798000Y-81423500D01*
X155799144Y-81400221D01*
X155802563Y-81377166D01*
X155808227Y-81354557D01*
X155816079Y-81332613D01*
X155826044Y-81311543D01*
X155838026Y-81291552D01*
X155851910Y-81272832D01*
X155867562Y-81255562D01*
X155884832Y-81239910D01*
X155903552Y-81226026D01*
X155923543Y-81214044D01*
X155944613Y-81204079D01*
X155966557Y-81196227D01*
X155989166Y-81190563D01*
X156012221Y-81187144D01*
X156035500Y-81186000D01*
X156610500Y-81186000D01*
X156633779Y-81187144D01*
X156633779Y-81187144D01*
G37*
D12*
X156323000Y-81661000D03*
D11*
G36*
X115005279Y-94168644D02*
G01*
X115028334Y-94172063D01*
X115050943Y-94177727D01*
X115072887Y-94185579D01*
X115093957Y-94195544D01*
X115113948Y-94207526D01*
X115132668Y-94221410D01*
X115149938Y-94237062D01*
X115165590Y-94254332D01*
X115179474Y-94273052D01*
X115191456Y-94293043D01*
X115201421Y-94314113D01*
X115209273Y-94336057D01*
X115214937Y-94358666D01*
X115218356Y-94381721D01*
X115219500Y-94405000D01*
X115219500Y-94980000D01*
X115218356Y-95003279D01*
X115214937Y-95026334D01*
X115209273Y-95048943D01*
X115201421Y-95070887D01*
X115191456Y-95091957D01*
X115179474Y-95111948D01*
X115165590Y-95130668D01*
X115149938Y-95147938D01*
X115132668Y-95163590D01*
X115113948Y-95177474D01*
X115093957Y-95189456D01*
X115072887Y-95199421D01*
X115050943Y-95207273D01*
X115028334Y-95212937D01*
X115005279Y-95216356D01*
X114982000Y-95217500D01*
X114507000Y-95217500D01*
X114483721Y-95216356D01*
X114460666Y-95212937D01*
X114438057Y-95207273D01*
X114416113Y-95199421D01*
X114395043Y-95189456D01*
X114375052Y-95177474D01*
X114356332Y-95163590D01*
X114339062Y-95147938D01*
X114323410Y-95130668D01*
X114309526Y-95111948D01*
X114297544Y-95091957D01*
X114287579Y-95070887D01*
X114279727Y-95048943D01*
X114274063Y-95026334D01*
X114270644Y-95003279D01*
X114269500Y-94980000D01*
X114269500Y-94405000D01*
X114270644Y-94381721D01*
X114274063Y-94358666D01*
X114279727Y-94336057D01*
X114287579Y-94314113D01*
X114297544Y-94293043D01*
X114309526Y-94273052D01*
X114323410Y-94254332D01*
X114339062Y-94237062D01*
X114356332Y-94221410D01*
X114375052Y-94207526D01*
X114395043Y-94195544D01*
X114416113Y-94185579D01*
X114438057Y-94177727D01*
X114460666Y-94172063D01*
X114483721Y-94168644D01*
X114507000Y-94167500D01*
X114982000Y-94167500D01*
X115005279Y-94168644D01*
X115005279Y-94168644D01*
G37*
D12*
X114744500Y-94692500D03*
D11*
G36*
X115005279Y-95918644D02*
G01*
X115028334Y-95922063D01*
X115050943Y-95927727D01*
X115072887Y-95935579D01*
X115093957Y-95945544D01*
X115113948Y-95957526D01*
X115132668Y-95971410D01*
X115149938Y-95987062D01*
X115165590Y-96004332D01*
X115179474Y-96023052D01*
X115191456Y-96043043D01*
X115201421Y-96064113D01*
X115209273Y-96086057D01*
X115214937Y-96108666D01*
X115218356Y-96131721D01*
X115219500Y-96155000D01*
X115219500Y-96730000D01*
X115218356Y-96753279D01*
X115214937Y-96776334D01*
X115209273Y-96798943D01*
X115201421Y-96820887D01*
X115191456Y-96841957D01*
X115179474Y-96861948D01*
X115165590Y-96880668D01*
X115149938Y-96897938D01*
X115132668Y-96913590D01*
X115113948Y-96927474D01*
X115093957Y-96939456D01*
X115072887Y-96949421D01*
X115050943Y-96957273D01*
X115028334Y-96962937D01*
X115005279Y-96966356D01*
X114982000Y-96967500D01*
X114507000Y-96967500D01*
X114483721Y-96966356D01*
X114460666Y-96962937D01*
X114438057Y-96957273D01*
X114416113Y-96949421D01*
X114395043Y-96939456D01*
X114375052Y-96927474D01*
X114356332Y-96913590D01*
X114339062Y-96897938D01*
X114323410Y-96880668D01*
X114309526Y-96861948D01*
X114297544Y-96841957D01*
X114287579Y-96820887D01*
X114279727Y-96798943D01*
X114274063Y-96776334D01*
X114270644Y-96753279D01*
X114269500Y-96730000D01*
X114269500Y-96155000D01*
X114270644Y-96131721D01*
X114274063Y-96108666D01*
X114279727Y-96086057D01*
X114287579Y-96064113D01*
X114297544Y-96043043D01*
X114309526Y-96023052D01*
X114323410Y-96004332D01*
X114339062Y-95987062D01*
X114356332Y-95971410D01*
X114375052Y-95957526D01*
X114395043Y-95945544D01*
X114416113Y-95935579D01*
X114438057Y-95927727D01*
X114460666Y-95922063D01*
X114483721Y-95918644D01*
X114507000Y-95917500D01*
X114982000Y-95917500D01*
X115005279Y-95918644D01*
X115005279Y-95918644D01*
G37*
D12*
X114744500Y-96442500D03*
D11*
G36*
X158602279Y-85568644D02*
G01*
X158625334Y-85572063D01*
X158647943Y-85577727D01*
X158669887Y-85585579D01*
X158690957Y-85595544D01*
X158710948Y-85607526D01*
X158729668Y-85621410D01*
X158746938Y-85637062D01*
X158762590Y-85654332D01*
X158776474Y-85673052D01*
X158788456Y-85693043D01*
X158798421Y-85714113D01*
X158806273Y-85736057D01*
X158811937Y-85758666D01*
X158815356Y-85781721D01*
X158816500Y-85805000D01*
X158816500Y-86280000D01*
X158815356Y-86303279D01*
X158811937Y-86326334D01*
X158806273Y-86348943D01*
X158798421Y-86370887D01*
X158788456Y-86391957D01*
X158776474Y-86411948D01*
X158762590Y-86430668D01*
X158746938Y-86447938D01*
X158729668Y-86463590D01*
X158710948Y-86477474D01*
X158690957Y-86489456D01*
X158669887Y-86499421D01*
X158647943Y-86507273D01*
X158625334Y-86512937D01*
X158602279Y-86516356D01*
X158579000Y-86517500D01*
X158004000Y-86517500D01*
X157980721Y-86516356D01*
X157957666Y-86512937D01*
X157935057Y-86507273D01*
X157913113Y-86499421D01*
X157892043Y-86489456D01*
X157872052Y-86477474D01*
X157853332Y-86463590D01*
X157836062Y-86447938D01*
X157820410Y-86430668D01*
X157806526Y-86411948D01*
X157794544Y-86391957D01*
X157784579Y-86370887D01*
X157776727Y-86348943D01*
X157771063Y-86326334D01*
X157767644Y-86303279D01*
X157766500Y-86280000D01*
X157766500Y-85805000D01*
X157767644Y-85781721D01*
X157771063Y-85758666D01*
X157776727Y-85736057D01*
X157784579Y-85714113D01*
X157794544Y-85693043D01*
X157806526Y-85673052D01*
X157820410Y-85654332D01*
X157836062Y-85637062D01*
X157853332Y-85621410D01*
X157872052Y-85607526D01*
X157892043Y-85595544D01*
X157913113Y-85585579D01*
X157935057Y-85577727D01*
X157957666Y-85572063D01*
X157980721Y-85568644D01*
X158004000Y-85567500D01*
X158579000Y-85567500D01*
X158602279Y-85568644D01*
X158602279Y-85568644D01*
G37*
D12*
X158291500Y-86042500D03*
D11*
G36*
X156852279Y-85568644D02*
G01*
X156875334Y-85572063D01*
X156897943Y-85577727D01*
X156919887Y-85585579D01*
X156940957Y-85595544D01*
X156960948Y-85607526D01*
X156979668Y-85621410D01*
X156996938Y-85637062D01*
X157012590Y-85654332D01*
X157026474Y-85673052D01*
X157038456Y-85693043D01*
X157048421Y-85714113D01*
X157056273Y-85736057D01*
X157061937Y-85758666D01*
X157065356Y-85781721D01*
X157066500Y-85805000D01*
X157066500Y-86280000D01*
X157065356Y-86303279D01*
X157061937Y-86326334D01*
X157056273Y-86348943D01*
X157048421Y-86370887D01*
X157038456Y-86391957D01*
X157026474Y-86411948D01*
X157012590Y-86430668D01*
X156996938Y-86447938D01*
X156979668Y-86463590D01*
X156960948Y-86477474D01*
X156940957Y-86489456D01*
X156919887Y-86499421D01*
X156897943Y-86507273D01*
X156875334Y-86512937D01*
X156852279Y-86516356D01*
X156829000Y-86517500D01*
X156254000Y-86517500D01*
X156230721Y-86516356D01*
X156207666Y-86512937D01*
X156185057Y-86507273D01*
X156163113Y-86499421D01*
X156142043Y-86489456D01*
X156122052Y-86477474D01*
X156103332Y-86463590D01*
X156086062Y-86447938D01*
X156070410Y-86430668D01*
X156056526Y-86411948D01*
X156044544Y-86391957D01*
X156034579Y-86370887D01*
X156026727Y-86348943D01*
X156021063Y-86326334D01*
X156017644Y-86303279D01*
X156016500Y-86280000D01*
X156016500Y-85805000D01*
X156017644Y-85781721D01*
X156021063Y-85758666D01*
X156026727Y-85736057D01*
X156034579Y-85714113D01*
X156044544Y-85693043D01*
X156056526Y-85673052D01*
X156070410Y-85654332D01*
X156086062Y-85637062D01*
X156103332Y-85621410D01*
X156122052Y-85607526D01*
X156142043Y-85595544D01*
X156163113Y-85585579D01*
X156185057Y-85577727D01*
X156207666Y-85572063D01*
X156230721Y-85568644D01*
X156254000Y-85567500D01*
X156829000Y-85567500D01*
X156852279Y-85568644D01*
X156852279Y-85568644D01*
G37*
D12*
X156541500Y-86042500D03*
D11*
G36*
X113190905Y-70013445D02*
G01*
X113220027Y-70017764D01*
X113248585Y-70024918D01*
X113276305Y-70034836D01*
X113302919Y-70047424D01*
X113328171Y-70062559D01*
X113351818Y-70080097D01*
X113373632Y-70099868D01*
X113393403Y-70121682D01*
X113410941Y-70145329D01*
X113426076Y-70170581D01*
X113438664Y-70197195D01*
X113448582Y-70224915D01*
X113455736Y-70253473D01*
X113460055Y-70282595D01*
X113461500Y-70312000D01*
X113461500Y-70912000D01*
X113460055Y-70941405D01*
X113455736Y-70970527D01*
X113448582Y-70999085D01*
X113438664Y-71026805D01*
X113426076Y-71053419D01*
X113410941Y-71078671D01*
X113393403Y-71102318D01*
X113373632Y-71124132D01*
X113351818Y-71143903D01*
X113328171Y-71161441D01*
X113302919Y-71176576D01*
X113276305Y-71189164D01*
X113248585Y-71199082D01*
X113220027Y-71206236D01*
X113190905Y-71210555D01*
X113161500Y-71212000D01*
X112261500Y-71212000D01*
X112232095Y-71210555D01*
X112202973Y-71206236D01*
X112174415Y-71199082D01*
X112146695Y-71189164D01*
X112120081Y-71176576D01*
X112094829Y-71161441D01*
X112071182Y-71143903D01*
X112049368Y-71124132D01*
X112029597Y-71102318D01*
X112012059Y-71078671D01*
X111996924Y-71053419D01*
X111984336Y-71026805D01*
X111974418Y-70999085D01*
X111967264Y-70970527D01*
X111962945Y-70941405D01*
X111961500Y-70912000D01*
X111961500Y-70312000D01*
X111962945Y-70282595D01*
X111967264Y-70253473D01*
X111974418Y-70224915D01*
X111984336Y-70197195D01*
X111996924Y-70170581D01*
X112012059Y-70145329D01*
X112029597Y-70121682D01*
X112049368Y-70099868D01*
X112071182Y-70080097D01*
X112094829Y-70062559D01*
X112120081Y-70047424D01*
X112146695Y-70034836D01*
X112174415Y-70024918D01*
X112202973Y-70017764D01*
X112232095Y-70013445D01*
X112261500Y-70012000D01*
X113161500Y-70012000D01*
X113190905Y-70013445D01*
X113190905Y-70013445D01*
G37*
D13*
X112711500Y-70612000D03*
D11*
G36*
X109890905Y-70013445D02*
G01*
X109920027Y-70017764D01*
X109948585Y-70024918D01*
X109976305Y-70034836D01*
X110002919Y-70047424D01*
X110028171Y-70062559D01*
X110051818Y-70080097D01*
X110073632Y-70099868D01*
X110093403Y-70121682D01*
X110110941Y-70145329D01*
X110126076Y-70170581D01*
X110138664Y-70197195D01*
X110148582Y-70224915D01*
X110155736Y-70253473D01*
X110160055Y-70282595D01*
X110161500Y-70312000D01*
X110161500Y-70912000D01*
X110160055Y-70941405D01*
X110155736Y-70970527D01*
X110148582Y-70999085D01*
X110138664Y-71026805D01*
X110126076Y-71053419D01*
X110110941Y-71078671D01*
X110093403Y-71102318D01*
X110073632Y-71124132D01*
X110051818Y-71143903D01*
X110028171Y-71161441D01*
X110002919Y-71176576D01*
X109976305Y-71189164D01*
X109948585Y-71199082D01*
X109920027Y-71206236D01*
X109890905Y-71210555D01*
X109861500Y-71212000D01*
X108961500Y-71212000D01*
X108932095Y-71210555D01*
X108902973Y-71206236D01*
X108874415Y-71199082D01*
X108846695Y-71189164D01*
X108820081Y-71176576D01*
X108794829Y-71161441D01*
X108771182Y-71143903D01*
X108749368Y-71124132D01*
X108729597Y-71102318D01*
X108712059Y-71078671D01*
X108696924Y-71053419D01*
X108684336Y-71026805D01*
X108674418Y-70999085D01*
X108667264Y-70970527D01*
X108662945Y-70941405D01*
X108661500Y-70912000D01*
X108661500Y-70312000D01*
X108662945Y-70282595D01*
X108667264Y-70253473D01*
X108674418Y-70224915D01*
X108684336Y-70197195D01*
X108696924Y-70170581D01*
X108712059Y-70145329D01*
X108729597Y-70121682D01*
X108749368Y-70099868D01*
X108771182Y-70080097D01*
X108794829Y-70062559D01*
X108820081Y-70047424D01*
X108846695Y-70034836D01*
X108874415Y-70024918D01*
X108902973Y-70017764D01*
X108932095Y-70013445D01*
X108961500Y-70012000D01*
X109861500Y-70012000D01*
X109890905Y-70013445D01*
X109890905Y-70013445D01*
G37*
D13*
X109411500Y-70612000D03*
D11*
G36*
X118174504Y-69674704D02*
G01*
X118198773Y-69678304D01*
X118222571Y-69684265D01*
X118245671Y-69692530D01*
X118267849Y-69703020D01*
X118288893Y-69715633D01*
X118308598Y-69730247D01*
X118326777Y-69746723D01*
X118343253Y-69764902D01*
X118357867Y-69784607D01*
X118370480Y-69805651D01*
X118380970Y-69827829D01*
X118389235Y-69850929D01*
X118395196Y-69874727D01*
X118398796Y-69898996D01*
X118400000Y-69923500D01*
X118400000Y-71173500D01*
X118398796Y-71198004D01*
X118395196Y-71222273D01*
X118389235Y-71246071D01*
X118380970Y-71269171D01*
X118370480Y-71291349D01*
X118357867Y-71312393D01*
X118343253Y-71332098D01*
X118326777Y-71350277D01*
X118308598Y-71366753D01*
X118288893Y-71381367D01*
X118267849Y-71393980D01*
X118245671Y-71404470D01*
X118222571Y-71412735D01*
X118198773Y-71418696D01*
X118174504Y-71422296D01*
X118150000Y-71423500D01*
X117225000Y-71423500D01*
X117200496Y-71422296D01*
X117176227Y-71418696D01*
X117152429Y-71412735D01*
X117129329Y-71404470D01*
X117107151Y-71393980D01*
X117086107Y-71381367D01*
X117066402Y-71366753D01*
X117048223Y-71350277D01*
X117031747Y-71332098D01*
X117017133Y-71312393D01*
X117004520Y-71291349D01*
X116994030Y-71269171D01*
X116985765Y-71246071D01*
X116979804Y-71222273D01*
X116976204Y-71198004D01*
X116975000Y-71173500D01*
X116975000Y-69923500D01*
X116976204Y-69898996D01*
X116979804Y-69874727D01*
X116985765Y-69850929D01*
X116994030Y-69827829D01*
X117004520Y-69805651D01*
X117017133Y-69784607D01*
X117031747Y-69764902D01*
X117048223Y-69746723D01*
X117066402Y-69730247D01*
X117086107Y-69715633D01*
X117107151Y-69703020D01*
X117129329Y-69692530D01*
X117152429Y-69684265D01*
X117176227Y-69678304D01*
X117200496Y-69674704D01*
X117225000Y-69673500D01*
X118150000Y-69673500D01*
X118174504Y-69674704D01*
X118174504Y-69674704D01*
G37*
D14*
X117687500Y-70548500D03*
D11*
G36*
X115199504Y-69674704D02*
G01*
X115223773Y-69678304D01*
X115247571Y-69684265D01*
X115270671Y-69692530D01*
X115292849Y-69703020D01*
X115313893Y-69715633D01*
X115333598Y-69730247D01*
X115351777Y-69746723D01*
X115368253Y-69764902D01*
X115382867Y-69784607D01*
X115395480Y-69805651D01*
X115405970Y-69827829D01*
X115414235Y-69850929D01*
X115420196Y-69874727D01*
X115423796Y-69898996D01*
X115425000Y-69923500D01*
X115425000Y-71173500D01*
X115423796Y-71198004D01*
X115420196Y-71222273D01*
X115414235Y-71246071D01*
X115405970Y-71269171D01*
X115395480Y-71291349D01*
X115382867Y-71312393D01*
X115368253Y-71332098D01*
X115351777Y-71350277D01*
X115333598Y-71366753D01*
X115313893Y-71381367D01*
X115292849Y-71393980D01*
X115270671Y-71404470D01*
X115247571Y-71412735D01*
X115223773Y-71418696D01*
X115199504Y-71422296D01*
X115175000Y-71423500D01*
X114250000Y-71423500D01*
X114225496Y-71422296D01*
X114201227Y-71418696D01*
X114177429Y-71412735D01*
X114154329Y-71404470D01*
X114132151Y-71393980D01*
X114111107Y-71381367D01*
X114091402Y-71366753D01*
X114073223Y-71350277D01*
X114056747Y-71332098D01*
X114042133Y-71312393D01*
X114029520Y-71291349D01*
X114019030Y-71269171D01*
X114010765Y-71246071D01*
X114004804Y-71222273D01*
X114001204Y-71198004D01*
X114000000Y-71173500D01*
X114000000Y-69923500D01*
X114001204Y-69898996D01*
X114004804Y-69874727D01*
X114010765Y-69850929D01*
X114019030Y-69827829D01*
X114029520Y-69805651D01*
X114042133Y-69784607D01*
X114056747Y-69764902D01*
X114073223Y-69746723D01*
X114091402Y-69730247D01*
X114111107Y-69715633D01*
X114132151Y-69703020D01*
X114154329Y-69692530D01*
X114177429Y-69684265D01*
X114201227Y-69678304D01*
X114225496Y-69674704D01*
X114250000Y-69673500D01*
X115175000Y-69673500D01*
X115199504Y-69674704D01*
X115199504Y-69674704D01*
G37*
D14*
X114712500Y-70548500D03*
D11*
G36*
X114927402Y-99825682D02*
G01*
X114937109Y-99827121D01*
X114946628Y-99829506D01*
X114955868Y-99832812D01*
X114964740Y-99837008D01*
X114973157Y-99842053D01*
X114981039Y-99847899D01*
X114988311Y-99854489D01*
X114994901Y-99861761D01*
X115000747Y-99869643D01*
X115005792Y-99878060D01*
X115009988Y-99886932D01*
X115013294Y-99896172D01*
X115015679Y-99905691D01*
X115017118Y-99915398D01*
X115017600Y-99925200D01*
X115017600Y-100125200D01*
X115017118Y-100135002D01*
X115015679Y-100144709D01*
X115013294Y-100154228D01*
X115009988Y-100163468D01*
X115005792Y-100172340D01*
X115000747Y-100180757D01*
X114994901Y-100188639D01*
X114988311Y-100195911D01*
X114981039Y-100202501D01*
X114973157Y-100208347D01*
X114964740Y-100213392D01*
X114955868Y-100217588D01*
X114946628Y-100220894D01*
X114937109Y-100223279D01*
X114927402Y-100224718D01*
X114917600Y-100225200D01*
X113917600Y-100225200D01*
X113907798Y-100224718D01*
X113898091Y-100223279D01*
X113888572Y-100220894D01*
X113879332Y-100217588D01*
X113870460Y-100213392D01*
X113862043Y-100208347D01*
X113854161Y-100202501D01*
X113846889Y-100195911D01*
X113840299Y-100188639D01*
X113834453Y-100180757D01*
X113829408Y-100172340D01*
X113825212Y-100163468D01*
X113821906Y-100154228D01*
X113819521Y-100144709D01*
X113818082Y-100135002D01*
X113817600Y-100125200D01*
X113817600Y-99925200D01*
X113818082Y-99915398D01*
X113819521Y-99905691D01*
X113821906Y-99896172D01*
X113825212Y-99886932D01*
X113829408Y-99878060D01*
X113834453Y-99869643D01*
X113840299Y-99861761D01*
X113846889Y-99854489D01*
X113854161Y-99847899D01*
X113862043Y-99842053D01*
X113870460Y-99837008D01*
X113879332Y-99832812D01*
X113888572Y-99829506D01*
X113898091Y-99827121D01*
X113907798Y-99825682D01*
X113917600Y-99825200D01*
X114917600Y-99825200D01*
X114927402Y-99825682D01*
X114927402Y-99825682D01*
G37*
D15*
X114417600Y-100025200D03*
D11*
G36*
X115760730Y-100726705D02*
G01*
X115791066Y-100731205D01*
X115820814Y-100738656D01*
X115849689Y-100748988D01*
X115877411Y-100762100D01*
X115903716Y-100777866D01*
X115928348Y-100796134D01*
X115951071Y-100816729D01*
X115971666Y-100839452D01*
X115989934Y-100864084D01*
X116005700Y-100890389D01*
X116018812Y-100918111D01*
X116029144Y-100946986D01*
X116036595Y-100976734D01*
X116041095Y-101007070D01*
X116042600Y-101037700D01*
X116042600Y-101712700D01*
X116041095Y-101743330D01*
X116036595Y-101773666D01*
X116029144Y-101803414D01*
X116018812Y-101832289D01*
X116005700Y-101860011D01*
X115989934Y-101886316D01*
X115971666Y-101910948D01*
X115951071Y-101933671D01*
X115928348Y-101954266D01*
X115903716Y-101972534D01*
X115877411Y-101988300D01*
X115849689Y-102001412D01*
X115820814Y-102011744D01*
X115791066Y-102019195D01*
X115760730Y-102023695D01*
X115730100Y-102025200D01*
X115105100Y-102025200D01*
X115074470Y-102023695D01*
X115044134Y-102019195D01*
X115014386Y-102011744D01*
X114985511Y-102001412D01*
X114957789Y-101988300D01*
X114931484Y-101972534D01*
X114906852Y-101954266D01*
X114884129Y-101933671D01*
X114863534Y-101910948D01*
X114845266Y-101886316D01*
X114829500Y-101860011D01*
X114816388Y-101832289D01*
X114806056Y-101803414D01*
X114798605Y-101773666D01*
X114794105Y-101743330D01*
X114792600Y-101712700D01*
X114792600Y-101037700D01*
X114794105Y-101007070D01*
X114798605Y-100976734D01*
X114806056Y-100946986D01*
X114816388Y-100918111D01*
X114829500Y-100890389D01*
X114845266Y-100864084D01*
X114863534Y-100839452D01*
X114884129Y-100816729D01*
X114906852Y-100796134D01*
X114931484Y-100777866D01*
X114957789Y-100762100D01*
X114985511Y-100748988D01*
X115014386Y-100738656D01*
X115044134Y-100731205D01*
X115074470Y-100726705D01*
X115105100Y-100725200D01*
X115730100Y-100725200D01*
X115760730Y-100726705D01*
X115760730Y-100726705D01*
G37*
D16*
X115417600Y-101375200D03*
D11*
G36*
X115760730Y-98026705D02*
G01*
X115791066Y-98031205D01*
X115820814Y-98038656D01*
X115849689Y-98048988D01*
X115877411Y-98062100D01*
X115903716Y-98077866D01*
X115928348Y-98096134D01*
X115951071Y-98116729D01*
X115971666Y-98139452D01*
X115989934Y-98164084D01*
X116005700Y-98190389D01*
X116018812Y-98218111D01*
X116029144Y-98246986D01*
X116036595Y-98276734D01*
X116041095Y-98307070D01*
X116042600Y-98337700D01*
X116042600Y-99012700D01*
X116041095Y-99043330D01*
X116036595Y-99073666D01*
X116029144Y-99103414D01*
X116018812Y-99132289D01*
X116005700Y-99160011D01*
X115989934Y-99186316D01*
X115971666Y-99210948D01*
X115951071Y-99233671D01*
X115928348Y-99254266D01*
X115903716Y-99272534D01*
X115877411Y-99288300D01*
X115849689Y-99301412D01*
X115820814Y-99311744D01*
X115791066Y-99319195D01*
X115760730Y-99323695D01*
X115730100Y-99325200D01*
X115105100Y-99325200D01*
X115074470Y-99323695D01*
X115044134Y-99319195D01*
X115014386Y-99311744D01*
X114985511Y-99301412D01*
X114957789Y-99288300D01*
X114931484Y-99272534D01*
X114906852Y-99254266D01*
X114884129Y-99233671D01*
X114863534Y-99210948D01*
X114845266Y-99186316D01*
X114829500Y-99160011D01*
X114816388Y-99132289D01*
X114806056Y-99103414D01*
X114798605Y-99073666D01*
X114794105Y-99043330D01*
X114792600Y-99012700D01*
X114792600Y-98337700D01*
X114794105Y-98307070D01*
X114798605Y-98276734D01*
X114806056Y-98246986D01*
X114816388Y-98218111D01*
X114829500Y-98190389D01*
X114845266Y-98164084D01*
X114863534Y-98139452D01*
X114884129Y-98116729D01*
X114906852Y-98096134D01*
X114931484Y-98077866D01*
X114957789Y-98062100D01*
X114985511Y-98048988D01*
X115014386Y-98038656D01*
X115044134Y-98031205D01*
X115074470Y-98026705D01*
X115105100Y-98025200D01*
X115730100Y-98025200D01*
X115760730Y-98026705D01*
X115760730Y-98026705D01*
G37*
D16*
X115417600Y-98675200D03*
D11*
G36*
X116927402Y-99825682D02*
G01*
X116937109Y-99827121D01*
X116946628Y-99829506D01*
X116955868Y-99832812D01*
X116964740Y-99837008D01*
X116973157Y-99842053D01*
X116981039Y-99847899D01*
X116988311Y-99854489D01*
X116994901Y-99861761D01*
X117000747Y-99869643D01*
X117005792Y-99878060D01*
X117009988Y-99886932D01*
X117013294Y-99896172D01*
X117015679Y-99905691D01*
X117017118Y-99915398D01*
X117017600Y-99925200D01*
X117017600Y-100125200D01*
X117017118Y-100135002D01*
X117015679Y-100144709D01*
X117013294Y-100154228D01*
X117009988Y-100163468D01*
X117005792Y-100172340D01*
X117000747Y-100180757D01*
X116994901Y-100188639D01*
X116988311Y-100195911D01*
X116981039Y-100202501D01*
X116973157Y-100208347D01*
X116964740Y-100213392D01*
X116955868Y-100217588D01*
X116946628Y-100220894D01*
X116937109Y-100223279D01*
X116927402Y-100224718D01*
X116917600Y-100225200D01*
X115917600Y-100225200D01*
X115907798Y-100224718D01*
X115898091Y-100223279D01*
X115888572Y-100220894D01*
X115879332Y-100217588D01*
X115870460Y-100213392D01*
X115862043Y-100208347D01*
X115854161Y-100202501D01*
X115846889Y-100195911D01*
X115840299Y-100188639D01*
X115834453Y-100180757D01*
X115829408Y-100172340D01*
X115825212Y-100163468D01*
X115821906Y-100154228D01*
X115819521Y-100144709D01*
X115818082Y-100135002D01*
X115817600Y-100125200D01*
X115817600Y-99925200D01*
X115818082Y-99915398D01*
X115819521Y-99905691D01*
X115821906Y-99896172D01*
X115825212Y-99886932D01*
X115829408Y-99878060D01*
X115834453Y-99869643D01*
X115840299Y-99861761D01*
X115846889Y-99854489D01*
X115854161Y-99847899D01*
X115862043Y-99842053D01*
X115870460Y-99837008D01*
X115879332Y-99832812D01*
X115888572Y-99829506D01*
X115898091Y-99827121D01*
X115907798Y-99825682D01*
X115917600Y-99825200D01*
X116917600Y-99825200D01*
X116927402Y-99825682D01*
X116927402Y-99825682D01*
G37*
D15*
X116417600Y-100025200D03*
D11*
G36*
X110063302Y-86223982D02*
G01*
X110073009Y-86225421D01*
X110082528Y-86227806D01*
X110091768Y-86231112D01*
X110100640Y-86235308D01*
X110109057Y-86240353D01*
X110116939Y-86246199D01*
X110124211Y-86252789D01*
X110130801Y-86260061D01*
X110136647Y-86267943D01*
X110141692Y-86276360D01*
X110145888Y-86285232D01*
X110149194Y-86294472D01*
X110151579Y-86303991D01*
X110153018Y-86313698D01*
X110153500Y-86323500D01*
X110153500Y-86523500D01*
X110153018Y-86533302D01*
X110151579Y-86543009D01*
X110149194Y-86552528D01*
X110145888Y-86561768D01*
X110141692Y-86570640D01*
X110136647Y-86579057D01*
X110130801Y-86586939D01*
X110124211Y-86594211D01*
X110116939Y-86600801D01*
X110109057Y-86606647D01*
X110100640Y-86611692D01*
X110091768Y-86615888D01*
X110082528Y-86619194D01*
X110073009Y-86621579D01*
X110063302Y-86623018D01*
X110053500Y-86623500D01*
X109053500Y-86623500D01*
X109043698Y-86623018D01*
X109033991Y-86621579D01*
X109024472Y-86619194D01*
X109015232Y-86615888D01*
X109006360Y-86611692D01*
X108997943Y-86606647D01*
X108990061Y-86600801D01*
X108982789Y-86594211D01*
X108976199Y-86586939D01*
X108970353Y-86579057D01*
X108965308Y-86570640D01*
X108961112Y-86561768D01*
X108957806Y-86552528D01*
X108955421Y-86543009D01*
X108953982Y-86533302D01*
X108953500Y-86523500D01*
X108953500Y-86323500D01*
X108953982Y-86313698D01*
X108955421Y-86303991D01*
X108957806Y-86294472D01*
X108961112Y-86285232D01*
X108965308Y-86276360D01*
X108970353Y-86267943D01*
X108976199Y-86260061D01*
X108982789Y-86252789D01*
X108990061Y-86246199D01*
X108997943Y-86240353D01*
X109006360Y-86235308D01*
X109015232Y-86231112D01*
X109024472Y-86227806D01*
X109033991Y-86225421D01*
X109043698Y-86223982D01*
X109053500Y-86223500D01*
X110053500Y-86223500D01*
X110063302Y-86223982D01*
X110063302Y-86223982D01*
G37*
D15*
X109553500Y-86423500D03*
D11*
G36*
X110896630Y-87125005D02*
G01*
X110926966Y-87129505D01*
X110956714Y-87136956D01*
X110985589Y-87147288D01*
X111013311Y-87160400D01*
X111039616Y-87176166D01*
X111064248Y-87194434D01*
X111086971Y-87215029D01*
X111107566Y-87237752D01*
X111125834Y-87262384D01*
X111141600Y-87288689D01*
X111154712Y-87316411D01*
X111165044Y-87345286D01*
X111172495Y-87375034D01*
X111176995Y-87405370D01*
X111178500Y-87436000D01*
X111178500Y-88111000D01*
X111176995Y-88141630D01*
X111172495Y-88171966D01*
X111165044Y-88201714D01*
X111154712Y-88230589D01*
X111141600Y-88258311D01*
X111125834Y-88284616D01*
X111107566Y-88309248D01*
X111086971Y-88331971D01*
X111064248Y-88352566D01*
X111039616Y-88370834D01*
X111013311Y-88386600D01*
X110985589Y-88399712D01*
X110956714Y-88410044D01*
X110926966Y-88417495D01*
X110896630Y-88421995D01*
X110866000Y-88423500D01*
X110241000Y-88423500D01*
X110210370Y-88421995D01*
X110180034Y-88417495D01*
X110150286Y-88410044D01*
X110121411Y-88399712D01*
X110093689Y-88386600D01*
X110067384Y-88370834D01*
X110042752Y-88352566D01*
X110020029Y-88331971D01*
X109999434Y-88309248D01*
X109981166Y-88284616D01*
X109965400Y-88258311D01*
X109952288Y-88230589D01*
X109941956Y-88201714D01*
X109934505Y-88171966D01*
X109930005Y-88141630D01*
X109928500Y-88111000D01*
X109928500Y-87436000D01*
X109930005Y-87405370D01*
X109934505Y-87375034D01*
X109941956Y-87345286D01*
X109952288Y-87316411D01*
X109965400Y-87288689D01*
X109981166Y-87262384D01*
X109999434Y-87237752D01*
X110020029Y-87215029D01*
X110042752Y-87194434D01*
X110067384Y-87176166D01*
X110093689Y-87160400D01*
X110121411Y-87147288D01*
X110150286Y-87136956D01*
X110180034Y-87129505D01*
X110210370Y-87125005D01*
X110241000Y-87123500D01*
X110866000Y-87123500D01*
X110896630Y-87125005D01*
X110896630Y-87125005D01*
G37*
D16*
X110553500Y-87773500D03*
D11*
G36*
X110896630Y-84425005D02*
G01*
X110926966Y-84429505D01*
X110956714Y-84436956D01*
X110985589Y-84447288D01*
X111013311Y-84460400D01*
X111039616Y-84476166D01*
X111064248Y-84494434D01*
X111086971Y-84515029D01*
X111107566Y-84537752D01*
X111125834Y-84562384D01*
X111141600Y-84588689D01*
X111154712Y-84616411D01*
X111165044Y-84645286D01*
X111172495Y-84675034D01*
X111176995Y-84705370D01*
X111178500Y-84736000D01*
X111178500Y-85411000D01*
X111176995Y-85441630D01*
X111172495Y-85471966D01*
X111165044Y-85501714D01*
X111154712Y-85530589D01*
X111141600Y-85558311D01*
X111125834Y-85584616D01*
X111107566Y-85609248D01*
X111086971Y-85631971D01*
X111064248Y-85652566D01*
X111039616Y-85670834D01*
X111013311Y-85686600D01*
X110985589Y-85699712D01*
X110956714Y-85710044D01*
X110926966Y-85717495D01*
X110896630Y-85721995D01*
X110866000Y-85723500D01*
X110241000Y-85723500D01*
X110210370Y-85721995D01*
X110180034Y-85717495D01*
X110150286Y-85710044D01*
X110121411Y-85699712D01*
X110093689Y-85686600D01*
X110067384Y-85670834D01*
X110042752Y-85652566D01*
X110020029Y-85631971D01*
X109999434Y-85609248D01*
X109981166Y-85584616D01*
X109965400Y-85558311D01*
X109952288Y-85530589D01*
X109941956Y-85501714D01*
X109934505Y-85471966D01*
X109930005Y-85441630D01*
X109928500Y-85411000D01*
X109928500Y-84736000D01*
X109930005Y-84705370D01*
X109934505Y-84675034D01*
X109941956Y-84645286D01*
X109952288Y-84616411D01*
X109965400Y-84588689D01*
X109981166Y-84562384D01*
X109999434Y-84537752D01*
X110020029Y-84515029D01*
X110042752Y-84494434D01*
X110067384Y-84476166D01*
X110093689Y-84460400D01*
X110121411Y-84447288D01*
X110150286Y-84436956D01*
X110180034Y-84429505D01*
X110210370Y-84425005D01*
X110241000Y-84423500D01*
X110866000Y-84423500D01*
X110896630Y-84425005D01*
X110896630Y-84425005D01*
G37*
D16*
X110553500Y-85073500D03*
D11*
G36*
X112063302Y-86223982D02*
G01*
X112073009Y-86225421D01*
X112082528Y-86227806D01*
X112091768Y-86231112D01*
X112100640Y-86235308D01*
X112109057Y-86240353D01*
X112116939Y-86246199D01*
X112124211Y-86252789D01*
X112130801Y-86260061D01*
X112136647Y-86267943D01*
X112141692Y-86276360D01*
X112145888Y-86285232D01*
X112149194Y-86294472D01*
X112151579Y-86303991D01*
X112153018Y-86313698D01*
X112153500Y-86323500D01*
X112153500Y-86523500D01*
X112153018Y-86533302D01*
X112151579Y-86543009D01*
X112149194Y-86552528D01*
X112145888Y-86561768D01*
X112141692Y-86570640D01*
X112136647Y-86579057D01*
X112130801Y-86586939D01*
X112124211Y-86594211D01*
X112116939Y-86600801D01*
X112109057Y-86606647D01*
X112100640Y-86611692D01*
X112091768Y-86615888D01*
X112082528Y-86619194D01*
X112073009Y-86621579D01*
X112063302Y-86623018D01*
X112053500Y-86623500D01*
X111053500Y-86623500D01*
X111043698Y-86623018D01*
X111033991Y-86621579D01*
X111024472Y-86619194D01*
X111015232Y-86615888D01*
X111006360Y-86611692D01*
X110997943Y-86606647D01*
X110990061Y-86600801D01*
X110982789Y-86594211D01*
X110976199Y-86586939D01*
X110970353Y-86579057D01*
X110965308Y-86570640D01*
X110961112Y-86561768D01*
X110957806Y-86552528D01*
X110955421Y-86543009D01*
X110953982Y-86533302D01*
X110953500Y-86523500D01*
X110953500Y-86323500D01*
X110953982Y-86313698D01*
X110955421Y-86303991D01*
X110957806Y-86294472D01*
X110961112Y-86285232D01*
X110965308Y-86276360D01*
X110970353Y-86267943D01*
X110976199Y-86260061D01*
X110982789Y-86252789D01*
X110990061Y-86246199D01*
X110997943Y-86240353D01*
X111006360Y-86235308D01*
X111015232Y-86231112D01*
X111024472Y-86227806D01*
X111033991Y-86225421D01*
X111043698Y-86223982D01*
X111053500Y-86223500D01*
X112053500Y-86223500D01*
X112063302Y-86223982D01*
X112063302Y-86223982D01*
G37*
D15*
X111553500Y-86423500D03*
D11*
G36*
X107030179Y-99983144D02*
G01*
X107053234Y-99986563D01*
X107075843Y-99992227D01*
X107097787Y-100000079D01*
X107118857Y-100010044D01*
X107138848Y-100022026D01*
X107157568Y-100035910D01*
X107174838Y-100051562D01*
X107190490Y-100068832D01*
X107204374Y-100087552D01*
X107216356Y-100107543D01*
X107226321Y-100128613D01*
X107234173Y-100150557D01*
X107239837Y-100173166D01*
X107243256Y-100196221D01*
X107244400Y-100219500D01*
X107244400Y-100694500D01*
X107243256Y-100717779D01*
X107239837Y-100740834D01*
X107234173Y-100763443D01*
X107226321Y-100785387D01*
X107216356Y-100806457D01*
X107204374Y-100826448D01*
X107190490Y-100845168D01*
X107174838Y-100862438D01*
X107157568Y-100878090D01*
X107138848Y-100891974D01*
X107118857Y-100903956D01*
X107097787Y-100913921D01*
X107075843Y-100921773D01*
X107053234Y-100927437D01*
X107030179Y-100930856D01*
X107006900Y-100932000D01*
X106431900Y-100932000D01*
X106408621Y-100930856D01*
X106385566Y-100927437D01*
X106362957Y-100921773D01*
X106341013Y-100913921D01*
X106319943Y-100903956D01*
X106299952Y-100891974D01*
X106281232Y-100878090D01*
X106263962Y-100862438D01*
X106248310Y-100845168D01*
X106234426Y-100826448D01*
X106222444Y-100806457D01*
X106212479Y-100785387D01*
X106204627Y-100763443D01*
X106198963Y-100740834D01*
X106195544Y-100717779D01*
X106194400Y-100694500D01*
X106194400Y-100219500D01*
X106195544Y-100196221D01*
X106198963Y-100173166D01*
X106204627Y-100150557D01*
X106212479Y-100128613D01*
X106222444Y-100107543D01*
X106234426Y-100087552D01*
X106248310Y-100068832D01*
X106263962Y-100051562D01*
X106281232Y-100035910D01*
X106299952Y-100022026D01*
X106319943Y-100010044D01*
X106341013Y-100000079D01*
X106362957Y-99992227D01*
X106385566Y-99986563D01*
X106408621Y-99983144D01*
X106431900Y-99982000D01*
X107006900Y-99982000D01*
X107030179Y-99983144D01*
X107030179Y-99983144D01*
G37*
D12*
X106719400Y-100457000D03*
D11*
G36*
X108780179Y-99983144D02*
G01*
X108803234Y-99986563D01*
X108825843Y-99992227D01*
X108847787Y-100000079D01*
X108868857Y-100010044D01*
X108888848Y-100022026D01*
X108907568Y-100035910D01*
X108924838Y-100051562D01*
X108940490Y-100068832D01*
X108954374Y-100087552D01*
X108966356Y-100107543D01*
X108976321Y-100128613D01*
X108984173Y-100150557D01*
X108989837Y-100173166D01*
X108993256Y-100196221D01*
X108994400Y-100219500D01*
X108994400Y-100694500D01*
X108993256Y-100717779D01*
X108989837Y-100740834D01*
X108984173Y-100763443D01*
X108976321Y-100785387D01*
X108966356Y-100806457D01*
X108954374Y-100826448D01*
X108940490Y-100845168D01*
X108924838Y-100862438D01*
X108907568Y-100878090D01*
X108888848Y-100891974D01*
X108868857Y-100903956D01*
X108847787Y-100913921D01*
X108825843Y-100921773D01*
X108803234Y-100927437D01*
X108780179Y-100930856D01*
X108756900Y-100932000D01*
X108181900Y-100932000D01*
X108158621Y-100930856D01*
X108135566Y-100927437D01*
X108112957Y-100921773D01*
X108091013Y-100913921D01*
X108069943Y-100903956D01*
X108049952Y-100891974D01*
X108031232Y-100878090D01*
X108013962Y-100862438D01*
X107998310Y-100845168D01*
X107984426Y-100826448D01*
X107972444Y-100806457D01*
X107962479Y-100785387D01*
X107954627Y-100763443D01*
X107948963Y-100740834D01*
X107945544Y-100717779D01*
X107944400Y-100694500D01*
X107944400Y-100219500D01*
X107945544Y-100196221D01*
X107948963Y-100173166D01*
X107954627Y-100150557D01*
X107962479Y-100128613D01*
X107972444Y-100107543D01*
X107984426Y-100087552D01*
X107998310Y-100068832D01*
X108013962Y-100051562D01*
X108031232Y-100035910D01*
X108049952Y-100022026D01*
X108069943Y-100010044D01*
X108091013Y-100000079D01*
X108112957Y-99992227D01*
X108135566Y-99986563D01*
X108158621Y-99983144D01*
X108181900Y-99982000D01*
X108756900Y-99982000D01*
X108780179Y-99983144D01*
X108780179Y-99983144D01*
G37*
D12*
X108469400Y-100457000D03*
D10*
X146113500Y-91364000D03*
X147383500Y-91364000D03*
X148653500Y-91364000D03*
X149923500Y-91364000D03*
X151193500Y-91364000D03*
X152463500Y-91364000D03*
X144843500Y-91364000D03*
X143573500Y-91364000D03*
X142303500Y-91364000D03*
X141033500Y-91364000D03*
X141033500Y-81864000D03*
X142303500Y-81864000D03*
X143573500Y-81864000D03*
X144843500Y-81864000D03*
X146113500Y-81864000D03*
X147383500Y-81864000D03*
X148653500Y-81864000D03*
X149923500Y-81864000D03*
X151193500Y-81864000D03*
X152463500Y-81864000D03*
X138874500Y-81864000D03*
X137604500Y-81864000D03*
X136334500Y-81864000D03*
X135064500Y-81864000D03*
X133794500Y-81864000D03*
X132524500Y-81864000D03*
X131254500Y-81864000D03*
X129984500Y-81864000D03*
X128714500Y-81864000D03*
X127444500Y-81864000D03*
X127444500Y-91364000D03*
X128714500Y-91364000D03*
X129984500Y-91364000D03*
X131254500Y-91364000D03*
X138874500Y-91364000D03*
X137604500Y-91364000D03*
X136334500Y-91364000D03*
X135064500Y-91364000D03*
X133794500Y-91364000D03*
X132524500Y-91364000D03*
D17*
X165468500Y-94615000D03*
X165468500Y-93345000D03*
X165468500Y-92075000D03*
X165468500Y-90805000D03*
X165468500Y-89535000D03*
X165468500Y-88265000D03*
X165468500Y-95885000D03*
X165468500Y-97155000D03*
X165468500Y-98425000D03*
X165468500Y-99695000D03*
X155968500Y-99695000D03*
X155968500Y-98425000D03*
X155968500Y-97155000D03*
X155968500Y-95885000D03*
X155968500Y-94615000D03*
X155968500Y-93345000D03*
X155968500Y-92075000D03*
X155968500Y-90805000D03*
X155968500Y-89535000D03*
X155968500Y-88265000D03*
D11*
G36*
X112972504Y-95900204D02*
G01*
X112996773Y-95903804D01*
X113020571Y-95909765D01*
X113043671Y-95918030D01*
X113065849Y-95928520D01*
X113086893Y-95941133D01*
X113106598Y-95955747D01*
X113124777Y-95972223D01*
X113141253Y-95990402D01*
X113155867Y-96010107D01*
X113168480Y-96031151D01*
X113178970Y-96053329D01*
X113187235Y-96076429D01*
X113193196Y-96100227D01*
X113196796Y-96124496D01*
X113198000Y-96149000D01*
X113198000Y-97399000D01*
X113196796Y-97423504D01*
X113193196Y-97447773D01*
X113187235Y-97471571D01*
X113178970Y-97494671D01*
X113168480Y-97516849D01*
X113155867Y-97537893D01*
X113141253Y-97557598D01*
X113124777Y-97575777D01*
X113106598Y-97592253D01*
X113086893Y-97606867D01*
X113065849Y-97619480D01*
X113043671Y-97629970D01*
X113020571Y-97638235D01*
X112996773Y-97644196D01*
X112972504Y-97647796D01*
X112948000Y-97649000D01*
X112023000Y-97649000D01*
X111998496Y-97647796D01*
X111974227Y-97644196D01*
X111950429Y-97638235D01*
X111927329Y-97629970D01*
X111905151Y-97619480D01*
X111884107Y-97606867D01*
X111864402Y-97592253D01*
X111846223Y-97575777D01*
X111829747Y-97557598D01*
X111815133Y-97537893D01*
X111802520Y-97516849D01*
X111792030Y-97494671D01*
X111783765Y-97471571D01*
X111777804Y-97447773D01*
X111774204Y-97423504D01*
X111773000Y-97399000D01*
X111773000Y-96149000D01*
X111774204Y-96124496D01*
X111777804Y-96100227D01*
X111783765Y-96076429D01*
X111792030Y-96053329D01*
X111802520Y-96031151D01*
X111815133Y-96010107D01*
X111829747Y-95990402D01*
X111846223Y-95972223D01*
X111864402Y-95955747D01*
X111884107Y-95941133D01*
X111905151Y-95928520D01*
X111927329Y-95918030D01*
X111950429Y-95909765D01*
X111974227Y-95903804D01*
X111998496Y-95900204D01*
X112023000Y-95899000D01*
X112948000Y-95899000D01*
X112972504Y-95900204D01*
X112972504Y-95900204D01*
G37*
D14*
X112485500Y-96774000D03*
D11*
G36*
X109997504Y-95900204D02*
G01*
X110021773Y-95903804D01*
X110045571Y-95909765D01*
X110068671Y-95918030D01*
X110090849Y-95928520D01*
X110111893Y-95941133D01*
X110131598Y-95955747D01*
X110149777Y-95972223D01*
X110166253Y-95990402D01*
X110180867Y-96010107D01*
X110193480Y-96031151D01*
X110203970Y-96053329D01*
X110212235Y-96076429D01*
X110218196Y-96100227D01*
X110221796Y-96124496D01*
X110223000Y-96149000D01*
X110223000Y-97399000D01*
X110221796Y-97423504D01*
X110218196Y-97447773D01*
X110212235Y-97471571D01*
X110203970Y-97494671D01*
X110193480Y-97516849D01*
X110180867Y-97537893D01*
X110166253Y-97557598D01*
X110149777Y-97575777D01*
X110131598Y-97592253D01*
X110111893Y-97606867D01*
X110090849Y-97619480D01*
X110068671Y-97629970D01*
X110045571Y-97638235D01*
X110021773Y-97644196D01*
X109997504Y-97647796D01*
X109973000Y-97649000D01*
X109048000Y-97649000D01*
X109023496Y-97647796D01*
X108999227Y-97644196D01*
X108975429Y-97638235D01*
X108952329Y-97629970D01*
X108930151Y-97619480D01*
X108909107Y-97606867D01*
X108889402Y-97592253D01*
X108871223Y-97575777D01*
X108854747Y-97557598D01*
X108840133Y-97537893D01*
X108827520Y-97516849D01*
X108817030Y-97494671D01*
X108808765Y-97471571D01*
X108802804Y-97447773D01*
X108799204Y-97423504D01*
X108798000Y-97399000D01*
X108798000Y-96149000D01*
X108799204Y-96124496D01*
X108802804Y-96100227D01*
X108808765Y-96076429D01*
X108817030Y-96053329D01*
X108827520Y-96031151D01*
X108840133Y-96010107D01*
X108854747Y-95990402D01*
X108871223Y-95972223D01*
X108889402Y-95955747D01*
X108909107Y-95941133D01*
X108930151Y-95928520D01*
X108952329Y-95918030D01*
X108975429Y-95909765D01*
X108999227Y-95903804D01*
X109023496Y-95900204D01*
X109048000Y-95899000D01*
X109973000Y-95899000D01*
X109997504Y-95900204D01*
X109997504Y-95900204D01*
G37*
D14*
X109510500Y-96774000D03*
D11*
G36*
X111711004Y-82500704D02*
G01*
X111735273Y-82504304D01*
X111759071Y-82510265D01*
X111782171Y-82518530D01*
X111804349Y-82529020D01*
X111825393Y-82541633D01*
X111845098Y-82556247D01*
X111863277Y-82572723D01*
X111879753Y-82590902D01*
X111894367Y-82610607D01*
X111906980Y-82631651D01*
X111917470Y-82653829D01*
X111925735Y-82676929D01*
X111931696Y-82700727D01*
X111935296Y-82724996D01*
X111936500Y-82749500D01*
X111936500Y-83674500D01*
X111935296Y-83699004D01*
X111931696Y-83723273D01*
X111925735Y-83747071D01*
X111917470Y-83770171D01*
X111906980Y-83792349D01*
X111894367Y-83813393D01*
X111879753Y-83833098D01*
X111863277Y-83851277D01*
X111845098Y-83867753D01*
X111825393Y-83882367D01*
X111804349Y-83894980D01*
X111782171Y-83905470D01*
X111759071Y-83913735D01*
X111735273Y-83919696D01*
X111711004Y-83923296D01*
X111686500Y-83924500D01*
X110436500Y-83924500D01*
X110411996Y-83923296D01*
X110387727Y-83919696D01*
X110363929Y-83913735D01*
X110340829Y-83905470D01*
X110318651Y-83894980D01*
X110297607Y-83882367D01*
X110277902Y-83867753D01*
X110259723Y-83851277D01*
X110243247Y-83833098D01*
X110228633Y-83813393D01*
X110216020Y-83792349D01*
X110205530Y-83770171D01*
X110197265Y-83747071D01*
X110191304Y-83723273D01*
X110187704Y-83699004D01*
X110186500Y-83674500D01*
X110186500Y-82749500D01*
X110187704Y-82724996D01*
X110191304Y-82700727D01*
X110197265Y-82676929D01*
X110205530Y-82653829D01*
X110216020Y-82631651D01*
X110228633Y-82610607D01*
X110243247Y-82590902D01*
X110259723Y-82572723D01*
X110277902Y-82556247D01*
X110297607Y-82541633D01*
X110318651Y-82529020D01*
X110340829Y-82518530D01*
X110363929Y-82510265D01*
X110387727Y-82504304D01*
X110411996Y-82500704D01*
X110436500Y-82499500D01*
X111686500Y-82499500D01*
X111711004Y-82500704D01*
X111711004Y-82500704D01*
G37*
D14*
X111061500Y-83212000D03*
D11*
G36*
X111711004Y-79525704D02*
G01*
X111735273Y-79529304D01*
X111759071Y-79535265D01*
X111782171Y-79543530D01*
X111804349Y-79554020D01*
X111825393Y-79566633D01*
X111845098Y-79581247D01*
X111863277Y-79597723D01*
X111879753Y-79615902D01*
X111894367Y-79635607D01*
X111906980Y-79656651D01*
X111917470Y-79678829D01*
X111925735Y-79701929D01*
X111931696Y-79725727D01*
X111935296Y-79749996D01*
X111936500Y-79774500D01*
X111936500Y-80699500D01*
X111935296Y-80724004D01*
X111931696Y-80748273D01*
X111925735Y-80772071D01*
X111917470Y-80795171D01*
X111906980Y-80817349D01*
X111894367Y-80838393D01*
X111879753Y-80858098D01*
X111863277Y-80876277D01*
X111845098Y-80892753D01*
X111825393Y-80907367D01*
X111804349Y-80919980D01*
X111782171Y-80930470D01*
X111759071Y-80938735D01*
X111735273Y-80944696D01*
X111711004Y-80948296D01*
X111686500Y-80949500D01*
X110436500Y-80949500D01*
X110411996Y-80948296D01*
X110387727Y-80944696D01*
X110363929Y-80938735D01*
X110340829Y-80930470D01*
X110318651Y-80919980D01*
X110297607Y-80907367D01*
X110277902Y-80892753D01*
X110259723Y-80876277D01*
X110243247Y-80858098D01*
X110228633Y-80838393D01*
X110216020Y-80817349D01*
X110205530Y-80795171D01*
X110197265Y-80772071D01*
X110191304Y-80748273D01*
X110187704Y-80724004D01*
X110186500Y-80699500D01*
X110186500Y-79774500D01*
X110187704Y-79749996D01*
X110191304Y-79725727D01*
X110197265Y-79701929D01*
X110205530Y-79678829D01*
X110216020Y-79656651D01*
X110228633Y-79635607D01*
X110243247Y-79615902D01*
X110259723Y-79597723D01*
X110277902Y-79581247D01*
X110297607Y-79566633D01*
X110318651Y-79554020D01*
X110340829Y-79543530D01*
X110363929Y-79535265D01*
X110387727Y-79529304D01*
X110411996Y-79525704D01*
X110436500Y-79524500D01*
X111686500Y-79524500D01*
X111711004Y-79525704D01*
X111711004Y-79525704D01*
G37*
D14*
X111061500Y-80237000D03*
M02*
