%TF.GenerationSoftware,KiCad,Pcbnew,(5.1.6-0-10_14)*%
%TF.CreationDate,2020-09-12T17:56:08+09:00*%
%TF.ProjectId,scsiemu,73637369-656d-4752-9e6b-696361645f70,rev?*%
%TF.SameCoordinates,Original*%
%TF.FileFunction,Legend,Bot*%
%TF.FilePolarity,Positive*%
%FSLAX46Y46*%
G04 Gerber Fmt 4.6, Leading zero omitted, Abs format (unit mm)*
G04 Created by KiCad (PCBNEW (5.1.6-0-10_14)) date 2020-09-12 17:56:08*
%MOMM*%
%LPD*%
G01*
G04 APERTURE LIST*
%ADD10C,0.200000*%
%ADD11C,0.120000*%
%ADD12C,0.150000*%
%ADD13C,0.900000*%
%ADD14C,3.602000*%
%ADD15C,2.902000*%
%ADD16C,2.642000*%
%ADD17C,4.102000*%
%ADD18C,2.302000*%
%ADD19O,1.802000X1.802000*%
%ADD20R,1.802000X1.802000*%
%ADD21C,1.802000*%
%ADD22O,1.802000X2.052000*%
%ADD23O,2.102000X1.802000*%
G04 APERTURE END LIST*
D10*
X198325238Y-135072380D02*
X198325238Y-134072380D01*
X197896666Y-135072380D02*
X197896666Y-134548571D01*
X197944285Y-134453333D01*
X198039523Y-134405714D01*
X198182380Y-134405714D01*
X198277619Y-134453333D01*
X198325238Y-134500952D01*
X197563333Y-134405714D02*
X197182380Y-134405714D01*
X197420476Y-134072380D02*
X197420476Y-134929523D01*
X197372857Y-135024761D01*
X197277619Y-135072380D01*
X197182380Y-135072380D01*
X196991904Y-134405714D02*
X196610952Y-134405714D01*
X196849047Y-134072380D02*
X196849047Y-134929523D01*
X196801428Y-135024761D01*
X196706190Y-135072380D01*
X196610952Y-135072380D01*
X196277619Y-134405714D02*
X196277619Y-135405714D01*
X196277619Y-134453333D02*
X196182380Y-134405714D01*
X195991904Y-134405714D01*
X195896666Y-134453333D01*
X195849047Y-134500952D01*
X195801428Y-134596190D01*
X195801428Y-134881904D01*
X195849047Y-134977142D01*
X195896666Y-135024761D01*
X195991904Y-135072380D01*
X196182380Y-135072380D01*
X196277619Y-135024761D01*
X195420476Y-135024761D02*
X195325238Y-135072380D01*
X195134761Y-135072380D01*
X195039523Y-135024761D01*
X194991904Y-134929523D01*
X194991904Y-134881904D01*
X195039523Y-134786666D01*
X195134761Y-134739047D01*
X195277619Y-134739047D01*
X195372857Y-134691428D01*
X195420476Y-134596190D01*
X195420476Y-134548571D01*
X195372857Y-134453333D01*
X195277619Y-134405714D01*
X195134761Y-134405714D01*
X195039523Y-134453333D01*
X194563333Y-134977142D02*
X194515714Y-135024761D01*
X194563333Y-135072380D01*
X194610952Y-135024761D01*
X194563333Y-134977142D01*
X194563333Y-135072380D01*
X194563333Y-134453333D02*
X194515714Y-134500952D01*
X194563333Y-134548571D01*
X194610952Y-134500952D01*
X194563333Y-134453333D01*
X194563333Y-134548571D01*
X193372857Y-134024761D02*
X194230000Y-135310476D01*
X192325238Y-134024761D02*
X193182380Y-135310476D01*
X191563333Y-134405714D02*
X191563333Y-135215238D01*
X191610952Y-135310476D01*
X191658571Y-135358095D01*
X191753809Y-135405714D01*
X191896666Y-135405714D01*
X191991904Y-135358095D01*
X191563333Y-135024761D02*
X191658571Y-135072380D01*
X191849047Y-135072380D01*
X191944285Y-135024761D01*
X191991904Y-134977142D01*
X192039523Y-134881904D01*
X192039523Y-134596190D01*
X191991904Y-134500952D01*
X191944285Y-134453333D01*
X191849047Y-134405714D01*
X191658571Y-134405714D01*
X191563333Y-134453333D01*
X191087142Y-135072380D02*
X191087142Y-134405714D01*
X191087142Y-134072380D02*
X191134761Y-134120000D01*
X191087142Y-134167619D01*
X191039523Y-134120000D01*
X191087142Y-134072380D01*
X191087142Y-134167619D01*
X190753809Y-134405714D02*
X190372857Y-134405714D01*
X190610952Y-134072380D02*
X190610952Y-134929523D01*
X190563333Y-135024761D01*
X190468095Y-135072380D01*
X190372857Y-135072380D01*
X190039523Y-135072380D02*
X190039523Y-134072380D01*
X189610952Y-135072380D02*
X189610952Y-134548571D01*
X189658571Y-134453333D01*
X189753809Y-134405714D01*
X189896666Y-134405714D01*
X189991904Y-134453333D01*
X190039523Y-134500952D01*
X188706190Y-134405714D02*
X188706190Y-135072380D01*
X189134761Y-134405714D02*
X189134761Y-134929523D01*
X189087142Y-135024761D01*
X188991904Y-135072380D01*
X188849047Y-135072380D01*
X188753809Y-135024761D01*
X188706190Y-134977142D01*
X188230000Y-135072380D02*
X188230000Y-134072380D01*
X188230000Y-134453333D02*
X188134761Y-134405714D01*
X187944285Y-134405714D01*
X187849047Y-134453333D01*
X187801428Y-134500952D01*
X187753809Y-134596190D01*
X187753809Y-134881904D01*
X187801428Y-134977142D01*
X187849047Y-135024761D01*
X187944285Y-135072380D01*
X188134761Y-135072380D01*
X188230000Y-135024761D01*
X187325238Y-134977142D02*
X187277619Y-135024761D01*
X187325238Y-135072380D01*
X187372857Y-135024761D01*
X187325238Y-134977142D01*
X187325238Y-135072380D01*
X186420476Y-135024761D02*
X186515714Y-135072380D01*
X186706190Y-135072380D01*
X186801428Y-135024761D01*
X186849047Y-134977142D01*
X186896666Y-134881904D01*
X186896666Y-134596190D01*
X186849047Y-134500952D01*
X186801428Y-134453333D01*
X186706190Y-134405714D01*
X186515714Y-134405714D01*
X186420476Y-134453333D01*
X185849047Y-135072380D02*
X185944285Y-135024761D01*
X185991904Y-134977142D01*
X186039523Y-134881904D01*
X186039523Y-134596190D01*
X185991904Y-134500952D01*
X185944285Y-134453333D01*
X185849047Y-134405714D01*
X185706190Y-134405714D01*
X185610952Y-134453333D01*
X185563333Y-134500952D01*
X185515714Y-134596190D01*
X185515714Y-134881904D01*
X185563333Y-134977142D01*
X185610952Y-135024761D01*
X185706190Y-135072380D01*
X185849047Y-135072380D01*
X185087142Y-135072380D02*
X185087142Y-134405714D01*
X185087142Y-134500952D02*
X185039523Y-134453333D01*
X184944285Y-134405714D01*
X184801428Y-134405714D01*
X184706190Y-134453333D01*
X184658571Y-134548571D01*
X184658571Y-135072380D01*
X184658571Y-134548571D02*
X184610952Y-134453333D01*
X184515714Y-134405714D01*
X184372857Y-134405714D01*
X184277619Y-134453333D01*
X184230000Y-134548571D01*
X184230000Y-135072380D01*
X183039523Y-134024761D02*
X183896666Y-135310476D01*
X182706190Y-134405714D02*
X182706190Y-135072380D01*
X182706190Y-134500952D02*
X182658571Y-134453333D01*
X182563333Y-134405714D01*
X182420476Y-134405714D01*
X182325238Y-134453333D01*
X182277619Y-134548571D01*
X182277619Y-135072380D01*
X181658571Y-135072380D02*
X181753809Y-135024761D01*
X181801428Y-134977142D01*
X181849047Y-134881904D01*
X181849047Y-134596190D01*
X181801428Y-134500952D01*
X181753809Y-134453333D01*
X181658571Y-134405714D01*
X181515714Y-134405714D01*
X181420476Y-134453333D01*
X181372857Y-134500952D01*
X181325238Y-134596190D01*
X181325238Y-134881904D01*
X181372857Y-134977142D01*
X181420476Y-135024761D01*
X181515714Y-135072380D01*
X181658571Y-135072380D01*
X180991904Y-134405714D02*
X180753809Y-135072380D01*
X180515714Y-134405714D01*
X180134761Y-135072380D02*
X180134761Y-134405714D01*
X180134761Y-134072380D02*
X180182380Y-134120000D01*
X180134761Y-134167619D01*
X180087142Y-134120000D01*
X180134761Y-134072380D01*
X180134761Y-134167619D01*
D11*
%TO.C,C11*%
X150157264Y-45508500D02*
X148953136Y-45508500D01*
X150157264Y-47328500D02*
X148953136Y-47328500D01*
%TO.C,C10*%
X184498064Y-63098000D02*
X183293936Y-63098000D01*
X184498064Y-64918000D02*
X183293936Y-64918000D01*
%TO.C,U8*%
X148361400Y-54489800D02*
X146161400Y-54489800D01*
X148361400Y-54489800D02*
X150561400Y-54489800D01*
X148361400Y-47719800D02*
X146161400Y-47719800D01*
X148361400Y-47719800D02*
X151961400Y-47719800D01*
%TO.C,U7*%
X193504000Y-66548000D02*
X193504000Y-68748000D01*
X193504000Y-66548000D02*
X193504000Y-64348000D01*
X186734000Y-66548000D02*
X186734000Y-68748000D01*
X186734000Y-66548000D02*
X186734000Y-62948000D01*
%TO.C,C11*%
D12*
X154376357Y-46877242D02*
X154423976Y-46924861D01*
X154566833Y-46972480D01*
X154662071Y-46972480D01*
X154804928Y-46924861D01*
X154900166Y-46829623D01*
X154947785Y-46734385D01*
X154995404Y-46543909D01*
X154995404Y-46401052D01*
X154947785Y-46210576D01*
X154900166Y-46115338D01*
X154804928Y-46020100D01*
X154662071Y-45972480D01*
X154566833Y-45972480D01*
X154423976Y-46020100D01*
X154376357Y-46067719D01*
X153423976Y-46972480D02*
X153995404Y-46972480D01*
X153709690Y-46972480D02*
X153709690Y-45972480D01*
X153804928Y-46115338D01*
X153900166Y-46210576D01*
X153995404Y-46258195D01*
X152471595Y-46972480D02*
X153043023Y-46972480D01*
X152757309Y-46972480D02*
X152757309Y-45972480D01*
X152852547Y-46115338D01*
X152947785Y-46210576D01*
X153043023Y-46258195D01*
%TO.C,C10*%
X184538857Y-62545142D02*
X184586476Y-62592761D01*
X184729333Y-62640380D01*
X184824571Y-62640380D01*
X184967428Y-62592761D01*
X185062666Y-62497523D01*
X185110285Y-62402285D01*
X185157904Y-62211809D01*
X185157904Y-62068952D01*
X185110285Y-61878476D01*
X185062666Y-61783238D01*
X184967428Y-61688000D01*
X184824571Y-61640380D01*
X184729333Y-61640380D01*
X184586476Y-61688000D01*
X184538857Y-61735619D01*
X183586476Y-62640380D02*
X184157904Y-62640380D01*
X183872190Y-62640380D02*
X183872190Y-61640380D01*
X183967428Y-61783238D01*
X184062666Y-61878476D01*
X184157904Y-61926095D01*
X182967428Y-61640380D02*
X182872190Y-61640380D01*
X182776952Y-61688000D01*
X182729333Y-61735619D01*
X182681714Y-61830857D01*
X182634095Y-62021333D01*
X182634095Y-62259428D01*
X182681714Y-62449904D01*
X182729333Y-62545142D01*
X182776952Y-62592761D01*
X182872190Y-62640380D01*
X182967428Y-62640380D01*
X183062666Y-62592761D01*
X183110285Y-62545142D01*
X183157904Y-62449904D01*
X183205523Y-62259428D01*
X183205523Y-62021333D01*
X183157904Y-61830857D01*
X183110285Y-61735619D01*
X183062666Y-61688000D01*
X182967428Y-61640380D01*
%TO.C,U8*%
X149275704Y-54786280D02*
X149275704Y-55595804D01*
X149228085Y-55691042D01*
X149180466Y-55738661D01*
X149085228Y-55786280D01*
X148894752Y-55786280D01*
X148799514Y-55738661D01*
X148751895Y-55691042D01*
X148704276Y-55595804D01*
X148704276Y-54786280D01*
X148085228Y-55214852D02*
X148180466Y-55167233D01*
X148228085Y-55119614D01*
X148275704Y-55024376D01*
X148275704Y-54976757D01*
X148228085Y-54881519D01*
X148180466Y-54833900D01*
X148085228Y-54786280D01*
X147894752Y-54786280D01*
X147799514Y-54833900D01*
X147751895Y-54881519D01*
X147704276Y-54976757D01*
X147704276Y-55024376D01*
X147751895Y-55119614D01*
X147799514Y-55167233D01*
X147894752Y-55214852D01*
X148085228Y-55214852D01*
X148180466Y-55262471D01*
X148228085Y-55310090D01*
X148275704Y-55405328D01*
X148275704Y-55595804D01*
X148228085Y-55691042D01*
X148180466Y-55738661D01*
X148085228Y-55786280D01*
X147894752Y-55786280D01*
X147799514Y-55738661D01*
X147751895Y-55691042D01*
X147704276Y-55595804D01*
X147704276Y-55405328D01*
X147751895Y-55310090D01*
X147799514Y-55262471D01*
X147894752Y-55214852D01*
%TO.C,U7*%
X185371380Y-65786095D02*
X186180904Y-65786095D01*
X186276142Y-65833714D01*
X186323761Y-65881333D01*
X186371380Y-65976571D01*
X186371380Y-66167047D01*
X186323761Y-66262285D01*
X186276142Y-66309904D01*
X186180904Y-66357523D01*
X185371380Y-66357523D01*
X185371380Y-66738476D02*
X185371380Y-67405142D01*
X186371380Y-66976571D01*
%TD*%
%LPC*%
D13*
X120700800Y-123164600D02*
X126111000Y-128574800D01*
X120624600Y-66573400D02*
X120650000Y-123113800D01*
X191401700Y-75869800D02*
X189217300Y-75869800D01*
X189128400Y-74117200D02*
X189128400Y-75311000D01*
X187337700Y-72326500D02*
X189128400Y-74117200D01*
X161759900Y-72313800D02*
X187337700Y-72326500D01*
X160934400Y-71488300D02*
X161759900Y-72313800D01*
X134073900Y-71526400D02*
X160972500Y-71526400D01*
X129336800Y-66878200D02*
X134010400Y-71551800D01*
X114020600Y-66497200D02*
X120675400Y-66497200D01*
D14*
%TO.C,MH12*%
X207250000Y-101450000D03*
%TD*%
%TO.C,MH11*%
X112000000Y-101450000D03*
%TD*%
D15*
%TO.C,J8*%
X114554000Y-45593000D03*
X119634000Y-45593000D03*
X124714000Y-45593000D03*
X129794000Y-45593000D03*
D16*
X112014000Y-43053000D03*
X132334000Y-43053000D03*
D17*
X117094000Y-35433000D03*
X127254000Y-35433000D03*
%TD*%
%TO.C,C11*%
G36*
G01*
X148831200Y-45760395D02*
X148831200Y-47076605D01*
G75*
G02*
X148563305Y-47344500I-267895J0D01*
G01*
X147572095Y-47344500D01*
G75*
G02*
X147304200Y-47076605I0J267895D01*
G01*
X147304200Y-45760395D01*
G75*
G02*
X147572095Y-45492500I267895J0D01*
G01*
X148563305Y-45492500D01*
G75*
G02*
X148831200Y-45760395I0J-267895D01*
G01*
G37*
G36*
G01*
X151806200Y-45760395D02*
X151806200Y-47076605D01*
G75*
G02*
X151538305Y-47344500I-267895J0D01*
G01*
X150547095Y-47344500D01*
G75*
G02*
X150279200Y-47076605I0J267895D01*
G01*
X150279200Y-45760395D01*
G75*
G02*
X150547095Y-45492500I267895J0D01*
G01*
X151538305Y-45492500D01*
G75*
G02*
X151806200Y-45760395I0J-267895D01*
G01*
G37*
%TD*%
%TO.C,C10*%
G36*
G01*
X183172000Y-63349895D02*
X183172000Y-64666105D01*
G75*
G02*
X182904105Y-64934000I-267895J0D01*
G01*
X181912895Y-64934000D01*
G75*
G02*
X181645000Y-64666105I0J267895D01*
G01*
X181645000Y-63349895D01*
G75*
G02*
X181912895Y-63082000I267895J0D01*
G01*
X182904105Y-63082000D01*
G75*
G02*
X183172000Y-63349895I0J-267895D01*
G01*
G37*
G36*
G01*
X186147000Y-63349895D02*
X186147000Y-64666105D01*
G75*
G02*
X185879105Y-64934000I-267895J0D01*
G01*
X184887895Y-64934000D01*
G75*
G02*
X184620000Y-64666105I0J267895D01*
G01*
X184620000Y-63349895D01*
G75*
G02*
X184887895Y-63082000I267895J0D01*
G01*
X185879105Y-63082000D01*
G75*
G02*
X186147000Y-63349895I0J-267895D01*
G01*
G37*
%TD*%
%TO.C,U8*%
G36*
G01*
X146287400Y-48054300D02*
X146287400Y-48305300D01*
G75*
G02*
X146161900Y-48430800I-125500J0D01*
G01*
X144835900Y-48430800D01*
G75*
G02*
X144710400Y-48305300I0J125500D01*
G01*
X144710400Y-48054300D01*
G75*
G02*
X144835900Y-47928800I125500J0D01*
G01*
X146161900Y-47928800D01*
G75*
G02*
X146287400Y-48054300I0J-125500D01*
G01*
G37*
G36*
G01*
X146287400Y-48704300D02*
X146287400Y-48955300D01*
G75*
G02*
X146161900Y-49080800I-125500J0D01*
G01*
X144835900Y-49080800D01*
G75*
G02*
X144710400Y-48955300I0J125500D01*
G01*
X144710400Y-48704300D01*
G75*
G02*
X144835900Y-48578800I125500J0D01*
G01*
X146161900Y-48578800D01*
G75*
G02*
X146287400Y-48704300I0J-125500D01*
G01*
G37*
G36*
G01*
X146287400Y-49354300D02*
X146287400Y-49605300D01*
G75*
G02*
X146161900Y-49730800I-125500J0D01*
G01*
X144835900Y-49730800D01*
G75*
G02*
X144710400Y-49605300I0J125500D01*
G01*
X144710400Y-49354300D01*
G75*
G02*
X144835900Y-49228800I125500J0D01*
G01*
X146161900Y-49228800D01*
G75*
G02*
X146287400Y-49354300I0J-125500D01*
G01*
G37*
G36*
G01*
X146287400Y-50004300D02*
X146287400Y-50255300D01*
G75*
G02*
X146161900Y-50380800I-125500J0D01*
G01*
X144835900Y-50380800D01*
G75*
G02*
X144710400Y-50255300I0J125500D01*
G01*
X144710400Y-50004300D01*
G75*
G02*
X144835900Y-49878800I125500J0D01*
G01*
X146161900Y-49878800D01*
G75*
G02*
X146287400Y-50004300I0J-125500D01*
G01*
G37*
G36*
G01*
X146287400Y-50654300D02*
X146287400Y-50905300D01*
G75*
G02*
X146161900Y-51030800I-125500J0D01*
G01*
X144835900Y-51030800D01*
G75*
G02*
X144710400Y-50905300I0J125500D01*
G01*
X144710400Y-50654300D01*
G75*
G02*
X144835900Y-50528800I125500J0D01*
G01*
X146161900Y-50528800D01*
G75*
G02*
X146287400Y-50654300I0J-125500D01*
G01*
G37*
G36*
G01*
X146287400Y-51304300D02*
X146287400Y-51555300D01*
G75*
G02*
X146161900Y-51680800I-125500J0D01*
G01*
X144835900Y-51680800D01*
G75*
G02*
X144710400Y-51555300I0J125500D01*
G01*
X144710400Y-51304300D01*
G75*
G02*
X144835900Y-51178800I125500J0D01*
G01*
X146161900Y-51178800D01*
G75*
G02*
X146287400Y-51304300I0J-125500D01*
G01*
G37*
G36*
G01*
X146287400Y-51954300D02*
X146287400Y-52205300D01*
G75*
G02*
X146161900Y-52330800I-125500J0D01*
G01*
X144835900Y-52330800D01*
G75*
G02*
X144710400Y-52205300I0J125500D01*
G01*
X144710400Y-51954300D01*
G75*
G02*
X144835900Y-51828800I125500J0D01*
G01*
X146161900Y-51828800D01*
G75*
G02*
X146287400Y-51954300I0J-125500D01*
G01*
G37*
G36*
G01*
X146287400Y-52604300D02*
X146287400Y-52855300D01*
G75*
G02*
X146161900Y-52980800I-125500J0D01*
G01*
X144835900Y-52980800D01*
G75*
G02*
X144710400Y-52855300I0J125500D01*
G01*
X144710400Y-52604300D01*
G75*
G02*
X144835900Y-52478800I125500J0D01*
G01*
X146161900Y-52478800D01*
G75*
G02*
X146287400Y-52604300I0J-125500D01*
G01*
G37*
G36*
G01*
X146287400Y-53254300D02*
X146287400Y-53505300D01*
G75*
G02*
X146161900Y-53630800I-125500J0D01*
G01*
X144835900Y-53630800D01*
G75*
G02*
X144710400Y-53505300I0J125500D01*
G01*
X144710400Y-53254300D01*
G75*
G02*
X144835900Y-53128800I125500J0D01*
G01*
X146161900Y-53128800D01*
G75*
G02*
X146287400Y-53254300I0J-125500D01*
G01*
G37*
G36*
G01*
X146287400Y-53904300D02*
X146287400Y-54155300D01*
G75*
G02*
X146161900Y-54280800I-125500J0D01*
G01*
X144835900Y-54280800D01*
G75*
G02*
X144710400Y-54155300I0J125500D01*
G01*
X144710400Y-53904300D01*
G75*
G02*
X144835900Y-53778800I125500J0D01*
G01*
X146161900Y-53778800D01*
G75*
G02*
X146287400Y-53904300I0J-125500D01*
G01*
G37*
G36*
G01*
X152012400Y-53904300D02*
X152012400Y-54155300D01*
G75*
G02*
X151886900Y-54280800I-125500J0D01*
G01*
X150560900Y-54280800D01*
G75*
G02*
X150435400Y-54155300I0J125500D01*
G01*
X150435400Y-53904300D01*
G75*
G02*
X150560900Y-53778800I125500J0D01*
G01*
X151886900Y-53778800D01*
G75*
G02*
X152012400Y-53904300I0J-125500D01*
G01*
G37*
G36*
G01*
X152012400Y-53254300D02*
X152012400Y-53505300D01*
G75*
G02*
X151886900Y-53630800I-125500J0D01*
G01*
X150560900Y-53630800D01*
G75*
G02*
X150435400Y-53505300I0J125500D01*
G01*
X150435400Y-53254300D01*
G75*
G02*
X150560900Y-53128800I125500J0D01*
G01*
X151886900Y-53128800D01*
G75*
G02*
X152012400Y-53254300I0J-125500D01*
G01*
G37*
G36*
G01*
X152012400Y-52604300D02*
X152012400Y-52855300D01*
G75*
G02*
X151886900Y-52980800I-125500J0D01*
G01*
X150560900Y-52980800D01*
G75*
G02*
X150435400Y-52855300I0J125500D01*
G01*
X150435400Y-52604300D01*
G75*
G02*
X150560900Y-52478800I125500J0D01*
G01*
X151886900Y-52478800D01*
G75*
G02*
X152012400Y-52604300I0J-125500D01*
G01*
G37*
G36*
G01*
X152012400Y-51954300D02*
X152012400Y-52205300D01*
G75*
G02*
X151886900Y-52330800I-125500J0D01*
G01*
X150560900Y-52330800D01*
G75*
G02*
X150435400Y-52205300I0J125500D01*
G01*
X150435400Y-51954300D01*
G75*
G02*
X150560900Y-51828800I125500J0D01*
G01*
X151886900Y-51828800D01*
G75*
G02*
X152012400Y-51954300I0J-125500D01*
G01*
G37*
G36*
G01*
X152012400Y-51304300D02*
X152012400Y-51555300D01*
G75*
G02*
X151886900Y-51680800I-125500J0D01*
G01*
X150560900Y-51680800D01*
G75*
G02*
X150435400Y-51555300I0J125500D01*
G01*
X150435400Y-51304300D01*
G75*
G02*
X150560900Y-51178800I125500J0D01*
G01*
X151886900Y-51178800D01*
G75*
G02*
X152012400Y-51304300I0J-125500D01*
G01*
G37*
G36*
G01*
X152012400Y-50654300D02*
X152012400Y-50905300D01*
G75*
G02*
X151886900Y-51030800I-125500J0D01*
G01*
X150560900Y-51030800D01*
G75*
G02*
X150435400Y-50905300I0J125500D01*
G01*
X150435400Y-50654300D01*
G75*
G02*
X150560900Y-50528800I125500J0D01*
G01*
X151886900Y-50528800D01*
G75*
G02*
X152012400Y-50654300I0J-125500D01*
G01*
G37*
G36*
G01*
X152012400Y-50004300D02*
X152012400Y-50255300D01*
G75*
G02*
X151886900Y-50380800I-125500J0D01*
G01*
X150560900Y-50380800D01*
G75*
G02*
X150435400Y-50255300I0J125500D01*
G01*
X150435400Y-50004300D01*
G75*
G02*
X150560900Y-49878800I125500J0D01*
G01*
X151886900Y-49878800D01*
G75*
G02*
X152012400Y-50004300I0J-125500D01*
G01*
G37*
G36*
G01*
X152012400Y-49354300D02*
X152012400Y-49605300D01*
G75*
G02*
X151886900Y-49730800I-125500J0D01*
G01*
X150560900Y-49730800D01*
G75*
G02*
X150435400Y-49605300I0J125500D01*
G01*
X150435400Y-49354300D01*
G75*
G02*
X150560900Y-49228800I125500J0D01*
G01*
X151886900Y-49228800D01*
G75*
G02*
X152012400Y-49354300I0J-125500D01*
G01*
G37*
G36*
G01*
X152012400Y-48704300D02*
X152012400Y-48955300D01*
G75*
G02*
X151886900Y-49080800I-125500J0D01*
G01*
X150560900Y-49080800D01*
G75*
G02*
X150435400Y-48955300I0J125500D01*
G01*
X150435400Y-48704300D01*
G75*
G02*
X150560900Y-48578800I125500J0D01*
G01*
X151886900Y-48578800D01*
G75*
G02*
X152012400Y-48704300I0J-125500D01*
G01*
G37*
G36*
G01*
X152012400Y-48054300D02*
X152012400Y-48305300D01*
G75*
G02*
X151886900Y-48430800I-125500J0D01*
G01*
X150560900Y-48430800D01*
G75*
G02*
X150435400Y-48305300I0J125500D01*
G01*
X150435400Y-48054300D01*
G75*
G02*
X150560900Y-47928800I125500J0D01*
G01*
X151886900Y-47928800D01*
G75*
G02*
X152012400Y-48054300I0J-125500D01*
G01*
G37*
%TD*%
%TO.C,U7*%
G36*
G01*
X187068500Y-68622000D02*
X187319500Y-68622000D01*
G75*
G02*
X187445000Y-68747500I0J-125500D01*
G01*
X187445000Y-70073500D01*
G75*
G02*
X187319500Y-70199000I-125500J0D01*
G01*
X187068500Y-70199000D01*
G75*
G02*
X186943000Y-70073500I0J125500D01*
G01*
X186943000Y-68747500D01*
G75*
G02*
X187068500Y-68622000I125500J0D01*
G01*
G37*
G36*
G01*
X187718500Y-68622000D02*
X187969500Y-68622000D01*
G75*
G02*
X188095000Y-68747500I0J-125500D01*
G01*
X188095000Y-70073500D01*
G75*
G02*
X187969500Y-70199000I-125500J0D01*
G01*
X187718500Y-70199000D01*
G75*
G02*
X187593000Y-70073500I0J125500D01*
G01*
X187593000Y-68747500D01*
G75*
G02*
X187718500Y-68622000I125500J0D01*
G01*
G37*
G36*
G01*
X188368500Y-68622000D02*
X188619500Y-68622000D01*
G75*
G02*
X188745000Y-68747500I0J-125500D01*
G01*
X188745000Y-70073500D01*
G75*
G02*
X188619500Y-70199000I-125500J0D01*
G01*
X188368500Y-70199000D01*
G75*
G02*
X188243000Y-70073500I0J125500D01*
G01*
X188243000Y-68747500D01*
G75*
G02*
X188368500Y-68622000I125500J0D01*
G01*
G37*
G36*
G01*
X189018500Y-68622000D02*
X189269500Y-68622000D01*
G75*
G02*
X189395000Y-68747500I0J-125500D01*
G01*
X189395000Y-70073500D01*
G75*
G02*
X189269500Y-70199000I-125500J0D01*
G01*
X189018500Y-70199000D01*
G75*
G02*
X188893000Y-70073500I0J125500D01*
G01*
X188893000Y-68747500D01*
G75*
G02*
X189018500Y-68622000I125500J0D01*
G01*
G37*
G36*
G01*
X189668500Y-68622000D02*
X189919500Y-68622000D01*
G75*
G02*
X190045000Y-68747500I0J-125500D01*
G01*
X190045000Y-70073500D01*
G75*
G02*
X189919500Y-70199000I-125500J0D01*
G01*
X189668500Y-70199000D01*
G75*
G02*
X189543000Y-70073500I0J125500D01*
G01*
X189543000Y-68747500D01*
G75*
G02*
X189668500Y-68622000I125500J0D01*
G01*
G37*
G36*
G01*
X190318500Y-68622000D02*
X190569500Y-68622000D01*
G75*
G02*
X190695000Y-68747500I0J-125500D01*
G01*
X190695000Y-70073500D01*
G75*
G02*
X190569500Y-70199000I-125500J0D01*
G01*
X190318500Y-70199000D01*
G75*
G02*
X190193000Y-70073500I0J125500D01*
G01*
X190193000Y-68747500D01*
G75*
G02*
X190318500Y-68622000I125500J0D01*
G01*
G37*
G36*
G01*
X190968500Y-68622000D02*
X191219500Y-68622000D01*
G75*
G02*
X191345000Y-68747500I0J-125500D01*
G01*
X191345000Y-70073500D01*
G75*
G02*
X191219500Y-70199000I-125500J0D01*
G01*
X190968500Y-70199000D01*
G75*
G02*
X190843000Y-70073500I0J125500D01*
G01*
X190843000Y-68747500D01*
G75*
G02*
X190968500Y-68622000I125500J0D01*
G01*
G37*
G36*
G01*
X191618500Y-68622000D02*
X191869500Y-68622000D01*
G75*
G02*
X191995000Y-68747500I0J-125500D01*
G01*
X191995000Y-70073500D01*
G75*
G02*
X191869500Y-70199000I-125500J0D01*
G01*
X191618500Y-70199000D01*
G75*
G02*
X191493000Y-70073500I0J125500D01*
G01*
X191493000Y-68747500D01*
G75*
G02*
X191618500Y-68622000I125500J0D01*
G01*
G37*
G36*
G01*
X192268500Y-68622000D02*
X192519500Y-68622000D01*
G75*
G02*
X192645000Y-68747500I0J-125500D01*
G01*
X192645000Y-70073500D01*
G75*
G02*
X192519500Y-70199000I-125500J0D01*
G01*
X192268500Y-70199000D01*
G75*
G02*
X192143000Y-70073500I0J125500D01*
G01*
X192143000Y-68747500D01*
G75*
G02*
X192268500Y-68622000I125500J0D01*
G01*
G37*
G36*
G01*
X192918500Y-68622000D02*
X193169500Y-68622000D01*
G75*
G02*
X193295000Y-68747500I0J-125500D01*
G01*
X193295000Y-70073500D01*
G75*
G02*
X193169500Y-70199000I-125500J0D01*
G01*
X192918500Y-70199000D01*
G75*
G02*
X192793000Y-70073500I0J125500D01*
G01*
X192793000Y-68747500D01*
G75*
G02*
X192918500Y-68622000I125500J0D01*
G01*
G37*
G36*
G01*
X192918500Y-62897000D02*
X193169500Y-62897000D01*
G75*
G02*
X193295000Y-63022500I0J-125500D01*
G01*
X193295000Y-64348500D01*
G75*
G02*
X193169500Y-64474000I-125500J0D01*
G01*
X192918500Y-64474000D01*
G75*
G02*
X192793000Y-64348500I0J125500D01*
G01*
X192793000Y-63022500D01*
G75*
G02*
X192918500Y-62897000I125500J0D01*
G01*
G37*
G36*
G01*
X192268500Y-62897000D02*
X192519500Y-62897000D01*
G75*
G02*
X192645000Y-63022500I0J-125500D01*
G01*
X192645000Y-64348500D01*
G75*
G02*
X192519500Y-64474000I-125500J0D01*
G01*
X192268500Y-64474000D01*
G75*
G02*
X192143000Y-64348500I0J125500D01*
G01*
X192143000Y-63022500D01*
G75*
G02*
X192268500Y-62897000I125500J0D01*
G01*
G37*
G36*
G01*
X191618500Y-62897000D02*
X191869500Y-62897000D01*
G75*
G02*
X191995000Y-63022500I0J-125500D01*
G01*
X191995000Y-64348500D01*
G75*
G02*
X191869500Y-64474000I-125500J0D01*
G01*
X191618500Y-64474000D01*
G75*
G02*
X191493000Y-64348500I0J125500D01*
G01*
X191493000Y-63022500D01*
G75*
G02*
X191618500Y-62897000I125500J0D01*
G01*
G37*
G36*
G01*
X190968500Y-62897000D02*
X191219500Y-62897000D01*
G75*
G02*
X191345000Y-63022500I0J-125500D01*
G01*
X191345000Y-64348500D01*
G75*
G02*
X191219500Y-64474000I-125500J0D01*
G01*
X190968500Y-64474000D01*
G75*
G02*
X190843000Y-64348500I0J125500D01*
G01*
X190843000Y-63022500D01*
G75*
G02*
X190968500Y-62897000I125500J0D01*
G01*
G37*
G36*
G01*
X190318500Y-62897000D02*
X190569500Y-62897000D01*
G75*
G02*
X190695000Y-63022500I0J-125500D01*
G01*
X190695000Y-64348500D01*
G75*
G02*
X190569500Y-64474000I-125500J0D01*
G01*
X190318500Y-64474000D01*
G75*
G02*
X190193000Y-64348500I0J125500D01*
G01*
X190193000Y-63022500D01*
G75*
G02*
X190318500Y-62897000I125500J0D01*
G01*
G37*
G36*
G01*
X189668500Y-62897000D02*
X189919500Y-62897000D01*
G75*
G02*
X190045000Y-63022500I0J-125500D01*
G01*
X190045000Y-64348500D01*
G75*
G02*
X189919500Y-64474000I-125500J0D01*
G01*
X189668500Y-64474000D01*
G75*
G02*
X189543000Y-64348500I0J125500D01*
G01*
X189543000Y-63022500D01*
G75*
G02*
X189668500Y-62897000I125500J0D01*
G01*
G37*
G36*
G01*
X189018500Y-62897000D02*
X189269500Y-62897000D01*
G75*
G02*
X189395000Y-63022500I0J-125500D01*
G01*
X189395000Y-64348500D01*
G75*
G02*
X189269500Y-64474000I-125500J0D01*
G01*
X189018500Y-64474000D01*
G75*
G02*
X188893000Y-64348500I0J125500D01*
G01*
X188893000Y-63022500D01*
G75*
G02*
X189018500Y-62897000I125500J0D01*
G01*
G37*
G36*
G01*
X188368500Y-62897000D02*
X188619500Y-62897000D01*
G75*
G02*
X188745000Y-63022500I0J-125500D01*
G01*
X188745000Y-64348500D01*
G75*
G02*
X188619500Y-64474000I-125500J0D01*
G01*
X188368500Y-64474000D01*
G75*
G02*
X188243000Y-64348500I0J125500D01*
G01*
X188243000Y-63022500D01*
G75*
G02*
X188368500Y-62897000I125500J0D01*
G01*
G37*
G36*
G01*
X187718500Y-62897000D02*
X187969500Y-62897000D01*
G75*
G02*
X188095000Y-63022500I0J-125500D01*
G01*
X188095000Y-64348500D01*
G75*
G02*
X187969500Y-64474000I-125500J0D01*
G01*
X187718500Y-64474000D01*
G75*
G02*
X187593000Y-64348500I0J125500D01*
G01*
X187593000Y-63022500D01*
G75*
G02*
X187718500Y-62897000I125500J0D01*
G01*
G37*
G36*
G01*
X187068500Y-62897000D02*
X187319500Y-62897000D01*
G75*
G02*
X187445000Y-63022500I0J-125500D01*
G01*
X187445000Y-64348500D01*
G75*
G02*
X187319500Y-64474000I-125500J0D01*
G01*
X187068500Y-64474000D01*
G75*
G02*
X186943000Y-64348500I0J125500D01*
G01*
X186943000Y-63022500D01*
G75*
G02*
X187068500Y-62897000I125500J0D01*
G01*
G37*
%TD*%
D18*
%TO.C,MH10*%
X138514000Y-126150000D03*
%TD*%
%TO.C,MH9*%
X196514000Y-126150000D03*
%TD*%
D19*
%TO.C,J2*%
X201930000Y-41656000D03*
X201930000Y-44196000D03*
X199390000Y-41656000D03*
X199390000Y-44196000D03*
X196850000Y-41656000D03*
X196850000Y-44196000D03*
X194310000Y-41656000D03*
X194310000Y-44196000D03*
X191770000Y-41656000D03*
X191770000Y-44196000D03*
X189230000Y-41656000D03*
X189230000Y-44196000D03*
X186690000Y-41656000D03*
X186690000Y-44196000D03*
X184150000Y-41656000D03*
X184150000Y-44196000D03*
X181610000Y-41656000D03*
X181610000Y-44196000D03*
X179070000Y-41656000D03*
X179070000Y-44196000D03*
X176530000Y-41656000D03*
X176530000Y-44196000D03*
X173990000Y-41656000D03*
X173990000Y-44196000D03*
X171450000Y-41656000D03*
X171450000Y-44196000D03*
X168910000Y-41656000D03*
X168910000Y-44196000D03*
X166370000Y-41656000D03*
X166370000Y-44196000D03*
X163830000Y-41656000D03*
X163830000Y-44196000D03*
X161290000Y-41656000D03*
X161290000Y-44196000D03*
X158750000Y-41656000D03*
X158750000Y-44196000D03*
X156210000Y-41656000D03*
X156210000Y-44196000D03*
X153670000Y-41656000D03*
X153670000Y-44196000D03*
X151130000Y-41656000D03*
X151130000Y-44196000D03*
X148590000Y-41656000D03*
X148590000Y-44196000D03*
X146050000Y-41656000D03*
X146050000Y-44196000D03*
X143510000Y-41656000D03*
X143510000Y-44196000D03*
X140970000Y-41656000D03*
D20*
X140970000Y-44196000D03*
%TD*%
D14*
%TO.C,MH8*%
X207250000Y-133200000D03*
%TD*%
%TO.C,MH7*%
X207250000Y-57000000D03*
%TD*%
%TO.C,MH6*%
X112000000Y-133200000D03*
%TD*%
%TO.C,MH5*%
X112000000Y-57000000D03*
%TD*%
D21*
%TO.C,J6*%
X119634000Y-49784000D03*
X117134000Y-49784000D03*
X114634000Y-49784000D03*
G36*
G01*
X112584500Y-50685000D02*
X111683500Y-50685000D01*
G75*
G02*
X111233000Y-50234500I0J450500D01*
G01*
X111233000Y-49333500D01*
G75*
G02*
X111683500Y-48883000I450500J0D01*
G01*
X112584500Y-48883000D01*
G75*
G02*
X113035000Y-49333500I0J-450500D01*
G01*
X113035000Y-50234500D01*
G75*
G02*
X112584500Y-50685000I-450500J0D01*
G01*
G37*
%TD*%
D18*
%TO.C,MH4*%
X196514000Y-100150000D03*
%TD*%
%TO.C,MH3*%
X196514000Y-77150000D03*
%TD*%
%TO.C,MH2*%
X138514000Y-77150000D03*
%TD*%
D22*
%TO.C,J7*%
X161490000Y-68834000D03*
X163990000Y-68834000D03*
X166490000Y-68834000D03*
X168990000Y-68834000D03*
X171490000Y-68834000D03*
G36*
G01*
X174891000Y-68073000D02*
X174891000Y-69595000D01*
G75*
G02*
X174626000Y-69860000I-265000J0D01*
G01*
X173354000Y-69860000D01*
G75*
G02*
X173089000Y-69595000I0J265000D01*
G01*
X173089000Y-68073000D01*
G75*
G02*
X173354000Y-67808000I265000J0D01*
G01*
X174626000Y-67808000D01*
G75*
G02*
X174891000Y-68073000I0J-265000D01*
G01*
G37*
%TD*%
D23*
%TO.C,J5*%
X114046000Y-66508000D03*
G36*
G01*
X113260000Y-63107000D02*
X114832000Y-63107000D01*
G75*
G02*
X115097000Y-63372000I0J-265000D01*
G01*
X115097000Y-64644000D01*
G75*
G02*
X114832000Y-64909000I-265000J0D01*
G01*
X113260000Y-64909000D01*
G75*
G02*
X112995000Y-64644000I0J265000D01*
G01*
X112995000Y-63372000D01*
G75*
G02*
X113260000Y-63107000I265000J0D01*
G01*
G37*
%TD*%
%TO.C,J4*%
X120650000Y-66508000D03*
G36*
G01*
X119864000Y-63107000D02*
X121436000Y-63107000D01*
G75*
G02*
X121701000Y-63372000I0J-265000D01*
G01*
X121701000Y-64644000D01*
G75*
G02*
X121436000Y-64909000I-265000J0D01*
G01*
X119864000Y-64909000D01*
G75*
G02*
X119599000Y-64644000I0J265000D01*
G01*
X119599000Y-63372000D01*
G75*
G02*
X119864000Y-63107000I265000J0D01*
G01*
G37*
%TD*%
D18*
%TO.C,MH1*%
X138514000Y-100150000D03*
%TD*%
D20*
%TO.C,J1*%
X191643000Y-78422500D03*
D19*
X191643000Y-75882500D03*
X189103000Y-78422500D03*
X189103000Y-75882500D03*
X186563000Y-78422500D03*
X186563000Y-75882500D03*
X184023000Y-78422500D03*
X184023000Y-75882500D03*
X181483000Y-78422500D03*
X181483000Y-75882500D03*
X178943000Y-78422500D03*
X178943000Y-75882500D03*
X176403000Y-78422500D03*
X176403000Y-75882500D03*
X173863000Y-78422500D03*
X173863000Y-75882500D03*
X171323000Y-78422500D03*
X171323000Y-75882500D03*
X168783000Y-78422500D03*
X168783000Y-75882500D03*
X166243000Y-78422500D03*
X166243000Y-75882500D03*
X163703000Y-78422500D03*
X163703000Y-75882500D03*
X161163000Y-78422500D03*
X161163000Y-75882500D03*
X158623000Y-78422500D03*
X158623000Y-75882500D03*
X156083000Y-78422500D03*
X156083000Y-75882500D03*
X153543000Y-78422500D03*
X153543000Y-75882500D03*
X151003000Y-78422500D03*
X151003000Y-75882500D03*
X148463000Y-78422500D03*
X148463000Y-75882500D03*
X145923000Y-78422500D03*
X145923000Y-75882500D03*
X143383000Y-78422500D03*
X143383000Y-75882500D03*
%TD*%
M02*
