%TF.GenerationSoftware,KiCad,Pcbnew,(5.1.9-0-10_14)*%
%TF.CreationDate,2021-06-06T00:15:20+09:00*%
%TF.ProjectId,scsiemu,73637369-656d-4752-9e6b-696361645f70,rev?*%
%TF.SameCoordinates,Original*%
%TF.FileFunction,Soldermask,Top*%
%TF.FilePolarity,Negative*%
%FSLAX46Y46*%
G04 Gerber Fmt 4.6, Leading zero omitted, Abs format (unit mm)*
G04 Created by KiCad (PCBNEW (5.1.9-0-10_14)) date 2021-06-06 00:15:20*
%MOMM*%
%LPD*%
G01*
G04 APERTURE LIST*
%ADD10C,0.900000*%
%ADD11C,1.100000*%
%ADD12C,1.000000*%
%ADD13C,0.500000*%
%ADD14C,0.100000*%
%ADD15O,1.802000X1.802000*%
%ADD16C,3.602000*%
%ADD17C,2.902000*%
%ADD18C,2.642000*%
%ADD19C,4.102000*%
%ADD20C,2.302000*%
%ADD21C,1.802000*%
%ADD22O,1.802000X2.052000*%
%ADD23O,2.102000X1.802000*%
G04 APERTURE END LIST*
D10*
X126390400Y-67462400D02*
X126390400Y-64630300D01*
D11*
X129413000Y-64020700D02*
X129413000Y-66751200D01*
D12*
X126085600Y-128549400D02*
X126161800Y-128625600D01*
D13*
X126263400Y-131673600D02*
X126263400Y-128651000D01*
X123672600Y-131648200D02*
X123672600Y-129209800D01*
D11*
X114020600Y-66497200D02*
X120675400Y-66497200D01*
X129235200Y-66738500D02*
X130505200Y-68008500D01*
D10*
X118922800Y-66484500D02*
X120535700Y-66484500D01*
X117970300Y-65532000D02*
X118922800Y-66484500D01*
X117970300Y-61722000D02*
X117970300Y-65532000D01*
X118427500Y-61264800D02*
X117970300Y-61722000D01*
X118427500Y-57175400D02*
X118427500Y-61264800D01*
X121729500Y-54686200D02*
X121729500Y-57099200D01*
X119849900Y-52806600D02*
X121729500Y-54686200D01*
X113690400Y-52806600D02*
X119849900Y-52806600D01*
X112102900Y-51219100D02*
X113690400Y-52806600D01*
X112115600Y-49606200D02*
X112115600Y-51219100D01*
X126390400Y-67462400D02*
X126390400Y-64630300D01*
D11*
X129413000Y-64020700D02*
X129413000Y-66751200D01*
D12*
X126085600Y-128549400D02*
X126161800Y-128625600D01*
D13*
X126263400Y-131673600D02*
X126263400Y-128651000D01*
X123672600Y-131648200D02*
X123672600Y-129209800D01*
D11*
X114020600Y-66497200D02*
X120675400Y-66497200D01*
X129235200Y-66738500D02*
X130505200Y-68008500D01*
D10*
X118922800Y-66484500D02*
X120535700Y-66484500D01*
X117970300Y-65532000D02*
X118922800Y-66484500D01*
X117970300Y-61722000D02*
X117970300Y-65532000D01*
X118427500Y-61264800D02*
X117970300Y-61722000D01*
X118427500Y-57175400D02*
X118427500Y-61264800D01*
X121729500Y-54686200D02*
X121729500Y-57099200D01*
X119849900Y-52806600D02*
X121729500Y-54686200D01*
X113690400Y-52806600D02*
X119849900Y-52806600D01*
X112102900Y-51219100D02*
X113690400Y-52806600D01*
X112115600Y-49606200D02*
X112115600Y-51219100D01*
D14*
%TO.C,JP3*%
G36*
X125751112Y-65734902D02*
G01*
X125769534Y-65734902D01*
X125774533Y-65735148D01*
X125823364Y-65739958D01*
X125828314Y-65740692D01*
X125876439Y-65750264D01*
X125881295Y-65751480D01*
X125928250Y-65765724D01*
X125932961Y-65767410D01*
X125978294Y-65786187D01*
X125982820Y-65788327D01*
X126026093Y-65811458D01*
X126030384Y-65814031D01*
X126071183Y-65841291D01*
X126075204Y-65844273D01*
X126113133Y-65875401D01*
X126116841Y-65878762D01*
X126151538Y-65913459D01*
X126154899Y-65917167D01*
X126186027Y-65955096D01*
X126189009Y-65959117D01*
X126216269Y-65999916D01*
X126218842Y-66004207D01*
X126241973Y-66047480D01*
X126244113Y-66052006D01*
X126262890Y-66097339D01*
X126264576Y-66102050D01*
X126278820Y-66149005D01*
X126280036Y-66153861D01*
X126289608Y-66201986D01*
X126290342Y-66206936D01*
X126295152Y-66255767D01*
X126295398Y-66260766D01*
X126295398Y-66279188D01*
X126296000Y-66285300D01*
X126296000Y-66785300D01*
X126295398Y-66791412D01*
X126295398Y-66809834D01*
X126295152Y-66814833D01*
X126290342Y-66863664D01*
X126289608Y-66868614D01*
X126280036Y-66916739D01*
X126278820Y-66921595D01*
X126264576Y-66968550D01*
X126262890Y-66973261D01*
X126244113Y-67018594D01*
X126241973Y-67023120D01*
X126218842Y-67066393D01*
X126216269Y-67070684D01*
X126189009Y-67111483D01*
X126186027Y-67115504D01*
X126154899Y-67153433D01*
X126151538Y-67157141D01*
X126116841Y-67191838D01*
X126113133Y-67195199D01*
X126075204Y-67226327D01*
X126071183Y-67229309D01*
X126030384Y-67256569D01*
X126026093Y-67259142D01*
X125982820Y-67282273D01*
X125978294Y-67284413D01*
X125932961Y-67303190D01*
X125928250Y-67304876D01*
X125881295Y-67319120D01*
X125876439Y-67320336D01*
X125828314Y-67329908D01*
X125823364Y-67330642D01*
X125774533Y-67335452D01*
X125769534Y-67335698D01*
X125751112Y-67335698D01*
X125745000Y-67336300D01*
X125245000Y-67336300D01*
X125235050Y-67335320D01*
X125225483Y-67332418D01*
X125216666Y-67327705D01*
X125208938Y-67321362D01*
X125202595Y-67313634D01*
X125197882Y-67304817D01*
X125194980Y-67295250D01*
X125194000Y-67285300D01*
X125194000Y-65785300D01*
X125194980Y-65775350D01*
X125197882Y-65765783D01*
X125202595Y-65756966D01*
X125208938Y-65749238D01*
X125216666Y-65742895D01*
X125225483Y-65738182D01*
X125235050Y-65735280D01*
X125245000Y-65734300D01*
X125745000Y-65734300D01*
X125751112Y-65734902D01*
G37*
G36*
X124954950Y-65735280D02*
G01*
X124964517Y-65738182D01*
X124973334Y-65742895D01*
X124981062Y-65749238D01*
X124987405Y-65756966D01*
X124992118Y-65765783D01*
X124995020Y-65775350D01*
X124996000Y-65785300D01*
X124996000Y-67285300D01*
X124995020Y-67295250D01*
X124992118Y-67304817D01*
X124987405Y-67313634D01*
X124981062Y-67321362D01*
X124973334Y-67327705D01*
X124964517Y-67332418D01*
X124954950Y-67335320D01*
X124945000Y-67336300D01*
X124445000Y-67336300D01*
X124438888Y-67335698D01*
X124420466Y-67335698D01*
X124415467Y-67335452D01*
X124366636Y-67330642D01*
X124361686Y-67329908D01*
X124313561Y-67320336D01*
X124308705Y-67319120D01*
X124261750Y-67304876D01*
X124257039Y-67303190D01*
X124211706Y-67284413D01*
X124207180Y-67282273D01*
X124163907Y-67259142D01*
X124159616Y-67256569D01*
X124118817Y-67229309D01*
X124114796Y-67226327D01*
X124076867Y-67195199D01*
X124073159Y-67191838D01*
X124038462Y-67157141D01*
X124035101Y-67153433D01*
X124003973Y-67115504D01*
X124000991Y-67111483D01*
X123973731Y-67070684D01*
X123971158Y-67066393D01*
X123948027Y-67023120D01*
X123945887Y-67018594D01*
X123927110Y-66973261D01*
X123925424Y-66968550D01*
X123911180Y-66921595D01*
X123909964Y-66916739D01*
X123900392Y-66868614D01*
X123899658Y-66863664D01*
X123894848Y-66814833D01*
X123894602Y-66809834D01*
X123894602Y-66791412D01*
X123894000Y-66785300D01*
X123894000Y-66285300D01*
X123894602Y-66279188D01*
X123894602Y-66260766D01*
X123894848Y-66255767D01*
X123899658Y-66206936D01*
X123900392Y-66201986D01*
X123909964Y-66153861D01*
X123911180Y-66149005D01*
X123925424Y-66102050D01*
X123927110Y-66097339D01*
X123945887Y-66052006D01*
X123948027Y-66047480D01*
X123971158Y-66004207D01*
X123973731Y-65999916D01*
X124000991Y-65959117D01*
X124003973Y-65955096D01*
X124035101Y-65917167D01*
X124038462Y-65913459D01*
X124073159Y-65878762D01*
X124076867Y-65875401D01*
X124114796Y-65844273D01*
X124118817Y-65841291D01*
X124159616Y-65814031D01*
X124163907Y-65811458D01*
X124207180Y-65788327D01*
X124211706Y-65786187D01*
X124257039Y-65767410D01*
X124261750Y-65765724D01*
X124308705Y-65751480D01*
X124313561Y-65750264D01*
X124361686Y-65740692D01*
X124366636Y-65739958D01*
X124415467Y-65735148D01*
X124420466Y-65734902D01*
X124438888Y-65734902D01*
X124445000Y-65734300D01*
X124945000Y-65734300D01*
X124954950Y-65735280D01*
G37*
%TD*%
%TO.C,JP2*%
G36*
X153195812Y-68351102D02*
G01*
X153214234Y-68351102D01*
X153219233Y-68351348D01*
X153268064Y-68356158D01*
X153273014Y-68356892D01*
X153321139Y-68366464D01*
X153325995Y-68367680D01*
X153372950Y-68381924D01*
X153377661Y-68383610D01*
X153422994Y-68402387D01*
X153427520Y-68404527D01*
X153470793Y-68427658D01*
X153475084Y-68430231D01*
X153515883Y-68457491D01*
X153519904Y-68460473D01*
X153557833Y-68491601D01*
X153561541Y-68494962D01*
X153596238Y-68529659D01*
X153599599Y-68533367D01*
X153630727Y-68571296D01*
X153633709Y-68575317D01*
X153660969Y-68616116D01*
X153663542Y-68620407D01*
X153686673Y-68663680D01*
X153688813Y-68668206D01*
X153707590Y-68713539D01*
X153709276Y-68718250D01*
X153723520Y-68765205D01*
X153724736Y-68770061D01*
X153734308Y-68818186D01*
X153735042Y-68823136D01*
X153739852Y-68871967D01*
X153740098Y-68876966D01*
X153740098Y-68895388D01*
X153740700Y-68901500D01*
X153740700Y-69401500D01*
X153740098Y-69407612D01*
X153740098Y-69426034D01*
X153739852Y-69431033D01*
X153735042Y-69479864D01*
X153734308Y-69484814D01*
X153724736Y-69532939D01*
X153723520Y-69537795D01*
X153709276Y-69584750D01*
X153707590Y-69589461D01*
X153688813Y-69634794D01*
X153686673Y-69639320D01*
X153663542Y-69682593D01*
X153660969Y-69686884D01*
X153633709Y-69727683D01*
X153630727Y-69731704D01*
X153599599Y-69769633D01*
X153596238Y-69773341D01*
X153561541Y-69808038D01*
X153557833Y-69811399D01*
X153519904Y-69842527D01*
X153515883Y-69845509D01*
X153475084Y-69872769D01*
X153470793Y-69875342D01*
X153427520Y-69898473D01*
X153422994Y-69900613D01*
X153377661Y-69919390D01*
X153372950Y-69921076D01*
X153325995Y-69935320D01*
X153321139Y-69936536D01*
X153273014Y-69946108D01*
X153268064Y-69946842D01*
X153219233Y-69951652D01*
X153214234Y-69951898D01*
X153195812Y-69951898D01*
X153189700Y-69952500D01*
X152689700Y-69952500D01*
X152679750Y-69951520D01*
X152670183Y-69948618D01*
X152661366Y-69943905D01*
X152653638Y-69937562D01*
X152647295Y-69929834D01*
X152642582Y-69921017D01*
X152639680Y-69911450D01*
X152638700Y-69901500D01*
X152638700Y-68401500D01*
X152639680Y-68391550D01*
X152642582Y-68381983D01*
X152647295Y-68373166D01*
X152653638Y-68365438D01*
X152661366Y-68359095D01*
X152670183Y-68354382D01*
X152679750Y-68351480D01*
X152689700Y-68350500D01*
X153189700Y-68350500D01*
X153195812Y-68351102D01*
G37*
G36*
X152399650Y-68351480D02*
G01*
X152409217Y-68354382D01*
X152418034Y-68359095D01*
X152425762Y-68365438D01*
X152432105Y-68373166D01*
X152436818Y-68381983D01*
X152439720Y-68391550D01*
X152440700Y-68401500D01*
X152440700Y-69901500D01*
X152439720Y-69911450D01*
X152436818Y-69921017D01*
X152432105Y-69929834D01*
X152425762Y-69937562D01*
X152418034Y-69943905D01*
X152409217Y-69948618D01*
X152399650Y-69951520D01*
X152389700Y-69952500D01*
X151889700Y-69952500D01*
X151883588Y-69951898D01*
X151865166Y-69951898D01*
X151860167Y-69951652D01*
X151811336Y-69946842D01*
X151806386Y-69946108D01*
X151758261Y-69936536D01*
X151753405Y-69935320D01*
X151706450Y-69921076D01*
X151701739Y-69919390D01*
X151656406Y-69900613D01*
X151651880Y-69898473D01*
X151608607Y-69875342D01*
X151604316Y-69872769D01*
X151563517Y-69845509D01*
X151559496Y-69842527D01*
X151521567Y-69811399D01*
X151517859Y-69808038D01*
X151483162Y-69773341D01*
X151479801Y-69769633D01*
X151448673Y-69731704D01*
X151445691Y-69727683D01*
X151418431Y-69686884D01*
X151415858Y-69682593D01*
X151392727Y-69639320D01*
X151390587Y-69634794D01*
X151371810Y-69589461D01*
X151370124Y-69584750D01*
X151355880Y-69537795D01*
X151354664Y-69532939D01*
X151345092Y-69484814D01*
X151344358Y-69479864D01*
X151339548Y-69431033D01*
X151339302Y-69426034D01*
X151339302Y-69407612D01*
X151338700Y-69401500D01*
X151338700Y-68901500D01*
X151339302Y-68895388D01*
X151339302Y-68876966D01*
X151339548Y-68871967D01*
X151344358Y-68823136D01*
X151345092Y-68818186D01*
X151354664Y-68770061D01*
X151355880Y-68765205D01*
X151370124Y-68718250D01*
X151371810Y-68713539D01*
X151390587Y-68668206D01*
X151392727Y-68663680D01*
X151415858Y-68620407D01*
X151418431Y-68616116D01*
X151445691Y-68575317D01*
X151448673Y-68571296D01*
X151479801Y-68533367D01*
X151483162Y-68529659D01*
X151517859Y-68494962D01*
X151521567Y-68491601D01*
X151559496Y-68460473D01*
X151563517Y-68457491D01*
X151604316Y-68430231D01*
X151608607Y-68427658D01*
X151651880Y-68404527D01*
X151656406Y-68402387D01*
X151701739Y-68383610D01*
X151706450Y-68381924D01*
X151753405Y-68367680D01*
X151758261Y-68366464D01*
X151806386Y-68356892D01*
X151811336Y-68356158D01*
X151860167Y-68351348D01*
X151865166Y-68351102D01*
X151883588Y-68351102D01*
X151889700Y-68350500D01*
X152389700Y-68350500D01*
X152399650Y-68351480D01*
G37*
%TD*%
D15*
%TO.C,JP1*%
X140195300Y-55664100D03*
G36*
G01*
X138505300Y-56565100D02*
X136805300Y-56565100D01*
G75*
G02*
X136754300Y-56514100I0J51000D01*
G01*
X136754300Y-54814100D01*
G75*
G02*
X136805300Y-54763100I51000J0D01*
G01*
X138505300Y-54763100D01*
G75*
G02*
X138556300Y-54814100I0J-51000D01*
G01*
X138556300Y-56514100D01*
G75*
G02*
X138505300Y-56565100I-51000J0D01*
G01*
G37*
%TD*%
D16*
%TO.C,MH12*%
X207250000Y-101450000D03*
%TD*%
%TO.C,MH11*%
X112000000Y-101450000D03*
%TD*%
%TO.C,R4*%
G36*
G01*
X127778400Y-53207200D02*
X128304400Y-53207200D01*
G75*
G02*
X128567400Y-53470200I0J-263000D01*
G01*
X128567400Y-54096200D01*
G75*
G02*
X128304400Y-54359200I-263000J0D01*
G01*
X127778400Y-54359200D01*
G75*
G02*
X127515400Y-54096200I0J263000D01*
G01*
X127515400Y-53470200D01*
G75*
G02*
X127778400Y-53207200I263000J0D01*
G01*
G37*
G36*
G01*
X127778400Y-51457200D02*
X128304400Y-51457200D01*
G75*
G02*
X128567400Y-51720200I0J-263000D01*
G01*
X128567400Y-52346200D01*
G75*
G02*
X128304400Y-52609200I-263000J0D01*
G01*
X127778400Y-52609200D01*
G75*
G02*
X127515400Y-52346200I0J263000D01*
G01*
X127515400Y-51720200D01*
G75*
G02*
X127778400Y-51457200I263000J0D01*
G01*
G37*
%TD*%
%TO.C,LED1*%
G36*
G01*
X130166000Y-53207200D02*
X130692000Y-53207200D01*
G75*
G02*
X130955000Y-53470200I0J-263000D01*
G01*
X130955000Y-54096200D01*
G75*
G02*
X130692000Y-54359200I-263000J0D01*
G01*
X130166000Y-54359200D01*
G75*
G02*
X129903000Y-54096200I0J263000D01*
G01*
X129903000Y-53470200D01*
G75*
G02*
X130166000Y-53207200I263000J0D01*
G01*
G37*
G36*
G01*
X130166000Y-51457200D02*
X130692000Y-51457200D01*
G75*
G02*
X130955000Y-51720200I0J-263000D01*
G01*
X130955000Y-52346200D01*
G75*
G02*
X130692000Y-52609200I-263000J0D01*
G01*
X130166000Y-52609200D01*
G75*
G02*
X129903000Y-52346200I0J263000D01*
G01*
X129903000Y-51720200D01*
G75*
G02*
X130166000Y-51457200I263000J0D01*
G01*
G37*
%TD*%
D17*
%TO.C,J8*%
X114554000Y-45593000D03*
X119634000Y-45593000D03*
X124714000Y-45593000D03*
X129794000Y-45593000D03*
D18*
X112014000Y-43053000D03*
X132334000Y-43053000D03*
D19*
X117094000Y-35433000D03*
X127254000Y-35433000D03*
%TD*%
%TO.C,U6*%
G36*
G01*
X169533500Y-51293000D02*
X169533500Y-50942000D01*
G75*
G02*
X169709000Y-50766500I175500J0D01*
G01*
X171410000Y-50766500D01*
G75*
G02*
X171585500Y-50942000I0J-175500D01*
G01*
X171585500Y-51293000D01*
G75*
G02*
X171410000Y-51468500I-175500J0D01*
G01*
X169709000Y-51468500D01*
G75*
G02*
X169533500Y-51293000I0J175500D01*
G01*
G37*
G36*
G01*
X169533500Y-52563000D02*
X169533500Y-52212000D01*
G75*
G02*
X169709000Y-52036500I175500J0D01*
G01*
X171410000Y-52036500D01*
G75*
G02*
X171585500Y-52212000I0J-175500D01*
G01*
X171585500Y-52563000D01*
G75*
G02*
X171410000Y-52738500I-175500J0D01*
G01*
X169709000Y-52738500D01*
G75*
G02*
X169533500Y-52563000I0J175500D01*
G01*
G37*
G36*
G01*
X169533500Y-53833000D02*
X169533500Y-53482000D01*
G75*
G02*
X169709000Y-53306500I175500J0D01*
G01*
X171410000Y-53306500D01*
G75*
G02*
X171585500Y-53482000I0J-175500D01*
G01*
X171585500Y-53833000D01*
G75*
G02*
X171410000Y-54008500I-175500J0D01*
G01*
X169709000Y-54008500D01*
G75*
G02*
X169533500Y-53833000I0J175500D01*
G01*
G37*
G36*
G01*
X169533500Y-55103000D02*
X169533500Y-54752000D01*
G75*
G02*
X169709000Y-54576500I175500J0D01*
G01*
X171410000Y-54576500D01*
G75*
G02*
X171585500Y-54752000I0J-175500D01*
G01*
X171585500Y-55103000D01*
G75*
G02*
X171410000Y-55278500I-175500J0D01*
G01*
X169709000Y-55278500D01*
G75*
G02*
X169533500Y-55103000I0J175500D01*
G01*
G37*
G36*
G01*
X169533500Y-56373000D02*
X169533500Y-56022000D01*
G75*
G02*
X169709000Y-55846500I175500J0D01*
G01*
X171410000Y-55846500D01*
G75*
G02*
X171585500Y-56022000I0J-175500D01*
G01*
X171585500Y-56373000D01*
G75*
G02*
X171410000Y-56548500I-175500J0D01*
G01*
X169709000Y-56548500D01*
G75*
G02*
X169533500Y-56373000I0J175500D01*
G01*
G37*
G36*
G01*
X169533500Y-57643000D02*
X169533500Y-57292000D01*
G75*
G02*
X169709000Y-57116500I175500J0D01*
G01*
X171410000Y-57116500D01*
G75*
G02*
X171585500Y-57292000I0J-175500D01*
G01*
X171585500Y-57643000D01*
G75*
G02*
X171410000Y-57818500I-175500J0D01*
G01*
X169709000Y-57818500D01*
G75*
G02*
X169533500Y-57643000I0J175500D01*
G01*
G37*
G36*
G01*
X169533500Y-58913000D02*
X169533500Y-58562000D01*
G75*
G02*
X169709000Y-58386500I175500J0D01*
G01*
X171410000Y-58386500D01*
G75*
G02*
X171585500Y-58562000I0J-175500D01*
G01*
X171585500Y-58913000D01*
G75*
G02*
X171410000Y-59088500I-175500J0D01*
G01*
X169709000Y-59088500D01*
G75*
G02*
X169533500Y-58913000I0J175500D01*
G01*
G37*
G36*
G01*
X169533500Y-60183000D02*
X169533500Y-59832000D01*
G75*
G02*
X169709000Y-59656500I175500J0D01*
G01*
X171410000Y-59656500D01*
G75*
G02*
X171585500Y-59832000I0J-175500D01*
G01*
X171585500Y-60183000D01*
G75*
G02*
X171410000Y-60358500I-175500J0D01*
G01*
X169709000Y-60358500D01*
G75*
G02*
X169533500Y-60183000I0J175500D01*
G01*
G37*
G36*
G01*
X164583500Y-60183000D02*
X164583500Y-59832000D01*
G75*
G02*
X164759000Y-59656500I175500J0D01*
G01*
X166460000Y-59656500D01*
G75*
G02*
X166635500Y-59832000I0J-175500D01*
G01*
X166635500Y-60183000D01*
G75*
G02*
X166460000Y-60358500I-175500J0D01*
G01*
X164759000Y-60358500D01*
G75*
G02*
X164583500Y-60183000I0J175500D01*
G01*
G37*
G36*
G01*
X164583500Y-58913000D02*
X164583500Y-58562000D01*
G75*
G02*
X164759000Y-58386500I175500J0D01*
G01*
X166460000Y-58386500D01*
G75*
G02*
X166635500Y-58562000I0J-175500D01*
G01*
X166635500Y-58913000D01*
G75*
G02*
X166460000Y-59088500I-175500J0D01*
G01*
X164759000Y-59088500D01*
G75*
G02*
X164583500Y-58913000I0J175500D01*
G01*
G37*
G36*
G01*
X164583500Y-57643000D02*
X164583500Y-57292000D01*
G75*
G02*
X164759000Y-57116500I175500J0D01*
G01*
X166460000Y-57116500D01*
G75*
G02*
X166635500Y-57292000I0J-175500D01*
G01*
X166635500Y-57643000D01*
G75*
G02*
X166460000Y-57818500I-175500J0D01*
G01*
X164759000Y-57818500D01*
G75*
G02*
X164583500Y-57643000I0J175500D01*
G01*
G37*
G36*
G01*
X164583500Y-56373000D02*
X164583500Y-56022000D01*
G75*
G02*
X164759000Y-55846500I175500J0D01*
G01*
X166460000Y-55846500D01*
G75*
G02*
X166635500Y-56022000I0J-175500D01*
G01*
X166635500Y-56373000D01*
G75*
G02*
X166460000Y-56548500I-175500J0D01*
G01*
X164759000Y-56548500D01*
G75*
G02*
X164583500Y-56373000I0J175500D01*
G01*
G37*
G36*
G01*
X164583500Y-55103000D02*
X164583500Y-54752000D01*
G75*
G02*
X164759000Y-54576500I175500J0D01*
G01*
X166460000Y-54576500D01*
G75*
G02*
X166635500Y-54752000I0J-175500D01*
G01*
X166635500Y-55103000D01*
G75*
G02*
X166460000Y-55278500I-175500J0D01*
G01*
X164759000Y-55278500D01*
G75*
G02*
X164583500Y-55103000I0J175500D01*
G01*
G37*
G36*
G01*
X164583500Y-53833000D02*
X164583500Y-53482000D01*
G75*
G02*
X164759000Y-53306500I175500J0D01*
G01*
X166460000Y-53306500D01*
G75*
G02*
X166635500Y-53482000I0J-175500D01*
G01*
X166635500Y-53833000D01*
G75*
G02*
X166460000Y-54008500I-175500J0D01*
G01*
X164759000Y-54008500D01*
G75*
G02*
X164583500Y-53833000I0J175500D01*
G01*
G37*
G36*
G01*
X164583500Y-52563000D02*
X164583500Y-52212000D01*
G75*
G02*
X164759000Y-52036500I175500J0D01*
G01*
X166460000Y-52036500D01*
G75*
G02*
X166635500Y-52212000I0J-175500D01*
G01*
X166635500Y-52563000D01*
G75*
G02*
X166460000Y-52738500I-175500J0D01*
G01*
X164759000Y-52738500D01*
G75*
G02*
X164583500Y-52563000I0J175500D01*
G01*
G37*
G36*
G01*
X164583500Y-51293000D02*
X164583500Y-50942000D01*
G75*
G02*
X164759000Y-50766500I175500J0D01*
G01*
X166460000Y-50766500D01*
G75*
G02*
X166635500Y-50942000I0J-175500D01*
G01*
X166635500Y-51293000D01*
G75*
G02*
X166460000Y-51468500I-175500J0D01*
G01*
X164759000Y-51468500D01*
G75*
G02*
X164583500Y-51293000I0J175500D01*
G01*
G37*
%TD*%
%TO.C,U5*%
G36*
G01*
X180161000Y-60911500D02*
X180161000Y-61262500D01*
G75*
G02*
X179985500Y-61438000I-175500J0D01*
G01*
X178284500Y-61438000D01*
G75*
G02*
X178109000Y-61262500I0J175500D01*
G01*
X178109000Y-60911500D01*
G75*
G02*
X178284500Y-60736000I175500J0D01*
G01*
X179985500Y-60736000D01*
G75*
G02*
X180161000Y-60911500I0J-175500D01*
G01*
G37*
G36*
G01*
X180161000Y-59641500D02*
X180161000Y-59992500D01*
G75*
G02*
X179985500Y-60168000I-175500J0D01*
G01*
X178284500Y-60168000D01*
G75*
G02*
X178109000Y-59992500I0J175500D01*
G01*
X178109000Y-59641500D01*
G75*
G02*
X178284500Y-59466000I175500J0D01*
G01*
X179985500Y-59466000D01*
G75*
G02*
X180161000Y-59641500I0J-175500D01*
G01*
G37*
G36*
G01*
X180161000Y-58371500D02*
X180161000Y-58722500D01*
G75*
G02*
X179985500Y-58898000I-175500J0D01*
G01*
X178284500Y-58898000D01*
G75*
G02*
X178109000Y-58722500I0J175500D01*
G01*
X178109000Y-58371500D01*
G75*
G02*
X178284500Y-58196000I175500J0D01*
G01*
X179985500Y-58196000D01*
G75*
G02*
X180161000Y-58371500I0J-175500D01*
G01*
G37*
G36*
G01*
X180161000Y-57101500D02*
X180161000Y-57452500D01*
G75*
G02*
X179985500Y-57628000I-175500J0D01*
G01*
X178284500Y-57628000D01*
G75*
G02*
X178109000Y-57452500I0J175500D01*
G01*
X178109000Y-57101500D01*
G75*
G02*
X178284500Y-56926000I175500J0D01*
G01*
X179985500Y-56926000D01*
G75*
G02*
X180161000Y-57101500I0J-175500D01*
G01*
G37*
G36*
G01*
X180161000Y-55831500D02*
X180161000Y-56182500D01*
G75*
G02*
X179985500Y-56358000I-175500J0D01*
G01*
X178284500Y-56358000D01*
G75*
G02*
X178109000Y-56182500I0J175500D01*
G01*
X178109000Y-55831500D01*
G75*
G02*
X178284500Y-55656000I175500J0D01*
G01*
X179985500Y-55656000D01*
G75*
G02*
X180161000Y-55831500I0J-175500D01*
G01*
G37*
G36*
G01*
X180161000Y-54561500D02*
X180161000Y-54912500D01*
G75*
G02*
X179985500Y-55088000I-175500J0D01*
G01*
X178284500Y-55088000D01*
G75*
G02*
X178109000Y-54912500I0J175500D01*
G01*
X178109000Y-54561500D01*
G75*
G02*
X178284500Y-54386000I175500J0D01*
G01*
X179985500Y-54386000D01*
G75*
G02*
X180161000Y-54561500I0J-175500D01*
G01*
G37*
G36*
G01*
X180161000Y-53291500D02*
X180161000Y-53642500D01*
G75*
G02*
X179985500Y-53818000I-175500J0D01*
G01*
X178284500Y-53818000D01*
G75*
G02*
X178109000Y-53642500I0J175500D01*
G01*
X178109000Y-53291500D01*
G75*
G02*
X178284500Y-53116000I175500J0D01*
G01*
X179985500Y-53116000D01*
G75*
G02*
X180161000Y-53291500I0J-175500D01*
G01*
G37*
G36*
G01*
X180161000Y-52021500D02*
X180161000Y-52372500D01*
G75*
G02*
X179985500Y-52548000I-175500J0D01*
G01*
X178284500Y-52548000D01*
G75*
G02*
X178109000Y-52372500I0J175500D01*
G01*
X178109000Y-52021500D01*
G75*
G02*
X178284500Y-51846000I175500J0D01*
G01*
X179985500Y-51846000D01*
G75*
G02*
X180161000Y-52021500I0J-175500D01*
G01*
G37*
G36*
G01*
X185111000Y-52021500D02*
X185111000Y-52372500D01*
G75*
G02*
X184935500Y-52548000I-175500J0D01*
G01*
X183234500Y-52548000D01*
G75*
G02*
X183059000Y-52372500I0J175500D01*
G01*
X183059000Y-52021500D01*
G75*
G02*
X183234500Y-51846000I175500J0D01*
G01*
X184935500Y-51846000D01*
G75*
G02*
X185111000Y-52021500I0J-175500D01*
G01*
G37*
G36*
G01*
X185111000Y-53291500D02*
X185111000Y-53642500D01*
G75*
G02*
X184935500Y-53818000I-175500J0D01*
G01*
X183234500Y-53818000D01*
G75*
G02*
X183059000Y-53642500I0J175500D01*
G01*
X183059000Y-53291500D01*
G75*
G02*
X183234500Y-53116000I175500J0D01*
G01*
X184935500Y-53116000D01*
G75*
G02*
X185111000Y-53291500I0J-175500D01*
G01*
G37*
G36*
G01*
X185111000Y-54561500D02*
X185111000Y-54912500D01*
G75*
G02*
X184935500Y-55088000I-175500J0D01*
G01*
X183234500Y-55088000D01*
G75*
G02*
X183059000Y-54912500I0J175500D01*
G01*
X183059000Y-54561500D01*
G75*
G02*
X183234500Y-54386000I175500J0D01*
G01*
X184935500Y-54386000D01*
G75*
G02*
X185111000Y-54561500I0J-175500D01*
G01*
G37*
G36*
G01*
X185111000Y-55831500D02*
X185111000Y-56182500D01*
G75*
G02*
X184935500Y-56358000I-175500J0D01*
G01*
X183234500Y-56358000D01*
G75*
G02*
X183059000Y-56182500I0J175500D01*
G01*
X183059000Y-55831500D01*
G75*
G02*
X183234500Y-55656000I175500J0D01*
G01*
X184935500Y-55656000D01*
G75*
G02*
X185111000Y-55831500I0J-175500D01*
G01*
G37*
G36*
G01*
X185111000Y-57101500D02*
X185111000Y-57452500D01*
G75*
G02*
X184935500Y-57628000I-175500J0D01*
G01*
X183234500Y-57628000D01*
G75*
G02*
X183059000Y-57452500I0J175500D01*
G01*
X183059000Y-57101500D01*
G75*
G02*
X183234500Y-56926000I175500J0D01*
G01*
X184935500Y-56926000D01*
G75*
G02*
X185111000Y-57101500I0J-175500D01*
G01*
G37*
G36*
G01*
X185111000Y-58371500D02*
X185111000Y-58722500D01*
G75*
G02*
X184935500Y-58898000I-175500J0D01*
G01*
X183234500Y-58898000D01*
G75*
G02*
X183059000Y-58722500I0J175500D01*
G01*
X183059000Y-58371500D01*
G75*
G02*
X183234500Y-58196000I175500J0D01*
G01*
X184935500Y-58196000D01*
G75*
G02*
X185111000Y-58371500I0J-175500D01*
G01*
G37*
G36*
G01*
X185111000Y-59641500D02*
X185111000Y-59992500D01*
G75*
G02*
X184935500Y-60168000I-175500J0D01*
G01*
X183234500Y-60168000D01*
G75*
G02*
X183059000Y-59992500I0J175500D01*
G01*
X183059000Y-59641500D01*
G75*
G02*
X183234500Y-59466000I175500J0D01*
G01*
X184935500Y-59466000D01*
G75*
G02*
X185111000Y-59641500I0J-175500D01*
G01*
G37*
G36*
G01*
X185111000Y-60911500D02*
X185111000Y-61262500D01*
G75*
G02*
X184935500Y-61438000I-175500J0D01*
G01*
X183234500Y-61438000D01*
G75*
G02*
X183059000Y-61262500I0J175500D01*
G01*
X183059000Y-60911500D01*
G75*
G02*
X183234500Y-60736000I175500J0D01*
G01*
X184935500Y-60736000D01*
G75*
G02*
X185111000Y-60911500I0J-175500D01*
G01*
G37*
%TD*%
%TO.C,C9*%
G36*
G01*
X173427500Y-50323200D02*
X172901500Y-50323200D01*
G75*
G02*
X172638500Y-50060200I0J263000D01*
G01*
X172638500Y-49434200D01*
G75*
G02*
X172901500Y-49171200I263000J0D01*
G01*
X173427500Y-49171200D01*
G75*
G02*
X173690500Y-49434200I0J-263000D01*
G01*
X173690500Y-50060200D01*
G75*
G02*
X173427500Y-50323200I-263000J0D01*
G01*
G37*
G36*
G01*
X173427500Y-52073200D02*
X172901500Y-52073200D01*
G75*
G02*
X172638500Y-51810200I0J263000D01*
G01*
X172638500Y-51184200D01*
G75*
G02*
X172901500Y-50921200I263000J0D01*
G01*
X173427500Y-50921200D01*
G75*
G02*
X173690500Y-51184200I0J-263000D01*
G01*
X173690500Y-51810200D01*
G75*
G02*
X173427500Y-52073200I-263000J0D01*
G01*
G37*
%TD*%
%TO.C,C8*%
G36*
G01*
X168260006Y-47053400D02*
X166943794Y-47053400D01*
G75*
G02*
X166675900Y-46785506I0J267894D01*
G01*
X166675900Y-45794294D01*
G75*
G02*
X166943794Y-45526400I267894J0D01*
G01*
X168260006Y-45526400D01*
G75*
G02*
X168527900Y-45794294I0J-267894D01*
G01*
X168527900Y-46785506D01*
G75*
G02*
X168260006Y-47053400I-267894J0D01*
G01*
G37*
G36*
G01*
X168260006Y-50028400D02*
X166943794Y-50028400D01*
G75*
G02*
X166675900Y-49760506I0J267894D01*
G01*
X166675900Y-48769294D01*
G75*
G02*
X166943794Y-48501400I267894J0D01*
G01*
X168260006Y-48501400D01*
G75*
G02*
X168527900Y-48769294I0J-267894D01*
G01*
X168527900Y-49760506D01*
G75*
G02*
X168260006Y-50028400I-267894J0D01*
G01*
G37*
%TD*%
%TO.C,C7*%
G36*
G01*
X176170700Y-58425800D02*
X175644700Y-58425800D01*
G75*
G02*
X175381700Y-58162800I0J263000D01*
G01*
X175381700Y-57536800D01*
G75*
G02*
X175644700Y-57273800I263000J0D01*
G01*
X176170700Y-57273800D01*
G75*
G02*
X176433700Y-57536800I0J-263000D01*
G01*
X176433700Y-58162800D01*
G75*
G02*
X176170700Y-58425800I-263000J0D01*
G01*
G37*
G36*
G01*
X176170700Y-60175800D02*
X175644700Y-60175800D01*
G75*
G02*
X175381700Y-59912800I0J263000D01*
G01*
X175381700Y-59286800D01*
G75*
G02*
X175644700Y-59023800I263000J0D01*
G01*
X176170700Y-59023800D01*
G75*
G02*
X176433700Y-59286800I0J-263000D01*
G01*
X176433700Y-59912800D01*
G75*
G02*
X176170700Y-60175800I-263000J0D01*
G01*
G37*
%TD*%
%TO.C,C6*%
G36*
G01*
X179143906Y-47764600D02*
X177827694Y-47764600D01*
G75*
G02*
X177559800Y-47496706I0J267894D01*
G01*
X177559800Y-46505494D01*
G75*
G02*
X177827694Y-46237600I267894J0D01*
G01*
X179143906Y-46237600D01*
G75*
G02*
X179411800Y-46505494I0J-267894D01*
G01*
X179411800Y-47496706D01*
G75*
G02*
X179143906Y-47764600I-267894J0D01*
G01*
G37*
G36*
G01*
X179143906Y-50739600D02*
X177827694Y-50739600D01*
G75*
G02*
X177559800Y-50471706I0J267894D01*
G01*
X177559800Y-49480494D01*
G75*
G02*
X177827694Y-49212600I267894J0D01*
G01*
X179143906Y-49212600D01*
G75*
G02*
X179411800Y-49480494I0J-267894D01*
G01*
X179411800Y-50471706D01*
G75*
G02*
X179143906Y-50739600I-267894J0D01*
G01*
G37*
%TD*%
D20*
%TO.C,MH10*%
X138514000Y-126150000D03*
%TD*%
%TO.C,MH9*%
X196514000Y-126150000D03*
%TD*%
D15*
%TO.C,J2*%
X201930000Y-41656000D03*
X201930000Y-44196000D03*
X199390000Y-41656000D03*
X199390000Y-44196000D03*
X196850000Y-41656000D03*
X196850000Y-44196000D03*
X194310000Y-41656000D03*
X194310000Y-44196000D03*
X191770000Y-41656000D03*
X191770000Y-44196000D03*
X189230000Y-41656000D03*
X189230000Y-44196000D03*
X186690000Y-41656000D03*
X186690000Y-44196000D03*
X184150000Y-41656000D03*
X184150000Y-44196000D03*
X181610000Y-41656000D03*
X181610000Y-44196000D03*
X179070000Y-41656000D03*
X179070000Y-44196000D03*
X176530000Y-41656000D03*
X176530000Y-44196000D03*
X173990000Y-41656000D03*
X173990000Y-44196000D03*
X171450000Y-41656000D03*
X171450000Y-44196000D03*
X168910000Y-41656000D03*
X168910000Y-44196000D03*
X166370000Y-41656000D03*
X166370000Y-44196000D03*
X163830000Y-41656000D03*
X163830000Y-44196000D03*
X161290000Y-41656000D03*
X161290000Y-44196000D03*
X158750000Y-41656000D03*
X158750000Y-44196000D03*
X156210000Y-41656000D03*
X156210000Y-44196000D03*
X153670000Y-41656000D03*
X153670000Y-44196000D03*
X151130000Y-41656000D03*
X151130000Y-44196000D03*
X148590000Y-41656000D03*
X148590000Y-44196000D03*
X146050000Y-41656000D03*
X146050000Y-44196000D03*
X143510000Y-41656000D03*
X143510000Y-44196000D03*
X140970000Y-41656000D03*
G36*
G01*
X141820000Y-45097000D02*
X140120000Y-45097000D01*
G75*
G02*
X140069000Y-45046000I0J51000D01*
G01*
X140069000Y-43346000D01*
G75*
G02*
X140120000Y-43295000I51000J0D01*
G01*
X141820000Y-43295000D01*
G75*
G02*
X141871000Y-43346000I0J-51000D01*
G01*
X141871000Y-45046000D01*
G75*
G02*
X141820000Y-45097000I-51000J0D01*
G01*
G37*
%TD*%
D16*
%TO.C,MH8*%
X207250000Y-133200000D03*
%TD*%
%TO.C,MH7*%
X207250000Y-57000000D03*
%TD*%
%TO.C,MH6*%
X112000000Y-133200000D03*
%TD*%
%TO.C,MH5*%
X112000000Y-57000000D03*
%TD*%
D21*
%TO.C,J6*%
X119634000Y-49784000D03*
X117134000Y-49784000D03*
X114634000Y-49784000D03*
G36*
G01*
X112584500Y-50685000D02*
X111683500Y-50685000D01*
G75*
G02*
X111233000Y-50234500I0J450500D01*
G01*
X111233000Y-49333500D01*
G75*
G02*
X111683500Y-48883000I450500J0D01*
G01*
X112584500Y-48883000D01*
G75*
G02*
X113035000Y-49333500I0J-450500D01*
G01*
X113035000Y-50234500D01*
G75*
G02*
X112584500Y-50685000I-450500J0D01*
G01*
G37*
%TD*%
%TO.C,D2*%
G36*
G01*
X120940200Y-57500900D02*
X120940200Y-56849900D01*
G75*
G02*
X121265700Y-56524400I325500J0D01*
G01*
X122216700Y-56524400D01*
G75*
G02*
X122542200Y-56849900I0J-325500D01*
G01*
X122542200Y-57500900D01*
G75*
G02*
X122216700Y-57826400I-325500J0D01*
G01*
X121265700Y-57826400D01*
G75*
G02*
X120940200Y-57500900I0J325500D01*
G01*
G37*
G36*
G01*
X117640200Y-57500900D02*
X117640200Y-56849900D01*
G75*
G02*
X117965700Y-56524400I325500J0D01*
G01*
X118916700Y-56524400D01*
G75*
G02*
X119242200Y-56849900I0J-325500D01*
G01*
X119242200Y-57500900D01*
G75*
G02*
X118916700Y-57826400I-325500J0D01*
G01*
X117965700Y-57826400D01*
G75*
G02*
X117640200Y-57500900I0J325500D01*
G01*
G37*
%TD*%
%TO.C,D1*%
G36*
G01*
X136428100Y-51852200D02*
X137079100Y-51852200D01*
G75*
G02*
X137404600Y-52177700I0J-325500D01*
G01*
X137404600Y-53128700D01*
G75*
G02*
X137079100Y-53454200I-325500J0D01*
G01*
X136428100Y-53454200D01*
G75*
G02*
X136102600Y-53128700I0J325500D01*
G01*
X136102600Y-52177700D01*
G75*
G02*
X136428100Y-51852200I325500J0D01*
G01*
G37*
G36*
G01*
X136428100Y-48552200D02*
X137079100Y-48552200D01*
G75*
G02*
X137404600Y-48877700I0J-325500D01*
G01*
X137404600Y-49828700D01*
G75*
G02*
X137079100Y-50154200I-325500J0D01*
G01*
X136428100Y-50154200D01*
G75*
G02*
X136102600Y-49828700I0J325500D01*
G01*
X136102600Y-48877700D01*
G75*
G02*
X136428100Y-48552200I325500J0D01*
G01*
G37*
%TD*%
%TO.C,R3*%
G36*
G01*
X125126200Y-57547400D02*
X125126200Y-58073400D01*
G75*
G02*
X124863200Y-58336400I-263000J0D01*
G01*
X124237200Y-58336400D01*
G75*
G02*
X123974200Y-58073400I0J263000D01*
G01*
X123974200Y-57547400D01*
G75*
G02*
X124237200Y-57284400I263000J0D01*
G01*
X124863200Y-57284400D01*
G75*
G02*
X125126200Y-57547400I0J-263000D01*
G01*
G37*
G36*
G01*
X126876200Y-57547400D02*
X126876200Y-58073400D01*
G75*
G02*
X126613200Y-58336400I-263000J0D01*
G01*
X125987200Y-58336400D01*
G75*
G02*
X125724200Y-58073400I0J263000D01*
G01*
X125724200Y-57547400D01*
G75*
G02*
X125987200Y-57284400I263000J0D01*
G01*
X126613200Y-57284400D01*
G75*
G02*
X126876200Y-57547400I0J-263000D01*
G01*
G37*
%TD*%
%TO.C,R2*%
G36*
G01*
X125648000Y-60207000D02*
X125648000Y-59681000D01*
G75*
G02*
X125911000Y-59418000I263000J0D01*
G01*
X126537000Y-59418000D01*
G75*
G02*
X126800000Y-59681000I0J-263000D01*
G01*
X126800000Y-60207000D01*
G75*
G02*
X126537000Y-60470000I-263000J0D01*
G01*
X125911000Y-60470000D01*
G75*
G02*
X125648000Y-60207000I0J263000D01*
G01*
G37*
G36*
G01*
X123898000Y-60207000D02*
X123898000Y-59681000D01*
G75*
G02*
X124161000Y-59418000I263000J0D01*
G01*
X124787000Y-59418000D01*
G75*
G02*
X125050000Y-59681000I0J-263000D01*
G01*
X125050000Y-60207000D01*
G75*
G02*
X124787000Y-60470000I-263000J0D01*
G01*
X124161000Y-60470000D01*
G75*
G02*
X123898000Y-60207000I0J263000D01*
G01*
G37*
%TD*%
D20*
%TO.C,MH4*%
X196514000Y-100150000D03*
%TD*%
%TO.C,MH3*%
X196514000Y-77150000D03*
%TD*%
%TO.C,MH2*%
X138514000Y-77150000D03*
%TD*%
%TO.C,LED2*%
G36*
G01*
X180737400Y-68802800D02*
X181263400Y-68802800D01*
G75*
G02*
X181526400Y-69065800I0J-263000D01*
G01*
X181526400Y-69691800D01*
G75*
G02*
X181263400Y-69954800I-263000J0D01*
G01*
X180737400Y-69954800D01*
G75*
G02*
X180474400Y-69691800I0J263000D01*
G01*
X180474400Y-69065800D01*
G75*
G02*
X180737400Y-68802800I263000J0D01*
G01*
G37*
G36*
G01*
X180737400Y-67052800D02*
X181263400Y-67052800D01*
G75*
G02*
X181526400Y-67315800I0J-263000D01*
G01*
X181526400Y-67941800D01*
G75*
G02*
X181263400Y-68204800I-263000J0D01*
G01*
X180737400Y-68204800D01*
G75*
G02*
X180474400Y-67941800I0J263000D01*
G01*
X180474400Y-67315800D01*
G75*
G02*
X180737400Y-67052800I263000J0D01*
G01*
G37*
%TD*%
D22*
%TO.C,J7*%
X158162600Y-64833500D03*
X160662600Y-64833500D03*
X163162600Y-64833500D03*
X165662600Y-64833500D03*
X168162600Y-64833500D03*
G36*
G01*
X171563600Y-64072500D02*
X171563600Y-65594500D01*
G75*
G02*
X171298600Y-65859500I-265000J0D01*
G01*
X170026600Y-65859500D01*
G75*
G02*
X169761600Y-65594500I0J265000D01*
G01*
X169761600Y-64072500D01*
G75*
G02*
X170026600Y-63807500I265000J0D01*
G01*
X171298600Y-63807500D01*
G75*
G02*
X171563600Y-64072500I0J-265000D01*
G01*
G37*
%TD*%
D23*
%TO.C,J5*%
X114046000Y-66508000D03*
G36*
G01*
X113260000Y-63107000D02*
X114832000Y-63107000D01*
G75*
G02*
X115097000Y-63372000I0J-265000D01*
G01*
X115097000Y-64644000D01*
G75*
G02*
X114832000Y-64909000I-265000J0D01*
G01*
X113260000Y-64909000D01*
G75*
G02*
X112995000Y-64644000I0J265000D01*
G01*
X112995000Y-63372000D01*
G75*
G02*
X113260000Y-63107000I265000J0D01*
G01*
G37*
%TD*%
%TO.C,J4*%
X120650000Y-66508000D03*
G36*
G01*
X119864000Y-63107000D02*
X121436000Y-63107000D01*
G75*
G02*
X121701000Y-63372000I0J-265000D01*
G01*
X121701000Y-64644000D01*
G75*
G02*
X121436000Y-64909000I-265000J0D01*
G01*
X119864000Y-64909000D01*
G75*
G02*
X119599000Y-64644000I0J265000D01*
G01*
X119599000Y-63372000D01*
G75*
G02*
X119864000Y-63107000I265000J0D01*
G01*
G37*
%TD*%
D20*
%TO.C,MH1*%
X138514000Y-100150000D03*
%TD*%
%TO.C,U4*%
G36*
G01*
X145173000Y-85263000D02*
X145173000Y-84663000D01*
G75*
G02*
X145224000Y-84612000I51000J0D01*
G01*
X146724000Y-84612000D01*
G75*
G02*
X146775000Y-84663000I0J-51000D01*
G01*
X146775000Y-85263000D01*
G75*
G02*
X146724000Y-85314000I-51000J0D01*
G01*
X145224000Y-85314000D01*
G75*
G02*
X145173000Y-85263000I0J51000D01*
G01*
G37*
G36*
G01*
X145173000Y-86533000D02*
X145173000Y-85933000D01*
G75*
G02*
X145224000Y-85882000I51000J0D01*
G01*
X146724000Y-85882000D01*
G75*
G02*
X146775000Y-85933000I0J-51000D01*
G01*
X146775000Y-86533000D01*
G75*
G02*
X146724000Y-86584000I-51000J0D01*
G01*
X145224000Y-86584000D01*
G75*
G02*
X145173000Y-86533000I0J51000D01*
G01*
G37*
G36*
G01*
X145173000Y-87803000D02*
X145173000Y-87203000D01*
G75*
G02*
X145224000Y-87152000I51000J0D01*
G01*
X146724000Y-87152000D01*
G75*
G02*
X146775000Y-87203000I0J-51000D01*
G01*
X146775000Y-87803000D01*
G75*
G02*
X146724000Y-87854000I-51000J0D01*
G01*
X145224000Y-87854000D01*
G75*
G02*
X145173000Y-87803000I0J51000D01*
G01*
G37*
G36*
G01*
X145173000Y-89073000D02*
X145173000Y-88473000D01*
G75*
G02*
X145224000Y-88422000I51000J0D01*
G01*
X146724000Y-88422000D01*
G75*
G02*
X146775000Y-88473000I0J-51000D01*
G01*
X146775000Y-89073000D01*
G75*
G02*
X146724000Y-89124000I-51000J0D01*
G01*
X145224000Y-89124000D01*
G75*
G02*
X145173000Y-89073000I0J51000D01*
G01*
G37*
G36*
G01*
X145173000Y-90343000D02*
X145173000Y-89743000D01*
G75*
G02*
X145224000Y-89692000I51000J0D01*
G01*
X146724000Y-89692000D01*
G75*
G02*
X146775000Y-89743000I0J-51000D01*
G01*
X146775000Y-90343000D01*
G75*
G02*
X146724000Y-90394000I-51000J0D01*
G01*
X145224000Y-90394000D01*
G75*
G02*
X145173000Y-90343000I0J51000D01*
G01*
G37*
G36*
G01*
X145173000Y-91613000D02*
X145173000Y-91013000D01*
G75*
G02*
X145224000Y-90962000I51000J0D01*
G01*
X146724000Y-90962000D01*
G75*
G02*
X146775000Y-91013000I0J-51000D01*
G01*
X146775000Y-91613000D01*
G75*
G02*
X146724000Y-91664000I-51000J0D01*
G01*
X145224000Y-91664000D01*
G75*
G02*
X145173000Y-91613000I0J51000D01*
G01*
G37*
G36*
G01*
X145173000Y-92883000D02*
X145173000Y-92283000D01*
G75*
G02*
X145224000Y-92232000I51000J0D01*
G01*
X146724000Y-92232000D01*
G75*
G02*
X146775000Y-92283000I0J-51000D01*
G01*
X146775000Y-92883000D01*
G75*
G02*
X146724000Y-92934000I-51000J0D01*
G01*
X145224000Y-92934000D01*
G75*
G02*
X145173000Y-92883000I0J51000D01*
G01*
G37*
G36*
G01*
X145173000Y-94153000D02*
X145173000Y-93553000D01*
G75*
G02*
X145224000Y-93502000I51000J0D01*
G01*
X146724000Y-93502000D01*
G75*
G02*
X146775000Y-93553000I0J-51000D01*
G01*
X146775000Y-94153000D01*
G75*
G02*
X146724000Y-94204000I-51000J0D01*
G01*
X145224000Y-94204000D01*
G75*
G02*
X145173000Y-94153000I0J51000D01*
G01*
G37*
G36*
G01*
X145173000Y-95423000D02*
X145173000Y-94823000D01*
G75*
G02*
X145224000Y-94772000I51000J0D01*
G01*
X146724000Y-94772000D01*
G75*
G02*
X146775000Y-94823000I0J-51000D01*
G01*
X146775000Y-95423000D01*
G75*
G02*
X146724000Y-95474000I-51000J0D01*
G01*
X145224000Y-95474000D01*
G75*
G02*
X145173000Y-95423000I0J51000D01*
G01*
G37*
G36*
G01*
X145173000Y-96693000D02*
X145173000Y-96093000D01*
G75*
G02*
X145224000Y-96042000I51000J0D01*
G01*
X146724000Y-96042000D01*
G75*
G02*
X146775000Y-96093000I0J-51000D01*
G01*
X146775000Y-96693000D01*
G75*
G02*
X146724000Y-96744000I-51000J0D01*
G01*
X145224000Y-96744000D01*
G75*
G02*
X145173000Y-96693000I0J51000D01*
G01*
G37*
G36*
G01*
X135673000Y-96693000D02*
X135673000Y-96093000D01*
G75*
G02*
X135724000Y-96042000I51000J0D01*
G01*
X137224000Y-96042000D01*
G75*
G02*
X137275000Y-96093000I0J-51000D01*
G01*
X137275000Y-96693000D01*
G75*
G02*
X137224000Y-96744000I-51000J0D01*
G01*
X135724000Y-96744000D01*
G75*
G02*
X135673000Y-96693000I0J51000D01*
G01*
G37*
G36*
G01*
X135673000Y-95423000D02*
X135673000Y-94823000D01*
G75*
G02*
X135724000Y-94772000I51000J0D01*
G01*
X137224000Y-94772000D01*
G75*
G02*
X137275000Y-94823000I0J-51000D01*
G01*
X137275000Y-95423000D01*
G75*
G02*
X137224000Y-95474000I-51000J0D01*
G01*
X135724000Y-95474000D01*
G75*
G02*
X135673000Y-95423000I0J51000D01*
G01*
G37*
G36*
G01*
X135673000Y-94153000D02*
X135673000Y-93553000D01*
G75*
G02*
X135724000Y-93502000I51000J0D01*
G01*
X137224000Y-93502000D01*
G75*
G02*
X137275000Y-93553000I0J-51000D01*
G01*
X137275000Y-94153000D01*
G75*
G02*
X137224000Y-94204000I-51000J0D01*
G01*
X135724000Y-94204000D01*
G75*
G02*
X135673000Y-94153000I0J51000D01*
G01*
G37*
G36*
G01*
X135673000Y-92883000D02*
X135673000Y-92283000D01*
G75*
G02*
X135724000Y-92232000I51000J0D01*
G01*
X137224000Y-92232000D01*
G75*
G02*
X137275000Y-92283000I0J-51000D01*
G01*
X137275000Y-92883000D01*
G75*
G02*
X137224000Y-92934000I-51000J0D01*
G01*
X135724000Y-92934000D01*
G75*
G02*
X135673000Y-92883000I0J51000D01*
G01*
G37*
G36*
G01*
X135673000Y-85263000D02*
X135673000Y-84663000D01*
G75*
G02*
X135724000Y-84612000I51000J0D01*
G01*
X137224000Y-84612000D01*
G75*
G02*
X137275000Y-84663000I0J-51000D01*
G01*
X137275000Y-85263000D01*
G75*
G02*
X137224000Y-85314000I-51000J0D01*
G01*
X135724000Y-85314000D01*
G75*
G02*
X135673000Y-85263000I0J51000D01*
G01*
G37*
G36*
G01*
X135673000Y-86533000D02*
X135673000Y-85933000D01*
G75*
G02*
X135724000Y-85882000I51000J0D01*
G01*
X137224000Y-85882000D01*
G75*
G02*
X137275000Y-85933000I0J-51000D01*
G01*
X137275000Y-86533000D01*
G75*
G02*
X137224000Y-86584000I-51000J0D01*
G01*
X135724000Y-86584000D01*
G75*
G02*
X135673000Y-86533000I0J51000D01*
G01*
G37*
G36*
G01*
X135673000Y-87803000D02*
X135673000Y-87203000D01*
G75*
G02*
X135724000Y-87152000I51000J0D01*
G01*
X137224000Y-87152000D01*
G75*
G02*
X137275000Y-87203000I0J-51000D01*
G01*
X137275000Y-87803000D01*
G75*
G02*
X137224000Y-87854000I-51000J0D01*
G01*
X135724000Y-87854000D01*
G75*
G02*
X135673000Y-87803000I0J51000D01*
G01*
G37*
G36*
G01*
X135673000Y-89073000D02*
X135673000Y-88473000D01*
G75*
G02*
X135724000Y-88422000I51000J0D01*
G01*
X137224000Y-88422000D01*
G75*
G02*
X137275000Y-88473000I0J-51000D01*
G01*
X137275000Y-89073000D01*
G75*
G02*
X137224000Y-89124000I-51000J0D01*
G01*
X135724000Y-89124000D01*
G75*
G02*
X135673000Y-89073000I0J51000D01*
G01*
G37*
G36*
G01*
X135673000Y-90343000D02*
X135673000Y-89743000D01*
G75*
G02*
X135724000Y-89692000I51000J0D01*
G01*
X137224000Y-89692000D01*
G75*
G02*
X137275000Y-89743000I0J-51000D01*
G01*
X137275000Y-90343000D01*
G75*
G02*
X137224000Y-90394000I-51000J0D01*
G01*
X135724000Y-90394000D01*
G75*
G02*
X135673000Y-90343000I0J51000D01*
G01*
G37*
G36*
G01*
X135673000Y-91613000D02*
X135673000Y-91013000D01*
G75*
G02*
X135724000Y-90962000I51000J0D01*
G01*
X137224000Y-90962000D01*
G75*
G02*
X137275000Y-91013000I0J-51000D01*
G01*
X137275000Y-91613000D01*
G75*
G02*
X137224000Y-91664000I-51000J0D01*
G01*
X135724000Y-91664000D01*
G75*
G02*
X135673000Y-91613000I0J51000D01*
G01*
G37*
%TD*%
%TO.C,C1*%
G36*
G01*
X198383000Y-109401000D02*
X197857000Y-109401000D01*
G75*
G02*
X197594000Y-109138000I0J263000D01*
G01*
X197594000Y-108512000D01*
G75*
G02*
X197857000Y-108249000I263000J0D01*
G01*
X198383000Y-108249000D01*
G75*
G02*
X198646000Y-108512000I0J-263000D01*
G01*
X198646000Y-109138000D01*
G75*
G02*
X198383000Y-109401000I-263000J0D01*
G01*
G37*
G36*
G01*
X198383000Y-107651000D02*
X197857000Y-107651000D01*
G75*
G02*
X197594000Y-107388000I0J263000D01*
G01*
X197594000Y-106762000D01*
G75*
G02*
X197857000Y-106499000I263000J0D01*
G01*
X198383000Y-106499000D01*
G75*
G02*
X198646000Y-106762000I0J-263000D01*
G01*
X198646000Y-107388000D01*
G75*
G02*
X198383000Y-107651000I-263000J0D01*
G01*
G37*
%TD*%
%TO.C,C2*%
G36*
G01*
X191525000Y-91395000D02*
X190999000Y-91395000D01*
G75*
G02*
X190736000Y-91132000I0J263000D01*
G01*
X190736000Y-90506000D01*
G75*
G02*
X190999000Y-90243000I263000J0D01*
G01*
X191525000Y-90243000D01*
G75*
G02*
X191788000Y-90506000I0J-263000D01*
G01*
X191788000Y-91132000D01*
G75*
G02*
X191525000Y-91395000I-263000J0D01*
G01*
G37*
G36*
G01*
X191525000Y-93145000D02*
X190999000Y-93145000D01*
G75*
G02*
X190736000Y-92882000I0J263000D01*
G01*
X190736000Y-92256000D01*
G75*
G02*
X190999000Y-91993000I263000J0D01*
G01*
X191525000Y-91993000D01*
G75*
G02*
X191788000Y-92256000I0J-263000D01*
G01*
X191788000Y-92882000D01*
G75*
G02*
X191525000Y-93145000I-263000J0D01*
G01*
G37*
%TD*%
%TO.C,C3*%
G36*
G01*
X148599000Y-105337000D02*
X148073000Y-105337000D01*
G75*
G02*
X147810000Y-105074000I0J263000D01*
G01*
X147810000Y-104448000D01*
G75*
G02*
X148073000Y-104185000I263000J0D01*
G01*
X148599000Y-104185000D01*
G75*
G02*
X148862000Y-104448000I0J-263000D01*
G01*
X148862000Y-105074000D01*
G75*
G02*
X148599000Y-105337000I-263000J0D01*
G01*
G37*
G36*
G01*
X148599000Y-103587000D02*
X148073000Y-103587000D01*
G75*
G02*
X147810000Y-103324000I0J263000D01*
G01*
X147810000Y-102698000D01*
G75*
G02*
X148073000Y-102435000I263000J0D01*
G01*
X148599000Y-102435000D01*
G75*
G02*
X148862000Y-102698000I0J-263000D01*
G01*
X148862000Y-103324000D01*
G75*
G02*
X148599000Y-103587000I-263000J0D01*
G01*
G37*
%TD*%
%TO.C,C4*%
G36*
G01*
X148073000Y-85897000D02*
X148599000Y-85897000D01*
G75*
G02*
X148862000Y-86160000I0J-263000D01*
G01*
X148862000Y-86786000D01*
G75*
G02*
X148599000Y-87049000I-263000J0D01*
G01*
X148073000Y-87049000D01*
G75*
G02*
X147810000Y-86786000I0J263000D01*
G01*
X147810000Y-86160000D01*
G75*
G02*
X148073000Y-85897000I263000J0D01*
G01*
G37*
G36*
G01*
X148073000Y-84147000D02*
X148599000Y-84147000D01*
G75*
G02*
X148862000Y-84410000I0J-263000D01*
G01*
X148862000Y-85036000D01*
G75*
G02*
X148599000Y-85299000I-263000J0D01*
G01*
X148073000Y-85299000D01*
G75*
G02*
X147810000Y-85036000I0J263000D01*
G01*
X147810000Y-84410000D01*
G75*
G02*
X148073000Y-84147000I263000J0D01*
G01*
G37*
%TD*%
%TO.C,F1*%
G36*
G01*
X136171694Y-42884800D02*
X137487906Y-42884800D01*
G75*
G02*
X137755800Y-43152694I0J-267894D01*
G01*
X137755800Y-44143906D01*
G75*
G02*
X137487906Y-44411800I-267894J0D01*
G01*
X136171694Y-44411800D01*
G75*
G02*
X135903800Y-44143906I0J267894D01*
G01*
X135903800Y-43152694D01*
G75*
G02*
X136171694Y-42884800I267894J0D01*
G01*
G37*
G36*
G01*
X136171694Y-45859800D02*
X137487906Y-45859800D01*
G75*
G02*
X137755800Y-46127694I0J-267894D01*
G01*
X137755800Y-47118906D01*
G75*
G02*
X137487906Y-47386800I-267894J0D01*
G01*
X136171694Y-47386800D01*
G75*
G02*
X135903800Y-47118906I0J267894D01*
G01*
X135903800Y-46127694D01*
G75*
G02*
X136171694Y-45859800I267894J0D01*
G01*
G37*
%TD*%
%TO.C,FL1*%
G36*
G01*
X190244500Y-82807000D02*
X191295500Y-82807000D01*
G75*
G02*
X191421000Y-82932500I0J-125500D01*
G01*
X191421000Y-83183500D01*
G75*
G02*
X191295500Y-83309000I-125500J0D01*
G01*
X190244500Y-83309000D01*
G75*
G02*
X190119000Y-83183500I0J125500D01*
G01*
X190119000Y-82932500D01*
G75*
G02*
X190244500Y-82807000I125500J0D01*
G01*
G37*
G36*
G01*
X191432000Y-81007000D02*
X192108000Y-81007000D01*
G75*
G02*
X192446000Y-81345000I0J-338000D01*
G01*
X192446000Y-82071000D01*
G75*
G02*
X192108000Y-82409000I-338000J0D01*
G01*
X191432000Y-82409000D01*
G75*
G02*
X191094000Y-82071000I0J338000D01*
G01*
X191094000Y-81345000D01*
G75*
G02*
X191432000Y-81007000I338000J0D01*
G01*
G37*
G36*
G01*
X191432000Y-83707000D02*
X192108000Y-83707000D01*
G75*
G02*
X192446000Y-84045000I0J-338000D01*
G01*
X192446000Y-84771000D01*
G75*
G02*
X192108000Y-85109000I-338000J0D01*
G01*
X191432000Y-85109000D01*
G75*
G02*
X191094000Y-84771000I0J338000D01*
G01*
X191094000Y-84045000D01*
G75*
G02*
X191432000Y-83707000I338000J0D01*
G01*
G37*
G36*
G01*
X192244500Y-82807000D02*
X193295500Y-82807000D01*
G75*
G02*
X193421000Y-82932500I0J-125500D01*
G01*
X193421000Y-83183500D01*
G75*
G02*
X193295500Y-83309000I-125500J0D01*
G01*
X192244500Y-83309000D01*
G75*
G02*
X192119000Y-83183500I0J125500D01*
G01*
X192119000Y-82932500D01*
G75*
G02*
X192244500Y-82807000I125500J0D01*
G01*
G37*
%TD*%
%TO.C,FL2*%
G36*
G01*
X138858800Y-82567300D02*
X138858800Y-83618300D01*
G75*
G02*
X138733300Y-83743800I-125500J0D01*
G01*
X138482300Y-83743800D01*
G75*
G02*
X138356800Y-83618300I0J125500D01*
G01*
X138356800Y-82567300D01*
G75*
G02*
X138482300Y-82441800I125500J0D01*
G01*
X138733300Y-82441800D01*
G75*
G02*
X138858800Y-82567300I0J-125500D01*
G01*
G37*
G36*
G01*
X137958800Y-81754800D02*
X137958800Y-82430800D01*
G75*
G02*
X137620800Y-82768800I-338000J0D01*
G01*
X136894800Y-82768800D01*
G75*
G02*
X136556800Y-82430800I0J338000D01*
G01*
X136556800Y-81754800D01*
G75*
G02*
X136894800Y-81416800I338000J0D01*
G01*
X137620800Y-81416800D01*
G75*
G02*
X137958800Y-81754800I0J-338000D01*
G01*
G37*
G36*
G01*
X140658800Y-81754800D02*
X140658800Y-82430800D01*
G75*
G02*
X140320800Y-82768800I-338000J0D01*
G01*
X139594800Y-82768800D01*
G75*
G02*
X139256800Y-82430800I0J338000D01*
G01*
X139256800Y-81754800D01*
G75*
G02*
X139594800Y-81416800I338000J0D01*
G01*
X140320800Y-81416800D01*
G75*
G02*
X140658800Y-81754800I0J-338000D01*
G01*
G37*
G36*
G01*
X138858800Y-80567300D02*
X138858800Y-81618300D01*
G75*
G02*
X138733300Y-81743800I-125500J0D01*
G01*
X138482300Y-81743800D01*
G75*
G02*
X138356800Y-81618300I0J125500D01*
G01*
X138356800Y-80567300D01*
G75*
G02*
X138482300Y-80441800I125500J0D01*
G01*
X138733300Y-80441800D01*
G75*
G02*
X138858800Y-80567300I0J-125500D01*
G01*
G37*
%TD*%
%TO.C,J1*%
G36*
G01*
X190793000Y-77521500D02*
X192493000Y-77521500D01*
G75*
G02*
X192544000Y-77572500I0J-51000D01*
G01*
X192544000Y-79272500D01*
G75*
G02*
X192493000Y-79323500I-51000J0D01*
G01*
X190793000Y-79323500D01*
G75*
G02*
X190742000Y-79272500I0J51000D01*
G01*
X190742000Y-77572500D01*
G75*
G02*
X190793000Y-77521500I51000J0D01*
G01*
G37*
D15*
X191643000Y-75882500D03*
X189103000Y-78422500D03*
X189103000Y-75882500D03*
X186563000Y-78422500D03*
X186563000Y-75882500D03*
X184023000Y-78422500D03*
X184023000Y-75882500D03*
X181483000Y-78422500D03*
X181483000Y-75882500D03*
X178943000Y-78422500D03*
X178943000Y-75882500D03*
X176403000Y-78422500D03*
X176403000Y-75882500D03*
X173863000Y-78422500D03*
X173863000Y-75882500D03*
X171323000Y-78422500D03*
X171323000Y-75882500D03*
X168783000Y-78422500D03*
X168783000Y-75882500D03*
X166243000Y-78422500D03*
X166243000Y-75882500D03*
X163703000Y-78422500D03*
X163703000Y-75882500D03*
X161163000Y-78422500D03*
X161163000Y-75882500D03*
X158623000Y-78422500D03*
X158623000Y-75882500D03*
X156083000Y-78422500D03*
X156083000Y-75882500D03*
X153543000Y-78422500D03*
X153543000Y-75882500D03*
X151003000Y-78422500D03*
X151003000Y-75882500D03*
X148463000Y-78422500D03*
X148463000Y-75882500D03*
X145923000Y-78422500D03*
X145923000Y-75882500D03*
X143383000Y-78422500D03*
X143383000Y-75882500D03*
%TD*%
%TO.C,R1*%
G36*
G01*
X179739400Y-65662200D02*
X179213400Y-65662200D01*
G75*
G02*
X178950400Y-65399200I0J263000D01*
G01*
X178950400Y-64773200D01*
G75*
G02*
X179213400Y-64510200I263000J0D01*
G01*
X179739400Y-64510200D01*
G75*
G02*
X180002400Y-64773200I0J-263000D01*
G01*
X180002400Y-65399200D01*
G75*
G02*
X179739400Y-65662200I-263000J0D01*
G01*
G37*
G36*
G01*
X179739400Y-63912200D02*
X179213400Y-63912200D01*
G75*
G02*
X178950400Y-63649200I0J263000D01*
G01*
X178950400Y-63023200D01*
G75*
G02*
X179213400Y-62760200I263000J0D01*
G01*
X179739400Y-62760200D01*
G75*
G02*
X180002400Y-63023200I0J-263000D01*
G01*
X180002400Y-63649200D01*
G75*
G02*
X179739400Y-63912200I-263000J0D01*
G01*
G37*
%TD*%
%TO.C,RN1*%
G36*
G01*
X172037000Y-99561000D02*
X172037000Y-99131000D01*
G75*
G02*
X172088000Y-99080000I51000J0D01*
G01*
X172848000Y-99080000D01*
G75*
G02*
X172899000Y-99131000I0J-51000D01*
G01*
X172899000Y-99561000D01*
G75*
G02*
X172848000Y-99612000I-51000J0D01*
G01*
X172088000Y-99612000D01*
G75*
G02*
X172037000Y-99561000I0J51000D01*
G01*
G37*
G36*
G01*
X172037000Y-98761000D02*
X172037000Y-98331000D01*
G75*
G02*
X172088000Y-98280000I51000J0D01*
G01*
X172848000Y-98280000D01*
G75*
G02*
X172899000Y-98331000I0J-51000D01*
G01*
X172899000Y-98761000D01*
G75*
G02*
X172848000Y-98812000I-51000J0D01*
G01*
X172088000Y-98812000D01*
G75*
G02*
X172037000Y-98761000I0J51000D01*
G01*
G37*
G36*
G01*
X172037000Y-104361000D02*
X172037000Y-103931000D01*
G75*
G02*
X172088000Y-103880000I51000J0D01*
G01*
X172848000Y-103880000D01*
G75*
G02*
X172899000Y-103931000I0J-51000D01*
G01*
X172899000Y-104361000D01*
G75*
G02*
X172848000Y-104412000I-51000J0D01*
G01*
X172088000Y-104412000D01*
G75*
G02*
X172037000Y-104361000I0J51000D01*
G01*
G37*
G36*
G01*
X172037000Y-103561000D02*
X172037000Y-103131000D01*
G75*
G02*
X172088000Y-103080000I51000J0D01*
G01*
X172848000Y-103080000D01*
G75*
G02*
X172899000Y-103131000I0J-51000D01*
G01*
X172899000Y-103561000D01*
G75*
G02*
X172848000Y-103612000I-51000J0D01*
G01*
X172088000Y-103612000D01*
G75*
G02*
X172037000Y-103561000I0J51000D01*
G01*
G37*
G36*
G01*
X173557000Y-103561000D02*
X173557000Y-103131000D01*
G75*
G02*
X173608000Y-103080000I51000J0D01*
G01*
X174368000Y-103080000D01*
G75*
G02*
X174419000Y-103131000I0J-51000D01*
G01*
X174419000Y-103561000D01*
G75*
G02*
X174368000Y-103612000I-51000J0D01*
G01*
X173608000Y-103612000D01*
G75*
G02*
X173557000Y-103561000I0J51000D01*
G01*
G37*
G36*
G01*
X173557000Y-104361000D02*
X173557000Y-103931000D01*
G75*
G02*
X173608000Y-103880000I51000J0D01*
G01*
X174368000Y-103880000D01*
G75*
G02*
X174419000Y-103931000I0J-51000D01*
G01*
X174419000Y-104361000D01*
G75*
G02*
X174368000Y-104412000I-51000J0D01*
G01*
X173608000Y-104412000D01*
G75*
G02*
X173557000Y-104361000I0J51000D01*
G01*
G37*
G36*
G01*
X173557000Y-98761000D02*
X173557000Y-98331000D01*
G75*
G02*
X173608000Y-98280000I51000J0D01*
G01*
X174368000Y-98280000D01*
G75*
G02*
X174419000Y-98331000I0J-51000D01*
G01*
X174419000Y-98761000D01*
G75*
G02*
X174368000Y-98812000I-51000J0D01*
G01*
X173608000Y-98812000D01*
G75*
G02*
X173557000Y-98761000I0J51000D01*
G01*
G37*
G36*
G01*
X173557000Y-99561000D02*
X173557000Y-99131000D01*
G75*
G02*
X173608000Y-99080000I51000J0D01*
G01*
X174368000Y-99080000D01*
G75*
G02*
X174419000Y-99131000I0J-51000D01*
G01*
X174419000Y-99561000D01*
G75*
G02*
X174368000Y-99612000I-51000J0D01*
G01*
X173608000Y-99612000D01*
G75*
G02*
X173557000Y-99561000I0J51000D01*
G01*
G37*
G36*
G01*
X172037000Y-102761000D02*
X172037000Y-102331000D01*
G75*
G02*
X172088000Y-102280000I51000J0D01*
G01*
X172848000Y-102280000D01*
G75*
G02*
X172899000Y-102331000I0J-51000D01*
G01*
X172899000Y-102761000D01*
G75*
G02*
X172848000Y-102812000I-51000J0D01*
G01*
X172088000Y-102812000D01*
G75*
G02*
X172037000Y-102761000I0J51000D01*
G01*
G37*
G36*
G01*
X172037000Y-100361000D02*
X172037000Y-99931000D01*
G75*
G02*
X172088000Y-99880000I51000J0D01*
G01*
X172848000Y-99880000D01*
G75*
G02*
X172899000Y-99931000I0J-51000D01*
G01*
X172899000Y-100361000D01*
G75*
G02*
X172848000Y-100412000I-51000J0D01*
G01*
X172088000Y-100412000D01*
G75*
G02*
X172037000Y-100361000I0J51000D01*
G01*
G37*
G36*
G01*
X173557000Y-100361000D02*
X173557000Y-99931000D01*
G75*
G02*
X173608000Y-99880000I51000J0D01*
G01*
X174368000Y-99880000D01*
G75*
G02*
X174419000Y-99931000I0J-51000D01*
G01*
X174419000Y-100361000D01*
G75*
G02*
X174368000Y-100412000I-51000J0D01*
G01*
X173608000Y-100412000D01*
G75*
G02*
X173557000Y-100361000I0J51000D01*
G01*
G37*
G36*
G01*
X173557000Y-102761000D02*
X173557000Y-102331000D01*
G75*
G02*
X173608000Y-102280000I51000J0D01*
G01*
X174368000Y-102280000D01*
G75*
G02*
X174419000Y-102331000I0J-51000D01*
G01*
X174419000Y-102761000D01*
G75*
G02*
X174368000Y-102812000I-51000J0D01*
G01*
X173608000Y-102812000D01*
G75*
G02*
X173557000Y-102761000I0J51000D01*
G01*
G37*
G36*
G01*
X172037000Y-101161000D02*
X172037000Y-100731000D01*
G75*
G02*
X172088000Y-100680000I51000J0D01*
G01*
X172848000Y-100680000D01*
G75*
G02*
X172899000Y-100731000I0J-51000D01*
G01*
X172899000Y-101161000D01*
G75*
G02*
X172848000Y-101212000I-51000J0D01*
G01*
X172088000Y-101212000D01*
G75*
G02*
X172037000Y-101161000I0J51000D01*
G01*
G37*
G36*
G01*
X173557000Y-101161000D02*
X173557000Y-100731000D01*
G75*
G02*
X173608000Y-100680000I51000J0D01*
G01*
X174368000Y-100680000D01*
G75*
G02*
X174419000Y-100731000I0J-51000D01*
G01*
X174419000Y-101161000D01*
G75*
G02*
X174368000Y-101212000I-51000J0D01*
G01*
X173608000Y-101212000D01*
G75*
G02*
X173557000Y-101161000I0J51000D01*
G01*
G37*
G36*
G01*
X172037000Y-101961000D02*
X172037000Y-101531000D01*
G75*
G02*
X172088000Y-101480000I51000J0D01*
G01*
X172848000Y-101480000D01*
G75*
G02*
X172899000Y-101531000I0J-51000D01*
G01*
X172899000Y-101961000D01*
G75*
G02*
X172848000Y-102012000I-51000J0D01*
G01*
X172088000Y-102012000D01*
G75*
G02*
X172037000Y-101961000I0J51000D01*
G01*
G37*
G36*
G01*
X173557000Y-101961000D02*
X173557000Y-101531000D01*
G75*
G02*
X173608000Y-101480000I51000J0D01*
G01*
X174368000Y-101480000D01*
G75*
G02*
X174419000Y-101531000I0J-51000D01*
G01*
X174419000Y-101961000D01*
G75*
G02*
X174368000Y-102012000I-51000J0D01*
G01*
X173608000Y-102012000D01*
G75*
G02*
X173557000Y-101961000I0J51000D01*
G01*
G37*
%TD*%
%TO.C,RN2*%
G36*
G01*
X150674000Y-110814800D02*
X150674000Y-111244800D01*
G75*
G02*
X150623000Y-111295800I-51000J0D01*
G01*
X149863000Y-111295800D01*
G75*
G02*
X149812000Y-111244800I0J51000D01*
G01*
X149812000Y-110814800D01*
G75*
G02*
X149863000Y-110763800I51000J0D01*
G01*
X150623000Y-110763800D01*
G75*
G02*
X150674000Y-110814800I0J-51000D01*
G01*
G37*
G36*
G01*
X152194000Y-110814800D02*
X152194000Y-111244800D01*
G75*
G02*
X152143000Y-111295800I-51000J0D01*
G01*
X151383000Y-111295800D01*
G75*
G02*
X151332000Y-111244800I0J51000D01*
G01*
X151332000Y-110814800D01*
G75*
G02*
X151383000Y-110763800I51000J0D01*
G01*
X152143000Y-110763800D01*
G75*
G02*
X152194000Y-110814800I0J-51000D01*
G01*
G37*
G36*
G01*
X150674000Y-111614800D02*
X150674000Y-112044800D01*
G75*
G02*
X150623000Y-112095800I-51000J0D01*
G01*
X149863000Y-112095800D01*
G75*
G02*
X149812000Y-112044800I0J51000D01*
G01*
X149812000Y-111614800D01*
G75*
G02*
X149863000Y-111563800I51000J0D01*
G01*
X150623000Y-111563800D01*
G75*
G02*
X150674000Y-111614800I0J-51000D01*
G01*
G37*
G36*
G01*
X152194000Y-111614800D02*
X152194000Y-112044800D01*
G75*
G02*
X152143000Y-112095800I-51000J0D01*
G01*
X151383000Y-112095800D01*
G75*
G02*
X151332000Y-112044800I0J51000D01*
G01*
X151332000Y-111614800D01*
G75*
G02*
X151383000Y-111563800I51000J0D01*
G01*
X152143000Y-111563800D01*
G75*
G02*
X152194000Y-111614800I0J-51000D01*
G01*
G37*
G36*
G01*
X150674000Y-110014800D02*
X150674000Y-110444800D01*
G75*
G02*
X150623000Y-110495800I-51000J0D01*
G01*
X149863000Y-110495800D01*
G75*
G02*
X149812000Y-110444800I0J51000D01*
G01*
X149812000Y-110014800D01*
G75*
G02*
X149863000Y-109963800I51000J0D01*
G01*
X150623000Y-109963800D01*
G75*
G02*
X150674000Y-110014800I0J-51000D01*
G01*
G37*
G36*
G01*
X150674000Y-112414800D02*
X150674000Y-112844800D01*
G75*
G02*
X150623000Y-112895800I-51000J0D01*
G01*
X149863000Y-112895800D01*
G75*
G02*
X149812000Y-112844800I0J51000D01*
G01*
X149812000Y-112414800D01*
G75*
G02*
X149863000Y-112363800I51000J0D01*
G01*
X150623000Y-112363800D01*
G75*
G02*
X150674000Y-112414800I0J-51000D01*
G01*
G37*
G36*
G01*
X152194000Y-112414800D02*
X152194000Y-112844800D01*
G75*
G02*
X152143000Y-112895800I-51000J0D01*
G01*
X151383000Y-112895800D01*
G75*
G02*
X151332000Y-112844800I0J51000D01*
G01*
X151332000Y-112414800D01*
G75*
G02*
X151383000Y-112363800I51000J0D01*
G01*
X152143000Y-112363800D01*
G75*
G02*
X152194000Y-112414800I0J-51000D01*
G01*
G37*
G36*
G01*
X152194000Y-110014800D02*
X152194000Y-110444800D01*
G75*
G02*
X152143000Y-110495800I-51000J0D01*
G01*
X151383000Y-110495800D01*
G75*
G02*
X151332000Y-110444800I0J51000D01*
G01*
X151332000Y-110014800D01*
G75*
G02*
X151383000Y-109963800I51000J0D01*
G01*
X152143000Y-109963800D01*
G75*
G02*
X152194000Y-110014800I0J-51000D01*
G01*
G37*
G36*
G01*
X150674000Y-113214800D02*
X150674000Y-113644800D01*
G75*
G02*
X150623000Y-113695800I-51000J0D01*
G01*
X149863000Y-113695800D01*
G75*
G02*
X149812000Y-113644800I0J51000D01*
G01*
X149812000Y-113214800D01*
G75*
G02*
X149863000Y-113163800I51000J0D01*
G01*
X150623000Y-113163800D01*
G75*
G02*
X150674000Y-113214800I0J-51000D01*
G01*
G37*
G36*
G01*
X150674000Y-114014800D02*
X150674000Y-114444800D01*
G75*
G02*
X150623000Y-114495800I-51000J0D01*
G01*
X149863000Y-114495800D01*
G75*
G02*
X149812000Y-114444800I0J51000D01*
G01*
X149812000Y-114014800D01*
G75*
G02*
X149863000Y-113963800I51000J0D01*
G01*
X150623000Y-113963800D01*
G75*
G02*
X150674000Y-114014800I0J-51000D01*
G01*
G37*
G36*
G01*
X150674000Y-108414800D02*
X150674000Y-108844800D01*
G75*
G02*
X150623000Y-108895800I-51000J0D01*
G01*
X149863000Y-108895800D01*
G75*
G02*
X149812000Y-108844800I0J51000D01*
G01*
X149812000Y-108414800D01*
G75*
G02*
X149863000Y-108363800I51000J0D01*
G01*
X150623000Y-108363800D01*
G75*
G02*
X150674000Y-108414800I0J-51000D01*
G01*
G37*
G36*
G01*
X150674000Y-109214800D02*
X150674000Y-109644800D01*
G75*
G02*
X150623000Y-109695800I-51000J0D01*
G01*
X149863000Y-109695800D01*
G75*
G02*
X149812000Y-109644800I0J51000D01*
G01*
X149812000Y-109214800D01*
G75*
G02*
X149863000Y-109163800I51000J0D01*
G01*
X150623000Y-109163800D01*
G75*
G02*
X150674000Y-109214800I0J-51000D01*
G01*
G37*
G36*
G01*
X152194000Y-109214800D02*
X152194000Y-109644800D01*
G75*
G02*
X152143000Y-109695800I-51000J0D01*
G01*
X151383000Y-109695800D01*
G75*
G02*
X151332000Y-109644800I0J51000D01*
G01*
X151332000Y-109214800D01*
G75*
G02*
X151383000Y-109163800I51000J0D01*
G01*
X152143000Y-109163800D01*
G75*
G02*
X152194000Y-109214800I0J-51000D01*
G01*
G37*
G36*
G01*
X152194000Y-108414800D02*
X152194000Y-108844800D01*
G75*
G02*
X152143000Y-108895800I-51000J0D01*
G01*
X151383000Y-108895800D01*
G75*
G02*
X151332000Y-108844800I0J51000D01*
G01*
X151332000Y-108414800D01*
G75*
G02*
X151383000Y-108363800I51000J0D01*
G01*
X152143000Y-108363800D01*
G75*
G02*
X152194000Y-108414800I0J-51000D01*
G01*
G37*
G36*
G01*
X152194000Y-114014800D02*
X152194000Y-114444800D01*
G75*
G02*
X152143000Y-114495800I-51000J0D01*
G01*
X151383000Y-114495800D01*
G75*
G02*
X151332000Y-114444800I0J51000D01*
G01*
X151332000Y-114014800D01*
G75*
G02*
X151383000Y-113963800I51000J0D01*
G01*
X152143000Y-113963800D01*
G75*
G02*
X152194000Y-114014800I0J-51000D01*
G01*
G37*
G36*
G01*
X152194000Y-113214800D02*
X152194000Y-113644800D01*
G75*
G02*
X152143000Y-113695800I-51000J0D01*
G01*
X151383000Y-113695800D01*
G75*
G02*
X151332000Y-113644800I0J51000D01*
G01*
X151332000Y-113214800D01*
G75*
G02*
X151383000Y-113163800I51000J0D01*
G01*
X152143000Y-113163800D01*
G75*
G02*
X152194000Y-113214800I0J-51000D01*
G01*
G37*
%TD*%
%TO.C,RN3*%
G36*
G01*
X154607000Y-93225000D02*
X154607000Y-93655000D01*
G75*
G02*
X154556000Y-93706000I-51000J0D01*
G01*
X153796000Y-93706000D01*
G75*
G02*
X153745000Y-93655000I0J51000D01*
G01*
X153745000Y-93225000D01*
G75*
G02*
X153796000Y-93174000I51000J0D01*
G01*
X154556000Y-93174000D01*
G75*
G02*
X154607000Y-93225000I0J-51000D01*
G01*
G37*
G36*
G01*
X154607000Y-94025000D02*
X154607000Y-94455000D01*
G75*
G02*
X154556000Y-94506000I-51000J0D01*
G01*
X153796000Y-94506000D01*
G75*
G02*
X153745000Y-94455000I0J51000D01*
G01*
X153745000Y-94025000D01*
G75*
G02*
X153796000Y-93974000I51000J0D01*
G01*
X154556000Y-93974000D01*
G75*
G02*
X154607000Y-94025000I0J-51000D01*
G01*
G37*
G36*
G01*
X154607000Y-88425000D02*
X154607000Y-88855000D01*
G75*
G02*
X154556000Y-88906000I-51000J0D01*
G01*
X153796000Y-88906000D01*
G75*
G02*
X153745000Y-88855000I0J51000D01*
G01*
X153745000Y-88425000D01*
G75*
G02*
X153796000Y-88374000I51000J0D01*
G01*
X154556000Y-88374000D01*
G75*
G02*
X154607000Y-88425000I0J-51000D01*
G01*
G37*
G36*
G01*
X154607000Y-89225000D02*
X154607000Y-89655000D01*
G75*
G02*
X154556000Y-89706000I-51000J0D01*
G01*
X153796000Y-89706000D01*
G75*
G02*
X153745000Y-89655000I0J51000D01*
G01*
X153745000Y-89225000D01*
G75*
G02*
X153796000Y-89174000I51000J0D01*
G01*
X154556000Y-89174000D01*
G75*
G02*
X154607000Y-89225000I0J-51000D01*
G01*
G37*
G36*
G01*
X153087000Y-89225000D02*
X153087000Y-89655000D01*
G75*
G02*
X153036000Y-89706000I-51000J0D01*
G01*
X152276000Y-89706000D01*
G75*
G02*
X152225000Y-89655000I0J51000D01*
G01*
X152225000Y-89225000D01*
G75*
G02*
X152276000Y-89174000I51000J0D01*
G01*
X153036000Y-89174000D01*
G75*
G02*
X153087000Y-89225000I0J-51000D01*
G01*
G37*
G36*
G01*
X153087000Y-88425000D02*
X153087000Y-88855000D01*
G75*
G02*
X153036000Y-88906000I-51000J0D01*
G01*
X152276000Y-88906000D01*
G75*
G02*
X152225000Y-88855000I0J51000D01*
G01*
X152225000Y-88425000D01*
G75*
G02*
X152276000Y-88374000I51000J0D01*
G01*
X153036000Y-88374000D01*
G75*
G02*
X153087000Y-88425000I0J-51000D01*
G01*
G37*
G36*
G01*
X153087000Y-94025000D02*
X153087000Y-94455000D01*
G75*
G02*
X153036000Y-94506000I-51000J0D01*
G01*
X152276000Y-94506000D01*
G75*
G02*
X152225000Y-94455000I0J51000D01*
G01*
X152225000Y-94025000D01*
G75*
G02*
X152276000Y-93974000I51000J0D01*
G01*
X153036000Y-93974000D01*
G75*
G02*
X153087000Y-94025000I0J-51000D01*
G01*
G37*
G36*
G01*
X153087000Y-93225000D02*
X153087000Y-93655000D01*
G75*
G02*
X153036000Y-93706000I-51000J0D01*
G01*
X152276000Y-93706000D01*
G75*
G02*
X152225000Y-93655000I0J51000D01*
G01*
X152225000Y-93225000D01*
G75*
G02*
X152276000Y-93174000I51000J0D01*
G01*
X153036000Y-93174000D01*
G75*
G02*
X153087000Y-93225000I0J-51000D01*
G01*
G37*
G36*
G01*
X154607000Y-90025000D02*
X154607000Y-90455000D01*
G75*
G02*
X154556000Y-90506000I-51000J0D01*
G01*
X153796000Y-90506000D01*
G75*
G02*
X153745000Y-90455000I0J51000D01*
G01*
X153745000Y-90025000D01*
G75*
G02*
X153796000Y-89974000I51000J0D01*
G01*
X154556000Y-89974000D01*
G75*
G02*
X154607000Y-90025000I0J-51000D01*
G01*
G37*
G36*
G01*
X154607000Y-92425000D02*
X154607000Y-92855000D01*
G75*
G02*
X154556000Y-92906000I-51000J0D01*
G01*
X153796000Y-92906000D01*
G75*
G02*
X153745000Y-92855000I0J51000D01*
G01*
X153745000Y-92425000D01*
G75*
G02*
X153796000Y-92374000I51000J0D01*
G01*
X154556000Y-92374000D01*
G75*
G02*
X154607000Y-92425000I0J-51000D01*
G01*
G37*
G36*
G01*
X153087000Y-92425000D02*
X153087000Y-92855000D01*
G75*
G02*
X153036000Y-92906000I-51000J0D01*
G01*
X152276000Y-92906000D01*
G75*
G02*
X152225000Y-92855000I0J51000D01*
G01*
X152225000Y-92425000D01*
G75*
G02*
X152276000Y-92374000I51000J0D01*
G01*
X153036000Y-92374000D01*
G75*
G02*
X153087000Y-92425000I0J-51000D01*
G01*
G37*
G36*
G01*
X153087000Y-90025000D02*
X153087000Y-90455000D01*
G75*
G02*
X153036000Y-90506000I-51000J0D01*
G01*
X152276000Y-90506000D01*
G75*
G02*
X152225000Y-90455000I0J51000D01*
G01*
X152225000Y-90025000D01*
G75*
G02*
X152276000Y-89974000I51000J0D01*
G01*
X153036000Y-89974000D01*
G75*
G02*
X153087000Y-90025000I0J-51000D01*
G01*
G37*
G36*
G01*
X154607000Y-91625000D02*
X154607000Y-92055000D01*
G75*
G02*
X154556000Y-92106000I-51000J0D01*
G01*
X153796000Y-92106000D01*
G75*
G02*
X153745000Y-92055000I0J51000D01*
G01*
X153745000Y-91625000D01*
G75*
G02*
X153796000Y-91574000I51000J0D01*
G01*
X154556000Y-91574000D01*
G75*
G02*
X154607000Y-91625000I0J-51000D01*
G01*
G37*
G36*
G01*
X153087000Y-91625000D02*
X153087000Y-92055000D01*
G75*
G02*
X153036000Y-92106000I-51000J0D01*
G01*
X152276000Y-92106000D01*
G75*
G02*
X152225000Y-92055000I0J51000D01*
G01*
X152225000Y-91625000D01*
G75*
G02*
X152276000Y-91574000I51000J0D01*
G01*
X153036000Y-91574000D01*
G75*
G02*
X153087000Y-91625000I0J-51000D01*
G01*
G37*
G36*
G01*
X154607000Y-90825000D02*
X154607000Y-91255000D01*
G75*
G02*
X154556000Y-91306000I-51000J0D01*
G01*
X153796000Y-91306000D01*
G75*
G02*
X153745000Y-91255000I0J51000D01*
G01*
X153745000Y-90825000D01*
G75*
G02*
X153796000Y-90774000I51000J0D01*
G01*
X154556000Y-90774000D01*
G75*
G02*
X154607000Y-90825000I0J-51000D01*
G01*
G37*
G36*
G01*
X153087000Y-90825000D02*
X153087000Y-91255000D01*
G75*
G02*
X153036000Y-91306000I-51000J0D01*
G01*
X152276000Y-91306000D01*
G75*
G02*
X152225000Y-91255000I0J51000D01*
G01*
X152225000Y-90825000D01*
G75*
G02*
X152276000Y-90774000I51000J0D01*
G01*
X153036000Y-90774000D01*
G75*
G02*
X153087000Y-90825000I0J-51000D01*
G01*
G37*
%TD*%
%TO.C,RN4*%
G36*
G01*
X176097000Y-116693000D02*
X176097000Y-116263000D01*
G75*
G02*
X176148000Y-116212000I51000J0D01*
G01*
X176908000Y-116212000D01*
G75*
G02*
X176959000Y-116263000I0J-51000D01*
G01*
X176959000Y-116693000D01*
G75*
G02*
X176908000Y-116744000I-51000J0D01*
G01*
X176148000Y-116744000D01*
G75*
G02*
X176097000Y-116693000I0J51000D01*
G01*
G37*
G36*
G01*
X174577000Y-116693000D02*
X174577000Y-116263000D01*
G75*
G02*
X174628000Y-116212000I51000J0D01*
G01*
X175388000Y-116212000D01*
G75*
G02*
X175439000Y-116263000I0J-51000D01*
G01*
X175439000Y-116693000D01*
G75*
G02*
X175388000Y-116744000I-51000J0D01*
G01*
X174628000Y-116744000D01*
G75*
G02*
X174577000Y-116693000I0J51000D01*
G01*
G37*
G36*
G01*
X176097000Y-115893000D02*
X176097000Y-115463000D01*
G75*
G02*
X176148000Y-115412000I51000J0D01*
G01*
X176908000Y-115412000D01*
G75*
G02*
X176959000Y-115463000I0J-51000D01*
G01*
X176959000Y-115893000D01*
G75*
G02*
X176908000Y-115944000I-51000J0D01*
G01*
X176148000Y-115944000D01*
G75*
G02*
X176097000Y-115893000I0J51000D01*
G01*
G37*
G36*
G01*
X174577000Y-115893000D02*
X174577000Y-115463000D01*
G75*
G02*
X174628000Y-115412000I51000J0D01*
G01*
X175388000Y-115412000D01*
G75*
G02*
X175439000Y-115463000I0J-51000D01*
G01*
X175439000Y-115893000D01*
G75*
G02*
X175388000Y-115944000I-51000J0D01*
G01*
X174628000Y-115944000D01*
G75*
G02*
X174577000Y-115893000I0J51000D01*
G01*
G37*
G36*
G01*
X176097000Y-117493000D02*
X176097000Y-117063000D01*
G75*
G02*
X176148000Y-117012000I51000J0D01*
G01*
X176908000Y-117012000D01*
G75*
G02*
X176959000Y-117063000I0J-51000D01*
G01*
X176959000Y-117493000D01*
G75*
G02*
X176908000Y-117544000I-51000J0D01*
G01*
X176148000Y-117544000D01*
G75*
G02*
X176097000Y-117493000I0J51000D01*
G01*
G37*
G36*
G01*
X176097000Y-115093000D02*
X176097000Y-114663000D01*
G75*
G02*
X176148000Y-114612000I51000J0D01*
G01*
X176908000Y-114612000D01*
G75*
G02*
X176959000Y-114663000I0J-51000D01*
G01*
X176959000Y-115093000D01*
G75*
G02*
X176908000Y-115144000I-51000J0D01*
G01*
X176148000Y-115144000D01*
G75*
G02*
X176097000Y-115093000I0J51000D01*
G01*
G37*
G36*
G01*
X174577000Y-115093000D02*
X174577000Y-114663000D01*
G75*
G02*
X174628000Y-114612000I51000J0D01*
G01*
X175388000Y-114612000D01*
G75*
G02*
X175439000Y-114663000I0J-51000D01*
G01*
X175439000Y-115093000D01*
G75*
G02*
X175388000Y-115144000I-51000J0D01*
G01*
X174628000Y-115144000D01*
G75*
G02*
X174577000Y-115093000I0J51000D01*
G01*
G37*
G36*
G01*
X174577000Y-117493000D02*
X174577000Y-117063000D01*
G75*
G02*
X174628000Y-117012000I51000J0D01*
G01*
X175388000Y-117012000D01*
G75*
G02*
X175439000Y-117063000I0J-51000D01*
G01*
X175439000Y-117493000D01*
G75*
G02*
X175388000Y-117544000I-51000J0D01*
G01*
X174628000Y-117544000D01*
G75*
G02*
X174577000Y-117493000I0J51000D01*
G01*
G37*
G36*
G01*
X176097000Y-114293000D02*
X176097000Y-113863000D01*
G75*
G02*
X176148000Y-113812000I51000J0D01*
G01*
X176908000Y-113812000D01*
G75*
G02*
X176959000Y-113863000I0J-51000D01*
G01*
X176959000Y-114293000D01*
G75*
G02*
X176908000Y-114344000I-51000J0D01*
G01*
X176148000Y-114344000D01*
G75*
G02*
X176097000Y-114293000I0J51000D01*
G01*
G37*
G36*
G01*
X176097000Y-113493000D02*
X176097000Y-113063000D01*
G75*
G02*
X176148000Y-113012000I51000J0D01*
G01*
X176908000Y-113012000D01*
G75*
G02*
X176959000Y-113063000I0J-51000D01*
G01*
X176959000Y-113493000D01*
G75*
G02*
X176908000Y-113544000I-51000J0D01*
G01*
X176148000Y-113544000D01*
G75*
G02*
X176097000Y-113493000I0J51000D01*
G01*
G37*
G36*
G01*
X176097000Y-119093000D02*
X176097000Y-118663000D01*
G75*
G02*
X176148000Y-118612000I51000J0D01*
G01*
X176908000Y-118612000D01*
G75*
G02*
X176959000Y-118663000I0J-51000D01*
G01*
X176959000Y-119093000D01*
G75*
G02*
X176908000Y-119144000I-51000J0D01*
G01*
X176148000Y-119144000D01*
G75*
G02*
X176097000Y-119093000I0J51000D01*
G01*
G37*
G36*
G01*
X176097000Y-118293000D02*
X176097000Y-117863000D01*
G75*
G02*
X176148000Y-117812000I51000J0D01*
G01*
X176908000Y-117812000D01*
G75*
G02*
X176959000Y-117863000I0J-51000D01*
G01*
X176959000Y-118293000D01*
G75*
G02*
X176908000Y-118344000I-51000J0D01*
G01*
X176148000Y-118344000D01*
G75*
G02*
X176097000Y-118293000I0J51000D01*
G01*
G37*
G36*
G01*
X174577000Y-118293000D02*
X174577000Y-117863000D01*
G75*
G02*
X174628000Y-117812000I51000J0D01*
G01*
X175388000Y-117812000D01*
G75*
G02*
X175439000Y-117863000I0J-51000D01*
G01*
X175439000Y-118293000D01*
G75*
G02*
X175388000Y-118344000I-51000J0D01*
G01*
X174628000Y-118344000D01*
G75*
G02*
X174577000Y-118293000I0J51000D01*
G01*
G37*
G36*
G01*
X174577000Y-119093000D02*
X174577000Y-118663000D01*
G75*
G02*
X174628000Y-118612000I51000J0D01*
G01*
X175388000Y-118612000D01*
G75*
G02*
X175439000Y-118663000I0J-51000D01*
G01*
X175439000Y-119093000D01*
G75*
G02*
X175388000Y-119144000I-51000J0D01*
G01*
X174628000Y-119144000D01*
G75*
G02*
X174577000Y-119093000I0J51000D01*
G01*
G37*
G36*
G01*
X174577000Y-113493000D02*
X174577000Y-113063000D01*
G75*
G02*
X174628000Y-113012000I51000J0D01*
G01*
X175388000Y-113012000D01*
G75*
G02*
X175439000Y-113063000I0J-51000D01*
G01*
X175439000Y-113493000D01*
G75*
G02*
X175388000Y-113544000I-51000J0D01*
G01*
X174628000Y-113544000D01*
G75*
G02*
X174577000Y-113493000I0J51000D01*
G01*
G37*
G36*
G01*
X174577000Y-114293000D02*
X174577000Y-113863000D01*
G75*
G02*
X174628000Y-113812000I51000J0D01*
G01*
X175388000Y-113812000D01*
G75*
G02*
X175439000Y-113863000I0J-51000D01*
G01*
X175439000Y-114293000D01*
G75*
G02*
X175388000Y-114344000I-51000J0D01*
G01*
X174628000Y-114344000D01*
G75*
G02*
X174577000Y-114293000I0J51000D01*
G01*
G37*
%TD*%
%TO.C,U1*%
G36*
G01*
X187743000Y-117521000D02*
X187743000Y-116921000D01*
G75*
G02*
X187794000Y-116870000I51000J0D01*
G01*
X189294000Y-116870000D01*
G75*
G02*
X189345000Y-116921000I0J-51000D01*
G01*
X189345000Y-117521000D01*
G75*
G02*
X189294000Y-117572000I-51000J0D01*
G01*
X187794000Y-117572000D01*
G75*
G02*
X187743000Y-117521000I0J51000D01*
G01*
G37*
G36*
G01*
X187743000Y-116251000D02*
X187743000Y-115651000D01*
G75*
G02*
X187794000Y-115600000I51000J0D01*
G01*
X189294000Y-115600000D01*
G75*
G02*
X189345000Y-115651000I0J-51000D01*
G01*
X189345000Y-116251000D01*
G75*
G02*
X189294000Y-116302000I-51000J0D01*
G01*
X187794000Y-116302000D01*
G75*
G02*
X187743000Y-116251000I0J51000D01*
G01*
G37*
G36*
G01*
X187743000Y-114981000D02*
X187743000Y-114381000D01*
G75*
G02*
X187794000Y-114330000I51000J0D01*
G01*
X189294000Y-114330000D01*
G75*
G02*
X189345000Y-114381000I0J-51000D01*
G01*
X189345000Y-114981000D01*
G75*
G02*
X189294000Y-115032000I-51000J0D01*
G01*
X187794000Y-115032000D01*
G75*
G02*
X187743000Y-114981000I0J51000D01*
G01*
G37*
G36*
G01*
X187743000Y-113711000D02*
X187743000Y-113111000D01*
G75*
G02*
X187794000Y-113060000I51000J0D01*
G01*
X189294000Y-113060000D01*
G75*
G02*
X189345000Y-113111000I0J-51000D01*
G01*
X189345000Y-113711000D01*
G75*
G02*
X189294000Y-113762000I-51000J0D01*
G01*
X187794000Y-113762000D01*
G75*
G02*
X187743000Y-113711000I0J51000D01*
G01*
G37*
G36*
G01*
X187743000Y-112441000D02*
X187743000Y-111841000D01*
G75*
G02*
X187794000Y-111790000I51000J0D01*
G01*
X189294000Y-111790000D01*
G75*
G02*
X189345000Y-111841000I0J-51000D01*
G01*
X189345000Y-112441000D01*
G75*
G02*
X189294000Y-112492000I-51000J0D01*
G01*
X187794000Y-112492000D01*
G75*
G02*
X187743000Y-112441000I0J51000D01*
G01*
G37*
G36*
G01*
X187743000Y-111171000D02*
X187743000Y-110571000D01*
G75*
G02*
X187794000Y-110520000I51000J0D01*
G01*
X189294000Y-110520000D01*
G75*
G02*
X189345000Y-110571000I0J-51000D01*
G01*
X189345000Y-111171000D01*
G75*
G02*
X189294000Y-111222000I-51000J0D01*
G01*
X187794000Y-111222000D01*
G75*
G02*
X187743000Y-111171000I0J51000D01*
G01*
G37*
G36*
G01*
X187743000Y-118791000D02*
X187743000Y-118191000D01*
G75*
G02*
X187794000Y-118140000I51000J0D01*
G01*
X189294000Y-118140000D01*
G75*
G02*
X189345000Y-118191000I0J-51000D01*
G01*
X189345000Y-118791000D01*
G75*
G02*
X189294000Y-118842000I-51000J0D01*
G01*
X187794000Y-118842000D01*
G75*
G02*
X187743000Y-118791000I0J51000D01*
G01*
G37*
G36*
G01*
X187743000Y-120061000D02*
X187743000Y-119461000D01*
G75*
G02*
X187794000Y-119410000I51000J0D01*
G01*
X189294000Y-119410000D01*
G75*
G02*
X189345000Y-119461000I0J-51000D01*
G01*
X189345000Y-120061000D01*
G75*
G02*
X189294000Y-120112000I-51000J0D01*
G01*
X187794000Y-120112000D01*
G75*
G02*
X187743000Y-120061000I0J51000D01*
G01*
G37*
G36*
G01*
X187743000Y-121331000D02*
X187743000Y-120731000D01*
G75*
G02*
X187794000Y-120680000I51000J0D01*
G01*
X189294000Y-120680000D01*
G75*
G02*
X189345000Y-120731000I0J-51000D01*
G01*
X189345000Y-121331000D01*
G75*
G02*
X189294000Y-121382000I-51000J0D01*
G01*
X187794000Y-121382000D01*
G75*
G02*
X187743000Y-121331000I0J51000D01*
G01*
G37*
G36*
G01*
X187743000Y-122601000D02*
X187743000Y-122001000D01*
G75*
G02*
X187794000Y-121950000I51000J0D01*
G01*
X189294000Y-121950000D01*
G75*
G02*
X189345000Y-122001000I0J-51000D01*
G01*
X189345000Y-122601000D01*
G75*
G02*
X189294000Y-122652000I-51000J0D01*
G01*
X187794000Y-122652000D01*
G75*
G02*
X187743000Y-122601000I0J51000D01*
G01*
G37*
G36*
G01*
X197243000Y-122601000D02*
X197243000Y-122001000D01*
G75*
G02*
X197294000Y-121950000I51000J0D01*
G01*
X198794000Y-121950000D01*
G75*
G02*
X198845000Y-122001000I0J-51000D01*
G01*
X198845000Y-122601000D01*
G75*
G02*
X198794000Y-122652000I-51000J0D01*
G01*
X197294000Y-122652000D01*
G75*
G02*
X197243000Y-122601000I0J51000D01*
G01*
G37*
G36*
G01*
X197243000Y-121331000D02*
X197243000Y-120731000D01*
G75*
G02*
X197294000Y-120680000I51000J0D01*
G01*
X198794000Y-120680000D01*
G75*
G02*
X198845000Y-120731000I0J-51000D01*
G01*
X198845000Y-121331000D01*
G75*
G02*
X198794000Y-121382000I-51000J0D01*
G01*
X197294000Y-121382000D01*
G75*
G02*
X197243000Y-121331000I0J51000D01*
G01*
G37*
G36*
G01*
X197243000Y-120061000D02*
X197243000Y-119461000D01*
G75*
G02*
X197294000Y-119410000I51000J0D01*
G01*
X198794000Y-119410000D01*
G75*
G02*
X198845000Y-119461000I0J-51000D01*
G01*
X198845000Y-120061000D01*
G75*
G02*
X198794000Y-120112000I-51000J0D01*
G01*
X197294000Y-120112000D01*
G75*
G02*
X197243000Y-120061000I0J51000D01*
G01*
G37*
G36*
G01*
X197243000Y-118791000D02*
X197243000Y-118191000D01*
G75*
G02*
X197294000Y-118140000I51000J0D01*
G01*
X198794000Y-118140000D01*
G75*
G02*
X198845000Y-118191000I0J-51000D01*
G01*
X198845000Y-118791000D01*
G75*
G02*
X198794000Y-118842000I-51000J0D01*
G01*
X197294000Y-118842000D01*
G75*
G02*
X197243000Y-118791000I0J51000D01*
G01*
G37*
G36*
G01*
X197243000Y-117521000D02*
X197243000Y-116921000D01*
G75*
G02*
X197294000Y-116870000I51000J0D01*
G01*
X198794000Y-116870000D01*
G75*
G02*
X198845000Y-116921000I0J-51000D01*
G01*
X198845000Y-117521000D01*
G75*
G02*
X198794000Y-117572000I-51000J0D01*
G01*
X197294000Y-117572000D01*
G75*
G02*
X197243000Y-117521000I0J51000D01*
G01*
G37*
G36*
G01*
X197243000Y-116251000D02*
X197243000Y-115651000D01*
G75*
G02*
X197294000Y-115600000I51000J0D01*
G01*
X198794000Y-115600000D01*
G75*
G02*
X198845000Y-115651000I0J-51000D01*
G01*
X198845000Y-116251000D01*
G75*
G02*
X198794000Y-116302000I-51000J0D01*
G01*
X197294000Y-116302000D01*
G75*
G02*
X197243000Y-116251000I0J51000D01*
G01*
G37*
G36*
G01*
X197243000Y-114981000D02*
X197243000Y-114381000D01*
G75*
G02*
X197294000Y-114330000I51000J0D01*
G01*
X198794000Y-114330000D01*
G75*
G02*
X198845000Y-114381000I0J-51000D01*
G01*
X198845000Y-114981000D01*
G75*
G02*
X198794000Y-115032000I-51000J0D01*
G01*
X197294000Y-115032000D01*
G75*
G02*
X197243000Y-114981000I0J51000D01*
G01*
G37*
G36*
G01*
X197243000Y-113711000D02*
X197243000Y-113111000D01*
G75*
G02*
X197294000Y-113060000I51000J0D01*
G01*
X198794000Y-113060000D01*
G75*
G02*
X198845000Y-113111000I0J-51000D01*
G01*
X198845000Y-113711000D01*
G75*
G02*
X198794000Y-113762000I-51000J0D01*
G01*
X197294000Y-113762000D01*
G75*
G02*
X197243000Y-113711000I0J51000D01*
G01*
G37*
G36*
G01*
X197243000Y-112441000D02*
X197243000Y-111841000D01*
G75*
G02*
X197294000Y-111790000I51000J0D01*
G01*
X198794000Y-111790000D01*
G75*
G02*
X198845000Y-111841000I0J-51000D01*
G01*
X198845000Y-112441000D01*
G75*
G02*
X198794000Y-112492000I-51000J0D01*
G01*
X197294000Y-112492000D01*
G75*
G02*
X197243000Y-112441000I0J51000D01*
G01*
G37*
G36*
G01*
X197243000Y-111171000D02*
X197243000Y-110571000D01*
G75*
G02*
X197294000Y-110520000I51000J0D01*
G01*
X198794000Y-110520000D01*
G75*
G02*
X198845000Y-110571000I0J-51000D01*
G01*
X198845000Y-111171000D01*
G75*
G02*
X198794000Y-111222000I-51000J0D01*
G01*
X197294000Y-111222000D01*
G75*
G02*
X197243000Y-111171000I0J51000D01*
G01*
G37*
%TD*%
%TO.C,U2*%
G36*
G01*
X190385000Y-94661000D02*
X190385000Y-94061000D01*
G75*
G02*
X190436000Y-94010000I51000J0D01*
G01*
X191936000Y-94010000D01*
G75*
G02*
X191987000Y-94061000I0J-51000D01*
G01*
X191987000Y-94661000D01*
G75*
G02*
X191936000Y-94712000I-51000J0D01*
G01*
X190436000Y-94712000D01*
G75*
G02*
X190385000Y-94661000I0J51000D01*
G01*
G37*
G36*
G01*
X190385000Y-95931000D02*
X190385000Y-95331000D01*
G75*
G02*
X190436000Y-95280000I51000J0D01*
G01*
X191936000Y-95280000D01*
G75*
G02*
X191987000Y-95331000I0J-51000D01*
G01*
X191987000Y-95931000D01*
G75*
G02*
X191936000Y-95982000I-51000J0D01*
G01*
X190436000Y-95982000D01*
G75*
G02*
X190385000Y-95931000I0J51000D01*
G01*
G37*
G36*
G01*
X190385000Y-97201000D02*
X190385000Y-96601000D01*
G75*
G02*
X190436000Y-96550000I51000J0D01*
G01*
X191936000Y-96550000D01*
G75*
G02*
X191987000Y-96601000I0J-51000D01*
G01*
X191987000Y-97201000D01*
G75*
G02*
X191936000Y-97252000I-51000J0D01*
G01*
X190436000Y-97252000D01*
G75*
G02*
X190385000Y-97201000I0J51000D01*
G01*
G37*
G36*
G01*
X190385000Y-98471000D02*
X190385000Y-97871000D01*
G75*
G02*
X190436000Y-97820000I51000J0D01*
G01*
X191936000Y-97820000D01*
G75*
G02*
X191987000Y-97871000I0J-51000D01*
G01*
X191987000Y-98471000D01*
G75*
G02*
X191936000Y-98522000I-51000J0D01*
G01*
X190436000Y-98522000D01*
G75*
G02*
X190385000Y-98471000I0J51000D01*
G01*
G37*
G36*
G01*
X190385000Y-99741000D02*
X190385000Y-99141000D01*
G75*
G02*
X190436000Y-99090000I51000J0D01*
G01*
X191936000Y-99090000D01*
G75*
G02*
X191987000Y-99141000I0J-51000D01*
G01*
X191987000Y-99741000D01*
G75*
G02*
X191936000Y-99792000I-51000J0D01*
G01*
X190436000Y-99792000D01*
G75*
G02*
X190385000Y-99741000I0J51000D01*
G01*
G37*
G36*
G01*
X190385000Y-101011000D02*
X190385000Y-100411000D01*
G75*
G02*
X190436000Y-100360000I51000J0D01*
G01*
X191936000Y-100360000D01*
G75*
G02*
X191987000Y-100411000I0J-51000D01*
G01*
X191987000Y-101011000D01*
G75*
G02*
X191936000Y-101062000I-51000J0D01*
G01*
X190436000Y-101062000D01*
G75*
G02*
X190385000Y-101011000I0J51000D01*
G01*
G37*
G36*
G01*
X190385000Y-102281000D02*
X190385000Y-101681000D01*
G75*
G02*
X190436000Y-101630000I51000J0D01*
G01*
X191936000Y-101630000D01*
G75*
G02*
X191987000Y-101681000I0J-51000D01*
G01*
X191987000Y-102281000D01*
G75*
G02*
X191936000Y-102332000I-51000J0D01*
G01*
X190436000Y-102332000D01*
G75*
G02*
X190385000Y-102281000I0J51000D01*
G01*
G37*
G36*
G01*
X190385000Y-103551000D02*
X190385000Y-102951000D01*
G75*
G02*
X190436000Y-102900000I51000J0D01*
G01*
X191936000Y-102900000D01*
G75*
G02*
X191987000Y-102951000I0J-51000D01*
G01*
X191987000Y-103551000D01*
G75*
G02*
X191936000Y-103602000I-51000J0D01*
G01*
X190436000Y-103602000D01*
G75*
G02*
X190385000Y-103551000I0J51000D01*
G01*
G37*
G36*
G01*
X190385000Y-104821000D02*
X190385000Y-104221000D01*
G75*
G02*
X190436000Y-104170000I51000J0D01*
G01*
X191936000Y-104170000D01*
G75*
G02*
X191987000Y-104221000I0J-51000D01*
G01*
X191987000Y-104821000D01*
G75*
G02*
X191936000Y-104872000I-51000J0D01*
G01*
X190436000Y-104872000D01*
G75*
G02*
X190385000Y-104821000I0J51000D01*
G01*
G37*
G36*
G01*
X190385000Y-106091000D02*
X190385000Y-105491000D01*
G75*
G02*
X190436000Y-105440000I51000J0D01*
G01*
X191936000Y-105440000D01*
G75*
G02*
X191987000Y-105491000I0J-51000D01*
G01*
X191987000Y-106091000D01*
G75*
G02*
X191936000Y-106142000I-51000J0D01*
G01*
X190436000Y-106142000D01*
G75*
G02*
X190385000Y-106091000I0J51000D01*
G01*
G37*
G36*
G01*
X180885000Y-106091000D02*
X180885000Y-105491000D01*
G75*
G02*
X180936000Y-105440000I51000J0D01*
G01*
X182436000Y-105440000D01*
G75*
G02*
X182487000Y-105491000I0J-51000D01*
G01*
X182487000Y-106091000D01*
G75*
G02*
X182436000Y-106142000I-51000J0D01*
G01*
X180936000Y-106142000D01*
G75*
G02*
X180885000Y-106091000I0J51000D01*
G01*
G37*
G36*
G01*
X180885000Y-104821000D02*
X180885000Y-104221000D01*
G75*
G02*
X180936000Y-104170000I51000J0D01*
G01*
X182436000Y-104170000D01*
G75*
G02*
X182487000Y-104221000I0J-51000D01*
G01*
X182487000Y-104821000D01*
G75*
G02*
X182436000Y-104872000I-51000J0D01*
G01*
X180936000Y-104872000D01*
G75*
G02*
X180885000Y-104821000I0J51000D01*
G01*
G37*
G36*
G01*
X180885000Y-103551000D02*
X180885000Y-102951000D01*
G75*
G02*
X180936000Y-102900000I51000J0D01*
G01*
X182436000Y-102900000D01*
G75*
G02*
X182487000Y-102951000I0J-51000D01*
G01*
X182487000Y-103551000D01*
G75*
G02*
X182436000Y-103602000I-51000J0D01*
G01*
X180936000Y-103602000D01*
G75*
G02*
X180885000Y-103551000I0J51000D01*
G01*
G37*
G36*
G01*
X180885000Y-102281000D02*
X180885000Y-101681000D01*
G75*
G02*
X180936000Y-101630000I51000J0D01*
G01*
X182436000Y-101630000D01*
G75*
G02*
X182487000Y-101681000I0J-51000D01*
G01*
X182487000Y-102281000D01*
G75*
G02*
X182436000Y-102332000I-51000J0D01*
G01*
X180936000Y-102332000D01*
G75*
G02*
X180885000Y-102281000I0J51000D01*
G01*
G37*
G36*
G01*
X180885000Y-94661000D02*
X180885000Y-94061000D01*
G75*
G02*
X180936000Y-94010000I51000J0D01*
G01*
X182436000Y-94010000D01*
G75*
G02*
X182487000Y-94061000I0J-51000D01*
G01*
X182487000Y-94661000D01*
G75*
G02*
X182436000Y-94712000I-51000J0D01*
G01*
X180936000Y-94712000D01*
G75*
G02*
X180885000Y-94661000I0J51000D01*
G01*
G37*
G36*
G01*
X180885000Y-95931000D02*
X180885000Y-95331000D01*
G75*
G02*
X180936000Y-95280000I51000J0D01*
G01*
X182436000Y-95280000D01*
G75*
G02*
X182487000Y-95331000I0J-51000D01*
G01*
X182487000Y-95931000D01*
G75*
G02*
X182436000Y-95982000I-51000J0D01*
G01*
X180936000Y-95982000D01*
G75*
G02*
X180885000Y-95931000I0J51000D01*
G01*
G37*
G36*
G01*
X180885000Y-97201000D02*
X180885000Y-96601000D01*
G75*
G02*
X180936000Y-96550000I51000J0D01*
G01*
X182436000Y-96550000D01*
G75*
G02*
X182487000Y-96601000I0J-51000D01*
G01*
X182487000Y-97201000D01*
G75*
G02*
X182436000Y-97252000I-51000J0D01*
G01*
X180936000Y-97252000D01*
G75*
G02*
X180885000Y-97201000I0J51000D01*
G01*
G37*
G36*
G01*
X180885000Y-98471000D02*
X180885000Y-97871000D01*
G75*
G02*
X180936000Y-97820000I51000J0D01*
G01*
X182436000Y-97820000D01*
G75*
G02*
X182487000Y-97871000I0J-51000D01*
G01*
X182487000Y-98471000D01*
G75*
G02*
X182436000Y-98522000I-51000J0D01*
G01*
X180936000Y-98522000D01*
G75*
G02*
X180885000Y-98471000I0J51000D01*
G01*
G37*
G36*
G01*
X180885000Y-99741000D02*
X180885000Y-99141000D01*
G75*
G02*
X180936000Y-99090000I51000J0D01*
G01*
X182436000Y-99090000D01*
G75*
G02*
X182487000Y-99141000I0J-51000D01*
G01*
X182487000Y-99741000D01*
G75*
G02*
X182436000Y-99792000I-51000J0D01*
G01*
X180936000Y-99792000D01*
G75*
G02*
X180885000Y-99741000I0J51000D01*
G01*
G37*
G36*
G01*
X180885000Y-101011000D02*
X180885000Y-100411000D01*
G75*
G02*
X180936000Y-100360000I51000J0D01*
G01*
X182436000Y-100360000D01*
G75*
G02*
X182487000Y-100411000I0J-51000D01*
G01*
X182487000Y-101011000D01*
G75*
G02*
X182436000Y-101062000I-51000J0D01*
G01*
X180936000Y-101062000D01*
G75*
G02*
X180885000Y-101011000I0J51000D01*
G01*
G37*
%TD*%
%TO.C,U3*%
G36*
G01*
X135927000Y-111425000D02*
X135927000Y-110825000D01*
G75*
G02*
X135978000Y-110774000I51000J0D01*
G01*
X137478000Y-110774000D01*
G75*
G02*
X137529000Y-110825000I0J-51000D01*
G01*
X137529000Y-111425000D01*
G75*
G02*
X137478000Y-111476000I-51000J0D01*
G01*
X135978000Y-111476000D01*
G75*
G02*
X135927000Y-111425000I0J51000D01*
G01*
G37*
G36*
G01*
X135927000Y-110155000D02*
X135927000Y-109555000D01*
G75*
G02*
X135978000Y-109504000I51000J0D01*
G01*
X137478000Y-109504000D01*
G75*
G02*
X137529000Y-109555000I0J-51000D01*
G01*
X137529000Y-110155000D01*
G75*
G02*
X137478000Y-110206000I-51000J0D01*
G01*
X135978000Y-110206000D01*
G75*
G02*
X135927000Y-110155000I0J51000D01*
G01*
G37*
G36*
G01*
X135927000Y-108885000D02*
X135927000Y-108285000D01*
G75*
G02*
X135978000Y-108234000I51000J0D01*
G01*
X137478000Y-108234000D01*
G75*
G02*
X137529000Y-108285000I0J-51000D01*
G01*
X137529000Y-108885000D01*
G75*
G02*
X137478000Y-108936000I-51000J0D01*
G01*
X135978000Y-108936000D01*
G75*
G02*
X135927000Y-108885000I0J51000D01*
G01*
G37*
G36*
G01*
X135927000Y-107615000D02*
X135927000Y-107015000D01*
G75*
G02*
X135978000Y-106964000I51000J0D01*
G01*
X137478000Y-106964000D01*
G75*
G02*
X137529000Y-107015000I0J-51000D01*
G01*
X137529000Y-107615000D01*
G75*
G02*
X137478000Y-107666000I-51000J0D01*
G01*
X135978000Y-107666000D01*
G75*
G02*
X135927000Y-107615000I0J51000D01*
G01*
G37*
G36*
G01*
X135927000Y-106345000D02*
X135927000Y-105745000D01*
G75*
G02*
X135978000Y-105694000I51000J0D01*
G01*
X137478000Y-105694000D01*
G75*
G02*
X137529000Y-105745000I0J-51000D01*
G01*
X137529000Y-106345000D01*
G75*
G02*
X137478000Y-106396000I-51000J0D01*
G01*
X135978000Y-106396000D01*
G75*
G02*
X135927000Y-106345000I0J51000D01*
G01*
G37*
G36*
G01*
X135927000Y-105075000D02*
X135927000Y-104475000D01*
G75*
G02*
X135978000Y-104424000I51000J0D01*
G01*
X137478000Y-104424000D01*
G75*
G02*
X137529000Y-104475000I0J-51000D01*
G01*
X137529000Y-105075000D01*
G75*
G02*
X137478000Y-105126000I-51000J0D01*
G01*
X135978000Y-105126000D01*
G75*
G02*
X135927000Y-105075000I0J51000D01*
G01*
G37*
G36*
G01*
X135927000Y-112695000D02*
X135927000Y-112095000D01*
G75*
G02*
X135978000Y-112044000I51000J0D01*
G01*
X137478000Y-112044000D01*
G75*
G02*
X137529000Y-112095000I0J-51000D01*
G01*
X137529000Y-112695000D01*
G75*
G02*
X137478000Y-112746000I-51000J0D01*
G01*
X135978000Y-112746000D01*
G75*
G02*
X135927000Y-112695000I0J51000D01*
G01*
G37*
G36*
G01*
X135927000Y-113965000D02*
X135927000Y-113365000D01*
G75*
G02*
X135978000Y-113314000I51000J0D01*
G01*
X137478000Y-113314000D01*
G75*
G02*
X137529000Y-113365000I0J-51000D01*
G01*
X137529000Y-113965000D01*
G75*
G02*
X137478000Y-114016000I-51000J0D01*
G01*
X135978000Y-114016000D01*
G75*
G02*
X135927000Y-113965000I0J51000D01*
G01*
G37*
G36*
G01*
X135927000Y-115235000D02*
X135927000Y-114635000D01*
G75*
G02*
X135978000Y-114584000I51000J0D01*
G01*
X137478000Y-114584000D01*
G75*
G02*
X137529000Y-114635000I0J-51000D01*
G01*
X137529000Y-115235000D01*
G75*
G02*
X137478000Y-115286000I-51000J0D01*
G01*
X135978000Y-115286000D01*
G75*
G02*
X135927000Y-115235000I0J51000D01*
G01*
G37*
G36*
G01*
X135927000Y-116505000D02*
X135927000Y-115905000D01*
G75*
G02*
X135978000Y-115854000I51000J0D01*
G01*
X137478000Y-115854000D01*
G75*
G02*
X137529000Y-115905000I0J-51000D01*
G01*
X137529000Y-116505000D01*
G75*
G02*
X137478000Y-116556000I-51000J0D01*
G01*
X135978000Y-116556000D01*
G75*
G02*
X135927000Y-116505000I0J51000D01*
G01*
G37*
G36*
G01*
X145427000Y-116505000D02*
X145427000Y-115905000D01*
G75*
G02*
X145478000Y-115854000I51000J0D01*
G01*
X146978000Y-115854000D01*
G75*
G02*
X147029000Y-115905000I0J-51000D01*
G01*
X147029000Y-116505000D01*
G75*
G02*
X146978000Y-116556000I-51000J0D01*
G01*
X145478000Y-116556000D01*
G75*
G02*
X145427000Y-116505000I0J51000D01*
G01*
G37*
G36*
G01*
X145427000Y-115235000D02*
X145427000Y-114635000D01*
G75*
G02*
X145478000Y-114584000I51000J0D01*
G01*
X146978000Y-114584000D01*
G75*
G02*
X147029000Y-114635000I0J-51000D01*
G01*
X147029000Y-115235000D01*
G75*
G02*
X146978000Y-115286000I-51000J0D01*
G01*
X145478000Y-115286000D01*
G75*
G02*
X145427000Y-115235000I0J51000D01*
G01*
G37*
G36*
G01*
X145427000Y-113965000D02*
X145427000Y-113365000D01*
G75*
G02*
X145478000Y-113314000I51000J0D01*
G01*
X146978000Y-113314000D01*
G75*
G02*
X147029000Y-113365000I0J-51000D01*
G01*
X147029000Y-113965000D01*
G75*
G02*
X146978000Y-114016000I-51000J0D01*
G01*
X145478000Y-114016000D01*
G75*
G02*
X145427000Y-113965000I0J51000D01*
G01*
G37*
G36*
G01*
X145427000Y-112695000D02*
X145427000Y-112095000D01*
G75*
G02*
X145478000Y-112044000I51000J0D01*
G01*
X146978000Y-112044000D01*
G75*
G02*
X147029000Y-112095000I0J-51000D01*
G01*
X147029000Y-112695000D01*
G75*
G02*
X146978000Y-112746000I-51000J0D01*
G01*
X145478000Y-112746000D01*
G75*
G02*
X145427000Y-112695000I0J51000D01*
G01*
G37*
G36*
G01*
X145427000Y-111425000D02*
X145427000Y-110825000D01*
G75*
G02*
X145478000Y-110774000I51000J0D01*
G01*
X146978000Y-110774000D01*
G75*
G02*
X147029000Y-110825000I0J-51000D01*
G01*
X147029000Y-111425000D01*
G75*
G02*
X146978000Y-111476000I-51000J0D01*
G01*
X145478000Y-111476000D01*
G75*
G02*
X145427000Y-111425000I0J51000D01*
G01*
G37*
G36*
G01*
X145427000Y-110155000D02*
X145427000Y-109555000D01*
G75*
G02*
X145478000Y-109504000I51000J0D01*
G01*
X146978000Y-109504000D01*
G75*
G02*
X147029000Y-109555000I0J-51000D01*
G01*
X147029000Y-110155000D01*
G75*
G02*
X146978000Y-110206000I-51000J0D01*
G01*
X145478000Y-110206000D01*
G75*
G02*
X145427000Y-110155000I0J51000D01*
G01*
G37*
G36*
G01*
X145427000Y-108885000D02*
X145427000Y-108285000D01*
G75*
G02*
X145478000Y-108234000I51000J0D01*
G01*
X146978000Y-108234000D01*
G75*
G02*
X147029000Y-108285000I0J-51000D01*
G01*
X147029000Y-108885000D01*
G75*
G02*
X146978000Y-108936000I-51000J0D01*
G01*
X145478000Y-108936000D01*
G75*
G02*
X145427000Y-108885000I0J51000D01*
G01*
G37*
G36*
G01*
X145427000Y-107615000D02*
X145427000Y-107015000D01*
G75*
G02*
X145478000Y-106964000I51000J0D01*
G01*
X146978000Y-106964000D01*
G75*
G02*
X147029000Y-107015000I0J-51000D01*
G01*
X147029000Y-107615000D01*
G75*
G02*
X146978000Y-107666000I-51000J0D01*
G01*
X145478000Y-107666000D01*
G75*
G02*
X145427000Y-107615000I0J51000D01*
G01*
G37*
G36*
G01*
X145427000Y-106345000D02*
X145427000Y-105745000D01*
G75*
G02*
X145478000Y-105694000I51000J0D01*
G01*
X146978000Y-105694000D01*
G75*
G02*
X147029000Y-105745000I0J-51000D01*
G01*
X147029000Y-106345000D01*
G75*
G02*
X146978000Y-106396000I-51000J0D01*
G01*
X145478000Y-106396000D01*
G75*
G02*
X145427000Y-106345000I0J51000D01*
G01*
G37*
G36*
G01*
X145427000Y-105075000D02*
X145427000Y-104475000D01*
G75*
G02*
X145478000Y-104424000I51000J0D01*
G01*
X146978000Y-104424000D01*
G75*
G02*
X147029000Y-104475000I0J-51000D01*
G01*
X147029000Y-105075000D01*
G75*
G02*
X146978000Y-105126000I-51000J0D01*
G01*
X145478000Y-105126000D01*
G75*
G02*
X145427000Y-105075000I0J51000D01*
G01*
G37*
%TD*%
%TO.C,F2*%
G36*
G01*
X130025700Y-63514994D02*
X130025700Y-64831206D01*
G75*
G02*
X129757806Y-65099100I-267894J0D01*
G01*
X128766594Y-65099100D01*
G75*
G02*
X128498700Y-64831206I0J267894D01*
G01*
X128498700Y-63514994D01*
G75*
G02*
X128766594Y-63247100I267894J0D01*
G01*
X129757806Y-63247100D01*
G75*
G02*
X130025700Y-63514994I0J-267894D01*
G01*
G37*
G36*
G01*
X127050700Y-63514994D02*
X127050700Y-64831206D01*
G75*
G02*
X126782806Y-65099100I-267894J0D01*
G01*
X125791594Y-65099100D01*
G75*
G02*
X125523700Y-64831206I0J267894D01*
G01*
X125523700Y-63514994D01*
G75*
G02*
X125791594Y-63247100I267894J0D01*
G01*
X126782806Y-63247100D01*
G75*
G02*
X127050700Y-63514994I0J-267894D01*
G01*
G37*
%TD*%
%TO.C,J3*%
G36*
G01*
X124067000Y-133509000D02*
X124067000Y-130959000D01*
G75*
G02*
X124118000Y-130908000I51000J0D01*
G01*
X124518000Y-130908000D01*
G75*
G02*
X124569000Y-130959000I0J-51000D01*
G01*
X124569000Y-133509000D01*
G75*
G02*
X124518000Y-133560000I-51000J0D01*
G01*
X124118000Y-133560000D01*
G75*
G02*
X124067000Y-133509000I0J51000D01*
G01*
G37*
G36*
G01*
X123417000Y-133509000D02*
X123417000Y-130959000D01*
G75*
G02*
X123468000Y-130908000I51000J0D01*
G01*
X123868000Y-130908000D01*
G75*
G02*
X123919000Y-130959000I0J-51000D01*
G01*
X123919000Y-133509000D01*
G75*
G02*
X123868000Y-133560000I-51000J0D01*
G01*
X123468000Y-133560000D01*
G75*
G02*
X123417000Y-133509000I0J51000D01*
G01*
G37*
G36*
G01*
X126017000Y-133509000D02*
X126017000Y-130959000D01*
G75*
G02*
X126068000Y-130908000I51000J0D01*
G01*
X126468000Y-130908000D01*
G75*
G02*
X126519000Y-130959000I0J-51000D01*
G01*
X126519000Y-133509000D01*
G75*
G02*
X126468000Y-133560000I-51000J0D01*
G01*
X126068000Y-133560000D01*
G75*
G02*
X126017000Y-133509000I0J51000D01*
G01*
G37*
G36*
G01*
X125367000Y-133509000D02*
X125367000Y-130959000D01*
G75*
G02*
X125418000Y-130908000I51000J0D01*
G01*
X125818000Y-130908000D01*
G75*
G02*
X125869000Y-130959000I0J-51000D01*
G01*
X125869000Y-133509000D01*
G75*
G02*
X125818000Y-133560000I-51000J0D01*
G01*
X125418000Y-133560000D01*
G75*
G02*
X125367000Y-133509000I0J51000D01*
G01*
G37*
G36*
G01*
X124717000Y-133509000D02*
X124717000Y-130959000D01*
G75*
G02*
X124768000Y-130908000I51000J0D01*
G01*
X125168000Y-130908000D01*
G75*
G02*
X125219000Y-130959000I0J-51000D01*
G01*
X125219000Y-133509000D01*
G75*
G02*
X125168000Y-133560000I-51000J0D01*
G01*
X124768000Y-133560000D01*
G75*
G02*
X124717000Y-133509000I0J51000D01*
G01*
G37*
G36*
G01*
X126967000Y-134159000D02*
X126967000Y-132159000D01*
G75*
G02*
X127018000Y-132108000I51000J0D01*
G01*
X129118000Y-132108000D01*
G75*
G02*
X129169000Y-132159000I0J-51000D01*
G01*
X129169000Y-134159000D01*
G75*
G02*
X129118000Y-134210000I-51000J0D01*
G01*
X127018000Y-134210000D01*
G75*
G02*
X126967000Y-134159000I0J51000D01*
G01*
G37*
G36*
G01*
X120767000Y-134159000D02*
X120767000Y-132159000D01*
G75*
G02*
X120818000Y-132108000I51000J0D01*
G01*
X122918000Y-132108000D01*
G75*
G02*
X122969000Y-132159000I0J-51000D01*
G01*
X122969000Y-134159000D01*
G75*
G02*
X122918000Y-134210000I-51000J0D01*
G01*
X120818000Y-134210000D01*
G75*
G02*
X120767000Y-134159000I0J51000D01*
G01*
G37*
G36*
G01*
X118617000Y-136459000D02*
X118617000Y-134559000D01*
G75*
G02*
X118668000Y-134508000I51000J0D01*
G01*
X121668000Y-134508000D01*
G75*
G02*
X121719000Y-134559000I0J-51000D01*
G01*
X121719000Y-136459000D01*
G75*
G02*
X121668000Y-136510000I-51000J0D01*
G01*
X118668000Y-136510000D01*
G75*
G02*
X118617000Y-136459000I0J51000D01*
G01*
G37*
G36*
G01*
X128217000Y-136459000D02*
X128217000Y-134559000D01*
G75*
G02*
X128268000Y-134508000I51000J0D01*
G01*
X131268000Y-134508000D01*
G75*
G02*
X131319000Y-134559000I0J-51000D01*
G01*
X131319000Y-136459000D01*
G75*
G02*
X131268000Y-136510000I-51000J0D01*
G01*
X128268000Y-136510000D01*
G75*
G02*
X128217000Y-136459000I0J51000D01*
G01*
G37*
%TD*%
%TO.C,C5*%
G36*
G01*
X152905706Y-105400400D02*
X151589494Y-105400400D01*
G75*
G02*
X151321600Y-105132506I0J267894D01*
G01*
X151321600Y-104141294D01*
G75*
G02*
X151589494Y-103873400I267894J0D01*
G01*
X152905706Y-103873400D01*
G75*
G02*
X153173600Y-104141294I0J-267894D01*
G01*
X153173600Y-105132506D01*
G75*
G02*
X152905706Y-105400400I-267894J0D01*
G01*
G37*
G36*
G01*
X152905706Y-102425400D02*
X151589494Y-102425400D01*
G75*
G02*
X151321600Y-102157506I0J267894D01*
G01*
X151321600Y-101166294D01*
G75*
G02*
X151589494Y-100898400I267894J0D01*
G01*
X152905706Y-100898400D01*
G75*
G02*
X153173600Y-101166294I0J-267894D01*
G01*
X153173600Y-102157506D01*
G75*
G02*
X152905706Y-102425400I-267894J0D01*
G01*
G37*
%TD*%
D14*
G36*
X126018732Y-130907000D02*
G01*
X126019000Y-130908000D01*
X126019000Y-133560000D01*
X126018000Y-133561732D01*
X126017000Y-133562000D01*
X125869000Y-133562000D01*
X125867268Y-133561000D01*
X125867000Y-133560000D01*
X125867000Y-130908000D01*
X125868000Y-130906268D01*
X125869000Y-130906000D01*
X126017000Y-130906000D01*
X126018732Y-130907000D01*
G37*
G36*
X125368732Y-130907000D02*
G01*
X125369000Y-130908000D01*
X125369000Y-133560000D01*
X125368000Y-133561732D01*
X125367000Y-133562000D01*
X125219000Y-133562000D01*
X125217268Y-133561000D01*
X125217000Y-133560000D01*
X125217000Y-130908000D01*
X125218000Y-130906268D01*
X125219000Y-130906000D01*
X125367000Y-130906000D01*
X125368732Y-130907000D01*
G37*
G36*
X124068732Y-130907000D02*
G01*
X124069000Y-130908000D01*
X124069000Y-133560000D01*
X124068000Y-133561732D01*
X124067000Y-133562000D01*
X123919000Y-133562000D01*
X123917268Y-133561000D01*
X123917000Y-133560000D01*
X123917000Y-130908000D01*
X123918000Y-130906268D01*
X123919000Y-130906000D01*
X124067000Y-130906000D01*
X124068732Y-130907000D01*
G37*
G36*
X124718732Y-130907000D02*
G01*
X124719000Y-130908000D01*
X124719000Y-133560000D01*
X124718000Y-133561732D01*
X124717000Y-133562000D01*
X124569000Y-133562000D01*
X124567268Y-133561000D01*
X124567000Y-133560000D01*
X124567000Y-130908000D01*
X124568000Y-130906268D01*
X124569000Y-130906000D01*
X124717000Y-130906000D01*
X124718732Y-130907000D01*
G37*
G36*
X191095990Y-84770804D02*
G01*
X191102465Y-84836546D01*
X191121586Y-84899578D01*
X191152634Y-84957667D01*
X191194419Y-85008581D01*
X191245333Y-85050366D01*
X191303422Y-85081414D01*
X191366454Y-85100535D01*
X191432196Y-85107010D01*
X191433822Y-85108175D01*
X191433626Y-85110165D01*
X191432000Y-85111000D01*
X191375638Y-85111000D01*
X191375442Y-85110990D01*
X191315674Y-85105104D01*
X191315289Y-85105028D01*
X191263722Y-85089385D01*
X191263360Y-85089235D01*
X191215835Y-85063832D01*
X191215509Y-85063614D01*
X191173850Y-85029427D01*
X191173573Y-85029150D01*
X191139386Y-84987491D01*
X191139168Y-84987165D01*
X191113765Y-84939640D01*
X191113615Y-84939278D01*
X191097972Y-84887711D01*
X191097896Y-84887326D01*
X191092010Y-84827558D01*
X191092000Y-84827362D01*
X191092000Y-84771000D01*
X191093000Y-84769268D01*
X191095000Y-84769268D01*
X191095990Y-84770804D01*
G37*
G36*
X192447165Y-84769374D02*
G01*
X192448000Y-84771000D01*
X192448000Y-84827362D01*
X192447990Y-84827558D01*
X192442104Y-84887326D01*
X192442028Y-84887711D01*
X192426385Y-84939278D01*
X192426235Y-84939640D01*
X192400832Y-84987165D01*
X192400614Y-84987491D01*
X192366427Y-85029150D01*
X192366150Y-85029427D01*
X192324491Y-85063614D01*
X192324165Y-85063832D01*
X192276640Y-85089235D01*
X192276278Y-85089385D01*
X192224711Y-85105028D01*
X192224326Y-85105104D01*
X192164558Y-85110990D01*
X192164362Y-85111000D01*
X192108000Y-85111000D01*
X192106268Y-85110000D01*
X192106268Y-85108000D01*
X192107804Y-85107010D01*
X192173546Y-85100535D01*
X192236578Y-85081414D01*
X192294667Y-85050366D01*
X192345581Y-85008581D01*
X192387366Y-84957667D01*
X192418414Y-84899578D01*
X192437535Y-84836546D01*
X192444010Y-84770804D01*
X192445175Y-84769178D01*
X192447165Y-84769374D01*
G37*
G36*
X191433732Y-83706000D02*
G01*
X191433732Y-83708000D01*
X191432196Y-83708990D01*
X191366454Y-83715465D01*
X191303422Y-83734586D01*
X191245333Y-83765634D01*
X191194419Y-83807419D01*
X191152634Y-83858333D01*
X191121586Y-83916422D01*
X191102465Y-83979454D01*
X191095990Y-84045196D01*
X191094825Y-84046822D01*
X191092835Y-84046626D01*
X191092000Y-84045000D01*
X191092000Y-83988638D01*
X191092010Y-83988442D01*
X191097896Y-83928674D01*
X191097972Y-83928289D01*
X191113615Y-83876722D01*
X191113765Y-83876360D01*
X191139168Y-83828835D01*
X191139386Y-83828509D01*
X191173573Y-83786850D01*
X191173850Y-83786573D01*
X191215509Y-83752386D01*
X191215835Y-83752168D01*
X191263360Y-83726765D01*
X191263722Y-83726615D01*
X191315289Y-83710972D01*
X191315674Y-83710896D01*
X191375442Y-83705010D01*
X191375638Y-83705000D01*
X191432000Y-83705000D01*
X191433732Y-83706000D01*
G37*
G36*
X192164558Y-83705010D02*
G01*
X192224326Y-83710896D01*
X192224711Y-83710972D01*
X192276278Y-83726615D01*
X192276640Y-83726765D01*
X192324165Y-83752168D01*
X192324491Y-83752386D01*
X192366150Y-83786573D01*
X192366427Y-83786850D01*
X192400614Y-83828509D01*
X192400832Y-83828835D01*
X192426235Y-83876360D01*
X192426385Y-83876722D01*
X192442028Y-83928289D01*
X192442104Y-83928674D01*
X192447990Y-83988442D01*
X192448000Y-83988638D01*
X192448000Y-84045000D01*
X192447000Y-84046732D01*
X192445000Y-84046732D01*
X192444010Y-84045196D01*
X192437535Y-83979454D01*
X192418414Y-83916422D01*
X192387366Y-83858333D01*
X192345581Y-83807419D01*
X192294667Y-83765634D01*
X192236578Y-83734586D01*
X192173546Y-83715465D01*
X192107804Y-83708990D01*
X192106178Y-83707825D01*
X192106374Y-83705835D01*
X192108000Y-83705000D01*
X192164362Y-83705000D01*
X192164558Y-83705010D01*
G37*
G36*
X136558790Y-82430604D02*
G01*
X136565265Y-82496346D01*
X136584386Y-82559378D01*
X136615434Y-82617467D01*
X136657219Y-82668381D01*
X136708133Y-82710166D01*
X136766222Y-82741214D01*
X136829254Y-82760335D01*
X136894996Y-82766810D01*
X136896622Y-82767975D01*
X136896426Y-82769965D01*
X136894800Y-82770800D01*
X136838438Y-82770800D01*
X136838242Y-82770790D01*
X136778474Y-82764904D01*
X136778089Y-82764828D01*
X136726522Y-82749185D01*
X136726160Y-82749035D01*
X136678635Y-82723632D01*
X136678309Y-82723414D01*
X136636650Y-82689227D01*
X136636373Y-82688950D01*
X136602186Y-82647291D01*
X136601968Y-82646965D01*
X136576565Y-82599440D01*
X136576415Y-82599078D01*
X136560772Y-82547511D01*
X136560696Y-82547126D01*
X136554810Y-82487358D01*
X136554800Y-82487162D01*
X136554800Y-82430800D01*
X136555800Y-82429068D01*
X136557800Y-82429068D01*
X136558790Y-82430604D01*
G37*
G36*
X137959965Y-82429174D02*
G01*
X137960800Y-82430800D01*
X137960800Y-82487162D01*
X137960790Y-82487358D01*
X137954904Y-82547126D01*
X137954828Y-82547511D01*
X137939185Y-82599078D01*
X137939035Y-82599440D01*
X137913632Y-82646965D01*
X137913414Y-82647291D01*
X137879227Y-82688950D01*
X137878950Y-82689227D01*
X137837291Y-82723414D01*
X137836965Y-82723632D01*
X137789440Y-82749035D01*
X137789078Y-82749185D01*
X137737511Y-82764828D01*
X137737126Y-82764904D01*
X137677358Y-82770790D01*
X137677162Y-82770800D01*
X137620800Y-82770800D01*
X137619068Y-82769800D01*
X137619068Y-82767800D01*
X137620604Y-82766810D01*
X137686346Y-82760335D01*
X137749378Y-82741214D01*
X137807467Y-82710166D01*
X137858381Y-82668381D01*
X137900166Y-82617467D01*
X137931214Y-82559378D01*
X137950335Y-82496346D01*
X137956810Y-82430604D01*
X137957975Y-82428978D01*
X137959965Y-82429174D01*
G37*
G36*
X139258790Y-82430604D02*
G01*
X139265265Y-82496346D01*
X139284386Y-82559378D01*
X139315434Y-82617467D01*
X139357219Y-82668381D01*
X139408133Y-82710166D01*
X139466222Y-82741214D01*
X139529254Y-82760335D01*
X139594996Y-82766810D01*
X139596622Y-82767975D01*
X139596426Y-82769965D01*
X139594800Y-82770800D01*
X139538438Y-82770800D01*
X139538242Y-82770790D01*
X139478474Y-82764904D01*
X139478089Y-82764828D01*
X139426522Y-82749185D01*
X139426160Y-82749035D01*
X139378635Y-82723632D01*
X139378309Y-82723414D01*
X139336650Y-82689227D01*
X139336373Y-82688950D01*
X139302186Y-82647291D01*
X139301968Y-82646965D01*
X139276565Y-82599440D01*
X139276415Y-82599078D01*
X139260772Y-82547511D01*
X139260696Y-82547126D01*
X139254810Y-82487358D01*
X139254800Y-82487162D01*
X139254800Y-82430800D01*
X139255800Y-82429068D01*
X139257800Y-82429068D01*
X139258790Y-82430604D01*
G37*
G36*
X140659965Y-82429174D02*
G01*
X140660800Y-82430800D01*
X140660800Y-82487162D01*
X140660790Y-82487358D01*
X140654904Y-82547126D01*
X140654828Y-82547511D01*
X140639185Y-82599078D01*
X140639035Y-82599440D01*
X140613632Y-82646965D01*
X140613414Y-82647291D01*
X140579227Y-82688950D01*
X140578950Y-82689227D01*
X140537291Y-82723414D01*
X140536965Y-82723632D01*
X140489440Y-82749035D01*
X140489078Y-82749185D01*
X140437511Y-82764828D01*
X140437126Y-82764904D01*
X140377358Y-82770790D01*
X140377162Y-82770800D01*
X140320800Y-82770800D01*
X140319068Y-82769800D01*
X140319068Y-82767800D01*
X140320604Y-82766810D01*
X140386346Y-82760335D01*
X140449378Y-82741214D01*
X140507467Y-82710166D01*
X140558381Y-82668381D01*
X140600166Y-82617467D01*
X140631214Y-82559378D01*
X140650335Y-82496346D01*
X140656810Y-82430604D01*
X140657975Y-82428978D01*
X140659965Y-82429174D01*
G37*
G36*
X191095990Y-82070804D02*
G01*
X191102465Y-82136546D01*
X191121586Y-82199578D01*
X191152634Y-82257667D01*
X191194419Y-82308581D01*
X191245333Y-82350366D01*
X191303422Y-82381414D01*
X191366454Y-82400535D01*
X191432196Y-82407010D01*
X191433822Y-82408175D01*
X191433626Y-82410165D01*
X191432000Y-82411000D01*
X191375638Y-82411000D01*
X191375442Y-82410990D01*
X191315674Y-82405104D01*
X191315289Y-82405028D01*
X191263722Y-82389385D01*
X191263360Y-82389235D01*
X191215835Y-82363832D01*
X191215509Y-82363614D01*
X191173850Y-82329427D01*
X191173573Y-82329150D01*
X191139386Y-82287491D01*
X191139168Y-82287165D01*
X191113765Y-82239640D01*
X191113615Y-82239278D01*
X191097972Y-82187711D01*
X191097896Y-82187326D01*
X191092010Y-82127558D01*
X191092000Y-82127362D01*
X191092000Y-82071000D01*
X191093000Y-82069268D01*
X191095000Y-82069268D01*
X191095990Y-82070804D01*
G37*
G36*
X192447165Y-82069374D02*
G01*
X192448000Y-82071000D01*
X192448000Y-82127362D01*
X192447990Y-82127558D01*
X192442104Y-82187326D01*
X192442028Y-82187711D01*
X192426385Y-82239278D01*
X192426235Y-82239640D01*
X192400832Y-82287165D01*
X192400614Y-82287491D01*
X192366427Y-82329150D01*
X192366150Y-82329427D01*
X192324491Y-82363614D01*
X192324165Y-82363832D01*
X192276640Y-82389235D01*
X192276278Y-82389385D01*
X192224711Y-82405028D01*
X192224326Y-82405104D01*
X192164558Y-82410990D01*
X192164362Y-82411000D01*
X192108000Y-82411000D01*
X192106268Y-82410000D01*
X192106268Y-82408000D01*
X192107804Y-82407010D01*
X192173546Y-82400535D01*
X192236578Y-82381414D01*
X192294667Y-82350366D01*
X192345581Y-82308581D01*
X192387366Y-82257667D01*
X192418414Y-82199578D01*
X192437535Y-82136546D01*
X192444010Y-82070804D01*
X192445175Y-82069178D01*
X192447165Y-82069374D01*
G37*
G36*
X136896532Y-81415800D02*
G01*
X136896532Y-81417800D01*
X136894996Y-81418790D01*
X136829254Y-81425265D01*
X136766222Y-81444386D01*
X136708133Y-81475434D01*
X136657219Y-81517219D01*
X136615434Y-81568133D01*
X136584386Y-81626222D01*
X136565265Y-81689254D01*
X136558790Y-81754996D01*
X136557625Y-81756622D01*
X136555635Y-81756426D01*
X136554800Y-81754800D01*
X136554800Y-81698438D01*
X136554810Y-81698242D01*
X136560696Y-81638474D01*
X136560772Y-81638089D01*
X136576415Y-81586522D01*
X136576565Y-81586160D01*
X136601968Y-81538635D01*
X136602186Y-81538309D01*
X136636373Y-81496650D01*
X136636650Y-81496373D01*
X136678309Y-81462186D01*
X136678635Y-81461968D01*
X136726160Y-81436565D01*
X136726522Y-81436415D01*
X136778089Y-81420772D01*
X136778474Y-81420696D01*
X136838242Y-81414810D01*
X136838438Y-81414800D01*
X136894800Y-81414800D01*
X136896532Y-81415800D01*
G37*
G36*
X139596532Y-81415800D02*
G01*
X139596532Y-81417800D01*
X139594996Y-81418790D01*
X139529254Y-81425265D01*
X139466222Y-81444386D01*
X139408133Y-81475434D01*
X139357219Y-81517219D01*
X139315434Y-81568133D01*
X139284386Y-81626222D01*
X139265265Y-81689254D01*
X139258790Y-81754996D01*
X139257625Y-81756622D01*
X139255635Y-81756426D01*
X139254800Y-81754800D01*
X139254800Y-81698438D01*
X139254810Y-81698242D01*
X139260696Y-81638474D01*
X139260772Y-81638089D01*
X139276415Y-81586522D01*
X139276565Y-81586160D01*
X139301968Y-81538635D01*
X139302186Y-81538309D01*
X139336373Y-81496650D01*
X139336650Y-81496373D01*
X139378309Y-81462186D01*
X139378635Y-81461968D01*
X139426160Y-81436565D01*
X139426522Y-81436415D01*
X139478089Y-81420772D01*
X139478474Y-81420696D01*
X139538242Y-81414810D01*
X139538438Y-81414800D01*
X139594800Y-81414800D01*
X139596532Y-81415800D01*
G37*
G36*
X140377358Y-81414810D02*
G01*
X140437126Y-81420696D01*
X140437511Y-81420772D01*
X140489078Y-81436415D01*
X140489440Y-81436565D01*
X140536965Y-81461968D01*
X140537291Y-81462186D01*
X140578950Y-81496373D01*
X140579227Y-81496650D01*
X140613414Y-81538309D01*
X140613632Y-81538635D01*
X140639035Y-81586160D01*
X140639185Y-81586522D01*
X140654828Y-81638089D01*
X140654904Y-81638474D01*
X140660790Y-81698242D01*
X140660800Y-81698438D01*
X140660800Y-81754800D01*
X140659800Y-81756532D01*
X140657800Y-81756532D01*
X140656810Y-81754996D01*
X140650335Y-81689254D01*
X140631214Y-81626222D01*
X140600166Y-81568133D01*
X140558381Y-81517219D01*
X140507467Y-81475434D01*
X140449378Y-81444386D01*
X140386346Y-81425265D01*
X140320604Y-81418790D01*
X140318978Y-81417625D01*
X140319174Y-81415635D01*
X140320800Y-81414800D01*
X140377162Y-81414800D01*
X140377358Y-81414810D01*
G37*
G36*
X137677358Y-81414810D02*
G01*
X137737126Y-81420696D01*
X137737511Y-81420772D01*
X137789078Y-81436415D01*
X137789440Y-81436565D01*
X137836965Y-81461968D01*
X137837291Y-81462186D01*
X137878950Y-81496373D01*
X137879227Y-81496650D01*
X137913414Y-81538309D01*
X137913632Y-81538635D01*
X137939035Y-81586160D01*
X137939185Y-81586522D01*
X137954828Y-81638089D01*
X137954904Y-81638474D01*
X137960790Y-81698242D01*
X137960800Y-81698438D01*
X137960800Y-81754800D01*
X137959800Y-81756532D01*
X137957800Y-81756532D01*
X137956810Y-81754996D01*
X137950335Y-81689254D01*
X137931214Y-81626222D01*
X137900166Y-81568133D01*
X137858381Y-81517219D01*
X137807467Y-81475434D01*
X137749378Y-81444386D01*
X137686346Y-81425265D01*
X137620604Y-81418790D01*
X137618978Y-81417625D01*
X137619174Y-81415635D01*
X137620800Y-81414800D01*
X137677162Y-81414800D01*
X137677358Y-81414810D01*
G37*
G36*
X191433732Y-81006000D02*
G01*
X191433732Y-81008000D01*
X191432196Y-81008990D01*
X191366454Y-81015465D01*
X191303422Y-81034586D01*
X191245333Y-81065634D01*
X191194419Y-81107419D01*
X191152634Y-81158333D01*
X191121586Y-81216422D01*
X191102465Y-81279454D01*
X191095990Y-81345196D01*
X191094825Y-81346822D01*
X191092835Y-81346626D01*
X191092000Y-81345000D01*
X191092000Y-81288638D01*
X191092010Y-81288442D01*
X191097896Y-81228674D01*
X191097972Y-81228289D01*
X191113615Y-81176722D01*
X191113765Y-81176360D01*
X191139168Y-81128835D01*
X191139386Y-81128509D01*
X191173573Y-81086850D01*
X191173850Y-81086573D01*
X191215509Y-81052386D01*
X191215835Y-81052168D01*
X191263360Y-81026765D01*
X191263722Y-81026615D01*
X191315289Y-81010972D01*
X191315674Y-81010896D01*
X191375442Y-81005010D01*
X191375638Y-81005000D01*
X191432000Y-81005000D01*
X191433732Y-81006000D01*
G37*
G36*
X192164558Y-81005010D02*
G01*
X192224326Y-81010896D01*
X192224711Y-81010972D01*
X192276278Y-81026615D01*
X192276640Y-81026765D01*
X192324165Y-81052168D01*
X192324491Y-81052386D01*
X192366150Y-81086573D01*
X192366427Y-81086850D01*
X192400614Y-81128509D01*
X192400832Y-81128835D01*
X192426235Y-81176360D01*
X192426385Y-81176722D01*
X192442028Y-81228289D01*
X192442104Y-81228674D01*
X192447990Y-81288442D01*
X192448000Y-81288638D01*
X192448000Y-81345000D01*
X192447000Y-81346732D01*
X192445000Y-81346732D01*
X192444010Y-81345196D01*
X192437535Y-81279454D01*
X192418414Y-81216422D01*
X192387366Y-81158333D01*
X192345581Y-81107419D01*
X192294667Y-81065634D01*
X192236578Y-81034586D01*
X192173546Y-81015465D01*
X192107804Y-81008990D01*
X192106178Y-81007825D01*
X192106374Y-81005835D01*
X192108000Y-81005000D01*
X192164362Y-81005000D01*
X192164558Y-81005010D01*
G37*
G36*
X152435105Y-68374617D02*
G01*
X152436034Y-68375749D01*
X152436151Y-68375907D01*
X152444629Y-68388596D01*
X152461676Y-68405643D01*
X152481724Y-68419038D01*
X152503998Y-68428264D01*
X152527648Y-68432968D01*
X152551754Y-68432968D01*
X152575404Y-68428263D01*
X152597678Y-68419037D01*
X152617725Y-68405642D01*
X152634772Y-68388595D01*
X152643250Y-68375907D01*
X152643367Y-68375749D01*
X152644293Y-68374621D01*
X152646165Y-68373917D01*
X152647711Y-68375186D01*
X152647603Y-68376833D01*
X152644439Y-68382752D01*
X152641650Y-68391945D01*
X152640700Y-68401594D01*
X152640700Y-69901406D01*
X152641650Y-69911055D01*
X152644439Y-69920248D01*
X152647605Y-69926171D01*
X152647539Y-69928170D01*
X152645776Y-69929113D01*
X152644295Y-69928383D01*
X152643366Y-69927251D01*
X152643249Y-69927093D01*
X152634771Y-69914404D01*
X152617724Y-69897357D01*
X152597676Y-69883962D01*
X152575402Y-69874736D01*
X152551752Y-69870032D01*
X152527646Y-69870032D01*
X152503996Y-69874737D01*
X152481722Y-69883963D01*
X152461675Y-69897358D01*
X152444628Y-69914405D01*
X152436150Y-69927093D01*
X152436033Y-69927251D01*
X152435107Y-69928379D01*
X152433235Y-69929083D01*
X152431689Y-69927814D01*
X152431797Y-69926167D01*
X152434961Y-69920248D01*
X152437750Y-69911055D01*
X152438700Y-69901406D01*
X152438700Y-68401594D01*
X152437750Y-68391945D01*
X152434961Y-68382752D01*
X152431795Y-68376829D01*
X152431861Y-68374830D01*
X152433624Y-68373887D01*
X152435105Y-68374617D01*
G37*
G36*
X124990405Y-65758417D02*
G01*
X124991334Y-65759549D01*
X124991451Y-65759707D01*
X124999929Y-65772396D01*
X125016976Y-65789443D01*
X125037024Y-65802838D01*
X125059298Y-65812064D01*
X125082948Y-65816768D01*
X125107054Y-65816768D01*
X125130704Y-65812063D01*
X125152978Y-65802837D01*
X125173025Y-65789442D01*
X125190072Y-65772395D01*
X125198550Y-65759707D01*
X125198667Y-65759549D01*
X125199593Y-65758421D01*
X125201465Y-65757717D01*
X125203011Y-65758986D01*
X125202903Y-65760633D01*
X125199739Y-65766552D01*
X125196950Y-65775745D01*
X125196000Y-65785394D01*
X125196000Y-67285206D01*
X125196950Y-67294855D01*
X125199739Y-67304048D01*
X125202905Y-67309971D01*
X125202839Y-67311970D01*
X125201076Y-67312913D01*
X125199595Y-67312183D01*
X125198666Y-67311051D01*
X125198549Y-67310893D01*
X125190071Y-67298204D01*
X125173024Y-67281157D01*
X125152976Y-67267762D01*
X125130702Y-67258536D01*
X125107052Y-67253832D01*
X125082946Y-67253832D01*
X125059296Y-67258537D01*
X125037022Y-67267763D01*
X125016975Y-67281158D01*
X124999928Y-67298205D01*
X124991450Y-67310893D01*
X124991333Y-67311051D01*
X124990407Y-67312179D01*
X124988535Y-67312883D01*
X124986989Y-67311614D01*
X124987097Y-67309967D01*
X124990261Y-67304048D01*
X124993050Y-67294855D01*
X124994000Y-67285206D01*
X124994000Y-65785394D01*
X124993050Y-65775745D01*
X124990261Y-65766552D01*
X124987095Y-65760629D01*
X124987161Y-65758630D01*
X124988924Y-65757687D01*
X124990405Y-65758417D01*
G37*
G36*
X171564765Y-65592874D02*
G01*
X171565600Y-65594500D01*
X171565600Y-65676597D01*
X171565590Y-65676793D01*
X171561601Y-65717296D01*
X171561525Y-65717681D01*
X171551499Y-65750733D01*
X171551349Y-65751095D01*
X171535072Y-65781546D01*
X171534854Y-65781872D01*
X171512945Y-65808568D01*
X171512668Y-65808845D01*
X171485972Y-65830754D01*
X171485646Y-65830972D01*
X171455195Y-65847249D01*
X171454833Y-65847399D01*
X171421781Y-65857425D01*
X171421396Y-65857501D01*
X171380893Y-65861490D01*
X171380697Y-65861500D01*
X171298600Y-65861500D01*
X171296868Y-65860500D01*
X171296868Y-65858500D01*
X171298404Y-65857510D01*
X171349904Y-65852438D01*
X171399242Y-65837471D01*
X171444710Y-65813168D01*
X171484562Y-65780462D01*
X171517268Y-65740610D01*
X171541571Y-65695142D01*
X171556538Y-65645804D01*
X171561610Y-65594304D01*
X171562775Y-65592678D01*
X171564765Y-65592874D01*
G37*
G36*
X169763590Y-65594304D02*
G01*
X169768662Y-65645804D01*
X169783629Y-65695142D01*
X169807932Y-65740610D01*
X169840638Y-65780462D01*
X169880490Y-65813168D01*
X169925958Y-65837471D01*
X169975296Y-65852438D01*
X170026796Y-65857510D01*
X170028422Y-65858675D01*
X170028226Y-65860665D01*
X170026600Y-65861500D01*
X169944503Y-65861500D01*
X169944307Y-65861490D01*
X169903804Y-65857501D01*
X169903419Y-65857425D01*
X169870367Y-65847399D01*
X169870005Y-65847249D01*
X169839554Y-65830972D01*
X169839228Y-65830754D01*
X169812532Y-65808845D01*
X169812255Y-65808568D01*
X169790346Y-65781872D01*
X169790128Y-65781546D01*
X169773851Y-65751095D01*
X169773701Y-65750733D01*
X169763675Y-65717681D01*
X169763599Y-65717296D01*
X169759610Y-65676793D01*
X169759600Y-65676597D01*
X169759600Y-65594500D01*
X169760600Y-65592768D01*
X169762600Y-65592768D01*
X169763590Y-65594304D01*
G37*
G36*
X119600990Y-64643804D02*
G01*
X119606062Y-64695304D01*
X119621029Y-64744642D01*
X119645332Y-64790110D01*
X119678038Y-64829962D01*
X119717890Y-64862668D01*
X119763358Y-64886971D01*
X119812696Y-64901938D01*
X119864196Y-64907010D01*
X119865822Y-64908175D01*
X119865626Y-64910165D01*
X119864000Y-64911000D01*
X119781903Y-64911000D01*
X119781707Y-64910990D01*
X119741204Y-64907001D01*
X119740819Y-64906925D01*
X119707767Y-64896899D01*
X119707405Y-64896749D01*
X119676954Y-64880472D01*
X119676628Y-64880254D01*
X119649932Y-64858345D01*
X119649655Y-64858068D01*
X119627746Y-64831372D01*
X119627528Y-64831046D01*
X119611251Y-64800595D01*
X119611101Y-64800233D01*
X119601075Y-64767181D01*
X119600999Y-64766796D01*
X119597010Y-64726293D01*
X119597000Y-64726097D01*
X119597000Y-64644000D01*
X119598000Y-64642268D01*
X119600000Y-64642268D01*
X119600990Y-64643804D01*
G37*
G36*
X121702165Y-64642374D02*
G01*
X121703000Y-64644000D01*
X121703000Y-64726097D01*
X121702990Y-64726293D01*
X121699001Y-64766796D01*
X121698925Y-64767181D01*
X121688899Y-64800233D01*
X121688749Y-64800595D01*
X121672472Y-64831046D01*
X121672254Y-64831372D01*
X121650345Y-64858068D01*
X121650068Y-64858345D01*
X121623372Y-64880254D01*
X121623046Y-64880472D01*
X121592595Y-64896749D01*
X121592233Y-64896899D01*
X121559181Y-64906925D01*
X121558796Y-64907001D01*
X121518293Y-64910990D01*
X121518097Y-64911000D01*
X121436000Y-64911000D01*
X121434268Y-64910000D01*
X121434268Y-64908000D01*
X121435804Y-64907010D01*
X121487304Y-64901938D01*
X121536642Y-64886971D01*
X121582110Y-64862668D01*
X121621962Y-64829962D01*
X121654668Y-64790110D01*
X121678971Y-64744642D01*
X121693938Y-64695304D01*
X121699010Y-64643804D01*
X121700175Y-64642178D01*
X121702165Y-64642374D01*
G37*
G36*
X112996990Y-64643804D02*
G01*
X113002062Y-64695304D01*
X113017029Y-64744642D01*
X113041332Y-64790110D01*
X113074038Y-64829962D01*
X113113890Y-64862668D01*
X113159358Y-64886971D01*
X113208696Y-64901938D01*
X113260196Y-64907010D01*
X113261822Y-64908175D01*
X113261626Y-64910165D01*
X113260000Y-64911000D01*
X113177903Y-64911000D01*
X113177707Y-64910990D01*
X113137204Y-64907001D01*
X113136819Y-64906925D01*
X113103767Y-64896899D01*
X113103405Y-64896749D01*
X113072954Y-64880472D01*
X113072628Y-64880254D01*
X113045932Y-64858345D01*
X113045655Y-64858068D01*
X113023746Y-64831372D01*
X113023528Y-64831046D01*
X113007251Y-64800595D01*
X113007101Y-64800233D01*
X112997075Y-64767181D01*
X112996999Y-64766796D01*
X112993010Y-64726293D01*
X112993000Y-64726097D01*
X112993000Y-64644000D01*
X112994000Y-64642268D01*
X112996000Y-64642268D01*
X112996990Y-64643804D01*
G37*
G36*
X115098165Y-64642374D02*
G01*
X115099000Y-64644000D01*
X115099000Y-64726097D01*
X115098990Y-64726293D01*
X115095001Y-64766796D01*
X115094925Y-64767181D01*
X115084899Y-64800233D01*
X115084749Y-64800595D01*
X115068472Y-64831046D01*
X115068254Y-64831372D01*
X115046345Y-64858068D01*
X115046068Y-64858345D01*
X115019372Y-64880254D01*
X115019046Y-64880472D01*
X114988595Y-64896749D01*
X114988233Y-64896899D01*
X114955181Y-64906925D01*
X114954796Y-64907001D01*
X114914293Y-64910990D01*
X114914097Y-64911000D01*
X114832000Y-64911000D01*
X114830268Y-64910000D01*
X114830268Y-64908000D01*
X114831804Y-64907010D01*
X114883304Y-64901938D01*
X114932642Y-64886971D01*
X114978110Y-64862668D01*
X115017962Y-64829962D01*
X115050668Y-64790110D01*
X115074971Y-64744642D01*
X115089938Y-64695304D01*
X115095010Y-64643804D01*
X115096175Y-64642178D01*
X115098165Y-64642374D01*
G37*
G36*
X170028332Y-63806500D02*
G01*
X170028332Y-63808500D01*
X170026796Y-63809490D01*
X169975296Y-63814562D01*
X169925958Y-63829529D01*
X169880490Y-63853832D01*
X169840638Y-63886538D01*
X169807932Y-63926390D01*
X169783629Y-63971858D01*
X169768662Y-64021196D01*
X169763590Y-64072696D01*
X169762425Y-64074322D01*
X169760435Y-64074126D01*
X169759600Y-64072500D01*
X169759600Y-63990403D01*
X169759610Y-63990207D01*
X169763599Y-63949704D01*
X169763675Y-63949319D01*
X169773701Y-63916267D01*
X169773851Y-63915905D01*
X169790128Y-63885454D01*
X169790346Y-63885128D01*
X169812255Y-63858432D01*
X169812532Y-63858155D01*
X169839228Y-63836246D01*
X169839554Y-63836028D01*
X169870005Y-63819751D01*
X169870367Y-63819601D01*
X169903419Y-63809575D01*
X169903804Y-63809499D01*
X169944307Y-63805510D01*
X169944503Y-63805500D01*
X170026600Y-63805500D01*
X170028332Y-63806500D01*
G37*
G36*
X171380893Y-63805510D02*
G01*
X171421396Y-63809499D01*
X171421781Y-63809575D01*
X171454833Y-63819601D01*
X171455195Y-63819751D01*
X171485646Y-63836028D01*
X171485972Y-63836246D01*
X171512668Y-63858155D01*
X171512945Y-63858432D01*
X171534854Y-63885128D01*
X171535072Y-63885454D01*
X171551349Y-63915905D01*
X171551499Y-63916267D01*
X171561525Y-63949319D01*
X171561601Y-63949704D01*
X171565590Y-63990207D01*
X171565600Y-63990403D01*
X171565600Y-64072500D01*
X171564600Y-64074232D01*
X171562600Y-64074232D01*
X171561610Y-64072696D01*
X171556538Y-64021196D01*
X171541571Y-63971858D01*
X171517268Y-63926390D01*
X171484562Y-63886538D01*
X171444710Y-63853832D01*
X171399242Y-63829529D01*
X171349904Y-63814562D01*
X171298404Y-63809490D01*
X171296778Y-63808325D01*
X171296974Y-63806335D01*
X171298600Y-63805500D01*
X171380697Y-63805500D01*
X171380893Y-63805510D01*
G37*
G36*
X113261732Y-63106000D02*
G01*
X113261732Y-63108000D01*
X113260196Y-63108990D01*
X113208696Y-63114062D01*
X113159358Y-63129029D01*
X113113890Y-63153332D01*
X113074038Y-63186038D01*
X113041332Y-63225890D01*
X113017029Y-63271358D01*
X113002062Y-63320696D01*
X112996990Y-63372196D01*
X112995825Y-63373822D01*
X112993835Y-63373626D01*
X112993000Y-63372000D01*
X112993000Y-63289903D01*
X112993010Y-63289707D01*
X112996999Y-63249204D01*
X112997075Y-63248819D01*
X113007101Y-63215767D01*
X113007251Y-63215405D01*
X113023528Y-63184954D01*
X113023746Y-63184628D01*
X113045655Y-63157932D01*
X113045932Y-63157655D01*
X113072628Y-63135746D01*
X113072954Y-63135528D01*
X113103405Y-63119251D01*
X113103767Y-63119101D01*
X113136819Y-63109075D01*
X113137204Y-63108999D01*
X113177707Y-63105010D01*
X113177903Y-63105000D01*
X113260000Y-63105000D01*
X113261732Y-63106000D01*
G37*
G36*
X119865732Y-63106000D02*
G01*
X119865732Y-63108000D01*
X119864196Y-63108990D01*
X119812696Y-63114062D01*
X119763358Y-63129029D01*
X119717890Y-63153332D01*
X119678038Y-63186038D01*
X119645332Y-63225890D01*
X119621029Y-63271358D01*
X119606062Y-63320696D01*
X119600990Y-63372196D01*
X119599825Y-63373822D01*
X119597835Y-63373626D01*
X119597000Y-63372000D01*
X119597000Y-63289903D01*
X119597010Y-63289707D01*
X119600999Y-63249204D01*
X119601075Y-63248819D01*
X119611101Y-63215767D01*
X119611251Y-63215405D01*
X119627528Y-63184954D01*
X119627746Y-63184628D01*
X119649655Y-63157932D01*
X119649932Y-63157655D01*
X119676628Y-63135746D01*
X119676954Y-63135528D01*
X119707405Y-63119251D01*
X119707767Y-63119101D01*
X119740819Y-63109075D01*
X119741204Y-63108999D01*
X119781707Y-63105010D01*
X119781903Y-63105000D01*
X119864000Y-63105000D01*
X119865732Y-63106000D01*
G37*
G36*
X114914293Y-63105010D02*
G01*
X114954796Y-63108999D01*
X114955181Y-63109075D01*
X114988233Y-63119101D01*
X114988595Y-63119251D01*
X115019046Y-63135528D01*
X115019372Y-63135746D01*
X115046068Y-63157655D01*
X115046345Y-63157932D01*
X115068254Y-63184628D01*
X115068472Y-63184954D01*
X115084749Y-63215405D01*
X115084899Y-63215767D01*
X115094925Y-63248819D01*
X115095001Y-63249204D01*
X115098990Y-63289707D01*
X115099000Y-63289903D01*
X115099000Y-63372000D01*
X115098000Y-63373732D01*
X115096000Y-63373732D01*
X115095010Y-63372196D01*
X115089938Y-63320696D01*
X115074971Y-63271358D01*
X115050668Y-63225890D01*
X115017962Y-63186038D01*
X114978110Y-63153332D01*
X114932642Y-63129029D01*
X114883304Y-63114062D01*
X114831804Y-63108990D01*
X114830178Y-63107825D01*
X114830374Y-63105835D01*
X114832000Y-63105000D01*
X114914097Y-63105000D01*
X114914293Y-63105010D01*
G37*
G36*
X121518293Y-63105010D02*
G01*
X121558796Y-63108999D01*
X121559181Y-63109075D01*
X121592233Y-63119101D01*
X121592595Y-63119251D01*
X121623046Y-63135528D01*
X121623372Y-63135746D01*
X121650068Y-63157655D01*
X121650345Y-63157932D01*
X121672254Y-63184628D01*
X121672472Y-63184954D01*
X121688749Y-63215405D01*
X121688899Y-63215767D01*
X121698925Y-63248819D01*
X121699001Y-63249204D01*
X121702990Y-63289707D01*
X121703000Y-63289903D01*
X121703000Y-63372000D01*
X121702000Y-63373732D01*
X121700000Y-63373732D01*
X121699010Y-63372196D01*
X121693938Y-63320696D01*
X121678971Y-63271358D01*
X121654668Y-63225890D01*
X121621962Y-63186038D01*
X121582110Y-63153332D01*
X121536642Y-63129029D01*
X121487304Y-63114062D01*
X121435804Y-63108990D01*
X121434178Y-63107825D01*
X121434374Y-63105835D01*
X121436000Y-63105000D01*
X121518097Y-63105000D01*
X121518293Y-63105010D01*
G37*
G36*
X113036165Y-50232874D02*
G01*
X113037000Y-50234500D01*
X113037000Y-50290860D01*
X113036990Y-50291056D01*
X113028942Y-50372774D01*
X113028866Y-50373159D01*
X113006821Y-50445830D01*
X113006671Y-50446192D01*
X112970872Y-50513168D01*
X112970654Y-50513494D01*
X112922476Y-50572199D01*
X112922199Y-50572476D01*
X112863494Y-50620654D01*
X112863168Y-50620872D01*
X112796192Y-50656671D01*
X112795830Y-50656821D01*
X112723159Y-50678866D01*
X112722774Y-50678942D01*
X112641056Y-50686990D01*
X112640860Y-50687000D01*
X112584500Y-50687000D01*
X112582768Y-50686000D01*
X112582768Y-50684000D01*
X112584304Y-50683010D01*
X112671993Y-50674374D01*
X112756130Y-50648851D01*
X112833668Y-50607406D01*
X112901631Y-50551631D01*
X112957406Y-50483668D01*
X112998851Y-50406130D01*
X113024374Y-50321993D01*
X113033010Y-50234304D01*
X113034175Y-50232678D01*
X113036165Y-50232874D01*
G37*
G36*
X111234990Y-50234304D02*
G01*
X111243626Y-50321993D01*
X111269149Y-50406130D01*
X111310594Y-50483668D01*
X111366369Y-50551631D01*
X111434332Y-50607406D01*
X111511870Y-50648851D01*
X111596007Y-50674374D01*
X111683696Y-50683010D01*
X111685322Y-50684175D01*
X111685126Y-50686165D01*
X111683500Y-50687000D01*
X111627140Y-50687000D01*
X111626944Y-50686990D01*
X111545226Y-50678942D01*
X111544841Y-50678866D01*
X111472170Y-50656821D01*
X111471808Y-50656671D01*
X111404832Y-50620872D01*
X111404506Y-50620654D01*
X111345801Y-50572476D01*
X111345524Y-50572199D01*
X111297346Y-50513494D01*
X111297128Y-50513168D01*
X111261329Y-50446192D01*
X111261179Y-50445830D01*
X111239134Y-50373159D01*
X111239058Y-50372774D01*
X111231010Y-50291056D01*
X111231000Y-50290860D01*
X111231000Y-50234500D01*
X111232000Y-50232768D01*
X111234000Y-50232768D01*
X111234990Y-50234304D01*
G37*
G36*
X111685232Y-48882000D02*
G01*
X111685232Y-48884000D01*
X111683696Y-48884990D01*
X111596007Y-48893626D01*
X111511870Y-48919149D01*
X111434332Y-48960594D01*
X111366369Y-49016369D01*
X111310594Y-49084332D01*
X111269149Y-49161870D01*
X111243626Y-49246007D01*
X111234990Y-49333696D01*
X111233825Y-49335322D01*
X111231835Y-49335126D01*
X111231000Y-49333500D01*
X111231000Y-49277140D01*
X111231010Y-49276944D01*
X111239058Y-49195226D01*
X111239134Y-49194841D01*
X111261179Y-49122170D01*
X111261329Y-49121808D01*
X111297128Y-49054832D01*
X111297346Y-49054506D01*
X111345524Y-48995801D01*
X111345801Y-48995524D01*
X111404506Y-48947346D01*
X111404832Y-48947128D01*
X111471808Y-48911329D01*
X111472170Y-48911179D01*
X111544841Y-48889134D01*
X111545226Y-48889058D01*
X111626944Y-48881010D01*
X111627140Y-48881000D01*
X111683500Y-48881000D01*
X111685232Y-48882000D01*
G37*
G36*
X112641056Y-48881010D02*
G01*
X112722774Y-48889058D01*
X112723159Y-48889134D01*
X112795830Y-48911179D01*
X112796192Y-48911329D01*
X112863168Y-48947128D01*
X112863494Y-48947346D01*
X112922199Y-48995524D01*
X112922476Y-48995801D01*
X112970654Y-49054506D01*
X112970872Y-49054832D01*
X113006671Y-49121808D01*
X113006821Y-49122170D01*
X113028866Y-49194841D01*
X113028942Y-49195226D01*
X113036990Y-49276944D01*
X113037000Y-49277140D01*
X113037000Y-49333500D01*
X113036000Y-49335232D01*
X113034000Y-49335232D01*
X113033010Y-49333696D01*
X113024374Y-49246007D01*
X112998851Y-49161870D01*
X112957406Y-49084332D01*
X112901631Y-49016369D01*
X112833668Y-48960594D01*
X112756130Y-48919149D01*
X112671993Y-48893626D01*
X112584304Y-48884990D01*
X112582678Y-48883825D01*
X112582874Y-48881835D01*
X112584500Y-48881000D01*
X112640860Y-48881000D01*
X112641056Y-48881010D01*
G37*
M02*
