%TF.GenerationSoftware,KiCad,Pcbnew,(5.1.7-0-10_14)*%
%TF.CreationDate,2021-04-19T00:34:31+09:00*%
%TF.ProjectId,scsiemu,73637369-656d-4752-9e6b-696361645f70,rev?*%
%TF.SameCoordinates,Original*%
%TF.FileFunction,Paste,Bot*%
%TF.FilePolarity,Positive*%
%FSLAX46Y46*%
G04 Gerber Fmt 4.6, Leading zero omitted, Abs format (unit mm)*
G04 Created by KiCad (PCBNEW (5.1.7-0-10_14)) date 2021-04-19 00:34:31*
%MOMM*%
%LPD*%
G01*
G04 APERTURE LIST*
%ADD10R,1.900000X0.800000*%
%ADD11R,0.800000X1.900000*%
G04 APERTURE END LIST*
%TO.C,R7*%
G36*
G01*
X125454400Y-78377600D02*
X125929400Y-78377600D01*
G75*
G02*
X126166900Y-78615100I0J-237500D01*
G01*
X126166900Y-79115100D01*
G75*
G02*
X125929400Y-79352600I-237500J0D01*
G01*
X125454400Y-79352600D01*
G75*
G02*
X125216900Y-79115100I0J237500D01*
G01*
X125216900Y-78615100D01*
G75*
G02*
X125454400Y-78377600I237500J0D01*
G01*
G37*
G36*
G01*
X125454400Y-76552600D02*
X125929400Y-76552600D01*
G75*
G02*
X126166900Y-76790100I0J-237500D01*
G01*
X126166900Y-77290100D01*
G75*
G02*
X125929400Y-77527600I-237500J0D01*
G01*
X125454400Y-77527600D01*
G75*
G02*
X125216900Y-77290100I0J237500D01*
G01*
X125216900Y-76790100D01*
G75*
G02*
X125454400Y-76552600I237500J0D01*
G01*
G37*
%TD*%
%TO.C,R6*%
G36*
G01*
X117014000Y-72601900D02*
X116539000Y-72601900D01*
G75*
G02*
X116301500Y-72364400I0J237500D01*
G01*
X116301500Y-71864400D01*
G75*
G02*
X116539000Y-71626900I237500J0D01*
G01*
X117014000Y-71626900D01*
G75*
G02*
X117251500Y-71864400I0J-237500D01*
G01*
X117251500Y-72364400D01*
G75*
G02*
X117014000Y-72601900I-237500J0D01*
G01*
G37*
G36*
G01*
X117014000Y-74426900D02*
X116539000Y-74426900D01*
G75*
G02*
X116301500Y-74189400I0J237500D01*
G01*
X116301500Y-73689400D01*
G75*
G02*
X116539000Y-73451900I237500J0D01*
G01*
X117014000Y-73451900D01*
G75*
G02*
X117251500Y-73689400I0J-237500D01*
G01*
X117251500Y-74189400D01*
G75*
G02*
X117014000Y-74426900I-237500J0D01*
G01*
G37*
%TD*%
%TO.C,R5*%
G36*
G01*
X122383100Y-75408800D02*
X122383100Y-74933800D01*
G75*
G02*
X122620600Y-74696300I237500J0D01*
G01*
X123120600Y-74696300D01*
G75*
G02*
X123358100Y-74933800I0J-237500D01*
G01*
X123358100Y-75408800D01*
G75*
G02*
X123120600Y-75646300I-237500J0D01*
G01*
X122620600Y-75646300D01*
G75*
G02*
X122383100Y-75408800I0J237500D01*
G01*
G37*
G36*
G01*
X120558100Y-75408800D02*
X120558100Y-74933800D01*
G75*
G02*
X120795600Y-74696300I237500J0D01*
G01*
X121295600Y-74696300D01*
G75*
G02*
X121533100Y-74933800I0J-237500D01*
G01*
X121533100Y-75408800D01*
G75*
G02*
X121295600Y-75646300I-237500J0D01*
G01*
X120795600Y-75646300D01*
G75*
G02*
X120558100Y-75408800I0J237500D01*
G01*
G37*
%TD*%
D10*
%TO.C,Q3*%
X122591700Y-81800700D03*
X125591700Y-82750700D03*
X125591700Y-80850700D03*
%TD*%
%TO.C,Q2*%
X120765700Y-78244700D03*
X117765700Y-77294700D03*
X117765700Y-79194700D03*
%TD*%
D11*
%TO.C,Q1*%
X125095000Y-69658100D03*
X124145000Y-72658100D03*
X126045000Y-72658100D03*
%TD*%
%TO.C,C11*%
G36*
G01*
X148780200Y-45793500D02*
X148780200Y-47043500D01*
G75*
G02*
X148530200Y-47293500I-250000J0D01*
G01*
X147605200Y-47293500D01*
G75*
G02*
X147355200Y-47043500I0J250000D01*
G01*
X147355200Y-45793500D01*
G75*
G02*
X147605200Y-45543500I250000J0D01*
G01*
X148530200Y-45543500D01*
G75*
G02*
X148780200Y-45793500I0J-250000D01*
G01*
G37*
G36*
G01*
X151755200Y-45793500D02*
X151755200Y-47043500D01*
G75*
G02*
X151505200Y-47293500I-250000J0D01*
G01*
X150580200Y-47293500D01*
G75*
G02*
X150330200Y-47043500I0J250000D01*
G01*
X150330200Y-45793500D01*
G75*
G02*
X150580200Y-45543500I250000J0D01*
G01*
X151505200Y-45543500D01*
G75*
G02*
X151755200Y-45793500I0J-250000D01*
G01*
G37*
%TD*%
%TO.C,C10*%
G36*
G01*
X183121000Y-63383000D02*
X183121000Y-64633000D01*
G75*
G02*
X182871000Y-64883000I-250000J0D01*
G01*
X181946000Y-64883000D01*
G75*
G02*
X181696000Y-64633000I0J250000D01*
G01*
X181696000Y-63383000D01*
G75*
G02*
X181946000Y-63133000I250000J0D01*
G01*
X182871000Y-63133000D01*
G75*
G02*
X183121000Y-63383000I0J-250000D01*
G01*
G37*
G36*
G01*
X186096000Y-63383000D02*
X186096000Y-64633000D01*
G75*
G02*
X185846000Y-64883000I-250000J0D01*
G01*
X184921000Y-64883000D01*
G75*
G02*
X184671000Y-64633000I0J250000D01*
G01*
X184671000Y-63383000D01*
G75*
G02*
X184921000Y-63133000I250000J0D01*
G01*
X185846000Y-63133000D01*
G75*
G02*
X186096000Y-63383000I0J-250000D01*
G01*
G37*
%TD*%
%TO.C,U8*%
G36*
G01*
X146236400Y-48079800D02*
X146236400Y-48279800D01*
G75*
G02*
X146136400Y-48379800I-100000J0D01*
G01*
X144861400Y-48379800D01*
G75*
G02*
X144761400Y-48279800I0J100000D01*
G01*
X144761400Y-48079800D01*
G75*
G02*
X144861400Y-47979800I100000J0D01*
G01*
X146136400Y-47979800D01*
G75*
G02*
X146236400Y-48079800I0J-100000D01*
G01*
G37*
G36*
G01*
X146236400Y-48729800D02*
X146236400Y-48929800D01*
G75*
G02*
X146136400Y-49029800I-100000J0D01*
G01*
X144861400Y-49029800D01*
G75*
G02*
X144761400Y-48929800I0J100000D01*
G01*
X144761400Y-48729800D01*
G75*
G02*
X144861400Y-48629800I100000J0D01*
G01*
X146136400Y-48629800D01*
G75*
G02*
X146236400Y-48729800I0J-100000D01*
G01*
G37*
G36*
G01*
X146236400Y-49379800D02*
X146236400Y-49579800D01*
G75*
G02*
X146136400Y-49679800I-100000J0D01*
G01*
X144861400Y-49679800D01*
G75*
G02*
X144761400Y-49579800I0J100000D01*
G01*
X144761400Y-49379800D01*
G75*
G02*
X144861400Y-49279800I100000J0D01*
G01*
X146136400Y-49279800D01*
G75*
G02*
X146236400Y-49379800I0J-100000D01*
G01*
G37*
G36*
G01*
X146236400Y-50029800D02*
X146236400Y-50229800D01*
G75*
G02*
X146136400Y-50329800I-100000J0D01*
G01*
X144861400Y-50329800D01*
G75*
G02*
X144761400Y-50229800I0J100000D01*
G01*
X144761400Y-50029800D01*
G75*
G02*
X144861400Y-49929800I100000J0D01*
G01*
X146136400Y-49929800D01*
G75*
G02*
X146236400Y-50029800I0J-100000D01*
G01*
G37*
G36*
G01*
X146236400Y-50679800D02*
X146236400Y-50879800D01*
G75*
G02*
X146136400Y-50979800I-100000J0D01*
G01*
X144861400Y-50979800D01*
G75*
G02*
X144761400Y-50879800I0J100000D01*
G01*
X144761400Y-50679800D01*
G75*
G02*
X144861400Y-50579800I100000J0D01*
G01*
X146136400Y-50579800D01*
G75*
G02*
X146236400Y-50679800I0J-100000D01*
G01*
G37*
G36*
G01*
X146236400Y-51329800D02*
X146236400Y-51529800D01*
G75*
G02*
X146136400Y-51629800I-100000J0D01*
G01*
X144861400Y-51629800D01*
G75*
G02*
X144761400Y-51529800I0J100000D01*
G01*
X144761400Y-51329800D01*
G75*
G02*
X144861400Y-51229800I100000J0D01*
G01*
X146136400Y-51229800D01*
G75*
G02*
X146236400Y-51329800I0J-100000D01*
G01*
G37*
G36*
G01*
X146236400Y-51979800D02*
X146236400Y-52179800D01*
G75*
G02*
X146136400Y-52279800I-100000J0D01*
G01*
X144861400Y-52279800D01*
G75*
G02*
X144761400Y-52179800I0J100000D01*
G01*
X144761400Y-51979800D01*
G75*
G02*
X144861400Y-51879800I100000J0D01*
G01*
X146136400Y-51879800D01*
G75*
G02*
X146236400Y-51979800I0J-100000D01*
G01*
G37*
G36*
G01*
X146236400Y-52629800D02*
X146236400Y-52829800D01*
G75*
G02*
X146136400Y-52929800I-100000J0D01*
G01*
X144861400Y-52929800D01*
G75*
G02*
X144761400Y-52829800I0J100000D01*
G01*
X144761400Y-52629800D01*
G75*
G02*
X144861400Y-52529800I100000J0D01*
G01*
X146136400Y-52529800D01*
G75*
G02*
X146236400Y-52629800I0J-100000D01*
G01*
G37*
G36*
G01*
X146236400Y-53279800D02*
X146236400Y-53479800D01*
G75*
G02*
X146136400Y-53579800I-100000J0D01*
G01*
X144861400Y-53579800D01*
G75*
G02*
X144761400Y-53479800I0J100000D01*
G01*
X144761400Y-53279800D01*
G75*
G02*
X144861400Y-53179800I100000J0D01*
G01*
X146136400Y-53179800D01*
G75*
G02*
X146236400Y-53279800I0J-100000D01*
G01*
G37*
G36*
G01*
X146236400Y-53929800D02*
X146236400Y-54129800D01*
G75*
G02*
X146136400Y-54229800I-100000J0D01*
G01*
X144861400Y-54229800D01*
G75*
G02*
X144761400Y-54129800I0J100000D01*
G01*
X144761400Y-53929800D01*
G75*
G02*
X144861400Y-53829800I100000J0D01*
G01*
X146136400Y-53829800D01*
G75*
G02*
X146236400Y-53929800I0J-100000D01*
G01*
G37*
G36*
G01*
X151961400Y-53929800D02*
X151961400Y-54129800D01*
G75*
G02*
X151861400Y-54229800I-100000J0D01*
G01*
X150586400Y-54229800D01*
G75*
G02*
X150486400Y-54129800I0J100000D01*
G01*
X150486400Y-53929800D01*
G75*
G02*
X150586400Y-53829800I100000J0D01*
G01*
X151861400Y-53829800D01*
G75*
G02*
X151961400Y-53929800I0J-100000D01*
G01*
G37*
G36*
G01*
X151961400Y-53279800D02*
X151961400Y-53479800D01*
G75*
G02*
X151861400Y-53579800I-100000J0D01*
G01*
X150586400Y-53579800D01*
G75*
G02*
X150486400Y-53479800I0J100000D01*
G01*
X150486400Y-53279800D01*
G75*
G02*
X150586400Y-53179800I100000J0D01*
G01*
X151861400Y-53179800D01*
G75*
G02*
X151961400Y-53279800I0J-100000D01*
G01*
G37*
G36*
G01*
X151961400Y-52629800D02*
X151961400Y-52829800D01*
G75*
G02*
X151861400Y-52929800I-100000J0D01*
G01*
X150586400Y-52929800D01*
G75*
G02*
X150486400Y-52829800I0J100000D01*
G01*
X150486400Y-52629800D01*
G75*
G02*
X150586400Y-52529800I100000J0D01*
G01*
X151861400Y-52529800D01*
G75*
G02*
X151961400Y-52629800I0J-100000D01*
G01*
G37*
G36*
G01*
X151961400Y-51979800D02*
X151961400Y-52179800D01*
G75*
G02*
X151861400Y-52279800I-100000J0D01*
G01*
X150586400Y-52279800D01*
G75*
G02*
X150486400Y-52179800I0J100000D01*
G01*
X150486400Y-51979800D01*
G75*
G02*
X150586400Y-51879800I100000J0D01*
G01*
X151861400Y-51879800D01*
G75*
G02*
X151961400Y-51979800I0J-100000D01*
G01*
G37*
G36*
G01*
X151961400Y-51329800D02*
X151961400Y-51529800D01*
G75*
G02*
X151861400Y-51629800I-100000J0D01*
G01*
X150586400Y-51629800D01*
G75*
G02*
X150486400Y-51529800I0J100000D01*
G01*
X150486400Y-51329800D01*
G75*
G02*
X150586400Y-51229800I100000J0D01*
G01*
X151861400Y-51229800D01*
G75*
G02*
X151961400Y-51329800I0J-100000D01*
G01*
G37*
G36*
G01*
X151961400Y-50679800D02*
X151961400Y-50879800D01*
G75*
G02*
X151861400Y-50979800I-100000J0D01*
G01*
X150586400Y-50979800D01*
G75*
G02*
X150486400Y-50879800I0J100000D01*
G01*
X150486400Y-50679800D01*
G75*
G02*
X150586400Y-50579800I100000J0D01*
G01*
X151861400Y-50579800D01*
G75*
G02*
X151961400Y-50679800I0J-100000D01*
G01*
G37*
G36*
G01*
X151961400Y-50029800D02*
X151961400Y-50229800D01*
G75*
G02*
X151861400Y-50329800I-100000J0D01*
G01*
X150586400Y-50329800D01*
G75*
G02*
X150486400Y-50229800I0J100000D01*
G01*
X150486400Y-50029800D01*
G75*
G02*
X150586400Y-49929800I100000J0D01*
G01*
X151861400Y-49929800D01*
G75*
G02*
X151961400Y-50029800I0J-100000D01*
G01*
G37*
G36*
G01*
X151961400Y-49379800D02*
X151961400Y-49579800D01*
G75*
G02*
X151861400Y-49679800I-100000J0D01*
G01*
X150586400Y-49679800D01*
G75*
G02*
X150486400Y-49579800I0J100000D01*
G01*
X150486400Y-49379800D01*
G75*
G02*
X150586400Y-49279800I100000J0D01*
G01*
X151861400Y-49279800D01*
G75*
G02*
X151961400Y-49379800I0J-100000D01*
G01*
G37*
G36*
G01*
X151961400Y-48729800D02*
X151961400Y-48929800D01*
G75*
G02*
X151861400Y-49029800I-100000J0D01*
G01*
X150586400Y-49029800D01*
G75*
G02*
X150486400Y-48929800I0J100000D01*
G01*
X150486400Y-48729800D01*
G75*
G02*
X150586400Y-48629800I100000J0D01*
G01*
X151861400Y-48629800D01*
G75*
G02*
X151961400Y-48729800I0J-100000D01*
G01*
G37*
G36*
G01*
X151961400Y-48079800D02*
X151961400Y-48279800D01*
G75*
G02*
X151861400Y-48379800I-100000J0D01*
G01*
X150586400Y-48379800D01*
G75*
G02*
X150486400Y-48279800I0J100000D01*
G01*
X150486400Y-48079800D01*
G75*
G02*
X150586400Y-47979800I100000J0D01*
G01*
X151861400Y-47979800D01*
G75*
G02*
X151961400Y-48079800I0J-100000D01*
G01*
G37*
%TD*%
%TO.C,U7*%
G36*
G01*
X187094000Y-68673000D02*
X187294000Y-68673000D01*
G75*
G02*
X187394000Y-68773000I0J-100000D01*
G01*
X187394000Y-70048000D01*
G75*
G02*
X187294000Y-70148000I-100000J0D01*
G01*
X187094000Y-70148000D01*
G75*
G02*
X186994000Y-70048000I0J100000D01*
G01*
X186994000Y-68773000D01*
G75*
G02*
X187094000Y-68673000I100000J0D01*
G01*
G37*
G36*
G01*
X187744000Y-68673000D02*
X187944000Y-68673000D01*
G75*
G02*
X188044000Y-68773000I0J-100000D01*
G01*
X188044000Y-70048000D01*
G75*
G02*
X187944000Y-70148000I-100000J0D01*
G01*
X187744000Y-70148000D01*
G75*
G02*
X187644000Y-70048000I0J100000D01*
G01*
X187644000Y-68773000D01*
G75*
G02*
X187744000Y-68673000I100000J0D01*
G01*
G37*
G36*
G01*
X188394000Y-68673000D02*
X188594000Y-68673000D01*
G75*
G02*
X188694000Y-68773000I0J-100000D01*
G01*
X188694000Y-70048000D01*
G75*
G02*
X188594000Y-70148000I-100000J0D01*
G01*
X188394000Y-70148000D01*
G75*
G02*
X188294000Y-70048000I0J100000D01*
G01*
X188294000Y-68773000D01*
G75*
G02*
X188394000Y-68673000I100000J0D01*
G01*
G37*
G36*
G01*
X189044000Y-68673000D02*
X189244000Y-68673000D01*
G75*
G02*
X189344000Y-68773000I0J-100000D01*
G01*
X189344000Y-70048000D01*
G75*
G02*
X189244000Y-70148000I-100000J0D01*
G01*
X189044000Y-70148000D01*
G75*
G02*
X188944000Y-70048000I0J100000D01*
G01*
X188944000Y-68773000D01*
G75*
G02*
X189044000Y-68673000I100000J0D01*
G01*
G37*
G36*
G01*
X189694000Y-68673000D02*
X189894000Y-68673000D01*
G75*
G02*
X189994000Y-68773000I0J-100000D01*
G01*
X189994000Y-70048000D01*
G75*
G02*
X189894000Y-70148000I-100000J0D01*
G01*
X189694000Y-70148000D01*
G75*
G02*
X189594000Y-70048000I0J100000D01*
G01*
X189594000Y-68773000D01*
G75*
G02*
X189694000Y-68673000I100000J0D01*
G01*
G37*
G36*
G01*
X190344000Y-68673000D02*
X190544000Y-68673000D01*
G75*
G02*
X190644000Y-68773000I0J-100000D01*
G01*
X190644000Y-70048000D01*
G75*
G02*
X190544000Y-70148000I-100000J0D01*
G01*
X190344000Y-70148000D01*
G75*
G02*
X190244000Y-70048000I0J100000D01*
G01*
X190244000Y-68773000D01*
G75*
G02*
X190344000Y-68673000I100000J0D01*
G01*
G37*
G36*
G01*
X190994000Y-68673000D02*
X191194000Y-68673000D01*
G75*
G02*
X191294000Y-68773000I0J-100000D01*
G01*
X191294000Y-70048000D01*
G75*
G02*
X191194000Y-70148000I-100000J0D01*
G01*
X190994000Y-70148000D01*
G75*
G02*
X190894000Y-70048000I0J100000D01*
G01*
X190894000Y-68773000D01*
G75*
G02*
X190994000Y-68673000I100000J0D01*
G01*
G37*
G36*
G01*
X191644000Y-68673000D02*
X191844000Y-68673000D01*
G75*
G02*
X191944000Y-68773000I0J-100000D01*
G01*
X191944000Y-70048000D01*
G75*
G02*
X191844000Y-70148000I-100000J0D01*
G01*
X191644000Y-70148000D01*
G75*
G02*
X191544000Y-70048000I0J100000D01*
G01*
X191544000Y-68773000D01*
G75*
G02*
X191644000Y-68673000I100000J0D01*
G01*
G37*
G36*
G01*
X192294000Y-68673000D02*
X192494000Y-68673000D01*
G75*
G02*
X192594000Y-68773000I0J-100000D01*
G01*
X192594000Y-70048000D01*
G75*
G02*
X192494000Y-70148000I-100000J0D01*
G01*
X192294000Y-70148000D01*
G75*
G02*
X192194000Y-70048000I0J100000D01*
G01*
X192194000Y-68773000D01*
G75*
G02*
X192294000Y-68673000I100000J0D01*
G01*
G37*
G36*
G01*
X192944000Y-68673000D02*
X193144000Y-68673000D01*
G75*
G02*
X193244000Y-68773000I0J-100000D01*
G01*
X193244000Y-70048000D01*
G75*
G02*
X193144000Y-70148000I-100000J0D01*
G01*
X192944000Y-70148000D01*
G75*
G02*
X192844000Y-70048000I0J100000D01*
G01*
X192844000Y-68773000D01*
G75*
G02*
X192944000Y-68673000I100000J0D01*
G01*
G37*
G36*
G01*
X192944000Y-62948000D02*
X193144000Y-62948000D01*
G75*
G02*
X193244000Y-63048000I0J-100000D01*
G01*
X193244000Y-64323000D01*
G75*
G02*
X193144000Y-64423000I-100000J0D01*
G01*
X192944000Y-64423000D01*
G75*
G02*
X192844000Y-64323000I0J100000D01*
G01*
X192844000Y-63048000D01*
G75*
G02*
X192944000Y-62948000I100000J0D01*
G01*
G37*
G36*
G01*
X192294000Y-62948000D02*
X192494000Y-62948000D01*
G75*
G02*
X192594000Y-63048000I0J-100000D01*
G01*
X192594000Y-64323000D01*
G75*
G02*
X192494000Y-64423000I-100000J0D01*
G01*
X192294000Y-64423000D01*
G75*
G02*
X192194000Y-64323000I0J100000D01*
G01*
X192194000Y-63048000D01*
G75*
G02*
X192294000Y-62948000I100000J0D01*
G01*
G37*
G36*
G01*
X191644000Y-62948000D02*
X191844000Y-62948000D01*
G75*
G02*
X191944000Y-63048000I0J-100000D01*
G01*
X191944000Y-64323000D01*
G75*
G02*
X191844000Y-64423000I-100000J0D01*
G01*
X191644000Y-64423000D01*
G75*
G02*
X191544000Y-64323000I0J100000D01*
G01*
X191544000Y-63048000D01*
G75*
G02*
X191644000Y-62948000I100000J0D01*
G01*
G37*
G36*
G01*
X190994000Y-62948000D02*
X191194000Y-62948000D01*
G75*
G02*
X191294000Y-63048000I0J-100000D01*
G01*
X191294000Y-64323000D01*
G75*
G02*
X191194000Y-64423000I-100000J0D01*
G01*
X190994000Y-64423000D01*
G75*
G02*
X190894000Y-64323000I0J100000D01*
G01*
X190894000Y-63048000D01*
G75*
G02*
X190994000Y-62948000I100000J0D01*
G01*
G37*
G36*
G01*
X190344000Y-62948000D02*
X190544000Y-62948000D01*
G75*
G02*
X190644000Y-63048000I0J-100000D01*
G01*
X190644000Y-64323000D01*
G75*
G02*
X190544000Y-64423000I-100000J0D01*
G01*
X190344000Y-64423000D01*
G75*
G02*
X190244000Y-64323000I0J100000D01*
G01*
X190244000Y-63048000D01*
G75*
G02*
X190344000Y-62948000I100000J0D01*
G01*
G37*
G36*
G01*
X189694000Y-62948000D02*
X189894000Y-62948000D01*
G75*
G02*
X189994000Y-63048000I0J-100000D01*
G01*
X189994000Y-64323000D01*
G75*
G02*
X189894000Y-64423000I-100000J0D01*
G01*
X189694000Y-64423000D01*
G75*
G02*
X189594000Y-64323000I0J100000D01*
G01*
X189594000Y-63048000D01*
G75*
G02*
X189694000Y-62948000I100000J0D01*
G01*
G37*
G36*
G01*
X189044000Y-62948000D02*
X189244000Y-62948000D01*
G75*
G02*
X189344000Y-63048000I0J-100000D01*
G01*
X189344000Y-64323000D01*
G75*
G02*
X189244000Y-64423000I-100000J0D01*
G01*
X189044000Y-64423000D01*
G75*
G02*
X188944000Y-64323000I0J100000D01*
G01*
X188944000Y-63048000D01*
G75*
G02*
X189044000Y-62948000I100000J0D01*
G01*
G37*
G36*
G01*
X188394000Y-62948000D02*
X188594000Y-62948000D01*
G75*
G02*
X188694000Y-63048000I0J-100000D01*
G01*
X188694000Y-64323000D01*
G75*
G02*
X188594000Y-64423000I-100000J0D01*
G01*
X188394000Y-64423000D01*
G75*
G02*
X188294000Y-64323000I0J100000D01*
G01*
X188294000Y-63048000D01*
G75*
G02*
X188394000Y-62948000I100000J0D01*
G01*
G37*
G36*
G01*
X187744000Y-62948000D02*
X187944000Y-62948000D01*
G75*
G02*
X188044000Y-63048000I0J-100000D01*
G01*
X188044000Y-64323000D01*
G75*
G02*
X187944000Y-64423000I-100000J0D01*
G01*
X187744000Y-64423000D01*
G75*
G02*
X187644000Y-64323000I0J100000D01*
G01*
X187644000Y-63048000D01*
G75*
G02*
X187744000Y-62948000I100000J0D01*
G01*
G37*
G36*
G01*
X187094000Y-62948000D02*
X187294000Y-62948000D01*
G75*
G02*
X187394000Y-63048000I0J-100000D01*
G01*
X187394000Y-64323000D01*
G75*
G02*
X187294000Y-64423000I-100000J0D01*
G01*
X187094000Y-64423000D01*
G75*
G02*
X186994000Y-64323000I0J100000D01*
G01*
X186994000Y-63048000D01*
G75*
G02*
X187094000Y-62948000I100000J0D01*
G01*
G37*
%TD*%
M02*
