G04 #@! TF.GenerationSoftware,KiCad,Pcbnew,(5.1.4-0-10_14)*
G04 #@! TF.CreationDate,2020-05-16T17:54:32+09:00*
G04 #@! TF.ProjectId,scsiemu,73637369-656d-4752-9e6b-696361645f70,rev?*
G04 #@! TF.SameCoordinates,Original*
G04 #@! TF.FileFunction,Legend,Bot*
G04 #@! TF.FilePolarity,Positive*
%FSLAX46Y46*%
G04 Gerber Fmt 4.6, Leading zero omitted, Abs format (unit mm)*
G04 Created by KiCad (PCBNEW (5.1.4-0-10_14)) date 2020-05-16 17:54:32*
%MOMM*%
%LPD*%
G04 APERTURE LIST*
%ADD10C,0.200000*%
%ADD11C,0.120000*%
%ADD12C,0.150000*%
%ADD13C,1.100000*%
%ADD14R,0.702000X1.602000*%
%ADD15O,4.352000X6.132000*%
%ADD16C,1.502000*%
%ADD17C,2.302000*%
%ADD18C,0.100000*%
%ADD19C,1.052000*%
%ADD20C,1.302000*%
%ADD21C,1.527000*%
%ADD22C,0.502000*%
%ADD23C,1.352000*%
%ADD24R,1.802000X1.802000*%
%ADD25O,1.802000X1.802000*%
%ADD26R,1.902000X1.902000*%
%ADD27C,1.902000*%
%ADD28R,1.602000X0.702000*%
%ADD29O,1.852000X1.302000*%
G04 APERTURE END LIST*
D10*
X143715238Y-103766880D02*
X143715238Y-102766880D01*
X143286666Y-103766880D02*
X143286666Y-103243071D01*
X143334285Y-103147833D01*
X143429523Y-103100214D01*
X143572380Y-103100214D01*
X143667619Y-103147833D01*
X143715238Y-103195452D01*
X142953333Y-103100214D02*
X142572380Y-103100214D01*
X142810476Y-102766880D02*
X142810476Y-103624023D01*
X142762857Y-103719261D01*
X142667619Y-103766880D01*
X142572380Y-103766880D01*
X142381904Y-103100214D02*
X142000952Y-103100214D01*
X142239047Y-102766880D02*
X142239047Y-103624023D01*
X142191428Y-103719261D01*
X142096190Y-103766880D01*
X142000952Y-103766880D01*
X141667619Y-103100214D02*
X141667619Y-104100214D01*
X141667619Y-103147833D02*
X141572380Y-103100214D01*
X141381904Y-103100214D01*
X141286666Y-103147833D01*
X141239047Y-103195452D01*
X141191428Y-103290690D01*
X141191428Y-103576404D01*
X141239047Y-103671642D01*
X141286666Y-103719261D01*
X141381904Y-103766880D01*
X141572380Y-103766880D01*
X141667619Y-103719261D01*
X140810476Y-103719261D02*
X140715238Y-103766880D01*
X140524761Y-103766880D01*
X140429523Y-103719261D01*
X140381904Y-103624023D01*
X140381904Y-103576404D01*
X140429523Y-103481166D01*
X140524761Y-103433547D01*
X140667619Y-103433547D01*
X140762857Y-103385928D01*
X140810476Y-103290690D01*
X140810476Y-103243071D01*
X140762857Y-103147833D01*
X140667619Y-103100214D01*
X140524761Y-103100214D01*
X140429523Y-103147833D01*
X139953333Y-103671642D02*
X139905714Y-103719261D01*
X139953333Y-103766880D01*
X140000952Y-103719261D01*
X139953333Y-103671642D01*
X139953333Y-103766880D01*
X139953333Y-103147833D02*
X139905714Y-103195452D01*
X139953333Y-103243071D01*
X140000952Y-103195452D01*
X139953333Y-103147833D01*
X139953333Y-103243071D01*
X138762857Y-102719261D02*
X139620000Y-104004976D01*
X137715238Y-102719261D02*
X138572380Y-104004976D01*
X136953333Y-103100214D02*
X136953333Y-103909738D01*
X137000952Y-104004976D01*
X137048571Y-104052595D01*
X137143809Y-104100214D01*
X137286666Y-104100214D01*
X137381904Y-104052595D01*
X136953333Y-103719261D02*
X137048571Y-103766880D01*
X137239047Y-103766880D01*
X137334285Y-103719261D01*
X137381904Y-103671642D01*
X137429523Y-103576404D01*
X137429523Y-103290690D01*
X137381904Y-103195452D01*
X137334285Y-103147833D01*
X137239047Y-103100214D01*
X137048571Y-103100214D01*
X136953333Y-103147833D01*
X136477142Y-103766880D02*
X136477142Y-103100214D01*
X136477142Y-102766880D02*
X136524761Y-102814500D01*
X136477142Y-102862119D01*
X136429523Y-102814500D01*
X136477142Y-102766880D01*
X136477142Y-102862119D01*
X136143809Y-103100214D02*
X135762857Y-103100214D01*
X136000952Y-102766880D02*
X136000952Y-103624023D01*
X135953333Y-103719261D01*
X135858095Y-103766880D01*
X135762857Y-103766880D01*
X135429523Y-103766880D02*
X135429523Y-102766880D01*
X135000952Y-103766880D02*
X135000952Y-103243071D01*
X135048571Y-103147833D01*
X135143809Y-103100214D01*
X135286666Y-103100214D01*
X135381904Y-103147833D01*
X135429523Y-103195452D01*
X134096190Y-103100214D02*
X134096190Y-103766880D01*
X134524761Y-103100214D02*
X134524761Y-103624023D01*
X134477142Y-103719261D01*
X134381904Y-103766880D01*
X134239047Y-103766880D01*
X134143809Y-103719261D01*
X134096190Y-103671642D01*
X133620000Y-103766880D02*
X133620000Y-102766880D01*
X133620000Y-103147833D02*
X133524761Y-103100214D01*
X133334285Y-103100214D01*
X133239047Y-103147833D01*
X133191428Y-103195452D01*
X133143809Y-103290690D01*
X133143809Y-103576404D01*
X133191428Y-103671642D01*
X133239047Y-103719261D01*
X133334285Y-103766880D01*
X133524761Y-103766880D01*
X133620000Y-103719261D01*
X132715238Y-103671642D02*
X132667619Y-103719261D01*
X132715238Y-103766880D01*
X132762857Y-103719261D01*
X132715238Y-103671642D01*
X132715238Y-103766880D01*
X131810476Y-103719261D02*
X131905714Y-103766880D01*
X132096190Y-103766880D01*
X132191428Y-103719261D01*
X132239047Y-103671642D01*
X132286666Y-103576404D01*
X132286666Y-103290690D01*
X132239047Y-103195452D01*
X132191428Y-103147833D01*
X132096190Y-103100214D01*
X131905714Y-103100214D01*
X131810476Y-103147833D01*
X131239047Y-103766880D02*
X131334285Y-103719261D01*
X131381904Y-103671642D01*
X131429523Y-103576404D01*
X131429523Y-103290690D01*
X131381904Y-103195452D01*
X131334285Y-103147833D01*
X131239047Y-103100214D01*
X131096190Y-103100214D01*
X131000952Y-103147833D01*
X130953333Y-103195452D01*
X130905714Y-103290690D01*
X130905714Y-103576404D01*
X130953333Y-103671642D01*
X131000952Y-103719261D01*
X131096190Y-103766880D01*
X131239047Y-103766880D01*
X130477142Y-103766880D02*
X130477142Y-103100214D01*
X130477142Y-103195452D02*
X130429523Y-103147833D01*
X130334285Y-103100214D01*
X130191428Y-103100214D01*
X130096190Y-103147833D01*
X130048571Y-103243071D01*
X130048571Y-103766880D01*
X130048571Y-103243071D02*
X130000952Y-103147833D01*
X129905714Y-103100214D01*
X129762857Y-103100214D01*
X129667619Y-103147833D01*
X129620000Y-103243071D01*
X129620000Y-103766880D01*
X128429523Y-102719261D02*
X129286666Y-104004976D01*
X128096190Y-103100214D02*
X128096190Y-103766880D01*
X128096190Y-103195452D02*
X128048571Y-103147833D01*
X127953333Y-103100214D01*
X127810476Y-103100214D01*
X127715238Y-103147833D01*
X127667619Y-103243071D01*
X127667619Y-103766880D01*
X127048571Y-103766880D02*
X127143809Y-103719261D01*
X127191428Y-103671642D01*
X127239047Y-103576404D01*
X127239047Y-103290690D01*
X127191428Y-103195452D01*
X127143809Y-103147833D01*
X127048571Y-103100214D01*
X126905714Y-103100214D01*
X126810476Y-103147833D01*
X126762857Y-103195452D01*
X126715238Y-103290690D01*
X126715238Y-103576404D01*
X126762857Y-103671642D01*
X126810476Y-103719261D01*
X126905714Y-103766880D01*
X127048571Y-103766880D01*
X126381904Y-103100214D02*
X126143809Y-103766880D01*
X125905714Y-103100214D01*
X125524761Y-103766880D02*
X125524761Y-103100214D01*
X125524761Y-102766880D02*
X125572380Y-102814500D01*
X125524761Y-102862119D01*
X125477142Y-102814500D01*
X125524761Y-102766880D01*
X125524761Y-102862119D01*
X106489404Y-90178000D02*
X106584642Y-90130380D01*
X106727500Y-90130380D01*
X106870357Y-90178000D01*
X106965595Y-90273238D01*
X107013214Y-90368476D01*
X107060833Y-90558952D01*
X107060833Y-90701809D01*
X107013214Y-90892285D01*
X106965595Y-90987523D01*
X106870357Y-91082761D01*
X106727500Y-91130380D01*
X106632261Y-91130380D01*
X106489404Y-91082761D01*
X106441785Y-91035142D01*
X106441785Y-90701809D01*
X106632261Y-90701809D01*
X106013214Y-91130380D02*
X106013214Y-90130380D01*
X105441785Y-91130380D01*
X105441785Y-90130380D01*
X104965595Y-91130380D02*
X104965595Y-90130380D01*
X104727500Y-90130380D01*
X104584642Y-90178000D01*
X104489404Y-90273238D01*
X104441785Y-90368476D01*
X104394166Y-90558952D01*
X104394166Y-90701809D01*
X104441785Y-90892285D01*
X104489404Y-90987523D01*
X104584642Y-91082761D01*
X104727500Y-91130380D01*
X104965595Y-91130380D01*
X109021452Y-95003880D02*
X109021452Y-94003880D01*
X108783357Y-94003880D01*
X108640500Y-94051500D01*
X108545261Y-94146738D01*
X108497642Y-94241976D01*
X108450023Y-94432452D01*
X108450023Y-94575309D01*
X108497642Y-94765785D01*
X108545261Y-94861023D01*
X108640500Y-94956261D01*
X108783357Y-95003880D01*
X109021452Y-95003880D01*
X108021452Y-94622928D02*
X107259547Y-94622928D01*
X108830952Y-93860880D02*
X108830952Y-92860880D01*
X108592857Y-92860880D01*
X108450000Y-92908500D01*
X108354761Y-93003738D01*
X108307142Y-93098976D01*
X108259523Y-93289452D01*
X108259523Y-93432309D01*
X108307142Y-93622785D01*
X108354761Y-93718023D01*
X108450000Y-93813261D01*
X108592857Y-93860880D01*
X108830952Y-93860880D01*
X107830952Y-93479928D02*
X107069047Y-93479928D01*
X107450000Y-93860880D02*
X107450000Y-93098976D01*
X108704000Y-92781380D02*
X108704000Y-91781380D01*
X108227809Y-92781380D02*
X108227809Y-91781380D01*
X107989714Y-91781380D01*
X107846857Y-91829000D01*
X107751619Y-91924238D01*
X107704000Y-92019476D01*
X107656380Y-92209952D01*
X107656380Y-92352809D01*
X107704000Y-92543285D01*
X107751619Y-92638523D01*
X107846857Y-92733761D01*
X107989714Y-92781380D01*
X108227809Y-92781380D01*
X113982500Y-71842380D02*
X113982500Y-72080476D01*
X113744404Y-71985238D02*
X113982500Y-72080476D01*
X114220595Y-71985238D01*
X113839642Y-72270952D02*
X113982500Y-72080476D01*
X114125357Y-72270952D01*
D11*
X112659500Y-81614000D02*
X112659500Y-86614000D01*
X125719500Y-83614000D02*
X125719500Y-89614000D01*
X155276733Y-82171000D02*
X155619267Y-82171000D01*
X155276733Y-81151000D02*
X155619267Y-81151000D01*
X114234500Y-95396233D02*
X114234500Y-95738767D01*
X115254500Y-95396233D02*
X115254500Y-95738767D01*
X157245233Y-85532500D02*
X157587767Y-85532500D01*
X157245233Y-86552500D02*
X157587767Y-86552500D01*
X113761500Y-69612000D02*
X113761500Y-71612000D01*
X113311500Y-69612000D02*
X113311500Y-69862000D01*
X113761500Y-71612000D02*
X109411500Y-71612000D01*
X113761500Y-69612000D02*
X109411500Y-69612000D01*
X113311500Y-71362000D02*
X113311500Y-71612000D01*
X116802064Y-69638500D02*
X115597936Y-69638500D01*
X116802064Y-71458500D02*
X115597936Y-71458500D01*
D12*
X114517600Y-98825200D02*
X114517600Y-99525200D01*
X116317600Y-98825200D02*
X116317600Y-99525200D01*
X114517600Y-101225200D02*
X114517600Y-100525200D01*
X116317600Y-100525200D02*
X116317600Y-101225200D01*
X109653500Y-85923500D02*
X109653500Y-85223500D01*
X111453500Y-85223500D02*
X111453500Y-85923500D01*
X109653500Y-87623500D02*
X109653500Y-86923500D01*
X111453500Y-87623500D02*
X111453500Y-86923500D01*
D11*
X107423133Y-100967000D02*
X107765667Y-100967000D01*
X107423133Y-99947000D02*
X107765667Y-99947000D01*
X140218500Y-89614000D02*
X140218500Y-83614000D01*
X153278500Y-91614000D02*
X153278500Y-86614000D01*
X139689500Y-91614000D02*
X139689500Y-86614000D01*
X126629500Y-89614000D02*
X126629500Y-83614000D01*
X163718500Y-100510000D02*
X157718500Y-100510000D01*
X165718500Y-87450000D02*
X160718500Y-87450000D01*
X111600064Y-95864000D02*
X110395936Y-95864000D01*
X111600064Y-97684000D02*
X110395936Y-97684000D01*
X111971500Y-82326564D02*
X111971500Y-81122436D01*
X110151500Y-82326564D02*
X110151500Y-81122436D01*
D12*
X113180880Y-79057595D02*
X113990404Y-79057595D01*
X114085642Y-79105214D01*
X114133261Y-79152833D01*
X114180880Y-79248071D01*
X114180880Y-79438547D01*
X114133261Y-79533785D01*
X114085642Y-79581404D01*
X113990404Y-79629023D01*
X113180880Y-79629023D01*
X113514214Y-80533785D02*
X114180880Y-80533785D01*
X113133261Y-80295690D02*
X113847547Y-80057595D01*
X113847547Y-80676642D01*
X155614666Y-83448142D02*
X155662285Y-83495761D01*
X155805142Y-83543380D01*
X155900380Y-83543380D01*
X156043238Y-83495761D01*
X156138476Y-83400523D01*
X156186095Y-83305285D01*
X156233714Y-83114809D01*
X156233714Y-82971952D01*
X156186095Y-82781476D01*
X156138476Y-82686238D01*
X156043238Y-82591000D01*
X155900380Y-82543380D01*
X155805142Y-82543380D01*
X155662285Y-82591000D01*
X155614666Y-82638619D01*
X154662285Y-83543380D02*
X155233714Y-83543380D01*
X154948000Y-83543380D02*
X154948000Y-82543380D01*
X155043238Y-82686238D01*
X155138476Y-82781476D01*
X155233714Y-82829095D01*
X116625642Y-95273833D02*
X116673261Y-95226214D01*
X116720880Y-95083357D01*
X116720880Y-94988119D01*
X116673261Y-94845261D01*
X116578023Y-94750023D01*
X116482785Y-94702404D01*
X116292309Y-94654785D01*
X116149452Y-94654785D01*
X115958976Y-94702404D01*
X115863738Y-94750023D01*
X115768500Y-94845261D01*
X115720880Y-94988119D01*
X115720880Y-95083357D01*
X115768500Y-95226214D01*
X115816119Y-95273833D01*
X115720880Y-95607166D02*
X115720880Y-96226214D01*
X116101833Y-95892880D01*
X116101833Y-96035738D01*
X116149452Y-96130976D01*
X116197071Y-96178595D01*
X116292309Y-96226214D01*
X116530404Y-96226214D01*
X116625642Y-96178595D01*
X116673261Y-96130976D01*
X116720880Y-96035738D01*
X116720880Y-95750023D01*
X116673261Y-95654785D01*
X116625642Y-95607166D01*
X156821166Y-84875642D02*
X156868785Y-84923261D01*
X157011642Y-84970880D01*
X157106880Y-84970880D01*
X157249738Y-84923261D01*
X157344976Y-84828023D01*
X157392595Y-84732785D01*
X157440214Y-84542309D01*
X157440214Y-84399452D01*
X157392595Y-84208976D01*
X157344976Y-84113738D01*
X157249738Y-84018500D01*
X157106880Y-83970880D01*
X157011642Y-83970880D01*
X156868785Y-84018500D01*
X156821166Y-84066119D01*
X155964023Y-84304214D02*
X155964023Y-84970880D01*
X156202119Y-83923261D02*
X156440214Y-84637547D01*
X155821166Y-84637547D01*
X109399295Y-73045580D02*
X109399295Y-72045580D01*
X109161200Y-72045580D01*
X109018342Y-72093200D01*
X108923104Y-72188438D01*
X108875485Y-72283676D01*
X108827866Y-72474152D01*
X108827866Y-72617009D01*
X108875485Y-72807485D01*
X108923104Y-72902723D01*
X109018342Y-72997961D01*
X109161200Y-73045580D01*
X109399295Y-73045580D01*
X107875485Y-73045580D02*
X108446914Y-73045580D01*
X108161200Y-73045580D02*
X108161200Y-72045580D01*
X108256438Y-72188438D01*
X108351676Y-72283676D01*
X108446914Y-72331295D01*
X117168333Y-72636071D02*
X117501666Y-72636071D01*
X117501666Y-73159880D02*
X117501666Y-72159880D01*
X117025476Y-72159880D01*
X116120714Y-73159880D02*
X116692142Y-73159880D01*
X116406428Y-73159880D02*
X116406428Y-72159880D01*
X116501666Y-72302738D01*
X116596904Y-72397976D01*
X116692142Y-72445595D01*
X118330671Y-99223604D02*
X118330671Y-98890271D01*
X118854480Y-98890271D02*
X117854480Y-98890271D01*
X117854480Y-99366461D01*
X118854480Y-100223604D02*
X118854480Y-99747414D01*
X117854480Y-99747414D01*
X118854480Y-101080747D02*
X118854480Y-100509319D01*
X118854480Y-100795033D02*
X117854480Y-100795033D01*
X117997338Y-100699795D01*
X118092576Y-100604557D01*
X118140195Y-100509319D01*
X111625071Y-89177904D02*
X111625071Y-88844571D01*
X112148880Y-88844571D02*
X111148880Y-88844571D01*
X111148880Y-89320761D01*
X112148880Y-90177904D02*
X112148880Y-89701714D01*
X111148880Y-89701714D01*
X111244119Y-90463619D02*
X111196500Y-90511238D01*
X111148880Y-90606476D01*
X111148880Y-90844571D01*
X111196500Y-90939809D01*
X111244119Y-90987428D01*
X111339357Y-91035047D01*
X111434595Y-91035047D01*
X111577452Y-90987428D01*
X112148880Y-90416000D01*
X112148880Y-91035047D01*
X109031066Y-102339380D02*
X109364400Y-101863190D01*
X109602495Y-102339380D02*
X109602495Y-101339380D01*
X109221542Y-101339380D01*
X109126304Y-101387000D01*
X109078685Y-101434619D01*
X109031066Y-101529857D01*
X109031066Y-101672714D01*
X109078685Y-101767952D01*
X109126304Y-101815571D01*
X109221542Y-101863190D01*
X109602495Y-101863190D01*
X108078685Y-102339380D02*
X108650114Y-102339380D01*
X108364400Y-102339380D02*
X108364400Y-101339380D01*
X108459638Y-101482238D01*
X108554876Y-101577476D01*
X108650114Y-101625095D01*
X152741380Y-92964095D02*
X153550904Y-92964095D01*
X153646142Y-93011714D01*
X153693761Y-93059333D01*
X153741380Y-93154571D01*
X153741380Y-93345047D01*
X153693761Y-93440285D01*
X153646142Y-93487904D01*
X153550904Y-93535523D01*
X152741380Y-93535523D01*
X153741380Y-94535523D02*
X153741380Y-93964095D01*
X153741380Y-94249809D02*
X152741380Y-94249809D01*
X152884238Y-94154571D01*
X152979476Y-94059333D01*
X153027095Y-93964095D01*
X139699904Y-92352880D02*
X139699904Y-93162404D01*
X139652285Y-93257642D01*
X139604666Y-93305261D01*
X139509428Y-93352880D01*
X139318952Y-93352880D01*
X139223714Y-93305261D01*
X139176095Y-93257642D01*
X139128476Y-93162404D01*
X139128476Y-92352880D01*
X138699904Y-92448119D02*
X138652285Y-92400500D01*
X138557047Y-92352880D01*
X138318952Y-92352880D01*
X138223714Y-92400500D01*
X138176095Y-92448119D01*
X138128476Y-92543357D01*
X138128476Y-92638595D01*
X138176095Y-92781452D01*
X138747523Y-93352880D01*
X138128476Y-93352880D01*
X166203380Y-85915595D02*
X167012904Y-85915595D01*
X167108142Y-85963214D01*
X167155761Y-86010833D01*
X167203380Y-86106071D01*
X167203380Y-86296547D01*
X167155761Y-86391785D01*
X167108142Y-86439404D01*
X167012904Y-86487023D01*
X166203380Y-86487023D01*
X166203380Y-86867976D02*
X166203380Y-87487023D01*
X166584333Y-87153690D01*
X166584333Y-87296547D01*
X166631952Y-87391785D01*
X166679571Y-87439404D01*
X166774809Y-87487023D01*
X167012904Y-87487023D01*
X167108142Y-87439404D01*
X167155761Y-87391785D01*
X167203380Y-87296547D01*
X167203380Y-87010833D01*
X167155761Y-86915595D01*
X167108142Y-86867976D01*
X111128133Y-98734571D02*
X111461466Y-98734571D01*
X111461466Y-99258380D02*
X111461466Y-98258380D01*
X110985276Y-98258380D01*
X110651942Y-98353619D02*
X110604323Y-98306000D01*
X110509085Y-98258380D01*
X110270990Y-98258380D01*
X110175752Y-98306000D01*
X110128133Y-98353619D01*
X110080514Y-98448857D01*
X110080514Y-98544095D01*
X110128133Y-98686952D01*
X110699561Y-99258380D01*
X110080514Y-99258380D01*
X109513642Y-81557833D02*
X109561261Y-81510214D01*
X109608880Y-81367357D01*
X109608880Y-81272119D01*
X109561261Y-81129261D01*
X109466023Y-81034023D01*
X109370785Y-80986404D01*
X109180309Y-80938785D01*
X109037452Y-80938785D01*
X108846976Y-80986404D01*
X108751738Y-81034023D01*
X108656500Y-81129261D01*
X108608880Y-81272119D01*
X108608880Y-81367357D01*
X108656500Y-81510214D01*
X108704119Y-81557833D01*
X108608880Y-82462595D02*
X108608880Y-81986404D01*
X109085071Y-81938785D01*
X109037452Y-81986404D01*
X108989833Y-82081642D01*
X108989833Y-82319738D01*
X109037452Y-82414976D01*
X109085071Y-82462595D01*
X109180309Y-82510214D01*
X109418404Y-82510214D01*
X109513642Y-82462595D01*
X109561261Y-82414976D01*
X109608880Y-82319738D01*
X109608880Y-82081642D01*
X109561261Y-81986404D01*
X109513642Y-81938785D01*
%LPC*%
D13*
X110045500Y-91630500D02*
X110045500Y-94297500D01*
D14*
X113474500Y-91364000D03*
X114744500Y-91364000D03*
X116014500Y-91364000D03*
X117284500Y-91364000D03*
X118554500Y-91364000D03*
X119824500Y-91364000D03*
X121094500Y-91364000D03*
X122364500Y-91364000D03*
X123634500Y-91364000D03*
X124904500Y-91364000D03*
X124904500Y-81864000D03*
X123634500Y-81864000D03*
X122364500Y-81864000D03*
X121094500Y-81864000D03*
X113474500Y-81864000D03*
X114744500Y-81864000D03*
X116014500Y-81864000D03*
X117284500Y-81864000D03*
X118554500Y-81864000D03*
X119824500Y-81864000D03*
D15*
X158240000Y-75258700D03*
X111760000Y-75258700D03*
D16*
X119760000Y-74371200D03*
X121030000Y-76271200D03*
X121030000Y-72471200D03*
X148970000Y-72471200D03*
X150240000Y-74371200D03*
X148970000Y-76271200D03*
X119760000Y-78171200D03*
X150240000Y-78171200D03*
X147700000Y-78171200D03*
X145160000Y-78171200D03*
X142620000Y-78171200D03*
X140080000Y-78171200D03*
X137540000Y-78171200D03*
X136270000Y-76271200D03*
X138810000Y-76271200D03*
X141350000Y-76271200D03*
X143890000Y-76271200D03*
X146430000Y-76271200D03*
X146430000Y-72471200D03*
X143890000Y-72471200D03*
X141350000Y-72471200D03*
X138810000Y-72471200D03*
X136270000Y-72471200D03*
X147700000Y-74371200D03*
X145160000Y-74371200D03*
X142620000Y-74371200D03*
X140080000Y-74371200D03*
X137540000Y-74371200D03*
X131190000Y-72471200D03*
X128650000Y-72471200D03*
X126110000Y-72471200D03*
X123570000Y-72471200D03*
X122300000Y-78171200D03*
X124840000Y-78171200D03*
X127380000Y-78171200D03*
X129920000Y-78171200D03*
X132460000Y-78171200D03*
X135000000Y-78171200D03*
X133730000Y-72471200D03*
X122300000Y-74371200D03*
X123570000Y-76271200D03*
X124840000Y-74371200D03*
X126110000Y-76271200D03*
X127380000Y-74371200D03*
X128650000Y-76271200D03*
X129920000Y-74371200D03*
X131190000Y-76271200D03*
X132460000Y-74371200D03*
X133730000Y-76271200D03*
X135000000Y-74371200D03*
D17*
X164000000Y-84000000D03*
X106000000Y-84000000D03*
X106000000Y-107000000D03*
X164000000Y-107000000D03*
X165000000Y-71400000D03*
D18*
G36*
X154911779Y-81136266D02*
G01*
X154937309Y-81140053D01*
X154962345Y-81146325D01*
X154986646Y-81155020D01*
X155009977Y-81166055D01*
X155032115Y-81179323D01*
X155052845Y-81194698D01*
X155071969Y-81212031D01*
X155089302Y-81231155D01*
X155104677Y-81251885D01*
X155117945Y-81274023D01*
X155128980Y-81297354D01*
X155137675Y-81321655D01*
X155143947Y-81346691D01*
X155147734Y-81372221D01*
X155149000Y-81398000D01*
X155149000Y-81924000D01*
X155147734Y-81949779D01*
X155143947Y-81975309D01*
X155137675Y-82000345D01*
X155128980Y-82024646D01*
X155117945Y-82047977D01*
X155104677Y-82070115D01*
X155089302Y-82090845D01*
X155071969Y-82109969D01*
X155052845Y-82127302D01*
X155032115Y-82142677D01*
X155009977Y-82155945D01*
X154986646Y-82166980D01*
X154962345Y-82175675D01*
X154937309Y-82181947D01*
X154911779Y-82185734D01*
X154886000Y-82187000D01*
X154260000Y-82187000D01*
X154234221Y-82185734D01*
X154208691Y-82181947D01*
X154183655Y-82175675D01*
X154159354Y-82166980D01*
X154136023Y-82155945D01*
X154113885Y-82142677D01*
X154093155Y-82127302D01*
X154074031Y-82109969D01*
X154056698Y-82090845D01*
X154041323Y-82070115D01*
X154028055Y-82047977D01*
X154017020Y-82024646D01*
X154008325Y-82000345D01*
X154002053Y-81975309D01*
X153998266Y-81949779D01*
X153997000Y-81924000D01*
X153997000Y-81398000D01*
X153998266Y-81372221D01*
X154002053Y-81346691D01*
X154008325Y-81321655D01*
X154017020Y-81297354D01*
X154028055Y-81274023D01*
X154041323Y-81251885D01*
X154056698Y-81231155D01*
X154074031Y-81212031D01*
X154093155Y-81194698D01*
X154113885Y-81179323D01*
X154136023Y-81166055D01*
X154159354Y-81155020D01*
X154183655Y-81146325D01*
X154208691Y-81140053D01*
X154234221Y-81136266D01*
X154260000Y-81135000D01*
X154886000Y-81135000D01*
X154911779Y-81136266D01*
X154911779Y-81136266D01*
G37*
D19*
X154573000Y-81661000D03*
D18*
G36*
X156661779Y-81136266D02*
G01*
X156687309Y-81140053D01*
X156712345Y-81146325D01*
X156736646Y-81155020D01*
X156759977Y-81166055D01*
X156782115Y-81179323D01*
X156802845Y-81194698D01*
X156821969Y-81212031D01*
X156839302Y-81231155D01*
X156854677Y-81251885D01*
X156867945Y-81274023D01*
X156878980Y-81297354D01*
X156887675Y-81321655D01*
X156893947Y-81346691D01*
X156897734Y-81372221D01*
X156899000Y-81398000D01*
X156899000Y-81924000D01*
X156897734Y-81949779D01*
X156893947Y-81975309D01*
X156887675Y-82000345D01*
X156878980Y-82024646D01*
X156867945Y-82047977D01*
X156854677Y-82070115D01*
X156839302Y-82090845D01*
X156821969Y-82109969D01*
X156802845Y-82127302D01*
X156782115Y-82142677D01*
X156759977Y-82155945D01*
X156736646Y-82166980D01*
X156712345Y-82175675D01*
X156687309Y-82181947D01*
X156661779Y-82185734D01*
X156636000Y-82187000D01*
X156010000Y-82187000D01*
X155984221Y-82185734D01*
X155958691Y-82181947D01*
X155933655Y-82175675D01*
X155909354Y-82166980D01*
X155886023Y-82155945D01*
X155863885Y-82142677D01*
X155843155Y-82127302D01*
X155824031Y-82109969D01*
X155806698Y-82090845D01*
X155791323Y-82070115D01*
X155778055Y-82047977D01*
X155767020Y-82024646D01*
X155758325Y-82000345D01*
X155752053Y-81975309D01*
X155748266Y-81949779D01*
X155747000Y-81924000D01*
X155747000Y-81398000D01*
X155748266Y-81372221D01*
X155752053Y-81346691D01*
X155758325Y-81321655D01*
X155767020Y-81297354D01*
X155778055Y-81274023D01*
X155791323Y-81251885D01*
X155806698Y-81231155D01*
X155824031Y-81212031D01*
X155843155Y-81194698D01*
X155863885Y-81179323D01*
X155886023Y-81166055D01*
X155909354Y-81155020D01*
X155933655Y-81146325D01*
X155958691Y-81140053D01*
X155984221Y-81136266D01*
X156010000Y-81135000D01*
X156636000Y-81135000D01*
X156661779Y-81136266D01*
X156661779Y-81136266D01*
G37*
D19*
X156323000Y-81661000D03*
D18*
G36*
X115033279Y-94117766D02*
G01*
X115058809Y-94121553D01*
X115083845Y-94127825D01*
X115108146Y-94136520D01*
X115131477Y-94147555D01*
X115153615Y-94160823D01*
X115174345Y-94176198D01*
X115193469Y-94193531D01*
X115210802Y-94212655D01*
X115226177Y-94233385D01*
X115239445Y-94255523D01*
X115250480Y-94278854D01*
X115259175Y-94303155D01*
X115265447Y-94328191D01*
X115269234Y-94353721D01*
X115270500Y-94379500D01*
X115270500Y-95005500D01*
X115269234Y-95031279D01*
X115265447Y-95056809D01*
X115259175Y-95081845D01*
X115250480Y-95106146D01*
X115239445Y-95129477D01*
X115226177Y-95151615D01*
X115210802Y-95172345D01*
X115193469Y-95191469D01*
X115174345Y-95208802D01*
X115153615Y-95224177D01*
X115131477Y-95237445D01*
X115108146Y-95248480D01*
X115083845Y-95257175D01*
X115058809Y-95263447D01*
X115033279Y-95267234D01*
X115007500Y-95268500D01*
X114481500Y-95268500D01*
X114455721Y-95267234D01*
X114430191Y-95263447D01*
X114405155Y-95257175D01*
X114380854Y-95248480D01*
X114357523Y-95237445D01*
X114335385Y-95224177D01*
X114314655Y-95208802D01*
X114295531Y-95191469D01*
X114278198Y-95172345D01*
X114262823Y-95151615D01*
X114249555Y-95129477D01*
X114238520Y-95106146D01*
X114229825Y-95081845D01*
X114223553Y-95056809D01*
X114219766Y-95031279D01*
X114218500Y-95005500D01*
X114218500Y-94379500D01*
X114219766Y-94353721D01*
X114223553Y-94328191D01*
X114229825Y-94303155D01*
X114238520Y-94278854D01*
X114249555Y-94255523D01*
X114262823Y-94233385D01*
X114278198Y-94212655D01*
X114295531Y-94193531D01*
X114314655Y-94176198D01*
X114335385Y-94160823D01*
X114357523Y-94147555D01*
X114380854Y-94136520D01*
X114405155Y-94127825D01*
X114430191Y-94121553D01*
X114455721Y-94117766D01*
X114481500Y-94116500D01*
X115007500Y-94116500D01*
X115033279Y-94117766D01*
X115033279Y-94117766D01*
G37*
D19*
X114744500Y-94692500D03*
D18*
G36*
X115033279Y-95867766D02*
G01*
X115058809Y-95871553D01*
X115083845Y-95877825D01*
X115108146Y-95886520D01*
X115131477Y-95897555D01*
X115153615Y-95910823D01*
X115174345Y-95926198D01*
X115193469Y-95943531D01*
X115210802Y-95962655D01*
X115226177Y-95983385D01*
X115239445Y-96005523D01*
X115250480Y-96028854D01*
X115259175Y-96053155D01*
X115265447Y-96078191D01*
X115269234Y-96103721D01*
X115270500Y-96129500D01*
X115270500Y-96755500D01*
X115269234Y-96781279D01*
X115265447Y-96806809D01*
X115259175Y-96831845D01*
X115250480Y-96856146D01*
X115239445Y-96879477D01*
X115226177Y-96901615D01*
X115210802Y-96922345D01*
X115193469Y-96941469D01*
X115174345Y-96958802D01*
X115153615Y-96974177D01*
X115131477Y-96987445D01*
X115108146Y-96998480D01*
X115083845Y-97007175D01*
X115058809Y-97013447D01*
X115033279Y-97017234D01*
X115007500Y-97018500D01*
X114481500Y-97018500D01*
X114455721Y-97017234D01*
X114430191Y-97013447D01*
X114405155Y-97007175D01*
X114380854Y-96998480D01*
X114357523Y-96987445D01*
X114335385Y-96974177D01*
X114314655Y-96958802D01*
X114295531Y-96941469D01*
X114278198Y-96922345D01*
X114262823Y-96901615D01*
X114249555Y-96879477D01*
X114238520Y-96856146D01*
X114229825Y-96831845D01*
X114223553Y-96806809D01*
X114219766Y-96781279D01*
X114218500Y-96755500D01*
X114218500Y-96129500D01*
X114219766Y-96103721D01*
X114223553Y-96078191D01*
X114229825Y-96053155D01*
X114238520Y-96028854D01*
X114249555Y-96005523D01*
X114262823Y-95983385D01*
X114278198Y-95962655D01*
X114295531Y-95943531D01*
X114314655Y-95926198D01*
X114335385Y-95910823D01*
X114357523Y-95897555D01*
X114380854Y-95886520D01*
X114405155Y-95877825D01*
X114430191Y-95871553D01*
X114455721Y-95867766D01*
X114481500Y-95866500D01*
X115007500Y-95866500D01*
X115033279Y-95867766D01*
X115033279Y-95867766D01*
G37*
D19*
X114744500Y-96442500D03*
D18*
G36*
X158630279Y-85517766D02*
G01*
X158655809Y-85521553D01*
X158680845Y-85527825D01*
X158705146Y-85536520D01*
X158728477Y-85547555D01*
X158750615Y-85560823D01*
X158771345Y-85576198D01*
X158790469Y-85593531D01*
X158807802Y-85612655D01*
X158823177Y-85633385D01*
X158836445Y-85655523D01*
X158847480Y-85678854D01*
X158856175Y-85703155D01*
X158862447Y-85728191D01*
X158866234Y-85753721D01*
X158867500Y-85779500D01*
X158867500Y-86305500D01*
X158866234Y-86331279D01*
X158862447Y-86356809D01*
X158856175Y-86381845D01*
X158847480Y-86406146D01*
X158836445Y-86429477D01*
X158823177Y-86451615D01*
X158807802Y-86472345D01*
X158790469Y-86491469D01*
X158771345Y-86508802D01*
X158750615Y-86524177D01*
X158728477Y-86537445D01*
X158705146Y-86548480D01*
X158680845Y-86557175D01*
X158655809Y-86563447D01*
X158630279Y-86567234D01*
X158604500Y-86568500D01*
X157978500Y-86568500D01*
X157952721Y-86567234D01*
X157927191Y-86563447D01*
X157902155Y-86557175D01*
X157877854Y-86548480D01*
X157854523Y-86537445D01*
X157832385Y-86524177D01*
X157811655Y-86508802D01*
X157792531Y-86491469D01*
X157775198Y-86472345D01*
X157759823Y-86451615D01*
X157746555Y-86429477D01*
X157735520Y-86406146D01*
X157726825Y-86381845D01*
X157720553Y-86356809D01*
X157716766Y-86331279D01*
X157715500Y-86305500D01*
X157715500Y-85779500D01*
X157716766Y-85753721D01*
X157720553Y-85728191D01*
X157726825Y-85703155D01*
X157735520Y-85678854D01*
X157746555Y-85655523D01*
X157759823Y-85633385D01*
X157775198Y-85612655D01*
X157792531Y-85593531D01*
X157811655Y-85576198D01*
X157832385Y-85560823D01*
X157854523Y-85547555D01*
X157877854Y-85536520D01*
X157902155Y-85527825D01*
X157927191Y-85521553D01*
X157952721Y-85517766D01*
X157978500Y-85516500D01*
X158604500Y-85516500D01*
X158630279Y-85517766D01*
X158630279Y-85517766D01*
G37*
D19*
X158291500Y-86042500D03*
D18*
G36*
X156880279Y-85517766D02*
G01*
X156905809Y-85521553D01*
X156930845Y-85527825D01*
X156955146Y-85536520D01*
X156978477Y-85547555D01*
X157000615Y-85560823D01*
X157021345Y-85576198D01*
X157040469Y-85593531D01*
X157057802Y-85612655D01*
X157073177Y-85633385D01*
X157086445Y-85655523D01*
X157097480Y-85678854D01*
X157106175Y-85703155D01*
X157112447Y-85728191D01*
X157116234Y-85753721D01*
X157117500Y-85779500D01*
X157117500Y-86305500D01*
X157116234Y-86331279D01*
X157112447Y-86356809D01*
X157106175Y-86381845D01*
X157097480Y-86406146D01*
X157086445Y-86429477D01*
X157073177Y-86451615D01*
X157057802Y-86472345D01*
X157040469Y-86491469D01*
X157021345Y-86508802D01*
X157000615Y-86524177D01*
X156978477Y-86537445D01*
X156955146Y-86548480D01*
X156930845Y-86557175D01*
X156905809Y-86563447D01*
X156880279Y-86567234D01*
X156854500Y-86568500D01*
X156228500Y-86568500D01*
X156202721Y-86567234D01*
X156177191Y-86563447D01*
X156152155Y-86557175D01*
X156127854Y-86548480D01*
X156104523Y-86537445D01*
X156082385Y-86524177D01*
X156061655Y-86508802D01*
X156042531Y-86491469D01*
X156025198Y-86472345D01*
X156009823Y-86451615D01*
X155996555Y-86429477D01*
X155985520Y-86406146D01*
X155976825Y-86381845D01*
X155970553Y-86356809D01*
X155966766Y-86331279D01*
X155965500Y-86305500D01*
X155965500Y-85779500D01*
X155966766Y-85753721D01*
X155970553Y-85728191D01*
X155976825Y-85703155D01*
X155985520Y-85678854D01*
X155996555Y-85655523D01*
X156009823Y-85633385D01*
X156025198Y-85612655D01*
X156042531Y-85593531D01*
X156061655Y-85576198D01*
X156082385Y-85560823D01*
X156104523Y-85547555D01*
X156127854Y-85536520D01*
X156152155Y-85527825D01*
X156177191Y-85521553D01*
X156202721Y-85517766D01*
X156228500Y-85516500D01*
X156854500Y-85516500D01*
X156880279Y-85517766D01*
X156880279Y-85517766D01*
G37*
D19*
X156541500Y-86042500D03*
D18*
G36*
X113218905Y-69962567D02*
G01*
X113250502Y-69967254D01*
X113281488Y-69975016D01*
X113311563Y-69985777D01*
X113340440Y-69999435D01*
X113367838Y-70015857D01*
X113393495Y-70034885D01*
X113417163Y-70056337D01*
X113438615Y-70080005D01*
X113457643Y-70105662D01*
X113474065Y-70133060D01*
X113487723Y-70161937D01*
X113498484Y-70192012D01*
X113506246Y-70222998D01*
X113510933Y-70254595D01*
X113512500Y-70286500D01*
X113512500Y-70937500D01*
X113510933Y-70969405D01*
X113506246Y-71001002D01*
X113498484Y-71031988D01*
X113487723Y-71062063D01*
X113474065Y-71090940D01*
X113457643Y-71118338D01*
X113438615Y-71143995D01*
X113417163Y-71167663D01*
X113393495Y-71189115D01*
X113367838Y-71208143D01*
X113340440Y-71224565D01*
X113311563Y-71238223D01*
X113281488Y-71248984D01*
X113250502Y-71256746D01*
X113218905Y-71261433D01*
X113187000Y-71263000D01*
X112236000Y-71263000D01*
X112204095Y-71261433D01*
X112172498Y-71256746D01*
X112141512Y-71248984D01*
X112111437Y-71238223D01*
X112082560Y-71224565D01*
X112055162Y-71208143D01*
X112029505Y-71189115D01*
X112005837Y-71167663D01*
X111984385Y-71143995D01*
X111965357Y-71118338D01*
X111948935Y-71090940D01*
X111935277Y-71062063D01*
X111924516Y-71031988D01*
X111916754Y-71001002D01*
X111912067Y-70969405D01*
X111910500Y-70937500D01*
X111910500Y-70286500D01*
X111912067Y-70254595D01*
X111916754Y-70222998D01*
X111924516Y-70192012D01*
X111935277Y-70161937D01*
X111948935Y-70133060D01*
X111965357Y-70105662D01*
X111984385Y-70080005D01*
X112005837Y-70056337D01*
X112029505Y-70034885D01*
X112055162Y-70015857D01*
X112082560Y-69999435D01*
X112111437Y-69985777D01*
X112141512Y-69975016D01*
X112172498Y-69967254D01*
X112204095Y-69962567D01*
X112236000Y-69961000D01*
X113187000Y-69961000D01*
X113218905Y-69962567D01*
X113218905Y-69962567D01*
G37*
D20*
X112711500Y-70612000D03*
D18*
G36*
X109918905Y-69962567D02*
G01*
X109950502Y-69967254D01*
X109981488Y-69975016D01*
X110011563Y-69985777D01*
X110040440Y-69999435D01*
X110067838Y-70015857D01*
X110093495Y-70034885D01*
X110117163Y-70056337D01*
X110138615Y-70080005D01*
X110157643Y-70105662D01*
X110174065Y-70133060D01*
X110187723Y-70161937D01*
X110198484Y-70192012D01*
X110206246Y-70222998D01*
X110210933Y-70254595D01*
X110212500Y-70286500D01*
X110212500Y-70937500D01*
X110210933Y-70969405D01*
X110206246Y-71001002D01*
X110198484Y-71031988D01*
X110187723Y-71062063D01*
X110174065Y-71090940D01*
X110157643Y-71118338D01*
X110138615Y-71143995D01*
X110117163Y-71167663D01*
X110093495Y-71189115D01*
X110067838Y-71208143D01*
X110040440Y-71224565D01*
X110011563Y-71238223D01*
X109981488Y-71248984D01*
X109950502Y-71256746D01*
X109918905Y-71261433D01*
X109887000Y-71263000D01*
X108936000Y-71263000D01*
X108904095Y-71261433D01*
X108872498Y-71256746D01*
X108841512Y-71248984D01*
X108811437Y-71238223D01*
X108782560Y-71224565D01*
X108755162Y-71208143D01*
X108729505Y-71189115D01*
X108705837Y-71167663D01*
X108684385Y-71143995D01*
X108665357Y-71118338D01*
X108648935Y-71090940D01*
X108635277Y-71062063D01*
X108624516Y-71031988D01*
X108616754Y-71001002D01*
X108612067Y-70969405D01*
X108610500Y-70937500D01*
X108610500Y-70286500D01*
X108612067Y-70254595D01*
X108616754Y-70222998D01*
X108624516Y-70192012D01*
X108635277Y-70161937D01*
X108648935Y-70133060D01*
X108665357Y-70105662D01*
X108684385Y-70080005D01*
X108705837Y-70056337D01*
X108729505Y-70034885D01*
X108755162Y-70015857D01*
X108782560Y-69999435D01*
X108811437Y-69985777D01*
X108841512Y-69975016D01*
X108872498Y-69967254D01*
X108904095Y-69962567D01*
X108936000Y-69961000D01*
X109887000Y-69961000D01*
X109918905Y-69962567D01*
X109918905Y-69962567D01*
G37*
D20*
X109411500Y-70612000D03*
D18*
G36*
X118209363Y-69623790D02*
G01*
X118235369Y-69627648D01*
X118260871Y-69634035D01*
X118285624Y-69642892D01*
X118309390Y-69654133D01*
X118331939Y-69667648D01*
X118353056Y-69683309D01*
X118372535Y-69700965D01*
X118390191Y-69720444D01*
X118405852Y-69741561D01*
X118419367Y-69764110D01*
X118430608Y-69787876D01*
X118439465Y-69812629D01*
X118445852Y-69838131D01*
X118449710Y-69864137D01*
X118451000Y-69890395D01*
X118451000Y-71206605D01*
X118449710Y-71232863D01*
X118445852Y-71258869D01*
X118439465Y-71284371D01*
X118430608Y-71309124D01*
X118419367Y-71332890D01*
X118405852Y-71355439D01*
X118390191Y-71376556D01*
X118372535Y-71396035D01*
X118353056Y-71413691D01*
X118331939Y-71429352D01*
X118309390Y-71442867D01*
X118285624Y-71454108D01*
X118260871Y-71462965D01*
X118235369Y-71469352D01*
X118209363Y-71473210D01*
X118183105Y-71474500D01*
X117191895Y-71474500D01*
X117165637Y-71473210D01*
X117139631Y-71469352D01*
X117114129Y-71462965D01*
X117089376Y-71454108D01*
X117065610Y-71442867D01*
X117043061Y-71429352D01*
X117021944Y-71413691D01*
X117002465Y-71396035D01*
X116984809Y-71376556D01*
X116969148Y-71355439D01*
X116955633Y-71332890D01*
X116944392Y-71309124D01*
X116935535Y-71284371D01*
X116929148Y-71258869D01*
X116925290Y-71232863D01*
X116924000Y-71206605D01*
X116924000Y-69890395D01*
X116925290Y-69864137D01*
X116929148Y-69838131D01*
X116935535Y-69812629D01*
X116944392Y-69787876D01*
X116955633Y-69764110D01*
X116969148Y-69741561D01*
X116984809Y-69720444D01*
X117002465Y-69700965D01*
X117021944Y-69683309D01*
X117043061Y-69667648D01*
X117065610Y-69654133D01*
X117089376Y-69642892D01*
X117114129Y-69634035D01*
X117139631Y-69627648D01*
X117165637Y-69623790D01*
X117191895Y-69622500D01*
X118183105Y-69622500D01*
X118209363Y-69623790D01*
X118209363Y-69623790D01*
G37*
D21*
X117687500Y-70548500D03*
D18*
G36*
X115234363Y-69623790D02*
G01*
X115260369Y-69627648D01*
X115285871Y-69634035D01*
X115310624Y-69642892D01*
X115334390Y-69654133D01*
X115356939Y-69667648D01*
X115378056Y-69683309D01*
X115397535Y-69700965D01*
X115415191Y-69720444D01*
X115430852Y-69741561D01*
X115444367Y-69764110D01*
X115455608Y-69787876D01*
X115464465Y-69812629D01*
X115470852Y-69838131D01*
X115474710Y-69864137D01*
X115476000Y-69890395D01*
X115476000Y-71206605D01*
X115474710Y-71232863D01*
X115470852Y-71258869D01*
X115464465Y-71284371D01*
X115455608Y-71309124D01*
X115444367Y-71332890D01*
X115430852Y-71355439D01*
X115415191Y-71376556D01*
X115397535Y-71396035D01*
X115378056Y-71413691D01*
X115356939Y-71429352D01*
X115334390Y-71442867D01*
X115310624Y-71454108D01*
X115285871Y-71462965D01*
X115260369Y-71469352D01*
X115234363Y-71473210D01*
X115208105Y-71474500D01*
X114216895Y-71474500D01*
X114190637Y-71473210D01*
X114164631Y-71469352D01*
X114139129Y-71462965D01*
X114114376Y-71454108D01*
X114090610Y-71442867D01*
X114068061Y-71429352D01*
X114046944Y-71413691D01*
X114027465Y-71396035D01*
X114009809Y-71376556D01*
X113994148Y-71355439D01*
X113980633Y-71332890D01*
X113969392Y-71309124D01*
X113960535Y-71284371D01*
X113954148Y-71258869D01*
X113950290Y-71232863D01*
X113949000Y-71206605D01*
X113949000Y-69890395D01*
X113950290Y-69864137D01*
X113954148Y-69838131D01*
X113960535Y-69812629D01*
X113969392Y-69787876D01*
X113980633Y-69764110D01*
X113994148Y-69741561D01*
X114009809Y-69720444D01*
X114027465Y-69700965D01*
X114046944Y-69683309D01*
X114068061Y-69667648D01*
X114090610Y-69654133D01*
X114114376Y-69642892D01*
X114139129Y-69634035D01*
X114164631Y-69627648D01*
X114190637Y-69623790D01*
X114216895Y-69622500D01*
X115208105Y-69622500D01*
X115234363Y-69623790D01*
X115234363Y-69623790D01*
G37*
D21*
X114712500Y-70548500D03*
D18*
G36*
X114955401Y-99774804D02*
G01*
X114967584Y-99776611D01*
X114979531Y-99779604D01*
X114991127Y-99783753D01*
X115002260Y-99789019D01*
X115012824Y-99795351D01*
X115022716Y-99802687D01*
X115031842Y-99810958D01*
X115040113Y-99820084D01*
X115047449Y-99829976D01*
X115053781Y-99840540D01*
X115059047Y-99851673D01*
X115063196Y-99863269D01*
X115066189Y-99875216D01*
X115067996Y-99887399D01*
X115068600Y-99899700D01*
X115068600Y-100150700D01*
X115067996Y-100163001D01*
X115066189Y-100175184D01*
X115063196Y-100187131D01*
X115059047Y-100198727D01*
X115053781Y-100209860D01*
X115047449Y-100220424D01*
X115040113Y-100230316D01*
X115031842Y-100239442D01*
X115022716Y-100247713D01*
X115012824Y-100255049D01*
X115002260Y-100261381D01*
X114991127Y-100266647D01*
X114979531Y-100270796D01*
X114967584Y-100273789D01*
X114955401Y-100275596D01*
X114943100Y-100276200D01*
X113892100Y-100276200D01*
X113879799Y-100275596D01*
X113867616Y-100273789D01*
X113855669Y-100270796D01*
X113844073Y-100266647D01*
X113832940Y-100261381D01*
X113822376Y-100255049D01*
X113812484Y-100247713D01*
X113803358Y-100239442D01*
X113795087Y-100230316D01*
X113787751Y-100220424D01*
X113781419Y-100209860D01*
X113776153Y-100198727D01*
X113772004Y-100187131D01*
X113769011Y-100175184D01*
X113767204Y-100163001D01*
X113766600Y-100150700D01*
X113766600Y-99899700D01*
X113767204Y-99887399D01*
X113769011Y-99875216D01*
X113772004Y-99863269D01*
X113776153Y-99851673D01*
X113781419Y-99840540D01*
X113787751Y-99829976D01*
X113795087Y-99820084D01*
X113803358Y-99810958D01*
X113812484Y-99802687D01*
X113822376Y-99795351D01*
X113832940Y-99789019D01*
X113844073Y-99783753D01*
X113855669Y-99779604D01*
X113867616Y-99776611D01*
X113879799Y-99774804D01*
X113892100Y-99774200D01*
X114943100Y-99774200D01*
X114955401Y-99774804D01*
X114955401Y-99774804D01*
G37*
D22*
X114417600Y-100025200D03*
D18*
G36*
X115788730Y-100675828D02*
G01*
X115821541Y-100680695D01*
X115853716Y-100688754D01*
X115884947Y-100699929D01*
X115914932Y-100714111D01*
X115943383Y-100731163D01*
X115970025Y-100750922D01*
X115994602Y-100773198D01*
X116016878Y-100797775D01*
X116036637Y-100824417D01*
X116053689Y-100852868D01*
X116067871Y-100882853D01*
X116079046Y-100914084D01*
X116087105Y-100946259D01*
X116091972Y-100979070D01*
X116093600Y-101012200D01*
X116093600Y-101738200D01*
X116091972Y-101771330D01*
X116087105Y-101804141D01*
X116079046Y-101836316D01*
X116067871Y-101867547D01*
X116053689Y-101897532D01*
X116036637Y-101925983D01*
X116016878Y-101952625D01*
X115994602Y-101977202D01*
X115970025Y-101999478D01*
X115943383Y-102019237D01*
X115914932Y-102036289D01*
X115884947Y-102050471D01*
X115853716Y-102061646D01*
X115821541Y-102069705D01*
X115788730Y-102074572D01*
X115755600Y-102076200D01*
X115079600Y-102076200D01*
X115046470Y-102074572D01*
X115013659Y-102069705D01*
X114981484Y-102061646D01*
X114950253Y-102050471D01*
X114920268Y-102036289D01*
X114891817Y-102019237D01*
X114865175Y-101999478D01*
X114840598Y-101977202D01*
X114818322Y-101952625D01*
X114798563Y-101925983D01*
X114781511Y-101897532D01*
X114767329Y-101867547D01*
X114756154Y-101836316D01*
X114748095Y-101804141D01*
X114743228Y-101771330D01*
X114741600Y-101738200D01*
X114741600Y-101012200D01*
X114743228Y-100979070D01*
X114748095Y-100946259D01*
X114756154Y-100914084D01*
X114767329Y-100882853D01*
X114781511Y-100852868D01*
X114798563Y-100824417D01*
X114818322Y-100797775D01*
X114840598Y-100773198D01*
X114865175Y-100750922D01*
X114891817Y-100731163D01*
X114920268Y-100714111D01*
X114950253Y-100699929D01*
X114981484Y-100688754D01*
X115013659Y-100680695D01*
X115046470Y-100675828D01*
X115079600Y-100674200D01*
X115755600Y-100674200D01*
X115788730Y-100675828D01*
X115788730Y-100675828D01*
G37*
D23*
X115417600Y-101375200D03*
D18*
G36*
X115788730Y-97975828D02*
G01*
X115821541Y-97980695D01*
X115853716Y-97988754D01*
X115884947Y-97999929D01*
X115914932Y-98014111D01*
X115943383Y-98031163D01*
X115970025Y-98050922D01*
X115994602Y-98073198D01*
X116016878Y-98097775D01*
X116036637Y-98124417D01*
X116053689Y-98152868D01*
X116067871Y-98182853D01*
X116079046Y-98214084D01*
X116087105Y-98246259D01*
X116091972Y-98279070D01*
X116093600Y-98312200D01*
X116093600Y-99038200D01*
X116091972Y-99071330D01*
X116087105Y-99104141D01*
X116079046Y-99136316D01*
X116067871Y-99167547D01*
X116053689Y-99197532D01*
X116036637Y-99225983D01*
X116016878Y-99252625D01*
X115994602Y-99277202D01*
X115970025Y-99299478D01*
X115943383Y-99319237D01*
X115914932Y-99336289D01*
X115884947Y-99350471D01*
X115853716Y-99361646D01*
X115821541Y-99369705D01*
X115788730Y-99374572D01*
X115755600Y-99376200D01*
X115079600Y-99376200D01*
X115046470Y-99374572D01*
X115013659Y-99369705D01*
X114981484Y-99361646D01*
X114950253Y-99350471D01*
X114920268Y-99336289D01*
X114891817Y-99319237D01*
X114865175Y-99299478D01*
X114840598Y-99277202D01*
X114818322Y-99252625D01*
X114798563Y-99225983D01*
X114781511Y-99197532D01*
X114767329Y-99167547D01*
X114756154Y-99136316D01*
X114748095Y-99104141D01*
X114743228Y-99071330D01*
X114741600Y-99038200D01*
X114741600Y-98312200D01*
X114743228Y-98279070D01*
X114748095Y-98246259D01*
X114756154Y-98214084D01*
X114767329Y-98182853D01*
X114781511Y-98152868D01*
X114798563Y-98124417D01*
X114818322Y-98097775D01*
X114840598Y-98073198D01*
X114865175Y-98050922D01*
X114891817Y-98031163D01*
X114920268Y-98014111D01*
X114950253Y-97999929D01*
X114981484Y-97988754D01*
X115013659Y-97980695D01*
X115046470Y-97975828D01*
X115079600Y-97974200D01*
X115755600Y-97974200D01*
X115788730Y-97975828D01*
X115788730Y-97975828D01*
G37*
D23*
X115417600Y-98675200D03*
D18*
G36*
X116955401Y-99774804D02*
G01*
X116967584Y-99776611D01*
X116979531Y-99779604D01*
X116991127Y-99783753D01*
X117002260Y-99789019D01*
X117012824Y-99795351D01*
X117022716Y-99802687D01*
X117031842Y-99810958D01*
X117040113Y-99820084D01*
X117047449Y-99829976D01*
X117053781Y-99840540D01*
X117059047Y-99851673D01*
X117063196Y-99863269D01*
X117066189Y-99875216D01*
X117067996Y-99887399D01*
X117068600Y-99899700D01*
X117068600Y-100150700D01*
X117067996Y-100163001D01*
X117066189Y-100175184D01*
X117063196Y-100187131D01*
X117059047Y-100198727D01*
X117053781Y-100209860D01*
X117047449Y-100220424D01*
X117040113Y-100230316D01*
X117031842Y-100239442D01*
X117022716Y-100247713D01*
X117012824Y-100255049D01*
X117002260Y-100261381D01*
X116991127Y-100266647D01*
X116979531Y-100270796D01*
X116967584Y-100273789D01*
X116955401Y-100275596D01*
X116943100Y-100276200D01*
X115892100Y-100276200D01*
X115879799Y-100275596D01*
X115867616Y-100273789D01*
X115855669Y-100270796D01*
X115844073Y-100266647D01*
X115832940Y-100261381D01*
X115822376Y-100255049D01*
X115812484Y-100247713D01*
X115803358Y-100239442D01*
X115795087Y-100230316D01*
X115787751Y-100220424D01*
X115781419Y-100209860D01*
X115776153Y-100198727D01*
X115772004Y-100187131D01*
X115769011Y-100175184D01*
X115767204Y-100163001D01*
X115766600Y-100150700D01*
X115766600Y-99899700D01*
X115767204Y-99887399D01*
X115769011Y-99875216D01*
X115772004Y-99863269D01*
X115776153Y-99851673D01*
X115781419Y-99840540D01*
X115787751Y-99829976D01*
X115795087Y-99820084D01*
X115803358Y-99810958D01*
X115812484Y-99802687D01*
X115822376Y-99795351D01*
X115832940Y-99789019D01*
X115844073Y-99783753D01*
X115855669Y-99779604D01*
X115867616Y-99776611D01*
X115879799Y-99774804D01*
X115892100Y-99774200D01*
X116943100Y-99774200D01*
X116955401Y-99774804D01*
X116955401Y-99774804D01*
G37*
D22*
X116417600Y-100025200D03*
D18*
G36*
X110091301Y-86173104D02*
G01*
X110103484Y-86174911D01*
X110115431Y-86177904D01*
X110127027Y-86182053D01*
X110138160Y-86187319D01*
X110148724Y-86193651D01*
X110158616Y-86200987D01*
X110167742Y-86209258D01*
X110176013Y-86218384D01*
X110183349Y-86228276D01*
X110189681Y-86238840D01*
X110194947Y-86249973D01*
X110199096Y-86261569D01*
X110202089Y-86273516D01*
X110203896Y-86285699D01*
X110204500Y-86298000D01*
X110204500Y-86549000D01*
X110203896Y-86561301D01*
X110202089Y-86573484D01*
X110199096Y-86585431D01*
X110194947Y-86597027D01*
X110189681Y-86608160D01*
X110183349Y-86618724D01*
X110176013Y-86628616D01*
X110167742Y-86637742D01*
X110158616Y-86646013D01*
X110148724Y-86653349D01*
X110138160Y-86659681D01*
X110127027Y-86664947D01*
X110115431Y-86669096D01*
X110103484Y-86672089D01*
X110091301Y-86673896D01*
X110079000Y-86674500D01*
X109028000Y-86674500D01*
X109015699Y-86673896D01*
X109003516Y-86672089D01*
X108991569Y-86669096D01*
X108979973Y-86664947D01*
X108968840Y-86659681D01*
X108958276Y-86653349D01*
X108948384Y-86646013D01*
X108939258Y-86637742D01*
X108930987Y-86628616D01*
X108923651Y-86618724D01*
X108917319Y-86608160D01*
X108912053Y-86597027D01*
X108907904Y-86585431D01*
X108904911Y-86573484D01*
X108903104Y-86561301D01*
X108902500Y-86549000D01*
X108902500Y-86298000D01*
X108903104Y-86285699D01*
X108904911Y-86273516D01*
X108907904Y-86261569D01*
X108912053Y-86249973D01*
X108917319Y-86238840D01*
X108923651Y-86228276D01*
X108930987Y-86218384D01*
X108939258Y-86209258D01*
X108948384Y-86200987D01*
X108958276Y-86193651D01*
X108968840Y-86187319D01*
X108979973Y-86182053D01*
X108991569Y-86177904D01*
X109003516Y-86174911D01*
X109015699Y-86173104D01*
X109028000Y-86172500D01*
X110079000Y-86172500D01*
X110091301Y-86173104D01*
X110091301Y-86173104D01*
G37*
D22*
X109553500Y-86423500D03*
D18*
G36*
X110924630Y-87074128D02*
G01*
X110957441Y-87078995D01*
X110989616Y-87087054D01*
X111020847Y-87098229D01*
X111050832Y-87112411D01*
X111079283Y-87129463D01*
X111105925Y-87149222D01*
X111130502Y-87171498D01*
X111152778Y-87196075D01*
X111172537Y-87222717D01*
X111189589Y-87251168D01*
X111203771Y-87281153D01*
X111214946Y-87312384D01*
X111223005Y-87344559D01*
X111227872Y-87377370D01*
X111229500Y-87410500D01*
X111229500Y-88136500D01*
X111227872Y-88169630D01*
X111223005Y-88202441D01*
X111214946Y-88234616D01*
X111203771Y-88265847D01*
X111189589Y-88295832D01*
X111172537Y-88324283D01*
X111152778Y-88350925D01*
X111130502Y-88375502D01*
X111105925Y-88397778D01*
X111079283Y-88417537D01*
X111050832Y-88434589D01*
X111020847Y-88448771D01*
X110989616Y-88459946D01*
X110957441Y-88468005D01*
X110924630Y-88472872D01*
X110891500Y-88474500D01*
X110215500Y-88474500D01*
X110182370Y-88472872D01*
X110149559Y-88468005D01*
X110117384Y-88459946D01*
X110086153Y-88448771D01*
X110056168Y-88434589D01*
X110027717Y-88417537D01*
X110001075Y-88397778D01*
X109976498Y-88375502D01*
X109954222Y-88350925D01*
X109934463Y-88324283D01*
X109917411Y-88295832D01*
X109903229Y-88265847D01*
X109892054Y-88234616D01*
X109883995Y-88202441D01*
X109879128Y-88169630D01*
X109877500Y-88136500D01*
X109877500Y-87410500D01*
X109879128Y-87377370D01*
X109883995Y-87344559D01*
X109892054Y-87312384D01*
X109903229Y-87281153D01*
X109917411Y-87251168D01*
X109934463Y-87222717D01*
X109954222Y-87196075D01*
X109976498Y-87171498D01*
X110001075Y-87149222D01*
X110027717Y-87129463D01*
X110056168Y-87112411D01*
X110086153Y-87098229D01*
X110117384Y-87087054D01*
X110149559Y-87078995D01*
X110182370Y-87074128D01*
X110215500Y-87072500D01*
X110891500Y-87072500D01*
X110924630Y-87074128D01*
X110924630Y-87074128D01*
G37*
D23*
X110553500Y-87773500D03*
D18*
G36*
X110924630Y-84374128D02*
G01*
X110957441Y-84378995D01*
X110989616Y-84387054D01*
X111020847Y-84398229D01*
X111050832Y-84412411D01*
X111079283Y-84429463D01*
X111105925Y-84449222D01*
X111130502Y-84471498D01*
X111152778Y-84496075D01*
X111172537Y-84522717D01*
X111189589Y-84551168D01*
X111203771Y-84581153D01*
X111214946Y-84612384D01*
X111223005Y-84644559D01*
X111227872Y-84677370D01*
X111229500Y-84710500D01*
X111229500Y-85436500D01*
X111227872Y-85469630D01*
X111223005Y-85502441D01*
X111214946Y-85534616D01*
X111203771Y-85565847D01*
X111189589Y-85595832D01*
X111172537Y-85624283D01*
X111152778Y-85650925D01*
X111130502Y-85675502D01*
X111105925Y-85697778D01*
X111079283Y-85717537D01*
X111050832Y-85734589D01*
X111020847Y-85748771D01*
X110989616Y-85759946D01*
X110957441Y-85768005D01*
X110924630Y-85772872D01*
X110891500Y-85774500D01*
X110215500Y-85774500D01*
X110182370Y-85772872D01*
X110149559Y-85768005D01*
X110117384Y-85759946D01*
X110086153Y-85748771D01*
X110056168Y-85734589D01*
X110027717Y-85717537D01*
X110001075Y-85697778D01*
X109976498Y-85675502D01*
X109954222Y-85650925D01*
X109934463Y-85624283D01*
X109917411Y-85595832D01*
X109903229Y-85565847D01*
X109892054Y-85534616D01*
X109883995Y-85502441D01*
X109879128Y-85469630D01*
X109877500Y-85436500D01*
X109877500Y-84710500D01*
X109879128Y-84677370D01*
X109883995Y-84644559D01*
X109892054Y-84612384D01*
X109903229Y-84581153D01*
X109917411Y-84551168D01*
X109934463Y-84522717D01*
X109954222Y-84496075D01*
X109976498Y-84471498D01*
X110001075Y-84449222D01*
X110027717Y-84429463D01*
X110056168Y-84412411D01*
X110086153Y-84398229D01*
X110117384Y-84387054D01*
X110149559Y-84378995D01*
X110182370Y-84374128D01*
X110215500Y-84372500D01*
X110891500Y-84372500D01*
X110924630Y-84374128D01*
X110924630Y-84374128D01*
G37*
D23*
X110553500Y-85073500D03*
D18*
G36*
X112091301Y-86173104D02*
G01*
X112103484Y-86174911D01*
X112115431Y-86177904D01*
X112127027Y-86182053D01*
X112138160Y-86187319D01*
X112148724Y-86193651D01*
X112158616Y-86200987D01*
X112167742Y-86209258D01*
X112176013Y-86218384D01*
X112183349Y-86228276D01*
X112189681Y-86238840D01*
X112194947Y-86249973D01*
X112199096Y-86261569D01*
X112202089Y-86273516D01*
X112203896Y-86285699D01*
X112204500Y-86298000D01*
X112204500Y-86549000D01*
X112203896Y-86561301D01*
X112202089Y-86573484D01*
X112199096Y-86585431D01*
X112194947Y-86597027D01*
X112189681Y-86608160D01*
X112183349Y-86618724D01*
X112176013Y-86628616D01*
X112167742Y-86637742D01*
X112158616Y-86646013D01*
X112148724Y-86653349D01*
X112138160Y-86659681D01*
X112127027Y-86664947D01*
X112115431Y-86669096D01*
X112103484Y-86672089D01*
X112091301Y-86673896D01*
X112079000Y-86674500D01*
X111028000Y-86674500D01*
X111015699Y-86673896D01*
X111003516Y-86672089D01*
X110991569Y-86669096D01*
X110979973Y-86664947D01*
X110968840Y-86659681D01*
X110958276Y-86653349D01*
X110948384Y-86646013D01*
X110939258Y-86637742D01*
X110930987Y-86628616D01*
X110923651Y-86618724D01*
X110917319Y-86608160D01*
X110912053Y-86597027D01*
X110907904Y-86585431D01*
X110904911Y-86573484D01*
X110903104Y-86561301D01*
X110902500Y-86549000D01*
X110902500Y-86298000D01*
X110903104Y-86285699D01*
X110904911Y-86273516D01*
X110907904Y-86261569D01*
X110912053Y-86249973D01*
X110917319Y-86238840D01*
X110923651Y-86228276D01*
X110930987Y-86218384D01*
X110939258Y-86209258D01*
X110948384Y-86200987D01*
X110958276Y-86193651D01*
X110968840Y-86187319D01*
X110979973Y-86182053D01*
X110991569Y-86177904D01*
X111003516Y-86174911D01*
X111015699Y-86173104D01*
X111028000Y-86172500D01*
X112079000Y-86172500D01*
X112091301Y-86173104D01*
X112091301Y-86173104D01*
G37*
D22*
X111553500Y-86423500D03*
D24*
X110871000Y-105727500D03*
D25*
X110871000Y-108267500D03*
X113411000Y-105727500D03*
X113411000Y-108267500D03*
X115951000Y-105727500D03*
X115951000Y-108267500D03*
X118491000Y-105727500D03*
X118491000Y-108267500D03*
X121031000Y-105727500D03*
X121031000Y-108267500D03*
X123571000Y-105727500D03*
X123571000Y-108267500D03*
X126111000Y-105727500D03*
X126111000Y-108267500D03*
X128651000Y-105727500D03*
X128651000Y-108267500D03*
X131191000Y-105727500D03*
X131191000Y-108267500D03*
X133731000Y-105727500D03*
X133731000Y-108267500D03*
X136271000Y-105727500D03*
X136271000Y-108267500D03*
X138811000Y-105727500D03*
X138811000Y-108267500D03*
X141351000Y-105727500D03*
X141351000Y-108267500D03*
X143891000Y-105727500D03*
X143891000Y-108267500D03*
X146431000Y-105727500D03*
X146431000Y-108267500D03*
X148971000Y-105727500D03*
X148971000Y-108267500D03*
X151511000Y-105727500D03*
X151511000Y-108267500D03*
X154051000Y-105727500D03*
X154051000Y-108267500D03*
X156591000Y-105727500D03*
X156591000Y-108267500D03*
X159131000Y-105727500D03*
X159131000Y-108267500D03*
D26*
X103949500Y-102235000D03*
D27*
X106489500Y-102235000D03*
D18*
G36*
X107058179Y-99932266D02*
G01*
X107083709Y-99936053D01*
X107108745Y-99942325D01*
X107133046Y-99951020D01*
X107156377Y-99962055D01*
X107178515Y-99975323D01*
X107199245Y-99990698D01*
X107218369Y-100008031D01*
X107235702Y-100027155D01*
X107251077Y-100047885D01*
X107264345Y-100070023D01*
X107275380Y-100093354D01*
X107284075Y-100117655D01*
X107290347Y-100142691D01*
X107294134Y-100168221D01*
X107295400Y-100194000D01*
X107295400Y-100720000D01*
X107294134Y-100745779D01*
X107290347Y-100771309D01*
X107284075Y-100796345D01*
X107275380Y-100820646D01*
X107264345Y-100843977D01*
X107251077Y-100866115D01*
X107235702Y-100886845D01*
X107218369Y-100905969D01*
X107199245Y-100923302D01*
X107178515Y-100938677D01*
X107156377Y-100951945D01*
X107133046Y-100962980D01*
X107108745Y-100971675D01*
X107083709Y-100977947D01*
X107058179Y-100981734D01*
X107032400Y-100983000D01*
X106406400Y-100983000D01*
X106380621Y-100981734D01*
X106355091Y-100977947D01*
X106330055Y-100971675D01*
X106305754Y-100962980D01*
X106282423Y-100951945D01*
X106260285Y-100938677D01*
X106239555Y-100923302D01*
X106220431Y-100905969D01*
X106203098Y-100886845D01*
X106187723Y-100866115D01*
X106174455Y-100843977D01*
X106163420Y-100820646D01*
X106154725Y-100796345D01*
X106148453Y-100771309D01*
X106144666Y-100745779D01*
X106143400Y-100720000D01*
X106143400Y-100194000D01*
X106144666Y-100168221D01*
X106148453Y-100142691D01*
X106154725Y-100117655D01*
X106163420Y-100093354D01*
X106174455Y-100070023D01*
X106187723Y-100047885D01*
X106203098Y-100027155D01*
X106220431Y-100008031D01*
X106239555Y-99990698D01*
X106260285Y-99975323D01*
X106282423Y-99962055D01*
X106305754Y-99951020D01*
X106330055Y-99942325D01*
X106355091Y-99936053D01*
X106380621Y-99932266D01*
X106406400Y-99931000D01*
X107032400Y-99931000D01*
X107058179Y-99932266D01*
X107058179Y-99932266D01*
G37*
D19*
X106719400Y-100457000D03*
D18*
G36*
X108808179Y-99932266D02*
G01*
X108833709Y-99936053D01*
X108858745Y-99942325D01*
X108883046Y-99951020D01*
X108906377Y-99962055D01*
X108928515Y-99975323D01*
X108949245Y-99990698D01*
X108968369Y-100008031D01*
X108985702Y-100027155D01*
X109001077Y-100047885D01*
X109014345Y-100070023D01*
X109025380Y-100093354D01*
X109034075Y-100117655D01*
X109040347Y-100142691D01*
X109044134Y-100168221D01*
X109045400Y-100194000D01*
X109045400Y-100720000D01*
X109044134Y-100745779D01*
X109040347Y-100771309D01*
X109034075Y-100796345D01*
X109025380Y-100820646D01*
X109014345Y-100843977D01*
X109001077Y-100866115D01*
X108985702Y-100886845D01*
X108968369Y-100905969D01*
X108949245Y-100923302D01*
X108928515Y-100938677D01*
X108906377Y-100951945D01*
X108883046Y-100962980D01*
X108858745Y-100971675D01*
X108833709Y-100977947D01*
X108808179Y-100981734D01*
X108782400Y-100983000D01*
X108156400Y-100983000D01*
X108130621Y-100981734D01*
X108105091Y-100977947D01*
X108080055Y-100971675D01*
X108055754Y-100962980D01*
X108032423Y-100951945D01*
X108010285Y-100938677D01*
X107989555Y-100923302D01*
X107970431Y-100905969D01*
X107953098Y-100886845D01*
X107937723Y-100866115D01*
X107924455Y-100843977D01*
X107913420Y-100820646D01*
X107904725Y-100796345D01*
X107898453Y-100771309D01*
X107894666Y-100745779D01*
X107893400Y-100720000D01*
X107893400Y-100194000D01*
X107894666Y-100168221D01*
X107898453Y-100142691D01*
X107904725Y-100117655D01*
X107913420Y-100093354D01*
X107924455Y-100070023D01*
X107937723Y-100047885D01*
X107953098Y-100027155D01*
X107970431Y-100008031D01*
X107989555Y-99990698D01*
X108010285Y-99975323D01*
X108032423Y-99962055D01*
X108055754Y-99951020D01*
X108080055Y-99942325D01*
X108105091Y-99936053D01*
X108130621Y-99932266D01*
X108156400Y-99931000D01*
X108782400Y-99931000D01*
X108808179Y-99932266D01*
X108808179Y-99932266D01*
G37*
D19*
X108469400Y-100457000D03*
D14*
X146113500Y-91364000D03*
X147383500Y-91364000D03*
X148653500Y-91364000D03*
X149923500Y-91364000D03*
X151193500Y-91364000D03*
X152463500Y-91364000D03*
X144843500Y-91364000D03*
X143573500Y-91364000D03*
X142303500Y-91364000D03*
X141033500Y-91364000D03*
X141033500Y-81864000D03*
X142303500Y-81864000D03*
X143573500Y-81864000D03*
X144843500Y-81864000D03*
X146113500Y-81864000D03*
X147383500Y-81864000D03*
X148653500Y-81864000D03*
X149923500Y-81864000D03*
X151193500Y-81864000D03*
X152463500Y-81864000D03*
X138874500Y-81864000D03*
X137604500Y-81864000D03*
X136334500Y-81864000D03*
X135064500Y-81864000D03*
X133794500Y-81864000D03*
X132524500Y-81864000D03*
X131254500Y-81864000D03*
X129984500Y-81864000D03*
X128714500Y-81864000D03*
X127444500Y-81864000D03*
X127444500Y-91364000D03*
X128714500Y-91364000D03*
X129984500Y-91364000D03*
X131254500Y-91364000D03*
X138874500Y-91364000D03*
X137604500Y-91364000D03*
X136334500Y-91364000D03*
X135064500Y-91364000D03*
X133794500Y-91364000D03*
X132524500Y-91364000D03*
D28*
X165468500Y-94615000D03*
X165468500Y-93345000D03*
X165468500Y-92075000D03*
X165468500Y-90805000D03*
X165468500Y-89535000D03*
X165468500Y-88265000D03*
X165468500Y-95885000D03*
X165468500Y-97155000D03*
X165468500Y-98425000D03*
X165468500Y-99695000D03*
X155968500Y-99695000D03*
X155968500Y-98425000D03*
X155968500Y-97155000D03*
X155968500Y-95885000D03*
X155968500Y-94615000D03*
X155968500Y-93345000D03*
X155968500Y-92075000D03*
X155968500Y-90805000D03*
X155968500Y-89535000D03*
X155968500Y-88265000D03*
D17*
X105000000Y-71400000D03*
D18*
G36*
X113007363Y-95849290D02*
G01*
X113033369Y-95853148D01*
X113058871Y-95859535D01*
X113083624Y-95868392D01*
X113107390Y-95879633D01*
X113129939Y-95893148D01*
X113151056Y-95908809D01*
X113170535Y-95926465D01*
X113188191Y-95945944D01*
X113203852Y-95967061D01*
X113217367Y-95989610D01*
X113228608Y-96013376D01*
X113237465Y-96038129D01*
X113243852Y-96063631D01*
X113247710Y-96089637D01*
X113249000Y-96115895D01*
X113249000Y-97432105D01*
X113247710Y-97458363D01*
X113243852Y-97484369D01*
X113237465Y-97509871D01*
X113228608Y-97534624D01*
X113217367Y-97558390D01*
X113203852Y-97580939D01*
X113188191Y-97602056D01*
X113170535Y-97621535D01*
X113151056Y-97639191D01*
X113129939Y-97654852D01*
X113107390Y-97668367D01*
X113083624Y-97679608D01*
X113058871Y-97688465D01*
X113033369Y-97694852D01*
X113007363Y-97698710D01*
X112981105Y-97700000D01*
X111989895Y-97700000D01*
X111963637Y-97698710D01*
X111937631Y-97694852D01*
X111912129Y-97688465D01*
X111887376Y-97679608D01*
X111863610Y-97668367D01*
X111841061Y-97654852D01*
X111819944Y-97639191D01*
X111800465Y-97621535D01*
X111782809Y-97602056D01*
X111767148Y-97580939D01*
X111753633Y-97558390D01*
X111742392Y-97534624D01*
X111733535Y-97509871D01*
X111727148Y-97484369D01*
X111723290Y-97458363D01*
X111722000Y-97432105D01*
X111722000Y-96115895D01*
X111723290Y-96089637D01*
X111727148Y-96063631D01*
X111733535Y-96038129D01*
X111742392Y-96013376D01*
X111753633Y-95989610D01*
X111767148Y-95967061D01*
X111782809Y-95945944D01*
X111800465Y-95926465D01*
X111819944Y-95908809D01*
X111841061Y-95893148D01*
X111863610Y-95879633D01*
X111887376Y-95868392D01*
X111912129Y-95859535D01*
X111937631Y-95853148D01*
X111963637Y-95849290D01*
X111989895Y-95848000D01*
X112981105Y-95848000D01*
X113007363Y-95849290D01*
X113007363Y-95849290D01*
G37*
D21*
X112485500Y-96774000D03*
D18*
G36*
X110032363Y-95849290D02*
G01*
X110058369Y-95853148D01*
X110083871Y-95859535D01*
X110108624Y-95868392D01*
X110132390Y-95879633D01*
X110154939Y-95893148D01*
X110176056Y-95908809D01*
X110195535Y-95926465D01*
X110213191Y-95945944D01*
X110228852Y-95967061D01*
X110242367Y-95989610D01*
X110253608Y-96013376D01*
X110262465Y-96038129D01*
X110268852Y-96063631D01*
X110272710Y-96089637D01*
X110274000Y-96115895D01*
X110274000Y-97432105D01*
X110272710Y-97458363D01*
X110268852Y-97484369D01*
X110262465Y-97509871D01*
X110253608Y-97534624D01*
X110242367Y-97558390D01*
X110228852Y-97580939D01*
X110213191Y-97602056D01*
X110195535Y-97621535D01*
X110176056Y-97639191D01*
X110154939Y-97654852D01*
X110132390Y-97668367D01*
X110108624Y-97679608D01*
X110083871Y-97688465D01*
X110058369Y-97694852D01*
X110032363Y-97698710D01*
X110006105Y-97700000D01*
X109014895Y-97700000D01*
X108988637Y-97698710D01*
X108962631Y-97694852D01*
X108937129Y-97688465D01*
X108912376Y-97679608D01*
X108888610Y-97668367D01*
X108866061Y-97654852D01*
X108844944Y-97639191D01*
X108825465Y-97621535D01*
X108807809Y-97602056D01*
X108792148Y-97580939D01*
X108778633Y-97558390D01*
X108767392Y-97534624D01*
X108758535Y-97509871D01*
X108752148Y-97484369D01*
X108748290Y-97458363D01*
X108747000Y-97432105D01*
X108747000Y-96115895D01*
X108748290Y-96089637D01*
X108752148Y-96063631D01*
X108758535Y-96038129D01*
X108767392Y-96013376D01*
X108778633Y-95989610D01*
X108792148Y-95967061D01*
X108807809Y-95945944D01*
X108825465Y-95926465D01*
X108844944Y-95908809D01*
X108866061Y-95893148D01*
X108888610Y-95879633D01*
X108912376Y-95868392D01*
X108937129Y-95859535D01*
X108962631Y-95853148D01*
X108988637Y-95849290D01*
X109014895Y-95848000D01*
X110006105Y-95848000D01*
X110032363Y-95849290D01*
X110032363Y-95849290D01*
G37*
D21*
X109510500Y-96774000D03*
D18*
G36*
X109075838Y-88123306D02*
G01*
X109102169Y-88127212D01*
X109127990Y-88133680D01*
X109153053Y-88142648D01*
X109177117Y-88154029D01*
X109199949Y-88167714D01*
X109221330Y-88183571D01*
X109241053Y-88201447D01*
X109258929Y-88221170D01*
X109274786Y-88242551D01*
X109288471Y-88265383D01*
X109299852Y-88289447D01*
X109308820Y-88314510D01*
X109315288Y-88340331D01*
X109319194Y-88366662D01*
X109320500Y-88393249D01*
X109320500Y-89152751D01*
X109319194Y-89179338D01*
X109315288Y-89205669D01*
X109308820Y-89231490D01*
X109299852Y-89256553D01*
X109288471Y-89280617D01*
X109274786Y-89303449D01*
X109258929Y-89324830D01*
X109241053Y-89344553D01*
X109221330Y-89362429D01*
X109199949Y-89378286D01*
X109177117Y-89391971D01*
X109153053Y-89403352D01*
X109127990Y-89412320D01*
X109102169Y-89418788D01*
X109075838Y-89422694D01*
X109049251Y-89424000D01*
X107739749Y-89424000D01*
X107713162Y-89422694D01*
X107686831Y-89418788D01*
X107661010Y-89412320D01*
X107635947Y-89403352D01*
X107611883Y-89391971D01*
X107589051Y-89378286D01*
X107567670Y-89362429D01*
X107547947Y-89344553D01*
X107530071Y-89324830D01*
X107514214Y-89303449D01*
X107500529Y-89280617D01*
X107489148Y-89256553D01*
X107480180Y-89231490D01*
X107473712Y-89205669D01*
X107469806Y-89179338D01*
X107468500Y-89152751D01*
X107468500Y-88393249D01*
X107469806Y-88366662D01*
X107473712Y-88340331D01*
X107480180Y-88314510D01*
X107489148Y-88289447D01*
X107500529Y-88265383D01*
X107514214Y-88242551D01*
X107530071Y-88221170D01*
X107547947Y-88201447D01*
X107567670Y-88183571D01*
X107589051Y-88167714D01*
X107611883Y-88154029D01*
X107635947Y-88142648D01*
X107661010Y-88133680D01*
X107686831Y-88127212D01*
X107713162Y-88123306D01*
X107739749Y-88122000D01*
X109049251Y-88122000D01*
X109075838Y-88123306D01*
X109075838Y-88123306D01*
G37*
D20*
X108394500Y-88773000D03*
D29*
X108394500Y-90773000D03*
D18*
G36*
X105964338Y-75613806D02*
G01*
X105990669Y-75617712D01*
X106016490Y-75624180D01*
X106041553Y-75633148D01*
X106065617Y-75644529D01*
X106088449Y-75658214D01*
X106109830Y-75674071D01*
X106129553Y-75691947D01*
X106147429Y-75711670D01*
X106163286Y-75733051D01*
X106176971Y-75755883D01*
X106188352Y-75779947D01*
X106197320Y-75805010D01*
X106203788Y-75830831D01*
X106207694Y-75857162D01*
X106209000Y-75883749D01*
X106209000Y-76643251D01*
X106207694Y-76669838D01*
X106203788Y-76696169D01*
X106197320Y-76721990D01*
X106188352Y-76747053D01*
X106176971Y-76771117D01*
X106163286Y-76793949D01*
X106147429Y-76815330D01*
X106129553Y-76835053D01*
X106109830Y-76852929D01*
X106088449Y-76868786D01*
X106065617Y-76882471D01*
X106041553Y-76893852D01*
X106016490Y-76902820D01*
X105990669Y-76909288D01*
X105964338Y-76913194D01*
X105937751Y-76914500D01*
X104628249Y-76914500D01*
X104601662Y-76913194D01*
X104575331Y-76909288D01*
X104549510Y-76902820D01*
X104524447Y-76893852D01*
X104500383Y-76882471D01*
X104477551Y-76868786D01*
X104456170Y-76852929D01*
X104436447Y-76835053D01*
X104418571Y-76815330D01*
X104402714Y-76793949D01*
X104389029Y-76771117D01*
X104377648Y-76747053D01*
X104368680Y-76721990D01*
X104362212Y-76696169D01*
X104358306Y-76669838D01*
X104357000Y-76643251D01*
X104357000Y-75883749D01*
X104358306Y-75857162D01*
X104362212Y-75830831D01*
X104368680Y-75805010D01*
X104377648Y-75779947D01*
X104389029Y-75755883D01*
X104402714Y-75733051D01*
X104418571Y-75711670D01*
X104436447Y-75691947D01*
X104456170Y-75674071D01*
X104477551Y-75658214D01*
X104500383Y-75644529D01*
X104524447Y-75633148D01*
X104549510Y-75624180D01*
X104575331Y-75617712D01*
X104601662Y-75613806D01*
X104628249Y-75612500D01*
X105937751Y-75612500D01*
X105964338Y-75613806D01*
X105964338Y-75613806D01*
G37*
D20*
X105283000Y-76263500D03*
D29*
X105283000Y-78263500D03*
X105283000Y-80263500D03*
D18*
G36*
X111745863Y-82449790D02*
G01*
X111771869Y-82453648D01*
X111797371Y-82460035D01*
X111822124Y-82468892D01*
X111845890Y-82480133D01*
X111868439Y-82493648D01*
X111889556Y-82509309D01*
X111909035Y-82526965D01*
X111926691Y-82546444D01*
X111942352Y-82567561D01*
X111955867Y-82590110D01*
X111967108Y-82613876D01*
X111975965Y-82638629D01*
X111982352Y-82664131D01*
X111986210Y-82690137D01*
X111987500Y-82716395D01*
X111987500Y-83707605D01*
X111986210Y-83733863D01*
X111982352Y-83759869D01*
X111975965Y-83785371D01*
X111967108Y-83810124D01*
X111955867Y-83833890D01*
X111942352Y-83856439D01*
X111926691Y-83877556D01*
X111909035Y-83897035D01*
X111889556Y-83914691D01*
X111868439Y-83930352D01*
X111845890Y-83943867D01*
X111822124Y-83955108D01*
X111797371Y-83963965D01*
X111771869Y-83970352D01*
X111745863Y-83974210D01*
X111719605Y-83975500D01*
X110403395Y-83975500D01*
X110377137Y-83974210D01*
X110351131Y-83970352D01*
X110325629Y-83963965D01*
X110300876Y-83955108D01*
X110277110Y-83943867D01*
X110254561Y-83930352D01*
X110233444Y-83914691D01*
X110213965Y-83897035D01*
X110196309Y-83877556D01*
X110180648Y-83856439D01*
X110167133Y-83833890D01*
X110155892Y-83810124D01*
X110147035Y-83785371D01*
X110140648Y-83759869D01*
X110136790Y-83733863D01*
X110135500Y-83707605D01*
X110135500Y-82716395D01*
X110136790Y-82690137D01*
X110140648Y-82664131D01*
X110147035Y-82638629D01*
X110155892Y-82613876D01*
X110167133Y-82590110D01*
X110180648Y-82567561D01*
X110196309Y-82546444D01*
X110213965Y-82526965D01*
X110233444Y-82509309D01*
X110254561Y-82493648D01*
X110277110Y-82480133D01*
X110300876Y-82468892D01*
X110325629Y-82460035D01*
X110351131Y-82453648D01*
X110377137Y-82449790D01*
X110403395Y-82448500D01*
X111719605Y-82448500D01*
X111745863Y-82449790D01*
X111745863Y-82449790D01*
G37*
D21*
X111061500Y-83212000D03*
D18*
G36*
X111745863Y-79474790D02*
G01*
X111771869Y-79478648D01*
X111797371Y-79485035D01*
X111822124Y-79493892D01*
X111845890Y-79505133D01*
X111868439Y-79518648D01*
X111889556Y-79534309D01*
X111909035Y-79551965D01*
X111926691Y-79571444D01*
X111942352Y-79592561D01*
X111955867Y-79615110D01*
X111967108Y-79638876D01*
X111975965Y-79663629D01*
X111982352Y-79689131D01*
X111986210Y-79715137D01*
X111987500Y-79741395D01*
X111987500Y-80732605D01*
X111986210Y-80758863D01*
X111982352Y-80784869D01*
X111975965Y-80810371D01*
X111967108Y-80835124D01*
X111955867Y-80858890D01*
X111942352Y-80881439D01*
X111926691Y-80902556D01*
X111909035Y-80922035D01*
X111889556Y-80939691D01*
X111868439Y-80955352D01*
X111845890Y-80968867D01*
X111822124Y-80980108D01*
X111797371Y-80988965D01*
X111771869Y-80995352D01*
X111745863Y-80999210D01*
X111719605Y-81000500D01*
X110403395Y-81000500D01*
X110377137Y-80999210D01*
X110351131Y-80995352D01*
X110325629Y-80988965D01*
X110300876Y-80980108D01*
X110277110Y-80968867D01*
X110254561Y-80955352D01*
X110233444Y-80939691D01*
X110213965Y-80922035D01*
X110196309Y-80902556D01*
X110180648Y-80881439D01*
X110167133Y-80858890D01*
X110155892Y-80835124D01*
X110147035Y-80810371D01*
X110140648Y-80784869D01*
X110136790Y-80758863D01*
X110135500Y-80732605D01*
X110135500Y-79741395D01*
X110136790Y-79715137D01*
X110140648Y-79689131D01*
X110147035Y-79663629D01*
X110155892Y-79638876D01*
X110167133Y-79615110D01*
X110180648Y-79592561D01*
X110196309Y-79571444D01*
X110213965Y-79551965D01*
X110233444Y-79534309D01*
X110254561Y-79518648D01*
X110277110Y-79505133D01*
X110300876Y-79493892D01*
X110325629Y-79485035D01*
X110351131Y-79478648D01*
X110377137Y-79474790D01*
X110403395Y-79473500D01*
X111719605Y-79473500D01*
X111745863Y-79474790D01*
X111745863Y-79474790D01*
G37*
D21*
X111061500Y-80237000D03*
M02*
