%TF.GenerationSoftware,KiCad,Pcbnew,(5.1.7-0-10_14)*%
%TF.CreationDate,2021-04-19T00:34:31+09:00*%
%TF.ProjectId,scsiemu,73637369-656d-4752-9e6b-696361645f70,rev?*%
%TF.SameCoordinates,Original*%
%TF.FileFunction,Soldermask,Bot*%
%TF.FilePolarity,Negative*%
%FSLAX46Y46*%
G04 Gerber Fmt 4.6, Leading zero omitted, Abs format (unit mm)*
G04 Created by KiCad (PCBNEW (5.1.7-0-10_14)) date 2021-04-19 00:34:31*
%MOMM*%
%LPD*%
G01*
G04 APERTURE LIST*
%ADD10C,0.900000*%
%ADD11O,1.802000X1.802000*%
%ADD12C,3.602000*%
%ADD13C,2.902000*%
%ADD14C,2.642000*%
%ADD15C,4.102000*%
%ADD16C,2.302000*%
%ADD17C,1.802000*%
%ADD18O,1.802000X2.052000*%
%ADD19O,2.102000X1.802000*%
%ADD20C,0.100000*%
G04 APERTURE END LIST*
D10*
X122809000Y-72669400D02*
X124091700Y-72669400D01*
X120637300Y-70523100D02*
X122821700Y-72707500D01*
X120637300Y-66509900D02*
X120637300Y-70485000D01*
X126390400Y-67462400D02*
X125133100Y-68719700D01*
X126390400Y-65519300D02*
X126390400Y-67462400D01*
X114046000Y-84137500D02*
X120599200Y-90690700D01*
X114046000Y-66497200D02*
X114046000Y-84162900D01*
X120700800Y-123164600D02*
X126111000Y-128574800D01*
X120650000Y-90665300D02*
X120650000Y-123113800D01*
X191401700Y-75869800D02*
X189217300Y-75869800D01*
X189128400Y-74117200D02*
X189128400Y-75311000D01*
X187337700Y-72326500D02*
X189128400Y-74117200D01*
X162509200Y-72313800D02*
X187337700Y-72326500D01*
X161239200Y-71043800D02*
X162496500Y-72301100D01*
X133438900Y-71031100D02*
X161213800Y-71031100D01*
X129336800Y-66878200D02*
X133451600Y-70993000D01*
X122809000Y-72669400D02*
X124091700Y-72669400D01*
X120637300Y-70523100D02*
X122821700Y-72707500D01*
X120637300Y-66509900D02*
X120637300Y-70485000D01*
X126390400Y-67462400D02*
X125133100Y-68719700D01*
X126390400Y-65519300D02*
X126390400Y-67462400D01*
X114046000Y-84137500D02*
X120599200Y-90690700D01*
X114046000Y-66497200D02*
X114046000Y-84162900D01*
X120700800Y-123164600D02*
X126111000Y-128574800D01*
X120650000Y-90665300D02*
X120650000Y-123113800D01*
X191401700Y-75869800D02*
X189217300Y-75869800D01*
X189128400Y-74117200D02*
X189128400Y-75311000D01*
X187337700Y-72326500D02*
X189128400Y-74117200D01*
X162509200Y-72313800D02*
X187337700Y-72326500D01*
X161239200Y-71043800D02*
X162496500Y-72301100D01*
X133438900Y-71031100D02*
X161213800Y-71031100D01*
X129336800Y-66878200D02*
X133451600Y-70993000D01*
%TO.C,R7*%
G36*
G01*
X125428900Y-78326600D02*
X125954900Y-78326600D01*
G75*
G02*
X126217900Y-78589600I0J-263000D01*
G01*
X126217900Y-79140600D01*
G75*
G02*
X125954900Y-79403600I-263000J0D01*
G01*
X125428900Y-79403600D01*
G75*
G02*
X125165900Y-79140600I0J263000D01*
G01*
X125165900Y-78589600D01*
G75*
G02*
X125428900Y-78326600I263000J0D01*
G01*
G37*
G36*
G01*
X125428900Y-76501600D02*
X125954900Y-76501600D01*
G75*
G02*
X126217900Y-76764600I0J-263000D01*
G01*
X126217900Y-77315600D01*
G75*
G02*
X125954900Y-77578600I-263000J0D01*
G01*
X125428900Y-77578600D01*
G75*
G02*
X125165900Y-77315600I0J263000D01*
G01*
X125165900Y-76764600D01*
G75*
G02*
X125428900Y-76501600I263000J0D01*
G01*
G37*
%TD*%
%TO.C,R6*%
G36*
G01*
X117039500Y-72652900D02*
X116513500Y-72652900D01*
G75*
G02*
X116250500Y-72389900I0J263000D01*
G01*
X116250500Y-71838900D01*
G75*
G02*
X116513500Y-71575900I263000J0D01*
G01*
X117039500Y-71575900D01*
G75*
G02*
X117302500Y-71838900I0J-263000D01*
G01*
X117302500Y-72389900D01*
G75*
G02*
X117039500Y-72652900I-263000J0D01*
G01*
G37*
G36*
G01*
X117039500Y-74477900D02*
X116513500Y-74477900D01*
G75*
G02*
X116250500Y-74214900I0J263000D01*
G01*
X116250500Y-73663900D01*
G75*
G02*
X116513500Y-73400900I263000J0D01*
G01*
X117039500Y-73400900D01*
G75*
G02*
X117302500Y-73663900I0J-263000D01*
G01*
X117302500Y-74214900D01*
G75*
G02*
X117039500Y-74477900I-263000J0D01*
G01*
G37*
%TD*%
%TO.C,R5*%
G36*
G01*
X122332100Y-75434300D02*
X122332100Y-74908300D01*
G75*
G02*
X122595100Y-74645300I263000J0D01*
G01*
X123146100Y-74645300D01*
G75*
G02*
X123409100Y-74908300I0J-263000D01*
G01*
X123409100Y-75434300D01*
G75*
G02*
X123146100Y-75697300I-263000J0D01*
G01*
X122595100Y-75697300D01*
G75*
G02*
X122332100Y-75434300I0J263000D01*
G01*
G37*
G36*
G01*
X120507100Y-75434300D02*
X120507100Y-74908300D01*
G75*
G02*
X120770100Y-74645300I263000J0D01*
G01*
X121321100Y-74645300D01*
G75*
G02*
X121584100Y-74908300I0J-263000D01*
G01*
X121584100Y-75434300D01*
G75*
G02*
X121321100Y-75697300I-263000J0D01*
G01*
X120770100Y-75697300D01*
G75*
G02*
X120507100Y-75434300I0J263000D01*
G01*
G37*
%TD*%
%TO.C,Q3*%
G36*
G01*
X123592700Y-81400700D02*
X123592700Y-82200700D01*
G75*
G02*
X123541700Y-82251700I-51000J0D01*
G01*
X121641700Y-82251700D01*
G75*
G02*
X121590700Y-82200700I0J51000D01*
G01*
X121590700Y-81400700D01*
G75*
G02*
X121641700Y-81349700I51000J0D01*
G01*
X123541700Y-81349700D01*
G75*
G02*
X123592700Y-81400700I0J-51000D01*
G01*
G37*
G36*
G01*
X126592700Y-82350700D02*
X126592700Y-83150700D01*
G75*
G02*
X126541700Y-83201700I-51000J0D01*
G01*
X124641700Y-83201700D01*
G75*
G02*
X124590700Y-83150700I0J51000D01*
G01*
X124590700Y-82350700D01*
G75*
G02*
X124641700Y-82299700I51000J0D01*
G01*
X126541700Y-82299700D01*
G75*
G02*
X126592700Y-82350700I0J-51000D01*
G01*
G37*
G36*
G01*
X126592700Y-80450700D02*
X126592700Y-81250700D01*
G75*
G02*
X126541700Y-81301700I-51000J0D01*
G01*
X124641700Y-81301700D01*
G75*
G02*
X124590700Y-81250700I0J51000D01*
G01*
X124590700Y-80450700D01*
G75*
G02*
X124641700Y-80399700I51000J0D01*
G01*
X126541700Y-80399700D01*
G75*
G02*
X126592700Y-80450700I0J-51000D01*
G01*
G37*
%TD*%
%TO.C,Q2*%
G36*
G01*
X119764700Y-78644700D02*
X119764700Y-77844700D01*
G75*
G02*
X119815700Y-77793700I51000J0D01*
G01*
X121715700Y-77793700D01*
G75*
G02*
X121766700Y-77844700I0J-51000D01*
G01*
X121766700Y-78644700D01*
G75*
G02*
X121715700Y-78695700I-51000J0D01*
G01*
X119815700Y-78695700D01*
G75*
G02*
X119764700Y-78644700I0J51000D01*
G01*
G37*
G36*
G01*
X116764700Y-77694700D02*
X116764700Y-76894700D01*
G75*
G02*
X116815700Y-76843700I51000J0D01*
G01*
X118715700Y-76843700D01*
G75*
G02*
X118766700Y-76894700I0J-51000D01*
G01*
X118766700Y-77694700D01*
G75*
G02*
X118715700Y-77745700I-51000J0D01*
G01*
X116815700Y-77745700D01*
G75*
G02*
X116764700Y-77694700I0J51000D01*
G01*
G37*
G36*
G01*
X116764700Y-79594700D02*
X116764700Y-78794700D01*
G75*
G02*
X116815700Y-78743700I51000J0D01*
G01*
X118715700Y-78743700D01*
G75*
G02*
X118766700Y-78794700I0J-51000D01*
G01*
X118766700Y-79594700D01*
G75*
G02*
X118715700Y-79645700I-51000J0D01*
G01*
X116815700Y-79645700D01*
G75*
G02*
X116764700Y-79594700I0J51000D01*
G01*
G37*
%TD*%
%TO.C,Q1*%
G36*
G01*
X125495000Y-70659100D02*
X124695000Y-70659100D01*
G75*
G02*
X124644000Y-70608100I0J51000D01*
G01*
X124644000Y-68708100D01*
G75*
G02*
X124695000Y-68657100I51000J0D01*
G01*
X125495000Y-68657100D01*
G75*
G02*
X125546000Y-68708100I0J-51000D01*
G01*
X125546000Y-70608100D01*
G75*
G02*
X125495000Y-70659100I-51000J0D01*
G01*
G37*
G36*
G01*
X124545000Y-73659100D02*
X123745000Y-73659100D01*
G75*
G02*
X123694000Y-73608100I0J51000D01*
G01*
X123694000Y-71708100D01*
G75*
G02*
X123745000Y-71657100I51000J0D01*
G01*
X124545000Y-71657100D01*
G75*
G02*
X124596000Y-71708100I0J-51000D01*
G01*
X124596000Y-73608100D01*
G75*
G02*
X124545000Y-73659100I-51000J0D01*
G01*
G37*
G36*
G01*
X126445000Y-73659100D02*
X125645000Y-73659100D01*
G75*
G02*
X125594000Y-73608100I0J51000D01*
G01*
X125594000Y-71708100D01*
G75*
G02*
X125645000Y-71657100I51000J0D01*
G01*
X126445000Y-71657100D01*
G75*
G02*
X126496000Y-71708100I0J-51000D01*
G01*
X126496000Y-73608100D01*
G75*
G02*
X126445000Y-73659100I-51000J0D01*
G01*
G37*
%TD*%
D11*
%TO.C,JP1*%
X140195300Y-55664100D03*
G36*
G01*
X138505300Y-56565100D02*
X136805300Y-56565100D01*
G75*
G02*
X136754300Y-56514100I0J51000D01*
G01*
X136754300Y-54814100D01*
G75*
G02*
X136805300Y-54763100I51000J0D01*
G01*
X138505300Y-54763100D01*
G75*
G02*
X138556300Y-54814100I0J-51000D01*
G01*
X138556300Y-56514100D01*
G75*
G02*
X138505300Y-56565100I-51000J0D01*
G01*
G37*
%TD*%
D12*
%TO.C,MH12*%
X207250000Y-101450000D03*
%TD*%
%TO.C,MH11*%
X112000000Y-101450000D03*
%TD*%
D13*
%TO.C,J8*%
X114554000Y-45593000D03*
X119634000Y-45593000D03*
X124714000Y-45593000D03*
X129794000Y-45593000D03*
D14*
X112014000Y-43053000D03*
X132334000Y-43053000D03*
D15*
X117094000Y-35433000D03*
X127254000Y-35433000D03*
%TD*%
%TO.C,C11*%
G36*
G01*
X148831200Y-45760394D02*
X148831200Y-47076606D01*
G75*
G02*
X148563306Y-47344500I-267894J0D01*
G01*
X147572094Y-47344500D01*
G75*
G02*
X147304200Y-47076606I0J267894D01*
G01*
X147304200Y-45760394D01*
G75*
G02*
X147572094Y-45492500I267894J0D01*
G01*
X148563306Y-45492500D01*
G75*
G02*
X148831200Y-45760394I0J-267894D01*
G01*
G37*
G36*
G01*
X151806200Y-45760394D02*
X151806200Y-47076606D01*
G75*
G02*
X151538306Y-47344500I-267894J0D01*
G01*
X150547094Y-47344500D01*
G75*
G02*
X150279200Y-47076606I0J267894D01*
G01*
X150279200Y-45760394D01*
G75*
G02*
X150547094Y-45492500I267894J0D01*
G01*
X151538306Y-45492500D01*
G75*
G02*
X151806200Y-45760394I0J-267894D01*
G01*
G37*
%TD*%
%TO.C,C10*%
G36*
G01*
X183172000Y-63349894D02*
X183172000Y-64666106D01*
G75*
G02*
X182904106Y-64934000I-267894J0D01*
G01*
X181912894Y-64934000D01*
G75*
G02*
X181645000Y-64666106I0J267894D01*
G01*
X181645000Y-63349894D01*
G75*
G02*
X181912894Y-63082000I267894J0D01*
G01*
X182904106Y-63082000D01*
G75*
G02*
X183172000Y-63349894I0J-267894D01*
G01*
G37*
G36*
G01*
X186147000Y-63349894D02*
X186147000Y-64666106D01*
G75*
G02*
X185879106Y-64934000I-267894J0D01*
G01*
X184887894Y-64934000D01*
G75*
G02*
X184620000Y-64666106I0J267894D01*
G01*
X184620000Y-63349894D01*
G75*
G02*
X184887894Y-63082000I267894J0D01*
G01*
X185879106Y-63082000D01*
G75*
G02*
X186147000Y-63349894I0J-267894D01*
G01*
G37*
%TD*%
%TO.C,U8*%
G36*
G01*
X146287400Y-48054300D02*
X146287400Y-48305300D01*
G75*
G02*
X146161900Y-48430800I-125500J0D01*
G01*
X144835900Y-48430800D01*
G75*
G02*
X144710400Y-48305300I0J125500D01*
G01*
X144710400Y-48054300D01*
G75*
G02*
X144835900Y-47928800I125500J0D01*
G01*
X146161900Y-47928800D01*
G75*
G02*
X146287400Y-48054300I0J-125500D01*
G01*
G37*
G36*
G01*
X146287400Y-48704300D02*
X146287400Y-48955300D01*
G75*
G02*
X146161900Y-49080800I-125500J0D01*
G01*
X144835900Y-49080800D01*
G75*
G02*
X144710400Y-48955300I0J125500D01*
G01*
X144710400Y-48704300D01*
G75*
G02*
X144835900Y-48578800I125500J0D01*
G01*
X146161900Y-48578800D01*
G75*
G02*
X146287400Y-48704300I0J-125500D01*
G01*
G37*
G36*
G01*
X146287400Y-49354300D02*
X146287400Y-49605300D01*
G75*
G02*
X146161900Y-49730800I-125500J0D01*
G01*
X144835900Y-49730800D01*
G75*
G02*
X144710400Y-49605300I0J125500D01*
G01*
X144710400Y-49354300D01*
G75*
G02*
X144835900Y-49228800I125500J0D01*
G01*
X146161900Y-49228800D01*
G75*
G02*
X146287400Y-49354300I0J-125500D01*
G01*
G37*
G36*
G01*
X146287400Y-50004300D02*
X146287400Y-50255300D01*
G75*
G02*
X146161900Y-50380800I-125500J0D01*
G01*
X144835900Y-50380800D01*
G75*
G02*
X144710400Y-50255300I0J125500D01*
G01*
X144710400Y-50004300D01*
G75*
G02*
X144835900Y-49878800I125500J0D01*
G01*
X146161900Y-49878800D01*
G75*
G02*
X146287400Y-50004300I0J-125500D01*
G01*
G37*
G36*
G01*
X146287400Y-50654300D02*
X146287400Y-50905300D01*
G75*
G02*
X146161900Y-51030800I-125500J0D01*
G01*
X144835900Y-51030800D01*
G75*
G02*
X144710400Y-50905300I0J125500D01*
G01*
X144710400Y-50654300D01*
G75*
G02*
X144835900Y-50528800I125500J0D01*
G01*
X146161900Y-50528800D01*
G75*
G02*
X146287400Y-50654300I0J-125500D01*
G01*
G37*
G36*
G01*
X146287400Y-51304300D02*
X146287400Y-51555300D01*
G75*
G02*
X146161900Y-51680800I-125500J0D01*
G01*
X144835900Y-51680800D01*
G75*
G02*
X144710400Y-51555300I0J125500D01*
G01*
X144710400Y-51304300D01*
G75*
G02*
X144835900Y-51178800I125500J0D01*
G01*
X146161900Y-51178800D01*
G75*
G02*
X146287400Y-51304300I0J-125500D01*
G01*
G37*
G36*
G01*
X146287400Y-51954300D02*
X146287400Y-52205300D01*
G75*
G02*
X146161900Y-52330800I-125500J0D01*
G01*
X144835900Y-52330800D01*
G75*
G02*
X144710400Y-52205300I0J125500D01*
G01*
X144710400Y-51954300D01*
G75*
G02*
X144835900Y-51828800I125500J0D01*
G01*
X146161900Y-51828800D01*
G75*
G02*
X146287400Y-51954300I0J-125500D01*
G01*
G37*
G36*
G01*
X146287400Y-52604300D02*
X146287400Y-52855300D01*
G75*
G02*
X146161900Y-52980800I-125500J0D01*
G01*
X144835900Y-52980800D01*
G75*
G02*
X144710400Y-52855300I0J125500D01*
G01*
X144710400Y-52604300D01*
G75*
G02*
X144835900Y-52478800I125500J0D01*
G01*
X146161900Y-52478800D01*
G75*
G02*
X146287400Y-52604300I0J-125500D01*
G01*
G37*
G36*
G01*
X146287400Y-53254300D02*
X146287400Y-53505300D01*
G75*
G02*
X146161900Y-53630800I-125500J0D01*
G01*
X144835900Y-53630800D01*
G75*
G02*
X144710400Y-53505300I0J125500D01*
G01*
X144710400Y-53254300D01*
G75*
G02*
X144835900Y-53128800I125500J0D01*
G01*
X146161900Y-53128800D01*
G75*
G02*
X146287400Y-53254300I0J-125500D01*
G01*
G37*
G36*
G01*
X146287400Y-53904300D02*
X146287400Y-54155300D01*
G75*
G02*
X146161900Y-54280800I-125500J0D01*
G01*
X144835900Y-54280800D01*
G75*
G02*
X144710400Y-54155300I0J125500D01*
G01*
X144710400Y-53904300D01*
G75*
G02*
X144835900Y-53778800I125500J0D01*
G01*
X146161900Y-53778800D01*
G75*
G02*
X146287400Y-53904300I0J-125500D01*
G01*
G37*
G36*
G01*
X152012400Y-53904300D02*
X152012400Y-54155300D01*
G75*
G02*
X151886900Y-54280800I-125500J0D01*
G01*
X150560900Y-54280800D01*
G75*
G02*
X150435400Y-54155300I0J125500D01*
G01*
X150435400Y-53904300D01*
G75*
G02*
X150560900Y-53778800I125500J0D01*
G01*
X151886900Y-53778800D01*
G75*
G02*
X152012400Y-53904300I0J-125500D01*
G01*
G37*
G36*
G01*
X152012400Y-53254300D02*
X152012400Y-53505300D01*
G75*
G02*
X151886900Y-53630800I-125500J0D01*
G01*
X150560900Y-53630800D01*
G75*
G02*
X150435400Y-53505300I0J125500D01*
G01*
X150435400Y-53254300D01*
G75*
G02*
X150560900Y-53128800I125500J0D01*
G01*
X151886900Y-53128800D01*
G75*
G02*
X152012400Y-53254300I0J-125500D01*
G01*
G37*
G36*
G01*
X152012400Y-52604300D02*
X152012400Y-52855300D01*
G75*
G02*
X151886900Y-52980800I-125500J0D01*
G01*
X150560900Y-52980800D01*
G75*
G02*
X150435400Y-52855300I0J125500D01*
G01*
X150435400Y-52604300D01*
G75*
G02*
X150560900Y-52478800I125500J0D01*
G01*
X151886900Y-52478800D01*
G75*
G02*
X152012400Y-52604300I0J-125500D01*
G01*
G37*
G36*
G01*
X152012400Y-51954300D02*
X152012400Y-52205300D01*
G75*
G02*
X151886900Y-52330800I-125500J0D01*
G01*
X150560900Y-52330800D01*
G75*
G02*
X150435400Y-52205300I0J125500D01*
G01*
X150435400Y-51954300D01*
G75*
G02*
X150560900Y-51828800I125500J0D01*
G01*
X151886900Y-51828800D01*
G75*
G02*
X152012400Y-51954300I0J-125500D01*
G01*
G37*
G36*
G01*
X152012400Y-51304300D02*
X152012400Y-51555300D01*
G75*
G02*
X151886900Y-51680800I-125500J0D01*
G01*
X150560900Y-51680800D01*
G75*
G02*
X150435400Y-51555300I0J125500D01*
G01*
X150435400Y-51304300D01*
G75*
G02*
X150560900Y-51178800I125500J0D01*
G01*
X151886900Y-51178800D01*
G75*
G02*
X152012400Y-51304300I0J-125500D01*
G01*
G37*
G36*
G01*
X152012400Y-50654300D02*
X152012400Y-50905300D01*
G75*
G02*
X151886900Y-51030800I-125500J0D01*
G01*
X150560900Y-51030800D01*
G75*
G02*
X150435400Y-50905300I0J125500D01*
G01*
X150435400Y-50654300D01*
G75*
G02*
X150560900Y-50528800I125500J0D01*
G01*
X151886900Y-50528800D01*
G75*
G02*
X152012400Y-50654300I0J-125500D01*
G01*
G37*
G36*
G01*
X152012400Y-50004300D02*
X152012400Y-50255300D01*
G75*
G02*
X151886900Y-50380800I-125500J0D01*
G01*
X150560900Y-50380800D01*
G75*
G02*
X150435400Y-50255300I0J125500D01*
G01*
X150435400Y-50004300D01*
G75*
G02*
X150560900Y-49878800I125500J0D01*
G01*
X151886900Y-49878800D01*
G75*
G02*
X152012400Y-50004300I0J-125500D01*
G01*
G37*
G36*
G01*
X152012400Y-49354300D02*
X152012400Y-49605300D01*
G75*
G02*
X151886900Y-49730800I-125500J0D01*
G01*
X150560900Y-49730800D01*
G75*
G02*
X150435400Y-49605300I0J125500D01*
G01*
X150435400Y-49354300D01*
G75*
G02*
X150560900Y-49228800I125500J0D01*
G01*
X151886900Y-49228800D01*
G75*
G02*
X152012400Y-49354300I0J-125500D01*
G01*
G37*
G36*
G01*
X152012400Y-48704300D02*
X152012400Y-48955300D01*
G75*
G02*
X151886900Y-49080800I-125500J0D01*
G01*
X150560900Y-49080800D01*
G75*
G02*
X150435400Y-48955300I0J125500D01*
G01*
X150435400Y-48704300D01*
G75*
G02*
X150560900Y-48578800I125500J0D01*
G01*
X151886900Y-48578800D01*
G75*
G02*
X152012400Y-48704300I0J-125500D01*
G01*
G37*
G36*
G01*
X152012400Y-48054300D02*
X152012400Y-48305300D01*
G75*
G02*
X151886900Y-48430800I-125500J0D01*
G01*
X150560900Y-48430800D01*
G75*
G02*
X150435400Y-48305300I0J125500D01*
G01*
X150435400Y-48054300D01*
G75*
G02*
X150560900Y-47928800I125500J0D01*
G01*
X151886900Y-47928800D01*
G75*
G02*
X152012400Y-48054300I0J-125500D01*
G01*
G37*
%TD*%
%TO.C,U7*%
G36*
G01*
X187068500Y-68622000D02*
X187319500Y-68622000D01*
G75*
G02*
X187445000Y-68747500I0J-125500D01*
G01*
X187445000Y-70073500D01*
G75*
G02*
X187319500Y-70199000I-125500J0D01*
G01*
X187068500Y-70199000D01*
G75*
G02*
X186943000Y-70073500I0J125500D01*
G01*
X186943000Y-68747500D01*
G75*
G02*
X187068500Y-68622000I125500J0D01*
G01*
G37*
G36*
G01*
X187718500Y-68622000D02*
X187969500Y-68622000D01*
G75*
G02*
X188095000Y-68747500I0J-125500D01*
G01*
X188095000Y-70073500D01*
G75*
G02*
X187969500Y-70199000I-125500J0D01*
G01*
X187718500Y-70199000D01*
G75*
G02*
X187593000Y-70073500I0J125500D01*
G01*
X187593000Y-68747500D01*
G75*
G02*
X187718500Y-68622000I125500J0D01*
G01*
G37*
G36*
G01*
X188368500Y-68622000D02*
X188619500Y-68622000D01*
G75*
G02*
X188745000Y-68747500I0J-125500D01*
G01*
X188745000Y-70073500D01*
G75*
G02*
X188619500Y-70199000I-125500J0D01*
G01*
X188368500Y-70199000D01*
G75*
G02*
X188243000Y-70073500I0J125500D01*
G01*
X188243000Y-68747500D01*
G75*
G02*
X188368500Y-68622000I125500J0D01*
G01*
G37*
G36*
G01*
X189018500Y-68622000D02*
X189269500Y-68622000D01*
G75*
G02*
X189395000Y-68747500I0J-125500D01*
G01*
X189395000Y-70073500D01*
G75*
G02*
X189269500Y-70199000I-125500J0D01*
G01*
X189018500Y-70199000D01*
G75*
G02*
X188893000Y-70073500I0J125500D01*
G01*
X188893000Y-68747500D01*
G75*
G02*
X189018500Y-68622000I125500J0D01*
G01*
G37*
G36*
G01*
X189668500Y-68622000D02*
X189919500Y-68622000D01*
G75*
G02*
X190045000Y-68747500I0J-125500D01*
G01*
X190045000Y-70073500D01*
G75*
G02*
X189919500Y-70199000I-125500J0D01*
G01*
X189668500Y-70199000D01*
G75*
G02*
X189543000Y-70073500I0J125500D01*
G01*
X189543000Y-68747500D01*
G75*
G02*
X189668500Y-68622000I125500J0D01*
G01*
G37*
G36*
G01*
X190318500Y-68622000D02*
X190569500Y-68622000D01*
G75*
G02*
X190695000Y-68747500I0J-125500D01*
G01*
X190695000Y-70073500D01*
G75*
G02*
X190569500Y-70199000I-125500J0D01*
G01*
X190318500Y-70199000D01*
G75*
G02*
X190193000Y-70073500I0J125500D01*
G01*
X190193000Y-68747500D01*
G75*
G02*
X190318500Y-68622000I125500J0D01*
G01*
G37*
G36*
G01*
X190968500Y-68622000D02*
X191219500Y-68622000D01*
G75*
G02*
X191345000Y-68747500I0J-125500D01*
G01*
X191345000Y-70073500D01*
G75*
G02*
X191219500Y-70199000I-125500J0D01*
G01*
X190968500Y-70199000D01*
G75*
G02*
X190843000Y-70073500I0J125500D01*
G01*
X190843000Y-68747500D01*
G75*
G02*
X190968500Y-68622000I125500J0D01*
G01*
G37*
G36*
G01*
X191618500Y-68622000D02*
X191869500Y-68622000D01*
G75*
G02*
X191995000Y-68747500I0J-125500D01*
G01*
X191995000Y-70073500D01*
G75*
G02*
X191869500Y-70199000I-125500J0D01*
G01*
X191618500Y-70199000D01*
G75*
G02*
X191493000Y-70073500I0J125500D01*
G01*
X191493000Y-68747500D01*
G75*
G02*
X191618500Y-68622000I125500J0D01*
G01*
G37*
G36*
G01*
X192268500Y-68622000D02*
X192519500Y-68622000D01*
G75*
G02*
X192645000Y-68747500I0J-125500D01*
G01*
X192645000Y-70073500D01*
G75*
G02*
X192519500Y-70199000I-125500J0D01*
G01*
X192268500Y-70199000D01*
G75*
G02*
X192143000Y-70073500I0J125500D01*
G01*
X192143000Y-68747500D01*
G75*
G02*
X192268500Y-68622000I125500J0D01*
G01*
G37*
G36*
G01*
X192918500Y-68622000D02*
X193169500Y-68622000D01*
G75*
G02*
X193295000Y-68747500I0J-125500D01*
G01*
X193295000Y-70073500D01*
G75*
G02*
X193169500Y-70199000I-125500J0D01*
G01*
X192918500Y-70199000D01*
G75*
G02*
X192793000Y-70073500I0J125500D01*
G01*
X192793000Y-68747500D01*
G75*
G02*
X192918500Y-68622000I125500J0D01*
G01*
G37*
G36*
G01*
X192918500Y-62897000D02*
X193169500Y-62897000D01*
G75*
G02*
X193295000Y-63022500I0J-125500D01*
G01*
X193295000Y-64348500D01*
G75*
G02*
X193169500Y-64474000I-125500J0D01*
G01*
X192918500Y-64474000D01*
G75*
G02*
X192793000Y-64348500I0J125500D01*
G01*
X192793000Y-63022500D01*
G75*
G02*
X192918500Y-62897000I125500J0D01*
G01*
G37*
G36*
G01*
X192268500Y-62897000D02*
X192519500Y-62897000D01*
G75*
G02*
X192645000Y-63022500I0J-125500D01*
G01*
X192645000Y-64348500D01*
G75*
G02*
X192519500Y-64474000I-125500J0D01*
G01*
X192268500Y-64474000D01*
G75*
G02*
X192143000Y-64348500I0J125500D01*
G01*
X192143000Y-63022500D01*
G75*
G02*
X192268500Y-62897000I125500J0D01*
G01*
G37*
G36*
G01*
X191618500Y-62897000D02*
X191869500Y-62897000D01*
G75*
G02*
X191995000Y-63022500I0J-125500D01*
G01*
X191995000Y-64348500D01*
G75*
G02*
X191869500Y-64474000I-125500J0D01*
G01*
X191618500Y-64474000D01*
G75*
G02*
X191493000Y-64348500I0J125500D01*
G01*
X191493000Y-63022500D01*
G75*
G02*
X191618500Y-62897000I125500J0D01*
G01*
G37*
G36*
G01*
X190968500Y-62897000D02*
X191219500Y-62897000D01*
G75*
G02*
X191345000Y-63022500I0J-125500D01*
G01*
X191345000Y-64348500D01*
G75*
G02*
X191219500Y-64474000I-125500J0D01*
G01*
X190968500Y-64474000D01*
G75*
G02*
X190843000Y-64348500I0J125500D01*
G01*
X190843000Y-63022500D01*
G75*
G02*
X190968500Y-62897000I125500J0D01*
G01*
G37*
G36*
G01*
X190318500Y-62897000D02*
X190569500Y-62897000D01*
G75*
G02*
X190695000Y-63022500I0J-125500D01*
G01*
X190695000Y-64348500D01*
G75*
G02*
X190569500Y-64474000I-125500J0D01*
G01*
X190318500Y-64474000D01*
G75*
G02*
X190193000Y-64348500I0J125500D01*
G01*
X190193000Y-63022500D01*
G75*
G02*
X190318500Y-62897000I125500J0D01*
G01*
G37*
G36*
G01*
X189668500Y-62897000D02*
X189919500Y-62897000D01*
G75*
G02*
X190045000Y-63022500I0J-125500D01*
G01*
X190045000Y-64348500D01*
G75*
G02*
X189919500Y-64474000I-125500J0D01*
G01*
X189668500Y-64474000D01*
G75*
G02*
X189543000Y-64348500I0J125500D01*
G01*
X189543000Y-63022500D01*
G75*
G02*
X189668500Y-62897000I125500J0D01*
G01*
G37*
G36*
G01*
X189018500Y-62897000D02*
X189269500Y-62897000D01*
G75*
G02*
X189395000Y-63022500I0J-125500D01*
G01*
X189395000Y-64348500D01*
G75*
G02*
X189269500Y-64474000I-125500J0D01*
G01*
X189018500Y-64474000D01*
G75*
G02*
X188893000Y-64348500I0J125500D01*
G01*
X188893000Y-63022500D01*
G75*
G02*
X189018500Y-62897000I125500J0D01*
G01*
G37*
G36*
G01*
X188368500Y-62897000D02*
X188619500Y-62897000D01*
G75*
G02*
X188745000Y-63022500I0J-125500D01*
G01*
X188745000Y-64348500D01*
G75*
G02*
X188619500Y-64474000I-125500J0D01*
G01*
X188368500Y-64474000D01*
G75*
G02*
X188243000Y-64348500I0J125500D01*
G01*
X188243000Y-63022500D01*
G75*
G02*
X188368500Y-62897000I125500J0D01*
G01*
G37*
G36*
G01*
X187718500Y-62897000D02*
X187969500Y-62897000D01*
G75*
G02*
X188095000Y-63022500I0J-125500D01*
G01*
X188095000Y-64348500D01*
G75*
G02*
X187969500Y-64474000I-125500J0D01*
G01*
X187718500Y-64474000D01*
G75*
G02*
X187593000Y-64348500I0J125500D01*
G01*
X187593000Y-63022500D01*
G75*
G02*
X187718500Y-62897000I125500J0D01*
G01*
G37*
G36*
G01*
X187068500Y-62897000D02*
X187319500Y-62897000D01*
G75*
G02*
X187445000Y-63022500I0J-125500D01*
G01*
X187445000Y-64348500D01*
G75*
G02*
X187319500Y-64474000I-125500J0D01*
G01*
X187068500Y-64474000D01*
G75*
G02*
X186943000Y-64348500I0J125500D01*
G01*
X186943000Y-63022500D01*
G75*
G02*
X187068500Y-62897000I125500J0D01*
G01*
G37*
%TD*%
D16*
%TO.C,MH10*%
X138514000Y-126150000D03*
%TD*%
%TO.C,MH9*%
X196514000Y-126150000D03*
%TD*%
D11*
%TO.C,J2*%
X201930000Y-41656000D03*
X201930000Y-44196000D03*
X199390000Y-41656000D03*
X199390000Y-44196000D03*
X196850000Y-41656000D03*
X196850000Y-44196000D03*
X194310000Y-41656000D03*
X194310000Y-44196000D03*
X191770000Y-41656000D03*
X191770000Y-44196000D03*
X189230000Y-41656000D03*
X189230000Y-44196000D03*
X186690000Y-41656000D03*
X186690000Y-44196000D03*
X184150000Y-41656000D03*
X184150000Y-44196000D03*
X181610000Y-41656000D03*
X181610000Y-44196000D03*
X179070000Y-41656000D03*
X179070000Y-44196000D03*
X176530000Y-41656000D03*
X176530000Y-44196000D03*
X173990000Y-41656000D03*
X173990000Y-44196000D03*
X171450000Y-41656000D03*
X171450000Y-44196000D03*
X168910000Y-41656000D03*
X168910000Y-44196000D03*
X166370000Y-41656000D03*
X166370000Y-44196000D03*
X163830000Y-41656000D03*
X163830000Y-44196000D03*
X161290000Y-41656000D03*
X161290000Y-44196000D03*
X158750000Y-41656000D03*
X158750000Y-44196000D03*
X156210000Y-41656000D03*
X156210000Y-44196000D03*
X153670000Y-41656000D03*
X153670000Y-44196000D03*
X151130000Y-41656000D03*
X151130000Y-44196000D03*
X148590000Y-41656000D03*
X148590000Y-44196000D03*
X146050000Y-41656000D03*
X146050000Y-44196000D03*
X143510000Y-41656000D03*
X143510000Y-44196000D03*
X140970000Y-41656000D03*
G36*
G01*
X141820000Y-45097000D02*
X140120000Y-45097000D01*
G75*
G02*
X140069000Y-45046000I0J51000D01*
G01*
X140069000Y-43346000D01*
G75*
G02*
X140120000Y-43295000I51000J0D01*
G01*
X141820000Y-43295000D01*
G75*
G02*
X141871000Y-43346000I0J-51000D01*
G01*
X141871000Y-45046000D01*
G75*
G02*
X141820000Y-45097000I-51000J0D01*
G01*
G37*
%TD*%
D12*
%TO.C,MH8*%
X207250000Y-133200000D03*
%TD*%
%TO.C,MH7*%
X207250000Y-57000000D03*
%TD*%
%TO.C,MH6*%
X112000000Y-133200000D03*
%TD*%
%TO.C,MH5*%
X112000000Y-57000000D03*
%TD*%
D17*
%TO.C,J6*%
X119634000Y-49784000D03*
X117134000Y-49784000D03*
X114634000Y-49784000D03*
G36*
G01*
X112584500Y-50685000D02*
X111683500Y-50685000D01*
G75*
G02*
X111233000Y-50234500I0J450500D01*
G01*
X111233000Y-49333500D01*
G75*
G02*
X111683500Y-48883000I450500J0D01*
G01*
X112584500Y-48883000D01*
G75*
G02*
X113035000Y-49333500I0J-450500D01*
G01*
X113035000Y-50234500D01*
G75*
G02*
X112584500Y-50685000I-450500J0D01*
G01*
G37*
%TD*%
D16*
%TO.C,MH4*%
X196514000Y-100150000D03*
%TD*%
%TO.C,MH3*%
X196514000Y-77150000D03*
%TD*%
%TO.C,MH2*%
X138514000Y-77150000D03*
%TD*%
D18*
%TO.C,J7*%
X158162600Y-64833500D03*
X160662600Y-64833500D03*
X163162600Y-64833500D03*
X165662600Y-64833500D03*
X168162600Y-64833500D03*
G36*
G01*
X171563600Y-64072500D02*
X171563600Y-65594500D01*
G75*
G02*
X171298600Y-65859500I-265000J0D01*
G01*
X170026600Y-65859500D01*
G75*
G02*
X169761600Y-65594500I0J265000D01*
G01*
X169761600Y-64072500D01*
G75*
G02*
X170026600Y-63807500I265000J0D01*
G01*
X171298600Y-63807500D01*
G75*
G02*
X171563600Y-64072500I0J-265000D01*
G01*
G37*
%TD*%
D19*
%TO.C,J5*%
X114046000Y-66508000D03*
G36*
G01*
X113260000Y-63107000D02*
X114832000Y-63107000D01*
G75*
G02*
X115097000Y-63372000I0J-265000D01*
G01*
X115097000Y-64644000D01*
G75*
G02*
X114832000Y-64909000I-265000J0D01*
G01*
X113260000Y-64909000D01*
G75*
G02*
X112995000Y-64644000I0J265000D01*
G01*
X112995000Y-63372000D01*
G75*
G02*
X113260000Y-63107000I265000J0D01*
G01*
G37*
%TD*%
%TO.C,J4*%
X120650000Y-66508000D03*
G36*
G01*
X119864000Y-63107000D02*
X121436000Y-63107000D01*
G75*
G02*
X121701000Y-63372000I0J-265000D01*
G01*
X121701000Y-64644000D01*
G75*
G02*
X121436000Y-64909000I-265000J0D01*
G01*
X119864000Y-64909000D01*
G75*
G02*
X119599000Y-64644000I0J265000D01*
G01*
X119599000Y-63372000D01*
G75*
G02*
X119864000Y-63107000I265000J0D01*
G01*
G37*
%TD*%
D16*
%TO.C,MH1*%
X138514000Y-100150000D03*
%TD*%
%TO.C,J1*%
G36*
G01*
X190793000Y-77521500D02*
X192493000Y-77521500D01*
G75*
G02*
X192544000Y-77572500I0J-51000D01*
G01*
X192544000Y-79272500D01*
G75*
G02*
X192493000Y-79323500I-51000J0D01*
G01*
X190793000Y-79323500D01*
G75*
G02*
X190742000Y-79272500I0J51000D01*
G01*
X190742000Y-77572500D01*
G75*
G02*
X190793000Y-77521500I51000J0D01*
G01*
G37*
D11*
X191643000Y-75882500D03*
X189103000Y-78422500D03*
X189103000Y-75882500D03*
X186563000Y-78422500D03*
X186563000Y-75882500D03*
X184023000Y-78422500D03*
X184023000Y-75882500D03*
X181483000Y-78422500D03*
X181483000Y-75882500D03*
X178943000Y-78422500D03*
X178943000Y-75882500D03*
X176403000Y-78422500D03*
X176403000Y-75882500D03*
X173863000Y-78422500D03*
X173863000Y-75882500D03*
X171323000Y-78422500D03*
X171323000Y-75882500D03*
X168783000Y-78422500D03*
X168783000Y-75882500D03*
X166243000Y-78422500D03*
X166243000Y-75882500D03*
X163703000Y-78422500D03*
X163703000Y-75882500D03*
X161163000Y-78422500D03*
X161163000Y-75882500D03*
X158623000Y-78422500D03*
X158623000Y-75882500D03*
X156083000Y-78422500D03*
X156083000Y-75882500D03*
X153543000Y-78422500D03*
X153543000Y-75882500D03*
X151003000Y-78422500D03*
X151003000Y-75882500D03*
X148463000Y-78422500D03*
X148463000Y-75882500D03*
X145923000Y-78422500D03*
X145923000Y-75882500D03*
X143383000Y-78422500D03*
X143383000Y-75882500D03*
%TD*%
D20*
G36*
X190626058Y-68620010D02*
G01*
X190644366Y-68621813D01*
X190644751Y-68621889D01*
X190656456Y-68625440D01*
X190656818Y-68625590D01*
X190667608Y-68631357D01*
X190667934Y-68631575D01*
X190681957Y-68643084D01*
X190682102Y-68643216D01*
X190690978Y-68652091D01*
X190711025Y-68665486D01*
X190733299Y-68674711D01*
X190756950Y-68679415D01*
X190781056Y-68679415D01*
X190804706Y-68674710D01*
X190826979Y-68665483D01*
X190847027Y-68652088D01*
X190855903Y-68643212D01*
X190856048Y-68643080D01*
X190870066Y-68631575D01*
X190870392Y-68631357D01*
X190881182Y-68625590D01*
X190881544Y-68625440D01*
X190893249Y-68621889D01*
X190893634Y-68621813D01*
X190911942Y-68620010D01*
X190912138Y-68620000D01*
X190968500Y-68620000D01*
X190970232Y-68621000D01*
X190970232Y-68623000D01*
X190968696Y-68623990D01*
X190944411Y-68626381D01*
X190921242Y-68633410D01*
X190899892Y-68644822D01*
X190881179Y-68660179D01*
X190865822Y-68678892D01*
X190854410Y-68700242D01*
X190847381Y-68723411D01*
X190845000Y-68747594D01*
X190845000Y-70073406D01*
X190847381Y-70097589D01*
X190854410Y-70120758D01*
X190865822Y-70142108D01*
X190881179Y-70160821D01*
X190899892Y-70176178D01*
X190921242Y-70187590D01*
X190944411Y-70194619D01*
X190968696Y-70197010D01*
X190970322Y-70198175D01*
X190970126Y-70200165D01*
X190968500Y-70201000D01*
X190912138Y-70201000D01*
X190911942Y-70200990D01*
X190893634Y-70199187D01*
X190893249Y-70199111D01*
X190881544Y-70195560D01*
X190881182Y-70195410D01*
X190870392Y-70189643D01*
X190870066Y-70189425D01*
X190856043Y-70177916D01*
X190855898Y-70177784D01*
X190847022Y-70168909D01*
X190826975Y-70155514D01*
X190804701Y-70146289D01*
X190781050Y-70141585D01*
X190756944Y-70141585D01*
X190733294Y-70146290D01*
X190711021Y-70155517D01*
X190690973Y-70168912D01*
X190682097Y-70177788D01*
X190681952Y-70177920D01*
X190667934Y-70189425D01*
X190667608Y-70189643D01*
X190656818Y-70195410D01*
X190656456Y-70195560D01*
X190644751Y-70199111D01*
X190644366Y-70199187D01*
X190626058Y-70200990D01*
X190625862Y-70201000D01*
X190569500Y-70201000D01*
X190567768Y-70200000D01*
X190567768Y-70198000D01*
X190569304Y-70197010D01*
X190593589Y-70194619D01*
X190616758Y-70187590D01*
X190638108Y-70176178D01*
X190656821Y-70160821D01*
X190672178Y-70142108D01*
X190683590Y-70120758D01*
X190690619Y-70097589D01*
X190693000Y-70073406D01*
X190693000Y-68747594D01*
X190690619Y-68723411D01*
X190683590Y-68700242D01*
X190672178Y-68678892D01*
X190656821Y-68660179D01*
X190638108Y-68644822D01*
X190616758Y-68633410D01*
X190593589Y-68626381D01*
X190569304Y-68623990D01*
X190567678Y-68622825D01*
X190567874Y-68620835D01*
X190569500Y-68620000D01*
X190625862Y-68620000D01*
X190626058Y-68620010D01*
G37*
G36*
X187376058Y-68620010D02*
G01*
X187394366Y-68621813D01*
X187394751Y-68621889D01*
X187406456Y-68625440D01*
X187406818Y-68625590D01*
X187417608Y-68631357D01*
X187417934Y-68631575D01*
X187431957Y-68643084D01*
X187432102Y-68643216D01*
X187440978Y-68652091D01*
X187461025Y-68665486D01*
X187483299Y-68674711D01*
X187506950Y-68679415D01*
X187531056Y-68679415D01*
X187554706Y-68674710D01*
X187576979Y-68665483D01*
X187597027Y-68652088D01*
X187605903Y-68643212D01*
X187606048Y-68643080D01*
X187620066Y-68631575D01*
X187620392Y-68631357D01*
X187631182Y-68625590D01*
X187631544Y-68625440D01*
X187643249Y-68621889D01*
X187643634Y-68621813D01*
X187661942Y-68620010D01*
X187662138Y-68620000D01*
X187718500Y-68620000D01*
X187720232Y-68621000D01*
X187720232Y-68623000D01*
X187718696Y-68623990D01*
X187694411Y-68626381D01*
X187671242Y-68633410D01*
X187649892Y-68644822D01*
X187631179Y-68660179D01*
X187615822Y-68678892D01*
X187604410Y-68700242D01*
X187597381Y-68723411D01*
X187595000Y-68747594D01*
X187595000Y-70073406D01*
X187597381Y-70097589D01*
X187604410Y-70120758D01*
X187615822Y-70142108D01*
X187631179Y-70160821D01*
X187649892Y-70176178D01*
X187671242Y-70187590D01*
X187694411Y-70194619D01*
X187718696Y-70197010D01*
X187720322Y-70198175D01*
X187720126Y-70200165D01*
X187718500Y-70201000D01*
X187662138Y-70201000D01*
X187661942Y-70200990D01*
X187643634Y-70199187D01*
X187643249Y-70199111D01*
X187631544Y-70195560D01*
X187631182Y-70195410D01*
X187620392Y-70189643D01*
X187620066Y-70189425D01*
X187606043Y-70177916D01*
X187605898Y-70177784D01*
X187597022Y-70168909D01*
X187576975Y-70155514D01*
X187554701Y-70146289D01*
X187531050Y-70141585D01*
X187506944Y-70141585D01*
X187483294Y-70146290D01*
X187461021Y-70155517D01*
X187440973Y-70168912D01*
X187432097Y-70177788D01*
X187431952Y-70177920D01*
X187417934Y-70189425D01*
X187417608Y-70189643D01*
X187406818Y-70195410D01*
X187406456Y-70195560D01*
X187394751Y-70199111D01*
X187394366Y-70199187D01*
X187376058Y-70200990D01*
X187375862Y-70201000D01*
X187319500Y-70201000D01*
X187317768Y-70200000D01*
X187317768Y-70198000D01*
X187319304Y-70197010D01*
X187343589Y-70194619D01*
X187366758Y-70187590D01*
X187388108Y-70176178D01*
X187406821Y-70160821D01*
X187422178Y-70142108D01*
X187433590Y-70120758D01*
X187440619Y-70097589D01*
X187443000Y-70073406D01*
X187443000Y-68747594D01*
X187440619Y-68723411D01*
X187433590Y-68700242D01*
X187422178Y-68678892D01*
X187406821Y-68660179D01*
X187388108Y-68644822D01*
X187366758Y-68633410D01*
X187343589Y-68626381D01*
X187319304Y-68623990D01*
X187317678Y-68622825D01*
X187317874Y-68620835D01*
X187319500Y-68620000D01*
X187375862Y-68620000D01*
X187376058Y-68620010D01*
G37*
G36*
X191926058Y-68620010D02*
G01*
X191944366Y-68621813D01*
X191944751Y-68621889D01*
X191956456Y-68625440D01*
X191956818Y-68625590D01*
X191967608Y-68631357D01*
X191967934Y-68631575D01*
X191981957Y-68643084D01*
X191982102Y-68643216D01*
X191990978Y-68652091D01*
X192011025Y-68665486D01*
X192033299Y-68674711D01*
X192056950Y-68679415D01*
X192081056Y-68679415D01*
X192104706Y-68674710D01*
X192126979Y-68665483D01*
X192147027Y-68652088D01*
X192155903Y-68643212D01*
X192156048Y-68643080D01*
X192170066Y-68631575D01*
X192170392Y-68631357D01*
X192181182Y-68625590D01*
X192181544Y-68625440D01*
X192193249Y-68621889D01*
X192193634Y-68621813D01*
X192211942Y-68620010D01*
X192212138Y-68620000D01*
X192268500Y-68620000D01*
X192270232Y-68621000D01*
X192270232Y-68623000D01*
X192268696Y-68623990D01*
X192244411Y-68626381D01*
X192221242Y-68633410D01*
X192199892Y-68644822D01*
X192181179Y-68660179D01*
X192165822Y-68678892D01*
X192154410Y-68700242D01*
X192147381Y-68723411D01*
X192145000Y-68747594D01*
X192145000Y-70073406D01*
X192147381Y-70097589D01*
X192154410Y-70120758D01*
X192165822Y-70142108D01*
X192181179Y-70160821D01*
X192199892Y-70176178D01*
X192221242Y-70187590D01*
X192244411Y-70194619D01*
X192268696Y-70197010D01*
X192270322Y-70198175D01*
X192270126Y-70200165D01*
X192268500Y-70201000D01*
X192212138Y-70201000D01*
X192211942Y-70200990D01*
X192193634Y-70199187D01*
X192193249Y-70199111D01*
X192181544Y-70195560D01*
X192181182Y-70195410D01*
X192170392Y-70189643D01*
X192170066Y-70189425D01*
X192156043Y-70177916D01*
X192155898Y-70177784D01*
X192147022Y-70168909D01*
X192126975Y-70155514D01*
X192104701Y-70146289D01*
X192081050Y-70141585D01*
X192056944Y-70141585D01*
X192033294Y-70146290D01*
X192011021Y-70155517D01*
X191990973Y-70168912D01*
X191982097Y-70177788D01*
X191981952Y-70177920D01*
X191967934Y-70189425D01*
X191967608Y-70189643D01*
X191956818Y-70195410D01*
X191956456Y-70195560D01*
X191944751Y-70199111D01*
X191944366Y-70199187D01*
X191926058Y-70200990D01*
X191925862Y-70201000D01*
X191869500Y-70201000D01*
X191867768Y-70200000D01*
X191867768Y-70198000D01*
X191869304Y-70197010D01*
X191893589Y-70194619D01*
X191916758Y-70187590D01*
X191938108Y-70176178D01*
X191956821Y-70160821D01*
X191972178Y-70142108D01*
X191983590Y-70120758D01*
X191990619Y-70097589D01*
X191993000Y-70073406D01*
X191993000Y-68747594D01*
X191990619Y-68723411D01*
X191983590Y-68700242D01*
X191972178Y-68678892D01*
X191956821Y-68660179D01*
X191938108Y-68644822D01*
X191916758Y-68633410D01*
X191893589Y-68626381D01*
X191869304Y-68623990D01*
X191867678Y-68622825D01*
X191867874Y-68620835D01*
X191869500Y-68620000D01*
X191925862Y-68620000D01*
X191926058Y-68620010D01*
G37*
G36*
X189976058Y-68620010D02*
G01*
X189994366Y-68621813D01*
X189994751Y-68621889D01*
X190006456Y-68625440D01*
X190006818Y-68625590D01*
X190017608Y-68631357D01*
X190017934Y-68631575D01*
X190031957Y-68643084D01*
X190032102Y-68643216D01*
X190040978Y-68652091D01*
X190061025Y-68665486D01*
X190083299Y-68674711D01*
X190106950Y-68679415D01*
X190131056Y-68679415D01*
X190154706Y-68674710D01*
X190176979Y-68665483D01*
X190197027Y-68652088D01*
X190205903Y-68643212D01*
X190206048Y-68643080D01*
X190220066Y-68631575D01*
X190220392Y-68631357D01*
X190231182Y-68625590D01*
X190231544Y-68625440D01*
X190243249Y-68621889D01*
X190243634Y-68621813D01*
X190261942Y-68620010D01*
X190262138Y-68620000D01*
X190318500Y-68620000D01*
X190320232Y-68621000D01*
X190320232Y-68623000D01*
X190318696Y-68623990D01*
X190294411Y-68626381D01*
X190271242Y-68633410D01*
X190249892Y-68644822D01*
X190231179Y-68660179D01*
X190215822Y-68678892D01*
X190204410Y-68700242D01*
X190197381Y-68723411D01*
X190195000Y-68747594D01*
X190195000Y-70073406D01*
X190197381Y-70097589D01*
X190204410Y-70120758D01*
X190215822Y-70142108D01*
X190231179Y-70160821D01*
X190249892Y-70176178D01*
X190271242Y-70187590D01*
X190294411Y-70194619D01*
X190318696Y-70197010D01*
X190320322Y-70198175D01*
X190320126Y-70200165D01*
X190318500Y-70201000D01*
X190262138Y-70201000D01*
X190261942Y-70200990D01*
X190243634Y-70199187D01*
X190243249Y-70199111D01*
X190231544Y-70195560D01*
X190231182Y-70195410D01*
X190220392Y-70189643D01*
X190220066Y-70189425D01*
X190206043Y-70177916D01*
X190205898Y-70177784D01*
X190197022Y-70168909D01*
X190176975Y-70155514D01*
X190154701Y-70146289D01*
X190131050Y-70141585D01*
X190106944Y-70141585D01*
X190083294Y-70146290D01*
X190061021Y-70155517D01*
X190040973Y-70168912D01*
X190032097Y-70177788D01*
X190031952Y-70177920D01*
X190017934Y-70189425D01*
X190017608Y-70189643D01*
X190006818Y-70195410D01*
X190006456Y-70195560D01*
X189994751Y-70199111D01*
X189994366Y-70199187D01*
X189976058Y-70200990D01*
X189975862Y-70201000D01*
X189919500Y-70201000D01*
X189917768Y-70200000D01*
X189917768Y-70198000D01*
X189919304Y-70197010D01*
X189943589Y-70194619D01*
X189966758Y-70187590D01*
X189988108Y-70176178D01*
X190006821Y-70160821D01*
X190022178Y-70142108D01*
X190033590Y-70120758D01*
X190040619Y-70097589D01*
X190043000Y-70073406D01*
X190043000Y-68747594D01*
X190040619Y-68723411D01*
X190033590Y-68700242D01*
X190022178Y-68678892D01*
X190006821Y-68660179D01*
X189988108Y-68644822D01*
X189966758Y-68633410D01*
X189943589Y-68626381D01*
X189919304Y-68623990D01*
X189917678Y-68622825D01*
X189917874Y-68620835D01*
X189919500Y-68620000D01*
X189975862Y-68620000D01*
X189976058Y-68620010D01*
G37*
G36*
X188026058Y-68620010D02*
G01*
X188044366Y-68621813D01*
X188044751Y-68621889D01*
X188056456Y-68625440D01*
X188056818Y-68625590D01*
X188067608Y-68631357D01*
X188067934Y-68631575D01*
X188081957Y-68643084D01*
X188082102Y-68643216D01*
X188090978Y-68652091D01*
X188111025Y-68665486D01*
X188133299Y-68674711D01*
X188156950Y-68679415D01*
X188181056Y-68679415D01*
X188204706Y-68674710D01*
X188226979Y-68665483D01*
X188247027Y-68652088D01*
X188255903Y-68643212D01*
X188256048Y-68643080D01*
X188270066Y-68631575D01*
X188270392Y-68631357D01*
X188281182Y-68625590D01*
X188281544Y-68625440D01*
X188293249Y-68621889D01*
X188293634Y-68621813D01*
X188311942Y-68620010D01*
X188312138Y-68620000D01*
X188368500Y-68620000D01*
X188370232Y-68621000D01*
X188370232Y-68623000D01*
X188368696Y-68623990D01*
X188344411Y-68626381D01*
X188321242Y-68633410D01*
X188299892Y-68644822D01*
X188281179Y-68660179D01*
X188265822Y-68678892D01*
X188254410Y-68700242D01*
X188247381Y-68723411D01*
X188245000Y-68747594D01*
X188245000Y-70073406D01*
X188247381Y-70097589D01*
X188254410Y-70120758D01*
X188265822Y-70142108D01*
X188281179Y-70160821D01*
X188299892Y-70176178D01*
X188321242Y-70187590D01*
X188344411Y-70194619D01*
X188368696Y-70197010D01*
X188370322Y-70198175D01*
X188370126Y-70200165D01*
X188368500Y-70201000D01*
X188312138Y-70201000D01*
X188311942Y-70200990D01*
X188293634Y-70199187D01*
X188293249Y-70199111D01*
X188281544Y-70195560D01*
X188281182Y-70195410D01*
X188270392Y-70189643D01*
X188270066Y-70189425D01*
X188256043Y-70177916D01*
X188255898Y-70177784D01*
X188247022Y-70168909D01*
X188226975Y-70155514D01*
X188204701Y-70146289D01*
X188181050Y-70141585D01*
X188156944Y-70141585D01*
X188133294Y-70146290D01*
X188111021Y-70155517D01*
X188090973Y-70168912D01*
X188082097Y-70177788D01*
X188081952Y-70177920D01*
X188067934Y-70189425D01*
X188067608Y-70189643D01*
X188056818Y-70195410D01*
X188056456Y-70195560D01*
X188044751Y-70199111D01*
X188044366Y-70199187D01*
X188026058Y-70200990D01*
X188025862Y-70201000D01*
X187969500Y-70201000D01*
X187967768Y-70200000D01*
X187967768Y-70198000D01*
X187969304Y-70197010D01*
X187993589Y-70194619D01*
X188016758Y-70187590D01*
X188038108Y-70176178D01*
X188056821Y-70160821D01*
X188072178Y-70142108D01*
X188083590Y-70120758D01*
X188090619Y-70097589D01*
X188093000Y-70073406D01*
X188093000Y-68747594D01*
X188090619Y-68723411D01*
X188083590Y-68700242D01*
X188072178Y-68678892D01*
X188056821Y-68660179D01*
X188038108Y-68644822D01*
X188016758Y-68633410D01*
X187993589Y-68626381D01*
X187969304Y-68623990D01*
X187967678Y-68622825D01*
X187967874Y-68620835D01*
X187969500Y-68620000D01*
X188025862Y-68620000D01*
X188026058Y-68620010D01*
G37*
G36*
X188676058Y-68620010D02*
G01*
X188694366Y-68621813D01*
X188694751Y-68621889D01*
X188706456Y-68625440D01*
X188706818Y-68625590D01*
X188717608Y-68631357D01*
X188717934Y-68631575D01*
X188731957Y-68643084D01*
X188732102Y-68643216D01*
X188740978Y-68652091D01*
X188761025Y-68665486D01*
X188783299Y-68674711D01*
X188806950Y-68679415D01*
X188831056Y-68679415D01*
X188854706Y-68674710D01*
X188876979Y-68665483D01*
X188897027Y-68652088D01*
X188905903Y-68643212D01*
X188906048Y-68643080D01*
X188920066Y-68631575D01*
X188920392Y-68631357D01*
X188931182Y-68625590D01*
X188931544Y-68625440D01*
X188943249Y-68621889D01*
X188943634Y-68621813D01*
X188961942Y-68620010D01*
X188962138Y-68620000D01*
X189018500Y-68620000D01*
X189020232Y-68621000D01*
X189020232Y-68623000D01*
X189018696Y-68623990D01*
X188994411Y-68626381D01*
X188971242Y-68633410D01*
X188949892Y-68644822D01*
X188931179Y-68660179D01*
X188915822Y-68678892D01*
X188904410Y-68700242D01*
X188897381Y-68723411D01*
X188895000Y-68747594D01*
X188895000Y-70073406D01*
X188897381Y-70097589D01*
X188904410Y-70120758D01*
X188915822Y-70142108D01*
X188931179Y-70160821D01*
X188949892Y-70176178D01*
X188971242Y-70187590D01*
X188994411Y-70194619D01*
X189018696Y-70197010D01*
X189020322Y-70198175D01*
X189020126Y-70200165D01*
X189018500Y-70201000D01*
X188962138Y-70201000D01*
X188961942Y-70200990D01*
X188943634Y-70199187D01*
X188943249Y-70199111D01*
X188931544Y-70195560D01*
X188931182Y-70195410D01*
X188920392Y-70189643D01*
X188920066Y-70189425D01*
X188906043Y-70177916D01*
X188905898Y-70177784D01*
X188897022Y-70168909D01*
X188876975Y-70155514D01*
X188854701Y-70146289D01*
X188831050Y-70141585D01*
X188806944Y-70141585D01*
X188783294Y-70146290D01*
X188761021Y-70155517D01*
X188740973Y-70168912D01*
X188732097Y-70177788D01*
X188731952Y-70177920D01*
X188717934Y-70189425D01*
X188717608Y-70189643D01*
X188706818Y-70195410D01*
X188706456Y-70195560D01*
X188694751Y-70199111D01*
X188694366Y-70199187D01*
X188676058Y-70200990D01*
X188675862Y-70201000D01*
X188619500Y-70201000D01*
X188617768Y-70200000D01*
X188617768Y-70198000D01*
X188619304Y-70197010D01*
X188643589Y-70194619D01*
X188666758Y-70187590D01*
X188688108Y-70176178D01*
X188706821Y-70160821D01*
X188722178Y-70142108D01*
X188733590Y-70120758D01*
X188740619Y-70097589D01*
X188743000Y-70073406D01*
X188743000Y-68747594D01*
X188740619Y-68723411D01*
X188733590Y-68700242D01*
X188722178Y-68678892D01*
X188706821Y-68660179D01*
X188688108Y-68644822D01*
X188666758Y-68633410D01*
X188643589Y-68626381D01*
X188619304Y-68623990D01*
X188617678Y-68622825D01*
X188617874Y-68620835D01*
X188619500Y-68620000D01*
X188675862Y-68620000D01*
X188676058Y-68620010D01*
G37*
G36*
X191276058Y-68620010D02*
G01*
X191294366Y-68621813D01*
X191294751Y-68621889D01*
X191306456Y-68625440D01*
X191306818Y-68625590D01*
X191317608Y-68631357D01*
X191317934Y-68631575D01*
X191331957Y-68643084D01*
X191332102Y-68643216D01*
X191340978Y-68652091D01*
X191361025Y-68665486D01*
X191383299Y-68674711D01*
X191406950Y-68679415D01*
X191431056Y-68679415D01*
X191454706Y-68674710D01*
X191476979Y-68665483D01*
X191497027Y-68652088D01*
X191505903Y-68643212D01*
X191506048Y-68643080D01*
X191520066Y-68631575D01*
X191520392Y-68631357D01*
X191531182Y-68625590D01*
X191531544Y-68625440D01*
X191543249Y-68621889D01*
X191543634Y-68621813D01*
X191561942Y-68620010D01*
X191562138Y-68620000D01*
X191618500Y-68620000D01*
X191620232Y-68621000D01*
X191620232Y-68623000D01*
X191618696Y-68623990D01*
X191594411Y-68626381D01*
X191571242Y-68633410D01*
X191549892Y-68644822D01*
X191531179Y-68660179D01*
X191515822Y-68678892D01*
X191504410Y-68700242D01*
X191497381Y-68723411D01*
X191495000Y-68747594D01*
X191495000Y-70073406D01*
X191497381Y-70097589D01*
X191504410Y-70120758D01*
X191515822Y-70142108D01*
X191531179Y-70160821D01*
X191549892Y-70176178D01*
X191571242Y-70187590D01*
X191594411Y-70194619D01*
X191618696Y-70197010D01*
X191620322Y-70198175D01*
X191620126Y-70200165D01*
X191618500Y-70201000D01*
X191562138Y-70201000D01*
X191561942Y-70200990D01*
X191543634Y-70199187D01*
X191543249Y-70199111D01*
X191531544Y-70195560D01*
X191531182Y-70195410D01*
X191520392Y-70189643D01*
X191520066Y-70189425D01*
X191506043Y-70177916D01*
X191505898Y-70177784D01*
X191497022Y-70168909D01*
X191476975Y-70155514D01*
X191454701Y-70146289D01*
X191431050Y-70141585D01*
X191406944Y-70141585D01*
X191383294Y-70146290D01*
X191361021Y-70155517D01*
X191340973Y-70168912D01*
X191332097Y-70177788D01*
X191331952Y-70177920D01*
X191317934Y-70189425D01*
X191317608Y-70189643D01*
X191306818Y-70195410D01*
X191306456Y-70195560D01*
X191294751Y-70199111D01*
X191294366Y-70199187D01*
X191276058Y-70200990D01*
X191275862Y-70201000D01*
X191219500Y-70201000D01*
X191217768Y-70200000D01*
X191217768Y-70198000D01*
X191219304Y-70197010D01*
X191243589Y-70194619D01*
X191266758Y-70187590D01*
X191288108Y-70176178D01*
X191306821Y-70160821D01*
X191322178Y-70142108D01*
X191333590Y-70120758D01*
X191340619Y-70097589D01*
X191343000Y-70073406D01*
X191343000Y-68747594D01*
X191340619Y-68723411D01*
X191333590Y-68700242D01*
X191322178Y-68678892D01*
X191306821Y-68660179D01*
X191288108Y-68644822D01*
X191266758Y-68633410D01*
X191243589Y-68626381D01*
X191219304Y-68623990D01*
X191217678Y-68622825D01*
X191217874Y-68620835D01*
X191219500Y-68620000D01*
X191275862Y-68620000D01*
X191276058Y-68620010D01*
G37*
G36*
X192576058Y-68620010D02*
G01*
X192594366Y-68621813D01*
X192594751Y-68621889D01*
X192606456Y-68625440D01*
X192606818Y-68625590D01*
X192617608Y-68631357D01*
X192617934Y-68631575D01*
X192631957Y-68643084D01*
X192632102Y-68643216D01*
X192640978Y-68652091D01*
X192661025Y-68665486D01*
X192683299Y-68674711D01*
X192706950Y-68679415D01*
X192731056Y-68679415D01*
X192754706Y-68674710D01*
X192776979Y-68665483D01*
X192797027Y-68652088D01*
X192805903Y-68643212D01*
X192806048Y-68643080D01*
X192820066Y-68631575D01*
X192820392Y-68631357D01*
X192831182Y-68625590D01*
X192831544Y-68625440D01*
X192843249Y-68621889D01*
X192843634Y-68621813D01*
X192861942Y-68620010D01*
X192862138Y-68620000D01*
X192918500Y-68620000D01*
X192920232Y-68621000D01*
X192920232Y-68623000D01*
X192918696Y-68623990D01*
X192894411Y-68626381D01*
X192871242Y-68633410D01*
X192849892Y-68644822D01*
X192831179Y-68660179D01*
X192815822Y-68678892D01*
X192804410Y-68700242D01*
X192797381Y-68723411D01*
X192795000Y-68747594D01*
X192795000Y-70073406D01*
X192797381Y-70097589D01*
X192804410Y-70120758D01*
X192815822Y-70142108D01*
X192831179Y-70160821D01*
X192849892Y-70176178D01*
X192871242Y-70187590D01*
X192894411Y-70194619D01*
X192918696Y-70197010D01*
X192920322Y-70198175D01*
X192920126Y-70200165D01*
X192918500Y-70201000D01*
X192862138Y-70201000D01*
X192861942Y-70200990D01*
X192843634Y-70199187D01*
X192843249Y-70199111D01*
X192831544Y-70195560D01*
X192831182Y-70195410D01*
X192820392Y-70189643D01*
X192820066Y-70189425D01*
X192806043Y-70177916D01*
X192805898Y-70177784D01*
X192797022Y-70168909D01*
X192776975Y-70155514D01*
X192754701Y-70146289D01*
X192731050Y-70141585D01*
X192706944Y-70141585D01*
X192683294Y-70146290D01*
X192661021Y-70155517D01*
X192640973Y-70168912D01*
X192632097Y-70177788D01*
X192631952Y-70177920D01*
X192617934Y-70189425D01*
X192617608Y-70189643D01*
X192606818Y-70195410D01*
X192606456Y-70195560D01*
X192594751Y-70199111D01*
X192594366Y-70199187D01*
X192576058Y-70200990D01*
X192575862Y-70201000D01*
X192519500Y-70201000D01*
X192517768Y-70200000D01*
X192517768Y-70198000D01*
X192519304Y-70197010D01*
X192543589Y-70194619D01*
X192566758Y-70187590D01*
X192588108Y-70176178D01*
X192606821Y-70160821D01*
X192622178Y-70142108D01*
X192633590Y-70120758D01*
X192640619Y-70097589D01*
X192643000Y-70073406D01*
X192643000Y-68747594D01*
X192640619Y-68723411D01*
X192633590Y-68700242D01*
X192622178Y-68678892D01*
X192606821Y-68660179D01*
X192588108Y-68644822D01*
X192566758Y-68633410D01*
X192543589Y-68626381D01*
X192519304Y-68623990D01*
X192517678Y-68622825D01*
X192517874Y-68620835D01*
X192519500Y-68620000D01*
X192575862Y-68620000D01*
X192576058Y-68620010D01*
G37*
G36*
X189326058Y-68620010D02*
G01*
X189344366Y-68621813D01*
X189344751Y-68621889D01*
X189356456Y-68625440D01*
X189356818Y-68625590D01*
X189367608Y-68631357D01*
X189367934Y-68631575D01*
X189381957Y-68643084D01*
X189382102Y-68643216D01*
X189390978Y-68652091D01*
X189411025Y-68665486D01*
X189433299Y-68674711D01*
X189456950Y-68679415D01*
X189481056Y-68679415D01*
X189504706Y-68674710D01*
X189526979Y-68665483D01*
X189547027Y-68652088D01*
X189555903Y-68643212D01*
X189556048Y-68643080D01*
X189570066Y-68631575D01*
X189570392Y-68631357D01*
X189581182Y-68625590D01*
X189581544Y-68625440D01*
X189593249Y-68621889D01*
X189593634Y-68621813D01*
X189611942Y-68620010D01*
X189612138Y-68620000D01*
X189668500Y-68620000D01*
X189670232Y-68621000D01*
X189670232Y-68623000D01*
X189668696Y-68623990D01*
X189644411Y-68626381D01*
X189621242Y-68633410D01*
X189599892Y-68644822D01*
X189581179Y-68660179D01*
X189565822Y-68678892D01*
X189554410Y-68700242D01*
X189547381Y-68723411D01*
X189545000Y-68747594D01*
X189545000Y-70073406D01*
X189547381Y-70097589D01*
X189554410Y-70120758D01*
X189565822Y-70142108D01*
X189581179Y-70160821D01*
X189599892Y-70176178D01*
X189621242Y-70187590D01*
X189644411Y-70194619D01*
X189668696Y-70197010D01*
X189670322Y-70198175D01*
X189670126Y-70200165D01*
X189668500Y-70201000D01*
X189612138Y-70201000D01*
X189611942Y-70200990D01*
X189593634Y-70199187D01*
X189593249Y-70199111D01*
X189581544Y-70195560D01*
X189581182Y-70195410D01*
X189570392Y-70189643D01*
X189570066Y-70189425D01*
X189556043Y-70177916D01*
X189555898Y-70177784D01*
X189547022Y-70168909D01*
X189526975Y-70155514D01*
X189504701Y-70146289D01*
X189481050Y-70141585D01*
X189456944Y-70141585D01*
X189433294Y-70146290D01*
X189411021Y-70155517D01*
X189390973Y-70168912D01*
X189382097Y-70177788D01*
X189381952Y-70177920D01*
X189367934Y-70189425D01*
X189367608Y-70189643D01*
X189356818Y-70195410D01*
X189356456Y-70195560D01*
X189344751Y-70199111D01*
X189344366Y-70199187D01*
X189326058Y-70200990D01*
X189325862Y-70201000D01*
X189269500Y-70201000D01*
X189267768Y-70200000D01*
X189267768Y-70198000D01*
X189269304Y-70197010D01*
X189293589Y-70194619D01*
X189316758Y-70187590D01*
X189338108Y-70176178D01*
X189356821Y-70160821D01*
X189372178Y-70142108D01*
X189383590Y-70120758D01*
X189390619Y-70097589D01*
X189393000Y-70073406D01*
X189393000Y-68747594D01*
X189390619Y-68723411D01*
X189383590Y-68700242D01*
X189372178Y-68678892D01*
X189356821Y-68660179D01*
X189338108Y-68644822D01*
X189316758Y-68633410D01*
X189293589Y-68626381D01*
X189269304Y-68623990D01*
X189267678Y-68622825D01*
X189267874Y-68620835D01*
X189269500Y-68620000D01*
X189325862Y-68620000D01*
X189326058Y-68620010D01*
G37*
G36*
X169763590Y-65594304D02*
G01*
X169768662Y-65645804D01*
X169783629Y-65695142D01*
X169807932Y-65740610D01*
X169840638Y-65780462D01*
X169880490Y-65813168D01*
X169925958Y-65837471D01*
X169975296Y-65852438D01*
X170026796Y-65857510D01*
X170028422Y-65858675D01*
X170028226Y-65860665D01*
X170026600Y-65861500D01*
X169944503Y-65861500D01*
X169944307Y-65861490D01*
X169903804Y-65857501D01*
X169903419Y-65857425D01*
X169870367Y-65847399D01*
X169870005Y-65847249D01*
X169839554Y-65830972D01*
X169839228Y-65830754D01*
X169812532Y-65808845D01*
X169812255Y-65808568D01*
X169790346Y-65781872D01*
X169790128Y-65781546D01*
X169773851Y-65751095D01*
X169773701Y-65750733D01*
X169763675Y-65717681D01*
X169763599Y-65717296D01*
X169759610Y-65676793D01*
X169759600Y-65676597D01*
X169759600Y-65594500D01*
X169760600Y-65592768D01*
X169762600Y-65592768D01*
X169763590Y-65594304D01*
G37*
G36*
X171564765Y-65592874D02*
G01*
X171565600Y-65594500D01*
X171565600Y-65676597D01*
X171565590Y-65676793D01*
X171561601Y-65717296D01*
X171561525Y-65717681D01*
X171551499Y-65750733D01*
X171551349Y-65751095D01*
X171535072Y-65781546D01*
X171534854Y-65781872D01*
X171512945Y-65808568D01*
X171512668Y-65808845D01*
X171485972Y-65830754D01*
X171485646Y-65830972D01*
X171455195Y-65847249D01*
X171454833Y-65847399D01*
X171421781Y-65857425D01*
X171421396Y-65857501D01*
X171380893Y-65861490D01*
X171380697Y-65861500D01*
X171298600Y-65861500D01*
X171296868Y-65860500D01*
X171296868Y-65858500D01*
X171298404Y-65857510D01*
X171349904Y-65852438D01*
X171399242Y-65837471D01*
X171444710Y-65813168D01*
X171484562Y-65780462D01*
X171517268Y-65740610D01*
X171541571Y-65695142D01*
X171556538Y-65645804D01*
X171561610Y-65594304D01*
X171562775Y-65592678D01*
X171564765Y-65592874D01*
G37*
G36*
X115098165Y-64642374D02*
G01*
X115099000Y-64644000D01*
X115099000Y-64726097D01*
X115098990Y-64726293D01*
X115095001Y-64766796D01*
X115094925Y-64767181D01*
X115084899Y-64800233D01*
X115084749Y-64800595D01*
X115068472Y-64831046D01*
X115068254Y-64831372D01*
X115046345Y-64858068D01*
X115046068Y-64858345D01*
X115019372Y-64880254D01*
X115019046Y-64880472D01*
X114988595Y-64896749D01*
X114988233Y-64896899D01*
X114955181Y-64906925D01*
X114954796Y-64907001D01*
X114914293Y-64910990D01*
X114914097Y-64911000D01*
X114832000Y-64911000D01*
X114830268Y-64910000D01*
X114830268Y-64908000D01*
X114831804Y-64907010D01*
X114883304Y-64901938D01*
X114932642Y-64886971D01*
X114978110Y-64862668D01*
X115017962Y-64829962D01*
X115050668Y-64790110D01*
X115074971Y-64744642D01*
X115089938Y-64695304D01*
X115095010Y-64643804D01*
X115096175Y-64642178D01*
X115098165Y-64642374D01*
G37*
G36*
X121702165Y-64642374D02*
G01*
X121703000Y-64644000D01*
X121703000Y-64726097D01*
X121702990Y-64726293D01*
X121699001Y-64766796D01*
X121698925Y-64767181D01*
X121688899Y-64800233D01*
X121688749Y-64800595D01*
X121672472Y-64831046D01*
X121672254Y-64831372D01*
X121650345Y-64858068D01*
X121650068Y-64858345D01*
X121623372Y-64880254D01*
X121623046Y-64880472D01*
X121592595Y-64896749D01*
X121592233Y-64896899D01*
X121559181Y-64906925D01*
X121558796Y-64907001D01*
X121518293Y-64910990D01*
X121518097Y-64911000D01*
X121436000Y-64911000D01*
X121434268Y-64910000D01*
X121434268Y-64908000D01*
X121435804Y-64907010D01*
X121487304Y-64901938D01*
X121536642Y-64886971D01*
X121582110Y-64862668D01*
X121621962Y-64829962D01*
X121654668Y-64790110D01*
X121678971Y-64744642D01*
X121693938Y-64695304D01*
X121699010Y-64643804D01*
X121700175Y-64642178D01*
X121702165Y-64642374D01*
G37*
G36*
X112996990Y-64643804D02*
G01*
X113002062Y-64695304D01*
X113017029Y-64744642D01*
X113041332Y-64790110D01*
X113074038Y-64829962D01*
X113113890Y-64862668D01*
X113159358Y-64886971D01*
X113208696Y-64901938D01*
X113260196Y-64907010D01*
X113261822Y-64908175D01*
X113261626Y-64910165D01*
X113260000Y-64911000D01*
X113177903Y-64911000D01*
X113177707Y-64910990D01*
X113137204Y-64907001D01*
X113136819Y-64906925D01*
X113103767Y-64896899D01*
X113103405Y-64896749D01*
X113072954Y-64880472D01*
X113072628Y-64880254D01*
X113045932Y-64858345D01*
X113045655Y-64858068D01*
X113023746Y-64831372D01*
X113023528Y-64831046D01*
X113007251Y-64800595D01*
X113007101Y-64800233D01*
X112997075Y-64767181D01*
X112996999Y-64766796D01*
X112993010Y-64726293D01*
X112993000Y-64726097D01*
X112993000Y-64644000D01*
X112994000Y-64642268D01*
X112996000Y-64642268D01*
X112996990Y-64643804D01*
G37*
G36*
X119600990Y-64643804D02*
G01*
X119606062Y-64695304D01*
X119621029Y-64744642D01*
X119645332Y-64790110D01*
X119678038Y-64829962D01*
X119717890Y-64862668D01*
X119763358Y-64886971D01*
X119812696Y-64901938D01*
X119864196Y-64907010D01*
X119865822Y-64908175D01*
X119865626Y-64910165D01*
X119864000Y-64911000D01*
X119781903Y-64911000D01*
X119781707Y-64910990D01*
X119741204Y-64907001D01*
X119740819Y-64906925D01*
X119707767Y-64896899D01*
X119707405Y-64896749D01*
X119676954Y-64880472D01*
X119676628Y-64880254D01*
X119649932Y-64858345D01*
X119649655Y-64858068D01*
X119627746Y-64831372D01*
X119627528Y-64831046D01*
X119611251Y-64800595D01*
X119611101Y-64800233D01*
X119601075Y-64767181D01*
X119600999Y-64766796D01*
X119597010Y-64726293D01*
X119597000Y-64726097D01*
X119597000Y-64644000D01*
X119598000Y-64642268D01*
X119600000Y-64642268D01*
X119600990Y-64643804D01*
G37*
G36*
X188026058Y-62895010D02*
G01*
X188044366Y-62896813D01*
X188044751Y-62896889D01*
X188056456Y-62900440D01*
X188056818Y-62900590D01*
X188067608Y-62906357D01*
X188067934Y-62906575D01*
X188081957Y-62918084D01*
X188082102Y-62918216D01*
X188090978Y-62927091D01*
X188111025Y-62940486D01*
X188133299Y-62949711D01*
X188156950Y-62954415D01*
X188181056Y-62954415D01*
X188204706Y-62949710D01*
X188226979Y-62940483D01*
X188247027Y-62927088D01*
X188255903Y-62918212D01*
X188256048Y-62918080D01*
X188270066Y-62906575D01*
X188270392Y-62906357D01*
X188281182Y-62900590D01*
X188281544Y-62900440D01*
X188293249Y-62896889D01*
X188293634Y-62896813D01*
X188311942Y-62895010D01*
X188312138Y-62895000D01*
X188368500Y-62895000D01*
X188370232Y-62896000D01*
X188370232Y-62898000D01*
X188368696Y-62898990D01*
X188344411Y-62901381D01*
X188321242Y-62908410D01*
X188299892Y-62919822D01*
X188281179Y-62935179D01*
X188265822Y-62953892D01*
X188254410Y-62975242D01*
X188247381Y-62998411D01*
X188245000Y-63022594D01*
X188245000Y-64348406D01*
X188247381Y-64372589D01*
X188254410Y-64395758D01*
X188265822Y-64417108D01*
X188281179Y-64435821D01*
X188299892Y-64451178D01*
X188321242Y-64462590D01*
X188344411Y-64469619D01*
X188368696Y-64472010D01*
X188370322Y-64473175D01*
X188370126Y-64475165D01*
X188368500Y-64476000D01*
X188312138Y-64476000D01*
X188311942Y-64475990D01*
X188293634Y-64474187D01*
X188293249Y-64474111D01*
X188281544Y-64470560D01*
X188281182Y-64470410D01*
X188270392Y-64464643D01*
X188270066Y-64464425D01*
X188256043Y-64452916D01*
X188255898Y-64452784D01*
X188247022Y-64443909D01*
X188226975Y-64430514D01*
X188204701Y-64421289D01*
X188181050Y-64416585D01*
X188156944Y-64416585D01*
X188133294Y-64421290D01*
X188111021Y-64430517D01*
X188090973Y-64443912D01*
X188082097Y-64452788D01*
X188081952Y-64452920D01*
X188067934Y-64464425D01*
X188067608Y-64464643D01*
X188056818Y-64470410D01*
X188056456Y-64470560D01*
X188044751Y-64474111D01*
X188044366Y-64474187D01*
X188026058Y-64475990D01*
X188025862Y-64476000D01*
X187969500Y-64476000D01*
X187967768Y-64475000D01*
X187967768Y-64473000D01*
X187969304Y-64472010D01*
X187993589Y-64469619D01*
X188016758Y-64462590D01*
X188038108Y-64451178D01*
X188056821Y-64435821D01*
X188072178Y-64417108D01*
X188083590Y-64395758D01*
X188090619Y-64372589D01*
X188093000Y-64348406D01*
X188093000Y-63022594D01*
X188090619Y-62998411D01*
X188083590Y-62975242D01*
X188072178Y-62953892D01*
X188056821Y-62935179D01*
X188038108Y-62919822D01*
X188016758Y-62908410D01*
X187993589Y-62901381D01*
X187969304Y-62898990D01*
X187967678Y-62897825D01*
X187967874Y-62895835D01*
X187969500Y-62895000D01*
X188025862Y-62895000D01*
X188026058Y-62895010D01*
G37*
G36*
X192576058Y-62895010D02*
G01*
X192594366Y-62896813D01*
X192594751Y-62896889D01*
X192606456Y-62900440D01*
X192606818Y-62900590D01*
X192617608Y-62906357D01*
X192617934Y-62906575D01*
X192631957Y-62918084D01*
X192632102Y-62918216D01*
X192640978Y-62927091D01*
X192661025Y-62940486D01*
X192683299Y-62949711D01*
X192706950Y-62954415D01*
X192731056Y-62954415D01*
X192754706Y-62949710D01*
X192776979Y-62940483D01*
X192797027Y-62927088D01*
X192805903Y-62918212D01*
X192806048Y-62918080D01*
X192820066Y-62906575D01*
X192820392Y-62906357D01*
X192831182Y-62900590D01*
X192831544Y-62900440D01*
X192843249Y-62896889D01*
X192843634Y-62896813D01*
X192861942Y-62895010D01*
X192862138Y-62895000D01*
X192918500Y-62895000D01*
X192920232Y-62896000D01*
X192920232Y-62898000D01*
X192918696Y-62898990D01*
X192894411Y-62901381D01*
X192871242Y-62908410D01*
X192849892Y-62919822D01*
X192831179Y-62935179D01*
X192815822Y-62953892D01*
X192804410Y-62975242D01*
X192797381Y-62998411D01*
X192795000Y-63022594D01*
X192795000Y-64348406D01*
X192797381Y-64372589D01*
X192804410Y-64395758D01*
X192815822Y-64417108D01*
X192831179Y-64435821D01*
X192849892Y-64451178D01*
X192871242Y-64462590D01*
X192894411Y-64469619D01*
X192918696Y-64472010D01*
X192920322Y-64473175D01*
X192920126Y-64475165D01*
X192918500Y-64476000D01*
X192862138Y-64476000D01*
X192861942Y-64475990D01*
X192843634Y-64474187D01*
X192843249Y-64474111D01*
X192831544Y-64470560D01*
X192831182Y-64470410D01*
X192820392Y-64464643D01*
X192820066Y-64464425D01*
X192806043Y-64452916D01*
X192805898Y-64452784D01*
X192797022Y-64443909D01*
X192776975Y-64430514D01*
X192754701Y-64421289D01*
X192731050Y-64416585D01*
X192706944Y-64416585D01*
X192683294Y-64421290D01*
X192661021Y-64430517D01*
X192640973Y-64443912D01*
X192632097Y-64452788D01*
X192631952Y-64452920D01*
X192617934Y-64464425D01*
X192617608Y-64464643D01*
X192606818Y-64470410D01*
X192606456Y-64470560D01*
X192594751Y-64474111D01*
X192594366Y-64474187D01*
X192576058Y-64475990D01*
X192575862Y-64476000D01*
X192519500Y-64476000D01*
X192517768Y-64475000D01*
X192517768Y-64473000D01*
X192519304Y-64472010D01*
X192543589Y-64469619D01*
X192566758Y-64462590D01*
X192588108Y-64451178D01*
X192606821Y-64435821D01*
X192622178Y-64417108D01*
X192633590Y-64395758D01*
X192640619Y-64372589D01*
X192643000Y-64348406D01*
X192643000Y-63022594D01*
X192640619Y-62998411D01*
X192633590Y-62975242D01*
X192622178Y-62953892D01*
X192606821Y-62935179D01*
X192588108Y-62919822D01*
X192566758Y-62908410D01*
X192543589Y-62901381D01*
X192519304Y-62898990D01*
X192517678Y-62897825D01*
X192517874Y-62895835D01*
X192519500Y-62895000D01*
X192575862Y-62895000D01*
X192576058Y-62895010D01*
G37*
G36*
X189326058Y-62895010D02*
G01*
X189344366Y-62896813D01*
X189344751Y-62896889D01*
X189356456Y-62900440D01*
X189356818Y-62900590D01*
X189367608Y-62906357D01*
X189367934Y-62906575D01*
X189381957Y-62918084D01*
X189382102Y-62918216D01*
X189390978Y-62927091D01*
X189411025Y-62940486D01*
X189433299Y-62949711D01*
X189456950Y-62954415D01*
X189481056Y-62954415D01*
X189504706Y-62949710D01*
X189526979Y-62940483D01*
X189547027Y-62927088D01*
X189555903Y-62918212D01*
X189556048Y-62918080D01*
X189570066Y-62906575D01*
X189570392Y-62906357D01*
X189581182Y-62900590D01*
X189581544Y-62900440D01*
X189593249Y-62896889D01*
X189593634Y-62896813D01*
X189611942Y-62895010D01*
X189612138Y-62895000D01*
X189668500Y-62895000D01*
X189670232Y-62896000D01*
X189670232Y-62898000D01*
X189668696Y-62898990D01*
X189644411Y-62901381D01*
X189621242Y-62908410D01*
X189599892Y-62919822D01*
X189581179Y-62935179D01*
X189565822Y-62953892D01*
X189554410Y-62975242D01*
X189547381Y-62998411D01*
X189545000Y-63022594D01*
X189545000Y-64348406D01*
X189547381Y-64372589D01*
X189554410Y-64395758D01*
X189565822Y-64417108D01*
X189581179Y-64435821D01*
X189599892Y-64451178D01*
X189621242Y-64462590D01*
X189644411Y-64469619D01*
X189668696Y-64472010D01*
X189670322Y-64473175D01*
X189670126Y-64475165D01*
X189668500Y-64476000D01*
X189612138Y-64476000D01*
X189611942Y-64475990D01*
X189593634Y-64474187D01*
X189593249Y-64474111D01*
X189581544Y-64470560D01*
X189581182Y-64470410D01*
X189570392Y-64464643D01*
X189570066Y-64464425D01*
X189556043Y-64452916D01*
X189555898Y-64452784D01*
X189547022Y-64443909D01*
X189526975Y-64430514D01*
X189504701Y-64421289D01*
X189481050Y-64416585D01*
X189456944Y-64416585D01*
X189433294Y-64421290D01*
X189411021Y-64430517D01*
X189390973Y-64443912D01*
X189382097Y-64452788D01*
X189381952Y-64452920D01*
X189367934Y-64464425D01*
X189367608Y-64464643D01*
X189356818Y-64470410D01*
X189356456Y-64470560D01*
X189344751Y-64474111D01*
X189344366Y-64474187D01*
X189326058Y-64475990D01*
X189325862Y-64476000D01*
X189269500Y-64476000D01*
X189267768Y-64475000D01*
X189267768Y-64473000D01*
X189269304Y-64472010D01*
X189293589Y-64469619D01*
X189316758Y-64462590D01*
X189338108Y-64451178D01*
X189356821Y-64435821D01*
X189372178Y-64417108D01*
X189383590Y-64395758D01*
X189390619Y-64372589D01*
X189393000Y-64348406D01*
X189393000Y-63022594D01*
X189390619Y-62998411D01*
X189383590Y-62975242D01*
X189372178Y-62953892D01*
X189356821Y-62935179D01*
X189338108Y-62919822D01*
X189316758Y-62908410D01*
X189293589Y-62901381D01*
X189269304Y-62898990D01*
X189267678Y-62897825D01*
X189267874Y-62895835D01*
X189269500Y-62895000D01*
X189325862Y-62895000D01*
X189326058Y-62895010D01*
G37*
G36*
X187376058Y-62895010D02*
G01*
X187394366Y-62896813D01*
X187394751Y-62896889D01*
X187406456Y-62900440D01*
X187406818Y-62900590D01*
X187417608Y-62906357D01*
X187417934Y-62906575D01*
X187431957Y-62918084D01*
X187432102Y-62918216D01*
X187440978Y-62927091D01*
X187461025Y-62940486D01*
X187483299Y-62949711D01*
X187506950Y-62954415D01*
X187531056Y-62954415D01*
X187554706Y-62949710D01*
X187576979Y-62940483D01*
X187597027Y-62927088D01*
X187605903Y-62918212D01*
X187606048Y-62918080D01*
X187620066Y-62906575D01*
X187620392Y-62906357D01*
X187631182Y-62900590D01*
X187631544Y-62900440D01*
X187643249Y-62896889D01*
X187643634Y-62896813D01*
X187661942Y-62895010D01*
X187662138Y-62895000D01*
X187718500Y-62895000D01*
X187720232Y-62896000D01*
X187720232Y-62898000D01*
X187718696Y-62898990D01*
X187694411Y-62901381D01*
X187671242Y-62908410D01*
X187649892Y-62919822D01*
X187631179Y-62935179D01*
X187615822Y-62953892D01*
X187604410Y-62975242D01*
X187597381Y-62998411D01*
X187595000Y-63022594D01*
X187595000Y-64348406D01*
X187597381Y-64372589D01*
X187604410Y-64395758D01*
X187615822Y-64417108D01*
X187631179Y-64435821D01*
X187649892Y-64451178D01*
X187671242Y-64462590D01*
X187694411Y-64469619D01*
X187718696Y-64472010D01*
X187720322Y-64473175D01*
X187720126Y-64475165D01*
X187718500Y-64476000D01*
X187662138Y-64476000D01*
X187661942Y-64475990D01*
X187643634Y-64474187D01*
X187643249Y-64474111D01*
X187631544Y-64470560D01*
X187631182Y-64470410D01*
X187620392Y-64464643D01*
X187620066Y-64464425D01*
X187606043Y-64452916D01*
X187605898Y-64452784D01*
X187597022Y-64443909D01*
X187576975Y-64430514D01*
X187554701Y-64421289D01*
X187531050Y-64416585D01*
X187506944Y-64416585D01*
X187483294Y-64421290D01*
X187461021Y-64430517D01*
X187440973Y-64443912D01*
X187432097Y-64452788D01*
X187431952Y-64452920D01*
X187417934Y-64464425D01*
X187417608Y-64464643D01*
X187406818Y-64470410D01*
X187406456Y-64470560D01*
X187394751Y-64474111D01*
X187394366Y-64474187D01*
X187376058Y-64475990D01*
X187375862Y-64476000D01*
X187319500Y-64476000D01*
X187317768Y-64475000D01*
X187317768Y-64473000D01*
X187319304Y-64472010D01*
X187343589Y-64469619D01*
X187366758Y-64462590D01*
X187388108Y-64451178D01*
X187406821Y-64435821D01*
X187422178Y-64417108D01*
X187433590Y-64395758D01*
X187440619Y-64372589D01*
X187443000Y-64348406D01*
X187443000Y-63022594D01*
X187440619Y-62998411D01*
X187433590Y-62975242D01*
X187422178Y-62953892D01*
X187406821Y-62935179D01*
X187388108Y-62919822D01*
X187366758Y-62908410D01*
X187343589Y-62901381D01*
X187319304Y-62898990D01*
X187317678Y-62897825D01*
X187317874Y-62895835D01*
X187319500Y-62895000D01*
X187375862Y-62895000D01*
X187376058Y-62895010D01*
G37*
G36*
X191926058Y-62895010D02*
G01*
X191944366Y-62896813D01*
X191944751Y-62896889D01*
X191956456Y-62900440D01*
X191956818Y-62900590D01*
X191967608Y-62906357D01*
X191967934Y-62906575D01*
X191981957Y-62918084D01*
X191982102Y-62918216D01*
X191990978Y-62927091D01*
X192011025Y-62940486D01*
X192033299Y-62949711D01*
X192056950Y-62954415D01*
X192081056Y-62954415D01*
X192104706Y-62949710D01*
X192126979Y-62940483D01*
X192147027Y-62927088D01*
X192155903Y-62918212D01*
X192156048Y-62918080D01*
X192170066Y-62906575D01*
X192170392Y-62906357D01*
X192181182Y-62900590D01*
X192181544Y-62900440D01*
X192193249Y-62896889D01*
X192193634Y-62896813D01*
X192211942Y-62895010D01*
X192212138Y-62895000D01*
X192268500Y-62895000D01*
X192270232Y-62896000D01*
X192270232Y-62898000D01*
X192268696Y-62898990D01*
X192244411Y-62901381D01*
X192221242Y-62908410D01*
X192199892Y-62919822D01*
X192181179Y-62935179D01*
X192165822Y-62953892D01*
X192154410Y-62975242D01*
X192147381Y-62998411D01*
X192145000Y-63022594D01*
X192145000Y-64348406D01*
X192147381Y-64372589D01*
X192154410Y-64395758D01*
X192165822Y-64417108D01*
X192181179Y-64435821D01*
X192199892Y-64451178D01*
X192221242Y-64462590D01*
X192244411Y-64469619D01*
X192268696Y-64472010D01*
X192270322Y-64473175D01*
X192270126Y-64475165D01*
X192268500Y-64476000D01*
X192212138Y-64476000D01*
X192211942Y-64475990D01*
X192193634Y-64474187D01*
X192193249Y-64474111D01*
X192181544Y-64470560D01*
X192181182Y-64470410D01*
X192170392Y-64464643D01*
X192170066Y-64464425D01*
X192156043Y-64452916D01*
X192155898Y-64452784D01*
X192147022Y-64443909D01*
X192126975Y-64430514D01*
X192104701Y-64421289D01*
X192081050Y-64416585D01*
X192056944Y-64416585D01*
X192033294Y-64421290D01*
X192011021Y-64430517D01*
X191990973Y-64443912D01*
X191982097Y-64452788D01*
X191981952Y-64452920D01*
X191967934Y-64464425D01*
X191967608Y-64464643D01*
X191956818Y-64470410D01*
X191956456Y-64470560D01*
X191944751Y-64474111D01*
X191944366Y-64474187D01*
X191926058Y-64475990D01*
X191925862Y-64476000D01*
X191869500Y-64476000D01*
X191867768Y-64475000D01*
X191867768Y-64473000D01*
X191869304Y-64472010D01*
X191893589Y-64469619D01*
X191916758Y-64462590D01*
X191938108Y-64451178D01*
X191956821Y-64435821D01*
X191972178Y-64417108D01*
X191983590Y-64395758D01*
X191990619Y-64372589D01*
X191993000Y-64348406D01*
X191993000Y-63022594D01*
X191990619Y-62998411D01*
X191983590Y-62975242D01*
X191972178Y-62953892D01*
X191956821Y-62935179D01*
X191938108Y-62919822D01*
X191916758Y-62908410D01*
X191893589Y-62901381D01*
X191869304Y-62898990D01*
X191867678Y-62897825D01*
X191867874Y-62895835D01*
X191869500Y-62895000D01*
X191925862Y-62895000D01*
X191926058Y-62895010D01*
G37*
G36*
X191276058Y-62895010D02*
G01*
X191294366Y-62896813D01*
X191294751Y-62896889D01*
X191306456Y-62900440D01*
X191306818Y-62900590D01*
X191317608Y-62906357D01*
X191317934Y-62906575D01*
X191331957Y-62918084D01*
X191332102Y-62918216D01*
X191340978Y-62927091D01*
X191361025Y-62940486D01*
X191383299Y-62949711D01*
X191406950Y-62954415D01*
X191431056Y-62954415D01*
X191454706Y-62949710D01*
X191476979Y-62940483D01*
X191497027Y-62927088D01*
X191505903Y-62918212D01*
X191506048Y-62918080D01*
X191520066Y-62906575D01*
X191520392Y-62906357D01*
X191531182Y-62900590D01*
X191531544Y-62900440D01*
X191543249Y-62896889D01*
X191543634Y-62896813D01*
X191561942Y-62895010D01*
X191562138Y-62895000D01*
X191618500Y-62895000D01*
X191620232Y-62896000D01*
X191620232Y-62898000D01*
X191618696Y-62898990D01*
X191594411Y-62901381D01*
X191571242Y-62908410D01*
X191549892Y-62919822D01*
X191531179Y-62935179D01*
X191515822Y-62953892D01*
X191504410Y-62975242D01*
X191497381Y-62998411D01*
X191495000Y-63022594D01*
X191495000Y-64348406D01*
X191497381Y-64372589D01*
X191504410Y-64395758D01*
X191515822Y-64417108D01*
X191531179Y-64435821D01*
X191549892Y-64451178D01*
X191571242Y-64462590D01*
X191594411Y-64469619D01*
X191618696Y-64472010D01*
X191620322Y-64473175D01*
X191620126Y-64475165D01*
X191618500Y-64476000D01*
X191562138Y-64476000D01*
X191561942Y-64475990D01*
X191543634Y-64474187D01*
X191543249Y-64474111D01*
X191531544Y-64470560D01*
X191531182Y-64470410D01*
X191520392Y-64464643D01*
X191520066Y-64464425D01*
X191506043Y-64452916D01*
X191505898Y-64452784D01*
X191497022Y-64443909D01*
X191476975Y-64430514D01*
X191454701Y-64421289D01*
X191431050Y-64416585D01*
X191406944Y-64416585D01*
X191383294Y-64421290D01*
X191361021Y-64430517D01*
X191340973Y-64443912D01*
X191332097Y-64452788D01*
X191331952Y-64452920D01*
X191317934Y-64464425D01*
X191317608Y-64464643D01*
X191306818Y-64470410D01*
X191306456Y-64470560D01*
X191294751Y-64474111D01*
X191294366Y-64474187D01*
X191276058Y-64475990D01*
X191275862Y-64476000D01*
X191219500Y-64476000D01*
X191217768Y-64475000D01*
X191217768Y-64473000D01*
X191219304Y-64472010D01*
X191243589Y-64469619D01*
X191266758Y-64462590D01*
X191288108Y-64451178D01*
X191306821Y-64435821D01*
X191322178Y-64417108D01*
X191333590Y-64395758D01*
X191340619Y-64372589D01*
X191343000Y-64348406D01*
X191343000Y-63022594D01*
X191340619Y-62998411D01*
X191333590Y-62975242D01*
X191322178Y-62953892D01*
X191306821Y-62935179D01*
X191288108Y-62919822D01*
X191266758Y-62908410D01*
X191243589Y-62901381D01*
X191219304Y-62898990D01*
X191217678Y-62897825D01*
X191217874Y-62895835D01*
X191219500Y-62895000D01*
X191275862Y-62895000D01*
X191276058Y-62895010D01*
G37*
G36*
X190626058Y-62895010D02*
G01*
X190644366Y-62896813D01*
X190644751Y-62896889D01*
X190656456Y-62900440D01*
X190656818Y-62900590D01*
X190667608Y-62906357D01*
X190667934Y-62906575D01*
X190681957Y-62918084D01*
X190682102Y-62918216D01*
X190690978Y-62927091D01*
X190711025Y-62940486D01*
X190733299Y-62949711D01*
X190756950Y-62954415D01*
X190781056Y-62954415D01*
X190804706Y-62949710D01*
X190826979Y-62940483D01*
X190847027Y-62927088D01*
X190855903Y-62918212D01*
X190856048Y-62918080D01*
X190870066Y-62906575D01*
X190870392Y-62906357D01*
X190881182Y-62900590D01*
X190881544Y-62900440D01*
X190893249Y-62896889D01*
X190893634Y-62896813D01*
X190911942Y-62895010D01*
X190912138Y-62895000D01*
X190968500Y-62895000D01*
X190970232Y-62896000D01*
X190970232Y-62898000D01*
X190968696Y-62898990D01*
X190944411Y-62901381D01*
X190921242Y-62908410D01*
X190899892Y-62919822D01*
X190881179Y-62935179D01*
X190865822Y-62953892D01*
X190854410Y-62975242D01*
X190847381Y-62998411D01*
X190845000Y-63022594D01*
X190845000Y-64348406D01*
X190847381Y-64372589D01*
X190854410Y-64395758D01*
X190865822Y-64417108D01*
X190881179Y-64435821D01*
X190899892Y-64451178D01*
X190921242Y-64462590D01*
X190944411Y-64469619D01*
X190968696Y-64472010D01*
X190970322Y-64473175D01*
X190970126Y-64475165D01*
X190968500Y-64476000D01*
X190912138Y-64476000D01*
X190911942Y-64475990D01*
X190893634Y-64474187D01*
X190893249Y-64474111D01*
X190881544Y-64470560D01*
X190881182Y-64470410D01*
X190870392Y-64464643D01*
X190870066Y-64464425D01*
X190856043Y-64452916D01*
X190855898Y-64452784D01*
X190847022Y-64443909D01*
X190826975Y-64430514D01*
X190804701Y-64421289D01*
X190781050Y-64416585D01*
X190756944Y-64416585D01*
X190733294Y-64421290D01*
X190711021Y-64430517D01*
X190690973Y-64443912D01*
X190682097Y-64452788D01*
X190681952Y-64452920D01*
X190667934Y-64464425D01*
X190667608Y-64464643D01*
X190656818Y-64470410D01*
X190656456Y-64470560D01*
X190644751Y-64474111D01*
X190644366Y-64474187D01*
X190626058Y-64475990D01*
X190625862Y-64476000D01*
X190569500Y-64476000D01*
X190567768Y-64475000D01*
X190567768Y-64473000D01*
X190569304Y-64472010D01*
X190593589Y-64469619D01*
X190616758Y-64462590D01*
X190638108Y-64451178D01*
X190656821Y-64435821D01*
X190672178Y-64417108D01*
X190683590Y-64395758D01*
X190690619Y-64372589D01*
X190693000Y-64348406D01*
X190693000Y-63022594D01*
X190690619Y-62998411D01*
X190683590Y-62975242D01*
X190672178Y-62953892D01*
X190656821Y-62935179D01*
X190638108Y-62919822D01*
X190616758Y-62908410D01*
X190593589Y-62901381D01*
X190569304Y-62898990D01*
X190567678Y-62897825D01*
X190567874Y-62895835D01*
X190569500Y-62895000D01*
X190625862Y-62895000D01*
X190626058Y-62895010D01*
G37*
G36*
X189976058Y-62895010D02*
G01*
X189994366Y-62896813D01*
X189994751Y-62896889D01*
X190006456Y-62900440D01*
X190006818Y-62900590D01*
X190017608Y-62906357D01*
X190017934Y-62906575D01*
X190031957Y-62918084D01*
X190032102Y-62918216D01*
X190040978Y-62927091D01*
X190061025Y-62940486D01*
X190083299Y-62949711D01*
X190106950Y-62954415D01*
X190131056Y-62954415D01*
X190154706Y-62949710D01*
X190176979Y-62940483D01*
X190197027Y-62927088D01*
X190205903Y-62918212D01*
X190206048Y-62918080D01*
X190220066Y-62906575D01*
X190220392Y-62906357D01*
X190231182Y-62900590D01*
X190231544Y-62900440D01*
X190243249Y-62896889D01*
X190243634Y-62896813D01*
X190261942Y-62895010D01*
X190262138Y-62895000D01*
X190318500Y-62895000D01*
X190320232Y-62896000D01*
X190320232Y-62898000D01*
X190318696Y-62898990D01*
X190294411Y-62901381D01*
X190271242Y-62908410D01*
X190249892Y-62919822D01*
X190231179Y-62935179D01*
X190215822Y-62953892D01*
X190204410Y-62975242D01*
X190197381Y-62998411D01*
X190195000Y-63022594D01*
X190195000Y-64348406D01*
X190197381Y-64372589D01*
X190204410Y-64395758D01*
X190215822Y-64417108D01*
X190231179Y-64435821D01*
X190249892Y-64451178D01*
X190271242Y-64462590D01*
X190294411Y-64469619D01*
X190318696Y-64472010D01*
X190320322Y-64473175D01*
X190320126Y-64475165D01*
X190318500Y-64476000D01*
X190262138Y-64476000D01*
X190261942Y-64475990D01*
X190243634Y-64474187D01*
X190243249Y-64474111D01*
X190231544Y-64470560D01*
X190231182Y-64470410D01*
X190220392Y-64464643D01*
X190220066Y-64464425D01*
X190206043Y-64452916D01*
X190205898Y-64452784D01*
X190197022Y-64443909D01*
X190176975Y-64430514D01*
X190154701Y-64421289D01*
X190131050Y-64416585D01*
X190106944Y-64416585D01*
X190083294Y-64421290D01*
X190061021Y-64430517D01*
X190040973Y-64443912D01*
X190032097Y-64452788D01*
X190031952Y-64452920D01*
X190017934Y-64464425D01*
X190017608Y-64464643D01*
X190006818Y-64470410D01*
X190006456Y-64470560D01*
X189994751Y-64474111D01*
X189994366Y-64474187D01*
X189976058Y-64475990D01*
X189975862Y-64476000D01*
X189919500Y-64476000D01*
X189917768Y-64475000D01*
X189917768Y-64473000D01*
X189919304Y-64472010D01*
X189943589Y-64469619D01*
X189966758Y-64462590D01*
X189988108Y-64451178D01*
X190006821Y-64435821D01*
X190022178Y-64417108D01*
X190033590Y-64395758D01*
X190040619Y-64372589D01*
X190043000Y-64348406D01*
X190043000Y-63022594D01*
X190040619Y-62998411D01*
X190033590Y-62975242D01*
X190022178Y-62953892D01*
X190006821Y-62935179D01*
X189988108Y-62919822D01*
X189966758Y-62908410D01*
X189943589Y-62901381D01*
X189919304Y-62898990D01*
X189917678Y-62897825D01*
X189917874Y-62895835D01*
X189919500Y-62895000D01*
X189975862Y-62895000D01*
X189976058Y-62895010D01*
G37*
G36*
X188676058Y-62895010D02*
G01*
X188694366Y-62896813D01*
X188694751Y-62896889D01*
X188706456Y-62900440D01*
X188706818Y-62900590D01*
X188717608Y-62906357D01*
X188717934Y-62906575D01*
X188731957Y-62918084D01*
X188732102Y-62918216D01*
X188740978Y-62927091D01*
X188761025Y-62940486D01*
X188783299Y-62949711D01*
X188806950Y-62954415D01*
X188831056Y-62954415D01*
X188854706Y-62949710D01*
X188876979Y-62940483D01*
X188897027Y-62927088D01*
X188905903Y-62918212D01*
X188906048Y-62918080D01*
X188920066Y-62906575D01*
X188920392Y-62906357D01*
X188931182Y-62900590D01*
X188931544Y-62900440D01*
X188943249Y-62896889D01*
X188943634Y-62896813D01*
X188961942Y-62895010D01*
X188962138Y-62895000D01*
X189018500Y-62895000D01*
X189020232Y-62896000D01*
X189020232Y-62898000D01*
X189018696Y-62898990D01*
X188994411Y-62901381D01*
X188971242Y-62908410D01*
X188949892Y-62919822D01*
X188931179Y-62935179D01*
X188915822Y-62953892D01*
X188904410Y-62975242D01*
X188897381Y-62998411D01*
X188895000Y-63022594D01*
X188895000Y-64348406D01*
X188897381Y-64372589D01*
X188904410Y-64395758D01*
X188915822Y-64417108D01*
X188931179Y-64435821D01*
X188949892Y-64451178D01*
X188971242Y-64462590D01*
X188994411Y-64469619D01*
X189018696Y-64472010D01*
X189020322Y-64473175D01*
X189020126Y-64475165D01*
X189018500Y-64476000D01*
X188962138Y-64476000D01*
X188961942Y-64475990D01*
X188943634Y-64474187D01*
X188943249Y-64474111D01*
X188931544Y-64470560D01*
X188931182Y-64470410D01*
X188920392Y-64464643D01*
X188920066Y-64464425D01*
X188906043Y-64452916D01*
X188905898Y-64452784D01*
X188897022Y-64443909D01*
X188876975Y-64430514D01*
X188854701Y-64421289D01*
X188831050Y-64416585D01*
X188806944Y-64416585D01*
X188783294Y-64421290D01*
X188761021Y-64430517D01*
X188740973Y-64443912D01*
X188732097Y-64452788D01*
X188731952Y-64452920D01*
X188717934Y-64464425D01*
X188717608Y-64464643D01*
X188706818Y-64470410D01*
X188706456Y-64470560D01*
X188694751Y-64474111D01*
X188694366Y-64474187D01*
X188676058Y-64475990D01*
X188675862Y-64476000D01*
X188619500Y-64476000D01*
X188617768Y-64475000D01*
X188617768Y-64473000D01*
X188619304Y-64472010D01*
X188643589Y-64469619D01*
X188666758Y-64462590D01*
X188688108Y-64451178D01*
X188706821Y-64435821D01*
X188722178Y-64417108D01*
X188733590Y-64395758D01*
X188740619Y-64372589D01*
X188743000Y-64348406D01*
X188743000Y-63022594D01*
X188740619Y-62998411D01*
X188733590Y-62975242D01*
X188722178Y-62953892D01*
X188706821Y-62935179D01*
X188688108Y-62919822D01*
X188666758Y-62908410D01*
X188643589Y-62901381D01*
X188619304Y-62898990D01*
X188617678Y-62897825D01*
X188617874Y-62895835D01*
X188619500Y-62895000D01*
X188675862Y-62895000D01*
X188676058Y-62895010D01*
G37*
G36*
X170028332Y-63806500D02*
G01*
X170028332Y-63808500D01*
X170026796Y-63809490D01*
X169975296Y-63814562D01*
X169925958Y-63829529D01*
X169880490Y-63853832D01*
X169840638Y-63886538D01*
X169807932Y-63926390D01*
X169783629Y-63971858D01*
X169768662Y-64021196D01*
X169763590Y-64072696D01*
X169762425Y-64074322D01*
X169760435Y-64074126D01*
X169759600Y-64072500D01*
X169759600Y-63990403D01*
X169759610Y-63990207D01*
X169763599Y-63949704D01*
X169763675Y-63949319D01*
X169773701Y-63916267D01*
X169773851Y-63915905D01*
X169790128Y-63885454D01*
X169790346Y-63885128D01*
X169812255Y-63858432D01*
X169812532Y-63858155D01*
X169839228Y-63836246D01*
X169839554Y-63836028D01*
X169870005Y-63819751D01*
X169870367Y-63819601D01*
X169903419Y-63809575D01*
X169903804Y-63809499D01*
X169944307Y-63805510D01*
X169944503Y-63805500D01*
X170026600Y-63805500D01*
X170028332Y-63806500D01*
G37*
G36*
X171380893Y-63805510D02*
G01*
X171421396Y-63809499D01*
X171421781Y-63809575D01*
X171454833Y-63819601D01*
X171455195Y-63819751D01*
X171485646Y-63836028D01*
X171485972Y-63836246D01*
X171512668Y-63858155D01*
X171512945Y-63858432D01*
X171534854Y-63885128D01*
X171535072Y-63885454D01*
X171551349Y-63915905D01*
X171551499Y-63916267D01*
X171561525Y-63949319D01*
X171561601Y-63949704D01*
X171565590Y-63990207D01*
X171565600Y-63990403D01*
X171565600Y-64072500D01*
X171564600Y-64074232D01*
X171562600Y-64074232D01*
X171561610Y-64072696D01*
X171556538Y-64021196D01*
X171541571Y-63971858D01*
X171517268Y-63926390D01*
X171484562Y-63886538D01*
X171444710Y-63853832D01*
X171399242Y-63829529D01*
X171349904Y-63814562D01*
X171298404Y-63809490D01*
X171296778Y-63808325D01*
X171296974Y-63806335D01*
X171298600Y-63805500D01*
X171380697Y-63805500D01*
X171380893Y-63805510D01*
G37*
G36*
X119865732Y-63106000D02*
G01*
X119865732Y-63108000D01*
X119864196Y-63108990D01*
X119812696Y-63114062D01*
X119763358Y-63129029D01*
X119717890Y-63153332D01*
X119678038Y-63186038D01*
X119645332Y-63225890D01*
X119621029Y-63271358D01*
X119606062Y-63320696D01*
X119600990Y-63372196D01*
X119599825Y-63373822D01*
X119597835Y-63373626D01*
X119597000Y-63372000D01*
X119597000Y-63289903D01*
X119597010Y-63289707D01*
X119600999Y-63249204D01*
X119601075Y-63248819D01*
X119611101Y-63215767D01*
X119611251Y-63215405D01*
X119627528Y-63184954D01*
X119627746Y-63184628D01*
X119649655Y-63157932D01*
X119649932Y-63157655D01*
X119676628Y-63135746D01*
X119676954Y-63135528D01*
X119707405Y-63119251D01*
X119707767Y-63119101D01*
X119740819Y-63109075D01*
X119741204Y-63108999D01*
X119781707Y-63105010D01*
X119781903Y-63105000D01*
X119864000Y-63105000D01*
X119865732Y-63106000D01*
G37*
G36*
X113261732Y-63106000D02*
G01*
X113261732Y-63108000D01*
X113260196Y-63108990D01*
X113208696Y-63114062D01*
X113159358Y-63129029D01*
X113113890Y-63153332D01*
X113074038Y-63186038D01*
X113041332Y-63225890D01*
X113017029Y-63271358D01*
X113002062Y-63320696D01*
X112996990Y-63372196D01*
X112995825Y-63373822D01*
X112993835Y-63373626D01*
X112993000Y-63372000D01*
X112993000Y-63289903D01*
X112993010Y-63289707D01*
X112996999Y-63249204D01*
X112997075Y-63248819D01*
X113007101Y-63215767D01*
X113007251Y-63215405D01*
X113023528Y-63184954D01*
X113023746Y-63184628D01*
X113045655Y-63157932D01*
X113045932Y-63157655D01*
X113072628Y-63135746D01*
X113072954Y-63135528D01*
X113103405Y-63119251D01*
X113103767Y-63119101D01*
X113136819Y-63109075D01*
X113137204Y-63108999D01*
X113177707Y-63105010D01*
X113177903Y-63105000D01*
X113260000Y-63105000D01*
X113261732Y-63106000D01*
G37*
G36*
X114914293Y-63105010D02*
G01*
X114954796Y-63108999D01*
X114955181Y-63109075D01*
X114988233Y-63119101D01*
X114988595Y-63119251D01*
X115019046Y-63135528D01*
X115019372Y-63135746D01*
X115046068Y-63157655D01*
X115046345Y-63157932D01*
X115068254Y-63184628D01*
X115068472Y-63184954D01*
X115084749Y-63215405D01*
X115084899Y-63215767D01*
X115094925Y-63248819D01*
X115095001Y-63249204D01*
X115098990Y-63289707D01*
X115099000Y-63289903D01*
X115099000Y-63372000D01*
X115098000Y-63373732D01*
X115096000Y-63373732D01*
X115095010Y-63372196D01*
X115089938Y-63320696D01*
X115074971Y-63271358D01*
X115050668Y-63225890D01*
X115017962Y-63186038D01*
X114978110Y-63153332D01*
X114932642Y-63129029D01*
X114883304Y-63114062D01*
X114831804Y-63108990D01*
X114830178Y-63107825D01*
X114830374Y-63105835D01*
X114832000Y-63105000D01*
X114914097Y-63105000D01*
X114914293Y-63105010D01*
G37*
G36*
X121518293Y-63105010D02*
G01*
X121558796Y-63108999D01*
X121559181Y-63109075D01*
X121592233Y-63119101D01*
X121592595Y-63119251D01*
X121623046Y-63135528D01*
X121623372Y-63135746D01*
X121650068Y-63157655D01*
X121650345Y-63157932D01*
X121672254Y-63184628D01*
X121672472Y-63184954D01*
X121688749Y-63215405D01*
X121688899Y-63215767D01*
X121698925Y-63248819D01*
X121699001Y-63249204D01*
X121702990Y-63289707D01*
X121703000Y-63289903D01*
X121703000Y-63372000D01*
X121702000Y-63373732D01*
X121700000Y-63373732D01*
X121699010Y-63372196D01*
X121693938Y-63320696D01*
X121678971Y-63271358D01*
X121654668Y-63225890D01*
X121621962Y-63186038D01*
X121582110Y-63153332D01*
X121536642Y-63129029D01*
X121487304Y-63114062D01*
X121435804Y-63108990D01*
X121434178Y-63107825D01*
X121434374Y-63105835D01*
X121436000Y-63105000D01*
X121518097Y-63105000D01*
X121518293Y-63105010D01*
G37*
G36*
X152013565Y-53503674D02*
G01*
X152014400Y-53505300D01*
X152014400Y-53561662D01*
X152014390Y-53561858D01*
X152012587Y-53580166D01*
X152012511Y-53580551D01*
X152008960Y-53592256D01*
X152008810Y-53592618D01*
X152003043Y-53603408D01*
X152002825Y-53603734D01*
X151991316Y-53617757D01*
X151991184Y-53617902D01*
X151982309Y-53626778D01*
X151968914Y-53646825D01*
X151959689Y-53669099D01*
X151954985Y-53692750D01*
X151954985Y-53716856D01*
X151959690Y-53740506D01*
X151968917Y-53762779D01*
X151982312Y-53782827D01*
X151991188Y-53791703D01*
X151991320Y-53791848D01*
X152002825Y-53805866D01*
X152003043Y-53806192D01*
X152008810Y-53816982D01*
X152008960Y-53817344D01*
X152012511Y-53829049D01*
X152012587Y-53829434D01*
X152014390Y-53847742D01*
X152014400Y-53847938D01*
X152014400Y-53904300D01*
X152013400Y-53906032D01*
X152011400Y-53906032D01*
X152010410Y-53904496D01*
X152008019Y-53880211D01*
X152000990Y-53857042D01*
X151989578Y-53835692D01*
X151974221Y-53816979D01*
X151955508Y-53801622D01*
X151934158Y-53790210D01*
X151910989Y-53783181D01*
X151886806Y-53780800D01*
X150560994Y-53780800D01*
X150536811Y-53783181D01*
X150513642Y-53790210D01*
X150492292Y-53801622D01*
X150473579Y-53816979D01*
X150458222Y-53835692D01*
X150446810Y-53857042D01*
X150439781Y-53880211D01*
X150437390Y-53904496D01*
X150436225Y-53906122D01*
X150434235Y-53905926D01*
X150433400Y-53904300D01*
X150433400Y-53847938D01*
X150433410Y-53847742D01*
X150435213Y-53829434D01*
X150435289Y-53829049D01*
X150438840Y-53817344D01*
X150438990Y-53816982D01*
X150444757Y-53806192D01*
X150444975Y-53805866D01*
X150456484Y-53791843D01*
X150456616Y-53791698D01*
X150465491Y-53782822D01*
X150478886Y-53762775D01*
X150488111Y-53740501D01*
X150492815Y-53716850D01*
X150492815Y-53692744D01*
X150488110Y-53669094D01*
X150478883Y-53646821D01*
X150465488Y-53626773D01*
X150456612Y-53617897D01*
X150456480Y-53617752D01*
X150444975Y-53603734D01*
X150444757Y-53603408D01*
X150438990Y-53592618D01*
X150438840Y-53592256D01*
X150435289Y-53580551D01*
X150435213Y-53580166D01*
X150433410Y-53561858D01*
X150433400Y-53561662D01*
X150433400Y-53505300D01*
X150434400Y-53503568D01*
X150436400Y-53503568D01*
X150437390Y-53505104D01*
X150439781Y-53529389D01*
X150446810Y-53552558D01*
X150458222Y-53573908D01*
X150473579Y-53592621D01*
X150492292Y-53607978D01*
X150513642Y-53619390D01*
X150536811Y-53626419D01*
X150560994Y-53628800D01*
X151886806Y-53628800D01*
X151910989Y-53626419D01*
X151934158Y-53619390D01*
X151955508Y-53607978D01*
X151974221Y-53592621D01*
X151989578Y-53573908D01*
X152000990Y-53552558D01*
X152008019Y-53529389D01*
X152010410Y-53505104D01*
X152011575Y-53503478D01*
X152013565Y-53503674D01*
G37*
G36*
X146288565Y-53503674D02*
G01*
X146289400Y-53505300D01*
X146289400Y-53561662D01*
X146289390Y-53561858D01*
X146287587Y-53580166D01*
X146287511Y-53580551D01*
X146283960Y-53592256D01*
X146283810Y-53592618D01*
X146278043Y-53603408D01*
X146277825Y-53603734D01*
X146266316Y-53617757D01*
X146266184Y-53617902D01*
X146257309Y-53626778D01*
X146243914Y-53646825D01*
X146234689Y-53669099D01*
X146229985Y-53692750D01*
X146229985Y-53716856D01*
X146234690Y-53740506D01*
X146243917Y-53762779D01*
X146257312Y-53782827D01*
X146266188Y-53791703D01*
X146266320Y-53791848D01*
X146277825Y-53805866D01*
X146278043Y-53806192D01*
X146283810Y-53816982D01*
X146283960Y-53817344D01*
X146287511Y-53829049D01*
X146287587Y-53829434D01*
X146289390Y-53847742D01*
X146289400Y-53847938D01*
X146289400Y-53904300D01*
X146288400Y-53906032D01*
X146286400Y-53906032D01*
X146285410Y-53904496D01*
X146283019Y-53880211D01*
X146275990Y-53857042D01*
X146264578Y-53835692D01*
X146249221Y-53816979D01*
X146230508Y-53801622D01*
X146209158Y-53790210D01*
X146185989Y-53783181D01*
X146161806Y-53780800D01*
X144835994Y-53780800D01*
X144811811Y-53783181D01*
X144788642Y-53790210D01*
X144767292Y-53801622D01*
X144748579Y-53816979D01*
X144733222Y-53835692D01*
X144721810Y-53857042D01*
X144714781Y-53880211D01*
X144712390Y-53904496D01*
X144711225Y-53906122D01*
X144709235Y-53905926D01*
X144708400Y-53904300D01*
X144708400Y-53847938D01*
X144708410Y-53847742D01*
X144710213Y-53829434D01*
X144710289Y-53829049D01*
X144713840Y-53817344D01*
X144713990Y-53816982D01*
X144719757Y-53806192D01*
X144719975Y-53805866D01*
X144731484Y-53791843D01*
X144731616Y-53791698D01*
X144740491Y-53782822D01*
X144753886Y-53762775D01*
X144763111Y-53740501D01*
X144767815Y-53716850D01*
X144767815Y-53692744D01*
X144763110Y-53669094D01*
X144753883Y-53646821D01*
X144740488Y-53626773D01*
X144731612Y-53617897D01*
X144731480Y-53617752D01*
X144719975Y-53603734D01*
X144719757Y-53603408D01*
X144713990Y-53592618D01*
X144713840Y-53592256D01*
X144710289Y-53580551D01*
X144710213Y-53580166D01*
X144708410Y-53561858D01*
X144708400Y-53561662D01*
X144708400Y-53505300D01*
X144709400Y-53503568D01*
X144711400Y-53503568D01*
X144712390Y-53505104D01*
X144714781Y-53529389D01*
X144721810Y-53552558D01*
X144733222Y-53573908D01*
X144748579Y-53592621D01*
X144767292Y-53607978D01*
X144788642Y-53619390D01*
X144811811Y-53626419D01*
X144835994Y-53628800D01*
X146161806Y-53628800D01*
X146185989Y-53626419D01*
X146209158Y-53619390D01*
X146230508Y-53607978D01*
X146249221Y-53592621D01*
X146264578Y-53573908D01*
X146275990Y-53552558D01*
X146283019Y-53529389D01*
X146285410Y-53505104D01*
X146286575Y-53503478D01*
X146288565Y-53503674D01*
G37*
G36*
X152013565Y-52853674D02*
G01*
X152014400Y-52855300D01*
X152014400Y-52911662D01*
X152014390Y-52911858D01*
X152012587Y-52930166D01*
X152012511Y-52930551D01*
X152008960Y-52942256D01*
X152008810Y-52942618D01*
X152003043Y-52953408D01*
X152002825Y-52953734D01*
X151991316Y-52967757D01*
X151991184Y-52967902D01*
X151982309Y-52976778D01*
X151968914Y-52996825D01*
X151959689Y-53019099D01*
X151954985Y-53042750D01*
X151954985Y-53066856D01*
X151959690Y-53090506D01*
X151968917Y-53112779D01*
X151982312Y-53132827D01*
X151991188Y-53141703D01*
X151991320Y-53141848D01*
X152002825Y-53155866D01*
X152003043Y-53156192D01*
X152008810Y-53166982D01*
X152008960Y-53167344D01*
X152012511Y-53179049D01*
X152012587Y-53179434D01*
X152014390Y-53197742D01*
X152014400Y-53197938D01*
X152014400Y-53254300D01*
X152013400Y-53256032D01*
X152011400Y-53256032D01*
X152010410Y-53254496D01*
X152008019Y-53230211D01*
X152000990Y-53207042D01*
X151989578Y-53185692D01*
X151974221Y-53166979D01*
X151955508Y-53151622D01*
X151934158Y-53140210D01*
X151910989Y-53133181D01*
X151886806Y-53130800D01*
X150560994Y-53130800D01*
X150536811Y-53133181D01*
X150513642Y-53140210D01*
X150492292Y-53151622D01*
X150473579Y-53166979D01*
X150458222Y-53185692D01*
X150446810Y-53207042D01*
X150439781Y-53230211D01*
X150437390Y-53254496D01*
X150436225Y-53256122D01*
X150434235Y-53255926D01*
X150433400Y-53254300D01*
X150433400Y-53197938D01*
X150433410Y-53197742D01*
X150435213Y-53179434D01*
X150435289Y-53179049D01*
X150438840Y-53167344D01*
X150438990Y-53166982D01*
X150444757Y-53156192D01*
X150444975Y-53155866D01*
X150456484Y-53141843D01*
X150456616Y-53141698D01*
X150465491Y-53132822D01*
X150478886Y-53112775D01*
X150488111Y-53090501D01*
X150492815Y-53066850D01*
X150492815Y-53042744D01*
X150488110Y-53019094D01*
X150478883Y-52996821D01*
X150465488Y-52976773D01*
X150456612Y-52967897D01*
X150456480Y-52967752D01*
X150444975Y-52953734D01*
X150444757Y-52953408D01*
X150438990Y-52942618D01*
X150438840Y-52942256D01*
X150435289Y-52930551D01*
X150435213Y-52930166D01*
X150433410Y-52911858D01*
X150433400Y-52911662D01*
X150433400Y-52855300D01*
X150434400Y-52853568D01*
X150436400Y-52853568D01*
X150437390Y-52855104D01*
X150439781Y-52879389D01*
X150446810Y-52902558D01*
X150458222Y-52923908D01*
X150473579Y-52942621D01*
X150492292Y-52957978D01*
X150513642Y-52969390D01*
X150536811Y-52976419D01*
X150560994Y-52978800D01*
X151886806Y-52978800D01*
X151910989Y-52976419D01*
X151934158Y-52969390D01*
X151955508Y-52957978D01*
X151974221Y-52942621D01*
X151989578Y-52923908D01*
X152000990Y-52902558D01*
X152008019Y-52879389D01*
X152010410Y-52855104D01*
X152011575Y-52853478D01*
X152013565Y-52853674D01*
G37*
G36*
X146288565Y-52853674D02*
G01*
X146289400Y-52855300D01*
X146289400Y-52911662D01*
X146289390Y-52911858D01*
X146287587Y-52930166D01*
X146287511Y-52930551D01*
X146283960Y-52942256D01*
X146283810Y-52942618D01*
X146278043Y-52953408D01*
X146277825Y-52953734D01*
X146266316Y-52967757D01*
X146266184Y-52967902D01*
X146257309Y-52976778D01*
X146243914Y-52996825D01*
X146234689Y-53019099D01*
X146229985Y-53042750D01*
X146229985Y-53066856D01*
X146234690Y-53090506D01*
X146243917Y-53112779D01*
X146257312Y-53132827D01*
X146266188Y-53141703D01*
X146266320Y-53141848D01*
X146277825Y-53155866D01*
X146278043Y-53156192D01*
X146283810Y-53166982D01*
X146283960Y-53167344D01*
X146287511Y-53179049D01*
X146287587Y-53179434D01*
X146289390Y-53197742D01*
X146289400Y-53197938D01*
X146289400Y-53254300D01*
X146288400Y-53256032D01*
X146286400Y-53256032D01*
X146285410Y-53254496D01*
X146283019Y-53230211D01*
X146275990Y-53207042D01*
X146264578Y-53185692D01*
X146249221Y-53166979D01*
X146230508Y-53151622D01*
X146209158Y-53140210D01*
X146185989Y-53133181D01*
X146161806Y-53130800D01*
X144835994Y-53130800D01*
X144811811Y-53133181D01*
X144788642Y-53140210D01*
X144767292Y-53151622D01*
X144748579Y-53166979D01*
X144733222Y-53185692D01*
X144721810Y-53207042D01*
X144714781Y-53230211D01*
X144712390Y-53254496D01*
X144711225Y-53256122D01*
X144709235Y-53255926D01*
X144708400Y-53254300D01*
X144708400Y-53197938D01*
X144708410Y-53197742D01*
X144710213Y-53179434D01*
X144710289Y-53179049D01*
X144713840Y-53167344D01*
X144713990Y-53166982D01*
X144719757Y-53156192D01*
X144719975Y-53155866D01*
X144731484Y-53141843D01*
X144731616Y-53141698D01*
X144740491Y-53132822D01*
X144753886Y-53112775D01*
X144763111Y-53090501D01*
X144767815Y-53066850D01*
X144767815Y-53042744D01*
X144763110Y-53019094D01*
X144753883Y-52996821D01*
X144740488Y-52976773D01*
X144731612Y-52967897D01*
X144731480Y-52967752D01*
X144719975Y-52953734D01*
X144719757Y-52953408D01*
X144713990Y-52942618D01*
X144713840Y-52942256D01*
X144710289Y-52930551D01*
X144710213Y-52930166D01*
X144708410Y-52911858D01*
X144708400Y-52911662D01*
X144708400Y-52855300D01*
X144709400Y-52853568D01*
X144711400Y-52853568D01*
X144712390Y-52855104D01*
X144714781Y-52879389D01*
X144721810Y-52902558D01*
X144733222Y-52923908D01*
X144748579Y-52942621D01*
X144767292Y-52957978D01*
X144788642Y-52969390D01*
X144811811Y-52976419D01*
X144835994Y-52978800D01*
X146161806Y-52978800D01*
X146185989Y-52976419D01*
X146209158Y-52969390D01*
X146230508Y-52957978D01*
X146249221Y-52942621D01*
X146264578Y-52923908D01*
X146275990Y-52902558D01*
X146283019Y-52879389D01*
X146285410Y-52855104D01*
X146286575Y-52853478D01*
X146288565Y-52853674D01*
G37*
G36*
X146288565Y-52203674D02*
G01*
X146289400Y-52205300D01*
X146289400Y-52261662D01*
X146289390Y-52261858D01*
X146287587Y-52280166D01*
X146287511Y-52280551D01*
X146283960Y-52292256D01*
X146283810Y-52292618D01*
X146278043Y-52303408D01*
X146277825Y-52303734D01*
X146266316Y-52317757D01*
X146266184Y-52317902D01*
X146257309Y-52326778D01*
X146243914Y-52346825D01*
X146234689Y-52369099D01*
X146229985Y-52392750D01*
X146229985Y-52416856D01*
X146234690Y-52440506D01*
X146243917Y-52462779D01*
X146257312Y-52482827D01*
X146266188Y-52491703D01*
X146266320Y-52491848D01*
X146277825Y-52505866D01*
X146278043Y-52506192D01*
X146283810Y-52516982D01*
X146283960Y-52517344D01*
X146287511Y-52529049D01*
X146287587Y-52529434D01*
X146289390Y-52547742D01*
X146289400Y-52547938D01*
X146289400Y-52604300D01*
X146288400Y-52606032D01*
X146286400Y-52606032D01*
X146285410Y-52604496D01*
X146283019Y-52580211D01*
X146275990Y-52557042D01*
X146264578Y-52535692D01*
X146249221Y-52516979D01*
X146230508Y-52501622D01*
X146209158Y-52490210D01*
X146185989Y-52483181D01*
X146161806Y-52480800D01*
X144835994Y-52480800D01*
X144811811Y-52483181D01*
X144788642Y-52490210D01*
X144767292Y-52501622D01*
X144748579Y-52516979D01*
X144733222Y-52535692D01*
X144721810Y-52557042D01*
X144714781Y-52580211D01*
X144712390Y-52604496D01*
X144711225Y-52606122D01*
X144709235Y-52605926D01*
X144708400Y-52604300D01*
X144708400Y-52547938D01*
X144708410Y-52547742D01*
X144710213Y-52529434D01*
X144710289Y-52529049D01*
X144713840Y-52517344D01*
X144713990Y-52516982D01*
X144719757Y-52506192D01*
X144719975Y-52505866D01*
X144731484Y-52491843D01*
X144731616Y-52491698D01*
X144740491Y-52482822D01*
X144753886Y-52462775D01*
X144763111Y-52440501D01*
X144767815Y-52416850D01*
X144767815Y-52392744D01*
X144763110Y-52369094D01*
X144753883Y-52346821D01*
X144740488Y-52326773D01*
X144731612Y-52317897D01*
X144731480Y-52317752D01*
X144719975Y-52303734D01*
X144719757Y-52303408D01*
X144713990Y-52292618D01*
X144713840Y-52292256D01*
X144710289Y-52280551D01*
X144710213Y-52280166D01*
X144708410Y-52261858D01*
X144708400Y-52261662D01*
X144708400Y-52205300D01*
X144709400Y-52203568D01*
X144711400Y-52203568D01*
X144712390Y-52205104D01*
X144714781Y-52229389D01*
X144721810Y-52252558D01*
X144733222Y-52273908D01*
X144748579Y-52292621D01*
X144767292Y-52307978D01*
X144788642Y-52319390D01*
X144811811Y-52326419D01*
X144835994Y-52328800D01*
X146161806Y-52328800D01*
X146185989Y-52326419D01*
X146209158Y-52319390D01*
X146230508Y-52307978D01*
X146249221Y-52292621D01*
X146264578Y-52273908D01*
X146275990Y-52252558D01*
X146283019Y-52229389D01*
X146285410Y-52205104D01*
X146286575Y-52203478D01*
X146288565Y-52203674D01*
G37*
G36*
X152013565Y-52203674D02*
G01*
X152014400Y-52205300D01*
X152014400Y-52261662D01*
X152014390Y-52261858D01*
X152012587Y-52280166D01*
X152012511Y-52280551D01*
X152008960Y-52292256D01*
X152008810Y-52292618D01*
X152003043Y-52303408D01*
X152002825Y-52303734D01*
X151991316Y-52317757D01*
X151991184Y-52317902D01*
X151982309Y-52326778D01*
X151968914Y-52346825D01*
X151959689Y-52369099D01*
X151954985Y-52392750D01*
X151954985Y-52416856D01*
X151959690Y-52440506D01*
X151968917Y-52462779D01*
X151982312Y-52482827D01*
X151991188Y-52491703D01*
X151991320Y-52491848D01*
X152002825Y-52505866D01*
X152003043Y-52506192D01*
X152008810Y-52516982D01*
X152008960Y-52517344D01*
X152012511Y-52529049D01*
X152012587Y-52529434D01*
X152014390Y-52547742D01*
X152014400Y-52547938D01*
X152014400Y-52604300D01*
X152013400Y-52606032D01*
X152011400Y-52606032D01*
X152010410Y-52604496D01*
X152008019Y-52580211D01*
X152000990Y-52557042D01*
X151989578Y-52535692D01*
X151974221Y-52516979D01*
X151955508Y-52501622D01*
X151934158Y-52490210D01*
X151910989Y-52483181D01*
X151886806Y-52480800D01*
X150560994Y-52480800D01*
X150536811Y-52483181D01*
X150513642Y-52490210D01*
X150492292Y-52501622D01*
X150473579Y-52516979D01*
X150458222Y-52535692D01*
X150446810Y-52557042D01*
X150439781Y-52580211D01*
X150437390Y-52604496D01*
X150436225Y-52606122D01*
X150434235Y-52605926D01*
X150433400Y-52604300D01*
X150433400Y-52547938D01*
X150433410Y-52547742D01*
X150435213Y-52529434D01*
X150435289Y-52529049D01*
X150438840Y-52517344D01*
X150438990Y-52516982D01*
X150444757Y-52506192D01*
X150444975Y-52505866D01*
X150456484Y-52491843D01*
X150456616Y-52491698D01*
X150465491Y-52482822D01*
X150478886Y-52462775D01*
X150488111Y-52440501D01*
X150492815Y-52416850D01*
X150492815Y-52392744D01*
X150488110Y-52369094D01*
X150478883Y-52346821D01*
X150465488Y-52326773D01*
X150456612Y-52317897D01*
X150456480Y-52317752D01*
X150444975Y-52303734D01*
X150444757Y-52303408D01*
X150438990Y-52292618D01*
X150438840Y-52292256D01*
X150435289Y-52280551D01*
X150435213Y-52280166D01*
X150433410Y-52261858D01*
X150433400Y-52261662D01*
X150433400Y-52205300D01*
X150434400Y-52203568D01*
X150436400Y-52203568D01*
X150437390Y-52205104D01*
X150439781Y-52229389D01*
X150446810Y-52252558D01*
X150458222Y-52273908D01*
X150473579Y-52292621D01*
X150492292Y-52307978D01*
X150513642Y-52319390D01*
X150536811Y-52326419D01*
X150560994Y-52328800D01*
X151886806Y-52328800D01*
X151910989Y-52326419D01*
X151934158Y-52319390D01*
X151955508Y-52307978D01*
X151974221Y-52292621D01*
X151989578Y-52273908D01*
X152000990Y-52252558D01*
X152008019Y-52229389D01*
X152010410Y-52205104D01*
X152011575Y-52203478D01*
X152013565Y-52203674D01*
G37*
G36*
X146288565Y-51553674D02*
G01*
X146289400Y-51555300D01*
X146289400Y-51611662D01*
X146289390Y-51611858D01*
X146287587Y-51630166D01*
X146287511Y-51630551D01*
X146283960Y-51642256D01*
X146283810Y-51642618D01*
X146278043Y-51653408D01*
X146277825Y-51653734D01*
X146266316Y-51667757D01*
X146266184Y-51667902D01*
X146257309Y-51676778D01*
X146243914Y-51696825D01*
X146234689Y-51719099D01*
X146229985Y-51742750D01*
X146229985Y-51766856D01*
X146234690Y-51790506D01*
X146243917Y-51812779D01*
X146257312Y-51832827D01*
X146266188Y-51841703D01*
X146266320Y-51841848D01*
X146277825Y-51855866D01*
X146278043Y-51856192D01*
X146283810Y-51866982D01*
X146283960Y-51867344D01*
X146287511Y-51879049D01*
X146287587Y-51879434D01*
X146289390Y-51897742D01*
X146289400Y-51897938D01*
X146289400Y-51954300D01*
X146288400Y-51956032D01*
X146286400Y-51956032D01*
X146285410Y-51954496D01*
X146283019Y-51930211D01*
X146275990Y-51907042D01*
X146264578Y-51885692D01*
X146249221Y-51866979D01*
X146230508Y-51851622D01*
X146209158Y-51840210D01*
X146185989Y-51833181D01*
X146161806Y-51830800D01*
X144835994Y-51830800D01*
X144811811Y-51833181D01*
X144788642Y-51840210D01*
X144767292Y-51851622D01*
X144748579Y-51866979D01*
X144733222Y-51885692D01*
X144721810Y-51907042D01*
X144714781Y-51930211D01*
X144712390Y-51954496D01*
X144711225Y-51956122D01*
X144709235Y-51955926D01*
X144708400Y-51954300D01*
X144708400Y-51897938D01*
X144708410Y-51897742D01*
X144710213Y-51879434D01*
X144710289Y-51879049D01*
X144713840Y-51867344D01*
X144713990Y-51866982D01*
X144719757Y-51856192D01*
X144719975Y-51855866D01*
X144731484Y-51841843D01*
X144731616Y-51841698D01*
X144740491Y-51832822D01*
X144753886Y-51812775D01*
X144763111Y-51790501D01*
X144767815Y-51766850D01*
X144767815Y-51742744D01*
X144763110Y-51719094D01*
X144753883Y-51696821D01*
X144740488Y-51676773D01*
X144731612Y-51667897D01*
X144731480Y-51667752D01*
X144719975Y-51653734D01*
X144719757Y-51653408D01*
X144713990Y-51642618D01*
X144713840Y-51642256D01*
X144710289Y-51630551D01*
X144710213Y-51630166D01*
X144708410Y-51611858D01*
X144708400Y-51611662D01*
X144708400Y-51555300D01*
X144709400Y-51553568D01*
X144711400Y-51553568D01*
X144712390Y-51555104D01*
X144714781Y-51579389D01*
X144721810Y-51602558D01*
X144733222Y-51623908D01*
X144748579Y-51642621D01*
X144767292Y-51657978D01*
X144788642Y-51669390D01*
X144811811Y-51676419D01*
X144835994Y-51678800D01*
X146161806Y-51678800D01*
X146185989Y-51676419D01*
X146209158Y-51669390D01*
X146230508Y-51657978D01*
X146249221Y-51642621D01*
X146264578Y-51623908D01*
X146275990Y-51602558D01*
X146283019Y-51579389D01*
X146285410Y-51555104D01*
X146286575Y-51553478D01*
X146288565Y-51553674D01*
G37*
G36*
X152013565Y-51553674D02*
G01*
X152014400Y-51555300D01*
X152014400Y-51611662D01*
X152014390Y-51611858D01*
X152012587Y-51630166D01*
X152012511Y-51630551D01*
X152008960Y-51642256D01*
X152008810Y-51642618D01*
X152003043Y-51653408D01*
X152002825Y-51653734D01*
X151991316Y-51667757D01*
X151991184Y-51667902D01*
X151982309Y-51676778D01*
X151968914Y-51696825D01*
X151959689Y-51719099D01*
X151954985Y-51742750D01*
X151954985Y-51766856D01*
X151959690Y-51790506D01*
X151968917Y-51812779D01*
X151982312Y-51832827D01*
X151991188Y-51841703D01*
X151991320Y-51841848D01*
X152002825Y-51855866D01*
X152003043Y-51856192D01*
X152008810Y-51866982D01*
X152008960Y-51867344D01*
X152012511Y-51879049D01*
X152012587Y-51879434D01*
X152014390Y-51897742D01*
X152014400Y-51897938D01*
X152014400Y-51954300D01*
X152013400Y-51956032D01*
X152011400Y-51956032D01*
X152010410Y-51954496D01*
X152008019Y-51930211D01*
X152000990Y-51907042D01*
X151989578Y-51885692D01*
X151974221Y-51866979D01*
X151955508Y-51851622D01*
X151934158Y-51840210D01*
X151910989Y-51833181D01*
X151886806Y-51830800D01*
X150560994Y-51830800D01*
X150536811Y-51833181D01*
X150513642Y-51840210D01*
X150492292Y-51851622D01*
X150473579Y-51866979D01*
X150458222Y-51885692D01*
X150446810Y-51907042D01*
X150439781Y-51930211D01*
X150437390Y-51954496D01*
X150436225Y-51956122D01*
X150434235Y-51955926D01*
X150433400Y-51954300D01*
X150433400Y-51897938D01*
X150433410Y-51897742D01*
X150435213Y-51879434D01*
X150435289Y-51879049D01*
X150438840Y-51867344D01*
X150438990Y-51866982D01*
X150444757Y-51856192D01*
X150444975Y-51855866D01*
X150456484Y-51841843D01*
X150456616Y-51841698D01*
X150465491Y-51832822D01*
X150478886Y-51812775D01*
X150488111Y-51790501D01*
X150492815Y-51766850D01*
X150492815Y-51742744D01*
X150488110Y-51719094D01*
X150478883Y-51696821D01*
X150465488Y-51676773D01*
X150456612Y-51667897D01*
X150456480Y-51667752D01*
X150444975Y-51653734D01*
X150444757Y-51653408D01*
X150438990Y-51642618D01*
X150438840Y-51642256D01*
X150435289Y-51630551D01*
X150435213Y-51630166D01*
X150433410Y-51611858D01*
X150433400Y-51611662D01*
X150433400Y-51555300D01*
X150434400Y-51553568D01*
X150436400Y-51553568D01*
X150437390Y-51555104D01*
X150439781Y-51579389D01*
X150446810Y-51602558D01*
X150458222Y-51623908D01*
X150473579Y-51642621D01*
X150492292Y-51657978D01*
X150513642Y-51669390D01*
X150536811Y-51676419D01*
X150560994Y-51678800D01*
X151886806Y-51678800D01*
X151910989Y-51676419D01*
X151934158Y-51669390D01*
X151955508Y-51657978D01*
X151974221Y-51642621D01*
X151989578Y-51623908D01*
X152000990Y-51602558D01*
X152008019Y-51579389D01*
X152010410Y-51555104D01*
X152011575Y-51553478D01*
X152013565Y-51553674D01*
G37*
G36*
X146288565Y-50903674D02*
G01*
X146289400Y-50905300D01*
X146289400Y-50961662D01*
X146289390Y-50961858D01*
X146287587Y-50980166D01*
X146287511Y-50980551D01*
X146283960Y-50992256D01*
X146283810Y-50992618D01*
X146278043Y-51003408D01*
X146277825Y-51003734D01*
X146266316Y-51017757D01*
X146266184Y-51017902D01*
X146257309Y-51026778D01*
X146243914Y-51046825D01*
X146234689Y-51069099D01*
X146229985Y-51092750D01*
X146229985Y-51116856D01*
X146234690Y-51140506D01*
X146243917Y-51162779D01*
X146257312Y-51182827D01*
X146266188Y-51191703D01*
X146266320Y-51191848D01*
X146277825Y-51205866D01*
X146278043Y-51206192D01*
X146283810Y-51216982D01*
X146283960Y-51217344D01*
X146287511Y-51229049D01*
X146287587Y-51229434D01*
X146289390Y-51247742D01*
X146289400Y-51247938D01*
X146289400Y-51304300D01*
X146288400Y-51306032D01*
X146286400Y-51306032D01*
X146285410Y-51304496D01*
X146283019Y-51280211D01*
X146275990Y-51257042D01*
X146264578Y-51235692D01*
X146249221Y-51216979D01*
X146230508Y-51201622D01*
X146209158Y-51190210D01*
X146185989Y-51183181D01*
X146161806Y-51180800D01*
X144835994Y-51180800D01*
X144811811Y-51183181D01*
X144788642Y-51190210D01*
X144767292Y-51201622D01*
X144748579Y-51216979D01*
X144733222Y-51235692D01*
X144721810Y-51257042D01*
X144714781Y-51280211D01*
X144712390Y-51304496D01*
X144711225Y-51306122D01*
X144709235Y-51305926D01*
X144708400Y-51304300D01*
X144708400Y-51247938D01*
X144708410Y-51247742D01*
X144710213Y-51229434D01*
X144710289Y-51229049D01*
X144713840Y-51217344D01*
X144713990Y-51216982D01*
X144719757Y-51206192D01*
X144719975Y-51205866D01*
X144731484Y-51191843D01*
X144731616Y-51191698D01*
X144740491Y-51182822D01*
X144753886Y-51162775D01*
X144763111Y-51140501D01*
X144767815Y-51116850D01*
X144767815Y-51092744D01*
X144763110Y-51069094D01*
X144753883Y-51046821D01*
X144740488Y-51026773D01*
X144731612Y-51017897D01*
X144731480Y-51017752D01*
X144719975Y-51003734D01*
X144719757Y-51003408D01*
X144713990Y-50992618D01*
X144713840Y-50992256D01*
X144710289Y-50980551D01*
X144710213Y-50980166D01*
X144708410Y-50961858D01*
X144708400Y-50961662D01*
X144708400Y-50905300D01*
X144709400Y-50903568D01*
X144711400Y-50903568D01*
X144712390Y-50905104D01*
X144714781Y-50929389D01*
X144721810Y-50952558D01*
X144733222Y-50973908D01*
X144748579Y-50992621D01*
X144767292Y-51007978D01*
X144788642Y-51019390D01*
X144811811Y-51026419D01*
X144835994Y-51028800D01*
X146161806Y-51028800D01*
X146185989Y-51026419D01*
X146209158Y-51019390D01*
X146230508Y-51007978D01*
X146249221Y-50992621D01*
X146264578Y-50973908D01*
X146275990Y-50952558D01*
X146283019Y-50929389D01*
X146285410Y-50905104D01*
X146286575Y-50903478D01*
X146288565Y-50903674D01*
G37*
G36*
X152013565Y-50903674D02*
G01*
X152014400Y-50905300D01*
X152014400Y-50961662D01*
X152014390Y-50961858D01*
X152012587Y-50980166D01*
X152012511Y-50980551D01*
X152008960Y-50992256D01*
X152008810Y-50992618D01*
X152003043Y-51003408D01*
X152002825Y-51003734D01*
X151991316Y-51017757D01*
X151991184Y-51017902D01*
X151982309Y-51026778D01*
X151968914Y-51046825D01*
X151959689Y-51069099D01*
X151954985Y-51092750D01*
X151954985Y-51116856D01*
X151959690Y-51140506D01*
X151968917Y-51162779D01*
X151982312Y-51182827D01*
X151991188Y-51191703D01*
X151991320Y-51191848D01*
X152002825Y-51205866D01*
X152003043Y-51206192D01*
X152008810Y-51216982D01*
X152008960Y-51217344D01*
X152012511Y-51229049D01*
X152012587Y-51229434D01*
X152014390Y-51247742D01*
X152014400Y-51247938D01*
X152014400Y-51304300D01*
X152013400Y-51306032D01*
X152011400Y-51306032D01*
X152010410Y-51304496D01*
X152008019Y-51280211D01*
X152000990Y-51257042D01*
X151989578Y-51235692D01*
X151974221Y-51216979D01*
X151955508Y-51201622D01*
X151934158Y-51190210D01*
X151910989Y-51183181D01*
X151886806Y-51180800D01*
X150560994Y-51180800D01*
X150536811Y-51183181D01*
X150513642Y-51190210D01*
X150492292Y-51201622D01*
X150473579Y-51216979D01*
X150458222Y-51235692D01*
X150446810Y-51257042D01*
X150439781Y-51280211D01*
X150437390Y-51304496D01*
X150436225Y-51306122D01*
X150434235Y-51305926D01*
X150433400Y-51304300D01*
X150433400Y-51247938D01*
X150433410Y-51247742D01*
X150435213Y-51229434D01*
X150435289Y-51229049D01*
X150438840Y-51217344D01*
X150438990Y-51216982D01*
X150444757Y-51206192D01*
X150444975Y-51205866D01*
X150456484Y-51191843D01*
X150456616Y-51191698D01*
X150465491Y-51182822D01*
X150478886Y-51162775D01*
X150488111Y-51140501D01*
X150492815Y-51116850D01*
X150492815Y-51092744D01*
X150488110Y-51069094D01*
X150478883Y-51046821D01*
X150465488Y-51026773D01*
X150456612Y-51017897D01*
X150456480Y-51017752D01*
X150444975Y-51003734D01*
X150444757Y-51003408D01*
X150438990Y-50992618D01*
X150438840Y-50992256D01*
X150435289Y-50980551D01*
X150435213Y-50980166D01*
X150433410Y-50961858D01*
X150433400Y-50961662D01*
X150433400Y-50905300D01*
X150434400Y-50903568D01*
X150436400Y-50903568D01*
X150437390Y-50905104D01*
X150439781Y-50929389D01*
X150446810Y-50952558D01*
X150458222Y-50973908D01*
X150473579Y-50992621D01*
X150492292Y-51007978D01*
X150513642Y-51019390D01*
X150536811Y-51026419D01*
X150560994Y-51028800D01*
X151886806Y-51028800D01*
X151910989Y-51026419D01*
X151934158Y-51019390D01*
X151955508Y-51007978D01*
X151974221Y-50992621D01*
X151989578Y-50973908D01*
X152000990Y-50952558D01*
X152008019Y-50929389D01*
X152010410Y-50905104D01*
X152011575Y-50903478D01*
X152013565Y-50903674D01*
G37*
G36*
X113036165Y-50232874D02*
G01*
X113037000Y-50234500D01*
X113037000Y-50290860D01*
X113036990Y-50291056D01*
X113028942Y-50372774D01*
X113028866Y-50373159D01*
X113006821Y-50445830D01*
X113006671Y-50446192D01*
X112970872Y-50513168D01*
X112970654Y-50513494D01*
X112922476Y-50572199D01*
X112922199Y-50572476D01*
X112863494Y-50620654D01*
X112863168Y-50620872D01*
X112796192Y-50656671D01*
X112795830Y-50656821D01*
X112723159Y-50678866D01*
X112722774Y-50678942D01*
X112641056Y-50686990D01*
X112640860Y-50687000D01*
X112584500Y-50687000D01*
X112582768Y-50686000D01*
X112582768Y-50684000D01*
X112584304Y-50683010D01*
X112671993Y-50674374D01*
X112756130Y-50648851D01*
X112833668Y-50607406D01*
X112901631Y-50551631D01*
X112957406Y-50483668D01*
X112998851Y-50406130D01*
X113024374Y-50321993D01*
X113033010Y-50234304D01*
X113034175Y-50232678D01*
X113036165Y-50232874D01*
G37*
G36*
X111234990Y-50234304D02*
G01*
X111243626Y-50321993D01*
X111269149Y-50406130D01*
X111310594Y-50483668D01*
X111366369Y-50551631D01*
X111434332Y-50607406D01*
X111511870Y-50648851D01*
X111596007Y-50674374D01*
X111683696Y-50683010D01*
X111685322Y-50684175D01*
X111685126Y-50686165D01*
X111683500Y-50687000D01*
X111627140Y-50687000D01*
X111626944Y-50686990D01*
X111545226Y-50678942D01*
X111544841Y-50678866D01*
X111472170Y-50656821D01*
X111471808Y-50656671D01*
X111404832Y-50620872D01*
X111404506Y-50620654D01*
X111345801Y-50572476D01*
X111345524Y-50572199D01*
X111297346Y-50513494D01*
X111297128Y-50513168D01*
X111261329Y-50446192D01*
X111261179Y-50445830D01*
X111239134Y-50373159D01*
X111239058Y-50372774D01*
X111231010Y-50291056D01*
X111231000Y-50290860D01*
X111231000Y-50234500D01*
X111232000Y-50232768D01*
X111234000Y-50232768D01*
X111234990Y-50234304D01*
G37*
G36*
X146288565Y-50253674D02*
G01*
X146289400Y-50255300D01*
X146289400Y-50311662D01*
X146289390Y-50311858D01*
X146287587Y-50330166D01*
X146287511Y-50330551D01*
X146283960Y-50342256D01*
X146283810Y-50342618D01*
X146278043Y-50353408D01*
X146277825Y-50353734D01*
X146266316Y-50367757D01*
X146266184Y-50367902D01*
X146257309Y-50376778D01*
X146243914Y-50396825D01*
X146234689Y-50419099D01*
X146229985Y-50442750D01*
X146229985Y-50466856D01*
X146234690Y-50490506D01*
X146243917Y-50512779D01*
X146257312Y-50532827D01*
X146266188Y-50541703D01*
X146266320Y-50541848D01*
X146277825Y-50555866D01*
X146278043Y-50556192D01*
X146283810Y-50566982D01*
X146283960Y-50567344D01*
X146287511Y-50579049D01*
X146287587Y-50579434D01*
X146289390Y-50597742D01*
X146289400Y-50597938D01*
X146289400Y-50654300D01*
X146288400Y-50656032D01*
X146286400Y-50656032D01*
X146285410Y-50654496D01*
X146283019Y-50630211D01*
X146275990Y-50607042D01*
X146264578Y-50585692D01*
X146249221Y-50566979D01*
X146230508Y-50551622D01*
X146209158Y-50540210D01*
X146185989Y-50533181D01*
X146161806Y-50530800D01*
X144835994Y-50530800D01*
X144811811Y-50533181D01*
X144788642Y-50540210D01*
X144767292Y-50551622D01*
X144748579Y-50566979D01*
X144733222Y-50585692D01*
X144721810Y-50607042D01*
X144714781Y-50630211D01*
X144712390Y-50654496D01*
X144711225Y-50656122D01*
X144709235Y-50655926D01*
X144708400Y-50654300D01*
X144708400Y-50597938D01*
X144708410Y-50597742D01*
X144710213Y-50579434D01*
X144710289Y-50579049D01*
X144713840Y-50567344D01*
X144713990Y-50566982D01*
X144719757Y-50556192D01*
X144719975Y-50555866D01*
X144731484Y-50541843D01*
X144731616Y-50541698D01*
X144740491Y-50532822D01*
X144753886Y-50512775D01*
X144763111Y-50490501D01*
X144767815Y-50466850D01*
X144767815Y-50442744D01*
X144763110Y-50419094D01*
X144753883Y-50396821D01*
X144740488Y-50376773D01*
X144731612Y-50367897D01*
X144731480Y-50367752D01*
X144719975Y-50353734D01*
X144719757Y-50353408D01*
X144713990Y-50342618D01*
X144713840Y-50342256D01*
X144710289Y-50330551D01*
X144710213Y-50330166D01*
X144708410Y-50311858D01*
X144708400Y-50311662D01*
X144708400Y-50255300D01*
X144709400Y-50253568D01*
X144711400Y-50253568D01*
X144712390Y-50255104D01*
X144714781Y-50279389D01*
X144721810Y-50302558D01*
X144733222Y-50323908D01*
X144748579Y-50342621D01*
X144767292Y-50357978D01*
X144788642Y-50369390D01*
X144811811Y-50376419D01*
X144835994Y-50378800D01*
X146161806Y-50378800D01*
X146185989Y-50376419D01*
X146209158Y-50369390D01*
X146230508Y-50357978D01*
X146249221Y-50342621D01*
X146264578Y-50323908D01*
X146275990Y-50302558D01*
X146283019Y-50279389D01*
X146285410Y-50255104D01*
X146286575Y-50253478D01*
X146288565Y-50253674D01*
G37*
G36*
X152013565Y-50253674D02*
G01*
X152014400Y-50255300D01*
X152014400Y-50311662D01*
X152014390Y-50311858D01*
X152012587Y-50330166D01*
X152012511Y-50330551D01*
X152008960Y-50342256D01*
X152008810Y-50342618D01*
X152003043Y-50353408D01*
X152002825Y-50353734D01*
X151991316Y-50367757D01*
X151991184Y-50367902D01*
X151982309Y-50376778D01*
X151968914Y-50396825D01*
X151959689Y-50419099D01*
X151954985Y-50442750D01*
X151954985Y-50466856D01*
X151959690Y-50490506D01*
X151968917Y-50512779D01*
X151982312Y-50532827D01*
X151991188Y-50541703D01*
X151991320Y-50541848D01*
X152002825Y-50555866D01*
X152003043Y-50556192D01*
X152008810Y-50566982D01*
X152008960Y-50567344D01*
X152012511Y-50579049D01*
X152012587Y-50579434D01*
X152014390Y-50597742D01*
X152014400Y-50597938D01*
X152014400Y-50654300D01*
X152013400Y-50656032D01*
X152011400Y-50656032D01*
X152010410Y-50654496D01*
X152008019Y-50630211D01*
X152000990Y-50607042D01*
X151989578Y-50585692D01*
X151974221Y-50566979D01*
X151955508Y-50551622D01*
X151934158Y-50540210D01*
X151910989Y-50533181D01*
X151886806Y-50530800D01*
X150560994Y-50530800D01*
X150536811Y-50533181D01*
X150513642Y-50540210D01*
X150492292Y-50551622D01*
X150473579Y-50566979D01*
X150458222Y-50585692D01*
X150446810Y-50607042D01*
X150439781Y-50630211D01*
X150437390Y-50654496D01*
X150436225Y-50656122D01*
X150434235Y-50655926D01*
X150433400Y-50654300D01*
X150433400Y-50597938D01*
X150433410Y-50597742D01*
X150435213Y-50579434D01*
X150435289Y-50579049D01*
X150438840Y-50567344D01*
X150438990Y-50566982D01*
X150444757Y-50556192D01*
X150444975Y-50555866D01*
X150456484Y-50541843D01*
X150456616Y-50541698D01*
X150465491Y-50532822D01*
X150478886Y-50512775D01*
X150488111Y-50490501D01*
X150492815Y-50466850D01*
X150492815Y-50442744D01*
X150488110Y-50419094D01*
X150478883Y-50396821D01*
X150465488Y-50376773D01*
X150456612Y-50367897D01*
X150456480Y-50367752D01*
X150444975Y-50353734D01*
X150444757Y-50353408D01*
X150438990Y-50342618D01*
X150438840Y-50342256D01*
X150435289Y-50330551D01*
X150435213Y-50330166D01*
X150433410Y-50311858D01*
X150433400Y-50311662D01*
X150433400Y-50255300D01*
X150434400Y-50253568D01*
X150436400Y-50253568D01*
X150437390Y-50255104D01*
X150439781Y-50279389D01*
X150446810Y-50302558D01*
X150458222Y-50323908D01*
X150473579Y-50342621D01*
X150492292Y-50357978D01*
X150513642Y-50369390D01*
X150536811Y-50376419D01*
X150560994Y-50378800D01*
X151886806Y-50378800D01*
X151910989Y-50376419D01*
X151934158Y-50369390D01*
X151955508Y-50357978D01*
X151974221Y-50342621D01*
X151989578Y-50323908D01*
X152000990Y-50302558D01*
X152008019Y-50279389D01*
X152010410Y-50255104D01*
X152011575Y-50253478D01*
X152013565Y-50253674D01*
G37*
G36*
X152013565Y-49603674D02*
G01*
X152014400Y-49605300D01*
X152014400Y-49661662D01*
X152014390Y-49661858D01*
X152012587Y-49680166D01*
X152012511Y-49680551D01*
X152008960Y-49692256D01*
X152008810Y-49692618D01*
X152003043Y-49703408D01*
X152002825Y-49703734D01*
X151991316Y-49717757D01*
X151991184Y-49717902D01*
X151982309Y-49726778D01*
X151968914Y-49746825D01*
X151959689Y-49769099D01*
X151954985Y-49792750D01*
X151954985Y-49816856D01*
X151959690Y-49840506D01*
X151968917Y-49862779D01*
X151982312Y-49882827D01*
X151991188Y-49891703D01*
X151991320Y-49891848D01*
X152002825Y-49905866D01*
X152003043Y-49906192D01*
X152008810Y-49916982D01*
X152008960Y-49917344D01*
X152012511Y-49929049D01*
X152012587Y-49929434D01*
X152014390Y-49947742D01*
X152014400Y-49947938D01*
X152014400Y-50004300D01*
X152013400Y-50006032D01*
X152011400Y-50006032D01*
X152010410Y-50004496D01*
X152008019Y-49980211D01*
X152000990Y-49957042D01*
X151989578Y-49935692D01*
X151974221Y-49916979D01*
X151955508Y-49901622D01*
X151934158Y-49890210D01*
X151910989Y-49883181D01*
X151886806Y-49880800D01*
X150560994Y-49880800D01*
X150536811Y-49883181D01*
X150513642Y-49890210D01*
X150492292Y-49901622D01*
X150473579Y-49916979D01*
X150458222Y-49935692D01*
X150446810Y-49957042D01*
X150439781Y-49980211D01*
X150437390Y-50004496D01*
X150436225Y-50006122D01*
X150434235Y-50005926D01*
X150433400Y-50004300D01*
X150433400Y-49947938D01*
X150433410Y-49947742D01*
X150435213Y-49929434D01*
X150435289Y-49929049D01*
X150438840Y-49917344D01*
X150438990Y-49916982D01*
X150444757Y-49906192D01*
X150444975Y-49905866D01*
X150456484Y-49891843D01*
X150456616Y-49891698D01*
X150465491Y-49882822D01*
X150478886Y-49862775D01*
X150488111Y-49840501D01*
X150492815Y-49816850D01*
X150492815Y-49792744D01*
X150488110Y-49769094D01*
X150478883Y-49746821D01*
X150465488Y-49726773D01*
X150456612Y-49717897D01*
X150456480Y-49717752D01*
X150444975Y-49703734D01*
X150444757Y-49703408D01*
X150438990Y-49692618D01*
X150438840Y-49692256D01*
X150435289Y-49680551D01*
X150435213Y-49680166D01*
X150433410Y-49661858D01*
X150433400Y-49661662D01*
X150433400Y-49605300D01*
X150434400Y-49603568D01*
X150436400Y-49603568D01*
X150437390Y-49605104D01*
X150439781Y-49629389D01*
X150446810Y-49652558D01*
X150458222Y-49673908D01*
X150473579Y-49692621D01*
X150492292Y-49707978D01*
X150513642Y-49719390D01*
X150536811Y-49726419D01*
X150560994Y-49728800D01*
X151886806Y-49728800D01*
X151910989Y-49726419D01*
X151934158Y-49719390D01*
X151955508Y-49707978D01*
X151974221Y-49692621D01*
X151989578Y-49673908D01*
X152000990Y-49652558D01*
X152008019Y-49629389D01*
X152010410Y-49605104D01*
X152011575Y-49603478D01*
X152013565Y-49603674D01*
G37*
G36*
X146288565Y-49603674D02*
G01*
X146289400Y-49605300D01*
X146289400Y-49661662D01*
X146289390Y-49661858D01*
X146287587Y-49680166D01*
X146287511Y-49680551D01*
X146283960Y-49692256D01*
X146283810Y-49692618D01*
X146278043Y-49703408D01*
X146277825Y-49703734D01*
X146266316Y-49717757D01*
X146266184Y-49717902D01*
X146257309Y-49726778D01*
X146243914Y-49746825D01*
X146234689Y-49769099D01*
X146229985Y-49792750D01*
X146229985Y-49816856D01*
X146234690Y-49840506D01*
X146243917Y-49862779D01*
X146257312Y-49882827D01*
X146266188Y-49891703D01*
X146266320Y-49891848D01*
X146277825Y-49905866D01*
X146278043Y-49906192D01*
X146283810Y-49916982D01*
X146283960Y-49917344D01*
X146287511Y-49929049D01*
X146287587Y-49929434D01*
X146289390Y-49947742D01*
X146289400Y-49947938D01*
X146289400Y-50004300D01*
X146288400Y-50006032D01*
X146286400Y-50006032D01*
X146285410Y-50004496D01*
X146283019Y-49980211D01*
X146275990Y-49957042D01*
X146264578Y-49935692D01*
X146249221Y-49916979D01*
X146230508Y-49901622D01*
X146209158Y-49890210D01*
X146185989Y-49883181D01*
X146161806Y-49880800D01*
X144835994Y-49880800D01*
X144811811Y-49883181D01*
X144788642Y-49890210D01*
X144767292Y-49901622D01*
X144748579Y-49916979D01*
X144733222Y-49935692D01*
X144721810Y-49957042D01*
X144714781Y-49980211D01*
X144712390Y-50004496D01*
X144711225Y-50006122D01*
X144709235Y-50005926D01*
X144708400Y-50004300D01*
X144708400Y-49947938D01*
X144708410Y-49947742D01*
X144710213Y-49929434D01*
X144710289Y-49929049D01*
X144713840Y-49917344D01*
X144713990Y-49916982D01*
X144719757Y-49906192D01*
X144719975Y-49905866D01*
X144731484Y-49891843D01*
X144731616Y-49891698D01*
X144740491Y-49882822D01*
X144753886Y-49862775D01*
X144763111Y-49840501D01*
X144767815Y-49816850D01*
X144767815Y-49792744D01*
X144763110Y-49769094D01*
X144753883Y-49746821D01*
X144740488Y-49726773D01*
X144731612Y-49717897D01*
X144731480Y-49717752D01*
X144719975Y-49703734D01*
X144719757Y-49703408D01*
X144713990Y-49692618D01*
X144713840Y-49692256D01*
X144710289Y-49680551D01*
X144710213Y-49680166D01*
X144708410Y-49661858D01*
X144708400Y-49661662D01*
X144708400Y-49605300D01*
X144709400Y-49603568D01*
X144711400Y-49603568D01*
X144712390Y-49605104D01*
X144714781Y-49629389D01*
X144721810Y-49652558D01*
X144733222Y-49673908D01*
X144748579Y-49692621D01*
X144767292Y-49707978D01*
X144788642Y-49719390D01*
X144811811Y-49726419D01*
X144835994Y-49728800D01*
X146161806Y-49728800D01*
X146185989Y-49726419D01*
X146209158Y-49719390D01*
X146230508Y-49707978D01*
X146249221Y-49692621D01*
X146264578Y-49673908D01*
X146275990Y-49652558D01*
X146283019Y-49629389D01*
X146285410Y-49605104D01*
X146286575Y-49603478D01*
X146288565Y-49603674D01*
G37*
G36*
X152013565Y-48953674D02*
G01*
X152014400Y-48955300D01*
X152014400Y-49011662D01*
X152014390Y-49011858D01*
X152012587Y-49030166D01*
X152012511Y-49030551D01*
X152008960Y-49042256D01*
X152008810Y-49042618D01*
X152003043Y-49053408D01*
X152002825Y-49053734D01*
X151991316Y-49067757D01*
X151991184Y-49067902D01*
X151982309Y-49076778D01*
X151968914Y-49096825D01*
X151959689Y-49119099D01*
X151954985Y-49142750D01*
X151954985Y-49166856D01*
X151959690Y-49190506D01*
X151968917Y-49212779D01*
X151982312Y-49232827D01*
X151991188Y-49241703D01*
X151991320Y-49241848D01*
X152002825Y-49255866D01*
X152003043Y-49256192D01*
X152008810Y-49266982D01*
X152008960Y-49267344D01*
X152012511Y-49279049D01*
X152012587Y-49279434D01*
X152014390Y-49297742D01*
X152014400Y-49297938D01*
X152014400Y-49354300D01*
X152013400Y-49356032D01*
X152011400Y-49356032D01*
X152010410Y-49354496D01*
X152008019Y-49330211D01*
X152000990Y-49307042D01*
X151989578Y-49285692D01*
X151974221Y-49266979D01*
X151955508Y-49251622D01*
X151934158Y-49240210D01*
X151910989Y-49233181D01*
X151886806Y-49230800D01*
X150560994Y-49230800D01*
X150536811Y-49233181D01*
X150513642Y-49240210D01*
X150492292Y-49251622D01*
X150473579Y-49266979D01*
X150458222Y-49285692D01*
X150446810Y-49307042D01*
X150439781Y-49330211D01*
X150437390Y-49354496D01*
X150436225Y-49356122D01*
X150434235Y-49355926D01*
X150433400Y-49354300D01*
X150433400Y-49297938D01*
X150433410Y-49297742D01*
X150435213Y-49279434D01*
X150435289Y-49279049D01*
X150438840Y-49267344D01*
X150438990Y-49266982D01*
X150444757Y-49256192D01*
X150444975Y-49255866D01*
X150456484Y-49241843D01*
X150456616Y-49241698D01*
X150465491Y-49232822D01*
X150478886Y-49212775D01*
X150488111Y-49190501D01*
X150492815Y-49166850D01*
X150492815Y-49142744D01*
X150488110Y-49119094D01*
X150478883Y-49096821D01*
X150465488Y-49076773D01*
X150456612Y-49067897D01*
X150456480Y-49067752D01*
X150444975Y-49053734D01*
X150444757Y-49053408D01*
X150438990Y-49042618D01*
X150438840Y-49042256D01*
X150435289Y-49030551D01*
X150435213Y-49030166D01*
X150433410Y-49011858D01*
X150433400Y-49011662D01*
X150433400Y-48955300D01*
X150434400Y-48953568D01*
X150436400Y-48953568D01*
X150437390Y-48955104D01*
X150439781Y-48979389D01*
X150446810Y-49002558D01*
X150458222Y-49023908D01*
X150473579Y-49042621D01*
X150492292Y-49057978D01*
X150513642Y-49069390D01*
X150536811Y-49076419D01*
X150560994Y-49078800D01*
X151886806Y-49078800D01*
X151910989Y-49076419D01*
X151934158Y-49069390D01*
X151955508Y-49057978D01*
X151974221Y-49042621D01*
X151989578Y-49023908D01*
X152000990Y-49002558D01*
X152008019Y-48979389D01*
X152010410Y-48955104D01*
X152011575Y-48953478D01*
X152013565Y-48953674D01*
G37*
G36*
X146288565Y-48953674D02*
G01*
X146289400Y-48955300D01*
X146289400Y-49011662D01*
X146289390Y-49011858D01*
X146287587Y-49030166D01*
X146287511Y-49030551D01*
X146283960Y-49042256D01*
X146283810Y-49042618D01*
X146278043Y-49053408D01*
X146277825Y-49053734D01*
X146266316Y-49067757D01*
X146266184Y-49067902D01*
X146257309Y-49076778D01*
X146243914Y-49096825D01*
X146234689Y-49119099D01*
X146229985Y-49142750D01*
X146229985Y-49166856D01*
X146234690Y-49190506D01*
X146243917Y-49212779D01*
X146257312Y-49232827D01*
X146266188Y-49241703D01*
X146266320Y-49241848D01*
X146277825Y-49255866D01*
X146278043Y-49256192D01*
X146283810Y-49266982D01*
X146283960Y-49267344D01*
X146287511Y-49279049D01*
X146287587Y-49279434D01*
X146289390Y-49297742D01*
X146289400Y-49297938D01*
X146289400Y-49354300D01*
X146288400Y-49356032D01*
X146286400Y-49356032D01*
X146285410Y-49354496D01*
X146283019Y-49330211D01*
X146275990Y-49307042D01*
X146264578Y-49285692D01*
X146249221Y-49266979D01*
X146230508Y-49251622D01*
X146209158Y-49240210D01*
X146185989Y-49233181D01*
X146161806Y-49230800D01*
X144835994Y-49230800D01*
X144811811Y-49233181D01*
X144788642Y-49240210D01*
X144767292Y-49251622D01*
X144748579Y-49266979D01*
X144733222Y-49285692D01*
X144721810Y-49307042D01*
X144714781Y-49330211D01*
X144712390Y-49354496D01*
X144711225Y-49356122D01*
X144709235Y-49355926D01*
X144708400Y-49354300D01*
X144708400Y-49297938D01*
X144708410Y-49297742D01*
X144710213Y-49279434D01*
X144710289Y-49279049D01*
X144713840Y-49267344D01*
X144713990Y-49266982D01*
X144719757Y-49256192D01*
X144719975Y-49255866D01*
X144731484Y-49241843D01*
X144731616Y-49241698D01*
X144740491Y-49232822D01*
X144753886Y-49212775D01*
X144763111Y-49190501D01*
X144767815Y-49166850D01*
X144767815Y-49142744D01*
X144763110Y-49119094D01*
X144753883Y-49096821D01*
X144740488Y-49076773D01*
X144731612Y-49067897D01*
X144731480Y-49067752D01*
X144719975Y-49053734D01*
X144719757Y-49053408D01*
X144713990Y-49042618D01*
X144713840Y-49042256D01*
X144710289Y-49030551D01*
X144710213Y-49030166D01*
X144708410Y-49011858D01*
X144708400Y-49011662D01*
X144708400Y-48955300D01*
X144709400Y-48953568D01*
X144711400Y-48953568D01*
X144712390Y-48955104D01*
X144714781Y-48979389D01*
X144721810Y-49002558D01*
X144733222Y-49023908D01*
X144748579Y-49042621D01*
X144767292Y-49057978D01*
X144788642Y-49069390D01*
X144811811Y-49076419D01*
X144835994Y-49078800D01*
X146161806Y-49078800D01*
X146185989Y-49076419D01*
X146209158Y-49069390D01*
X146230508Y-49057978D01*
X146249221Y-49042621D01*
X146264578Y-49023908D01*
X146275990Y-49002558D01*
X146283019Y-48979389D01*
X146285410Y-48955104D01*
X146286575Y-48953478D01*
X146288565Y-48953674D01*
G37*
G36*
X111685232Y-48882000D02*
G01*
X111685232Y-48884000D01*
X111683696Y-48884990D01*
X111596007Y-48893626D01*
X111511870Y-48919149D01*
X111434332Y-48960594D01*
X111366369Y-49016369D01*
X111310594Y-49084332D01*
X111269149Y-49161870D01*
X111243626Y-49246007D01*
X111234990Y-49333696D01*
X111233825Y-49335322D01*
X111231835Y-49335126D01*
X111231000Y-49333500D01*
X111231000Y-49277140D01*
X111231010Y-49276944D01*
X111239058Y-49195226D01*
X111239134Y-49194841D01*
X111261179Y-49122170D01*
X111261329Y-49121808D01*
X111297128Y-49054832D01*
X111297346Y-49054506D01*
X111345524Y-48995801D01*
X111345801Y-48995524D01*
X111404506Y-48947346D01*
X111404832Y-48947128D01*
X111471808Y-48911329D01*
X111472170Y-48911179D01*
X111544841Y-48889134D01*
X111545226Y-48889058D01*
X111626944Y-48881010D01*
X111627140Y-48881000D01*
X111683500Y-48881000D01*
X111685232Y-48882000D01*
G37*
G36*
X112641056Y-48881010D02*
G01*
X112722774Y-48889058D01*
X112723159Y-48889134D01*
X112795830Y-48911179D01*
X112796192Y-48911329D01*
X112863168Y-48947128D01*
X112863494Y-48947346D01*
X112922199Y-48995524D01*
X112922476Y-48995801D01*
X112970654Y-49054506D01*
X112970872Y-49054832D01*
X113006671Y-49121808D01*
X113006821Y-49122170D01*
X113028866Y-49194841D01*
X113028942Y-49195226D01*
X113036990Y-49276944D01*
X113037000Y-49277140D01*
X113037000Y-49333500D01*
X113036000Y-49335232D01*
X113034000Y-49335232D01*
X113033010Y-49333696D01*
X113024374Y-49246007D01*
X112998851Y-49161870D01*
X112957406Y-49084332D01*
X112901631Y-49016369D01*
X112833668Y-48960594D01*
X112756130Y-48919149D01*
X112671993Y-48893626D01*
X112584304Y-48884990D01*
X112582678Y-48883825D01*
X112582874Y-48881835D01*
X112584500Y-48881000D01*
X112640860Y-48881000D01*
X112641056Y-48881010D01*
G37*
G36*
X146288565Y-48303674D02*
G01*
X146289400Y-48305300D01*
X146289400Y-48361662D01*
X146289390Y-48361858D01*
X146287587Y-48380166D01*
X146287511Y-48380551D01*
X146283960Y-48392256D01*
X146283810Y-48392618D01*
X146278043Y-48403408D01*
X146277825Y-48403734D01*
X146266316Y-48417757D01*
X146266184Y-48417902D01*
X146257309Y-48426778D01*
X146243914Y-48446825D01*
X146234689Y-48469099D01*
X146229985Y-48492750D01*
X146229985Y-48516856D01*
X146234690Y-48540506D01*
X146243917Y-48562779D01*
X146257312Y-48582827D01*
X146266188Y-48591703D01*
X146266320Y-48591848D01*
X146277825Y-48605866D01*
X146278043Y-48606192D01*
X146283810Y-48616982D01*
X146283960Y-48617344D01*
X146287511Y-48629049D01*
X146287587Y-48629434D01*
X146289390Y-48647742D01*
X146289400Y-48647938D01*
X146289400Y-48704300D01*
X146288400Y-48706032D01*
X146286400Y-48706032D01*
X146285410Y-48704496D01*
X146283019Y-48680211D01*
X146275990Y-48657042D01*
X146264578Y-48635692D01*
X146249221Y-48616979D01*
X146230508Y-48601622D01*
X146209158Y-48590210D01*
X146185989Y-48583181D01*
X146161806Y-48580800D01*
X144835994Y-48580800D01*
X144811811Y-48583181D01*
X144788642Y-48590210D01*
X144767292Y-48601622D01*
X144748579Y-48616979D01*
X144733222Y-48635692D01*
X144721810Y-48657042D01*
X144714781Y-48680211D01*
X144712390Y-48704496D01*
X144711225Y-48706122D01*
X144709235Y-48705926D01*
X144708400Y-48704300D01*
X144708400Y-48647938D01*
X144708410Y-48647742D01*
X144710213Y-48629434D01*
X144710289Y-48629049D01*
X144713840Y-48617344D01*
X144713990Y-48616982D01*
X144719757Y-48606192D01*
X144719975Y-48605866D01*
X144731484Y-48591843D01*
X144731616Y-48591698D01*
X144740491Y-48582822D01*
X144753886Y-48562775D01*
X144763111Y-48540501D01*
X144767815Y-48516850D01*
X144767815Y-48492744D01*
X144763110Y-48469094D01*
X144753883Y-48446821D01*
X144740488Y-48426773D01*
X144731612Y-48417897D01*
X144731480Y-48417752D01*
X144719975Y-48403734D01*
X144719757Y-48403408D01*
X144713990Y-48392618D01*
X144713840Y-48392256D01*
X144710289Y-48380551D01*
X144710213Y-48380166D01*
X144708410Y-48361858D01*
X144708400Y-48361662D01*
X144708400Y-48305300D01*
X144709400Y-48303568D01*
X144711400Y-48303568D01*
X144712390Y-48305104D01*
X144714781Y-48329389D01*
X144721810Y-48352558D01*
X144733222Y-48373908D01*
X144748579Y-48392621D01*
X144767292Y-48407978D01*
X144788642Y-48419390D01*
X144811811Y-48426419D01*
X144835994Y-48428800D01*
X146161806Y-48428800D01*
X146185989Y-48426419D01*
X146209158Y-48419390D01*
X146230508Y-48407978D01*
X146249221Y-48392621D01*
X146264578Y-48373908D01*
X146275990Y-48352558D01*
X146283019Y-48329389D01*
X146285410Y-48305104D01*
X146286575Y-48303478D01*
X146288565Y-48303674D01*
G37*
G36*
X152013565Y-48303674D02*
G01*
X152014400Y-48305300D01*
X152014400Y-48361662D01*
X152014390Y-48361858D01*
X152012587Y-48380166D01*
X152012511Y-48380551D01*
X152008960Y-48392256D01*
X152008810Y-48392618D01*
X152003043Y-48403408D01*
X152002825Y-48403734D01*
X151991316Y-48417757D01*
X151991184Y-48417902D01*
X151982309Y-48426778D01*
X151968914Y-48446825D01*
X151959689Y-48469099D01*
X151954985Y-48492750D01*
X151954985Y-48516856D01*
X151959690Y-48540506D01*
X151968917Y-48562779D01*
X151982312Y-48582827D01*
X151991188Y-48591703D01*
X151991320Y-48591848D01*
X152002825Y-48605866D01*
X152003043Y-48606192D01*
X152008810Y-48616982D01*
X152008960Y-48617344D01*
X152012511Y-48629049D01*
X152012587Y-48629434D01*
X152014390Y-48647742D01*
X152014400Y-48647938D01*
X152014400Y-48704300D01*
X152013400Y-48706032D01*
X152011400Y-48706032D01*
X152010410Y-48704496D01*
X152008019Y-48680211D01*
X152000990Y-48657042D01*
X151989578Y-48635692D01*
X151974221Y-48616979D01*
X151955508Y-48601622D01*
X151934158Y-48590210D01*
X151910989Y-48583181D01*
X151886806Y-48580800D01*
X150560994Y-48580800D01*
X150536811Y-48583181D01*
X150513642Y-48590210D01*
X150492292Y-48601622D01*
X150473579Y-48616979D01*
X150458222Y-48635692D01*
X150446810Y-48657042D01*
X150439781Y-48680211D01*
X150437390Y-48704496D01*
X150436225Y-48706122D01*
X150434235Y-48705926D01*
X150433400Y-48704300D01*
X150433400Y-48647938D01*
X150433410Y-48647742D01*
X150435213Y-48629434D01*
X150435289Y-48629049D01*
X150438840Y-48617344D01*
X150438990Y-48616982D01*
X150444757Y-48606192D01*
X150444975Y-48605866D01*
X150456484Y-48591843D01*
X150456616Y-48591698D01*
X150465491Y-48582822D01*
X150478886Y-48562775D01*
X150488111Y-48540501D01*
X150492815Y-48516850D01*
X150492815Y-48492744D01*
X150488110Y-48469094D01*
X150478883Y-48446821D01*
X150465488Y-48426773D01*
X150456612Y-48417897D01*
X150456480Y-48417752D01*
X150444975Y-48403734D01*
X150444757Y-48403408D01*
X150438990Y-48392618D01*
X150438840Y-48392256D01*
X150435289Y-48380551D01*
X150435213Y-48380166D01*
X150433410Y-48361858D01*
X150433400Y-48361662D01*
X150433400Y-48305300D01*
X150434400Y-48303568D01*
X150436400Y-48303568D01*
X150437390Y-48305104D01*
X150439781Y-48329389D01*
X150446810Y-48352558D01*
X150458222Y-48373908D01*
X150473579Y-48392621D01*
X150492292Y-48407978D01*
X150513642Y-48419390D01*
X150536811Y-48426419D01*
X150560994Y-48428800D01*
X151886806Y-48428800D01*
X151910989Y-48426419D01*
X151934158Y-48419390D01*
X151955508Y-48407978D01*
X151974221Y-48392621D01*
X151989578Y-48373908D01*
X152000990Y-48352558D01*
X152008019Y-48329389D01*
X152010410Y-48305104D01*
X152011575Y-48303478D01*
X152013565Y-48303674D01*
G37*
M02*
