M48
; DRILL file {KiCad (5.1.6-0-10_14)} date Saturday, September 12, 2020 at 05:56:19 PM
; FORMAT={3:3/ absolute / metric / suppress trailing zeros}
; #@! TF.CreationDate,2020-09-12T17:56:19+09:00
; #@! TF.GenerationSoftware,Kicad,Pcbnew,(5.1.6-0-10_14)
; #@! TF.FileFunction,Plated,1,2,PTH
FMAT,2
METRIC,LZ
T1C0.300
T2C0.400
T3C0.500
T4C0.900
T5C0.950
T6C1.000
T7C1.600
%
G90
G05
T1
X110414Y-052959
X110744Y-129032
X111963Y-096774
X111963Y-105969
X112014Y-061214
X115976Y-134722
X117081Y-068339
X118783Y-092989
X118872Y-074092
X118872Y-105181
X118872Y-118745
X118999Y-135687
X119977Y-055524
X11999Y-135661
X120383Y-126187
X120955Y-135661
X121158Y-132766
X122199Y-133756
X122453Y-074371
X122453Y-09318
X122644Y-112243
X122733Y-101879
X123673Y-129235
X123774Y-124485
X12385Y-134544
X124765Y-05047
X126543Y-064935
X126606Y-068529
X127356Y-132817
X127419Y-057836
X128168Y-074384
X128295Y-07874
X128321Y-108941
X128372Y-13368
X128384Y-090754
X128575Y-135661
X129565Y-135661
X130505Y-135661
X130708Y-069952
X130835Y-092126
X131293Y-071476
X132182Y-067488
X133375Y-068415
X134709Y-067983
X134849Y-112217
X134976Y-045098
X135204Y-09713
X135357Y-083414
X135763Y-126238
X13589Y-099949
X136855Y-117577
X137147Y-038798
X138049Y-060833
X138303Y-050889
X138367Y-086436
X138862Y-079705
X138887Y-10654
X138913Y-074625
X139065Y-104775
X139878Y-072771
X140462Y-098298
X141097Y-094691
X141389Y-061163
X141478Y-126365
X142608Y-09859
X142697Y-069888
X142773Y-083858
X142812Y-060897
X143408Y-059258
X143662Y-072847
X144196Y-096215
X144628Y-089992
X144729Y-117361
X144825Y-05929
X14591Y-058128
X145961Y-054978
X147275Y-058108
X147447Y-116205
X14798Y-094894
X148133Y-096545
X148361Y-101613
X148425Y-056985
X148577Y-049174
X14906Y-106604
X149758Y-086309
X149905Y-056445
X14993Y-08944
X150038Y-092583
X150057Y-09104
X150114Y-087782
X150724Y-097968
X151295Y-054851
X152375Y-100482
X152381Y-080093
X152844Y-117323
X152857Y-0603
X152946Y-054521
X153314Y-10983
X153365Y-0873
X153657Y-047574
X15428Y-094793
X154895Y-053436
X15527Y-097333
X155969Y-052197
X156108Y-047904
X156401Y-107188
X156629Y-0881
X157435Y-051619
X158725Y-047904
X159728Y-053365
X159741Y-097841
X159975Y-050388
X159995Y-070307
X160274Y-09459
X160566Y-057302
X160833Y-086347
X161265Y-111011
X161303Y-047815
X161392Y-053137
X161722Y-056528
X162535Y-049403
X162636Y-10475
X163093Y-08255
X163106Y-058598
X163855Y-099111
X164198Y-054724
X164198Y-057747
X164224Y-048374
X164998Y-085674
X165227Y-108255
X165252Y-097942
X165329Y-100279
X165583Y-121526
X165875Y-07079
X166154Y-081293
X166307Y-048882
X167513Y-12874
X167576Y-059982
X168097Y-051435
X168923Y-054305
X169329Y-100787
X169558Y-061316
X170129Y-073914
X170498Y-106718
X170612Y-090208
X170751Y-085522
X171031Y-091821
X171323Y-080302
X171552Y-045961
X171895Y-061214
X171933Y-056185
X171971Y-054928
X171971Y-057442
X171996Y-05367
X172468Y-097331
X173482Y-0532
X173564Y-113278
X173571Y-09464
X174498Y-085115
X17507Y-049835
X175298Y-092558
X17559Y-055931
X176352Y-091364
X176403Y-059817
X176848Y-096418
X176854Y-099346
X177Y-083096
X177152Y-125895
X17794Y-062243
X178003Y-088367
X178257Y-10861
X178689Y-112674
X179654Y-101981
X17973Y-11397
X179832Y-070485
X180061Y-105766
X180137Y-090094
X18034Y-086385
X181013Y-063995
X181521Y-048527
X181572Y-071196
X181864Y-113995
X182397Y-112636
X182893Y-049606
X183185Y-089179
X18354Y-085369
X183744Y-095936
X18381Y-050249
X183985Y-107759
X184442Y-113144
X184506Y-129096
X185014Y-048895
X185338Y-080284
X18542Y-05207
X18542Y-053213
X185674Y-056007
X186182Y-054737
X186411Y-091288
X186969Y-049822
X187046Y-111493
X187046Y-123012
X187173Y-117145
X18735Y-113411
X187401Y-114681
X187452Y-056388
X188005Y-049461
X188595Y-056502
X188913Y-091669
X189332Y-082169
X189357Y-051168
X18984Y-057594
X189916Y-056401
X189941Y-112141
X190462Y-109614
X190525Y-073901
X190545Y-051429
X190972Y-058384
X191186Y-08509
X191338Y-050038
X191922Y-054394
X191922Y-089891
X192087Y-046292
X19304Y-049682
X193345Y-121514
X193421Y-062357
X193561Y-095517
X193802Y-069469
X193802Y-100203
X193802Y-126238
X19412Y-056566
X194577Y-051841
X195453Y-079629
X195466Y-048374
X196126Y-110211
X197168Y-054902
X197612Y-074676
X197714Y-060198
X197764Y-105766
X198075Y-049448
X19812Y-064897
X198882Y-098933
X199009Y-064262
X199136Y-054508
X199136Y-126238
X199339Y-051333
X200139Y-056807
X200139Y-10226
X200343Y-060515
X200382Y-062206
X200705Y-052914
X201867Y-057353
X202692Y-052959
X203835Y-13589
X204165Y-115595
X204381Y-076556
X204432Y-090907
X205181Y-105131
X206146Y-097307
X206883Y-052959
X20701Y-061087
X20828Y-129159
T2
X174104Y-062167
X176733Y-051638
X182524Y-061062
T3
X126111Y-128575
X129413Y-066929
X130302Y-067894
X136347Y-081051
X136754Y-041758
T4
X112134Y-049784
X114634Y-049784
X117134Y-049784
X119634Y-049784
T5
X16149Y-068834
X16399Y-068834
X16649Y-068834
X16899Y-068834
X17149Y-068834
X17399Y-068834
T6
X12065Y-064008
X12065Y-066508
X114046Y-064008
X114046Y-066508
X143383Y-075882
X143383Y-078423
X145923Y-075882
X145923Y-078423
X148463Y-075882
X148463Y-078423
X151003Y-075882
X151003Y-078423
X153543Y-075882
X153543Y-078423
X156083Y-075882
X156083Y-078423
X158623Y-075882
X158623Y-078423
X161163Y-075882
X161163Y-078423
X163703Y-075882
X163703Y-078423
X166243Y-075882
X166243Y-078423
X168783Y-075882
X168783Y-078423
X171323Y-075882
X171323Y-078423
X173863Y-075882
X173863Y-078423
X176403Y-075882
X176403Y-078423
X178943Y-075882
X178943Y-078423
X181483Y-075882
X181483Y-078423
X184023Y-075882
X184023Y-078423
X186563Y-075882
X186563Y-078423
X189103Y-075882
X189103Y-078423
X191643Y-075882
X191643Y-078423
X14097Y-041656
X14097Y-044196
X14351Y-041656
X14351Y-044196
X14605Y-041656
X14605Y-044196
X14859Y-041656
X14859Y-044196
X15113Y-041656
X15113Y-044196
X15367Y-041656
X15367Y-044196
X15621Y-041656
X15621Y-044196
X15875Y-041656
X15875Y-044196
X16129Y-041656
X16129Y-044196
X16383Y-041656
X16383Y-044196
X16637Y-041656
X16637Y-044196
X16891Y-041656
X16891Y-044196
X17145Y-041656
X17145Y-044196
X17399Y-041656
X17399Y-044196
X17653Y-041656
X17653Y-044196
X17907Y-041656
X17907Y-044196
X18161Y-041656
X18161Y-044196
X18415Y-041656
X18415Y-044196
X18669Y-041656
X18669Y-044196
X18923Y-041656
X18923Y-044196
X19177Y-041656
X19177Y-044196
X19431Y-041656
X19431Y-044196
X19685Y-041656
X19685Y-044196
X19939Y-041656
X19939Y-044196
X20193Y-041656
X20193Y-044196
T7
X114554Y-045593
X119634Y-045593
X124714Y-045593
X129794Y-045593
T0
M30
